G04 #@! TF.GenerationSoftware,KiCad,Pcbnew,5.0.2-bee76a0~70~ubuntu18.04.1*
G04 #@! TF.CreationDate,2018-12-20T19:54:29+08:00*
G04 #@! TF.ProjectId,arduino-uno,61726475-696e-46f2-9d75-6e6f2e6b6963,rev?*
G04 #@! TF.SameCoordinates,Original*
G04 #@! TF.FileFunction,Copper,L2,Bot*
G04 #@! TF.FilePolarity,Positive*
%FSLAX46Y46*%
G04 Gerber Fmt 4.6, Leading zero omitted, Abs format (unit mm)*
G04 Created by KiCad (PCBNEW 5.0.2-bee76a0~70~ubuntu18.04.1) date 2018年12月20日 星期四 19时54分29秒*
%MOMM*%
%LPD*%
G01*
G04 APERTURE LIST*
G04 #@! TA.AperFunction,ComponentPad*
%ADD10O,1.727200X2.032000*%
G04 #@! TD*
G04 #@! TA.AperFunction,ComponentPad*
%ADD11C,4.064000*%
G04 #@! TD*
G04 #@! TA.AperFunction,ComponentPad*
%ADD12R,3.500000X3.500000*%
G04 #@! TD*
G04 #@! TA.AperFunction,Conductor*
%ADD13C,0.100000*%
G04 #@! TD*
G04 #@! TA.AperFunction,ComponentPad*
%ADD14C,3.000000*%
G04 #@! TD*
G04 #@! TA.AperFunction,ComponentPad*
%ADD15C,3.500000*%
G04 #@! TD*
G04 #@! TA.AperFunction,ComponentPad*
%ADD16R,1.700000X1.700000*%
G04 #@! TD*
G04 #@! TA.AperFunction,ComponentPad*
%ADD17C,1.700000*%
G04 #@! TD*
G04 #@! TA.AperFunction,ComponentPad*
%ADD18O,1.700000X1.700000*%
G04 #@! TD*
G04 #@! TA.AperFunction,SMDPad,CuDef*
%ADD19R,1.000000X1.500000*%
G04 #@! TD*
G04 #@! TA.AperFunction,ComponentPad*
%ADD20R,1.600000X1.600000*%
G04 #@! TD*
G04 #@! TA.AperFunction,ComponentPad*
%ADD21O,1.600000X1.600000*%
G04 #@! TD*
G04 #@! TA.AperFunction,ViaPad*
%ADD22C,0.600000*%
G04 #@! TD*
G04 #@! TA.AperFunction,Conductor*
%ADD23C,0.250000*%
G04 #@! TD*
G04 #@! TA.AperFunction,Conductor*
%ADD24C,0.254000*%
G04 #@! TD*
G04 APERTURE END LIST*
D10*
G04 #@! TO.P,P1,1*
G04 #@! TO.N,Net-(P1-Pad1)*
X138938000Y-123825000D03*
G04 #@! TO.P,P1,2*
G04 #@! TO.N,/Main/IOREF*
X141478000Y-123825000D03*
G04 #@! TO.P,P1,3*
G04 #@! TO.N,/Main/Reset*
X144018000Y-123825000D03*
G04 #@! TO.P,P1,4*
G04 #@! TO.N,+3V3*
X146558000Y-123825000D03*
G04 #@! TO.P,P1,5*
G04 #@! TO.N,+5V*
X149098000Y-123825000D03*
G04 #@! TO.P,P1,6*
G04 #@! TO.N,GND*
X151638000Y-123825000D03*
G04 #@! TO.P,P1,7*
X154178000Y-123825000D03*
G04 #@! TO.P,P1,8*
G04 #@! TO.N,/Main/VIN*
X156718000Y-123825000D03*
G04 #@! TD*
G04 #@! TO.P,P2,1*
G04 #@! TO.N,/Main/A0*
X161798000Y-123825000D03*
G04 #@! TO.P,P2,2*
G04 #@! TO.N,/Main/A1*
X164338000Y-123825000D03*
G04 #@! TO.P,P2,3*
G04 #@! TO.N,/Main/A2*
X166878000Y-123825000D03*
G04 #@! TO.P,P2,4*
G04 #@! TO.N,/Main/A3*
X169418000Y-123825000D03*
G04 #@! TO.P,P2,5*
G04 #@! TO.N,/Main/A4(SDA)*
X171958000Y-123825000D03*
G04 #@! TO.P,P2,6*
G04 #@! TO.N,/Main/A5(SCL)*
X174498000Y-123825000D03*
G04 #@! TD*
G04 #@! TO.P,P3,1*
G04 #@! TO.N,/Main/A5(SCL)*
X129794000Y-75565000D03*
G04 #@! TO.P,P3,2*
G04 #@! TO.N,/Main/A4(SDA)*
X132334000Y-75565000D03*
G04 #@! TO.P,P3,3*
G04 #@! TO.N,/Main/AREF*
X134874000Y-75565000D03*
G04 #@! TO.P,P3,4*
G04 #@! TO.N,GND*
X137414000Y-75565000D03*
G04 #@! TO.P,P3,5*
G04 #@! TO.N,/Main/13(SCK)*
X139954000Y-75565000D03*
G04 #@! TO.P,P3,6*
G04 #@! TO.N,/Main/12(MISO)*
X142494000Y-75565000D03*
G04 #@! TO.P,P3,7*
G04 #@! TO.N,/Main/11(\002A\002A/MOSI)*
X145034000Y-75565000D03*
G04 #@! TO.P,P3,8*
G04 #@! TO.N,/Main/10(\002A\002A/SS)*
X147574000Y-75565000D03*
G04 #@! TO.P,P3,9*
G04 #@! TO.N,/Main/9(\002A\002A)*
X150114000Y-75565000D03*
G04 #@! TO.P,P3,10*
G04 #@! TO.N,/Main/8*
X152654000Y-75565000D03*
G04 #@! TD*
G04 #@! TO.P,P4,1*
G04 #@! TO.N,/Main/7*
X156718000Y-75565000D03*
G04 #@! TO.P,P4,2*
G04 #@! TO.N,/Main/6(\002A\002A)*
X159258000Y-75565000D03*
G04 #@! TO.P,P4,3*
G04 #@! TO.N,/Main/5(\002A\002A)*
X161798000Y-75565000D03*
G04 #@! TO.P,P4,4*
G04 #@! TO.N,/Main/4*
X164338000Y-75565000D03*
G04 #@! TO.P,P4,5*
G04 #@! TO.N,/Main/3(\002A\002A)*
X166878000Y-75565000D03*
G04 #@! TO.P,P4,6*
G04 #@! TO.N,/Main/2*
X169418000Y-75565000D03*
G04 #@! TO.P,P4,7*
G04 #@! TO.N,/Main/1(Tx)*
X171958000Y-75565000D03*
G04 #@! TO.P,P4,8*
G04 #@! TO.N,/Main/0(Rx)*
X174498000Y-75565000D03*
G04 #@! TD*
D11*
G04 #@! TO.P,P5,1*
G04 #@! TO.N,Net-(P5-Pad1)*
X124968000Y-123825000D03*
G04 #@! TD*
G04 #@! TO.P,P6,1*
G04 #@! TO.N,Net-(P6-Pad1)*
X177038000Y-119927000D03*
G04 #@! TD*
G04 #@! TO.P,P7,1*
G04 #@! TO.N,Net-(P7-Pad1)*
X126238000Y-75565000D03*
G04 #@! TD*
G04 #@! TO.P,P8,1*
G04 #@! TO.N,Net-(P8-Pad1)*
X177038000Y-90805000D03*
G04 #@! TD*
D12*
G04 #@! TO.P,J1,1*
G04 #@! TO.N,Net-(D1-Pad2)*
X122078000Y-118745000D03*
D13*
G04 #@! TD*
G04 #@! TO.N,GND*
G04 #@! TO.C,J1*
G36*
X116901513Y-116998611D02*
X116974318Y-117009411D01*
X117045714Y-117027295D01*
X117115013Y-117052090D01*
X117181548Y-117083559D01*
X117244678Y-117121398D01*
X117303795Y-117165242D01*
X117358330Y-117214670D01*
X117407758Y-117269205D01*
X117451602Y-117328322D01*
X117489441Y-117391452D01*
X117520910Y-117457987D01*
X117545705Y-117527286D01*
X117563589Y-117598682D01*
X117574389Y-117671487D01*
X117578000Y-117745000D01*
X117578000Y-119745000D01*
X117574389Y-119818513D01*
X117563589Y-119891318D01*
X117545705Y-119962714D01*
X117520910Y-120032013D01*
X117489441Y-120098548D01*
X117451602Y-120161678D01*
X117407758Y-120220795D01*
X117358330Y-120275330D01*
X117303795Y-120324758D01*
X117244678Y-120368602D01*
X117181548Y-120406441D01*
X117115013Y-120437910D01*
X117045714Y-120462705D01*
X116974318Y-120480589D01*
X116901513Y-120491389D01*
X116828000Y-120495000D01*
X115328000Y-120495000D01*
X115254487Y-120491389D01*
X115181682Y-120480589D01*
X115110286Y-120462705D01*
X115040987Y-120437910D01*
X114974452Y-120406441D01*
X114911322Y-120368602D01*
X114852205Y-120324758D01*
X114797670Y-120275330D01*
X114748242Y-120220795D01*
X114704398Y-120161678D01*
X114666559Y-120098548D01*
X114635090Y-120032013D01*
X114610295Y-119962714D01*
X114592411Y-119891318D01*
X114581611Y-119818513D01*
X114578000Y-119745000D01*
X114578000Y-117745000D01*
X114581611Y-117671487D01*
X114592411Y-117598682D01*
X114610295Y-117527286D01*
X114635090Y-117457987D01*
X114666559Y-117391452D01*
X114704398Y-117328322D01*
X114748242Y-117269205D01*
X114797670Y-117214670D01*
X114852205Y-117165242D01*
X114911322Y-117121398D01*
X114974452Y-117083559D01*
X115040987Y-117052090D01*
X115110286Y-117027295D01*
X115181682Y-117009411D01*
X115254487Y-116998611D01*
X115328000Y-116995000D01*
X116828000Y-116995000D01*
X116901513Y-116998611D01*
X116901513Y-116998611D01*
G37*
D14*
G04 #@! TO.P,J1,2*
G04 #@! TO.N,GND*
X116078000Y-118745000D03*
D13*
G04 #@! TD*
G04 #@! TO.N,N/C*
G04 #@! TO.C,J1*
G36*
X120038765Y-121699213D02*
X120123704Y-121711813D01*
X120206999Y-121732677D01*
X120287848Y-121761605D01*
X120365472Y-121798319D01*
X120439124Y-121842464D01*
X120508094Y-121893616D01*
X120571718Y-121951282D01*
X120629384Y-122014906D01*
X120680536Y-122083876D01*
X120724681Y-122157528D01*
X120761395Y-122235152D01*
X120790323Y-122316001D01*
X120811187Y-122399296D01*
X120823787Y-122484235D01*
X120828000Y-122570000D01*
X120828000Y-124320000D01*
X120823787Y-124405765D01*
X120811187Y-124490704D01*
X120790323Y-124573999D01*
X120761395Y-124654848D01*
X120724681Y-124732472D01*
X120680536Y-124806124D01*
X120629384Y-124875094D01*
X120571718Y-124938718D01*
X120508094Y-124996384D01*
X120439124Y-125047536D01*
X120365472Y-125091681D01*
X120287848Y-125128395D01*
X120206999Y-125157323D01*
X120123704Y-125178187D01*
X120038765Y-125190787D01*
X119953000Y-125195000D01*
X118203000Y-125195000D01*
X118117235Y-125190787D01*
X118032296Y-125178187D01*
X117949001Y-125157323D01*
X117868152Y-125128395D01*
X117790528Y-125091681D01*
X117716876Y-125047536D01*
X117647906Y-124996384D01*
X117584282Y-124938718D01*
X117526616Y-124875094D01*
X117475464Y-124806124D01*
X117431319Y-124732472D01*
X117394605Y-124654848D01*
X117365677Y-124573999D01*
X117344813Y-124490704D01*
X117332213Y-124405765D01*
X117328000Y-124320000D01*
X117328000Y-122570000D01*
X117332213Y-122484235D01*
X117344813Y-122399296D01*
X117365677Y-122316001D01*
X117394605Y-122235152D01*
X117431319Y-122157528D01*
X117475464Y-122083876D01*
X117526616Y-122014906D01*
X117584282Y-121951282D01*
X117647906Y-121893616D01*
X117716876Y-121842464D01*
X117790528Y-121798319D01*
X117868152Y-121761605D01*
X117949001Y-121732677D01*
X118032296Y-121711813D01*
X118117235Y-121699213D01*
X118203000Y-121695000D01*
X119953000Y-121695000D01*
X120038765Y-121699213D01*
X120038765Y-121699213D01*
G37*
D15*
G04 #@! TO.P,J1,3*
G04 #@! TO.N,N/C*
X119078000Y-123445000D03*
G04 #@! TD*
D16*
G04 #@! TO.P,J2,1*
G04 #@! TO.N,Net-(F1-Pad2)*
X118248000Y-89635000D03*
D17*
G04 #@! TO.P,J2,2*
G04 #@! TO.N,Net-(J2-Pad2)*
X118248000Y-87135000D03*
G04 #@! TO.P,J2,3*
G04 #@! TO.N,Net-(J2-Pad3)*
X116248000Y-87135000D03*
G04 #@! TO.P,J2,4*
G04 #@! TO.N,Net-(FB1-Pad2)*
X116248000Y-89635000D03*
D15*
G04 #@! TO.P,J2,5*
G04 #@! TO.N,Net-(FB1-Pad1)*
X113538000Y-94405000D03*
X113538000Y-82365000D03*
G04 #@! TD*
D16*
G04 #@! TO.P,J3,1*
G04 #@! TO.N,/USB/MISO2*
X132334000Y-79375000D03*
D18*
G04 #@! TO.P,J3,2*
G04 #@! TO.N,+5V*
X132334000Y-81915000D03*
G04 #@! TO.P,J3,3*
G04 #@! TO.N,/USB/SCK2*
X129794000Y-79375000D03*
G04 #@! TO.P,J3,4*
G04 #@! TO.N,/USB/MOSI2*
X129794000Y-81915000D03*
G04 #@! TO.P,J3,5*
G04 #@! TO.N,Net-(D3-Pad2)*
X127254000Y-79375000D03*
G04 #@! TO.P,J3,6*
G04 #@! TO.N,GND*
X127254000Y-81915000D03*
G04 #@! TD*
D16*
G04 #@! TO.P,J4,1*
G04 #@! TO.N,Net-(J4-Pad1)*
X132334000Y-84455000D03*
D18*
G04 #@! TO.P,J4,2*
G04 #@! TO.N,Net-(J4-Pad2)*
X132334000Y-86995000D03*
G04 #@! TO.P,J4,3*
G04 #@! TO.N,Net-(J4-Pad3)*
X129794000Y-84455000D03*
G04 #@! TO.P,J4,4*
G04 #@! TO.N,Net-(J4-Pad4)*
X129794000Y-86995000D03*
G04 #@! TD*
G04 #@! TO.P,ICSP,6*
G04 #@! TO.N,GND*
X177038000Y-100965000D03*
G04 #@! TO.P,ICSP,5*
G04 #@! TO.N,/Main/Reset*
X174498000Y-100965000D03*
G04 #@! TO.P,ICSP,4*
G04 #@! TO.N,/Main/11(\002A\002A/MOSI)*
X177038000Y-98425000D03*
G04 #@! TO.P,ICSP,3*
G04 #@! TO.N,/Main/13(SCK)*
X174498000Y-98425000D03*
G04 #@! TO.P,ICSP,2*
G04 #@! TO.N,+5V*
X177038000Y-95885000D03*
D16*
G04 #@! TO.P,ICSP,1*
G04 #@! TO.N,/Main/12(MISO)*
X174498000Y-95885000D03*
G04 #@! TD*
D19*
G04 #@! TO.P,GROUND,2*
G04 #@! TO.N,GND*
X120904000Y-84455000D03*
G04 #@! TO.P,GROUND,1*
G04 #@! TO.N,Net-(FB1-Pad2)*
X119604000Y-84455000D03*
G04 #@! TD*
D20*
G04 #@! TO.P,U5,1*
G04 #@! TO.N,/Main/Reset*
X174498000Y-105537000D03*
D21*
G04 #@! TO.P,U5,15*
G04 #@! TO.N,/Main/9(\002A\002A)*
X141478000Y-113157000D03*
G04 #@! TO.P,U5,2*
G04 #@! TO.N,/Main/0(Rx)*
X171958000Y-105537000D03*
G04 #@! TO.P,U5,16*
G04 #@! TO.N,/Main/10(\002A\002A/SS)*
X144018000Y-113157000D03*
G04 #@! TO.P,U5,3*
G04 #@! TO.N,/Main/1(Tx)*
X169418000Y-105537000D03*
G04 #@! TO.P,U5,17*
G04 #@! TO.N,/Main/11(\002A\002A/MOSI)*
X146558000Y-113157000D03*
G04 #@! TO.P,U5,4*
G04 #@! TO.N,/Main/2*
X166878000Y-105537000D03*
G04 #@! TO.P,U5,18*
G04 #@! TO.N,/Main/12(MISO)*
X149098000Y-113157000D03*
G04 #@! TO.P,U5,5*
G04 #@! TO.N,/Main/3(\002A\002A)*
X164338000Y-105537000D03*
G04 #@! TO.P,U5,19*
G04 #@! TO.N,/Main/13(SCK)*
X151638000Y-113157000D03*
G04 #@! TO.P,U5,6*
G04 #@! TO.N,/Main/4*
X161798000Y-105537000D03*
G04 #@! TO.P,U5,20*
G04 #@! TO.N,+5V*
X154178000Y-113157000D03*
G04 #@! TO.P,U5,7*
X159258000Y-105537000D03*
G04 #@! TO.P,U5,21*
G04 #@! TO.N,/Main/AREF*
X156718000Y-113157000D03*
G04 #@! TO.P,U5,8*
G04 #@! TO.N,GND*
X156718000Y-105537000D03*
G04 #@! TO.P,U5,22*
X159258000Y-113157000D03*
G04 #@! TO.P,U5,9*
G04 #@! TO.N,Net-(R2-Pad1)*
X154178000Y-105537000D03*
G04 #@! TO.P,U5,23*
G04 #@! TO.N,/Main/A0*
X161798000Y-113157000D03*
G04 #@! TO.P,U5,10*
G04 #@! TO.N,Net-(R2-Pad2)*
X151638000Y-105537000D03*
G04 #@! TO.P,U5,24*
G04 #@! TO.N,/Main/A1*
X164338000Y-113157000D03*
G04 #@! TO.P,U5,11*
G04 #@! TO.N,/Main/5(\002A\002A)*
X149098000Y-105537000D03*
G04 #@! TO.P,U5,25*
G04 #@! TO.N,/Main/A2*
X166878000Y-113157000D03*
G04 #@! TO.P,U5,12*
G04 #@! TO.N,/Main/6(\002A\002A)*
X146558000Y-105537000D03*
G04 #@! TO.P,U5,26*
G04 #@! TO.N,/Main/A3*
X169418000Y-113157000D03*
G04 #@! TO.P,U5,13*
G04 #@! TO.N,/Main/7*
X144018000Y-105537000D03*
G04 #@! TO.P,U5,27*
G04 #@! TO.N,/Main/A4(SDA)*
X171958000Y-113157000D03*
G04 #@! TO.P,U5,14*
G04 #@! TO.N,/Main/8*
X141478000Y-105537000D03*
G04 #@! TO.P,U5,28*
G04 #@! TO.N,/Main/A5(SCL)*
X174498000Y-113157000D03*
G04 #@! TD*
D22*
G04 #@! TO.N,+5V*
X133603600Y-96517100D03*
X133845700Y-102472800D03*
X136676200Y-86970000D03*
X126030400Y-86137800D03*
G04 #@! TO.N,GND*
X131535700Y-97143100D03*
X130361000Y-105905700D03*
X130021200Y-108812700D03*
G04 #@! TO.N,/Main/VIN*
X162803600Y-95061600D03*
G04 #@! TO.N,Net-(C9-Pad1)*
X129053600Y-89562000D03*
X137347600Y-83179200D03*
G04 #@! TO.N,/Main/DTR*
X135768500Y-103720600D03*
X135545500Y-92855000D03*
X135816300Y-95001400D03*
G04 #@! TO.N,Net-(D3-Pad2)*
X173490900Y-92475600D03*
G04 #@! TO.N,Net-(D4-Pad2)*
X136918400Y-91237700D03*
X136458700Y-102956000D03*
G04 #@! TO.N,/Main/Reset*
X122498100Y-82624800D03*
X132744300Y-99329500D03*
G04 #@! TO.N,Net-(D7-Pad2)*
X136868700Y-84834700D03*
X137752100Y-100442700D03*
G04 #@! TO.N,Net-(FB1-Pad2)*
X127415600Y-92674800D03*
G04 #@! TO.N,/Main/11(\002A\002A/MOSI)*
X156718000Y-110871000D03*
G04 #@! TO.N,/Main/13(SCK)*
X137257400Y-104780800D03*
G04 #@! TO.N,Net-(RN2-Pad1)*
X136848600Y-100598800D03*
X135339400Y-105262400D03*
G04 #@! TO.N,/Main/M8RXD*
X136450800Y-89948100D03*
X134891800Y-95011700D03*
G04 #@! TO.N,/Main/M8TXD*
X136196500Y-89145300D03*
X133789700Y-95542500D03*
G04 #@! TD*
D23*
G04 #@! TO.N,+5V*
X133845700Y-102472800D02*
X133845700Y-96759200D01*
X133845700Y-96759200D02*
X133603600Y-96517100D01*
X128478000Y-88585400D02*
X128387900Y-88675500D01*
X128387900Y-88675500D02*
X128387900Y-90978000D01*
X128387900Y-90978000D02*
X132744300Y-95334400D01*
X132744300Y-95334400D02*
X132744300Y-95657800D01*
X132744300Y-95657800D02*
X133603600Y-96517100D01*
X128478000Y-88585400D02*
X126030400Y-86137800D01*
X133559000Y-86970000D02*
X133559000Y-87481900D01*
X133559000Y-87481900D02*
X132455500Y-88585400D01*
X132455500Y-88585400D02*
X128478000Y-88585400D01*
X133559000Y-86970000D02*
X136676200Y-86970000D01*
X132334000Y-83090300D02*
X133142100Y-83090300D01*
X133142100Y-83090300D02*
X133559000Y-83507200D01*
X133559000Y-83507200D02*
X133559000Y-86970000D01*
X159258000Y-105537000D02*
X158132700Y-105537000D01*
X154178000Y-113719600D02*
X154775900Y-114317500D01*
X154775900Y-114317500D02*
X157184300Y-114317500D01*
X157184300Y-114317500D02*
X157887500Y-113614300D01*
X157887500Y-113614300D02*
X157887500Y-108957000D01*
X157887500Y-108957000D02*
X155536600Y-106606100D01*
X155536600Y-106606100D02*
X155536600Y-105126600D01*
X155536600Y-105126600D02*
X156251500Y-104411700D01*
X156251500Y-104411700D02*
X157288800Y-104411700D01*
X157288800Y-104411700D02*
X158132700Y-105255600D01*
X158132700Y-105255600D02*
X158132700Y-105537000D01*
X154178000Y-113157000D02*
X154178000Y-113719600D01*
X132334000Y-81915000D02*
X132334000Y-83090300D01*
G04 #@! TO.N,GND*
X130361000Y-97143100D02*
X130361000Y-94735800D01*
X130361000Y-94735800D02*
X121155500Y-85530300D01*
X121155500Y-85530300D02*
X120904000Y-85530300D01*
X130361000Y-105905700D02*
X130361000Y-97143100D01*
X130361000Y-97143100D02*
X131535700Y-97143100D01*
X127254000Y-81915000D02*
X122323600Y-81915000D01*
X122323600Y-81915000D02*
X120904000Y-83334600D01*
X120904000Y-83334600D02*
X120904000Y-83379700D01*
X120904000Y-84455000D02*
X120904000Y-85530300D01*
X130021200Y-108812700D02*
X130021200Y-106245500D01*
X130021200Y-106245500D02*
X130361000Y-105905700D01*
X120904000Y-84455000D02*
X120904000Y-83379700D01*
X116078000Y-118745000D02*
X126010300Y-108812700D01*
X126010300Y-108812700D02*
X130021200Y-108812700D01*
X156718000Y-105537000D02*
X156718000Y-106662300D01*
X159258000Y-113157000D02*
X159258000Y-109202300D01*
X159258000Y-109202300D02*
X156718000Y-106662300D01*
G04 #@! TO.N,/Main/VIN*
X156718000Y-123825000D02*
X157906900Y-123825000D01*
X157906900Y-123825000D02*
X160383400Y-121348500D01*
X160383400Y-121348500D02*
X160383400Y-97481800D01*
X160383400Y-97481800D02*
X162803600Y-95061600D01*
G04 #@! TO.N,Net-(C9-Pad1)*
X137347600Y-83179200D02*
X136243300Y-84283500D01*
X136243300Y-84283500D02*
X136243300Y-85171100D01*
X136243300Y-85171100D02*
X137301700Y-86229500D01*
X137301700Y-86229500D02*
X137301700Y-87265600D01*
X137301700Y-87265600D02*
X136749500Y-87817800D01*
X136749500Y-87817800D02*
X134557300Y-87817800D01*
X134557300Y-87817800D02*
X132813100Y-89562000D01*
X132813100Y-89562000D02*
X129053600Y-89562000D01*
G04 #@! TO.N,/Main/DTR*
X135816300Y-95001400D02*
X135700700Y-95117000D01*
X135700700Y-95117000D02*
X135700700Y-103652800D01*
X135700700Y-103652800D02*
X135768500Y-103720600D01*
X135545500Y-92855000D02*
X135545500Y-94730600D01*
X135545500Y-94730600D02*
X135816300Y-95001400D01*
G04 #@! TO.N,Net-(D3-Pad2)*
X127254000Y-79375000D02*
X128429300Y-79375000D01*
X128429300Y-79375000D02*
X128429300Y-78772600D01*
X128429300Y-78772600D02*
X131064000Y-76137900D01*
X131064000Y-76137900D02*
X131064000Y-74932700D01*
X131064000Y-74932700D02*
X132249200Y-73747500D01*
X132249200Y-73747500D02*
X174558800Y-73747500D01*
X174558800Y-73747500D02*
X175719100Y-74907800D01*
X175719100Y-74907800D02*
X175719100Y-82261900D01*
X175719100Y-82261900D02*
X174379400Y-83601600D01*
X174379400Y-83601600D02*
X174379400Y-91587100D01*
X174379400Y-91587100D02*
X173490900Y-92475600D01*
G04 #@! TO.N,Net-(D4-Pad2)*
X136918400Y-91237700D02*
X136918400Y-99416400D01*
X136918400Y-99416400D02*
X136151100Y-100183700D01*
X136151100Y-100183700D02*
X136151100Y-102648400D01*
X136151100Y-102648400D02*
X136458700Y-102956000D01*
G04 #@! TO.N,/Main/Reset*
X122498100Y-82624800D02*
X122498100Y-85725100D01*
X122498100Y-85725100D02*
X132294000Y-95521000D01*
X132294000Y-95521000D02*
X132294000Y-98879200D01*
X132294000Y-98879200D02*
X132744300Y-99329500D01*
X142829100Y-123825000D02*
X142829100Y-122636100D01*
X142829100Y-122636100D02*
X132744300Y-112551300D01*
X132744300Y-112551300D02*
X132744300Y-99329500D01*
X144018000Y-123825000D02*
X145206900Y-123825000D01*
X174498000Y-105537000D02*
X174498000Y-106662300D01*
X174498000Y-106662300D02*
X173228000Y-107932300D01*
X173228000Y-107932300D02*
X173228000Y-124449200D01*
X173228000Y-124449200D02*
X172492000Y-125185200D01*
X172492000Y-125185200D02*
X146047000Y-125185200D01*
X146047000Y-125185200D02*
X145206900Y-124345100D01*
X145206900Y-124345100D02*
X145206900Y-123825000D01*
X174498000Y-100965000D02*
X174498000Y-105537000D01*
X144018000Y-123825000D02*
X142829100Y-123825000D01*
G04 #@! TO.N,Net-(D7-Pad2)*
X137752100Y-100442700D02*
X137752100Y-85718100D01*
X137752100Y-85718100D02*
X136868700Y-84834700D01*
G04 #@! TO.N,Net-(FB1-Pad2)*
X119604000Y-88050700D02*
X124228100Y-92674800D01*
X124228100Y-92674800D02*
X127415600Y-92674800D01*
X119604000Y-88050700D02*
X119604000Y-84455000D01*
X116248000Y-89635000D02*
X116248000Y-89414600D01*
X116248000Y-89414600D02*
X117203000Y-88459600D01*
X117203000Y-88459600D02*
X119195100Y-88459600D01*
X119195100Y-88459600D02*
X119604000Y-88050700D01*
G04 #@! TO.N,/Main/11(\002A\002A/MOSI)*
X145432700Y-113157000D02*
X145432700Y-113333900D01*
X145432700Y-113333900D02*
X144010500Y-114756100D01*
X144010500Y-114756100D02*
X140810400Y-114756100D01*
X140810400Y-114756100D02*
X139413600Y-113359300D01*
X139413600Y-113359300D02*
X139413600Y-104511300D01*
X139413600Y-104511300D02*
X145034000Y-98890900D01*
X145034000Y-98890900D02*
X145034000Y-76906300D01*
X145034000Y-75565000D02*
X145034000Y-76906300D01*
X146558000Y-113157000D02*
X145432700Y-113157000D01*
X148844000Y-110871000D02*
X146558000Y-113157000D01*
X156718000Y-110871000D02*
X148844000Y-110871000D01*
G04 #@! TO.N,/Main/13(SCK)*
X150512700Y-113157000D02*
X150512700Y-113438300D01*
X150512700Y-113438300D02*
X148273100Y-115677900D01*
X148273100Y-115677900D02*
X140384700Y-115677900D01*
X140384700Y-115677900D02*
X137257400Y-112550600D01*
X137257400Y-112550600D02*
X137257400Y-104780800D01*
X151638000Y-113157000D02*
X150512700Y-113157000D01*
X137257400Y-104780800D02*
X139954000Y-102084200D01*
X139954000Y-102084200D02*
X139954000Y-75565000D01*
G04 #@! TO.N,/Main/12(MISO)*
X147972700Y-113157000D02*
X147972700Y-113438300D01*
X147972700Y-113438300D02*
X146196600Y-115214400D01*
X146196600Y-115214400D02*
X140609100Y-115214400D01*
X140609100Y-115214400D02*
X138915900Y-113521200D01*
X138915900Y-113521200D02*
X138915900Y-103997100D01*
X138915900Y-103997100D02*
X142494000Y-100419000D01*
X142494000Y-100419000D02*
X142494000Y-75565000D01*
X149098000Y-113157000D02*
X147972700Y-113157000D01*
G04 #@! TO.N,/Main/A0*
X161798000Y-113157000D02*
X161798000Y-123825000D01*
G04 #@! TO.N,/Main/A1*
X164338000Y-113157000D02*
X164338000Y-123825000D01*
G04 #@! TO.N,/Main/A2*
X166878000Y-113157000D02*
X166878000Y-123825000D01*
G04 #@! TO.N,/Main/A3*
X169418000Y-113157000D02*
X169418000Y-123825000D01*
G04 #@! TO.N,/Main/A4(SDA)*
X171958000Y-113157000D02*
X171958000Y-112031700D01*
X171958000Y-112031700D02*
X171676700Y-112031700D01*
X171676700Y-112031700D02*
X165745100Y-106100100D01*
X165745100Y-106100100D02*
X165745100Y-104348400D01*
X165745100Y-104348400D02*
X168148000Y-101945500D01*
X168148000Y-101945500D02*
X168148000Y-74981600D01*
X168148000Y-74981600D02*
X167364300Y-74197900D01*
X167364300Y-74197900D02*
X134369900Y-74197900D01*
X134369900Y-74197900D02*
X133522900Y-75044900D01*
X133522900Y-75044900D02*
X133522900Y-75565000D01*
X171958000Y-113157000D02*
X171958000Y-123825000D01*
X132334000Y-75565000D02*
X133522900Y-75565000D01*
G04 #@! TO.N,/Main/A5(SCL)*
X174498000Y-113157000D02*
X174498000Y-123825000D01*
G04 #@! TO.N,/Main/AREF*
X155592700Y-113157000D02*
X155592700Y-112875700D01*
X155592700Y-112875700D02*
X154737600Y-112020600D01*
X154737600Y-112020600D02*
X153713300Y-112020600D01*
X153713300Y-112020600D02*
X152908000Y-112825900D01*
X152908000Y-112825900D02*
X152908000Y-113554100D01*
X152908000Y-113554100D02*
X150319500Y-116142600D01*
X150319500Y-116142600D02*
X140204600Y-116142600D01*
X140204600Y-116142600D02*
X136630100Y-112568100D01*
X136630100Y-112568100D02*
X136630100Y-104491000D01*
X136630100Y-104491000D02*
X138399900Y-102721200D01*
X138399900Y-102721200D02*
X138399900Y-79090900D01*
X138399900Y-79090900D02*
X136062900Y-76753900D01*
X136062900Y-76753900D02*
X136062900Y-75565000D01*
X134874000Y-75565000D02*
X136062900Y-75565000D01*
X156718000Y-113157000D02*
X155592700Y-113157000D01*
G04 #@! TO.N,/Main/10(\002A\002A/SS)*
X147574000Y-75565000D02*
X147574000Y-96987800D01*
X147574000Y-96987800D02*
X139871400Y-104690400D01*
X139871400Y-104690400D02*
X139871400Y-113180200D01*
X139871400Y-113180200D02*
X140996900Y-114305700D01*
X140996900Y-114305700D02*
X142025300Y-114305700D01*
X142025300Y-114305700D02*
X142892700Y-113438300D01*
X142892700Y-113438300D02*
X142892700Y-113157000D01*
X144018000Y-113157000D02*
X142892700Y-113157000D01*
G04 #@! TO.N,/Main/9(\002A\002A)*
X141478000Y-113157000D02*
X141478000Y-112031700D01*
X141478000Y-112031700D02*
X140321800Y-110875500D01*
X140321800Y-110875500D02*
X140321800Y-104931000D01*
X140321800Y-104931000D02*
X150114000Y-95138800D01*
X150114000Y-95138800D02*
X150114000Y-75565000D01*
G04 #@! TO.N,/Main/8*
X141478000Y-105537000D02*
X141478000Y-104411700D01*
X141478000Y-104411700D02*
X152654000Y-93235700D01*
X152654000Y-93235700D02*
X152654000Y-75565000D01*
G04 #@! TO.N,/Main/7*
X144018000Y-104411700D02*
X156718000Y-91711700D01*
X156718000Y-91711700D02*
X156718000Y-76906300D01*
X156718000Y-75565000D02*
X156718000Y-76906300D01*
X144018000Y-105537000D02*
X144018000Y-104411700D01*
G04 #@! TO.N,/Main/6(\002A\002A)*
X146558000Y-105537000D02*
X146558000Y-104411700D01*
X146558000Y-104411700D02*
X159258000Y-91711700D01*
X159258000Y-91711700D02*
X159258000Y-75565000D01*
G04 #@! TO.N,/Main/5(\002A\002A)*
X149098000Y-105537000D02*
X149098000Y-104411700D01*
X149098000Y-104411700D02*
X161798000Y-91711700D01*
X161798000Y-91711700D02*
X161798000Y-75565000D01*
G04 #@! TO.N,/Main/4*
X164338000Y-75565000D02*
X164338000Y-101871700D01*
X164338000Y-101871700D02*
X161798000Y-104411700D01*
X161798000Y-105537000D02*
X161798000Y-104411700D01*
G04 #@! TO.N,/Main/3(\002A\002A)*
X166878000Y-76906300D02*
X166878000Y-101871700D01*
X166878000Y-101871700D02*
X164338000Y-104411700D01*
X166878000Y-75565000D02*
X166878000Y-76906300D01*
X164338000Y-105537000D02*
X164338000Y-104411700D01*
G04 #@! TO.N,/Main/2*
X169418000Y-76906300D02*
X169418000Y-101871700D01*
X169418000Y-101871700D02*
X166878000Y-104411700D01*
X169418000Y-75565000D02*
X169418000Y-76906300D01*
X166878000Y-105537000D02*
X166878000Y-104411700D01*
G04 #@! TO.N,/Main/1(Tx)*
X171958000Y-76906300D02*
X170898200Y-77966100D01*
X170898200Y-77966100D02*
X170898200Y-102931500D01*
X170898200Y-102931500D02*
X169418000Y-104411700D01*
X171958000Y-75565000D02*
X171958000Y-76906300D01*
X169418000Y-105537000D02*
X169418000Y-104411700D01*
G04 #@! TO.N,/Main/0(Rx)*
X173309100Y-75565000D02*
X173309100Y-91773100D01*
X173309100Y-91773100D02*
X171958000Y-93124200D01*
X171958000Y-93124200D02*
X171958000Y-104411700D01*
X171958000Y-105537000D02*
X171958000Y-104411700D01*
X174498000Y-75565000D02*
X173309100Y-75565000D01*
G04 #@! TO.N,Net-(RN2-Pad1)*
X135339400Y-105262400D02*
X135339500Y-105262400D01*
X135339500Y-105262400D02*
X135339500Y-105054100D01*
X135339500Y-105054100D02*
X137105300Y-103288300D01*
X137105300Y-103288300D02*
X137105300Y-100855500D01*
X137105300Y-100855500D02*
X136848600Y-100598800D01*
G04 #@! TO.N,/Main/M8RXD*
X134891800Y-95011700D02*
X134891800Y-91507100D01*
X134891800Y-91507100D02*
X136450800Y-89948100D01*
G04 #@! TO.N,/Main/M8TXD*
X133789700Y-95542500D02*
X133789700Y-91552100D01*
X133789700Y-91552100D02*
X136196500Y-89145300D01*
G04 #@! TD*
D24*
G04 #@! TO.N,GND*
G36*
X123977026Y-74054266D02*
X123571000Y-75034501D01*
X123571000Y-76095499D01*
X123977026Y-77075734D01*
X124727266Y-77825974D01*
X125707501Y-78232000D01*
X126291692Y-78232000D01*
X126183375Y-78304375D01*
X125855161Y-78795582D01*
X125739908Y-79375000D01*
X125855161Y-79954418D01*
X126183375Y-80445625D01*
X126483786Y-80646353D01*
X126058817Y-81033642D01*
X125812514Y-81558108D01*
X125933181Y-81788000D01*
X127127000Y-81788000D01*
X127127000Y-81768000D01*
X127381000Y-81768000D01*
X127381000Y-81788000D01*
X127401000Y-81788000D01*
X127401000Y-82042000D01*
X127381000Y-82042000D01*
X127381000Y-83235155D01*
X127610890Y-83356476D01*
X128020924Y-83186645D01*
X128449183Y-82796358D01*
X128510157Y-82666522D01*
X128723375Y-82985625D01*
X129021761Y-83185000D01*
X128723375Y-83384375D01*
X128395161Y-83875582D01*
X128279908Y-84455000D01*
X128395161Y-85034418D01*
X128723375Y-85525625D01*
X129021761Y-85725000D01*
X128723375Y-85924375D01*
X128395161Y-86415582D01*
X128279908Y-86995000D01*
X128358745Y-87391344D01*
X126965400Y-85997999D01*
X126965400Y-85951817D01*
X126823055Y-85608165D01*
X126560035Y-85345145D01*
X126216383Y-85202800D01*
X125844417Y-85202800D01*
X125500765Y-85345145D01*
X125237745Y-85608165D01*
X125095400Y-85951817D01*
X125095400Y-86323783D01*
X125237745Y-86667435D01*
X125500765Y-86930455D01*
X125844417Y-87072800D01*
X125890599Y-87072800D01*
X127627900Y-88810102D01*
X127627900Y-89780099D01*
X123258100Y-85410299D01*
X123258100Y-83187090D01*
X123290755Y-83154435D01*
X123433100Y-82810783D01*
X123433100Y-82438817D01*
X123363958Y-82271892D01*
X125812514Y-82271892D01*
X126058817Y-82796358D01*
X126487076Y-83186645D01*
X126897110Y-83356476D01*
X127127000Y-83235155D01*
X127127000Y-82042000D01*
X125933181Y-82042000D01*
X125812514Y-82271892D01*
X123363958Y-82271892D01*
X123290755Y-82095165D01*
X123027735Y-81832145D01*
X122684083Y-81689800D01*
X122312117Y-81689800D01*
X121968465Y-81832145D01*
X121705445Y-82095165D01*
X121563100Y-82438817D01*
X121563100Y-82810783D01*
X121699499Y-83140081D01*
X121530309Y-83070000D01*
X121189750Y-83070000D01*
X121031000Y-83228750D01*
X121031000Y-84328000D01*
X121051000Y-84328000D01*
X121051000Y-84582000D01*
X121031000Y-84582000D01*
X121031000Y-85681250D01*
X121189750Y-85840000D01*
X121530309Y-85840000D01*
X121729643Y-85757433D01*
X121782197Y-86021637D01*
X121898109Y-86195111D01*
X121950172Y-86273029D01*
X122013628Y-86315429D01*
X127437998Y-91739800D01*
X127229617Y-91739800D01*
X126885965Y-91882145D01*
X126853310Y-91914800D01*
X124542902Y-91914800D01*
X120364000Y-87735899D01*
X120364000Y-85840000D01*
X120618250Y-85840000D01*
X120777000Y-85681250D01*
X120777000Y-84582000D01*
X120757000Y-84582000D01*
X120757000Y-84328000D01*
X120777000Y-84328000D01*
X120777000Y-83228750D01*
X120618250Y-83070000D01*
X120277691Y-83070000D01*
X120241632Y-83084936D01*
X120104000Y-83057560D01*
X119104000Y-83057560D01*
X118856235Y-83106843D01*
X118646191Y-83247191D01*
X118505843Y-83457235D01*
X118456560Y-83705000D01*
X118456560Y-85205000D01*
X118505843Y-85452765D01*
X118646191Y-85662809D01*
X118763428Y-85741145D01*
X118543385Y-85650000D01*
X117952615Y-85650000D01*
X117406815Y-85876078D01*
X117248000Y-86034893D01*
X117089185Y-85876078D01*
X116543385Y-85650000D01*
X115952615Y-85650000D01*
X115406815Y-85876078D01*
X114989078Y-86293815D01*
X114763000Y-86839615D01*
X114763000Y-87430385D01*
X114989078Y-87976185D01*
X115397893Y-88385000D01*
X114989078Y-88793815D01*
X114763000Y-89339615D01*
X114763000Y-89930385D01*
X114989078Y-90476185D01*
X115406815Y-90893922D01*
X115952615Y-91120000D01*
X116543385Y-91120000D01*
X116952043Y-90950728D01*
X117150235Y-91083157D01*
X117398000Y-91132440D01*
X119098000Y-91132440D01*
X119345765Y-91083157D01*
X119555809Y-90942809D01*
X119696157Y-90732765D01*
X119745440Y-90485000D01*
X119745440Y-89266941D01*
X123637771Y-93159273D01*
X123680171Y-93222729D01*
X123931563Y-93390704D01*
X124153248Y-93434800D01*
X124153253Y-93434800D01*
X124228100Y-93449688D01*
X124302947Y-93434800D01*
X126853310Y-93434800D01*
X126885965Y-93467455D01*
X127229617Y-93609800D01*
X127601583Y-93609800D01*
X127945235Y-93467455D01*
X128208255Y-93204435D01*
X128350600Y-92860783D01*
X128350600Y-92652402D01*
X131534000Y-95835802D01*
X131534001Y-98804348D01*
X131519112Y-98879200D01*
X131578097Y-99175737D01*
X131680838Y-99329499D01*
X131746072Y-99427129D01*
X131809300Y-99469377D01*
X131809300Y-99515483D01*
X131951645Y-99859135D01*
X131984301Y-99891791D01*
X131984300Y-112476453D01*
X131969412Y-112551300D01*
X131984300Y-112626147D01*
X131984300Y-112626151D01*
X132028396Y-112847836D01*
X132196371Y-113099229D01*
X132259830Y-113141631D01*
X141298537Y-122180338D01*
X140893275Y-122260950D01*
X140397570Y-122592170D01*
X140208000Y-122875881D01*
X140018430Y-122592170D01*
X139522724Y-122260950D01*
X138938000Y-122144641D01*
X138353275Y-122260950D01*
X137857570Y-122592170D01*
X137526350Y-123087876D01*
X137439400Y-123525003D01*
X137439400Y-124124998D01*
X137526350Y-124562125D01*
X137857570Y-125057830D01*
X138353276Y-125389050D01*
X138938000Y-125505359D01*
X139522725Y-125389050D01*
X140018430Y-125057830D01*
X140208000Y-124774119D01*
X140397570Y-125057830D01*
X140893276Y-125389050D01*
X141478000Y-125505359D01*
X142062725Y-125389050D01*
X142558430Y-125057830D01*
X142748000Y-124774119D01*
X142937570Y-125057830D01*
X143433276Y-125389050D01*
X144018000Y-125505359D01*
X144602725Y-125389050D01*
X144946407Y-125159409D01*
X145441998Y-125655000D01*
X126909708Y-125655000D01*
X127228974Y-125335734D01*
X127635000Y-124355499D01*
X127635000Y-123294501D01*
X127228974Y-122314266D01*
X126478734Y-121564026D01*
X125498499Y-121158000D01*
X124437501Y-121158000D01*
X123457266Y-121564026D01*
X122707026Y-122314266D01*
X122301000Y-123294501D01*
X122301000Y-124355499D01*
X122707026Y-125335734D01*
X123026292Y-125655000D01*
X120642697Y-125655000D01*
X121029528Y-125396528D01*
X121359551Y-124902613D01*
X121475440Y-124320000D01*
X121475440Y-122570000D01*
X121359551Y-121987387D01*
X121029528Y-121493472D01*
X120535613Y-121163449D01*
X120429994Y-121142440D01*
X123828000Y-121142440D01*
X124075765Y-121093157D01*
X124285809Y-120952809D01*
X124426157Y-120742765D01*
X124475440Y-120495000D01*
X124475440Y-116995000D01*
X124426157Y-116747235D01*
X124285809Y-116537191D01*
X124075765Y-116396843D01*
X123828000Y-116347560D01*
X120328000Y-116347560D01*
X120080235Y-116396843D01*
X119870191Y-116537191D01*
X119729843Y-116747235D01*
X119680560Y-116995000D01*
X119680560Y-120495000D01*
X119729843Y-120742765D01*
X119870191Y-120952809D01*
X120037001Y-121064269D01*
X119953000Y-121047560D01*
X118203000Y-121047560D01*
X117620387Y-121163449D01*
X117126472Y-121493472D01*
X116796449Y-121987387D01*
X116680560Y-122570000D01*
X116680560Y-124320000D01*
X116796449Y-124902613D01*
X117126472Y-125396528D01*
X117513303Y-125655000D01*
X111708000Y-125655000D01*
X111708000Y-119030750D01*
X113943000Y-119030750D01*
X113943000Y-120621310D01*
X114039673Y-120854699D01*
X114218302Y-121033327D01*
X114451691Y-121130000D01*
X115792250Y-121130000D01*
X115951000Y-120971250D01*
X115951000Y-118872000D01*
X116205000Y-118872000D01*
X116205000Y-120971250D01*
X116363750Y-121130000D01*
X117704309Y-121130000D01*
X117937698Y-121033327D01*
X118116327Y-120854699D01*
X118213000Y-120621310D01*
X118213000Y-119030750D01*
X118054250Y-118872000D01*
X116205000Y-118872000D01*
X115951000Y-118872000D01*
X114101750Y-118872000D01*
X113943000Y-119030750D01*
X111708000Y-119030750D01*
X111708000Y-116868690D01*
X113943000Y-116868690D01*
X113943000Y-118459250D01*
X114101750Y-118618000D01*
X115951000Y-118618000D01*
X115951000Y-116518750D01*
X116205000Y-116518750D01*
X116205000Y-118618000D01*
X118054250Y-118618000D01*
X118213000Y-118459250D01*
X118213000Y-116868690D01*
X118116327Y-116635301D01*
X117937698Y-116456673D01*
X117704309Y-116360000D01*
X116363750Y-116360000D01*
X116205000Y-116518750D01*
X115951000Y-116518750D01*
X115792250Y-116360000D01*
X114451691Y-116360000D01*
X114218302Y-116456673D01*
X114039673Y-116635301D01*
X113943000Y-116868690D01*
X111708000Y-116868690D01*
X111708000Y-95947899D01*
X112187006Y-96426905D01*
X113063594Y-96790000D01*
X114012406Y-96790000D01*
X114888994Y-96426905D01*
X115559905Y-95755994D01*
X115923000Y-94879406D01*
X115923000Y-93930594D01*
X115559905Y-93054006D01*
X114888994Y-92383095D01*
X114012406Y-92020000D01*
X113063594Y-92020000D01*
X112187006Y-92383095D01*
X111708000Y-92862101D01*
X111708000Y-83907899D01*
X112187006Y-84386905D01*
X113063594Y-84750000D01*
X114012406Y-84750000D01*
X114888994Y-84386905D01*
X115559905Y-83715994D01*
X115923000Y-82839406D01*
X115923000Y-81890594D01*
X115559905Y-81014006D01*
X114888994Y-80343095D01*
X114012406Y-79980000D01*
X113063594Y-79980000D01*
X112187006Y-80343095D01*
X111708000Y-80822101D01*
X111708000Y-73735000D01*
X124296292Y-73735000D01*
X123977026Y-74054266D01*
X123977026Y-74054266D01*
G37*
X123977026Y-74054266D02*
X123571000Y-75034501D01*
X123571000Y-76095499D01*
X123977026Y-77075734D01*
X124727266Y-77825974D01*
X125707501Y-78232000D01*
X126291692Y-78232000D01*
X126183375Y-78304375D01*
X125855161Y-78795582D01*
X125739908Y-79375000D01*
X125855161Y-79954418D01*
X126183375Y-80445625D01*
X126483786Y-80646353D01*
X126058817Y-81033642D01*
X125812514Y-81558108D01*
X125933181Y-81788000D01*
X127127000Y-81788000D01*
X127127000Y-81768000D01*
X127381000Y-81768000D01*
X127381000Y-81788000D01*
X127401000Y-81788000D01*
X127401000Y-82042000D01*
X127381000Y-82042000D01*
X127381000Y-83235155D01*
X127610890Y-83356476D01*
X128020924Y-83186645D01*
X128449183Y-82796358D01*
X128510157Y-82666522D01*
X128723375Y-82985625D01*
X129021761Y-83185000D01*
X128723375Y-83384375D01*
X128395161Y-83875582D01*
X128279908Y-84455000D01*
X128395161Y-85034418D01*
X128723375Y-85525625D01*
X129021761Y-85725000D01*
X128723375Y-85924375D01*
X128395161Y-86415582D01*
X128279908Y-86995000D01*
X128358745Y-87391344D01*
X126965400Y-85997999D01*
X126965400Y-85951817D01*
X126823055Y-85608165D01*
X126560035Y-85345145D01*
X126216383Y-85202800D01*
X125844417Y-85202800D01*
X125500765Y-85345145D01*
X125237745Y-85608165D01*
X125095400Y-85951817D01*
X125095400Y-86323783D01*
X125237745Y-86667435D01*
X125500765Y-86930455D01*
X125844417Y-87072800D01*
X125890599Y-87072800D01*
X127627900Y-88810102D01*
X127627900Y-89780099D01*
X123258100Y-85410299D01*
X123258100Y-83187090D01*
X123290755Y-83154435D01*
X123433100Y-82810783D01*
X123433100Y-82438817D01*
X123363958Y-82271892D01*
X125812514Y-82271892D01*
X126058817Y-82796358D01*
X126487076Y-83186645D01*
X126897110Y-83356476D01*
X127127000Y-83235155D01*
X127127000Y-82042000D01*
X125933181Y-82042000D01*
X125812514Y-82271892D01*
X123363958Y-82271892D01*
X123290755Y-82095165D01*
X123027735Y-81832145D01*
X122684083Y-81689800D01*
X122312117Y-81689800D01*
X121968465Y-81832145D01*
X121705445Y-82095165D01*
X121563100Y-82438817D01*
X121563100Y-82810783D01*
X121699499Y-83140081D01*
X121530309Y-83070000D01*
X121189750Y-83070000D01*
X121031000Y-83228750D01*
X121031000Y-84328000D01*
X121051000Y-84328000D01*
X121051000Y-84582000D01*
X121031000Y-84582000D01*
X121031000Y-85681250D01*
X121189750Y-85840000D01*
X121530309Y-85840000D01*
X121729643Y-85757433D01*
X121782197Y-86021637D01*
X121898109Y-86195111D01*
X121950172Y-86273029D01*
X122013628Y-86315429D01*
X127437998Y-91739800D01*
X127229617Y-91739800D01*
X126885965Y-91882145D01*
X126853310Y-91914800D01*
X124542902Y-91914800D01*
X120364000Y-87735899D01*
X120364000Y-85840000D01*
X120618250Y-85840000D01*
X120777000Y-85681250D01*
X120777000Y-84582000D01*
X120757000Y-84582000D01*
X120757000Y-84328000D01*
X120777000Y-84328000D01*
X120777000Y-83228750D01*
X120618250Y-83070000D01*
X120277691Y-83070000D01*
X120241632Y-83084936D01*
X120104000Y-83057560D01*
X119104000Y-83057560D01*
X118856235Y-83106843D01*
X118646191Y-83247191D01*
X118505843Y-83457235D01*
X118456560Y-83705000D01*
X118456560Y-85205000D01*
X118505843Y-85452765D01*
X118646191Y-85662809D01*
X118763428Y-85741145D01*
X118543385Y-85650000D01*
X117952615Y-85650000D01*
X117406815Y-85876078D01*
X117248000Y-86034893D01*
X117089185Y-85876078D01*
X116543385Y-85650000D01*
X115952615Y-85650000D01*
X115406815Y-85876078D01*
X114989078Y-86293815D01*
X114763000Y-86839615D01*
X114763000Y-87430385D01*
X114989078Y-87976185D01*
X115397893Y-88385000D01*
X114989078Y-88793815D01*
X114763000Y-89339615D01*
X114763000Y-89930385D01*
X114989078Y-90476185D01*
X115406815Y-90893922D01*
X115952615Y-91120000D01*
X116543385Y-91120000D01*
X116952043Y-90950728D01*
X117150235Y-91083157D01*
X117398000Y-91132440D01*
X119098000Y-91132440D01*
X119345765Y-91083157D01*
X119555809Y-90942809D01*
X119696157Y-90732765D01*
X119745440Y-90485000D01*
X119745440Y-89266941D01*
X123637771Y-93159273D01*
X123680171Y-93222729D01*
X123931563Y-93390704D01*
X124153248Y-93434800D01*
X124153253Y-93434800D01*
X124228100Y-93449688D01*
X124302947Y-93434800D01*
X126853310Y-93434800D01*
X126885965Y-93467455D01*
X127229617Y-93609800D01*
X127601583Y-93609800D01*
X127945235Y-93467455D01*
X128208255Y-93204435D01*
X128350600Y-92860783D01*
X128350600Y-92652402D01*
X131534000Y-95835802D01*
X131534001Y-98804348D01*
X131519112Y-98879200D01*
X131578097Y-99175737D01*
X131680838Y-99329499D01*
X131746072Y-99427129D01*
X131809300Y-99469377D01*
X131809300Y-99515483D01*
X131951645Y-99859135D01*
X131984301Y-99891791D01*
X131984300Y-112476453D01*
X131969412Y-112551300D01*
X131984300Y-112626147D01*
X131984300Y-112626151D01*
X132028396Y-112847836D01*
X132196371Y-113099229D01*
X132259830Y-113141631D01*
X141298537Y-122180338D01*
X140893275Y-122260950D01*
X140397570Y-122592170D01*
X140208000Y-122875881D01*
X140018430Y-122592170D01*
X139522724Y-122260950D01*
X138938000Y-122144641D01*
X138353275Y-122260950D01*
X137857570Y-122592170D01*
X137526350Y-123087876D01*
X137439400Y-123525003D01*
X137439400Y-124124998D01*
X137526350Y-124562125D01*
X137857570Y-125057830D01*
X138353276Y-125389050D01*
X138938000Y-125505359D01*
X139522725Y-125389050D01*
X140018430Y-125057830D01*
X140208000Y-124774119D01*
X140397570Y-125057830D01*
X140893276Y-125389050D01*
X141478000Y-125505359D01*
X142062725Y-125389050D01*
X142558430Y-125057830D01*
X142748000Y-124774119D01*
X142937570Y-125057830D01*
X143433276Y-125389050D01*
X144018000Y-125505359D01*
X144602725Y-125389050D01*
X144946407Y-125159409D01*
X145441998Y-125655000D01*
X126909708Y-125655000D01*
X127228974Y-125335734D01*
X127635000Y-124355499D01*
X127635000Y-123294501D01*
X127228974Y-122314266D01*
X126478734Y-121564026D01*
X125498499Y-121158000D01*
X124437501Y-121158000D01*
X123457266Y-121564026D01*
X122707026Y-122314266D01*
X122301000Y-123294501D01*
X122301000Y-124355499D01*
X122707026Y-125335734D01*
X123026292Y-125655000D01*
X120642697Y-125655000D01*
X121029528Y-125396528D01*
X121359551Y-124902613D01*
X121475440Y-124320000D01*
X121475440Y-122570000D01*
X121359551Y-121987387D01*
X121029528Y-121493472D01*
X120535613Y-121163449D01*
X120429994Y-121142440D01*
X123828000Y-121142440D01*
X124075765Y-121093157D01*
X124285809Y-120952809D01*
X124426157Y-120742765D01*
X124475440Y-120495000D01*
X124475440Y-116995000D01*
X124426157Y-116747235D01*
X124285809Y-116537191D01*
X124075765Y-116396843D01*
X123828000Y-116347560D01*
X120328000Y-116347560D01*
X120080235Y-116396843D01*
X119870191Y-116537191D01*
X119729843Y-116747235D01*
X119680560Y-116995000D01*
X119680560Y-120495000D01*
X119729843Y-120742765D01*
X119870191Y-120952809D01*
X120037001Y-121064269D01*
X119953000Y-121047560D01*
X118203000Y-121047560D01*
X117620387Y-121163449D01*
X117126472Y-121493472D01*
X116796449Y-121987387D01*
X116680560Y-122570000D01*
X116680560Y-124320000D01*
X116796449Y-124902613D01*
X117126472Y-125396528D01*
X117513303Y-125655000D01*
X111708000Y-125655000D01*
X111708000Y-119030750D01*
X113943000Y-119030750D01*
X113943000Y-120621310D01*
X114039673Y-120854699D01*
X114218302Y-121033327D01*
X114451691Y-121130000D01*
X115792250Y-121130000D01*
X115951000Y-120971250D01*
X115951000Y-118872000D01*
X116205000Y-118872000D01*
X116205000Y-120971250D01*
X116363750Y-121130000D01*
X117704309Y-121130000D01*
X117937698Y-121033327D01*
X118116327Y-120854699D01*
X118213000Y-120621310D01*
X118213000Y-119030750D01*
X118054250Y-118872000D01*
X116205000Y-118872000D01*
X115951000Y-118872000D01*
X114101750Y-118872000D01*
X113943000Y-119030750D01*
X111708000Y-119030750D01*
X111708000Y-116868690D01*
X113943000Y-116868690D01*
X113943000Y-118459250D01*
X114101750Y-118618000D01*
X115951000Y-118618000D01*
X115951000Y-116518750D01*
X116205000Y-116518750D01*
X116205000Y-118618000D01*
X118054250Y-118618000D01*
X118213000Y-118459250D01*
X118213000Y-116868690D01*
X118116327Y-116635301D01*
X117937698Y-116456673D01*
X117704309Y-116360000D01*
X116363750Y-116360000D01*
X116205000Y-116518750D01*
X115951000Y-116518750D01*
X115792250Y-116360000D01*
X114451691Y-116360000D01*
X114218302Y-116456673D01*
X114039673Y-116635301D01*
X113943000Y-116868690D01*
X111708000Y-116868690D01*
X111708000Y-95947899D01*
X112187006Y-96426905D01*
X113063594Y-96790000D01*
X114012406Y-96790000D01*
X114888994Y-96426905D01*
X115559905Y-95755994D01*
X115923000Y-94879406D01*
X115923000Y-93930594D01*
X115559905Y-93054006D01*
X114888994Y-92383095D01*
X114012406Y-92020000D01*
X113063594Y-92020000D01*
X112187006Y-92383095D01*
X111708000Y-92862101D01*
X111708000Y-83907899D01*
X112187006Y-84386905D01*
X113063594Y-84750000D01*
X114012406Y-84750000D01*
X114888994Y-84386905D01*
X115559905Y-83715994D01*
X115923000Y-82839406D01*
X115923000Y-81890594D01*
X115559905Y-81014006D01*
X114888994Y-80343095D01*
X114012406Y-79980000D01*
X113063594Y-79980000D01*
X112187006Y-80343095D01*
X111708000Y-80822101D01*
X111708000Y-73735000D01*
X124296292Y-73735000D01*
X123977026Y-74054266D01*
G36*
X134705817Y-95946700D02*
X134940700Y-95946700D01*
X134940701Y-103275810D01*
X134833500Y-103534617D01*
X134833500Y-103906583D01*
X134975845Y-104250235D01*
X135022204Y-104296594D01*
X134876835Y-104441964D01*
X134809765Y-104469745D01*
X134546745Y-104732765D01*
X134404400Y-105076417D01*
X134404400Y-105448383D01*
X134546745Y-105792035D01*
X134809765Y-106055055D01*
X135153417Y-106197400D01*
X135525383Y-106197400D01*
X135869035Y-106055055D01*
X135870101Y-106053989D01*
X135870100Y-112493253D01*
X135855212Y-112568100D01*
X135870100Y-112642947D01*
X135870100Y-112642951D01*
X135914196Y-112864636D01*
X136082171Y-113116029D01*
X136145630Y-113158431D01*
X139614273Y-116627076D01*
X139656671Y-116690529D01*
X139720124Y-116732927D01*
X139720126Y-116732929D01*
X139741537Y-116747235D01*
X139908063Y-116858504D01*
X140129748Y-116902600D01*
X140129752Y-116902600D01*
X140204599Y-116917488D01*
X140279446Y-116902600D01*
X150244653Y-116902600D01*
X150319500Y-116917488D01*
X150394347Y-116902600D01*
X150394352Y-116902600D01*
X150616037Y-116858504D01*
X150867429Y-116690529D01*
X150909831Y-116627070D01*
X153264454Y-114272448D01*
X153618091Y-114508740D01*
X153960434Y-114576836D01*
X154185572Y-114801975D01*
X154227971Y-114865429D01*
X154291424Y-114907827D01*
X154291426Y-114907829D01*
X154416802Y-114991602D01*
X154479363Y-115033404D01*
X154701048Y-115077500D01*
X154701052Y-115077500D01*
X154775899Y-115092388D01*
X154850746Y-115077500D01*
X157109453Y-115077500D01*
X157184300Y-115092388D01*
X157259147Y-115077500D01*
X157259152Y-115077500D01*
X157480837Y-115033404D01*
X157732229Y-114865429D01*
X157774631Y-114801970D01*
X158346370Y-114230232D01*
X158520577Y-114388041D01*
X158908961Y-114548904D01*
X159131000Y-114426915D01*
X159131000Y-113284000D01*
X159111000Y-113284000D01*
X159111000Y-113030000D01*
X159131000Y-113030000D01*
X159131000Y-111887085D01*
X158908961Y-111765096D01*
X158647500Y-111873389D01*
X158647500Y-109031848D01*
X158662388Y-108957000D01*
X158647500Y-108882152D01*
X158647500Y-108882148D01*
X158603404Y-108660463D01*
X158603404Y-108660462D01*
X158477829Y-108472527D01*
X158435429Y-108409071D01*
X158371973Y-108366671D01*
X156845002Y-106839701D01*
X156845002Y-106806916D01*
X157067039Y-106928904D01*
X157455423Y-106768041D01*
X157870389Y-106392134D01*
X157927670Y-106271106D01*
X158037214Y-106292896D01*
X158223423Y-106571577D01*
X158698091Y-106888740D01*
X159116667Y-106972000D01*
X159399333Y-106972000D01*
X159623401Y-106927430D01*
X159623400Y-111771873D01*
X159607039Y-111765096D01*
X159385000Y-111887085D01*
X159385000Y-113030000D01*
X159405000Y-113030000D01*
X159405000Y-113284000D01*
X159385000Y-113284000D01*
X159385000Y-114426915D01*
X159607039Y-114548904D01*
X159623400Y-114542127D01*
X159623400Y-121033698D01*
X157905175Y-122751924D01*
X157798430Y-122592170D01*
X157302724Y-122260950D01*
X156718000Y-122144641D01*
X156133275Y-122260950D01*
X155637570Y-122592170D01*
X155444091Y-122881733D01*
X155080036Y-122474268D01*
X154552791Y-122220291D01*
X154537026Y-122217642D01*
X154305000Y-122338783D01*
X154305000Y-123698000D01*
X154325000Y-123698000D01*
X154325000Y-123952000D01*
X154305000Y-123952000D01*
X154305000Y-123972000D01*
X154051000Y-123972000D01*
X154051000Y-123952000D01*
X151765000Y-123952000D01*
X151765000Y-123972000D01*
X151511000Y-123972000D01*
X151511000Y-123952000D01*
X151491000Y-123952000D01*
X151491000Y-123698000D01*
X151511000Y-123698000D01*
X151511000Y-122338783D01*
X151765000Y-122338783D01*
X151765000Y-123698000D01*
X154051000Y-123698000D01*
X154051000Y-122338783D01*
X153818974Y-122217642D01*
X153803209Y-122220291D01*
X153275964Y-122474268D01*
X152908000Y-122886108D01*
X152540036Y-122474268D01*
X152012791Y-122220291D01*
X151997026Y-122217642D01*
X151765000Y-122338783D01*
X151511000Y-122338783D01*
X151278974Y-122217642D01*
X151263209Y-122220291D01*
X150735964Y-122474268D01*
X150371910Y-122881732D01*
X150178430Y-122592170D01*
X149682724Y-122260950D01*
X149098000Y-122144641D01*
X148513275Y-122260950D01*
X148017570Y-122592170D01*
X147828000Y-122875881D01*
X147638430Y-122592170D01*
X147142724Y-122260950D01*
X146558000Y-122144641D01*
X145973275Y-122260950D01*
X145477570Y-122592170D01*
X145288000Y-122875881D01*
X145098430Y-122592170D01*
X144602724Y-122260950D01*
X144018000Y-122144641D01*
X143485531Y-122250556D01*
X143377029Y-122088171D01*
X143313573Y-122045771D01*
X133504300Y-112236499D01*
X133504300Y-103343424D01*
X133659717Y-103407800D01*
X134031683Y-103407800D01*
X134375335Y-103265455D01*
X134638355Y-103002435D01*
X134780700Y-102658783D01*
X134780700Y-102286817D01*
X134638355Y-101943165D01*
X134605700Y-101910510D01*
X134605700Y-96834046D01*
X134620588Y-96759199D01*
X134605700Y-96684352D01*
X134605700Y-96684348D01*
X134561604Y-96462663D01*
X134538600Y-96428235D01*
X134538600Y-96331117D01*
X134475562Y-96178928D01*
X134582355Y-96072135D01*
X134644783Y-95921419D01*
X134705817Y-95946700D01*
X134705817Y-95946700D01*
G37*
X134705817Y-95946700D02*
X134940700Y-95946700D01*
X134940701Y-103275810D01*
X134833500Y-103534617D01*
X134833500Y-103906583D01*
X134975845Y-104250235D01*
X135022204Y-104296594D01*
X134876835Y-104441964D01*
X134809765Y-104469745D01*
X134546745Y-104732765D01*
X134404400Y-105076417D01*
X134404400Y-105448383D01*
X134546745Y-105792035D01*
X134809765Y-106055055D01*
X135153417Y-106197400D01*
X135525383Y-106197400D01*
X135869035Y-106055055D01*
X135870101Y-106053989D01*
X135870100Y-112493253D01*
X135855212Y-112568100D01*
X135870100Y-112642947D01*
X135870100Y-112642951D01*
X135914196Y-112864636D01*
X136082171Y-113116029D01*
X136145630Y-113158431D01*
X139614273Y-116627076D01*
X139656671Y-116690529D01*
X139720124Y-116732927D01*
X139720126Y-116732929D01*
X139741537Y-116747235D01*
X139908063Y-116858504D01*
X140129748Y-116902600D01*
X140129752Y-116902600D01*
X140204599Y-116917488D01*
X140279446Y-116902600D01*
X150244653Y-116902600D01*
X150319500Y-116917488D01*
X150394347Y-116902600D01*
X150394352Y-116902600D01*
X150616037Y-116858504D01*
X150867429Y-116690529D01*
X150909831Y-116627070D01*
X153264454Y-114272448D01*
X153618091Y-114508740D01*
X153960434Y-114576836D01*
X154185572Y-114801975D01*
X154227971Y-114865429D01*
X154291424Y-114907827D01*
X154291426Y-114907829D01*
X154416802Y-114991602D01*
X154479363Y-115033404D01*
X154701048Y-115077500D01*
X154701052Y-115077500D01*
X154775899Y-115092388D01*
X154850746Y-115077500D01*
X157109453Y-115077500D01*
X157184300Y-115092388D01*
X157259147Y-115077500D01*
X157259152Y-115077500D01*
X157480837Y-115033404D01*
X157732229Y-114865429D01*
X157774631Y-114801970D01*
X158346370Y-114230232D01*
X158520577Y-114388041D01*
X158908961Y-114548904D01*
X159131000Y-114426915D01*
X159131000Y-113284000D01*
X159111000Y-113284000D01*
X159111000Y-113030000D01*
X159131000Y-113030000D01*
X159131000Y-111887085D01*
X158908961Y-111765096D01*
X158647500Y-111873389D01*
X158647500Y-109031848D01*
X158662388Y-108957000D01*
X158647500Y-108882152D01*
X158647500Y-108882148D01*
X158603404Y-108660463D01*
X158603404Y-108660462D01*
X158477829Y-108472527D01*
X158435429Y-108409071D01*
X158371973Y-108366671D01*
X156845002Y-106839701D01*
X156845002Y-106806916D01*
X157067039Y-106928904D01*
X157455423Y-106768041D01*
X157870389Y-106392134D01*
X157927670Y-106271106D01*
X158037214Y-106292896D01*
X158223423Y-106571577D01*
X158698091Y-106888740D01*
X159116667Y-106972000D01*
X159399333Y-106972000D01*
X159623401Y-106927430D01*
X159623400Y-111771873D01*
X159607039Y-111765096D01*
X159385000Y-111887085D01*
X159385000Y-113030000D01*
X159405000Y-113030000D01*
X159405000Y-113284000D01*
X159385000Y-113284000D01*
X159385000Y-114426915D01*
X159607039Y-114548904D01*
X159623400Y-114542127D01*
X159623400Y-121033698D01*
X157905175Y-122751924D01*
X157798430Y-122592170D01*
X157302724Y-122260950D01*
X156718000Y-122144641D01*
X156133275Y-122260950D01*
X155637570Y-122592170D01*
X155444091Y-122881733D01*
X155080036Y-122474268D01*
X154552791Y-122220291D01*
X154537026Y-122217642D01*
X154305000Y-122338783D01*
X154305000Y-123698000D01*
X154325000Y-123698000D01*
X154325000Y-123952000D01*
X154305000Y-123952000D01*
X154305000Y-123972000D01*
X154051000Y-123972000D01*
X154051000Y-123952000D01*
X151765000Y-123952000D01*
X151765000Y-123972000D01*
X151511000Y-123972000D01*
X151511000Y-123952000D01*
X151491000Y-123952000D01*
X151491000Y-123698000D01*
X151511000Y-123698000D01*
X151511000Y-122338783D01*
X151765000Y-122338783D01*
X151765000Y-123698000D01*
X154051000Y-123698000D01*
X154051000Y-122338783D01*
X153818974Y-122217642D01*
X153803209Y-122220291D01*
X153275964Y-122474268D01*
X152908000Y-122886108D01*
X152540036Y-122474268D01*
X152012791Y-122220291D01*
X151997026Y-122217642D01*
X151765000Y-122338783D01*
X151511000Y-122338783D01*
X151278974Y-122217642D01*
X151263209Y-122220291D01*
X150735964Y-122474268D01*
X150371910Y-122881732D01*
X150178430Y-122592170D01*
X149682724Y-122260950D01*
X149098000Y-122144641D01*
X148513275Y-122260950D01*
X148017570Y-122592170D01*
X147828000Y-122875881D01*
X147638430Y-122592170D01*
X147142724Y-122260950D01*
X146558000Y-122144641D01*
X145973275Y-122260950D01*
X145477570Y-122592170D01*
X145288000Y-122875881D01*
X145098430Y-122592170D01*
X144602724Y-122260950D01*
X144018000Y-122144641D01*
X143485531Y-122250556D01*
X143377029Y-122088171D01*
X143313573Y-122045771D01*
X133504300Y-112236499D01*
X133504300Y-103343424D01*
X133659717Y-103407800D01*
X134031683Y-103407800D01*
X134375335Y-103265455D01*
X134638355Y-103002435D01*
X134780700Y-102658783D01*
X134780700Y-102286817D01*
X134638355Y-101943165D01*
X134605700Y-101910510D01*
X134605700Y-96834046D01*
X134620588Y-96759199D01*
X134605700Y-96684352D01*
X134605700Y-96684348D01*
X134561604Y-96462663D01*
X134538600Y-96428235D01*
X134538600Y-96331117D01*
X134475562Y-96178928D01*
X134582355Y-96072135D01*
X134644783Y-95921419D01*
X134705817Y-95946700D01*
G36*
X174777026Y-92315734D02*
X175527266Y-93065974D01*
X176507501Y-93472000D01*
X177568499Y-93472000D01*
X178548734Y-93065974D01*
X178868001Y-92746707D01*
X178868000Y-117985292D01*
X178548734Y-117666026D01*
X177568499Y-117260000D01*
X176507501Y-117260000D01*
X175527266Y-117666026D01*
X175258000Y-117935292D01*
X175258000Y-114375043D01*
X175532577Y-114191577D01*
X175849740Y-113716909D01*
X175961113Y-113157000D01*
X175849740Y-112597091D01*
X175532577Y-112122423D01*
X175057909Y-111805260D01*
X174639333Y-111722000D01*
X174356667Y-111722000D01*
X173988000Y-111795332D01*
X173988000Y-108247101D01*
X174982473Y-107252629D01*
X175045929Y-107210229D01*
X175196797Y-106984440D01*
X175298000Y-106984440D01*
X175545765Y-106935157D01*
X175755809Y-106794809D01*
X175896157Y-106584765D01*
X175945440Y-106337000D01*
X175945440Y-104737000D01*
X175896157Y-104489235D01*
X175755809Y-104279191D01*
X175545765Y-104138843D01*
X175298000Y-104089560D01*
X175258000Y-104089560D01*
X175258000Y-102243178D01*
X175568625Y-102035625D01*
X175769353Y-101735214D01*
X176156642Y-102160183D01*
X176681108Y-102406486D01*
X176911000Y-102285819D01*
X176911000Y-101092000D01*
X177165000Y-101092000D01*
X177165000Y-102285819D01*
X177394892Y-102406486D01*
X177919358Y-102160183D01*
X178309645Y-101731924D01*
X178479476Y-101321890D01*
X178358155Y-101092000D01*
X177165000Y-101092000D01*
X176911000Y-101092000D01*
X176891000Y-101092000D01*
X176891000Y-100838000D01*
X176911000Y-100838000D01*
X176911000Y-100818000D01*
X177165000Y-100818000D01*
X177165000Y-100838000D01*
X178358155Y-100838000D01*
X178479476Y-100608110D01*
X178309645Y-100198076D01*
X177919358Y-99769817D01*
X177789522Y-99708843D01*
X178108625Y-99495625D01*
X178436839Y-99004418D01*
X178552092Y-98425000D01*
X178436839Y-97845582D01*
X178108625Y-97354375D01*
X177810239Y-97155000D01*
X178108625Y-96955625D01*
X178436839Y-96464418D01*
X178552092Y-95885000D01*
X178436839Y-95305582D01*
X178108625Y-94814375D01*
X177617418Y-94486161D01*
X177184256Y-94400000D01*
X176891744Y-94400000D01*
X176458582Y-94486161D01*
X175967375Y-94814375D01*
X175955184Y-94832619D01*
X175946157Y-94787235D01*
X175805809Y-94577191D01*
X175595765Y-94436843D01*
X175348000Y-94387560D01*
X173648000Y-94387560D01*
X173400235Y-94436843D01*
X173190191Y-94577191D01*
X173049843Y-94787235D01*
X173000560Y-95035000D01*
X173000560Y-96735000D01*
X173049843Y-96982765D01*
X173190191Y-97192809D01*
X173400235Y-97333157D01*
X173445619Y-97342184D01*
X173427375Y-97354375D01*
X173099161Y-97845582D01*
X172983908Y-98425000D01*
X173099161Y-99004418D01*
X173427375Y-99495625D01*
X173725761Y-99695000D01*
X173427375Y-99894375D01*
X173099161Y-100385582D01*
X172983908Y-100965000D01*
X173099161Y-101544418D01*
X173427375Y-102035625D01*
X173738000Y-102243178D01*
X173738001Y-104089560D01*
X173698000Y-104089560D01*
X173450235Y-104138843D01*
X173240191Y-104279191D01*
X173099843Y-104489235D01*
X173073215Y-104623106D01*
X172992577Y-104502423D01*
X172718000Y-104318957D01*
X172718000Y-93439001D01*
X172925006Y-93231996D01*
X172961265Y-93268255D01*
X173304917Y-93410600D01*
X173676883Y-93410600D01*
X174020535Y-93268255D01*
X174283555Y-93005235D01*
X174425900Y-92661583D01*
X174425900Y-92615401D01*
X174761954Y-92279348D01*
X174777026Y-92315734D01*
X174777026Y-92315734D01*
G37*
X174777026Y-92315734D02*
X175527266Y-93065974D01*
X176507501Y-93472000D01*
X177568499Y-93472000D01*
X178548734Y-93065974D01*
X178868001Y-92746707D01*
X178868000Y-117985292D01*
X178548734Y-117666026D01*
X177568499Y-117260000D01*
X176507501Y-117260000D01*
X175527266Y-117666026D01*
X175258000Y-117935292D01*
X175258000Y-114375043D01*
X175532577Y-114191577D01*
X175849740Y-113716909D01*
X175961113Y-113157000D01*
X175849740Y-112597091D01*
X175532577Y-112122423D01*
X175057909Y-111805260D01*
X174639333Y-111722000D01*
X174356667Y-111722000D01*
X173988000Y-111795332D01*
X173988000Y-108247101D01*
X174982473Y-107252629D01*
X175045929Y-107210229D01*
X175196797Y-106984440D01*
X175298000Y-106984440D01*
X175545765Y-106935157D01*
X175755809Y-106794809D01*
X175896157Y-106584765D01*
X175945440Y-106337000D01*
X175945440Y-104737000D01*
X175896157Y-104489235D01*
X175755809Y-104279191D01*
X175545765Y-104138843D01*
X175298000Y-104089560D01*
X175258000Y-104089560D01*
X175258000Y-102243178D01*
X175568625Y-102035625D01*
X175769353Y-101735214D01*
X176156642Y-102160183D01*
X176681108Y-102406486D01*
X176911000Y-102285819D01*
X176911000Y-101092000D01*
X177165000Y-101092000D01*
X177165000Y-102285819D01*
X177394892Y-102406486D01*
X177919358Y-102160183D01*
X178309645Y-101731924D01*
X178479476Y-101321890D01*
X178358155Y-101092000D01*
X177165000Y-101092000D01*
X176911000Y-101092000D01*
X176891000Y-101092000D01*
X176891000Y-100838000D01*
X176911000Y-100838000D01*
X176911000Y-100818000D01*
X177165000Y-100818000D01*
X177165000Y-100838000D01*
X178358155Y-100838000D01*
X178479476Y-100608110D01*
X178309645Y-100198076D01*
X177919358Y-99769817D01*
X177789522Y-99708843D01*
X178108625Y-99495625D01*
X178436839Y-99004418D01*
X178552092Y-98425000D01*
X178436839Y-97845582D01*
X178108625Y-97354375D01*
X177810239Y-97155000D01*
X178108625Y-96955625D01*
X178436839Y-96464418D01*
X178552092Y-95885000D01*
X178436839Y-95305582D01*
X178108625Y-94814375D01*
X177617418Y-94486161D01*
X177184256Y-94400000D01*
X176891744Y-94400000D01*
X176458582Y-94486161D01*
X175967375Y-94814375D01*
X175955184Y-94832619D01*
X175946157Y-94787235D01*
X175805809Y-94577191D01*
X175595765Y-94436843D01*
X175348000Y-94387560D01*
X173648000Y-94387560D01*
X173400235Y-94436843D01*
X173190191Y-94577191D01*
X173049843Y-94787235D01*
X173000560Y-95035000D01*
X173000560Y-96735000D01*
X173049843Y-96982765D01*
X173190191Y-97192809D01*
X173400235Y-97333157D01*
X173445619Y-97342184D01*
X173427375Y-97354375D01*
X173099161Y-97845582D01*
X172983908Y-98425000D01*
X173099161Y-99004418D01*
X173427375Y-99495625D01*
X173725761Y-99695000D01*
X173427375Y-99894375D01*
X173099161Y-100385582D01*
X172983908Y-100965000D01*
X173099161Y-101544418D01*
X173427375Y-102035625D01*
X173738000Y-102243178D01*
X173738001Y-104089560D01*
X173698000Y-104089560D01*
X173450235Y-104138843D01*
X173240191Y-104279191D01*
X173099843Y-104489235D01*
X173073215Y-104623106D01*
X172992577Y-104502423D01*
X172718000Y-104318957D01*
X172718000Y-93439001D01*
X172925006Y-93231996D01*
X172961265Y-93268255D01*
X173304917Y-93410600D01*
X173676883Y-93410600D01*
X174020535Y-93268255D01*
X174283555Y-93005235D01*
X174425900Y-92661583D01*
X174425900Y-92615401D01*
X174761954Y-92279348D01*
X174777026Y-92315734D01*
G36*
X156845000Y-105410000D02*
X156865000Y-105410000D01*
X156865000Y-105664000D01*
X156845000Y-105664000D01*
X156845000Y-105684000D01*
X156591000Y-105684000D01*
X156591000Y-105664000D01*
X156571000Y-105664000D01*
X156571000Y-105410000D01*
X156591000Y-105410000D01*
X156591000Y-105390000D01*
X156845000Y-105390000D01*
X156845000Y-105410000D01*
X156845000Y-105410000D01*
G37*
X156845000Y-105410000D02*
X156865000Y-105410000D01*
X156865000Y-105664000D01*
X156845000Y-105664000D01*
X156845000Y-105684000D01*
X156591000Y-105684000D01*
X156591000Y-105664000D01*
X156571000Y-105664000D01*
X156571000Y-105410000D01*
X156591000Y-105410000D01*
X156591000Y-105390000D01*
X156845000Y-105390000D01*
X156845000Y-105410000D01*
G36*
X137541000Y-75438000D02*
X137561000Y-75438000D01*
X137561000Y-75692000D01*
X137541000Y-75692000D01*
X137541000Y-75712000D01*
X137287000Y-75712000D01*
X137287000Y-75692000D01*
X137267000Y-75692000D01*
X137267000Y-75438000D01*
X137287000Y-75438000D01*
X137287000Y-75418000D01*
X137541000Y-75418000D01*
X137541000Y-75438000D01*
X137541000Y-75438000D01*
G37*
X137541000Y-75438000D02*
X137561000Y-75438000D01*
X137561000Y-75692000D01*
X137541000Y-75692000D01*
X137541000Y-75712000D01*
X137287000Y-75712000D01*
X137287000Y-75692000D01*
X137267000Y-75692000D01*
X137267000Y-75438000D01*
X137287000Y-75438000D01*
X137287000Y-75418000D01*
X137541000Y-75418000D01*
X137541000Y-75438000D01*
G04 #@! TD*
M02*
