G04 #@! TF.GenerationSoftware,KiCad,Pcbnew,5.0.2-bee76a0~70~ubuntu18.04.1*
G04 #@! TF.CreationDate,2018-12-20T19:54:29+08:00*
G04 #@! TF.ProjectId,arduino-uno,61726475-696e-46f2-9d75-6e6f2e6b6963,rev?*
G04 #@! TF.SameCoordinates,Original*
G04 #@! TF.FileFunction,Legend,Top*
G04 #@! TF.FilePolarity,Positive*
%FSLAX46Y46*%
G04 Gerber Fmt 4.6, Leading zero omitted, Abs format (unit mm)*
G04 Created by KiCad (PCBNEW 5.0.2-bee76a0~70~ubuntu18.04.1) date 2018年12月20日 星期四 19时54分29秒*
%MOMM*%
%LPD*%
G01*
G04 APERTURE LIST*
%ADD10C,0.150000*%
%ADD11C,0.300000*%
%ADD12C,0.010000*%
%ADD13C,0.120000*%
%ADD14C,0.500000*%
%ADD15C,0.125000*%
G04 APERTURE END LIST*
D10*
X164338000Y-93345000D02*
X159258000Y-93345000D01*
X159258000Y-88265000D02*
X164338000Y-88265000D01*
X164338000Y-88265000D02*
G75*
G02X164338000Y-93345000I0J-2540000D01*
G01*
X158064666Y-89271666D02*
X158064666Y-91538333D01*
X158198000Y-91805000D01*
X158331333Y-91938333D01*
X158598000Y-92071666D01*
X159131333Y-92071666D01*
X159398000Y-91938333D01*
X159531333Y-91805000D01*
X159664666Y-91538333D01*
X159664666Y-89271666D01*
X160998000Y-92071666D02*
X160998000Y-89271666D01*
X162598000Y-92071666D01*
X162598000Y-89271666D01*
X164464666Y-89271666D02*
X164998000Y-89271666D01*
X165264666Y-89405000D01*
X165531333Y-89671666D01*
X165664666Y-90205000D01*
X165664666Y-91138333D01*
X165531333Y-91671666D01*
X165264666Y-91938333D01*
X164998000Y-92071666D01*
X164464666Y-92071666D01*
X164198000Y-91938333D01*
X163931333Y-91671666D01*
X163798000Y-91138333D01*
X163798000Y-90205000D01*
X163931333Y-89671666D01*
X164198000Y-89405000D01*
X164464666Y-89271666D01*
X159258000Y-93345000D02*
G75*
G02X159258000Y-88265000I0J2540000D01*
G01*
D11*
X112204571Y-112248142D02*
X113347428Y-112248142D01*
X112204571Y-106215642D02*
X113347428Y-106215642D01*
X112776000Y-106787071D02*
X112776000Y-105644214D01*
D10*
X177331714Y-114918428D02*
X177998380Y-114727952D01*
X177522190Y-114537476D01*
X177998380Y-114347000D01*
X177331714Y-114156523D01*
X177331714Y-113870809D02*
X177998380Y-113680333D01*
X177522190Y-113489857D01*
X177998380Y-113299380D01*
X177331714Y-113108904D01*
X177331714Y-112823190D02*
X177998380Y-112632714D01*
X177522190Y-112442238D01*
X177998380Y-112251761D01*
X177331714Y-112061285D01*
X177903142Y-111680333D02*
X177950761Y-111632714D01*
X177998380Y-111680333D01*
X177950761Y-111727952D01*
X177903142Y-111680333D01*
X177998380Y-111680333D01*
X177998380Y-110775571D02*
X177474571Y-110775571D01*
X177379333Y-110823190D01*
X177331714Y-110918428D01*
X177331714Y-111108904D01*
X177379333Y-111204142D01*
X177950761Y-110775571D02*
X177998380Y-110870809D01*
X177998380Y-111108904D01*
X177950761Y-111204142D01*
X177855523Y-111251761D01*
X177760285Y-111251761D01*
X177665047Y-111204142D01*
X177617428Y-111108904D01*
X177617428Y-110870809D01*
X177569809Y-110775571D01*
X177998380Y-110299380D02*
X177331714Y-110299380D01*
X177522190Y-110299380D02*
X177426952Y-110251761D01*
X177379333Y-110204142D01*
X177331714Y-110108904D01*
X177331714Y-110013666D01*
X177998380Y-109251761D02*
X176998380Y-109251761D01*
X177950761Y-109251761D02*
X177998380Y-109347000D01*
X177998380Y-109537476D01*
X177950761Y-109632714D01*
X177903142Y-109680333D01*
X177807904Y-109727952D01*
X177522190Y-109727952D01*
X177426952Y-109680333D01*
X177379333Y-109632714D01*
X177331714Y-109537476D01*
X177331714Y-109347000D01*
X177379333Y-109251761D01*
X177331714Y-108347000D02*
X177998380Y-108347000D01*
X177331714Y-108775571D02*
X177855523Y-108775571D01*
X177950761Y-108727952D01*
X177998380Y-108632714D01*
X177998380Y-108489857D01*
X177950761Y-108394619D01*
X177903142Y-108347000D01*
X177998380Y-107870809D02*
X177331714Y-107870809D01*
X176998380Y-107870809D02*
X177046000Y-107918428D01*
X177093619Y-107870809D01*
X177046000Y-107823190D01*
X176998380Y-107870809D01*
X177093619Y-107870809D01*
X177331714Y-107394619D02*
X177998380Y-107394619D01*
X177426952Y-107394619D02*
X177379333Y-107347000D01*
X177331714Y-107251761D01*
X177331714Y-107108904D01*
X177379333Y-107013666D01*
X177474571Y-106966047D01*
X177998380Y-106966047D01*
X177998380Y-106347000D02*
X177950761Y-106442238D01*
X177903142Y-106489857D01*
X177807904Y-106537476D01*
X177522190Y-106537476D01*
X177426952Y-106489857D01*
X177379333Y-106442238D01*
X177331714Y-106347000D01*
X177331714Y-106204142D01*
X177379333Y-106108904D01*
X177426952Y-106061285D01*
X177522190Y-106013666D01*
X177807904Y-106013666D01*
X177903142Y-106061285D01*
X177950761Y-106108904D01*
X177998380Y-106204142D01*
X177998380Y-106347000D01*
X177903142Y-105585095D02*
X177950761Y-105537476D01*
X177998380Y-105585095D01*
X177950761Y-105632714D01*
X177903142Y-105585095D01*
X177998380Y-105585095D01*
X177950761Y-104680333D02*
X177998380Y-104775571D01*
X177998380Y-104966047D01*
X177950761Y-105061285D01*
X177903142Y-105108904D01*
X177807904Y-105156523D01*
X177522190Y-105156523D01*
X177426952Y-105108904D01*
X177379333Y-105061285D01*
X177331714Y-104966047D01*
X177331714Y-104775571D01*
X177379333Y-104680333D01*
X177950761Y-103823190D02*
X177998380Y-103918428D01*
X177998380Y-104108904D01*
X177950761Y-104204142D01*
X177903142Y-104251761D01*
X177807904Y-104299380D01*
X177522190Y-104299380D01*
X177426952Y-104251761D01*
X177379333Y-104204142D01*
X177331714Y-104108904D01*
X177331714Y-103918428D01*
X177379333Y-103823190D01*
X172751714Y-95829380D02*
X172180285Y-95829380D01*
X172466000Y-95829380D02*
X172466000Y-94829380D01*
X172370761Y-94972238D01*
X172275523Y-95067476D01*
X172180285Y-95115095D01*
X152170190Y-85494714D02*
X151932095Y-85494714D01*
X151932095Y-84066142D01*
X152170190Y-84066142D01*
X152551142Y-84780428D02*
X152598761Y-84732809D01*
X152741619Y-84685190D01*
X152884476Y-84732809D01*
X152979714Y-84828047D01*
X153122571Y-84875666D01*
X153265428Y-84828047D01*
X153313047Y-84780428D01*
X153789238Y-84637571D02*
X154551142Y-84637571D01*
X154551142Y-84923285D02*
X153789238Y-84923285D01*
X155027333Y-85161380D02*
X155027333Y-84161380D01*
X155408285Y-84161380D01*
X155503523Y-84209000D01*
X155551142Y-84256619D01*
X155598761Y-84351857D01*
X155598761Y-84494714D01*
X155551142Y-84589952D01*
X155503523Y-84637571D01*
X155408285Y-84685190D01*
X155027333Y-84685190D01*
X155932095Y-84161380D02*
X156170190Y-85161380D01*
X156360666Y-84447095D01*
X156551142Y-85161380D01*
X156789238Y-84161380D01*
X157170190Y-85161380D02*
X157170190Y-84161380D01*
X157503523Y-84875666D01*
X157836857Y-84161380D01*
X157836857Y-85161380D01*
X158217809Y-85494714D02*
X158455904Y-85494714D01*
X158455904Y-84066142D01*
X158217809Y-84066142D01*
X159258000Y-82677000D02*
X167894000Y-82677000D01*
X167894000Y-82677000D02*
X169926000Y-80645000D01*
D11*
X151515428Y-83355571D02*
X151515428Y-81855571D01*
X151872571Y-81855571D01*
X152086857Y-81927000D01*
X152229714Y-82069857D01*
X152301142Y-82212714D01*
X152372571Y-82498428D01*
X152372571Y-82712714D01*
X152301142Y-82998428D01*
X152229714Y-83141285D01*
X152086857Y-83284142D01*
X151872571Y-83355571D01*
X151515428Y-83355571D01*
X153015428Y-83355571D02*
X153015428Y-81855571D01*
X154515428Y-81927000D02*
X154372571Y-81855571D01*
X154158285Y-81855571D01*
X153944000Y-81927000D01*
X153801142Y-82069857D01*
X153729714Y-82212714D01*
X153658285Y-82498428D01*
X153658285Y-82712714D01*
X153729714Y-82998428D01*
X153801142Y-83141285D01*
X153944000Y-83284142D01*
X154158285Y-83355571D01*
X154301142Y-83355571D01*
X154515428Y-83284142D01*
X154586857Y-83212714D01*
X154586857Y-82712714D01*
X154301142Y-82712714D01*
X155229714Y-83355571D02*
X155229714Y-81855571D01*
X155729714Y-81855571D02*
X156586857Y-81855571D01*
X156158285Y-83355571D02*
X156158285Y-81855571D01*
X157015428Y-82927000D02*
X157729714Y-82927000D01*
X156872571Y-83355571D02*
X157372571Y-81855571D01*
X157872571Y-83355571D01*
X159086857Y-83355571D02*
X158372571Y-83355571D01*
X158372571Y-81855571D01*
D10*
X141986000Y-82677000D02*
X150622000Y-82677000D01*
X139954000Y-80645000D02*
X141986000Y-82677000D01*
D11*
X175176571Y-82062143D02*
X174462285Y-82562143D01*
X175176571Y-82919286D02*
X173676571Y-82919286D01*
X173676571Y-82347857D01*
X173748000Y-82205000D01*
X173819428Y-82133571D01*
X173962285Y-82062143D01*
X174176571Y-82062143D01*
X174319428Y-82133571D01*
X174390857Y-82205000D01*
X174462285Y-82347857D01*
X174462285Y-82919286D01*
X173676571Y-81562143D02*
X175176571Y-80562143D01*
X173676571Y-80562143D02*
X175176571Y-81562143D01*
X175176571Y-78919286D02*
X174033714Y-78919286D01*
X175105142Y-78990714D02*
X174105142Y-78990714D01*
X175105142Y-79062143D02*
X174105142Y-79062143D01*
X175033714Y-79133571D02*
X174176571Y-79133571D01*
X175033714Y-79205000D02*
X174176571Y-79205000D01*
X174962285Y-79276428D02*
X174248000Y-79276428D01*
X174962285Y-79347857D02*
X174248000Y-79347857D01*
X174890857Y-79419286D02*
X174319428Y-79419286D01*
X174819428Y-79490714D02*
X174390857Y-79490714D01*
X174819428Y-79562143D02*
X174390857Y-79562143D01*
X174748000Y-79633571D02*
X174462285Y-79633571D01*
X174748000Y-79705000D02*
X174462285Y-79705000D01*
X174605142Y-79776428D02*
X174605142Y-79847857D01*
X174676571Y-79776428D02*
X174533714Y-79776428D01*
X175176571Y-78847857D02*
X174605142Y-79919286D01*
X174033714Y-78847857D01*
X174605142Y-79990714D02*
X173962285Y-78847857D01*
X175248000Y-78847857D01*
X174605142Y-79990714D01*
X173676571Y-77847857D02*
X173676571Y-77705000D01*
X173748000Y-77562143D01*
X173819428Y-77490714D01*
X173962285Y-77419286D01*
X174248000Y-77347857D01*
X174605142Y-77347857D01*
X174890857Y-77419286D01*
X175033714Y-77490714D01*
X175105142Y-77562143D01*
X175176571Y-77705000D01*
X175176571Y-77847857D01*
X175105142Y-77990714D01*
X175033714Y-78062143D01*
X174890857Y-78133571D01*
X174605142Y-78205000D01*
X174248000Y-78205000D01*
X173962285Y-78133571D01*
X173819428Y-78062143D01*
X173748000Y-77990714D01*
X173676571Y-77847857D01*
X171136571Y-82776429D02*
X171136571Y-81919286D01*
X172636571Y-82347857D02*
X171136571Y-82347857D01*
X171136571Y-81562143D02*
X172636571Y-80562143D01*
X171136571Y-80562143D02*
X172636571Y-81562143D01*
X171493714Y-79919286D02*
X172636571Y-79919286D01*
X171565142Y-79847857D02*
X172565142Y-79847857D01*
X171565142Y-79776429D02*
X172565142Y-79776429D01*
X171636571Y-79705000D02*
X172493714Y-79705000D01*
X171636571Y-79633572D02*
X172493714Y-79633572D01*
X171708000Y-79562143D02*
X172422285Y-79562143D01*
X171708000Y-79490715D02*
X172422285Y-79490715D01*
X171779428Y-79419286D02*
X172350857Y-79419286D01*
X171850857Y-79347857D02*
X172279428Y-79347857D01*
X171850857Y-79276429D02*
X172279428Y-79276429D01*
X171922285Y-79205000D02*
X172208000Y-79205000D01*
X171922285Y-79133572D02*
X172208000Y-79133572D01*
X172065142Y-79062143D02*
X172065142Y-78990715D01*
X171993714Y-79062143D02*
X172136571Y-79062143D01*
X171493714Y-79990715D02*
X172065142Y-78919286D01*
X172636571Y-79990715D01*
X172065142Y-78847857D02*
X172708000Y-79990715D01*
X171422285Y-79990715D01*
X172065142Y-78847857D01*
X172636571Y-77347857D02*
X172636571Y-78205000D01*
X172636571Y-77776429D02*
X171136571Y-77776429D01*
X171350857Y-77919286D01*
X171493714Y-78062143D01*
X171565142Y-78205000D01*
X168739428Y-78205000D02*
X168668000Y-78133571D01*
X168596571Y-77990714D01*
X168596571Y-77633571D01*
X168668000Y-77490714D01*
X168739428Y-77419286D01*
X168882285Y-77347857D01*
X169025142Y-77347857D01*
X169239428Y-77419286D01*
X170096571Y-78276429D01*
X170096571Y-77347857D01*
X166985142Y-79990714D02*
X166913714Y-79919285D01*
X166842285Y-79705000D01*
X166913714Y-79490714D01*
X167056571Y-79347857D01*
X167128000Y-79133571D01*
X167056571Y-78919285D01*
X166985142Y-78847857D01*
X166056571Y-78276428D02*
X166056571Y-77347857D01*
X166628000Y-77847857D01*
X166628000Y-77633571D01*
X166699428Y-77490714D01*
X166770857Y-77419285D01*
X166913714Y-77347857D01*
X167270857Y-77347857D01*
X167413714Y-77419285D01*
X167485142Y-77490714D01*
X167556571Y-77633571D01*
X167556571Y-78062142D01*
X167485142Y-78205000D01*
X167413714Y-78276428D01*
X164016571Y-77490714D02*
X165016571Y-77490714D01*
X163445142Y-77847857D02*
X164516571Y-78205000D01*
X164516571Y-77276429D01*
X161905142Y-79990714D02*
X161833714Y-79919285D01*
X161762285Y-79705000D01*
X161833714Y-79490714D01*
X161976571Y-79347857D01*
X162048000Y-79133571D01*
X161976571Y-78919285D01*
X161905142Y-78847857D01*
X160976571Y-77419285D02*
X160976571Y-78133571D01*
X161690857Y-78205000D01*
X161619428Y-78133571D01*
X161548000Y-77990714D01*
X161548000Y-77633571D01*
X161619428Y-77490714D01*
X161690857Y-77419285D01*
X161833714Y-77347857D01*
X162190857Y-77347857D01*
X162333714Y-77419285D01*
X162405142Y-77490714D01*
X162476571Y-77633571D01*
X162476571Y-77990714D01*
X162405142Y-78133571D01*
X162333714Y-78205000D01*
X159365142Y-79990714D02*
X159293714Y-79919285D01*
X159222285Y-79705000D01*
X159293714Y-79490714D01*
X159436571Y-79347857D01*
X159508000Y-79133571D01*
X159436571Y-78919285D01*
X159365142Y-78847857D01*
X158436571Y-77490714D02*
X158436571Y-77776428D01*
X158508000Y-77919285D01*
X158579428Y-77990714D01*
X158793714Y-78133571D01*
X159079428Y-78205000D01*
X159650857Y-78205000D01*
X159793714Y-78133571D01*
X159865142Y-78062142D01*
X159936571Y-77919285D01*
X159936571Y-77633571D01*
X159865142Y-77490714D01*
X159793714Y-77419285D01*
X159650857Y-77347857D01*
X159293714Y-77347857D01*
X159150857Y-77419285D01*
X159079428Y-77490714D01*
X159008000Y-77633571D01*
X159008000Y-77919285D01*
X159079428Y-78062142D01*
X159150857Y-78133571D01*
X159293714Y-78205000D01*
X155896571Y-78276429D02*
X155896571Y-77276429D01*
X157396571Y-77919286D01*
X152475428Y-77919286D02*
X152404000Y-78062143D01*
X152332571Y-78133571D01*
X152189714Y-78205000D01*
X152118285Y-78205000D01*
X151975428Y-78133571D01*
X151904000Y-78062143D01*
X151832571Y-77919286D01*
X151832571Y-77633571D01*
X151904000Y-77490714D01*
X151975428Y-77419286D01*
X152118285Y-77347857D01*
X152189714Y-77347857D01*
X152332571Y-77419286D01*
X152404000Y-77490714D01*
X152475428Y-77633571D01*
X152475428Y-77919286D01*
X152546857Y-78062143D01*
X152618285Y-78133571D01*
X152761142Y-78205000D01*
X153046857Y-78205000D01*
X153189714Y-78133571D01*
X153261142Y-78062143D01*
X153332571Y-77919286D01*
X153332571Y-77633571D01*
X153261142Y-77490714D01*
X153189714Y-77419286D01*
X153046857Y-77347857D01*
X152761142Y-77347857D01*
X152618285Y-77419286D01*
X152546857Y-77490714D01*
X152475428Y-77633571D01*
X150221142Y-79990714D02*
X150149714Y-79919285D01*
X150078285Y-79705000D01*
X150149714Y-79490714D01*
X150292571Y-79347857D01*
X150364000Y-79133571D01*
X150292571Y-78919285D01*
X150221142Y-78847857D01*
X150792571Y-78062142D02*
X150792571Y-77776428D01*
X150721142Y-77633571D01*
X150649714Y-77562142D01*
X150435428Y-77419285D01*
X150149714Y-77347857D01*
X149578285Y-77347857D01*
X149435428Y-77419285D01*
X149364000Y-77490714D01*
X149292571Y-77633571D01*
X149292571Y-77919285D01*
X149364000Y-78062142D01*
X149435428Y-78133571D01*
X149578285Y-78205000D01*
X149935428Y-78205000D01*
X150078285Y-78133571D01*
X150149714Y-78062142D01*
X150221142Y-77919285D01*
X150221142Y-77633571D01*
X150149714Y-77490714D01*
X150078285Y-77419285D01*
X149935428Y-77347857D01*
X147681142Y-81419286D02*
X147609714Y-81347857D01*
X147538285Y-81133571D01*
X147609714Y-80919286D01*
X147752571Y-80776428D01*
X147824000Y-80562143D01*
X147752571Y-80347857D01*
X147681142Y-80276428D01*
X148252571Y-78776428D02*
X148252571Y-79633571D01*
X148252571Y-79205000D02*
X146752571Y-79205000D01*
X146966857Y-79347857D01*
X147109714Y-79490714D01*
X147181142Y-79633571D01*
X146752571Y-77847857D02*
X146752571Y-77705000D01*
X146824000Y-77562143D01*
X146895428Y-77490714D01*
X147038285Y-77419286D01*
X147324000Y-77347857D01*
X147681142Y-77347857D01*
X147966857Y-77419286D01*
X148109714Y-77490714D01*
X148181142Y-77562143D01*
X148252571Y-77705000D01*
X148252571Y-77847857D01*
X148181142Y-77990714D01*
X148109714Y-78062143D01*
X147966857Y-78133571D01*
X147681142Y-78205000D01*
X147324000Y-78205000D01*
X147038285Y-78133571D01*
X146895428Y-78062143D01*
X146824000Y-77990714D01*
X146752571Y-77847857D01*
X145141142Y-81419286D02*
X145069714Y-81347857D01*
X144998285Y-81133571D01*
X145069714Y-80919286D01*
X145212571Y-80776428D01*
X145284000Y-80562143D01*
X145212571Y-80347857D01*
X145141142Y-80276428D01*
X145712571Y-78776428D02*
X145712571Y-79633571D01*
X145712571Y-79205000D02*
X144212571Y-79205000D01*
X144426857Y-79347857D01*
X144569714Y-79490714D01*
X144641142Y-79633571D01*
X145712571Y-77347857D02*
X145712571Y-78205000D01*
X145712571Y-77776428D02*
X144212571Y-77776428D01*
X144426857Y-77919286D01*
X144569714Y-78062143D01*
X144641142Y-78205000D01*
X143172571Y-78776429D02*
X143172571Y-79633572D01*
X143172571Y-79205000D02*
X141672571Y-79205000D01*
X141886857Y-79347857D01*
X142029714Y-79490715D01*
X142101142Y-79633572D01*
X141815428Y-78205000D02*
X141744000Y-78133572D01*
X141672571Y-77990715D01*
X141672571Y-77633572D01*
X141744000Y-77490715D01*
X141815428Y-77419286D01*
X141958285Y-77347857D01*
X142101142Y-77347857D01*
X142315428Y-77419286D01*
X143172571Y-78276429D01*
X143172571Y-77347857D01*
X140632571Y-78776429D02*
X140632571Y-79633572D01*
X140632571Y-79205000D02*
X139132571Y-79205000D01*
X139346857Y-79347857D01*
X139489714Y-79490715D01*
X139561142Y-79633572D01*
X139132571Y-78276429D02*
X139132571Y-77347857D01*
X139704000Y-77847857D01*
X139704000Y-77633572D01*
X139775428Y-77490715D01*
X139846857Y-77419286D01*
X139989714Y-77347857D01*
X140346857Y-77347857D01*
X140489714Y-77419286D01*
X140561142Y-77490715D01*
X140632571Y-77633572D01*
X140632571Y-78062143D01*
X140561142Y-78205000D01*
X140489714Y-78276429D01*
X136664000Y-80490715D02*
X136592571Y-80633572D01*
X136592571Y-80847858D01*
X136664000Y-81062143D01*
X136806857Y-81205000D01*
X136949714Y-81276429D01*
X137235428Y-81347858D01*
X137449714Y-81347858D01*
X137735428Y-81276429D01*
X137878285Y-81205000D01*
X138021142Y-81062143D01*
X138092571Y-80847858D01*
X138092571Y-80705000D01*
X138021142Y-80490715D01*
X137949714Y-80419286D01*
X137449714Y-80419286D01*
X137449714Y-80705000D01*
X138092571Y-79776429D02*
X136592571Y-79776429D01*
X138092571Y-78919286D01*
X136592571Y-78919286D01*
X138092571Y-78205000D02*
X136592571Y-78205000D01*
X136592571Y-77847858D01*
X136664000Y-77633572D01*
X136806857Y-77490715D01*
X136949714Y-77419286D01*
X137235428Y-77347858D01*
X137449714Y-77347858D01*
X137735428Y-77419286D01*
X137878285Y-77490715D01*
X138021142Y-77633572D01*
X138092571Y-77847858D01*
X138092571Y-78205000D01*
X135124000Y-82205000D02*
X135124000Y-81490714D01*
X135552571Y-82347857D02*
X134052571Y-81847857D01*
X135552571Y-81347857D01*
X135552571Y-79990714D02*
X134838285Y-80490714D01*
X135552571Y-80847857D02*
X134052571Y-80847857D01*
X134052571Y-80276429D01*
X134124000Y-80133571D01*
X134195428Y-80062143D01*
X134338285Y-79990714D01*
X134552571Y-79990714D01*
X134695428Y-80062143D01*
X134766857Y-80133571D01*
X134838285Y-80276429D01*
X134838285Y-80847857D01*
X134766857Y-79347857D02*
X134766857Y-78847857D01*
X135552571Y-78633571D02*
X135552571Y-79347857D01*
X134052571Y-79347857D01*
X134052571Y-78633571D01*
X134766857Y-77490714D02*
X134766857Y-77990714D01*
X135552571Y-77990714D02*
X134052571Y-77990714D01*
X134052571Y-77276429D01*
D10*
X160274000Y-117221000D02*
X174498000Y-117221000D01*
D11*
X160727142Y-116455000D02*
X161441428Y-116455000D01*
X160584285Y-116883571D02*
X161084285Y-115383571D01*
X161584285Y-116883571D01*
X162084285Y-116883571D02*
X162084285Y-115383571D01*
X162941428Y-116883571D01*
X162941428Y-115383571D01*
X163584285Y-116455000D02*
X164298571Y-116455000D01*
X163441428Y-116883571D02*
X163941428Y-115383571D01*
X164441428Y-116883571D01*
X165655714Y-116883571D02*
X164941428Y-116883571D01*
X164941428Y-115383571D01*
X166441428Y-115383571D02*
X166727142Y-115383571D01*
X166870000Y-115455000D01*
X167012857Y-115597857D01*
X167084285Y-115883571D01*
X167084285Y-116383571D01*
X167012857Y-116669285D01*
X166870000Y-116812142D01*
X166727142Y-116883571D01*
X166441428Y-116883571D01*
X166298571Y-116812142D01*
X166155714Y-116669285D01*
X166084285Y-116383571D01*
X166084285Y-115883571D01*
X166155714Y-115597857D01*
X166298571Y-115455000D01*
X166441428Y-115383571D01*
X168512857Y-115455000D02*
X168370000Y-115383571D01*
X168155714Y-115383571D01*
X167941428Y-115455000D01*
X167798571Y-115597857D01*
X167727142Y-115740714D01*
X167655714Y-116026428D01*
X167655714Y-116240714D01*
X167727142Y-116526428D01*
X167798571Y-116669285D01*
X167941428Y-116812142D01*
X168155714Y-116883571D01*
X168298571Y-116883571D01*
X168512857Y-116812142D01*
X168584285Y-116740714D01*
X168584285Y-116240714D01*
X168298571Y-116240714D01*
X170370000Y-116883571D02*
X170370000Y-115383571D01*
X171084285Y-116883571D02*
X171084285Y-115383571D01*
X171941428Y-116883571D01*
X171941428Y-115383571D01*
D10*
X145542000Y-117221000D02*
X157734000Y-117221000D01*
D11*
X145633714Y-116883571D02*
X145633714Y-115383571D01*
X146205142Y-115383571D01*
X146348000Y-115455000D01*
X146419428Y-115526428D01*
X146490857Y-115669285D01*
X146490857Y-115883571D01*
X146419428Y-116026428D01*
X146348000Y-116097857D01*
X146205142Y-116169285D01*
X145633714Y-116169285D01*
X147419428Y-115383571D02*
X147705142Y-115383571D01*
X147848000Y-115455000D01*
X147990857Y-115597857D01*
X148062285Y-115883571D01*
X148062285Y-116383571D01*
X147990857Y-116669285D01*
X147848000Y-116812142D01*
X147705142Y-116883571D01*
X147419428Y-116883571D01*
X147276571Y-116812142D01*
X147133714Y-116669285D01*
X147062285Y-116383571D01*
X147062285Y-115883571D01*
X147133714Y-115597857D01*
X147276571Y-115455000D01*
X147419428Y-115383571D01*
X148562285Y-115383571D02*
X148919428Y-116883571D01*
X149205142Y-115812142D01*
X149490857Y-116883571D01*
X149848000Y-115383571D01*
X150419428Y-116097857D02*
X150919428Y-116097857D01*
X151133714Y-116883571D02*
X150419428Y-116883571D01*
X150419428Y-115383571D01*
X151133714Y-115383571D01*
X152633714Y-116883571D02*
X152133714Y-116169285D01*
X151776571Y-116883571D02*
X151776571Y-115383571D01*
X152348000Y-115383571D01*
X152490857Y-115455000D01*
X152562285Y-115526428D01*
X152633714Y-115669285D01*
X152633714Y-115883571D01*
X152562285Y-116026428D01*
X152490857Y-116097857D01*
X152348000Y-116169285D01*
X151776571Y-116169285D01*
X174240000Y-121852142D02*
X174240000Y-121137856D01*
X174668571Y-121994999D02*
X173168571Y-121494999D01*
X174668571Y-120994999D01*
X173168571Y-119780714D02*
X173168571Y-120494999D01*
X173882857Y-120566428D01*
X173811428Y-120494999D01*
X173740000Y-120352142D01*
X173740000Y-119994999D01*
X173811428Y-119852142D01*
X173882857Y-119780714D01*
X174025714Y-119709285D01*
X174382857Y-119709285D01*
X174525714Y-119780714D01*
X174597142Y-119852142D01*
X174668571Y-119994999D01*
X174668571Y-120352142D01*
X174597142Y-120494999D01*
X174525714Y-120566428D01*
X171700000Y-121852142D02*
X171700000Y-121137856D01*
X172128571Y-121994999D02*
X170628571Y-121494999D01*
X172128571Y-120994999D01*
X171128571Y-119852142D02*
X172128571Y-119852142D01*
X170557142Y-120209285D02*
X171628571Y-120566428D01*
X171628571Y-119637856D01*
X169160000Y-121852142D02*
X169160000Y-121137856D01*
X169588571Y-121994999D02*
X168088571Y-121494999D01*
X169588571Y-120994999D01*
X168088571Y-120637856D02*
X168088571Y-119709285D01*
X168660000Y-120209285D01*
X168660000Y-119994999D01*
X168731428Y-119852142D01*
X168802857Y-119780714D01*
X168945714Y-119709285D01*
X169302857Y-119709285D01*
X169445714Y-119780714D01*
X169517142Y-119852142D01*
X169588571Y-119994999D01*
X169588571Y-120423571D01*
X169517142Y-120566428D01*
X169445714Y-120637856D01*
X166620000Y-121852142D02*
X166620000Y-121137856D01*
X167048571Y-121994999D02*
X165548571Y-121494999D01*
X167048571Y-120994999D01*
X165691428Y-120566428D02*
X165620000Y-120494999D01*
X165548571Y-120352142D01*
X165548571Y-119994999D01*
X165620000Y-119852142D01*
X165691428Y-119780714D01*
X165834285Y-119709285D01*
X165977142Y-119709285D01*
X166191428Y-119780714D01*
X167048571Y-120637856D01*
X167048571Y-119709285D01*
X164080000Y-121852142D02*
X164080000Y-121137856D01*
X164508571Y-121994999D02*
X163008571Y-121494999D01*
X164508571Y-120994999D01*
X164508571Y-119709285D02*
X164508571Y-120566428D01*
X164508571Y-120137856D02*
X163008571Y-120137856D01*
X163222857Y-120280714D01*
X163365714Y-120423571D01*
X163437142Y-120566428D01*
X161540000Y-121852142D02*
X161540000Y-121137856D01*
X161968571Y-121994999D02*
X160468571Y-121494999D01*
X161968571Y-120994999D01*
X160468571Y-120209285D02*
X160468571Y-120066428D01*
X160540000Y-119923571D01*
X160611428Y-119852142D01*
X160754285Y-119780714D01*
X161040000Y-119709285D01*
X161397142Y-119709285D01*
X161682857Y-119780714D01*
X161825714Y-119852142D01*
X161897142Y-119923571D01*
X161968571Y-120066428D01*
X161968571Y-120209285D01*
X161897142Y-120352142D01*
X161825714Y-120423571D01*
X161682857Y-120494999D01*
X161397142Y-120566428D01*
X161040000Y-120566428D01*
X160754285Y-120494999D01*
X160611428Y-120423571D01*
X160540000Y-120352142D01*
X160468571Y-120209285D01*
X155896571Y-121995000D02*
X157396571Y-121495000D01*
X155896571Y-120995000D01*
X157396571Y-120495000D02*
X155896571Y-120495000D01*
X157396571Y-119780714D02*
X155896571Y-119780714D01*
X157396571Y-118923571D01*
X155896571Y-118923571D01*
X153428000Y-120995000D02*
X153356571Y-121137857D01*
X153356571Y-121352143D01*
X153428000Y-121566428D01*
X153570857Y-121709285D01*
X153713714Y-121780714D01*
X153999428Y-121852143D01*
X154213714Y-121852143D01*
X154499428Y-121780714D01*
X154642285Y-121709285D01*
X154785142Y-121566428D01*
X154856571Y-121352143D01*
X154856571Y-121209285D01*
X154785142Y-120995000D01*
X154713714Y-120923571D01*
X154213714Y-120923571D01*
X154213714Y-121209285D01*
X154856571Y-120280714D02*
X153356571Y-120280714D01*
X154856571Y-119423571D01*
X153356571Y-119423571D01*
X154856571Y-118709285D02*
X153356571Y-118709285D01*
X153356571Y-118352143D01*
X153428000Y-118137857D01*
X153570857Y-117995000D01*
X153713714Y-117923571D01*
X153999428Y-117852143D01*
X154213714Y-117852143D01*
X154499428Y-117923571D01*
X154642285Y-117995000D01*
X154785142Y-118137857D01*
X154856571Y-118352143D01*
X154856571Y-118709285D01*
X150888000Y-120995000D02*
X150816571Y-121137857D01*
X150816571Y-121352143D01*
X150888000Y-121566428D01*
X151030857Y-121709285D01*
X151173714Y-121780714D01*
X151459428Y-121852143D01*
X151673714Y-121852143D01*
X151959428Y-121780714D01*
X152102285Y-121709285D01*
X152245142Y-121566428D01*
X152316571Y-121352143D01*
X152316571Y-121209285D01*
X152245142Y-120995000D01*
X152173714Y-120923571D01*
X151673714Y-120923571D01*
X151673714Y-121209285D01*
X152316571Y-120280714D02*
X150816571Y-120280714D01*
X152316571Y-119423571D01*
X150816571Y-119423571D01*
X152316571Y-118709285D02*
X150816571Y-118709285D01*
X150816571Y-118352143D01*
X150888000Y-118137857D01*
X151030857Y-117995000D01*
X151173714Y-117923571D01*
X151459428Y-117852143D01*
X151673714Y-117852143D01*
X151959428Y-117923571D01*
X152102285Y-117995000D01*
X152245142Y-118137857D01*
X152316571Y-118352143D01*
X152316571Y-118709285D01*
X148276571Y-121066428D02*
X148276571Y-121780714D01*
X148990857Y-121852142D01*
X148919428Y-121780714D01*
X148848000Y-121637856D01*
X148848000Y-121280714D01*
X148919428Y-121137856D01*
X148990857Y-121066428D01*
X149133714Y-120994999D01*
X149490857Y-120994999D01*
X149633714Y-121066428D01*
X149705142Y-121137856D01*
X149776571Y-121280714D01*
X149776571Y-121637856D01*
X149705142Y-121780714D01*
X149633714Y-121852142D01*
X148276571Y-120566428D02*
X149776571Y-120066428D01*
X148276571Y-119566428D01*
X145736571Y-121923571D02*
X145736571Y-120995000D01*
X146308000Y-121495000D01*
X146308000Y-121280714D01*
X146379428Y-121137857D01*
X146450857Y-121066429D01*
X146593714Y-120995000D01*
X146950857Y-120995000D01*
X147093714Y-121066429D01*
X147165142Y-121137857D01*
X147236571Y-121280714D01*
X147236571Y-121709286D01*
X147165142Y-121852143D01*
X147093714Y-121923571D01*
X145736571Y-120566429D02*
X147236571Y-120066429D01*
X145736571Y-119566429D01*
X145736571Y-119209286D02*
X145736571Y-118280714D01*
X146308000Y-118780714D01*
X146308000Y-118566429D01*
X146379428Y-118423571D01*
X146450857Y-118352143D01*
X146593714Y-118280714D01*
X146950857Y-118280714D01*
X147093714Y-118352143D01*
X147165142Y-118423571D01*
X147236571Y-118566429D01*
X147236571Y-118995000D01*
X147165142Y-119137857D01*
X147093714Y-119209286D01*
X144696571Y-120923571D02*
X143982285Y-121423571D01*
X144696571Y-121780714D02*
X143196571Y-121780714D01*
X143196571Y-121209285D01*
X143268000Y-121066428D01*
X143339428Y-120995000D01*
X143482285Y-120923571D01*
X143696571Y-120923571D01*
X143839428Y-120995000D01*
X143910857Y-121066428D01*
X143982285Y-121209285D01*
X143982285Y-121780714D01*
X143910857Y-120280714D02*
X143910857Y-119780714D01*
X144696571Y-119566428D02*
X144696571Y-120280714D01*
X143196571Y-120280714D01*
X143196571Y-119566428D01*
X144625142Y-118995000D02*
X144696571Y-118780714D01*
X144696571Y-118423571D01*
X144625142Y-118280714D01*
X144553714Y-118209285D01*
X144410857Y-118137857D01*
X144268000Y-118137857D01*
X144125142Y-118209285D01*
X144053714Y-118280714D01*
X143982285Y-118423571D01*
X143910857Y-118709285D01*
X143839428Y-118852142D01*
X143768000Y-118923571D01*
X143625142Y-118995000D01*
X143482285Y-118995000D01*
X143339428Y-118923571D01*
X143268000Y-118852142D01*
X143196571Y-118709285D01*
X143196571Y-118352142D01*
X143268000Y-118137857D01*
X143910857Y-117495000D02*
X143910857Y-116995000D01*
X144696571Y-116780714D02*
X144696571Y-117495000D01*
X143196571Y-117495000D01*
X143196571Y-116780714D01*
X143196571Y-116352142D02*
X143196571Y-115495000D01*
X144696571Y-115923571D02*
X143196571Y-115923571D01*
X142156571Y-121780714D02*
X140656571Y-121780714D01*
X140656571Y-120780714D02*
X140656571Y-120495000D01*
X140728000Y-120352143D01*
X140870857Y-120209286D01*
X141156571Y-120137857D01*
X141656571Y-120137857D01*
X141942285Y-120209286D01*
X142085142Y-120352143D01*
X142156571Y-120495000D01*
X142156571Y-120780714D01*
X142085142Y-120923572D01*
X141942285Y-121066429D01*
X141656571Y-121137857D01*
X141156571Y-121137857D01*
X140870857Y-121066429D01*
X140728000Y-120923572D01*
X140656571Y-120780714D01*
X142156571Y-118637857D02*
X141442285Y-119137857D01*
X142156571Y-119495000D02*
X140656571Y-119495000D01*
X140656571Y-118923572D01*
X140728000Y-118780714D01*
X140799428Y-118709286D01*
X140942285Y-118637857D01*
X141156571Y-118637857D01*
X141299428Y-118709286D01*
X141370857Y-118780714D01*
X141442285Y-118923572D01*
X141442285Y-119495000D01*
X141370857Y-117995000D02*
X141370857Y-117495000D01*
X142156571Y-117280714D02*
X142156571Y-117995000D01*
X140656571Y-117995000D01*
X140656571Y-117280714D01*
X141370857Y-116137857D02*
X141370857Y-116637857D01*
X142156571Y-116637857D02*
X140656571Y-116637857D01*
X140656571Y-115923572D01*
D10*
X139390380Y-120999285D02*
X139390380Y-121570714D01*
X139390380Y-121285000D02*
X138390380Y-121285000D01*
X138533238Y-121380238D01*
X138628476Y-121475476D01*
X138676095Y-121570714D01*
D12*
G04 #@! TO.C,G1*
G36*
X152992666Y-90466333D02*
X153627666Y-90466333D01*
X153627666Y-91101333D01*
X152992666Y-91101333D01*
X152992666Y-91694000D01*
X152400000Y-91694000D01*
X152400000Y-91101333D01*
X151765000Y-91101333D01*
X151765000Y-90466333D01*
X152400000Y-90466333D01*
X152400000Y-89873667D01*
X152992666Y-89873667D01*
X152992666Y-90466333D01*
X152992666Y-90466333D01*
G37*
X152992666Y-90466333D02*
X153627666Y-90466333D01*
X153627666Y-91101333D01*
X152992666Y-91101333D01*
X152992666Y-91694000D01*
X152400000Y-91694000D01*
X152400000Y-91101333D01*
X151765000Y-91101333D01*
X151765000Y-90466333D01*
X152400000Y-90466333D01*
X152400000Y-89873667D01*
X152992666Y-89873667D01*
X152992666Y-90466333D01*
G36*
X147574000Y-91101333D02*
X145753666Y-91101333D01*
X145753666Y-90466333D01*
X147574000Y-90466333D01*
X147574000Y-91101333D01*
X147574000Y-91101333D01*
G37*
X147574000Y-91101333D02*
X145753666Y-91101333D01*
X145753666Y-90466333D01*
X147574000Y-90466333D01*
X147574000Y-91101333D01*
G36*
X147105047Y-87893714D02*
X147587592Y-88009613D01*
X148059765Y-88200362D01*
X148513892Y-88466260D01*
X148678600Y-88585891D01*
X148821186Y-88705622D01*
X148988278Y-88861628D01*
X149163385Y-89036735D01*
X149330018Y-89213768D01*
X149471687Y-89375550D01*
X149571901Y-89504906D01*
X149594341Y-89539696D01*
X149649244Y-89622021D01*
X149686978Y-89659986D01*
X149689210Y-89660297D01*
X149723437Y-89627930D01*
X149793318Y-89543884D01*
X149884899Y-89425092D01*
X149902333Y-89401701D01*
X150245354Y-88999417D01*
X150635021Y-88649042D01*
X151061151Y-88355654D01*
X151513562Y-88124335D01*
X151982070Y-87960164D01*
X152456494Y-87868223D01*
X152926650Y-87853591D01*
X152995760Y-87858344D01*
X153333177Y-87900342D01*
X153640446Y-87972829D01*
X153950828Y-88085319D01*
X154219413Y-88208389D01*
X154430946Y-88319122D01*
X154603141Y-88429119D01*
X154765885Y-88560086D01*
X154949062Y-88733729D01*
X154966127Y-88750746D01*
X155139962Y-88931819D01*
X155269118Y-89088066D01*
X155374388Y-89248347D01*
X155476564Y-89441523D01*
X155502715Y-89495523D01*
X155689002Y-89963733D01*
X155792970Y-90422410D01*
X155815167Y-90879392D01*
X155756138Y-91342517D01*
X155656862Y-91704704D01*
X155483370Y-92099482D01*
X155238223Y-92475263D01*
X154934305Y-92817703D01*
X154584499Y-93112456D01*
X154201690Y-93345178D01*
X154169191Y-93361087D01*
X153789439Y-93521963D01*
X153431445Y-93623326D01*
X153063801Y-93671556D01*
X152655098Y-93673032D01*
X152637207Y-93672196D01*
X152113996Y-93609218D01*
X151624425Y-93470617D01*
X151158649Y-93253074D01*
X150881550Y-93079875D01*
X150690878Y-92933202D01*
X150473145Y-92740572D01*
X150251349Y-92524308D01*
X150048490Y-92306734D01*
X149901018Y-92128119D01*
X149700532Y-91863739D01*
X149517171Y-92106953D01*
X149210925Y-92467097D01*
X148860365Y-92800379D01*
X148484263Y-93091630D01*
X148101393Y-93325680D01*
X147877406Y-93431854D01*
X147479777Y-93563833D01*
X147047017Y-93647669D01*
X146605997Y-93680743D01*
X146183588Y-93660438D01*
X145944166Y-93620195D01*
X145499958Y-93492416D01*
X145109353Y-93314905D01*
X144751353Y-93076051D01*
X144415510Y-92774895D01*
X144092229Y-92392768D01*
X143844940Y-91974122D01*
X143674513Y-91520481D01*
X143654214Y-91443868D01*
X143609388Y-91169813D01*
X143594109Y-90848123D01*
X143602294Y-90631490D01*
X144660710Y-90631490D01*
X144668182Y-90985958D01*
X144746391Y-91323589D01*
X144888391Y-91637252D01*
X145087235Y-91919812D01*
X145335977Y-92164138D01*
X145627673Y-92363097D01*
X145955376Y-92509555D01*
X146312141Y-92596380D01*
X146691021Y-92616440D01*
X146986138Y-92583263D01*
X147131065Y-92544237D01*
X147317003Y-92477231D01*
X147510547Y-92394650D01*
X147568839Y-92366859D01*
X147887502Y-92175534D01*
X148207462Y-91919512D01*
X148509480Y-91616236D01*
X148774316Y-91283149D01*
X148791480Y-91258418D01*
X148921321Y-91069963D01*
X149008095Y-90934429D01*
X149053660Y-90832971D01*
X149058196Y-90770029D01*
X150288646Y-90770029D01*
X150421056Y-90988598D01*
X150721171Y-91425837D01*
X151054030Y-91804549D01*
X151411194Y-92116414D01*
X151784225Y-92353110D01*
X151826375Y-92374452D01*
X152190848Y-92526175D01*
X152533838Y-92606355D01*
X152874784Y-92617569D01*
X153233124Y-92562396D01*
X153236894Y-92561510D01*
X153626668Y-92428959D01*
X153969429Y-92228225D01*
X154259594Y-91963686D01*
X154491578Y-91639719D01*
X154548028Y-91533553D01*
X154619468Y-91384779D01*
X154665536Y-91268483D01*
X154691785Y-91157799D01*
X154703770Y-91025865D01*
X154707048Y-90845815D01*
X154707166Y-90763972D01*
X154705431Y-90558040D01*
X154696861Y-90410595D01*
X154676412Y-90295477D01*
X154639038Y-90186525D01*
X154579694Y-90057578D01*
X154565250Y-90028114D01*
X154353416Y-89692375D01*
X154074441Y-89405637D01*
X153733648Y-89173110D01*
X153644035Y-89126337D01*
X153488802Y-89052394D01*
X153364393Y-89004217D01*
X153242703Y-88975385D01*
X153095629Y-88959474D01*
X152895066Y-88950063D01*
X152868699Y-88949154D01*
X152643380Y-88944891D01*
X152473990Y-88951935D01*
X152332196Y-88973310D01*
X152189666Y-89012042D01*
X152146000Y-89026332D01*
X151738322Y-89206673D01*
X151349715Y-89465557D01*
X150985955Y-89797910D01*
X150652821Y-90198660D01*
X150432799Y-90530639D01*
X150288646Y-90770029D01*
X149058196Y-90770029D01*
X149059874Y-90746745D01*
X149028596Y-90656907D01*
X148961684Y-90544614D01*
X148874912Y-90412424D01*
X148571790Y-89999881D01*
X148241183Y-89645975D01*
X147891133Y-89357503D01*
X147529685Y-89141260D01*
X147230183Y-89022531D01*
X146934496Y-88961249D01*
X146609945Y-88941634D01*
X146285215Y-88962455D01*
X145988987Y-89022485D01*
X145823377Y-89082823D01*
X145452365Y-89291759D01*
X145148854Y-89549601D01*
X144914552Y-89854495D01*
X144751169Y-90204592D01*
X144730919Y-90267318D01*
X144660710Y-90631490D01*
X143602294Y-90631490D01*
X143606919Y-90509108D01*
X143646360Y-90183073D01*
X143710974Y-89900327D01*
X143731470Y-89838335D01*
X143887969Y-89469174D01*
X144081190Y-89148984D01*
X144330668Y-88847053D01*
X144421587Y-88753254D01*
X144805254Y-88426394D01*
X145224581Y-88172574D01*
X145671896Y-87992094D01*
X146139526Y-87885256D01*
X146619801Y-87852362D01*
X147105047Y-87893714D01*
X147105047Y-87893714D01*
G37*
X147105047Y-87893714D02*
X147587592Y-88009613D01*
X148059765Y-88200362D01*
X148513892Y-88466260D01*
X148678600Y-88585891D01*
X148821186Y-88705622D01*
X148988278Y-88861628D01*
X149163385Y-89036735D01*
X149330018Y-89213768D01*
X149471687Y-89375550D01*
X149571901Y-89504906D01*
X149594341Y-89539696D01*
X149649244Y-89622021D01*
X149686978Y-89659986D01*
X149689210Y-89660297D01*
X149723437Y-89627930D01*
X149793318Y-89543884D01*
X149884899Y-89425092D01*
X149902333Y-89401701D01*
X150245354Y-88999417D01*
X150635021Y-88649042D01*
X151061151Y-88355654D01*
X151513562Y-88124335D01*
X151982070Y-87960164D01*
X152456494Y-87868223D01*
X152926650Y-87853591D01*
X152995760Y-87858344D01*
X153333177Y-87900342D01*
X153640446Y-87972829D01*
X153950828Y-88085319D01*
X154219413Y-88208389D01*
X154430946Y-88319122D01*
X154603141Y-88429119D01*
X154765885Y-88560086D01*
X154949062Y-88733729D01*
X154966127Y-88750746D01*
X155139962Y-88931819D01*
X155269118Y-89088066D01*
X155374388Y-89248347D01*
X155476564Y-89441523D01*
X155502715Y-89495523D01*
X155689002Y-89963733D01*
X155792970Y-90422410D01*
X155815167Y-90879392D01*
X155756138Y-91342517D01*
X155656862Y-91704704D01*
X155483370Y-92099482D01*
X155238223Y-92475263D01*
X154934305Y-92817703D01*
X154584499Y-93112456D01*
X154201690Y-93345178D01*
X154169191Y-93361087D01*
X153789439Y-93521963D01*
X153431445Y-93623326D01*
X153063801Y-93671556D01*
X152655098Y-93673032D01*
X152637207Y-93672196D01*
X152113996Y-93609218D01*
X151624425Y-93470617D01*
X151158649Y-93253074D01*
X150881550Y-93079875D01*
X150690878Y-92933202D01*
X150473145Y-92740572D01*
X150251349Y-92524308D01*
X150048490Y-92306734D01*
X149901018Y-92128119D01*
X149700532Y-91863739D01*
X149517171Y-92106953D01*
X149210925Y-92467097D01*
X148860365Y-92800379D01*
X148484263Y-93091630D01*
X148101393Y-93325680D01*
X147877406Y-93431854D01*
X147479777Y-93563833D01*
X147047017Y-93647669D01*
X146605997Y-93680743D01*
X146183588Y-93660438D01*
X145944166Y-93620195D01*
X145499958Y-93492416D01*
X145109353Y-93314905D01*
X144751353Y-93076051D01*
X144415510Y-92774895D01*
X144092229Y-92392768D01*
X143844940Y-91974122D01*
X143674513Y-91520481D01*
X143654214Y-91443868D01*
X143609388Y-91169813D01*
X143594109Y-90848123D01*
X143602294Y-90631490D01*
X144660710Y-90631490D01*
X144668182Y-90985958D01*
X144746391Y-91323589D01*
X144888391Y-91637252D01*
X145087235Y-91919812D01*
X145335977Y-92164138D01*
X145627673Y-92363097D01*
X145955376Y-92509555D01*
X146312141Y-92596380D01*
X146691021Y-92616440D01*
X146986138Y-92583263D01*
X147131065Y-92544237D01*
X147317003Y-92477231D01*
X147510547Y-92394650D01*
X147568839Y-92366859D01*
X147887502Y-92175534D01*
X148207462Y-91919512D01*
X148509480Y-91616236D01*
X148774316Y-91283149D01*
X148791480Y-91258418D01*
X148921321Y-91069963D01*
X149008095Y-90934429D01*
X149053660Y-90832971D01*
X149058196Y-90770029D01*
X150288646Y-90770029D01*
X150421056Y-90988598D01*
X150721171Y-91425837D01*
X151054030Y-91804549D01*
X151411194Y-92116414D01*
X151784225Y-92353110D01*
X151826375Y-92374452D01*
X152190848Y-92526175D01*
X152533838Y-92606355D01*
X152874784Y-92617569D01*
X153233124Y-92562396D01*
X153236894Y-92561510D01*
X153626668Y-92428959D01*
X153969429Y-92228225D01*
X154259594Y-91963686D01*
X154491578Y-91639719D01*
X154548028Y-91533553D01*
X154619468Y-91384779D01*
X154665536Y-91268483D01*
X154691785Y-91157799D01*
X154703770Y-91025865D01*
X154707048Y-90845815D01*
X154707166Y-90763972D01*
X154705431Y-90558040D01*
X154696861Y-90410595D01*
X154676412Y-90295477D01*
X154639038Y-90186525D01*
X154579694Y-90057578D01*
X154565250Y-90028114D01*
X154353416Y-89692375D01*
X154074441Y-89405637D01*
X153733648Y-89173110D01*
X153644035Y-89126337D01*
X153488802Y-89052394D01*
X153364393Y-89004217D01*
X153242703Y-88975385D01*
X153095629Y-88959474D01*
X152895066Y-88950063D01*
X152868699Y-88949154D01*
X152643380Y-88944891D01*
X152473990Y-88951935D01*
X152332196Y-88973310D01*
X152189666Y-89012042D01*
X152146000Y-89026332D01*
X151738322Y-89206673D01*
X151349715Y-89465557D01*
X150985955Y-89797910D01*
X150652821Y-90198660D01*
X150432799Y-90530639D01*
X150288646Y-90770029D01*
X149058196Y-90770029D01*
X149059874Y-90746745D01*
X149028596Y-90656907D01*
X148961684Y-90544614D01*
X148874912Y-90412424D01*
X148571790Y-89999881D01*
X148241183Y-89645975D01*
X147891133Y-89357503D01*
X147529685Y-89141260D01*
X147230183Y-89022531D01*
X146934496Y-88961249D01*
X146609945Y-88941634D01*
X146285215Y-88962455D01*
X145988987Y-89022485D01*
X145823377Y-89082823D01*
X145452365Y-89291759D01*
X145148854Y-89549601D01*
X144914552Y-89854495D01*
X144751169Y-90204592D01*
X144730919Y-90267318D01*
X144660710Y-90631490D01*
X143602294Y-90631490D01*
X143606919Y-90509108D01*
X143646360Y-90183073D01*
X143710974Y-89900327D01*
X143731470Y-89838335D01*
X143887969Y-89469174D01*
X144081190Y-89148984D01*
X144330668Y-88847053D01*
X144421587Y-88753254D01*
X144805254Y-88426394D01*
X145224581Y-88172574D01*
X145671896Y-87992094D01*
X146139526Y-87885256D01*
X146619801Y-87852362D01*
X147105047Y-87893714D01*
G36*
X153106827Y-94981349D02*
X153352500Y-95432365D01*
X153364515Y-94981349D01*
X153376531Y-94530333D01*
X153797000Y-94530333D01*
X153797000Y-96227892D01*
X153310166Y-96202500D01*
X153056166Y-95727963D01*
X152802166Y-95253427D01*
X152790239Y-95738547D01*
X152778313Y-96223667D01*
X152357666Y-96223667D01*
X152357666Y-94530333D01*
X152861155Y-94530333D01*
X153106827Y-94981349D01*
X153106827Y-94981349D01*
G37*
X153106827Y-94981349D02*
X153352500Y-95432365D01*
X153364515Y-94981349D01*
X153376531Y-94530333D01*
X153797000Y-94530333D01*
X153797000Y-96227892D01*
X153310166Y-96202500D01*
X153056166Y-95727963D01*
X152802166Y-95253427D01*
X152790239Y-95738547D01*
X152778313Y-96223667D01*
X152357666Y-96223667D01*
X152357666Y-94530333D01*
X152861155Y-94530333D01*
X153106827Y-94981349D01*
G36*
X152061333Y-94911333D02*
X151638000Y-94911333D01*
X151638000Y-95842667D01*
X152061333Y-95842667D01*
X152061333Y-96223667D01*
X150749000Y-96223667D01*
X150749000Y-95842667D01*
X151172333Y-95842667D01*
X151172333Y-94911333D01*
X150749000Y-94911333D01*
X150749000Y-94530333D01*
X152061333Y-94530333D01*
X152061333Y-94911333D01*
X152061333Y-94911333D01*
G37*
X152061333Y-94911333D02*
X151638000Y-94911333D01*
X151638000Y-95842667D01*
X152061333Y-95842667D01*
X152061333Y-96223667D01*
X150749000Y-96223667D01*
X150749000Y-95842667D01*
X151172333Y-95842667D01*
X151172333Y-94911333D01*
X150749000Y-94911333D01*
X150749000Y-94530333D01*
X152061333Y-94530333D01*
X152061333Y-94911333D01*
G36*
X147796250Y-94531263D02*
X148111937Y-94546691D01*
X148355110Y-94595854D01*
X148533455Y-94685353D01*
X148654656Y-94821787D01*
X148726400Y-95011756D01*
X148756373Y-95261858D01*
X148758403Y-95357447D01*
X148734263Y-95642156D01*
X148657655Y-95864663D01*
X148525278Y-96031692D01*
X148379946Y-96128417D01*
X148272436Y-96175211D01*
X148159685Y-96204041D01*
X148016721Y-96218850D01*
X147818575Y-96223581D01*
X147776696Y-96223667D01*
X147362333Y-96223667D01*
X147362333Y-94911333D01*
X147785666Y-94911333D01*
X147785666Y-95842667D01*
X147929143Y-95842667D01*
X148061353Y-95818386D01*
X148172560Y-95761740D01*
X148226283Y-95707942D01*
X148256550Y-95639847D01*
X148269801Y-95533196D01*
X148272500Y-95385185D01*
X148259288Y-95172031D01*
X148214803Y-95029433D01*
X148131770Y-94946754D01*
X148002913Y-94913354D01*
X147948438Y-94911333D01*
X147785666Y-94911333D01*
X147362333Y-94911333D01*
X147362333Y-94530333D01*
X147796250Y-94531263D01*
X147796250Y-94531263D01*
G37*
X147796250Y-94531263D02*
X148111937Y-94546691D01*
X148355110Y-94595854D01*
X148533455Y-94685353D01*
X148654656Y-94821787D01*
X148726400Y-95011756D01*
X148756373Y-95261858D01*
X148758403Y-95357447D01*
X148734263Y-95642156D01*
X148657655Y-95864663D01*
X148525278Y-96031692D01*
X148379946Y-96128417D01*
X148272436Y-96175211D01*
X148159685Y-96204041D01*
X148016721Y-96218850D01*
X147818575Y-96223581D01*
X147776696Y-96223667D01*
X147362333Y-96223667D01*
X147362333Y-94911333D01*
X147785666Y-94911333D01*
X147785666Y-95842667D01*
X147929143Y-95842667D01*
X148061353Y-95818386D01*
X148172560Y-95761740D01*
X148226283Y-95707942D01*
X148256550Y-95639847D01*
X148269801Y-95533196D01*
X148272500Y-95385185D01*
X148259288Y-95172031D01*
X148214803Y-95029433D01*
X148131770Y-94946754D01*
X148002913Y-94913354D01*
X147948438Y-94911333D01*
X147785666Y-94911333D01*
X147362333Y-94911333D01*
X147362333Y-94530333D01*
X147796250Y-94531263D01*
G36*
X146239656Y-94537464D02*
X146460904Y-94544267D01*
X146614411Y-94553012D01*
X146717093Y-94566980D01*
X146785865Y-94589457D01*
X146837643Y-94623725D01*
X146877672Y-94661311D01*
X146983399Y-94821542D01*
X147034842Y-95018642D01*
X147031388Y-95225646D01*
X146972426Y-95415591D01*
X146897280Y-95524513D01*
X146806156Y-95621510D01*
X146957777Y-95922588D01*
X147109397Y-96223667D01*
X146573567Y-96223667D01*
X146452166Y-95969667D01*
X146377442Y-95826493D01*
X146316868Y-95747685D01*
X146256920Y-95717590D01*
X146232716Y-95715667D01*
X146178289Y-95722159D01*
X146148897Y-95754824D01*
X146136902Y-95833443D01*
X146134666Y-95969667D01*
X146134666Y-96223667D01*
X145711333Y-96223667D01*
X145711333Y-94911333D01*
X146134666Y-94911333D01*
X146134666Y-95334667D01*
X146279809Y-95334667D01*
X146399293Y-95315922D01*
X146488952Y-95270571D01*
X146491476Y-95268143D01*
X146547857Y-95164280D01*
X146550297Y-95045418D01*
X146507200Y-94962133D01*
X146433743Y-94928694D01*
X146318346Y-94911824D01*
X146295533Y-94911333D01*
X146134666Y-94911333D01*
X145711333Y-94911333D01*
X145711333Y-94523428D01*
X146239656Y-94537464D01*
X146239656Y-94537464D01*
G37*
X146239656Y-94537464D02*
X146460904Y-94544267D01*
X146614411Y-94553012D01*
X146717093Y-94566980D01*
X146785865Y-94589457D01*
X146837643Y-94623725D01*
X146877672Y-94661311D01*
X146983399Y-94821542D01*
X147034842Y-95018642D01*
X147031388Y-95225646D01*
X146972426Y-95415591D01*
X146897280Y-95524513D01*
X146806156Y-95621510D01*
X146957777Y-95922588D01*
X147109397Y-96223667D01*
X146573567Y-96223667D01*
X146452166Y-95969667D01*
X146377442Y-95826493D01*
X146316868Y-95747685D01*
X146256920Y-95717590D01*
X146232716Y-95715667D01*
X146178289Y-95722159D01*
X146148897Y-95754824D01*
X146136902Y-95833443D01*
X146134666Y-95969667D01*
X146134666Y-96223667D01*
X145711333Y-96223667D01*
X145711333Y-94911333D01*
X146134666Y-94911333D01*
X146134666Y-95334667D01*
X146279809Y-95334667D01*
X146399293Y-95315922D01*
X146488952Y-95270571D01*
X146491476Y-95268143D01*
X146547857Y-95164280D01*
X146550297Y-95045418D01*
X146507200Y-94962133D01*
X146433743Y-94928694D01*
X146318346Y-94911824D01*
X146295533Y-94911333D01*
X146134666Y-94911333D01*
X145711333Y-94911333D01*
X145711333Y-94523428D01*
X146239656Y-94537464D01*
G36*
X145169804Y-95281750D02*
X145246820Y-95526417D01*
X145316583Y-95748607D01*
X145374464Y-95933532D01*
X145415836Y-96066406D01*
X145435535Y-96130635D01*
X145447132Y-96184836D01*
X145428750Y-96212549D01*
X145362683Y-96220649D01*
X145231226Y-96216011D01*
X145217473Y-96215302D01*
X145078857Y-96205969D01*
X145001388Y-96186964D01*
X144961658Y-96144256D01*
X144936262Y-96063815D01*
X144931283Y-96043750D01*
X144904715Y-95951258D01*
X144867661Y-95904212D01*
X144794920Y-95887248D01*
X144670905Y-95885000D01*
X144541446Y-95887624D01*
X144471640Y-95905734D01*
X144436475Y-95954692D01*
X144412372Y-96043750D01*
X144375001Y-96202500D01*
X144127599Y-96215357D01*
X143987737Y-96218879D01*
X143916765Y-96208698D01*
X143899567Y-96181652D01*
X143903140Y-96168423D01*
X143922349Y-96110838D01*
X143962255Y-95985880D01*
X144018596Y-95807079D01*
X144087111Y-95587968D01*
X144118853Y-95485839D01*
X144540155Y-95485839D01*
X144546681Y-95529180D01*
X144619916Y-95545630D01*
X144653060Y-95546333D01*
X144744861Y-95539734D01*
X144772992Y-95505770D01*
X144761376Y-95435561D01*
X144730979Y-95305398D01*
X144709299Y-95203415D01*
X144680043Y-95117306D01*
X144646145Y-95112940D01*
X144611731Y-95187849D01*
X144591816Y-95273705D01*
X144566424Y-95392295D01*
X144542310Y-95479923D01*
X144540155Y-95485839D01*
X144118853Y-95485839D01*
X144163536Y-95342076D01*
X144170537Y-95319482D01*
X144414989Y-94530333D01*
X144932985Y-94530333D01*
X145169804Y-95281750D01*
X145169804Y-95281750D01*
G37*
X145169804Y-95281750D02*
X145246820Y-95526417D01*
X145316583Y-95748607D01*
X145374464Y-95933532D01*
X145415836Y-96066406D01*
X145435535Y-96130635D01*
X145447132Y-96184836D01*
X145428750Y-96212549D01*
X145362683Y-96220649D01*
X145231226Y-96216011D01*
X145217473Y-96215302D01*
X145078857Y-96205969D01*
X145001388Y-96186964D01*
X144961658Y-96144256D01*
X144936262Y-96063815D01*
X144931283Y-96043750D01*
X144904715Y-95951258D01*
X144867661Y-95904212D01*
X144794920Y-95887248D01*
X144670905Y-95885000D01*
X144541446Y-95887624D01*
X144471640Y-95905734D01*
X144436475Y-95954692D01*
X144412372Y-96043750D01*
X144375001Y-96202500D01*
X144127599Y-96215357D01*
X143987737Y-96218879D01*
X143916765Y-96208698D01*
X143899567Y-96181652D01*
X143903140Y-96168423D01*
X143922349Y-96110838D01*
X143962255Y-95985880D01*
X144018596Y-95807079D01*
X144087111Y-95587968D01*
X144118853Y-95485839D01*
X144540155Y-95485839D01*
X144546681Y-95529180D01*
X144619916Y-95545630D01*
X144653060Y-95546333D01*
X144744861Y-95539734D01*
X144772992Y-95505770D01*
X144761376Y-95435561D01*
X144730979Y-95305398D01*
X144709299Y-95203415D01*
X144680043Y-95117306D01*
X144646145Y-95112940D01*
X144611731Y-95187849D01*
X144591816Y-95273705D01*
X144566424Y-95392295D01*
X144542310Y-95479923D01*
X144540155Y-95485839D01*
X144118853Y-95485839D01*
X144163536Y-95342076D01*
X144170537Y-95319482D01*
X144414989Y-94530333D01*
X144932985Y-94530333D01*
X145169804Y-95281750D01*
G36*
X155030794Y-94528813D02*
X155133711Y-94568226D01*
X155272237Y-94652927D01*
X155369517Y-94769622D01*
X155431036Y-94931537D01*
X155462281Y-95151897D01*
X155469166Y-95377000D01*
X155458687Y-95636458D01*
X155422874Y-95831497D01*
X155355160Y-95980257D01*
X155248979Y-96100879D01*
X155189897Y-96148585D01*
X155080407Y-96197848D01*
X154919630Y-96234210D01*
X154740500Y-96253454D01*
X154575952Y-96251366D01*
X154495500Y-96237454D01*
X154321972Y-96149532D01*
X154175260Y-96001515D01*
X154114082Y-95899308D01*
X154069968Y-95751289D01*
X154044292Y-95551448D01*
X154039269Y-95377000D01*
X154516666Y-95377000D01*
X154530277Y-95610737D01*
X154572779Y-95769584D01*
X154646673Y-95859099D01*
X154745339Y-95885000D01*
X154850899Y-95854290D01*
X154907709Y-95810917D01*
X154962699Y-95703817D01*
X154995583Y-95548429D01*
X155006829Y-95368994D01*
X154996906Y-95189751D01*
X154966284Y-95034940D01*
X154915431Y-94928801D01*
X154890199Y-94905822D01*
X154765975Y-94870453D01*
X154644675Y-94904712D01*
X154582567Y-94963086D01*
X154540895Y-95067872D01*
X154519957Y-95238937D01*
X154516666Y-95377000D01*
X154039269Y-95377000D01*
X154037938Y-95330790D01*
X154051788Y-95120319D01*
X154086726Y-94951041D01*
X154087050Y-94950066D01*
X154193841Y-94752841D01*
X154356868Y-94606537D01*
X154560875Y-94516721D01*
X154790602Y-94488957D01*
X155030794Y-94528813D01*
X155030794Y-94528813D01*
G37*
X155030794Y-94528813D02*
X155133711Y-94568226D01*
X155272237Y-94652927D01*
X155369517Y-94769622D01*
X155431036Y-94931537D01*
X155462281Y-95151897D01*
X155469166Y-95377000D01*
X155458687Y-95636458D01*
X155422874Y-95831497D01*
X155355160Y-95980257D01*
X155248979Y-96100879D01*
X155189897Y-96148585D01*
X155080407Y-96197848D01*
X154919630Y-96234210D01*
X154740500Y-96253454D01*
X154575952Y-96251366D01*
X154495500Y-96237454D01*
X154321972Y-96149532D01*
X154175260Y-96001515D01*
X154114082Y-95899308D01*
X154069968Y-95751289D01*
X154044292Y-95551448D01*
X154039269Y-95377000D01*
X154516666Y-95377000D01*
X154530277Y-95610737D01*
X154572779Y-95769584D01*
X154646673Y-95859099D01*
X154745339Y-95885000D01*
X154850899Y-95854290D01*
X154907709Y-95810917D01*
X154962699Y-95703817D01*
X154995583Y-95548429D01*
X155006829Y-95368994D01*
X154996906Y-95189751D01*
X154966284Y-95034940D01*
X154915431Y-94928801D01*
X154890199Y-94905822D01*
X154765975Y-94870453D01*
X154644675Y-94904712D01*
X154582567Y-94963086D01*
X154540895Y-95067872D01*
X154519957Y-95238937D01*
X154516666Y-95377000D01*
X154039269Y-95377000D01*
X154037938Y-95330790D01*
X154051788Y-95120319D01*
X154086726Y-94951041D01*
X154087050Y-94950066D01*
X154193841Y-94752841D01*
X154356868Y-94606537D01*
X154560875Y-94516721D01*
X154790602Y-94488957D01*
X155030794Y-94528813D01*
G36*
X149486460Y-95147669D02*
X149492885Y-95391384D01*
X149500883Y-95564408D01*
X149512431Y-95680719D01*
X149529507Y-95754293D01*
X149554091Y-95799105D01*
X149582341Y-95825003D01*
X149712432Y-95880771D01*
X149831939Y-95854949D01*
X149878142Y-95818476D01*
X149905225Y-95776741D01*
X149924104Y-95705874D01*
X149936090Y-95592518D01*
X149942495Y-95423315D01*
X149944633Y-95184907D01*
X149944666Y-95141143D01*
X149944666Y-94530333D01*
X150410333Y-94530333D01*
X150410267Y-95154750D01*
X150406435Y-95449130D01*
X150392649Y-95672909D01*
X150365370Y-95839908D01*
X150321058Y-95963947D01*
X150256176Y-96058849D01*
X150167183Y-96138436D01*
X150156333Y-96146440D01*
X150038514Y-96198343D01*
X149869026Y-96233600D01*
X149679796Y-96248984D01*
X149502753Y-96241267D01*
X149408426Y-96222055D01*
X149290726Y-96161005D01*
X149178069Y-96065567D01*
X149165010Y-96050784D01*
X149124569Y-96000112D01*
X149095575Y-95949750D01*
X149076124Y-95885329D01*
X149064311Y-95792481D01*
X149058233Y-95656837D01*
X149055986Y-95464029D01*
X149055666Y-95225585D01*
X149055666Y-94530333D01*
X149472753Y-94530333D01*
X149486460Y-95147669D01*
X149486460Y-95147669D01*
G37*
X149486460Y-95147669D02*
X149492885Y-95391384D01*
X149500883Y-95564408D01*
X149512431Y-95680719D01*
X149529507Y-95754293D01*
X149554091Y-95799105D01*
X149582341Y-95825003D01*
X149712432Y-95880771D01*
X149831939Y-95854949D01*
X149878142Y-95818476D01*
X149905225Y-95776741D01*
X149924104Y-95705874D01*
X149936090Y-95592518D01*
X149942495Y-95423315D01*
X149944633Y-95184907D01*
X149944666Y-95141143D01*
X149944666Y-94530333D01*
X150410333Y-94530333D01*
X150410267Y-95154750D01*
X150406435Y-95449130D01*
X150392649Y-95672909D01*
X150365370Y-95839908D01*
X150321058Y-95963947D01*
X150256176Y-96058849D01*
X150167183Y-96138436D01*
X150156333Y-96146440D01*
X150038514Y-96198343D01*
X149869026Y-96233600D01*
X149679796Y-96248984D01*
X149502753Y-96241267D01*
X149408426Y-96222055D01*
X149290726Y-96161005D01*
X149178069Y-96065567D01*
X149165010Y-96050784D01*
X149124569Y-96000112D01*
X149095575Y-95949750D01*
X149076124Y-95885329D01*
X149064311Y-95792481D01*
X149058233Y-95656837D01*
X149055986Y-95464029D01*
X149055666Y-95225585D01*
X149055666Y-94530333D01*
X149472753Y-94530333D01*
X149486460Y-95147669D01*
D13*
G04 #@! TO.C,RESET*
X120578000Y-73351000D02*
X114118000Y-73351000D01*
X120578000Y-77881000D02*
X120578000Y-75281000D01*
X120578000Y-79811000D02*
X114118000Y-79811000D01*
X114118000Y-77881000D02*
X114118000Y-75281000D01*
X120578000Y-79781000D02*
X120578000Y-79811000D01*
X120578000Y-73351000D02*
X120578000Y-73381000D01*
X114118000Y-73351000D02*
X114118000Y-73381000D01*
X114118000Y-79811000D02*
X114118000Y-79781000D01*
D10*
G04 #@! TO.C,P1*
X140208000Y-125095000D02*
X157988000Y-125095000D01*
X157988000Y-125095000D02*
X157988000Y-122555000D01*
X157988000Y-122555000D02*
X140208000Y-122555000D01*
X137388000Y-125375000D02*
X138938000Y-125375000D01*
X140208000Y-125095000D02*
X140208000Y-122555000D01*
X138938000Y-122275000D02*
X137388000Y-122275000D01*
X137388000Y-122275000D02*
X137388000Y-125375000D01*
G04 #@! TO.C,P2*
X163068000Y-125095000D02*
X175768000Y-125095000D01*
X175768000Y-125095000D02*
X175768000Y-122555000D01*
X175768000Y-122555000D02*
X163068000Y-122555000D01*
X160248000Y-125375000D02*
X161798000Y-125375000D01*
X163068000Y-125095000D02*
X163068000Y-122555000D01*
X161798000Y-122275000D02*
X160248000Y-122275000D01*
X160248000Y-122275000D02*
X160248000Y-125375000D01*
G04 #@! TO.C,P3*
X131064000Y-76835000D02*
X153924000Y-76835000D01*
X153924000Y-76835000D02*
X153924000Y-74295000D01*
X153924000Y-74295000D02*
X131064000Y-74295000D01*
X128244000Y-77115000D02*
X129794000Y-77115000D01*
X131064000Y-76835000D02*
X131064000Y-74295000D01*
X129794000Y-74015000D02*
X128244000Y-74015000D01*
X128244000Y-74015000D02*
X128244000Y-77115000D01*
G04 #@! TO.C,P4*
X157988000Y-76835000D02*
X175768000Y-76835000D01*
X175768000Y-76835000D02*
X175768000Y-74295000D01*
X175768000Y-74295000D02*
X157988000Y-74295000D01*
X155168000Y-77115000D02*
X156718000Y-77115000D01*
X157988000Y-76835000D02*
X157988000Y-74295000D01*
X156718000Y-74015000D02*
X155168000Y-74015000D01*
X155168000Y-74015000D02*
X155168000Y-77115000D01*
G04 #@! TO.C,P5*
X127254000Y-123825000D02*
G75*
G03X127254000Y-123825000I-2286000J0D01*
G01*
G04 #@! TO.C,P6*
X179324000Y-119927000D02*
G75*
G03X179324000Y-119927000I-2286000J0D01*
G01*
G04 #@! TO.C,P7*
X128524000Y-75565000D02*
G75*
G03X128524000Y-75565000I-2286000J0D01*
G01*
G04 #@! TO.C,P8*
X179324000Y-90805000D02*
G75*
G03X179324000Y-90805000I-2286000J0D01*
G01*
D13*
G04 #@! TO.C,C3*
X153989221Y-115699000D02*
X154314779Y-115699000D01*
X153989221Y-114679000D02*
X154314779Y-114679000D01*
G04 #@! TO.C,C4*
X128526000Y-110525779D02*
X128526000Y-110200221D01*
X127506000Y-110525779D02*
X127506000Y-110200221D01*
G04 #@! TO.C,C5*
X135888000Y-110327221D02*
X135888000Y-110652779D01*
X136908000Y-110327221D02*
X136908000Y-110652779D01*
G04 #@! TO.C,C6*
X123580779Y-96899000D02*
X123255221Y-96899000D01*
X123580779Y-97919000D02*
X123255221Y-97919000D01*
G04 #@! TO.C,C7*
X138383221Y-96142000D02*
X138708779Y-96142000D01*
X138383221Y-97162000D02*
X138708779Y-97162000D01*
G04 #@! TO.C,C8*
X123580779Y-95887000D02*
X123255221Y-95887000D01*
X123580779Y-94867000D02*
X123255221Y-94867000D01*
G04 #@! TO.C,C9*
X138383221Y-81659000D02*
X138708779Y-81659000D01*
X138383221Y-82679000D02*
X138708779Y-82679000D01*
G04 #@! TO.C,C10*
X138708779Y-95161500D02*
X138383221Y-95161500D01*
X138708779Y-94141500D02*
X138383221Y-94141500D01*
G04 #@! TO.C,C11*
X123255221Y-85473000D02*
X123580779Y-85473000D01*
X123255221Y-84453000D02*
X123580779Y-84453000D01*
G04 #@! TO.C,D1*
X135258000Y-125729000D02*
X135258000Y-122429000D01*
X135258000Y-122429000D02*
X129858000Y-122429000D01*
X135258000Y-125729000D02*
X129858000Y-125729000D01*
G04 #@! TO.C,ON*
X167425000Y-90270000D02*
X169710000Y-90270000D01*
X167425000Y-88800000D02*
X167425000Y-90270000D01*
X169710000Y-88800000D02*
X167425000Y-88800000D01*
G04 #@! TO.C,D3*
X125341000Y-82930000D02*
X125341000Y-79045000D01*
X123071000Y-82930000D02*
X125341000Y-82930000D01*
X123071000Y-79045000D02*
X123071000Y-82930000D01*
G04 #@! TO.C,TX*
X137726000Y-91265500D02*
X140011000Y-91265500D01*
X140011000Y-91265500D02*
X140011000Y-89795500D01*
X140011000Y-89795500D02*
X137726000Y-89795500D01*
G04 #@! TO.C,RX*
X140011000Y-91876000D02*
X137726000Y-91876000D01*
X140011000Y-93346000D02*
X140011000Y-91876000D01*
X137726000Y-93346000D02*
X140011000Y-93346000D01*
G04 #@! TO.C,D6*
X171569000Y-100657000D02*
X171569000Y-96772000D01*
X171569000Y-96772000D02*
X169299000Y-96772000D01*
X169299000Y-96772000D02*
X169299000Y-100657000D01*
G04 #@! TO.C,L*
X137726000Y-84944500D02*
X140011000Y-84944500D01*
X140011000Y-84944500D02*
X140011000Y-83474500D01*
X140011000Y-83474500D02*
X137726000Y-83474500D01*
G04 #@! TO.C,F1*
X111828000Y-102351252D02*
X111828000Y-99578748D01*
X115248000Y-102351252D02*
X115248000Y-99578748D01*
G04 #@! TO.C,FB1*
X118105422Y-96953000D02*
X118622578Y-96953000D01*
X118105422Y-98373000D02*
X118622578Y-98373000D01*
G04 #@! TO.C,J1*
X123178000Y-114995000D02*
X123178000Y-113945000D01*
X122128000Y-113945000D02*
X123178000Y-113945000D01*
X117078000Y-123345000D02*
X108278000Y-123345000D01*
X108278000Y-123345000D02*
X108278000Y-114145000D01*
X122978000Y-120645000D02*
X122978000Y-123345000D01*
X122978000Y-123345000D02*
X121078000Y-123345000D01*
X108278000Y-114145000D02*
X122978000Y-114145000D01*
X122978000Y-114145000D02*
X122978000Y-116745000D01*
G04 #@! TO.C,J2*
X115588000Y-94545000D02*
X119848000Y-94545000D01*
X119848000Y-94545000D02*
X119848000Y-82225000D01*
X119848000Y-82225000D02*
X115588000Y-82225000D01*
X111488000Y-94545000D02*
X103128000Y-94545000D01*
X103128000Y-94545000D02*
X103128000Y-82225000D01*
X103128000Y-82225000D02*
X111488000Y-82225000D01*
X120068000Y-89635000D02*
X120568000Y-90135000D01*
X120568000Y-90135000D02*
X120568000Y-89135000D01*
X120568000Y-89135000D02*
X120068000Y-89635000D01*
G04 #@! TO.C,J3*
X125924000Y-78045000D02*
X125924000Y-83245000D01*
X131064000Y-78045000D02*
X125924000Y-78045000D01*
X133664000Y-83245000D02*
X125924000Y-83245000D01*
X131064000Y-78045000D02*
X131064000Y-80645000D01*
X131064000Y-80645000D02*
X133664000Y-80645000D01*
X133664000Y-80645000D02*
X133664000Y-83245000D01*
X132334000Y-78045000D02*
X133664000Y-78045000D01*
X133664000Y-78045000D02*
X133664000Y-79375000D01*
G04 #@! TO.C,J4*
X128464000Y-83125000D02*
X128464000Y-88325000D01*
X131064000Y-83125000D02*
X128464000Y-83125000D01*
X133664000Y-88325000D02*
X128464000Y-88325000D01*
X131064000Y-83125000D02*
X131064000Y-85725000D01*
X131064000Y-85725000D02*
X133664000Y-85725000D01*
X133664000Y-85725000D02*
X133664000Y-88325000D01*
X132334000Y-83125000D02*
X133664000Y-83125000D01*
X133664000Y-83125000D02*
X133664000Y-84455000D01*
G04 #@! TO.C,ICSP*
X173168000Y-94555000D02*
X174498000Y-94555000D01*
X173168000Y-95885000D02*
X173168000Y-94555000D01*
X175768000Y-94555000D02*
X178368000Y-94555000D01*
X175768000Y-97155000D02*
X175768000Y-94555000D01*
X173168000Y-97155000D02*
X175768000Y-97155000D01*
X178368000Y-94555000D02*
X178368000Y-102295000D01*
X173168000Y-97155000D02*
X173168000Y-102295000D01*
X173168000Y-102295000D02*
X178368000Y-102295000D01*
G04 #@! TO.C,Q1*
X118388000Y-99385000D02*
X118388000Y-100315000D01*
X118388000Y-102545000D02*
X118388000Y-101615000D01*
X118388000Y-102545000D02*
X120548000Y-102545000D01*
X118388000Y-99385000D02*
X119848000Y-99385000D01*
G04 #@! TO.C,R1*
X129605221Y-96899000D02*
X129930779Y-96899000D01*
X129605221Y-97919000D02*
X129930779Y-97919000D01*
G04 #@! TO.C,R2*
X152970779Y-102745000D02*
X152645221Y-102745000D01*
X152970779Y-101725000D02*
X152645221Y-101725000D01*
G04 #@! TO.C,RN1*
X169390000Y-94193000D02*
X168390000Y-94193000D01*
X169390000Y-90833000D02*
X168390000Y-90833000D01*
G04 #@! TO.C,RN2*
X139046000Y-104093000D02*
X138046000Y-104093000D01*
X139046000Y-100733000D02*
X138046000Y-100733000D01*
G04 #@! TO.C,RN3*
X122918000Y-91825100D02*
X123918000Y-91825100D01*
X122918000Y-88465100D02*
X123918000Y-88465100D01*
G04 #@! TO.C,RN4*
X138046000Y-89050000D02*
X139046000Y-89050000D01*
X138046000Y-85690000D02*
X139046000Y-85690000D01*
G04 #@! TO.C,RV1*
X123255221Y-87504000D02*
X123580779Y-87504000D01*
X123255221Y-86484000D02*
X123580779Y-86484000D01*
G04 #@! TO.C,RV2*
X123255221Y-92786100D02*
X123580779Y-92786100D01*
X123255221Y-93806100D02*
X123580779Y-93806100D01*
G04 #@! TO.C,U1*
X116708000Y-106445000D02*
X116708000Y-107705000D01*
X116708000Y-113265000D02*
X116708000Y-112005000D01*
X120468000Y-106445000D02*
X116708000Y-106445000D01*
X122718000Y-113265000D02*
X116708000Y-113265000D01*
G04 #@! TO.C,U2*
X128413000Y-105187000D02*
X130413000Y-105187000D01*
X129413000Y-108427000D02*
X132413000Y-108427000D01*
G04 #@! TO.C,U3*
X131307000Y-112039000D02*
X133107000Y-112039000D01*
X133107000Y-108819000D02*
X130657000Y-108819000D01*
G04 #@! TO.C,U4*
X128708000Y-90970000D02*
X128708000Y-90495000D01*
X128708000Y-90495000D02*
X129183000Y-90495000D01*
X133928000Y-95240000D02*
X133928000Y-95715000D01*
X133928000Y-95715000D02*
X133453000Y-95715000D01*
X133928000Y-90970000D02*
X133928000Y-90495000D01*
X133928000Y-90495000D02*
X133453000Y-90495000D01*
X128708000Y-95240000D02*
X128708000Y-95715000D01*
G04 #@! TO.C,U5*
X175828000Y-110347000D02*
G75*
G02X175828000Y-108347000I0J1000000D01*
G01*
X175828000Y-108347000D02*
X175828000Y-106697000D01*
X175828000Y-106697000D02*
X140148000Y-106697000D01*
X140148000Y-106697000D02*
X140148000Y-111997000D01*
X140148000Y-111997000D02*
X175828000Y-111997000D01*
X175828000Y-111997000D02*
X175828000Y-110347000D01*
G04 #@! TO.C,Y1*
X135668000Y-98415000D02*
X123068000Y-98415000D01*
X123068000Y-98415000D02*
X123068000Y-103515000D01*
X123068000Y-103515000D02*
X135668000Y-103515000D01*
G04 #@! TO.C,Y2*
X154708000Y-100895000D02*
X153908000Y-100895000D01*
X154708000Y-98495000D02*
X154708000Y-100495000D01*
X153908000Y-98495000D02*
X154708000Y-98495000D01*
X151108000Y-98495000D02*
X152108000Y-98495000D01*
X151108000Y-100495000D02*
X151108000Y-98495000D01*
X152108000Y-100895000D02*
X151108000Y-100895000D01*
X152108000Y-100895000D02*
X152108000Y-101295000D01*
X150908000Y-98495000D02*
X150908000Y-100495000D01*
X154708000Y-100495000D02*
X154708000Y-100895000D01*
X151108000Y-100495000D02*
X151108000Y-100895000D01*
X150908000Y-100495000D02*
X150908000Y-100895000D01*
G04 #@! TO.C,C1*
X130257250Y-112967250D02*
X129469750Y-112967250D01*
X129863500Y-112573500D02*
X129863500Y-113361000D01*
X125670437Y-113601000D02*
X124606000Y-114665437D01*
X130361563Y-113601000D02*
X131426000Y-114665437D01*
X130361563Y-113601000D02*
X129076000Y-113601000D01*
X125670437Y-113601000D02*
X126956000Y-113601000D01*
X124606000Y-114665437D02*
X124606000Y-120421000D01*
X131426000Y-114665437D02*
X131426000Y-120421000D01*
X131426000Y-120421000D02*
X129076000Y-120421000D01*
X124606000Y-120421000D02*
X126956000Y-120421000D01*
G04 #@! TO.C,C2*
X138639250Y-112967250D02*
X137851750Y-112967250D01*
X138245500Y-112573500D02*
X138245500Y-113361000D01*
X134052437Y-113601000D02*
X132988000Y-114665437D01*
X138743563Y-113601000D02*
X139808000Y-114665437D01*
X138743563Y-113601000D02*
X137458000Y-113601000D01*
X134052437Y-113601000D02*
X135338000Y-113601000D01*
X132988000Y-114665437D02*
X132988000Y-120421000D01*
X139808000Y-114665437D02*
X139808000Y-120421000D01*
X139808000Y-120421000D02*
X137458000Y-120421000D01*
X132988000Y-120421000D02*
X135338000Y-120421000D01*
G04 #@! TO.C,RESET-EN*
X137146000Y-100172500D02*
X137146000Y-98172500D01*
X139946000Y-100172500D02*
X137146000Y-100172500D01*
X139946000Y-98172500D02*
X139946000Y-100172500D01*
X137146000Y-98172500D02*
X139946000Y-98172500D01*
D10*
G04 #@! TO.C,REF1*
X112037500Y-108545000D02*
G75*
G03X113462500Y-108470000I750000J-675000D01*
G01*
D14*
X112962500Y-109220000D02*
G75*
G03X112962500Y-109220000I-175000J0D01*
G01*
D10*
X113712500Y-106220000D02*
G75*
G03X113712500Y-106220000I-925000J0D01*
G01*
X113712500Y-112220000D02*
G75*
G03X113712500Y-112220000I-925000J0D01*
G01*
X112787500Y-111220000D02*
X112787500Y-110320000D01*
X112787500Y-109220000D02*
X112787500Y-107220000D01*
G04 #@! TO.C,G1*
D15*
X155047650Y-88061745D02*
X155333364Y-88061745D01*
X155190507Y-88561745D02*
X155190507Y-88061745D01*
X155500031Y-88561745D02*
X155500031Y-88061745D01*
X155666698Y-88418888D01*
X155833364Y-88061745D01*
X155833364Y-88561745D01*
G04 #@! TO.C,RESET*
D10*
X123642380Y-77525380D02*
X123166190Y-77858714D01*
X123642380Y-78096809D02*
X122642380Y-78096809D01*
X122642380Y-77715857D01*
X122690000Y-77620619D01*
X122737619Y-77573000D01*
X122832857Y-77525380D01*
X122975714Y-77525380D01*
X123070952Y-77573000D01*
X123118571Y-77620619D01*
X123166190Y-77715857D01*
X123166190Y-78096809D01*
X123118571Y-77096809D02*
X123118571Y-76763476D01*
X123642380Y-76620619D02*
X123642380Y-77096809D01*
X122642380Y-77096809D01*
X122642380Y-76620619D01*
X123594761Y-76239666D02*
X123642380Y-76096809D01*
X123642380Y-75858714D01*
X123594761Y-75763476D01*
X123547142Y-75715857D01*
X123451904Y-75668238D01*
X123356666Y-75668238D01*
X123261428Y-75715857D01*
X123213809Y-75763476D01*
X123166190Y-75858714D01*
X123118571Y-76049190D01*
X123070952Y-76144428D01*
X123023333Y-76192047D01*
X122928095Y-76239666D01*
X122832857Y-76239666D01*
X122737619Y-76192047D01*
X122690000Y-76144428D01*
X122642380Y-76049190D01*
X122642380Y-75811095D01*
X122690000Y-75668238D01*
X123118571Y-75239666D02*
X123118571Y-74906333D01*
X123642380Y-74763476D02*
X123642380Y-75239666D01*
X122642380Y-75239666D01*
X122642380Y-74763476D01*
X122642380Y-74477761D02*
X122642380Y-73906333D01*
X123642380Y-74192047D02*
X122642380Y-74192047D01*
G04 #@! TO.C,ON*
X170830952Y-88987380D02*
X171021428Y-88987380D01*
X171116666Y-89035000D01*
X171211904Y-89130238D01*
X171259523Y-89320714D01*
X171259523Y-89654047D01*
X171211904Y-89844523D01*
X171116666Y-89939761D01*
X171021428Y-89987380D01*
X170830952Y-89987380D01*
X170735714Y-89939761D01*
X170640476Y-89844523D01*
X170592857Y-89654047D01*
X170592857Y-89320714D01*
X170640476Y-89130238D01*
X170735714Y-89035000D01*
X170830952Y-88987380D01*
X171688095Y-89987380D02*
X171688095Y-88987380D01*
X172259523Y-89987380D01*
X172259523Y-88987380D01*
G04 #@! TO.C,TX*
X140335095Y-90003380D02*
X140906523Y-90003380D01*
X140620809Y-91003380D02*
X140620809Y-90003380D01*
X141144619Y-90003380D02*
X141811285Y-91003380D01*
X141811285Y-90003380D02*
X141144619Y-91003380D01*
G04 #@! TO.C,RX*
X140930333Y-93035380D02*
X140597000Y-92559190D01*
X140358904Y-93035380D02*
X140358904Y-92035380D01*
X140739857Y-92035380D01*
X140835095Y-92083000D01*
X140882714Y-92130619D01*
X140930333Y-92225857D01*
X140930333Y-92368714D01*
X140882714Y-92463952D01*
X140835095Y-92511571D01*
X140739857Y-92559190D01*
X140358904Y-92559190D01*
X141263666Y-92035380D02*
X141930333Y-93035380D01*
X141930333Y-92035380D02*
X141263666Y-93035380D01*
G04 #@! TO.C,L*
X140898523Y-84653380D02*
X140422333Y-84653380D01*
X140422333Y-83653380D01*
G04 #@! TO.C,ICSP*
X172918380Y-101933190D02*
X171918380Y-101933190D01*
X172823142Y-100885571D02*
X172870761Y-100933190D01*
X172918380Y-101076047D01*
X172918380Y-101171285D01*
X172870761Y-101314142D01*
X172775523Y-101409380D01*
X172680285Y-101457000D01*
X172489809Y-101504619D01*
X172346952Y-101504619D01*
X172156476Y-101457000D01*
X172061238Y-101409380D01*
X171966000Y-101314142D01*
X171918380Y-101171285D01*
X171918380Y-101076047D01*
X171966000Y-100933190D01*
X172013619Y-100885571D01*
X172870761Y-100504619D02*
X172918380Y-100361761D01*
X172918380Y-100123666D01*
X172870761Y-100028428D01*
X172823142Y-99980809D01*
X172727904Y-99933190D01*
X172632666Y-99933190D01*
X172537428Y-99980809D01*
X172489809Y-100028428D01*
X172442190Y-100123666D01*
X172394571Y-100314142D01*
X172346952Y-100409380D01*
X172299333Y-100457000D01*
X172204095Y-100504619D01*
X172108857Y-100504619D01*
X172013619Y-100457000D01*
X171966000Y-100409380D01*
X171918380Y-100314142D01*
X171918380Y-100076047D01*
X171966000Y-99933190D01*
X172918380Y-99504619D02*
X171918380Y-99504619D01*
X171918380Y-99123666D01*
X171966000Y-99028428D01*
X172013619Y-98980809D01*
X172108857Y-98933190D01*
X172251714Y-98933190D01*
X172346952Y-98980809D01*
X172394571Y-99028428D01*
X172442190Y-99123666D01*
X172442190Y-99504619D01*
G04 #@! TO.C,RESET-EN*
X141422380Y-101980619D02*
X140946190Y-102313952D01*
X141422380Y-102552047D02*
X140422380Y-102552047D01*
X140422380Y-102171095D01*
X140470000Y-102075857D01*
X140517619Y-102028238D01*
X140612857Y-101980619D01*
X140755714Y-101980619D01*
X140850952Y-102028238D01*
X140898571Y-102075857D01*
X140946190Y-102171095D01*
X140946190Y-102552047D01*
X140898571Y-101552047D02*
X140898571Y-101218714D01*
X141422380Y-101075857D02*
X141422380Y-101552047D01*
X140422380Y-101552047D01*
X140422380Y-101075857D01*
X141374761Y-100694904D02*
X141422380Y-100552047D01*
X141422380Y-100313952D01*
X141374761Y-100218714D01*
X141327142Y-100171095D01*
X141231904Y-100123476D01*
X141136666Y-100123476D01*
X141041428Y-100171095D01*
X140993809Y-100218714D01*
X140946190Y-100313952D01*
X140898571Y-100504428D01*
X140850952Y-100599666D01*
X140803333Y-100647285D01*
X140708095Y-100694904D01*
X140612857Y-100694904D01*
X140517619Y-100647285D01*
X140470000Y-100599666D01*
X140422380Y-100504428D01*
X140422380Y-100266333D01*
X140470000Y-100123476D01*
X140898571Y-99694904D02*
X140898571Y-99361571D01*
X141422380Y-99218714D02*
X141422380Y-99694904D01*
X140422380Y-99694904D01*
X140422380Y-99218714D01*
X140422380Y-98933000D02*
X140422380Y-98361571D01*
X141422380Y-98647285D02*
X140422380Y-98647285D01*
X141041428Y-98028238D02*
X141041428Y-97266333D01*
X140898571Y-96790142D02*
X140898571Y-96456809D01*
X141422380Y-96313952D02*
X141422380Y-96790142D01*
X140422380Y-96790142D01*
X140422380Y-96313952D01*
X141422380Y-95885380D02*
X140422380Y-95885380D01*
X141422380Y-95313952D01*
X140422380Y-95313952D01*
G04 #@! TD*
M02*
