G04 #@! TF.GenerationSoftware,KiCad,Pcbnew,5.0.2-bee76a0~70~ubuntu18.04.1*
G04 #@! TF.CreationDate,2018-12-20T19:54:29+08:00*
G04 #@! TF.ProjectId,arduino-uno,61726475-696e-46f2-9d75-6e6f2e6b6963,rev?*
G04 #@! TF.SameCoordinates,Original*
G04 #@! TF.FileFunction,Paste,Top*
G04 #@! TF.FilePolarity,Positive*
%FSLAX46Y46*%
G04 Gerber Fmt 4.6, Leading zero omitted, Abs format (unit mm)*
G04 Created by KiCad (PCBNEW 5.0.2-bee76a0~70~ubuntu18.04.1) date 2018年12月20日 星期四 19时54分29秒*
%MOMM*%
%LPD*%
G01*
G04 APERTURE LIST*
%ADD10R,1.550000X1.300000*%
%ADD11C,0.100000*%
%ADD12C,0.875000*%
%ADD13R,2.500000X1.800000*%
%ADD14C,1.250000*%
%ADD15C,1.125000*%
%ADD16C,0.975000*%
%ADD17R,0.900000X0.800000*%
%ADD18R,0.800000X0.500000*%
%ADD19R,0.800000X0.400000*%
%ADD20R,2.000000X3.800000*%
%ADD21R,2.000000X1.500000*%
%ADD22R,1.450000X0.450000*%
%ADD23R,1.060000X0.650000*%
%ADD24C,0.830000*%
%ADD25C,0.250000*%
%ADD26R,4.500000X2.000000*%
%ADD27R,0.400000X1.900000*%
%ADD28C,1.600000*%
G04 APERTURE END LIST*
D10*
G04 #@! TO.C,RESET*
X113368000Y-74331000D03*
X113368000Y-78831000D03*
X121328000Y-78831000D03*
X121328000Y-74331000D03*
G04 #@! TD*
D11*
G04 #@! TO.C,C3*
G36*
X155179691Y-114715053D02*
X155200926Y-114718203D01*
X155221750Y-114723419D01*
X155241962Y-114730651D01*
X155261368Y-114739830D01*
X155279781Y-114750866D01*
X155297024Y-114763654D01*
X155312930Y-114778070D01*
X155327346Y-114793976D01*
X155340134Y-114811219D01*
X155351170Y-114829632D01*
X155360349Y-114849038D01*
X155367581Y-114869250D01*
X155372797Y-114890074D01*
X155375947Y-114911309D01*
X155377000Y-114932750D01*
X155377000Y-115445250D01*
X155375947Y-115466691D01*
X155372797Y-115487926D01*
X155367581Y-115508750D01*
X155360349Y-115528962D01*
X155351170Y-115548368D01*
X155340134Y-115566781D01*
X155327346Y-115584024D01*
X155312930Y-115599930D01*
X155297024Y-115614346D01*
X155279781Y-115627134D01*
X155261368Y-115638170D01*
X155241962Y-115647349D01*
X155221750Y-115654581D01*
X155200926Y-115659797D01*
X155179691Y-115662947D01*
X155158250Y-115664000D01*
X154720750Y-115664000D01*
X154699309Y-115662947D01*
X154678074Y-115659797D01*
X154657250Y-115654581D01*
X154637038Y-115647349D01*
X154617632Y-115638170D01*
X154599219Y-115627134D01*
X154581976Y-115614346D01*
X154566070Y-115599930D01*
X154551654Y-115584024D01*
X154538866Y-115566781D01*
X154527830Y-115548368D01*
X154518651Y-115528962D01*
X154511419Y-115508750D01*
X154506203Y-115487926D01*
X154503053Y-115466691D01*
X154502000Y-115445250D01*
X154502000Y-114932750D01*
X154503053Y-114911309D01*
X154506203Y-114890074D01*
X154511419Y-114869250D01*
X154518651Y-114849038D01*
X154527830Y-114829632D01*
X154538866Y-114811219D01*
X154551654Y-114793976D01*
X154566070Y-114778070D01*
X154581976Y-114763654D01*
X154599219Y-114750866D01*
X154617632Y-114739830D01*
X154637038Y-114730651D01*
X154657250Y-114723419D01*
X154678074Y-114718203D01*
X154699309Y-114715053D01*
X154720750Y-114714000D01*
X155158250Y-114714000D01*
X155179691Y-114715053D01*
X155179691Y-114715053D01*
G37*
D12*
X154939500Y-115189000D03*
D11*
G36*
X153604691Y-114715053D02*
X153625926Y-114718203D01*
X153646750Y-114723419D01*
X153666962Y-114730651D01*
X153686368Y-114739830D01*
X153704781Y-114750866D01*
X153722024Y-114763654D01*
X153737930Y-114778070D01*
X153752346Y-114793976D01*
X153765134Y-114811219D01*
X153776170Y-114829632D01*
X153785349Y-114849038D01*
X153792581Y-114869250D01*
X153797797Y-114890074D01*
X153800947Y-114911309D01*
X153802000Y-114932750D01*
X153802000Y-115445250D01*
X153800947Y-115466691D01*
X153797797Y-115487926D01*
X153792581Y-115508750D01*
X153785349Y-115528962D01*
X153776170Y-115548368D01*
X153765134Y-115566781D01*
X153752346Y-115584024D01*
X153737930Y-115599930D01*
X153722024Y-115614346D01*
X153704781Y-115627134D01*
X153686368Y-115638170D01*
X153666962Y-115647349D01*
X153646750Y-115654581D01*
X153625926Y-115659797D01*
X153604691Y-115662947D01*
X153583250Y-115664000D01*
X153145750Y-115664000D01*
X153124309Y-115662947D01*
X153103074Y-115659797D01*
X153082250Y-115654581D01*
X153062038Y-115647349D01*
X153042632Y-115638170D01*
X153024219Y-115627134D01*
X153006976Y-115614346D01*
X152991070Y-115599930D01*
X152976654Y-115584024D01*
X152963866Y-115566781D01*
X152952830Y-115548368D01*
X152943651Y-115528962D01*
X152936419Y-115508750D01*
X152931203Y-115487926D01*
X152928053Y-115466691D01*
X152927000Y-115445250D01*
X152927000Y-114932750D01*
X152928053Y-114911309D01*
X152931203Y-114890074D01*
X152936419Y-114869250D01*
X152943651Y-114849038D01*
X152952830Y-114829632D01*
X152963866Y-114811219D01*
X152976654Y-114793976D01*
X152991070Y-114778070D01*
X153006976Y-114763654D01*
X153024219Y-114750866D01*
X153042632Y-114739830D01*
X153062038Y-114730651D01*
X153082250Y-114723419D01*
X153103074Y-114718203D01*
X153124309Y-114715053D01*
X153145750Y-114714000D01*
X153583250Y-114714000D01*
X153604691Y-114715053D01*
X153604691Y-114715053D01*
G37*
D12*
X153364500Y-115189000D03*
G04 #@! TD*
D11*
G04 #@! TO.C,C4*
G36*
X128293691Y-109139053D02*
X128314926Y-109142203D01*
X128335750Y-109147419D01*
X128355962Y-109154651D01*
X128375368Y-109163830D01*
X128393781Y-109174866D01*
X128411024Y-109187654D01*
X128426930Y-109202070D01*
X128441346Y-109217976D01*
X128454134Y-109235219D01*
X128465170Y-109253632D01*
X128474349Y-109273038D01*
X128481581Y-109293250D01*
X128486797Y-109314074D01*
X128489947Y-109335309D01*
X128491000Y-109356750D01*
X128491000Y-109794250D01*
X128489947Y-109815691D01*
X128486797Y-109836926D01*
X128481581Y-109857750D01*
X128474349Y-109877962D01*
X128465170Y-109897368D01*
X128454134Y-109915781D01*
X128441346Y-109933024D01*
X128426930Y-109948930D01*
X128411024Y-109963346D01*
X128393781Y-109976134D01*
X128375368Y-109987170D01*
X128355962Y-109996349D01*
X128335750Y-110003581D01*
X128314926Y-110008797D01*
X128293691Y-110011947D01*
X128272250Y-110013000D01*
X127759750Y-110013000D01*
X127738309Y-110011947D01*
X127717074Y-110008797D01*
X127696250Y-110003581D01*
X127676038Y-109996349D01*
X127656632Y-109987170D01*
X127638219Y-109976134D01*
X127620976Y-109963346D01*
X127605070Y-109948930D01*
X127590654Y-109933024D01*
X127577866Y-109915781D01*
X127566830Y-109897368D01*
X127557651Y-109877962D01*
X127550419Y-109857750D01*
X127545203Y-109836926D01*
X127542053Y-109815691D01*
X127541000Y-109794250D01*
X127541000Y-109356750D01*
X127542053Y-109335309D01*
X127545203Y-109314074D01*
X127550419Y-109293250D01*
X127557651Y-109273038D01*
X127566830Y-109253632D01*
X127577866Y-109235219D01*
X127590654Y-109217976D01*
X127605070Y-109202070D01*
X127620976Y-109187654D01*
X127638219Y-109174866D01*
X127656632Y-109163830D01*
X127676038Y-109154651D01*
X127696250Y-109147419D01*
X127717074Y-109142203D01*
X127738309Y-109139053D01*
X127759750Y-109138000D01*
X128272250Y-109138000D01*
X128293691Y-109139053D01*
X128293691Y-109139053D01*
G37*
D12*
X128016000Y-109575500D03*
D11*
G36*
X128293691Y-110714053D02*
X128314926Y-110717203D01*
X128335750Y-110722419D01*
X128355962Y-110729651D01*
X128375368Y-110738830D01*
X128393781Y-110749866D01*
X128411024Y-110762654D01*
X128426930Y-110777070D01*
X128441346Y-110792976D01*
X128454134Y-110810219D01*
X128465170Y-110828632D01*
X128474349Y-110848038D01*
X128481581Y-110868250D01*
X128486797Y-110889074D01*
X128489947Y-110910309D01*
X128491000Y-110931750D01*
X128491000Y-111369250D01*
X128489947Y-111390691D01*
X128486797Y-111411926D01*
X128481581Y-111432750D01*
X128474349Y-111452962D01*
X128465170Y-111472368D01*
X128454134Y-111490781D01*
X128441346Y-111508024D01*
X128426930Y-111523930D01*
X128411024Y-111538346D01*
X128393781Y-111551134D01*
X128375368Y-111562170D01*
X128355962Y-111571349D01*
X128335750Y-111578581D01*
X128314926Y-111583797D01*
X128293691Y-111586947D01*
X128272250Y-111588000D01*
X127759750Y-111588000D01*
X127738309Y-111586947D01*
X127717074Y-111583797D01*
X127696250Y-111578581D01*
X127676038Y-111571349D01*
X127656632Y-111562170D01*
X127638219Y-111551134D01*
X127620976Y-111538346D01*
X127605070Y-111523930D01*
X127590654Y-111508024D01*
X127577866Y-111490781D01*
X127566830Y-111472368D01*
X127557651Y-111452962D01*
X127550419Y-111432750D01*
X127545203Y-111411926D01*
X127542053Y-111390691D01*
X127541000Y-111369250D01*
X127541000Y-110931750D01*
X127542053Y-110910309D01*
X127545203Y-110889074D01*
X127550419Y-110868250D01*
X127557651Y-110848038D01*
X127566830Y-110828632D01*
X127577866Y-110810219D01*
X127590654Y-110792976D01*
X127605070Y-110777070D01*
X127620976Y-110762654D01*
X127638219Y-110749866D01*
X127656632Y-110738830D01*
X127676038Y-110729651D01*
X127696250Y-110722419D01*
X127717074Y-110717203D01*
X127738309Y-110714053D01*
X127759750Y-110713000D01*
X128272250Y-110713000D01*
X128293691Y-110714053D01*
X128293691Y-110714053D01*
G37*
D12*
X128016000Y-111150500D03*
G04 #@! TD*
D11*
G04 #@! TO.C,C5*
G36*
X136675691Y-110841053D02*
X136696926Y-110844203D01*
X136717750Y-110849419D01*
X136737962Y-110856651D01*
X136757368Y-110865830D01*
X136775781Y-110876866D01*
X136793024Y-110889654D01*
X136808930Y-110904070D01*
X136823346Y-110919976D01*
X136836134Y-110937219D01*
X136847170Y-110955632D01*
X136856349Y-110975038D01*
X136863581Y-110995250D01*
X136868797Y-111016074D01*
X136871947Y-111037309D01*
X136873000Y-111058750D01*
X136873000Y-111496250D01*
X136871947Y-111517691D01*
X136868797Y-111538926D01*
X136863581Y-111559750D01*
X136856349Y-111579962D01*
X136847170Y-111599368D01*
X136836134Y-111617781D01*
X136823346Y-111635024D01*
X136808930Y-111650930D01*
X136793024Y-111665346D01*
X136775781Y-111678134D01*
X136757368Y-111689170D01*
X136737962Y-111698349D01*
X136717750Y-111705581D01*
X136696926Y-111710797D01*
X136675691Y-111713947D01*
X136654250Y-111715000D01*
X136141750Y-111715000D01*
X136120309Y-111713947D01*
X136099074Y-111710797D01*
X136078250Y-111705581D01*
X136058038Y-111698349D01*
X136038632Y-111689170D01*
X136020219Y-111678134D01*
X136002976Y-111665346D01*
X135987070Y-111650930D01*
X135972654Y-111635024D01*
X135959866Y-111617781D01*
X135948830Y-111599368D01*
X135939651Y-111579962D01*
X135932419Y-111559750D01*
X135927203Y-111538926D01*
X135924053Y-111517691D01*
X135923000Y-111496250D01*
X135923000Y-111058750D01*
X135924053Y-111037309D01*
X135927203Y-111016074D01*
X135932419Y-110995250D01*
X135939651Y-110975038D01*
X135948830Y-110955632D01*
X135959866Y-110937219D01*
X135972654Y-110919976D01*
X135987070Y-110904070D01*
X136002976Y-110889654D01*
X136020219Y-110876866D01*
X136038632Y-110865830D01*
X136058038Y-110856651D01*
X136078250Y-110849419D01*
X136099074Y-110844203D01*
X136120309Y-110841053D01*
X136141750Y-110840000D01*
X136654250Y-110840000D01*
X136675691Y-110841053D01*
X136675691Y-110841053D01*
G37*
D12*
X136398000Y-111277500D03*
D11*
G36*
X136675691Y-109266053D02*
X136696926Y-109269203D01*
X136717750Y-109274419D01*
X136737962Y-109281651D01*
X136757368Y-109290830D01*
X136775781Y-109301866D01*
X136793024Y-109314654D01*
X136808930Y-109329070D01*
X136823346Y-109344976D01*
X136836134Y-109362219D01*
X136847170Y-109380632D01*
X136856349Y-109400038D01*
X136863581Y-109420250D01*
X136868797Y-109441074D01*
X136871947Y-109462309D01*
X136873000Y-109483750D01*
X136873000Y-109921250D01*
X136871947Y-109942691D01*
X136868797Y-109963926D01*
X136863581Y-109984750D01*
X136856349Y-110004962D01*
X136847170Y-110024368D01*
X136836134Y-110042781D01*
X136823346Y-110060024D01*
X136808930Y-110075930D01*
X136793024Y-110090346D01*
X136775781Y-110103134D01*
X136757368Y-110114170D01*
X136737962Y-110123349D01*
X136717750Y-110130581D01*
X136696926Y-110135797D01*
X136675691Y-110138947D01*
X136654250Y-110140000D01*
X136141750Y-110140000D01*
X136120309Y-110138947D01*
X136099074Y-110135797D01*
X136078250Y-110130581D01*
X136058038Y-110123349D01*
X136038632Y-110114170D01*
X136020219Y-110103134D01*
X136002976Y-110090346D01*
X135987070Y-110075930D01*
X135972654Y-110060024D01*
X135959866Y-110042781D01*
X135948830Y-110024368D01*
X135939651Y-110004962D01*
X135932419Y-109984750D01*
X135927203Y-109963926D01*
X135924053Y-109942691D01*
X135923000Y-109921250D01*
X135923000Y-109483750D01*
X135924053Y-109462309D01*
X135927203Y-109441074D01*
X135932419Y-109420250D01*
X135939651Y-109400038D01*
X135948830Y-109380632D01*
X135959866Y-109362219D01*
X135972654Y-109344976D01*
X135987070Y-109329070D01*
X136002976Y-109314654D01*
X136020219Y-109301866D01*
X136038632Y-109290830D01*
X136058038Y-109281651D01*
X136078250Y-109274419D01*
X136099074Y-109269203D01*
X136120309Y-109266053D01*
X136141750Y-109265000D01*
X136654250Y-109265000D01*
X136675691Y-109266053D01*
X136675691Y-109266053D01*
G37*
D12*
X136398000Y-109702500D03*
G04 #@! TD*
D11*
G04 #@! TO.C,C6*
G36*
X122870691Y-96935053D02*
X122891926Y-96938203D01*
X122912750Y-96943419D01*
X122932962Y-96950651D01*
X122952368Y-96959830D01*
X122970781Y-96970866D01*
X122988024Y-96983654D01*
X123003930Y-96998070D01*
X123018346Y-97013976D01*
X123031134Y-97031219D01*
X123042170Y-97049632D01*
X123051349Y-97069038D01*
X123058581Y-97089250D01*
X123063797Y-97110074D01*
X123066947Y-97131309D01*
X123068000Y-97152750D01*
X123068000Y-97665250D01*
X123066947Y-97686691D01*
X123063797Y-97707926D01*
X123058581Y-97728750D01*
X123051349Y-97748962D01*
X123042170Y-97768368D01*
X123031134Y-97786781D01*
X123018346Y-97804024D01*
X123003930Y-97819930D01*
X122988024Y-97834346D01*
X122970781Y-97847134D01*
X122952368Y-97858170D01*
X122932962Y-97867349D01*
X122912750Y-97874581D01*
X122891926Y-97879797D01*
X122870691Y-97882947D01*
X122849250Y-97884000D01*
X122411750Y-97884000D01*
X122390309Y-97882947D01*
X122369074Y-97879797D01*
X122348250Y-97874581D01*
X122328038Y-97867349D01*
X122308632Y-97858170D01*
X122290219Y-97847134D01*
X122272976Y-97834346D01*
X122257070Y-97819930D01*
X122242654Y-97804024D01*
X122229866Y-97786781D01*
X122218830Y-97768368D01*
X122209651Y-97748962D01*
X122202419Y-97728750D01*
X122197203Y-97707926D01*
X122194053Y-97686691D01*
X122193000Y-97665250D01*
X122193000Y-97152750D01*
X122194053Y-97131309D01*
X122197203Y-97110074D01*
X122202419Y-97089250D01*
X122209651Y-97069038D01*
X122218830Y-97049632D01*
X122229866Y-97031219D01*
X122242654Y-97013976D01*
X122257070Y-96998070D01*
X122272976Y-96983654D01*
X122290219Y-96970866D01*
X122308632Y-96959830D01*
X122328038Y-96950651D01*
X122348250Y-96943419D01*
X122369074Y-96938203D01*
X122390309Y-96935053D01*
X122411750Y-96934000D01*
X122849250Y-96934000D01*
X122870691Y-96935053D01*
X122870691Y-96935053D01*
G37*
D12*
X122630500Y-97409000D03*
D11*
G36*
X124445691Y-96935053D02*
X124466926Y-96938203D01*
X124487750Y-96943419D01*
X124507962Y-96950651D01*
X124527368Y-96959830D01*
X124545781Y-96970866D01*
X124563024Y-96983654D01*
X124578930Y-96998070D01*
X124593346Y-97013976D01*
X124606134Y-97031219D01*
X124617170Y-97049632D01*
X124626349Y-97069038D01*
X124633581Y-97089250D01*
X124638797Y-97110074D01*
X124641947Y-97131309D01*
X124643000Y-97152750D01*
X124643000Y-97665250D01*
X124641947Y-97686691D01*
X124638797Y-97707926D01*
X124633581Y-97728750D01*
X124626349Y-97748962D01*
X124617170Y-97768368D01*
X124606134Y-97786781D01*
X124593346Y-97804024D01*
X124578930Y-97819930D01*
X124563024Y-97834346D01*
X124545781Y-97847134D01*
X124527368Y-97858170D01*
X124507962Y-97867349D01*
X124487750Y-97874581D01*
X124466926Y-97879797D01*
X124445691Y-97882947D01*
X124424250Y-97884000D01*
X123986750Y-97884000D01*
X123965309Y-97882947D01*
X123944074Y-97879797D01*
X123923250Y-97874581D01*
X123903038Y-97867349D01*
X123883632Y-97858170D01*
X123865219Y-97847134D01*
X123847976Y-97834346D01*
X123832070Y-97819930D01*
X123817654Y-97804024D01*
X123804866Y-97786781D01*
X123793830Y-97768368D01*
X123784651Y-97748962D01*
X123777419Y-97728750D01*
X123772203Y-97707926D01*
X123769053Y-97686691D01*
X123768000Y-97665250D01*
X123768000Y-97152750D01*
X123769053Y-97131309D01*
X123772203Y-97110074D01*
X123777419Y-97089250D01*
X123784651Y-97069038D01*
X123793830Y-97049632D01*
X123804866Y-97031219D01*
X123817654Y-97013976D01*
X123832070Y-96998070D01*
X123847976Y-96983654D01*
X123865219Y-96970866D01*
X123883632Y-96959830D01*
X123903038Y-96950651D01*
X123923250Y-96943419D01*
X123944074Y-96938203D01*
X123965309Y-96935053D01*
X123986750Y-96934000D01*
X124424250Y-96934000D01*
X124445691Y-96935053D01*
X124445691Y-96935053D01*
G37*
D12*
X124205500Y-97409000D03*
G04 #@! TD*
D11*
G04 #@! TO.C,C7*
G36*
X137998691Y-96178053D02*
X138019926Y-96181203D01*
X138040750Y-96186419D01*
X138060962Y-96193651D01*
X138080368Y-96202830D01*
X138098781Y-96213866D01*
X138116024Y-96226654D01*
X138131930Y-96241070D01*
X138146346Y-96256976D01*
X138159134Y-96274219D01*
X138170170Y-96292632D01*
X138179349Y-96312038D01*
X138186581Y-96332250D01*
X138191797Y-96353074D01*
X138194947Y-96374309D01*
X138196000Y-96395750D01*
X138196000Y-96908250D01*
X138194947Y-96929691D01*
X138191797Y-96950926D01*
X138186581Y-96971750D01*
X138179349Y-96991962D01*
X138170170Y-97011368D01*
X138159134Y-97029781D01*
X138146346Y-97047024D01*
X138131930Y-97062930D01*
X138116024Y-97077346D01*
X138098781Y-97090134D01*
X138080368Y-97101170D01*
X138060962Y-97110349D01*
X138040750Y-97117581D01*
X138019926Y-97122797D01*
X137998691Y-97125947D01*
X137977250Y-97127000D01*
X137539750Y-97127000D01*
X137518309Y-97125947D01*
X137497074Y-97122797D01*
X137476250Y-97117581D01*
X137456038Y-97110349D01*
X137436632Y-97101170D01*
X137418219Y-97090134D01*
X137400976Y-97077346D01*
X137385070Y-97062930D01*
X137370654Y-97047024D01*
X137357866Y-97029781D01*
X137346830Y-97011368D01*
X137337651Y-96991962D01*
X137330419Y-96971750D01*
X137325203Y-96950926D01*
X137322053Y-96929691D01*
X137321000Y-96908250D01*
X137321000Y-96395750D01*
X137322053Y-96374309D01*
X137325203Y-96353074D01*
X137330419Y-96332250D01*
X137337651Y-96312038D01*
X137346830Y-96292632D01*
X137357866Y-96274219D01*
X137370654Y-96256976D01*
X137385070Y-96241070D01*
X137400976Y-96226654D01*
X137418219Y-96213866D01*
X137436632Y-96202830D01*
X137456038Y-96193651D01*
X137476250Y-96186419D01*
X137497074Y-96181203D01*
X137518309Y-96178053D01*
X137539750Y-96177000D01*
X137977250Y-96177000D01*
X137998691Y-96178053D01*
X137998691Y-96178053D01*
G37*
D12*
X137758500Y-96652000D03*
D11*
G36*
X139573691Y-96178053D02*
X139594926Y-96181203D01*
X139615750Y-96186419D01*
X139635962Y-96193651D01*
X139655368Y-96202830D01*
X139673781Y-96213866D01*
X139691024Y-96226654D01*
X139706930Y-96241070D01*
X139721346Y-96256976D01*
X139734134Y-96274219D01*
X139745170Y-96292632D01*
X139754349Y-96312038D01*
X139761581Y-96332250D01*
X139766797Y-96353074D01*
X139769947Y-96374309D01*
X139771000Y-96395750D01*
X139771000Y-96908250D01*
X139769947Y-96929691D01*
X139766797Y-96950926D01*
X139761581Y-96971750D01*
X139754349Y-96991962D01*
X139745170Y-97011368D01*
X139734134Y-97029781D01*
X139721346Y-97047024D01*
X139706930Y-97062930D01*
X139691024Y-97077346D01*
X139673781Y-97090134D01*
X139655368Y-97101170D01*
X139635962Y-97110349D01*
X139615750Y-97117581D01*
X139594926Y-97122797D01*
X139573691Y-97125947D01*
X139552250Y-97127000D01*
X139114750Y-97127000D01*
X139093309Y-97125947D01*
X139072074Y-97122797D01*
X139051250Y-97117581D01*
X139031038Y-97110349D01*
X139011632Y-97101170D01*
X138993219Y-97090134D01*
X138975976Y-97077346D01*
X138960070Y-97062930D01*
X138945654Y-97047024D01*
X138932866Y-97029781D01*
X138921830Y-97011368D01*
X138912651Y-96991962D01*
X138905419Y-96971750D01*
X138900203Y-96950926D01*
X138897053Y-96929691D01*
X138896000Y-96908250D01*
X138896000Y-96395750D01*
X138897053Y-96374309D01*
X138900203Y-96353074D01*
X138905419Y-96332250D01*
X138912651Y-96312038D01*
X138921830Y-96292632D01*
X138932866Y-96274219D01*
X138945654Y-96256976D01*
X138960070Y-96241070D01*
X138975976Y-96226654D01*
X138993219Y-96213866D01*
X139011632Y-96202830D01*
X139031038Y-96193651D01*
X139051250Y-96186419D01*
X139072074Y-96181203D01*
X139093309Y-96178053D01*
X139114750Y-96177000D01*
X139552250Y-96177000D01*
X139573691Y-96178053D01*
X139573691Y-96178053D01*
G37*
D12*
X139333500Y-96652000D03*
G04 #@! TD*
D11*
G04 #@! TO.C,C8*
G36*
X124445691Y-94903053D02*
X124466926Y-94906203D01*
X124487750Y-94911419D01*
X124507962Y-94918651D01*
X124527368Y-94927830D01*
X124545781Y-94938866D01*
X124563024Y-94951654D01*
X124578930Y-94966070D01*
X124593346Y-94981976D01*
X124606134Y-94999219D01*
X124617170Y-95017632D01*
X124626349Y-95037038D01*
X124633581Y-95057250D01*
X124638797Y-95078074D01*
X124641947Y-95099309D01*
X124643000Y-95120750D01*
X124643000Y-95633250D01*
X124641947Y-95654691D01*
X124638797Y-95675926D01*
X124633581Y-95696750D01*
X124626349Y-95716962D01*
X124617170Y-95736368D01*
X124606134Y-95754781D01*
X124593346Y-95772024D01*
X124578930Y-95787930D01*
X124563024Y-95802346D01*
X124545781Y-95815134D01*
X124527368Y-95826170D01*
X124507962Y-95835349D01*
X124487750Y-95842581D01*
X124466926Y-95847797D01*
X124445691Y-95850947D01*
X124424250Y-95852000D01*
X123986750Y-95852000D01*
X123965309Y-95850947D01*
X123944074Y-95847797D01*
X123923250Y-95842581D01*
X123903038Y-95835349D01*
X123883632Y-95826170D01*
X123865219Y-95815134D01*
X123847976Y-95802346D01*
X123832070Y-95787930D01*
X123817654Y-95772024D01*
X123804866Y-95754781D01*
X123793830Y-95736368D01*
X123784651Y-95716962D01*
X123777419Y-95696750D01*
X123772203Y-95675926D01*
X123769053Y-95654691D01*
X123768000Y-95633250D01*
X123768000Y-95120750D01*
X123769053Y-95099309D01*
X123772203Y-95078074D01*
X123777419Y-95057250D01*
X123784651Y-95037038D01*
X123793830Y-95017632D01*
X123804866Y-94999219D01*
X123817654Y-94981976D01*
X123832070Y-94966070D01*
X123847976Y-94951654D01*
X123865219Y-94938866D01*
X123883632Y-94927830D01*
X123903038Y-94918651D01*
X123923250Y-94911419D01*
X123944074Y-94906203D01*
X123965309Y-94903053D01*
X123986750Y-94902000D01*
X124424250Y-94902000D01*
X124445691Y-94903053D01*
X124445691Y-94903053D01*
G37*
D12*
X124205500Y-95377000D03*
D11*
G36*
X122870691Y-94903053D02*
X122891926Y-94906203D01*
X122912750Y-94911419D01*
X122932962Y-94918651D01*
X122952368Y-94927830D01*
X122970781Y-94938866D01*
X122988024Y-94951654D01*
X123003930Y-94966070D01*
X123018346Y-94981976D01*
X123031134Y-94999219D01*
X123042170Y-95017632D01*
X123051349Y-95037038D01*
X123058581Y-95057250D01*
X123063797Y-95078074D01*
X123066947Y-95099309D01*
X123068000Y-95120750D01*
X123068000Y-95633250D01*
X123066947Y-95654691D01*
X123063797Y-95675926D01*
X123058581Y-95696750D01*
X123051349Y-95716962D01*
X123042170Y-95736368D01*
X123031134Y-95754781D01*
X123018346Y-95772024D01*
X123003930Y-95787930D01*
X122988024Y-95802346D01*
X122970781Y-95815134D01*
X122952368Y-95826170D01*
X122932962Y-95835349D01*
X122912750Y-95842581D01*
X122891926Y-95847797D01*
X122870691Y-95850947D01*
X122849250Y-95852000D01*
X122411750Y-95852000D01*
X122390309Y-95850947D01*
X122369074Y-95847797D01*
X122348250Y-95842581D01*
X122328038Y-95835349D01*
X122308632Y-95826170D01*
X122290219Y-95815134D01*
X122272976Y-95802346D01*
X122257070Y-95787930D01*
X122242654Y-95772024D01*
X122229866Y-95754781D01*
X122218830Y-95736368D01*
X122209651Y-95716962D01*
X122202419Y-95696750D01*
X122197203Y-95675926D01*
X122194053Y-95654691D01*
X122193000Y-95633250D01*
X122193000Y-95120750D01*
X122194053Y-95099309D01*
X122197203Y-95078074D01*
X122202419Y-95057250D01*
X122209651Y-95037038D01*
X122218830Y-95017632D01*
X122229866Y-94999219D01*
X122242654Y-94981976D01*
X122257070Y-94966070D01*
X122272976Y-94951654D01*
X122290219Y-94938866D01*
X122308632Y-94927830D01*
X122328038Y-94918651D01*
X122348250Y-94911419D01*
X122369074Y-94906203D01*
X122390309Y-94903053D01*
X122411750Y-94902000D01*
X122849250Y-94902000D01*
X122870691Y-94903053D01*
X122870691Y-94903053D01*
G37*
D12*
X122630500Y-95377000D03*
G04 #@! TD*
D11*
G04 #@! TO.C,C9*
G36*
X137998691Y-81695053D02*
X138019926Y-81698203D01*
X138040750Y-81703419D01*
X138060962Y-81710651D01*
X138080368Y-81719830D01*
X138098781Y-81730866D01*
X138116024Y-81743654D01*
X138131930Y-81758070D01*
X138146346Y-81773976D01*
X138159134Y-81791219D01*
X138170170Y-81809632D01*
X138179349Y-81829038D01*
X138186581Y-81849250D01*
X138191797Y-81870074D01*
X138194947Y-81891309D01*
X138196000Y-81912750D01*
X138196000Y-82425250D01*
X138194947Y-82446691D01*
X138191797Y-82467926D01*
X138186581Y-82488750D01*
X138179349Y-82508962D01*
X138170170Y-82528368D01*
X138159134Y-82546781D01*
X138146346Y-82564024D01*
X138131930Y-82579930D01*
X138116024Y-82594346D01*
X138098781Y-82607134D01*
X138080368Y-82618170D01*
X138060962Y-82627349D01*
X138040750Y-82634581D01*
X138019926Y-82639797D01*
X137998691Y-82642947D01*
X137977250Y-82644000D01*
X137539750Y-82644000D01*
X137518309Y-82642947D01*
X137497074Y-82639797D01*
X137476250Y-82634581D01*
X137456038Y-82627349D01*
X137436632Y-82618170D01*
X137418219Y-82607134D01*
X137400976Y-82594346D01*
X137385070Y-82579930D01*
X137370654Y-82564024D01*
X137357866Y-82546781D01*
X137346830Y-82528368D01*
X137337651Y-82508962D01*
X137330419Y-82488750D01*
X137325203Y-82467926D01*
X137322053Y-82446691D01*
X137321000Y-82425250D01*
X137321000Y-81912750D01*
X137322053Y-81891309D01*
X137325203Y-81870074D01*
X137330419Y-81849250D01*
X137337651Y-81829038D01*
X137346830Y-81809632D01*
X137357866Y-81791219D01*
X137370654Y-81773976D01*
X137385070Y-81758070D01*
X137400976Y-81743654D01*
X137418219Y-81730866D01*
X137436632Y-81719830D01*
X137456038Y-81710651D01*
X137476250Y-81703419D01*
X137497074Y-81698203D01*
X137518309Y-81695053D01*
X137539750Y-81694000D01*
X137977250Y-81694000D01*
X137998691Y-81695053D01*
X137998691Y-81695053D01*
G37*
D12*
X137758500Y-82169000D03*
D11*
G36*
X139573691Y-81695053D02*
X139594926Y-81698203D01*
X139615750Y-81703419D01*
X139635962Y-81710651D01*
X139655368Y-81719830D01*
X139673781Y-81730866D01*
X139691024Y-81743654D01*
X139706930Y-81758070D01*
X139721346Y-81773976D01*
X139734134Y-81791219D01*
X139745170Y-81809632D01*
X139754349Y-81829038D01*
X139761581Y-81849250D01*
X139766797Y-81870074D01*
X139769947Y-81891309D01*
X139771000Y-81912750D01*
X139771000Y-82425250D01*
X139769947Y-82446691D01*
X139766797Y-82467926D01*
X139761581Y-82488750D01*
X139754349Y-82508962D01*
X139745170Y-82528368D01*
X139734134Y-82546781D01*
X139721346Y-82564024D01*
X139706930Y-82579930D01*
X139691024Y-82594346D01*
X139673781Y-82607134D01*
X139655368Y-82618170D01*
X139635962Y-82627349D01*
X139615750Y-82634581D01*
X139594926Y-82639797D01*
X139573691Y-82642947D01*
X139552250Y-82644000D01*
X139114750Y-82644000D01*
X139093309Y-82642947D01*
X139072074Y-82639797D01*
X139051250Y-82634581D01*
X139031038Y-82627349D01*
X139011632Y-82618170D01*
X138993219Y-82607134D01*
X138975976Y-82594346D01*
X138960070Y-82579930D01*
X138945654Y-82564024D01*
X138932866Y-82546781D01*
X138921830Y-82528368D01*
X138912651Y-82508962D01*
X138905419Y-82488750D01*
X138900203Y-82467926D01*
X138897053Y-82446691D01*
X138896000Y-82425250D01*
X138896000Y-81912750D01*
X138897053Y-81891309D01*
X138900203Y-81870074D01*
X138905419Y-81849250D01*
X138912651Y-81829038D01*
X138921830Y-81809632D01*
X138932866Y-81791219D01*
X138945654Y-81773976D01*
X138960070Y-81758070D01*
X138975976Y-81743654D01*
X138993219Y-81730866D01*
X139011632Y-81719830D01*
X139031038Y-81710651D01*
X139051250Y-81703419D01*
X139072074Y-81698203D01*
X139093309Y-81695053D01*
X139114750Y-81694000D01*
X139552250Y-81694000D01*
X139573691Y-81695053D01*
X139573691Y-81695053D01*
G37*
D12*
X139333500Y-82169000D03*
G04 #@! TD*
D11*
G04 #@! TO.C,C10*
G36*
X139573691Y-94177553D02*
X139594926Y-94180703D01*
X139615750Y-94185919D01*
X139635962Y-94193151D01*
X139655368Y-94202330D01*
X139673781Y-94213366D01*
X139691024Y-94226154D01*
X139706930Y-94240570D01*
X139721346Y-94256476D01*
X139734134Y-94273719D01*
X139745170Y-94292132D01*
X139754349Y-94311538D01*
X139761581Y-94331750D01*
X139766797Y-94352574D01*
X139769947Y-94373809D01*
X139771000Y-94395250D01*
X139771000Y-94907750D01*
X139769947Y-94929191D01*
X139766797Y-94950426D01*
X139761581Y-94971250D01*
X139754349Y-94991462D01*
X139745170Y-95010868D01*
X139734134Y-95029281D01*
X139721346Y-95046524D01*
X139706930Y-95062430D01*
X139691024Y-95076846D01*
X139673781Y-95089634D01*
X139655368Y-95100670D01*
X139635962Y-95109849D01*
X139615750Y-95117081D01*
X139594926Y-95122297D01*
X139573691Y-95125447D01*
X139552250Y-95126500D01*
X139114750Y-95126500D01*
X139093309Y-95125447D01*
X139072074Y-95122297D01*
X139051250Y-95117081D01*
X139031038Y-95109849D01*
X139011632Y-95100670D01*
X138993219Y-95089634D01*
X138975976Y-95076846D01*
X138960070Y-95062430D01*
X138945654Y-95046524D01*
X138932866Y-95029281D01*
X138921830Y-95010868D01*
X138912651Y-94991462D01*
X138905419Y-94971250D01*
X138900203Y-94950426D01*
X138897053Y-94929191D01*
X138896000Y-94907750D01*
X138896000Y-94395250D01*
X138897053Y-94373809D01*
X138900203Y-94352574D01*
X138905419Y-94331750D01*
X138912651Y-94311538D01*
X138921830Y-94292132D01*
X138932866Y-94273719D01*
X138945654Y-94256476D01*
X138960070Y-94240570D01*
X138975976Y-94226154D01*
X138993219Y-94213366D01*
X139011632Y-94202330D01*
X139031038Y-94193151D01*
X139051250Y-94185919D01*
X139072074Y-94180703D01*
X139093309Y-94177553D01*
X139114750Y-94176500D01*
X139552250Y-94176500D01*
X139573691Y-94177553D01*
X139573691Y-94177553D01*
G37*
D12*
X139333500Y-94651500D03*
D11*
G36*
X137998691Y-94177553D02*
X138019926Y-94180703D01*
X138040750Y-94185919D01*
X138060962Y-94193151D01*
X138080368Y-94202330D01*
X138098781Y-94213366D01*
X138116024Y-94226154D01*
X138131930Y-94240570D01*
X138146346Y-94256476D01*
X138159134Y-94273719D01*
X138170170Y-94292132D01*
X138179349Y-94311538D01*
X138186581Y-94331750D01*
X138191797Y-94352574D01*
X138194947Y-94373809D01*
X138196000Y-94395250D01*
X138196000Y-94907750D01*
X138194947Y-94929191D01*
X138191797Y-94950426D01*
X138186581Y-94971250D01*
X138179349Y-94991462D01*
X138170170Y-95010868D01*
X138159134Y-95029281D01*
X138146346Y-95046524D01*
X138131930Y-95062430D01*
X138116024Y-95076846D01*
X138098781Y-95089634D01*
X138080368Y-95100670D01*
X138060962Y-95109849D01*
X138040750Y-95117081D01*
X138019926Y-95122297D01*
X137998691Y-95125447D01*
X137977250Y-95126500D01*
X137539750Y-95126500D01*
X137518309Y-95125447D01*
X137497074Y-95122297D01*
X137476250Y-95117081D01*
X137456038Y-95109849D01*
X137436632Y-95100670D01*
X137418219Y-95089634D01*
X137400976Y-95076846D01*
X137385070Y-95062430D01*
X137370654Y-95046524D01*
X137357866Y-95029281D01*
X137346830Y-95010868D01*
X137337651Y-94991462D01*
X137330419Y-94971250D01*
X137325203Y-94950426D01*
X137322053Y-94929191D01*
X137321000Y-94907750D01*
X137321000Y-94395250D01*
X137322053Y-94373809D01*
X137325203Y-94352574D01*
X137330419Y-94331750D01*
X137337651Y-94311538D01*
X137346830Y-94292132D01*
X137357866Y-94273719D01*
X137370654Y-94256476D01*
X137385070Y-94240570D01*
X137400976Y-94226154D01*
X137418219Y-94213366D01*
X137436632Y-94202330D01*
X137456038Y-94193151D01*
X137476250Y-94185919D01*
X137497074Y-94180703D01*
X137518309Y-94177553D01*
X137539750Y-94176500D01*
X137977250Y-94176500D01*
X137998691Y-94177553D01*
X137998691Y-94177553D01*
G37*
D12*
X137758500Y-94651500D03*
G04 #@! TD*
D11*
G04 #@! TO.C,C11*
G36*
X124445691Y-84489053D02*
X124466926Y-84492203D01*
X124487750Y-84497419D01*
X124507962Y-84504651D01*
X124527368Y-84513830D01*
X124545781Y-84524866D01*
X124563024Y-84537654D01*
X124578930Y-84552070D01*
X124593346Y-84567976D01*
X124606134Y-84585219D01*
X124617170Y-84603632D01*
X124626349Y-84623038D01*
X124633581Y-84643250D01*
X124638797Y-84664074D01*
X124641947Y-84685309D01*
X124643000Y-84706750D01*
X124643000Y-85219250D01*
X124641947Y-85240691D01*
X124638797Y-85261926D01*
X124633581Y-85282750D01*
X124626349Y-85302962D01*
X124617170Y-85322368D01*
X124606134Y-85340781D01*
X124593346Y-85358024D01*
X124578930Y-85373930D01*
X124563024Y-85388346D01*
X124545781Y-85401134D01*
X124527368Y-85412170D01*
X124507962Y-85421349D01*
X124487750Y-85428581D01*
X124466926Y-85433797D01*
X124445691Y-85436947D01*
X124424250Y-85438000D01*
X123986750Y-85438000D01*
X123965309Y-85436947D01*
X123944074Y-85433797D01*
X123923250Y-85428581D01*
X123903038Y-85421349D01*
X123883632Y-85412170D01*
X123865219Y-85401134D01*
X123847976Y-85388346D01*
X123832070Y-85373930D01*
X123817654Y-85358024D01*
X123804866Y-85340781D01*
X123793830Y-85322368D01*
X123784651Y-85302962D01*
X123777419Y-85282750D01*
X123772203Y-85261926D01*
X123769053Y-85240691D01*
X123768000Y-85219250D01*
X123768000Y-84706750D01*
X123769053Y-84685309D01*
X123772203Y-84664074D01*
X123777419Y-84643250D01*
X123784651Y-84623038D01*
X123793830Y-84603632D01*
X123804866Y-84585219D01*
X123817654Y-84567976D01*
X123832070Y-84552070D01*
X123847976Y-84537654D01*
X123865219Y-84524866D01*
X123883632Y-84513830D01*
X123903038Y-84504651D01*
X123923250Y-84497419D01*
X123944074Y-84492203D01*
X123965309Y-84489053D01*
X123986750Y-84488000D01*
X124424250Y-84488000D01*
X124445691Y-84489053D01*
X124445691Y-84489053D01*
G37*
D12*
X124205500Y-84963000D03*
D11*
G36*
X122870691Y-84489053D02*
X122891926Y-84492203D01*
X122912750Y-84497419D01*
X122932962Y-84504651D01*
X122952368Y-84513830D01*
X122970781Y-84524866D01*
X122988024Y-84537654D01*
X123003930Y-84552070D01*
X123018346Y-84567976D01*
X123031134Y-84585219D01*
X123042170Y-84603632D01*
X123051349Y-84623038D01*
X123058581Y-84643250D01*
X123063797Y-84664074D01*
X123066947Y-84685309D01*
X123068000Y-84706750D01*
X123068000Y-85219250D01*
X123066947Y-85240691D01*
X123063797Y-85261926D01*
X123058581Y-85282750D01*
X123051349Y-85302962D01*
X123042170Y-85322368D01*
X123031134Y-85340781D01*
X123018346Y-85358024D01*
X123003930Y-85373930D01*
X122988024Y-85388346D01*
X122970781Y-85401134D01*
X122952368Y-85412170D01*
X122932962Y-85421349D01*
X122912750Y-85428581D01*
X122891926Y-85433797D01*
X122870691Y-85436947D01*
X122849250Y-85438000D01*
X122411750Y-85438000D01*
X122390309Y-85436947D01*
X122369074Y-85433797D01*
X122348250Y-85428581D01*
X122328038Y-85421349D01*
X122308632Y-85412170D01*
X122290219Y-85401134D01*
X122272976Y-85388346D01*
X122257070Y-85373930D01*
X122242654Y-85358024D01*
X122229866Y-85340781D01*
X122218830Y-85322368D01*
X122209651Y-85302962D01*
X122202419Y-85282750D01*
X122197203Y-85261926D01*
X122194053Y-85240691D01*
X122193000Y-85219250D01*
X122193000Y-84706750D01*
X122194053Y-84685309D01*
X122197203Y-84664074D01*
X122202419Y-84643250D01*
X122209651Y-84623038D01*
X122218830Y-84603632D01*
X122229866Y-84585219D01*
X122242654Y-84567976D01*
X122257070Y-84552070D01*
X122272976Y-84537654D01*
X122290219Y-84524866D01*
X122308632Y-84513830D01*
X122328038Y-84504651D01*
X122348250Y-84497419D01*
X122369074Y-84492203D01*
X122390309Y-84489053D01*
X122411750Y-84488000D01*
X122849250Y-84488000D01*
X122870691Y-84489053D01*
X122870691Y-84489053D01*
G37*
D12*
X122630500Y-84963000D03*
G04 #@! TD*
D13*
G04 #@! TO.C,D1*
X133858000Y-124079000D03*
X129858000Y-124079000D03*
G04 #@! TD*
D11*
G04 #@! TO.C,ON*
G36*
X169937691Y-89061053D02*
X169958926Y-89064203D01*
X169979750Y-89069419D01*
X169999962Y-89076651D01*
X170019368Y-89085830D01*
X170037781Y-89096866D01*
X170055024Y-89109654D01*
X170070930Y-89124070D01*
X170085346Y-89139976D01*
X170098134Y-89157219D01*
X170109170Y-89175632D01*
X170118349Y-89195038D01*
X170125581Y-89215250D01*
X170130797Y-89236074D01*
X170133947Y-89257309D01*
X170135000Y-89278750D01*
X170135000Y-89791250D01*
X170133947Y-89812691D01*
X170130797Y-89833926D01*
X170125581Y-89854750D01*
X170118349Y-89874962D01*
X170109170Y-89894368D01*
X170098134Y-89912781D01*
X170085346Y-89930024D01*
X170070930Y-89945930D01*
X170055024Y-89960346D01*
X170037781Y-89973134D01*
X170019368Y-89984170D01*
X169999962Y-89993349D01*
X169979750Y-90000581D01*
X169958926Y-90005797D01*
X169937691Y-90008947D01*
X169916250Y-90010000D01*
X169478750Y-90010000D01*
X169457309Y-90008947D01*
X169436074Y-90005797D01*
X169415250Y-90000581D01*
X169395038Y-89993349D01*
X169375632Y-89984170D01*
X169357219Y-89973134D01*
X169339976Y-89960346D01*
X169324070Y-89945930D01*
X169309654Y-89930024D01*
X169296866Y-89912781D01*
X169285830Y-89894368D01*
X169276651Y-89874962D01*
X169269419Y-89854750D01*
X169264203Y-89833926D01*
X169261053Y-89812691D01*
X169260000Y-89791250D01*
X169260000Y-89278750D01*
X169261053Y-89257309D01*
X169264203Y-89236074D01*
X169269419Y-89215250D01*
X169276651Y-89195038D01*
X169285830Y-89175632D01*
X169296866Y-89157219D01*
X169309654Y-89139976D01*
X169324070Y-89124070D01*
X169339976Y-89109654D01*
X169357219Y-89096866D01*
X169375632Y-89085830D01*
X169395038Y-89076651D01*
X169415250Y-89069419D01*
X169436074Y-89064203D01*
X169457309Y-89061053D01*
X169478750Y-89060000D01*
X169916250Y-89060000D01*
X169937691Y-89061053D01*
X169937691Y-89061053D01*
G37*
D12*
X169697500Y-89535000D03*
D11*
G36*
X168362691Y-89061053D02*
X168383926Y-89064203D01*
X168404750Y-89069419D01*
X168424962Y-89076651D01*
X168444368Y-89085830D01*
X168462781Y-89096866D01*
X168480024Y-89109654D01*
X168495930Y-89124070D01*
X168510346Y-89139976D01*
X168523134Y-89157219D01*
X168534170Y-89175632D01*
X168543349Y-89195038D01*
X168550581Y-89215250D01*
X168555797Y-89236074D01*
X168558947Y-89257309D01*
X168560000Y-89278750D01*
X168560000Y-89791250D01*
X168558947Y-89812691D01*
X168555797Y-89833926D01*
X168550581Y-89854750D01*
X168543349Y-89874962D01*
X168534170Y-89894368D01*
X168523134Y-89912781D01*
X168510346Y-89930024D01*
X168495930Y-89945930D01*
X168480024Y-89960346D01*
X168462781Y-89973134D01*
X168444368Y-89984170D01*
X168424962Y-89993349D01*
X168404750Y-90000581D01*
X168383926Y-90005797D01*
X168362691Y-90008947D01*
X168341250Y-90010000D01*
X167903750Y-90010000D01*
X167882309Y-90008947D01*
X167861074Y-90005797D01*
X167840250Y-90000581D01*
X167820038Y-89993349D01*
X167800632Y-89984170D01*
X167782219Y-89973134D01*
X167764976Y-89960346D01*
X167749070Y-89945930D01*
X167734654Y-89930024D01*
X167721866Y-89912781D01*
X167710830Y-89894368D01*
X167701651Y-89874962D01*
X167694419Y-89854750D01*
X167689203Y-89833926D01*
X167686053Y-89812691D01*
X167685000Y-89791250D01*
X167685000Y-89278750D01*
X167686053Y-89257309D01*
X167689203Y-89236074D01*
X167694419Y-89215250D01*
X167701651Y-89195038D01*
X167710830Y-89175632D01*
X167721866Y-89157219D01*
X167734654Y-89139976D01*
X167749070Y-89124070D01*
X167764976Y-89109654D01*
X167782219Y-89096866D01*
X167800632Y-89085830D01*
X167820038Y-89076651D01*
X167840250Y-89069419D01*
X167861074Y-89064203D01*
X167882309Y-89061053D01*
X167903750Y-89060000D01*
X168341250Y-89060000D01*
X168362691Y-89061053D01*
X168362691Y-89061053D01*
G37*
D12*
X168122500Y-89535000D03*
G04 #@! TD*
D11*
G04 #@! TO.C,D3*
G36*
X124855504Y-78621204D02*
X124879773Y-78624804D01*
X124903571Y-78630765D01*
X124926671Y-78639030D01*
X124948849Y-78649520D01*
X124969893Y-78662133D01*
X124989598Y-78676747D01*
X125007777Y-78693223D01*
X125024253Y-78711402D01*
X125038867Y-78731107D01*
X125051480Y-78752151D01*
X125061970Y-78774329D01*
X125070235Y-78797429D01*
X125076196Y-78821227D01*
X125079796Y-78845496D01*
X125081000Y-78870000D01*
X125081000Y-79620000D01*
X125079796Y-79644504D01*
X125076196Y-79668773D01*
X125070235Y-79692571D01*
X125061970Y-79715671D01*
X125051480Y-79737849D01*
X125038867Y-79758893D01*
X125024253Y-79778598D01*
X125007777Y-79796777D01*
X124989598Y-79813253D01*
X124969893Y-79827867D01*
X124948849Y-79840480D01*
X124926671Y-79850970D01*
X124903571Y-79859235D01*
X124879773Y-79865196D01*
X124855504Y-79868796D01*
X124831000Y-79870000D01*
X123581000Y-79870000D01*
X123556496Y-79868796D01*
X123532227Y-79865196D01*
X123508429Y-79859235D01*
X123485329Y-79850970D01*
X123463151Y-79840480D01*
X123442107Y-79827867D01*
X123422402Y-79813253D01*
X123404223Y-79796777D01*
X123387747Y-79778598D01*
X123373133Y-79758893D01*
X123360520Y-79737849D01*
X123350030Y-79715671D01*
X123341765Y-79692571D01*
X123335804Y-79668773D01*
X123332204Y-79644504D01*
X123331000Y-79620000D01*
X123331000Y-78870000D01*
X123332204Y-78845496D01*
X123335804Y-78821227D01*
X123341765Y-78797429D01*
X123350030Y-78774329D01*
X123360520Y-78752151D01*
X123373133Y-78731107D01*
X123387747Y-78711402D01*
X123404223Y-78693223D01*
X123422402Y-78676747D01*
X123442107Y-78662133D01*
X123463151Y-78649520D01*
X123485329Y-78639030D01*
X123508429Y-78630765D01*
X123532227Y-78624804D01*
X123556496Y-78621204D01*
X123581000Y-78620000D01*
X124831000Y-78620000D01*
X124855504Y-78621204D01*
X124855504Y-78621204D01*
G37*
D14*
X124206000Y-79245000D03*
D11*
G36*
X124855504Y-81421204D02*
X124879773Y-81424804D01*
X124903571Y-81430765D01*
X124926671Y-81439030D01*
X124948849Y-81449520D01*
X124969893Y-81462133D01*
X124989598Y-81476747D01*
X125007777Y-81493223D01*
X125024253Y-81511402D01*
X125038867Y-81531107D01*
X125051480Y-81552151D01*
X125061970Y-81574329D01*
X125070235Y-81597429D01*
X125076196Y-81621227D01*
X125079796Y-81645496D01*
X125081000Y-81670000D01*
X125081000Y-82420000D01*
X125079796Y-82444504D01*
X125076196Y-82468773D01*
X125070235Y-82492571D01*
X125061970Y-82515671D01*
X125051480Y-82537849D01*
X125038867Y-82558893D01*
X125024253Y-82578598D01*
X125007777Y-82596777D01*
X124989598Y-82613253D01*
X124969893Y-82627867D01*
X124948849Y-82640480D01*
X124926671Y-82650970D01*
X124903571Y-82659235D01*
X124879773Y-82665196D01*
X124855504Y-82668796D01*
X124831000Y-82670000D01*
X123581000Y-82670000D01*
X123556496Y-82668796D01*
X123532227Y-82665196D01*
X123508429Y-82659235D01*
X123485329Y-82650970D01*
X123463151Y-82640480D01*
X123442107Y-82627867D01*
X123422402Y-82613253D01*
X123404223Y-82596777D01*
X123387747Y-82578598D01*
X123373133Y-82558893D01*
X123360520Y-82537849D01*
X123350030Y-82515671D01*
X123341765Y-82492571D01*
X123335804Y-82468773D01*
X123332204Y-82444504D01*
X123331000Y-82420000D01*
X123331000Y-81670000D01*
X123332204Y-81645496D01*
X123335804Y-81621227D01*
X123341765Y-81597429D01*
X123350030Y-81574329D01*
X123360520Y-81552151D01*
X123373133Y-81531107D01*
X123387747Y-81511402D01*
X123404223Y-81493223D01*
X123422402Y-81476747D01*
X123442107Y-81462133D01*
X123463151Y-81449520D01*
X123485329Y-81439030D01*
X123508429Y-81430765D01*
X123532227Y-81424804D01*
X123556496Y-81421204D01*
X123581000Y-81420000D01*
X124831000Y-81420000D01*
X124855504Y-81421204D01*
X124855504Y-81421204D01*
G37*
D14*
X124206000Y-82045000D03*
G04 #@! TD*
D11*
G04 #@! TO.C,TX*
G36*
X139553691Y-90056553D02*
X139574926Y-90059703D01*
X139595750Y-90064919D01*
X139615962Y-90072151D01*
X139635368Y-90081330D01*
X139653781Y-90092366D01*
X139671024Y-90105154D01*
X139686930Y-90119570D01*
X139701346Y-90135476D01*
X139714134Y-90152719D01*
X139725170Y-90171132D01*
X139734349Y-90190538D01*
X139741581Y-90210750D01*
X139746797Y-90231574D01*
X139749947Y-90252809D01*
X139751000Y-90274250D01*
X139751000Y-90786750D01*
X139749947Y-90808191D01*
X139746797Y-90829426D01*
X139741581Y-90850250D01*
X139734349Y-90870462D01*
X139725170Y-90889868D01*
X139714134Y-90908281D01*
X139701346Y-90925524D01*
X139686930Y-90941430D01*
X139671024Y-90955846D01*
X139653781Y-90968634D01*
X139635368Y-90979670D01*
X139615962Y-90988849D01*
X139595750Y-90996081D01*
X139574926Y-91001297D01*
X139553691Y-91004447D01*
X139532250Y-91005500D01*
X139094750Y-91005500D01*
X139073309Y-91004447D01*
X139052074Y-91001297D01*
X139031250Y-90996081D01*
X139011038Y-90988849D01*
X138991632Y-90979670D01*
X138973219Y-90968634D01*
X138955976Y-90955846D01*
X138940070Y-90941430D01*
X138925654Y-90925524D01*
X138912866Y-90908281D01*
X138901830Y-90889868D01*
X138892651Y-90870462D01*
X138885419Y-90850250D01*
X138880203Y-90829426D01*
X138877053Y-90808191D01*
X138876000Y-90786750D01*
X138876000Y-90274250D01*
X138877053Y-90252809D01*
X138880203Y-90231574D01*
X138885419Y-90210750D01*
X138892651Y-90190538D01*
X138901830Y-90171132D01*
X138912866Y-90152719D01*
X138925654Y-90135476D01*
X138940070Y-90119570D01*
X138955976Y-90105154D01*
X138973219Y-90092366D01*
X138991632Y-90081330D01*
X139011038Y-90072151D01*
X139031250Y-90064919D01*
X139052074Y-90059703D01*
X139073309Y-90056553D01*
X139094750Y-90055500D01*
X139532250Y-90055500D01*
X139553691Y-90056553D01*
X139553691Y-90056553D01*
G37*
D12*
X139313500Y-90530500D03*
D11*
G36*
X137978691Y-90056553D02*
X137999926Y-90059703D01*
X138020750Y-90064919D01*
X138040962Y-90072151D01*
X138060368Y-90081330D01*
X138078781Y-90092366D01*
X138096024Y-90105154D01*
X138111930Y-90119570D01*
X138126346Y-90135476D01*
X138139134Y-90152719D01*
X138150170Y-90171132D01*
X138159349Y-90190538D01*
X138166581Y-90210750D01*
X138171797Y-90231574D01*
X138174947Y-90252809D01*
X138176000Y-90274250D01*
X138176000Y-90786750D01*
X138174947Y-90808191D01*
X138171797Y-90829426D01*
X138166581Y-90850250D01*
X138159349Y-90870462D01*
X138150170Y-90889868D01*
X138139134Y-90908281D01*
X138126346Y-90925524D01*
X138111930Y-90941430D01*
X138096024Y-90955846D01*
X138078781Y-90968634D01*
X138060368Y-90979670D01*
X138040962Y-90988849D01*
X138020750Y-90996081D01*
X137999926Y-91001297D01*
X137978691Y-91004447D01*
X137957250Y-91005500D01*
X137519750Y-91005500D01*
X137498309Y-91004447D01*
X137477074Y-91001297D01*
X137456250Y-90996081D01*
X137436038Y-90988849D01*
X137416632Y-90979670D01*
X137398219Y-90968634D01*
X137380976Y-90955846D01*
X137365070Y-90941430D01*
X137350654Y-90925524D01*
X137337866Y-90908281D01*
X137326830Y-90889868D01*
X137317651Y-90870462D01*
X137310419Y-90850250D01*
X137305203Y-90829426D01*
X137302053Y-90808191D01*
X137301000Y-90786750D01*
X137301000Y-90274250D01*
X137302053Y-90252809D01*
X137305203Y-90231574D01*
X137310419Y-90210750D01*
X137317651Y-90190538D01*
X137326830Y-90171132D01*
X137337866Y-90152719D01*
X137350654Y-90135476D01*
X137365070Y-90119570D01*
X137380976Y-90105154D01*
X137398219Y-90092366D01*
X137416632Y-90081330D01*
X137436038Y-90072151D01*
X137456250Y-90064919D01*
X137477074Y-90059703D01*
X137498309Y-90056553D01*
X137519750Y-90055500D01*
X137957250Y-90055500D01*
X137978691Y-90056553D01*
X137978691Y-90056553D01*
G37*
D12*
X137738500Y-90530500D03*
G04 #@! TD*
D11*
G04 #@! TO.C,RX*
G36*
X137978691Y-92137053D02*
X137999926Y-92140203D01*
X138020750Y-92145419D01*
X138040962Y-92152651D01*
X138060368Y-92161830D01*
X138078781Y-92172866D01*
X138096024Y-92185654D01*
X138111930Y-92200070D01*
X138126346Y-92215976D01*
X138139134Y-92233219D01*
X138150170Y-92251632D01*
X138159349Y-92271038D01*
X138166581Y-92291250D01*
X138171797Y-92312074D01*
X138174947Y-92333309D01*
X138176000Y-92354750D01*
X138176000Y-92867250D01*
X138174947Y-92888691D01*
X138171797Y-92909926D01*
X138166581Y-92930750D01*
X138159349Y-92950962D01*
X138150170Y-92970368D01*
X138139134Y-92988781D01*
X138126346Y-93006024D01*
X138111930Y-93021930D01*
X138096024Y-93036346D01*
X138078781Y-93049134D01*
X138060368Y-93060170D01*
X138040962Y-93069349D01*
X138020750Y-93076581D01*
X137999926Y-93081797D01*
X137978691Y-93084947D01*
X137957250Y-93086000D01*
X137519750Y-93086000D01*
X137498309Y-93084947D01*
X137477074Y-93081797D01*
X137456250Y-93076581D01*
X137436038Y-93069349D01*
X137416632Y-93060170D01*
X137398219Y-93049134D01*
X137380976Y-93036346D01*
X137365070Y-93021930D01*
X137350654Y-93006024D01*
X137337866Y-92988781D01*
X137326830Y-92970368D01*
X137317651Y-92950962D01*
X137310419Y-92930750D01*
X137305203Y-92909926D01*
X137302053Y-92888691D01*
X137301000Y-92867250D01*
X137301000Y-92354750D01*
X137302053Y-92333309D01*
X137305203Y-92312074D01*
X137310419Y-92291250D01*
X137317651Y-92271038D01*
X137326830Y-92251632D01*
X137337866Y-92233219D01*
X137350654Y-92215976D01*
X137365070Y-92200070D01*
X137380976Y-92185654D01*
X137398219Y-92172866D01*
X137416632Y-92161830D01*
X137436038Y-92152651D01*
X137456250Y-92145419D01*
X137477074Y-92140203D01*
X137498309Y-92137053D01*
X137519750Y-92136000D01*
X137957250Y-92136000D01*
X137978691Y-92137053D01*
X137978691Y-92137053D01*
G37*
D12*
X137738500Y-92611000D03*
D11*
G36*
X139553691Y-92137053D02*
X139574926Y-92140203D01*
X139595750Y-92145419D01*
X139615962Y-92152651D01*
X139635368Y-92161830D01*
X139653781Y-92172866D01*
X139671024Y-92185654D01*
X139686930Y-92200070D01*
X139701346Y-92215976D01*
X139714134Y-92233219D01*
X139725170Y-92251632D01*
X139734349Y-92271038D01*
X139741581Y-92291250D01*
X139746797Y-92312074D01*
X139749947Y-92333309D01*
X139751000Y-92354750D01*
X139751000Y-92867250D01*
X139749947Y-92888691D01*
X139746797Y-92909926D01*
X139741581Y-92930750D01*
X139734349Y-92950962D01*
X139725170Y-92970368D01*
X139714134Y-92988781D01*
X139701346Y-93006024D01*
X139686930Y-93021930D01*
X139671024Y-93036346D01*
X139653781Y-93049134D01*
X139635368Y-93060170D01*
X139615962Y-93069349D01*
X139595750Y-93076581D01*
X139574926Y-93081797D01*
X139553691Y-93084947D01*
X139532250Y-93086000D01*
X139094750Y-93086000D01*
X139073309Y-93084947D01*
X139052074Y-93081797D01*
X139031250Y-93076581D01*
X139011038Y-93069349D01*
X138991632Y-93060170D01*
X138973219Y-93049134D01*
X138955976Y-93036346D01*
X138940070Y-93021930D01*
X138925654Y-93006024D01*
X138912866Y-92988781D01*
X138901830Y-92970368D01*
X138892651Y-92950962D01*
X138885419Y-92930750D01*
X138880203Y-92909926D01*
X138877053Y-92888691D01*
X138876000Y-92867250D01*
X138876000Y-92354750D01*
X138877053Y-92333309D01*
X138880203Y-92312074D01*
X138885419Y-92291250D01*
X138892651Y-92271038D01*
X138901830Y-92251632D01*
X138912866Y-92233219D01*
X138925654Y-92215976D01*
X138940070Y-92200070D01*
X138955976Y-92185654D01*
X138973219Y-92172866D01*
X138991632Y-92161830D01*
X139011038Y-92152651D01*
X139031250Y-92145419D01*
X139052074Y-92140203D01*
X139073309Y-92137053D01*
X139094750Y-92136000D01*
X139532250Y-92136000D01*
X139553691Y-92137053D01*
X139553691Y-92137053D01*
G37*
D12*
X139313500Y-92611000D03*
G04 #@! TD*
D11*
G04 #@! TO.C,D6*
G36*
X171083504Y-97033204D02*
X171107773Y-97036804D01*
X171131571Y-97042765D01*
X171154671Y-97051030D01*
X171176849Y-97061520D01*
X171197893Y-97074133D01*
X171217598Y-97088747D01*
X171235777Y-97105223D01*
X171252253Y-97123402D01*
X171266867Y-97143107D01*
X171279480Y-97164151D01*
X171289970Y-97186329D01*
X171298235Y-97209429D01*
X171304196Y-97233227D01*
X171307796Y-97257496D01*
X171309000Y-97282000D01*
X171309000Y-98032000D01*
X171307796Y-98056504D01*
X171304196Y-98080773D01*
X171298235Y-98104571D01*
X171289970Y-98127671D01*
X171279480Y-98149849D01*
X171266867Y-98170893D01*
X171252253Y-98190598D01*
X171235777Y-98208777D01*
X171217598Y-98225253D01*
X171197893Y-98239867D01*
X171176849Y-98252480D01*
X171154671Y-98262970D01*
X171131571Y-98271235D01*
X171107773Y-98277196D01*
X171083504Y-98280796D01*
X171059000Y-98282000D01*
X169809000Y-98282000D01*
X169784496Y-98280796D01*
X169760227Y-98277196D01*
X169736429Y-98271235D01*
X169713329Y-98262970D01*
X169691151Y-98252480D01*
X169670107Y-98239867D01*
X169650402Y-98225253D01*
X169632223Y-98208777D01*
X169615747Y-98190598D01*
X169601133Y-98170893D01*
X169588520Y-98149849D01*
X169578030Y-98127671D01*
X169569765Y-98104571D01*
X169563804Y-98080773D01*
X169560204Y-98056504D01*
X169559000Y-98032000D01*
X169559000Y-97282000D01*
X169560204Y-97257496D01*
X169563804Y-97233227D01*
X169569765Y-97209429D01*
X169578030Y-97186329D01*
X169588520Y-97164151D01*
X169601133Y-97143107D01*
X169615747Y-97123402D01*
X169632223Y-97105223D01*
X169650402Y-97088747D01*
X169670107Y-97074133D01*
X169691151Y-97061520D01*
X169713329Y-97051030D01*
X169736429Y-97042765D01*
X169760227Y-97036804D01*
X169784496Y-97033204D01*
X169809000Y-97032000D01*
X171059000Y-97032000D01*
X171083504Y-97033204D01*
X171083504Y-97033204D01*
G37*
D14*
X170434000Y-97657000D03*
D11*
G36*
X171083504Y-99833204D02*
X171107773Y-99836804D01*
X171131571Y-99842765D01*
X171154671Y-99851030D01*
X171176849Y-99861520D01*
X171197893Y-99874133D01*
X171217598Y-99888747D01*
X171235777Y-99905223D01*
X171252253Y-99923402D01*
X171266867Y-99943107D01*
X171279480Y-99964151D01*
X171289970Y-99986329D01*
X171298235Y-100009429D01*
X171304196Y-100033227D01*
X171307796Y-100057496D01*
X171309000Y-100082000D01*
X171309000Y-100832000D01*
X171307796Y-100856504D01*
X171304196Y-100880773D01*
X171298235Y-100904571D01*
X171289970Y-100927671D01*
X171279480Y-100949849D01*
X171266867Y-100970893D01*
X171252253Y-100990598D01*
X171235777Y-101008777D01*
X171217598Y-101025253D01*
X171197893Y-101039867D01*
X171176849Y-101052480D01*
X171154671Y-101062970D01*
X171131571Y-101071235D01*
X171107773Y-101077196D01*
X171083504Y-101080796D01*
X171059000Y-101082000D01*
X169809000Y-101082000D01*
X169784496Y-101080796D01*
X169760227Y-101077196D01*
X169736429Y-101071235D01*
X169713329Y-101062970D01*
X169691151Y-101052480D01*
X169670107Y-101039867D01*
X169650402Y-101025253D01*
X169632223Y-101008777D01*
X169615747Y-100990598D01*
X169601133Y-100970893D01*
X169588520Y-100949849D01*
X169578030Y-100927671D01*
X169569765Y-100904571D01*
X169563804Y-100880773D01*
X169560204Y-100856504D01*
X169559000Y-100832000D01*
X169559000Y-100082000D01*
X169560204Y-100057496D01*
X169563804Y-100033227D01*
X169569765Y-100009429D01*
X169578030Y-99986329D01*
X169588520Y-99964151D01*
X169601133Y-99943107D01*
X169615747Y-99923402D01*
X169632223Y-99905223D01*
X169650402Y-99888747D01*
X169670107Y-99874133D01*
X169691151Y-99861520D01*
X169713329Y-99851030D01*
X169736429Y-99842765D01*
X169760227Y-99836804D01*
X169784496Y-99833204D01*
X169809000Y-99832000D01*
X171059000Y-99832000D01*
X171083504Y-99833204D01*
X171083504Y-99833204D01*
G37*
D14*
X170434000Y-100457000D03*
G04 #@! TD*
D11*
G04 #@! TO.C,L*
G36*
X139553691Y-83735553D02*
X139574926Y-83738703D01*
X139595750Y-83743919D01*
X139615962Y-83751151D01*
X139635368Y-83760330D01*
X139653781Y-83771366D01*
X139671024Y-83784154D01*
X139686930Y-83798570D01*
X139701346Y-83814476D01*
X139714134Y-83831719D01*
X139725170Y-83850132D01*
X139734349Y-83869538D01*
X139741581Y-83889750D01*
X139746797Y-83910574D01*
X139749947Y-83931809D01*
X139751000Y-83953250D01*
X139751000Y-84465750D01*
X139749947Y-84487191D01*
X139746797Y-84508426D01*
X139741581Y-84529250D01*
X139734349Y-84549462D01*
X139725170Y-84568868D01*
X139714134Y-84587281D01*
X139701346Y-84604524D01*
X139686930Y-84620430D01*
X139671024Y-84634846D01*
X139653781Y-84647634D01*
X139635368Y-84658670D01*
X139615962Y-84667849D01*
X139595750Y-84675081D01*
X139574926Y-84680297D01*
X139553691Y-84683447D01*
X139532250Y-84684500D01*
X139094750Y-84684500D01*
X139073309Y-84683447D01*
X139052074Y-84680297D01*
X139031250Y-84675081D01*
X139011038Y-84667849D01*
X138991632Y-84658670D01*
X138973219Y-84647634D01*
X138955976Y-84634846D01*
X138940070Y-84620430D01*
X138925654Y-84604524D01*
X138912866Y-84587281D01*
X138901830Y-84568868D01*
X138892651Y-84549462D01*
X138885419Y-84529250D01*
X138880203Y-84508426D01*
X138877053Y-84487191D01*
X138876000Y-84465750D01*
X138876000Y-83953250D01*
X138877053Y-83931809D01*
X138880203Y-83910574D01*
X138885419Y-83889750D01*
X138892651Y-83869538D01*
X138901830Y-83850132D01*
X138912866Y-83831719D01*
X138925654Y-83814476D01*
X138940070Y-83798570D01*
X138955976Y-83784154D01*
X138973219Y-83771366D01*
X138991632Y-83760330D01*
X139011038Y-83751151D01*
X139031250Y-83743919D01*
X139052074Y-83738703D01*
X139073309Y-83735553D01*
X139094750Y-83734500D01*
X139532250Y-83734500D01*
X139553691Y-83735553D01*
X139553691Y-83735553D01*
G37*
D12*
X139313500Y-84209500D03*
D11*
G36*
X137978691Y-83735553D02*
X137999926Y-83738703D01*
X138020750Y-83743919D01*
X138040962Y-83751151D01*
X138060368Y-83760330D01*
X138078781Y-83771366D01*
X138096024Y-83784154D01*
X138111930Y-83798570D01*
X138126346Y-83814476D01*
X138139134Y-83831719D01*
X138150170Y-83850132D01*
X138159349Y-83869538D01*
X138166581Y-83889750D01*
X138171797Y-83910574D01*
X138174947Y-83931809D01*
X138176000Y-83953250D01*
X138176000Y-84465750D01*
X138174947Y-84487191D01*
X138171797Y-84508426D01*
X138166581Y-84529250D01*
X138159349Y-84549462D01*
X138150170Y-84568868D01*
X138139134Y-84587281D01*
X138126346Y-84604524D01*
X138111930Y-84620430D01*
X138096024Y-84634846D01*
X138078781Y-84647634D01*
X138060368Y-84658670D01*
X138040962Y-84667849D01*
X138020750Y-84675081D01*
X137999926Y-84680297D01*
X137978691Y-84683447D01*
X137957250Y-84684500D01*
X137519750Y-84684500D01*
X137498309Y-84683447D01*
X137477074Y-84680297D01*
X137456250Y-84675081D01*
X137436038Y-84667849D01*
X137416632Y-84658670D01*
X137398219Y-84647634D01*
X137380976Y-84634846D01*
X137365070Y-84620430D01*
X137350654Y-84604524D01*
X137337866Y-84587281D01*
X137326830Y-84568868D01*
X137317651Y-84549462D01*
X137310419Y-84529250D01*
X137305203Y-84508426D01*
X137302053Y-84487191D01*
X137301000Y-84465750D01*
X137301000Y-83953250D01*
X137302053Y-83931809D01*
X137305203Y-83910574D01*
X137310419Y-83889750D01*
X137317651Y-83869538D01*
X137326830Y-83850132D01*
X137337866Y-83831719D01*
X137350654Y-83814476D01*
X137365070Y-83798570D01*
X137380976Y-83784154D01*
X137398219Y-83771366D01*
X137416632Y-83760330D01*
X137436038Y-83751151D01*
X137456250Y-83743919D01*
X137477074Y-83738703D01*
X137498309Y-83735553D01*
X137519750Y-83734500D01*
X137957250Y-83734500D01*
X137978691Y-83735553D01*
X137978691Y-83735553D01*
G37*
D12*
X137738500Y-84209500D03*
G04 #@! TD*
D11*
G04 #@! TO.C,F1*
G36*
X115012505Y-102541204D02*
X115036773Y-102544804D01*
X115060572Y-102550765D01*
X115083671Y-102559030D01*
X115105850Y-102569520D01*
X115126893Y-102582132D01*
X115146599Y-102596747D01*
X115164777Y-102613223D01*
X115181253Y-102631401D01*
X115195868Y-102651107D01*
X115208480Y-102672150D01*
X115218970Y-102694329D01*
X115227235Y-102717428D01*
X115233196Y-102741227D01*
X115236796Y-102765495D01*
X115238000Y-102789999D01*
X115238000Y-103415001D01*
X115236796Y-103439505D01*
X115233196Y-103463773D01*
X115227235Y-103487572D01*
X115218970Y-103510671D01*
X115208480Y-103532850D01*
X115195868Y-103553893D01*
X115181253Y-103573599D01*
X115164777Y-103591777D01*
X115146599Y-103608253D01*
X115126893Y-103622868D01*
X115105850Y-103635480D01*
X115083671Y-103645970D01*
X115060572Y-103654235D01*
X115036773Y-103660196D01*
X115012505Y-103663796D01*
X114988001Y-103665000D01*
X112087999Y-103665000D01*
X112063495Y-103663796D01*
X112039227Y-103660196D01*
X112015428Y-103654235D01*
X111992329Y-103645970D01*
X111970150Y-103635480D01*
X111949107Y-103622868D01*
X111929401Y-103608253D01*
X111911223Y-103591777D01*
X111894747Y-103573599D01*
X111880132Y-103553893D01*
X111867520Y-103532850D01*
X111857030Y-103510671D01*
X111848765Y-103487572D01*
X111842804Y-103463773D01*
X111839204Y-103439505D01*
X111838000Y-103415001D01*
X111838000Y-102789999D01*
X111839204Y-102765495D01*
X111842804Y-102741227D01*
X111848765Y-102717428D01*
X111857030Y-102694329D01*
X111867520Y-102672150D01*
X111880132Y-102651107D01*
X111894747Y-102631401D01*
X111911223Y-102613223D01*
X111929401Y-102596747D01*
X111949107Y-102582132D01*
X111970150Y-102569520D01*
X111992329Y-102559030D01*
X112015428Y-102550765D01*
X112039227Y-102544804D01*
X112063495Y-102541204D01*
X112087999Y-102540000D01*
X114988001Y-102540000D01*
X115012505Y-102541204D01*
X115012505Y-102541204D01*
G37*
D15*
X113538000Y-103102500D03*
D11*
G36*
X115012505Y-98266204D02*
X115036773Y-98269804D01*
X115060572Y-98275765D01*
X115083671Y-98284030D01*
X115105850Y-98294520D01*
X115126893Y-98307132D01*
X115146599Y-98321747D01*
X115164777Y-98338223D01*
X115181253Y-98356401D01*
X115195868Y-98376107D01*
X115208480Y-98397150D01*
X115218970Y-98419329D01*
X115227235Y-98442428D01*
X115233196Y-98466227D01*
X115236796Y-98490495D01*
X115238000Y-98514999D01*
X115238000Y-99140001D01*
X115236796Y-99164505D01*
X115233196Y-99188773D01*
X115227235Y-99212572D01*
X115218970Y-99235671D01*
X115208480Y-99257850D01*
X115195868Y-99278893D01*
X115181253Y-99298599D01*
X115164777Y-99316777D01*
X115146599Y-99333253D01*
X115126893Y-99347868D01*
X115105850Y-99360480D01*
X115083671Y-99370970D01*
X115060572Y-99379235D01*
X115036773Y-99385196D01*
X115012505Y-99388796D01*
X114988001Y-99390000D01*
X112087999Y-99390000D01*
X112063495Y-99388796D01*
X112039227Y-99385196D01*
X112015428Y-99379235D01*
X111992329Y-99370970D01*
X111970150Y-99360480D01*
X111949107Y-99347868D01*
X111929401Y-99333253D01*
X111911223Y-99316777D01*
X111894747Y-99298599D01*
X111880132Y-99278893D01*
X111867520Y-99257850D01*
X111857030Y-99235671D01*
X111848765Y-99212572D01*
X111842804Y-99188773D01*
X111839204Y-99164505D01*
X111838000Y-99140001D01*
X111838000Y-98514999D01*
X111839204Y-98490495D01*
X111842804Y-98466227D01*
X111848765Y-98442428D01*
X111857030Y-98419329D01*
X111867520Y-98397150D01*
X111880132Y-98376107D01*
X111894747Y-98356401D01*
X111911223Y-98338223D01*
X111929401Y-98321747D01*
X111949107Y-98307132D01*
X111970150Y-98294520D01*
X111992329Y-98284030D01*
X112015428Y-98275765D01*
X112039227Y-98269804D01*
X112063495Y-98266204D01*
X112087999Y-98265000D01*
X114988001Y-98265000D01*
X115012505Y-98266204D01*
X115012505Y-98266204D01*
G37*
D15*
X113538000Y-98827500D03*
G04 #@! TD*
D11*
G04 #@! TO.C,FB1*
G36*
X117694142Y-96964174D02*
X117717803Y-96967684D01*
X117741007Y-96973496D01*
X117763529Y-96981554D01*
X117785153Y-96991782D01*
X117805670Y-97004079D01*
X117824883Y-97018329D01*
X117842607Y-97034393D01*
X117858671Y-97052117D01*
X117872921Y-97071330D01*
X117885218Y-97091847D01*
X117895446Y-97113471D01*
X117903504Y-97135993D01*
X117909316Y-97159197D01*
X117912826Y-97182858D01*
X117914000Y-97206750D01*
X117914000Y-98119250D01*
X117912826Y-98143142D01*
X117909316Y-98166803D01*
X117903504Y-98190007D01*
X117895446Y-98212529D01*
X117885218Y-98234153D01*
X117872921Y-98254670D01*
X117858671Y-98273883D01*
X117842607Y-98291607D01*
X117824883Y-98307671D01*
X117805670Y-98321921D01*
X117785153Y-98334218D01*
X117763529Y-98344446D01*
X117741007Y-98352504D01*
X117717803Y-98358316D01*
X117694142Y-98361826D01*
X117670250Y-98363000D01*
X117182750Y-98363000D01*
X117158858Y-98361826D01*
X117135197Y-98358316D01*
X117111993Y-98352504D01*
X117089471Y-98344446D01*
X117067847Y-98334218D01*
X117047330Y-98321921D01*
X117028117Y-98307671D01*
X117010393Y-98291607D01*
X116994329Y-98273883D01*
X116980079Y-98254670D01*
X116967782Y-98234153D01*
X116957554Y-98212529D01*
X116949496Y-98190007D01*
X116943684Y-98166803D01*
X116940174Y-98143142D01*
X116939000Y-98119250D01*
X116939000Y-97206750D01*
X116940174Y-97182858D01*
X116943684Y-97159197D01*
X116949496Y-97135993D01*
X116957554Y-97113471D01*
X116967782Y-97091847D01*
X116980079Y-97071330D01*
X116994329Y-97052117D01*
X117010393Y-97034393D01*
X117028117Y-97018329D01*
X117047330Y-97004079D01*
X117067847Y-96991782D01*
X117089471Y-96981554D01*
X117111993Y-96973496D01*
X117135197Y-96967684D01*
X117158858Y-96964174D01*
X117182750Y-96963000D01*
X117670250Y-96963000D01*
X117694142Y-96964174D01*
X117694142Y-96964174D01*
G37*
D16*
X117426500Y-97663000D03*
D11*
G36*
X119569142Y-96964174D02*
X119592803Y-96967684D01*
X119616007Y-96973496D01*
X119638529Y-96981554D01*
X119660153Y-96991782D01*
X119680670Y-97004079D01*
X119699883Y-97018329D01*
X119717607Y-97034393D01*
X119733671Y-97052117D01*
X119747921Y-97071330D01*
X119760218Y-97091847D01*
X119770446Y-97113471D01*
X119778504Y-97135993D01*
X119784316Y-97159197D01*
X119787826Y-97182858D01*
X119789000Y-97206750D01*
X119789000Y-98119250D01*
X119787826Y-98143142D01*
X119784316Y-98166803D01*
X119778504Y-98190007D01*
X119770446Y-98212529D01*
X119760218Y-98234153D01*
X119747921Y-98254670D01*
X119733671Y-98273883D01*
X119717607Y-98291607D01*
X119699883Y-98307671D01*
X119680670Y-98321921D01*
X119660153Y-98334218D01*
X119638529Y-98344446D01*
X119616007Y-98352504D01*
X119592803Y-98358316D01*
X119569142Y-98361826D01*
X119545250Y-98363000D01*
X119057750Y-98363000D01*
X119033858Y-98361826D01*
X119010197Y-98358316D01*
X118986993Y-98352504D01*
X118964471Y-98344446D01*
X118942847Y-98334218D01*
X118922330Y-98321921D01*
X118903117Y-98307671D01*
X118885393Y-98291607D01*
X118869329Y-98273883D01*
X118855079Y-98254670D01*
X118842782Y-98234153D01*
X118832554Y-98212529D01*
X118824496Y-98190007D01*
X118818684Y-98166803D01*
X118815174Y-98143142D01*
X118814000Y-98119250D01*
X118814000Y-97206750D01*
X118815174Y-97182858D01*
X118818684Y-97159197D01*
X118824496Y-97135993D01*
X118832554Y-97113471D01*
X118842782Y-97091847D01*
X118855079Y-97071330D01*
X118869329Y-97052117D01*
X118885393Y-97034393D01*
X118903117Y-97018329D01*
X118922330Y-97004079D01*
X118942847Y-96991782D01*
X118964471Y-96981554D01*
X118986993Y-96973496D01*
X119010197Y-96967684D01*
X119033858Y-96964174D01*
X119057750Y-96963000D01*
X119545250Y-96963000D01*
X119569142Y-96964174D01*
X119569142Y-96964174D01*
G37*
D16*
X119301500Y-97663000D03*
G04 #@! TD*
D17*
G04 #@! TO.C,Q1*
X120148000Y-101915000D03*
X120148000Y-100015000D03*
X118148000Y-100965000D03*
G04 #@! TD*
D11*
G04 #@! TO.C,R1*
G36*
X129220691Y-96935053D02*
X129241926Y-96938203D01*
X129262750Y-96943419D01*
X129282962Y-96950651D01*
X129302368Y-96959830D01*
X129320781Y-96970866D01*
X129338024Y-96983654D01*
X129353930Y-96998070D01*
X129368346Y-97013976D01*
X129381134Y-97031219D01*
X129392170Y-97049632D01*
X129401349Y-97069038D01*
X129408581Y-97089250D01*
X129413797Y-97110074D01*
X129416947Y-97131309D01*
X129418000Y-97152750D01*
X129418000Y-97665250D01*
X129416947Y-97686691D01*
X129413797Y-97707926D01*
X129408581Y-97728750D01*
X129401349Y-97748962D01*
X129392170Y-97768368D01*
X129381134Y-97786781D01*
X129368346Y-97804024D01*
X129353930Y-97819930D01*
X129338024Y-97834346D01*
X129320781Y-97847134D01*
X129302368Y-97858170D01*
X129282962Y-97867349D01*
X129262750Y-97874581D01*
X129241926Y-97879797D01*
X129220691Y-97882947D01*
X129199250Y-97884000D01*
X128761750Y-97884000D01*
X128740309Y-97882947D01*
X128719074Y-97879797D01*
X128698250Y-97874581D01*
X128678038Y-97867349D01*
X128658632Y-97858170D01*
X128640219Y-97847134D01*
X128622976Y-97834346D01*
X128607070Y-97819930D01*
X128592654Y-97804024D01*
X128579866Y-97786781D01*
X128568830Y-97768368D01*
X128559651Y-97748962D01*
X128552419Y-97728750D01*
X128547203Y-97707926D01*
X128544053Y-97686691D01*
X128543000Y-97665250D01*
X128543000Y-97152750D01*
X128544053Y-97131309D01*
X128547203Y-97110074D01*
X128552419Y-97089250D01*
X128559651Y-97069038D01*
X128568830Y-97049632D01*
X128579866Y-97031219D01*
X128592654Y-97013976D01*
X128607070Y-96998070D01*
X128622976Y-96983654D01*
X128640219Y-96970866D01*
X128658632Y-96959830D01*
X128678038Y-96950651D01*
X128698250Y-96943419D01*
X128719074Y-96938203D01*
X128740309Y-96935053D01*
X128761750Y-96934000D01*
X129199250Y-96934000D01*
X129220691Y-96935053D01*
X129220691Y-96935053D01*
G37*
D12*
X128980500Y-97409000D03*
D11*
G36*
X130795691Y-96935053D02*
X130816926Y-96938203D01*
X130837750Y-96943419D01*
X130857962Y-96950651D01*
X130877368Y-96959830D01*
X130895781Y-96970866D01*
X130913024Y-96983654D01*
X130928930Y-96998070D01*
X130943346Y-97013976D01*
X130956134Y-97031219D01*
X130967170Y-97049632D01*
X130976349Y-97069038D01*
X130983581Y-97089250D01*
X130988797Y-97110074D01*
X130991947Y-97131309D01*
X130993000Y-97152750D01*
X130993000Y-97665250D01*
X130991947Y-97686691D01*
X130988797Y-97707926D01*
X130983581Y-97728750D01*
X130976349Y-97748962D01*
X130967170Y-97768368D01*
X130956134Y-97786781D01*
X130943346Y-97804024D01*
X130928930Y-97819930D01*
X130913024Y-97834346D01*
X130895781Y-97847134D01*
X130877368Y-97858170D01*
X130857962Y-97867349D01*
X130837750Y-97874581D01*
X130816926Y-97879797D01*
X130795691Y-97882947D01*
X130774250Y-97884000D01*
X130336750Y-97884000D01*
X130315309Y-97882947D01*
X130294074Y-97879797D01*
X130273250Y-97874581D01*
X130253038Y-97867349D01*
X130233632Y-97858170D01*
X130215219Y-97847134D01*
X130197976Y-97834346D01*
X130182070Y-97819930D01*
X130167654Y-97804024D01*
X130154866Y-97786781D01*
X130143830Y-97768368D01*
X130134651Y-97748962D01*
X130127419Y-97728750D01*
X130122203Y-97707926D01*
X130119053Y-97686691D01*
X130118000Y-97665250D01*
X130118000Y-97152750D01*
X130119053Y-97131309D01*
X130122203Y-97110074D01*
X130127419Y-97089250D01*
X130134651Y-97069038D01*
X130143830Y-97049632D01*
X130154866Y-97031219D01*
X130167654Y-97013976D01*
X130182070Y-96998070D01*
X130197976Y-96983654D01*
X130215219Y-96970866D01*
X130233632Y-96959830D01*
X130253038Y-96950651D01*
X130273250Y-96943419D01*
X130294074Y-96938203D01*
X130315309Y-96935053D01*
X130336750Y-96934000D01*
X130774250Y-96934000D01*
X130795691Y-96935053D01*
X130795691Y-96935053D01*
G37*
D12*
X130555500Y-97409000D03*
G04 #@! TD*
D11*
G04 #@! TO.C,R2*
G36*
X153835691Y-101761053D02*
X153856926Y-101764203D01*
X153877750Y-101769419D01*
X153897962Y-101776651D01*
X153917368Y-101785830D01*
X153935781Y-101796866D01*
X153953024Y-101809654D01*
X153968930Y-101824070D01*
X153983346Y-101839976D01*
X153996134Y-101857219D01*
X154007170Y-101875632D01*
X154016349Y-101895038D01*
X154023581Y-101915250D01*
X154028797Y-101936074D01*
X154031947Y-101957309D01*
X154033000Y-101978750D01*
X154033000Y-102491250D01*
X154031947Y-102512691D01*
X154028797Y-102533926D01*
X154023581Y-102554750D01*
X154016349Y-102574962D01*
X154007170Y-102594368D01*
X153996134Y-102612781D01*
X153983346Y-102630024D01*
X153968930Y-102645930D01*
X153953024Y-102660346D01*
X153935781Y-102673134D01*
X153917368Y-102684170D01*
X153897962Y-102693349D01*
X153877750Y-102700581D01*
X153856926Y-102705797D01*
X153835691Y-102708947D01*
X153814250Y-102710000D01*
X153376750Y-102710000D01*
X153355309Y-102708947D01*
X153334074Y-102705797D01*
X153313250Y-102700581D01*
X153293038Y-102693349D01*
X153273632Y-102684170D01*
X153255219Y-102673134D01*
X153237976Y-102660346D01*
X153222070Y-102645930D01*
X153207654Y-102630024D01*
X153194866Y-102612781D01*
X153183830Y-102594368D01*
X153174651Y-102574962D01*
X153167419Y-102554750D01*
X153162203Y-102533926D01*
X153159053Y-102512691D01*
X153158000Y-102491250D01*
X153158000Y-101978750D01*
X153159053Y-101957309D01*
X153162203Y-101936074D01*
X153167419Y-101915250D01*
X153174651Y-101895038D01*
X153183830Y-101875632D01*
X153194866Y-101857219D01*
X153207654Y-101839976D01*
X153222070Y-101824070D01*
X153237976Y-101809654D01*
X153255219Y-101796866D01*
X153273632Y-101785830D01*
X153293038Y-101776651D01*
X153313250Y-101769419D01*
X153334074Y-101764203D01*
X153355309Y-101761053D01*
X153376750Y-101760000D01*
X153814250Y-101760000D01*
X153835691Y-101761053D01*
X153835691Y-101761053D01*
G37*
D12*
X153595500Y-102235000D03*
D11*
G36*
X152260691Y-101761053D02*
X152281926Y-101764203D01*
X152302750Y-101769419D01*
X152322962Y-101776651D01*
X152342368Y-101785830D01*
X152360781Y-101796866D01*
X152378024Y-101809654D01*
X152393930Y-101824070D01*
X152408346Y-101839976D01*
X152421134Y-101857219D01*
X152432170Y-101875632D01*
X152441349Y-101895038D01*
X152448581Y-101915250D01*
X152453797Y-101936074D01*
X152456947Y-101957309D01*
X152458000Y-101978750D01*
X152458000Y-102491250D01*
X152456947Y-102512691D01*
X152453797Y-102533926D01*
X152448581Y-102554750D01*
X152441349Y-102574962D01*
X152432170Y-102594368D01*
X152421134Y-102612781D01*
X152408346Y-102630024D01*
X152393930Y-102645930D01*
X152378024Y-102660346D01*
X152360781Y-102673134D01*
X152342368Y-102684170D01*
X152322962Y-102693349D01*
X152302750Y-102700581D01*
X152281926Y-102705797D01*
X152260691Y-102708947D01*
X152239250Y-102710000D01*
X151801750Y-102710000D01*
X151780309Y-102708947D01*
X151759074Y-102705797D01*
X151738250Y-102700581D01*
X151718038Y-102693349D01*
X151698632Y-102684170D01*
X151680219Y-102673134D01*
X151662976Y-102660346D01*
X151647070Y-102645930D01*
X151632654Y-102630024D01*
X151619866Y-102612781D01*
X151608830Y-102594368D01*
X151599651Y-102574962D01*
X151592419Y-102554750D01*
X151587203Y-102533926D01*
X151584053Y-102512691D01*
X151583000Y-102491250D01*
X151583000Y-101978750D01*
X151584053Y-101957309D01*
X151587203Y-101936074D01*
X151592419Y-101915250D01*
X151599651Y-101895038D01*
X151608830Y-101875632D01*
X151619866Y-101857219D01*
X151632654Y-101839976D01*
X151647070Y-101824070D01*
X151662976Y-101809654D01*
X151680219Y-101796866D01*
X151698632Y-101785830D01*
X151718038Y-101776651D01*
X151738250Y-101769419D01*
X151759074Y-101764203D01*
X151780309Y-101761053D01*
X151801750Y-101760000D01*
X152239250Y-101760000D01*
X152260691Y-101761053D01*
X152260691Y-101761053D01*
G37*
D12*
X152020500Y-102235000D03*
G04 #@! TD*
D18*
G04 #@! TO.C,RN1*
X167990000Y-91313000D03*
D19*
X167990000Y-92913000D03*
X167990000Y-92113000D03*
D18*
X167990000Y-93713000D03*
D19*
X169790000Y-92113000D03*
D18*
X169790000Y-91313000D03*
D19*
X169790000Y-92913000D03*
D18*
X169790000Y-93713000D03*
G04 #@! TD*
G04 #@! TO.C,RN2*
X137646000Y-101213000D03*
D19*
X137646000Y-102813000D03*
X137646000Y-102013000D03*
D18*
X137646000Y-103613000D03*
D19*
X139446000Y-102013000D03*
D18*
X139446000Y-101213000D03*
D19*
X139446000Y-102813000D03*
D18*
X139446000Y-103613000D03*
G04 #@! TD*
G04 #@! TO.C,RN3*
X122518000Y-88945100D03*
D19*
X122518000Y-89745100D03*
D18*
X122518000Y-91345100D03*
D19*
X122518000Y-90545100D03*
D18*
X124318000Y-88945100D03*
D19*
X124318000Y-90545100D03*
X124318000Y-89745100D03*
D18*
X124318000Y-91345100D03*
G04 #@! TD*
G04 #@! TO.C,RN4*
X137646000Y-86170000D03*
D19*
X137646000Y-86970000D03*
D18*
X137646000Y-88570000D03*
D19*
X137646000Y-87770000D03*
D18*
X139446000Y-86170000D03*
D19*
X139446000Y-87770000D03*
X139446000Y-86970000D03*
D18*
X139446000Y-88570000D03*
G04 #@! TD*
D11*
G04 #@! TO.C,RV1*
G36*
X124445691Y-86520053D02*
X124466926Y-86523203D01*
X124487750Y-86528419D01*
X124507962Y-86535651D01*
X124527368Y-86544830D01*
X124545781Y-86555866D01*
X124563024Y-86568654D01*
X124578930Y-86583070D01*
X124593346Y-86598976D01*
X124606134Y-86616219D01*
X124617170Y-86634632D01*
X124626349Y-86654038D01*
X124633581Y-86674250D01*
X124638797Y-86695074D01*
X124641947Y-86716309D01*
X124643000Y-86737750D01*
X124643000Y-87250250D01*
X124641947Y-87271691D01*
X124638797Y-87292926D01*
X124633581Y-87313750D01*
X124626349Y-87333962D01*
X124617170Y-87353368D01*
X124606134Y-87371781D01*
X124593346Y-87389024D01*
X124578930Y-87404930D01*
X124563024Y-87419346D01*
X124545781Y-87432134D01*
X124527368Y-87443170D01*
X124507962Y-87452349D01*
X124487750Y-87459581D01*
X124466926Y-87464797D01*
X124445691Y-87467947D01*
X124424250Y-87469000D01*
X123986750Y-87469000D01*
X123965309Y-87467947D01*
X123944074Y-87464797D01*
X123923250Y-87459581D01*
X123903038Y-87452349D01*
X123883632Y-87443170D01*
X123865219Y-87432134D01*
X123847976Y-87419346D01*
X123832070Y-87404930D01*
X123817654Y-87389024D01*
X123804866Y-87371781D01*
X123793830Y-87353368D01*
X123784651Y-87333962D01*
X123777419Y-87313750D01*
X123772203Y-87292926D01*
X123769053Y-87271691D01*
X123768000Y-87250250D01*
X123768000Y-86737750D01*
X123769053Y-86716309D01*
X123772203Y-86695074D01*
X123777419Y-86674250D01*
X123784651Y-86654038D01*
X123793830Y-86634632D01*
X123804866Y-86616219D01*
X123817654Y-86598976D01*
X123832070Y-86583070D01*
X123847976Y-86568654D01*
X123865219Y-86555866D01*
X123883632Y-86544830D01*
X123903038Y-86535651D01*
X123923250Y-86528419D01*
X123944074Y-86523203D01*
X123965309Y-86520053D01*
X123986750Y-86519000D01*
X124424250Y-86519000D01*
X124445691Y-86520053D01*
X124445691Y-86520053D01*
G37*
D12*
X124205500Y-86994000D03*
D11*
G36*
X122870691Y-86520053D02*
X122891926Y-86523203D01*
X122912750Y-86528419D01*
X122932962Y-86535651D01*
X122952368Y-86544830D01*
X122970781Y-86555866D01*
X122988024Y-86568654D01*
X123003930Y-86583070D01*
X123018346Y-86598976D01*
X123031134Y-86616219D01*
X123042170Y-86634632D01*
X123051349Y-86654038D01*
X123058581Y-86674250D01*
X123063797Y-86695074D01*
X123066947Y-86716309D01*
X123068000Y-86737750D01*
X123068000Y-87250250D01*
X123066947Y-87271691D01*
X123063797Y-87292926D01*
X123058581Y-87313750D01*
X123051349Y-87333962D01*
X123042170Y-87353368D01*
X123031134Y-87371781D01*
X123018346Y-87389024D01*
X123003930Y-87404930D01*
X122988024Y-87419346D01*
X122970781Y-87432134D01*
X122952368Y-87443170D01*
X122932962Y-87452349D01*
X122912750Y-87459581D01*
X122891926Y-87464797D01*
X122870691Y-87467947D01*
X122849250Y-87469000D01*
X122411750Y-87469000D01*
X122390309Y-87467947D01*
X122369074Y-87464797D01*
X122348250Y-87459581D01*
X122328038Y-87452349D01*
X122308632Y-87443170D01*
X122290219Y-87432134D01*
X122272976Y-87419346D01*
X122257070Y-87404930D01*
X122242654Y-87389024D01*
X122229866Y-87371781D01*
X122218830Y-87353368D01*
X122209651Y-87333962D01*
X122202419Y-87313750D01*
X122197203Y-87292926D01*
X122194053Y-87271691D01*
X122193000Y-87250250D01*
X122193000Y-86737750D01*
X122194053Y-86716309D01*
X122197203Y-86695074D01*
X122202419Y-86674250D01*
X122209651Y-86654038D01*
X122218830Y-86634632D01*
X122229866Y-86616219D01*
X122242654Y-86598976D01*
X122257070Y-86583070D01*
X122272976Y-86568654D01*
X122290219Y-86555866D01*
X122308632Y-86544830D01*
X122328038Y-86535651D01*
X122348250Y-86528419D01*
X122369074Y-86523203D01*
X122390309Y-86520053D01*
X122411750Y-86519000D01*
X122849250Y-86519000D01*
X122870691Y-86520053D01*
X122870691Y-86520053D01*
G37*
D12*
X122630500Y-86994000D03*
G04 #@! TD*
D11*
G04 #@! TO.C,RV2*
G36*
X122870691Y-92822153D02*
X122891926Y-92825303D01*
X122912750Y-92830519D01*
X122932962Y-92837751D01*
X122952368Y-92846930D01*
X122970781Y-92857966D01*
X122988024Y-92870754D01*
X123003930Y-92885170D01*
X123018346Y-92901076D01*
X123031134Y-92918319D01*
X123042170Y-92936732D01*
X123051349Y-92956138D01*
X123058581Y-92976350D01*
X123063797Y-92997174D01*
X123066947Y-93018409D01*
X123068000Y-93039850D01*
X123068000Y-93552350D01*
X123066947Y-93573791D01*
X123063797Y-93595026D01*
X123058581Y-93615850D01*
X123051349Y-93636062D01*
X123042170Y-93655468D01*
X123031134Y-93673881D01*
X123018346Y-93691124D01*
X123003930Y-93707030D01*
X122988024Y-93721446D01*
X122970781Y-93734234D01*
X122952368Y-93745270D01*
X122932962Y-93754449D01*
X122912750Y-93761681D01*
X122891926Y-93766897D01*
X122870691Y-93770047D01*
X122849250Y-93771100D01*
X122411750Y-93771100D01*
X122390309Y-93770047D01*
X122369074Y-93766897D01*
X122348250Y-93761681D01*
X122328038Y-93754449D01*
X122308632Y-93745270D01*
X122290219Y-93734234D01*
X122272976Y-93721446D01*
X122257070Y-93707030D01*
X122242654Y-93691124D01*
X122229866Y-93673881D01*
X122218830Y-93655468D01*
X122209651Y-93636062D01*
X122202419Y-93615850D01*
X122197203Y-93595026D01*
X122194053Y-93573791D01*
X122193000Y-93552350D01*
X122193000Y-93039850D01*
X122194053Y-93018409D01*
X122197203Y-92997174D01*
X122202419Y-92976350D01*
X122209651Y-92956138D01*
X122218830Y-92936732D01*
X122229866Y-92918319D01*
X122242654Y-92901076D01*
X122257070Y-92885170D01*
X122272976Y-92870754D01*
X122290219Y-92857966D01*
X122308632Y-92846930D01*
X122328038Y-92837751D01*
X122348250Y-92830519D01*
X122369074Y-92825303D01*
X122390309Y-92822153D01*
X122411750Y-92821100D01*
X122849250Y-92821100D01*
X122870691Y-92822153D01*
X122870691Y-92822153D01*
G37*
D12*
X122630500Y-93296100D03*
D11*
G36*
X124445691Y-92822153D02*
X124466926Y-92825303D01*
X124487750Y-92830519D01*
X124507962Y-92837751D01*
X124527368Y-92846930D01*
X124545781Y-92857966D01*
X124563024Y-92870754D01*
X124578930Y-92885170D01*
X124593346Y-92901076D01*
X124606134Y-92918319D01*
X124617170Y-92936732D01*
X124626349Y-92956138D01*
X124633581Y-92976350D01*
X124638797Y-92997174D01*
X124641947Y-93018409D01*
X124643000Y-93039850D01*
X124643000Y-93552350D01*
X124641947Y-93573791D01*
X124638797Y-93595026D01*
X124633581Y-93615850D01*
X124626349Y-93636062D01*
X124617170Y-93655468D01*
X124606134Y-93673881D01*
X124593346Y-93691124D01*
X124578930Y-93707030D01*
X124563024Y-93721446D01*
X124545781Y-93734234D01*
X124527368Y-93745270D01*
X124507962Y-93754449D01*
X124487750Y-93761681D01*
X124466926Y-93766897D01*
X124445691Y-93770047D01*
X124424250Y-93771100D01*
X123986750Y-93771100D01*
X123965309Y-93770047D01*
X123944074Y-93766897D01*
X123923250Y-93761681D01*
X123903038Y-93754449D01*
X123883632Y-93745270D01*
X123865219Y-93734234D01*
X123847976Y-93721446D01*
X123832070Y-93707030D01*
X123817654Y-93691124D01*
X123804866Y-93673881D01*
X123793830Y-93655468D01*
X123784651Y-93636062D01*
X123777419Y-93615850D01*
X123772203Y-93595026D01*
X123769053Y-93573791D01*
X123768000Y-93552350D01*
X123768000Y-93039850D01*
X123769053Y-93018409D01*
X123772203Y-92997174D01*
X123777419Y-92976350D01*
X123784651Y-92956138D01*
X123793830Y-92936732D01*
X123804866Y-92918319D01*
X123817654Y-92901076D01*
X123832070Y-92885170D01*
X123847976Y-92870754D01*
X123865219Y-92857966D01*
X123883632Y-92846930D01*
X123903038Y-92837751D01*
X123923250Y-92830519D01*
X123944074Y-92825303D01*
X123965309Y-92822153D01*
X123986750Y-92821100D01*
X124424250Y-92821100D01*
X124445691Y-92822153D01*
X124445691Y-92822153D01*
G37*
D12*
X124205500Y-93296100D03*
G04 #@! TD*
D20*
G04 #@! TO.C,U1*
X115468000Y-109855000D03*
D21*
X121768000Y-109855000D03*
X121768000Y-107555000D03*
X121768000Y-112155000D03*
G04 #@! TD*
D22*
G04 #@! TO.C,U2*
X131613000Y-107782000D03*
X131613000Y-107132000D03*
X131613000Y-106482000D03*
X131613000Y-105832000D03*
X127213000Y-105832000D03*
X127213000Y-106482000D03*
X127213000Y-107132000D03*
X127213000Y-107782000D03*
G04 #@! TD*
D23*
G04 #@! TO.C,U3*
X131107000Y-109479000D03*
X131107000Y-110429000D03*
X131107000Y-111379000D03*
X133307000Y-111379000D03*
X133307000Y-109479000D03*
G04 #@! TD*
D11*
G04 #@! TO.C,U4*
G36*
X130515839Y-93720999D02*
X130535981Y-93723987D01*
X130555734Y-93728935D01*
X130574907Y-93735795D01*
X130593315Y-93744501D01*
X130610781Y-93754970D01*
X130627137Y-93767100D01*
X130642225Y-93780775D01*
X130655900Y-93795863D01*
X130668030Y-93812219D01*
X130678499Y-93829685D01*
X130687205Y-93848093D01*
X130694065Y-93867266D01*
X130699013Y-93887019D01*
X130702001Y-93907161D01*
X130703000Y-93927500D01*
X130703000Y-94342500D01*
X130702001Y-94362839D01*
X130699013Y-94382981D01*
X130694065Y-94402734D01*
X130687205Y-94421907D01*
X130678499Y-94440315D01*
X130668030Y-94457781D01*
X130655900Y-94474137D01*
X130642225Y-94489225D01*
X130627137Y-94502900D01*
X130610781Y-94515030D01*
X130593315Y-94525499D01*
X130574907Y-94534205D01*
X130555734Y-94541065D01*
X130535981Y-94546013D01*
X130515839Y-94549001D01*
X130495500Y-94550000D01*
X130080500Y-94550000D01*
X130060161Y-94549001D01*
X130040019Y-94546013D01*
X130020266Y-94541065D01*
X130001093Y-94534205D01*
X129982685Y-94525499D01*
X129965219Y-94515030D01*
X129948863Y-94502900D01*
X129933775Y-94489225D01*
X129920100Y-94474137D01*
X129907970Y-94457781D01*
X129897501Y-94440315D01*
X129888795Y-94421907D01*
X129881935Y-94402734D01*
X129876987Y-94382981D01*
X129873999Y-94362839D01*
X129873000Y-94342500D01*
X129873000Y-93927500D01*
X129873999Y-93907161D01*
X129876987Y-93887019D01*
X129881935Y-93867266D01*
X129888795Y-93848093D01*
X129897501Y-93829685D01*
X129907970Y-93812219D01*
X129920100Y-93795863D01*
X129933775Y-93780775D01*
X129948863Y-93767100D01*
X129965219Y-93754970D01*
X129982685Y-93744501D01*
X130001093Y-93735795D01*
X130020266Y-93728935D01*
X130040019Y-93723987D01*
X130060161Y-93720999D01*
X130080500Y-93720000D01*
X130495500Y-93720000D01*
X130515839Y-93720999D01*
X130515839Y-93720999D01*
G37*
D24*
X130288000Y-94135000D03*
D11*
G36*
X131545839Y-93720999D02*
X131565981Y-93723987D01*
X131585734Y-93728935D01*
X131604907Y-93735795D01*
X131623315Y-93744501D01*
X131640781Y-93754970D01*
X131657137Y-93767100D01*
X131672225Y-93780775D01*
X131685900Y-93795863D01*
X131698030Y-93812219D01*
X131708499Y-93829685D01*
X131717205Y-93848093D01*
X131724065Y-93867266D01*
X131729013Y-93887019D01*
X131732001Y-93907161D01*
X131733000Y-93927500D01*
X131733000Y-94342500D01*
X131732001Y-94362839D01*
X131729013Y-94382981D01*
X131724065Y-94402734D01*
X131717205Y-94421907D01*
X131708499Y-94440315D01*
X131698030Y-94457781D01*
X131685900Y-94474137D01*
X131672225Y-94489225D01*
X131657137Y-94502900D01*
X131640781Y-94515030D01*
X131623315Y-94525499D01*
X131604907Y-94534205D01*
X131585734Y-94541065D01*
X131565981Y-94546013D01*
X131545839Y-94549001D01*
X131525500Y-94550000D01*
X131110500Y-94550000D01*
X131090161Y-94549001D01*
X131070019Y-94546013D01*
X131050266Y-94541065D01*
X131031093Y-94534205D01*
X131012685Y-94525499D01*
X130995219Y-94515030D01*
X130978863Y-94502900D01*
X130963775Y-94489225D01*
X130950100Y-94474137D01*
X130937970Y-94457781D01*
X130927501Y-94440315D01*
X130918795Y-94421907D01*
X130911935Y-94402734D01*
X130906987Y-94382981D01*
X130903999Y-94362839D01*
X130903000Y-94342500D01*
X130903000Y-93927500D01*
X130903999Y-93907161D01*
X130906987Y-93887019D01*
X130911935Y-93867266D01*
X130918795Y-93848093D01*
X130927501Y-93829685D01*
X130937970Y-93812219D01*
X130950100Y-93795863D01*
X130963775Y-93780775D01*
X130978863Y-93767100D01*
X130995219Y-93754970D01*
X131012685Y-93744501D01*
X131031093Y-93735795D01*
X131050266Y-93728935D01*
X131070019Y-93723987D01*
X131090161Y-93720999D01*
X131110500Y-93720000D01*
X131525500Y-93720000D01*
X131545839Y-93720999D01*
X131545839Y-93720999D01*
G37*
D24*
X131318000Y-94135000D03*
D11*
G36*
X132575839Y-93720999D02*
X132595981Y-93723987D01*
X132615734Y-93728935D01*
X132634907Y-93735795D01*
X132653315Y-93744501D01*
X132670781Y-93754970D01*
X132687137Y-93767100D01*
X132702225Y-93780775D01*
X132715900Y-93795863D01*
X132728030Y-93812219D01*
X132738499Y-93829685D01*
X132747205Y-93848093D01*
X132754065Y-93867266D01*
X132759013Y-93887019D01*
X132762001Y-93907161D01*
X132763000Y-93927500D01*
X132763000Y-94342500D01*
X132762001Y-94362839D01*
X132759013Y-94382981D01*
X132754065Y-94402734D01*
X132747205Y-94421907D01*
X132738499Y-94440315D01*
X132728030Y-94457781D01*
X132715900Y-94474137D01*
X132702225Y-94489225D01*
X132687137Y-94502900D01*
X132670781Y-94515030D01*
X132653315Y-94525499D01*
X132634907Y-94534205D01*
X132615734Y-94541065D01*
X132595981Y-94546013D01*
X132575839Y-94549001D01*
X132555500Y-94550000D01*
X132140500Y-94550000D01*
X132120161Y-94549001D01*
X132100019Y-94546013D01*
X132080266Y-94541065D01*
X132061093Y-94534205D01*
X132042685Y-94525499D01*
X132025219Y-94515030D01*
X132008863Y-94502900D01*
X131993775Y-94489225D01*
X131980100Y-94474137D01*
X131967970Y-94457781D01*
X131957501Y-94440315D01*
X131948795Y-94421907D01*
X131941935Y-94402734D01*
X131936987Y-94382981D01*
X131933999Y-94362839D01*
X131933000Y-94342500D01*
X131933000Y-93927500D01*
X131933999Y-93907161D01*
X131936987Y-93887019D01*
X131941935Y-93867266D01*
X131948795Y-93848093D01*
X131957501Y-93829685D01*
X131967970Y-93812219D01*
X131980100Y-93795863D01*
X131993775Y-93780775D01*
X132008863Y-93767100D01*
X132025219Y-93754970D01*
X132042685Y-93744501D01*
X132061093Y-93735795D01*
X132080266Y-93728935D01*
X132100019Y-93723987D01*
X132120161Y-93720999D01*
X132140500Y-93720000D01*
X132555500Y-93720000D01*
X132575839Y-93720999D01*
X132575839Y-93720999D01*
G37*
D24*
X132348000Y-94135000D03*
D11*
G36*
X130515839Y-92690999D02*
X130535981Y-92693987D01*
X130555734Y-92698935D01*
X130574907Y-92705795D01*
X130593315Y-92714501D01*
X130610781Y-92724970D01*
X130627137Y-92737100D01*
X130642225Y-92750775D01*
X130655900Y-92765863D01*
X130668030Y-92782219D01*
X130678499Y-92799685D01*
X130687205Y-92818093D01*
X130694065Y-92837266D01*
X130699013Y-92857019D01*
X130702001Y-92877161D01*
X130703000Y-92897500D01*
X130703000Y-93312500D01*
X130702001Y-93332839D01*
X130699013Y-93352981D01*
X130694065Y-93372734D01*
X130687205Y-93391907D01*
X130678499Y-93410315D01*
X130668030Y-93427781D01*
X130655900Y-93444137D01*
X130642225Y-93459225D01*
X130627137Y-93472900D01*
X130610781Y-93485030D01*
X130593315Y-93495499D01*
X130574907Y-93504205D01*
X130555734Y-93511065D01*
X130535981Y-93516013D01*
X130515839Y-93519001D01*
X130495500Y-93520000D01*
X130080500Y-93520000D01*
X130060161Y-93519001D01*
X130040019Y-93516013D01*
X130020266Y-93511065D01*
X130001093Y-93504205D01*
X129982685Y-93495499D01*
X129965219Y-93485030D01*
X129948863Y-93472900D01*
X129933775Y-93459225D01*
X129920100Y-93444137D01*
X129907970Y-93427781D01*
X129897501Y-93410315D01*
X129888795Y-93391907D01*
X129881935Y-93372734D01*
X129876987Y-93352981D01*
X129873999Y-93332839D01*
X129873000Y-93312500D01*
X129873000Y-92897500D01*
X129873999Y-92877161D01*
X129876987Y-92857019D01*
X129881935Y-92837266D01*
X129888795Y-92818093D01*
X129897501Y-92799685D01*
X129907970Y-92782219D01*
X129920100Y-92765863D01*
X129933775Y-92750775D01*
X129948863Y-92737100D01*
X129965219Y-92724970D01*
X129982685Y-92714501D01*
X130001093Y-92705795D01*
X130020266Y-92698935D01*
X130040019Y-92693987D01*
X130060161Y-92690999D01*
X130080500Y-92690000D01*
X130495500Y-92690000D01*
X130515839Y-92690999D01*
X130515839Y-92690999D01*
G37*
D24*
X130288000Y-93105000D03*
D11*
G36*
X131545839Y-92690999D02*
X131565981Y-92693987D01*
X131585734Y-92698935D01*
X131604907Y-92705795D01*
X131623315Y-92714501D01*
X131640781Y-92724970D01*
X131657137Y-92737100D01*
X131672225Y-92750775D01*
X131685900Y-92765863D01*
X131698030Y-92782219D01*
X131708499Y-92799685D01*
X131717205Y-92818093D01*
X131724065Y-92837266D01*
X131729013Y-92857019D01*
X131732001Y-92877161D01*
X131733000Y-92897500D01*
X131733000Y-93312500D01*
X131732001Y-93332839D01*
X131729013Y-93352981D01*
X131724065Y-93372734D01*
X131717205Y-93391907D01*
X131708499Y-93410315D01*
X131698030Y-93427781D01*
X131685900Y-93444137D01*
X131672225Y-93459225D01*
X131657137Y-93472900D01*
X131640781Y-93485030D01*
X131623315Y-93495499D01*
X131604907Y-93504205D01*
X131585734Y-93511065D01*
X131565981Y-93516013D01*
X131545839Y-93519001D01*
X131525500Y-93520000D01*
X131110500Y-93520000D01*
X131090161Y-93519001D01*
X131070019Y-93516013D01*
X131050266Y-93511065D01*
X131031093Y-93504205D01*
X131012685Y-93495499D01*
X130995219Y-93485030D01*
X130978863Y-93472900D01*
X130963775Y-93459225D01*
X130950100Y-93444137D01*
X130937970Y-93427781D01*
X130927501Y-93410315D01*
X130918795Y-93391907D01*
X130911935Y-93372734D01*
X130906987Y-93352981D01*
X130903999Y-93332839D01*
X130903000Y-93312500D01*
X130903000Y-92897500D01*
X130903999Y-92877161D01*
X130906987Y-92857019D01*
X130911935Y-92837266D01*
X130918795Y-92818093D01*
X130927501Y-92799685D01*
X130937970Y-92782219D01*
X130950100Y-92765863D01*
X130963775Y-92750775D01*
X130978863Y-92737100D01*
X130995219Y-92724970D01*
X131012685Y-92714501D01*
X131031093Y-92705795D01*
X131050266Y-92698935D01*
X131070019Y-92693987D01*
X131090161Y-92690999D01*
X131110500Y-92690000D01*
X131525500Y-92690000D01*
X131545839Y-92690999D01*
X131545839Y-92690999D01*
G37*
D24*
X131318000Y-93105000D03*
D11*
G36*
X132575839Y-92690999D02*
X132595981Y-92693987D01*
X132615734Y-92698935D01*
X132634907Y-92705795D01*
X132653315Y-92714501D01*
X132670781Y-92724970D01*
X132687137Y-92737100D01*
X132702225Y-92750775D01*
X132715900Y-92765863D01*
X132728030Y-92782219D01*
X132738499Y-92799685D01*
X132747205Y-92818093D01*
X132754065Y-92837266D01*
X132759013Y-92857019D01*
X132762001Y-92877161D01*
X132763000Y-92897500D01*
X132763000Y-93312500D01*
X132762001Y-93332839D01*
X132759013Y-93352981D01*
X132754065Y-93372734D01*
X132747205Y-93391907D01*
X132738499Y-93410315D01*
X132728030Y-93427781D01*
X132715900Y-93444137D01*
X132702225Y-93459225D01*
X132687137Y-93472900D01*
X132670781Y-93485030D01*
X132653315Y-93495499D01*
X132634907Y-93504205D01*
X132615734Y-93511065D01*
X132595981Y-93516013D01*
X132575839Y-93519001D01*
X132555500Y-93520000D01*
X132140500Y-93520000D01*
X132120161Y-93519001D01*
X132100019Y-93516013D01*
X132080266Y-93511065D01*
X132061093Y-93504205D01*
X132042685Y-93495499D01*
X132025219Y-93485030D01*
X132008863Y-93472900D01*
X131993775Y-93459225D01*
X131980100Y-93444137D01*
X131967970Y-93427781D01*
X131957501Y-93410315D01*
X131948795Y-93391907D01*
X131941935Y-93372734D01*
X131936987Y-93352981D01*
X131933999Y-93332839D01*
X131933000Y-93312500D01*
X131933000Y-92897500D01*
X131933999Y-92877161D01*
X131936987Y-92857019D01*
X131941935Y-92837266D01*
X131948795Y-92818093D01*
X131957501Y-92799685D01*
X131967970Y-92782219D01*
X131980100Y-92765863D01*
X131993775Y-92750775D01*
X132008863Y-92737100D01*
X132025219Y-92724970D01*
X132042685Y-92714501D01*
X132061093Y-92705795D01*
X132080266Y-92698935D01*
X132100019Y-92693987D01*
X132120161Y-92690999D01*
X132140500Y-92690000D01*
X132555500Y-92690000D01*
X132575839Y-92690999D01*
X132575839Y-92690999D01*
G37*
D24*
X132348000Y-93105000D03*
D11*
G36*
X130515839Y-91660999D02*
X130535981Y-91663987D01*
X130555734Y-91668935D01*
X130574907Y-91675795D01*
X130593315Y-91684501D01*
X130610781Y-91694970D01*
X130627137Y-91707100D01*
X130642225Y-91720775D01*
X130655900Y-91735863D01*
X130668030Y-91752219D01*
X130678499Y-91769685D01*
X130687205Y-91788093D01*
X130694065Y-91807266D01*
X130699013Y-91827019D01*
X130702001Y-91847161D01*
X130703000Y-91867500D01*
X130703000Y-92282500D01*
X130702001Y-92302839D01*
X130699013Y-92322981D01*
X130694065Y-92342734D01*
X130687205Y-92361907D01*
X130678499Y-92380315D01*
X130668030Y-92397781D01*
X130655900Y-92414137D01*
X130642225Y-92429225D01*
X130627137Y-92442900D01*
X130610781Y-92455030D01*
X130593315Y-92465499D01*
X130574907Y-92474205D01*
X130555734Y-92481065D01*
X130535981Y-92486013D01*
X130515839Y-92489001D01*
X130495500Y-92490000D01*
X130080500Y-92490000D01*
X130060161Y-92489001D01*
X130040019Y-92486013D01*
X130020266Y-92481065D01*
X130001093Y-92474205D01*
X129982685Y-92465499D01*
X129965219Y-92455030D01*
X129948863Y-92442900D01*
X129933775Y-92429225D01*
X129920100Y-92414137D01*
X129907970Y-92397781D01*
X129897501Y-92380315D01*
X129888795Y-92361907D01*
X129881935Y-92342734D01*
X129876987Y-92322981D01*
X129873999Y-92302839D01*
X129873000Y-92282500D01*
X129873000Y-91867500D01*
X129873999Y-91847161D01*
X129876987Y-91827019D01*
X129881935Y-91807266D01*
X129888795Y-91788093D01*
X129897501Y-91769685D01*
X129907970Y-91752219D01*
X129920100Y-91735863D01*
X129933775Y-91720775D01*
X129948863Y-91707100D01*
X129965219Y-91694970D01*
X129982685Y-91684501D01*
X130001093Y-91675795D01*
X130020266Y-91668935D01*
X130040019Y-91663987D01*
X130060161Y-91660999D01*
X130080500Y-91660000D01*
X130495500Y-91660000D01*
X130515839Y-91660999D01*
X130515839Y-91660999D01*
G37*
D24*
X130288000Y-92075000D03*
D11*
G36*
X131545839Y-91660999D02*
X131565981Y-91663987D01*
X131585734Y-91668935D01*
X131604907Y-91675795D01*
X131623315Y-91684501D01*
X131640781Y-91694970D01*
X131657137Y-91707100D01*
X131672225Y-91720775D01*
X131685900Y-91735863D01*
X131698030Y-91752219D01*
X131708499Y-91769685D01*
X131717205Y-91788093D01*
X131724065Y-91807266D01*
X131729013Y-91827019D01*
X131732001Y-91847161D01*
X131733000Y-91867500D01*
X131733000Y-92282500D01*
X131732001Y-92302839D01*
X131729013Y-92322981D01*
X131724065Y-92342734D01*
X131717205Y-92361907D01*
X131708499Y-92380315D01*
X131698030Y-92397781D01*
X131685900Y-92414137D01*
X131672225Y-92429225D01*
X131657137Y-92442900D01*
X131640781Y-92455030D01*
X131623315Y-92465499D01*
X131604907Y-92474205D01*
X131585734Y-92481065D01*
X131565981Y-92486013D01*
X131545839Y-92489001D01*
X131525500Y-92490000D01*
X131110500Y-92490000D01*
X131090161Y-92489001D01*
X131070019Y-92486013D01*
X131050266Y-92481065D01*
X131031093Y-92474205D01*
X131012685Y-92465499D01*
X130995219Y-92455030D01*
X130978863Y-92442900D01*
X130963775Y-92429225D01*
X130950100Y-92414137D01*
X130937970Y-92397781D01*
X130927501Y-92380315D01*
X130918795Y-92361907D01*
X130911935Y-92342734D01*
X130906987Y-92322981D01*
X130903999Y-92302839D01*
X130903000Y-92282500D01*
X130903000Y-91867500D01*
X130903999Y-91847161D01*
X130906987Y-91827019D01*
X130911935Y-91807266D01*
X130918795Y-91788093D01*
X130927501Y-91769685D01*
X130937970Y-91752219D01*
X130950100Y-91735863D01*
X130963775Y-91720775D01*
X130978863Y-91707100D01*
X130995219Y-91694970D01*
X131012685Y-91684501D01*
X131031093Y-91675795D01*
X131050266Y-91668935D01*
X131070019Y-91663987D01*
X131090161Y-91660999D01*
X131110500Y-91660000D01*
X131525500Y-91660000D01*
X131545839Y-91660999D01*
X131545839Y-91660999D01*
G37*
D24*
X131318000Y-92075000D03*
D11*
G36*
X132575839Y-91660999D02*
X132595981Y-91663987D01*
X132615734Y-91668935D01*
X132634907Y-91675795D01*
X132653315Y-91684501D01*
X132670781Y-91694970D01*
X132687137Y-91707100D01*
X132702225Y-91720775D01*
X132715900Y-91735863D01*
X132728030Y-91752219D01*
X132738499Y-91769685D01*
X132747205Y-91788093D01*
X132754065Y-91807266D01*
X132759013Y-91827019D01*
X132762001Y-91847161D01*
X132763000Y-91867500D01*
X132763000Y-92282500D01*
X132762001Y-92302839D01*
X132759013Y-92322981D01*
X132754065Y-92342734D01*
X132747205Y-92361907D01*
X132738499Y-92380315D01*
X132728030Y-92397781D01*
X132715900Y-92414137D01*
X132702225Y-92429225D01*
X132687137Y-92442900D01*
X132670781Y-92455030D01*
X132653315Y-92465499D01*
X132634907Y-92474205D01*
X132615734Y-92481065D01*
X132595981Y-92486013D01*
X132575839Y-92489001D01*
X132555500Y-92490000D01*
X132140500Y-92490000D01*
X132120161Y-92489001D01*
X132100019Y-92486013D01*
X132080266Y-92481065D01*
X132061093Y-92474205D01*
X132042685Y-92465499D01*
X132025219Y-92455030D01*
X132008863Y-92442900D01*
X131993775Y-92429225D01*
X131980100Y-92414137D01*
X131967970Y-92397781D01*
X131957501Y-92380315D01*
X131948795Y-92361907D01*
X131941935Y-92342734D01*
X131936987Y-92322981D01*
X131933999Y-92302839D01*
X131933000Y-92282500D01*
X131933000Y-91867500D01*
X131933999Y-91847161D01*
X131936987Y-91827019D01*
X131941935Y-91807266D01*
X131948795Y-91788093D01*
X131957501Y-91769685D01*
X131967970Y-91752219D01*
X131980100Y-91735863D01*
X131993775Y-91720775D01*
X132008863Y-91707100D01*
X132025219Y-91694970D01*
X132042685Y-91684501D01*
X132061093Y-91675795D01*
X132080266Y-91668935D01*
X132100019Y-91663987D01*
X132120161Y-91660999D01*
X132140500Y-91660000D01*
X132555500Y-91660000D01*
X132575839Y-91660999D01*
X132575839Y-91660999D01*
G37*
D24*
X132348000Y-92075000D03*
D11*
G36*
X129636626Y-95105301D02*
X129642693Y-95106201D01*
X129648643Y-95107691D01*
X129654418Y-95109758D01*
X129659962Y-95112380D01*
X129665223Y-95115533D01*
X129670150Y-95119187D01*
X129674694Y-95123306D01*
X129678813Y-95127850D01*
X129682467Y-95132777D01*
X129685620Y-95138038D01*
X129688242Y-95143582D01*
X129690309Y-95149357D01*
X129691799Y-95155307D01*
X129692699Y-95161374D01*
X129693000Y-95167500D01*
X129693000Y-95917500D01*
X129692699Y-95923626D01*
X129691799Y-95929693D01*
X129690309Y-95935643D01*
X129688242Y-95941418D01*
X129685620Y-95946962D01*
X129682467Y-95952223D01*
X129678813Y-95957150D01*
X129674694Y-95961694D01*
X129670150Y-95965813D01*
X129665223Y-95969467D01*
X129659962Y-95972620D01*
X129654418Y-95975242D01*
X129648643Y-95977309D01*
X129642693Y-95978799D01*
X129636626Y-95979699D01*
X129630500Y-95980000D01*
X129505500Y-95980000D01*
X129499374Y-95979699D01*
X129493307Y-95978799D01*
X129487357Y-95977309D01*
X129481582Y-95975242D01*
X129476038Y-95972620D01*
X129470777Y-95969467D01*
X129465850Y-95965813D01*
X129461306Y-95961694D01*
X129457187Y-95957150D01*
X129453533Y-95952223D01*
X129450380Y-95946962D01*
X129447758Y-95941418D01*
X129445691Y-95935643D01*
X129444201Y-95929693D01*
X129443301Y-95923626D01*
X129443000Y-95917500D01*
X129443000Y-95167500D01*
X129443301Y-95161374D01*
X129444201Y-95155307D01*
X129445691Y-95149357D01*
X129447758Y-95143582D01*
X129450380Y-95138038D01*
X129453533Y-95132777D01*
X129457187Y-95127850D01*
X129461306Y-95123306D01*
X129465850Y-95119187D01*
X129470777Y-95115533D01*
X129476038Y-95112380D01*
X129481582Y-95109758D01*
X129487357Y-95107691D01*
X129493307Y-95106201D01*
X129499374Y-95105301D01*
X129505500Y-95105000D01*
X129630500Y-95105000D01*
X129636626Y-95105301D01*
X129636626Y-95105301D01*
G37*
D25*
X129568000Y-95542500D03*
D11*
G36*
X130136626Y-95105301D02*
X130142693Y-95106201D01*
X130148643Y-95107691D01*
X130154418Y-95109758D01*
X130159962Y-95112380D01*
X130165223Y-95115533D01*
X130170150Y-95119187D01*
X130174694Y-95123306D01*
X130178813Y-95127850D01*
X130182467Y-95132777D01*
X130185620Y-95138038D01*
X130188242Y-95143582D01*
X130190309Y-95149357D01*
X130191799Y-95155307D01*
X130192699Y-95161374D01*
X130193000Y-95167500D01*
X130193000Y-95917500D01*
X130192699Y-95923626D01*
X130191799Y-95929693D01*
X130190309Y-95935643D01*
X130188242Y-95941418D01*
X130185620Y-95946962D01*
X130182467Y-95952223D01*
X130178813Y-95957150D01*
X130174694Y-95961694D01*
X130170150Y-95965813D01*
X130165223Y-95969467D01*
X130159962Y-95972620D01*
X130154418Y-95975242D01*
X130148643Y-95977309D01*
X130142693Y-95978799D01*
X130136626Y-95979699D01*
X130130500Y-95980000D01*
X130005500Y-95980000D01*
X129999374Y-95979699D01*
X129993307Y-95978799D01*
X129987357Y-95977309D01*
X129981582Y-95975242D01*
X129976038Y-95972620D01*
X129970777Y-95969467D01*
X129965850Y-95965813D01*
X129961306Y-95961694D01*
X129957187Y-95957150D01*
X129953533Y-95952223D01*
X129950380Y-95946962D01*
X129947758Y-95941418D01*
X129945691Y-95935643D01*
X129944201Y-95929693D01*
X129943301Y-95923626D01*
X129943000Y-95917500D01*
X129943000Y-95167500D01*
X129943301Y-95161374D01*
X129944201Y-95155307D01*
X129945691Y-95149357D01*
X129947758Y-95143582D01*
X129950380Y-95138038D01*
X129953533Y-95132777D01*
X129957187Y-95127850D01*
X129961306Y-95123306D01*
X129965850Y-95119187D01*
X129970777Y-95115533D01*
X129976038Y-95112380D01*
X129981582Y-95109758D01*
X129987357Y-95107691D01*
X129993307Y-95106201D01*
X129999374Y-95105301D01*
X130005500Y-95105000D01*
X130130500Y-95105000D01*
X130136626Y-95105301D01*
X130136626Y-95105301D01*
G37*
D25*
X130068000Y-95542500D03*
D11*
G36*
X130636626Y-95105301D02*
X130642693Y-95106201D01*
X130648643Y-95107691D01*
X130654418Y-95109758D01*
X130659962Y-95112380D01*
X130665223Y-95115533D01*
X130670150Y-95119187D01*
X130674694Y-95123306D01*
X130678813Y-95127850D01*
X130682467Y-95132777D01*
X130685620Y-95138038D01*
X130688242Y-95143582D01*
X130690309Y-95149357D01*
X130691799Y-95155307D01*
X130692699Y-95161374D01*
X130693000Y-95167500D01*
X130693000Y-95917500D01*
X130692699Y-95923626D01*
X130691799Y-95929693D01*
X130690309Y-95935643D01*
X130688242Y-95941418D01*
X130685620Y-95946962D01*
X130682467Y-95952223D01*
X130678813Y-95957150D01*
X130674694Y-95961694D01*
X130670150Y-95965813D01*
X130665223Y-95969467D01*
X130659962Y-95972620D01*
X130654418Y-95975242D01*
X130648643Y-95977309D01*
X130642693Y-95978799D01*
X130636626Y-95979699D01*
X130630500Y-95980000D01*
X130505500Y-95980000D01*
X130499374Y-95979699D01*
X130493307Y-95978799D01*
X130487357Y-95977309D01*
X130481582Y-95975242D01*
X130476038Y-95972620D01*
X130470777Y-95969467D01*
X130465850Y-95965813D01*
X130461306Y-95961694D01*
X130457187Y-95957150D01*
X130453533Y-95952223D01*
X130450380Y-95946962D01*
X130447758Y-95941418D01*
X130445691Y-95935643D01*
X130444201Y-95929693D01*
X130443301Y-95923626D01*
X130443000Y-95917500D01*
X130443000Y-95167500D01*
X130443301Y-95161374D01*
X130444201Y-95155307D01*
X130445691Y-95149357D01*
X130447758Y-95143582D01*
X130450380Y-95138038D01*
X130453533Y-95132777D01*
X130457187Y-95127850D01*
X130461306Y-95123306D01*
X130465850Y-95119187D01*
X130470777Y-95115533D01*
X130476038Y-95112380D01*
X130481582Y-95109758D01*
X130487357Y-95107691D01*
X130493307Y-95106201D01*
X130499374Y-95105301D01*
X130505500Y-95105000D01*
X130630500Y-95105000D01*
X130636626Y-95105301D01*
X130636626Y-95105301D01*
G37*
D25*
X130568000Y-95542500D03*
D11*
G36*
X131136626Y-95105301D02*
X131142693Y-95106201D01*
X131148643Y-95107691D01*
X131154418Y-95109758D01*
X131159962Y-95112380D01*
X131165223Y-95115533D01*
X131170150Y-95119187D01*
X131174694Y-95123306D01*
X131178813Y-95127850D01*
X131182467Y-95132777D01*
X131185620Y-95138038D01*
X131188242Y-95143582D01*
X131190309Y-95149357D01*
X131191799Y-95155307D01*
X131192699Y-95161374D01*
X131193000Y-95167500D01*
X131193000Y-95917500D01*
X131192699Y-95923626D01*
X131191799Y-95929693D01*
X131190309Y-95935643D01*
X131188242Y-95941418D01*
X131185620Y-95946962D01*
X131182467Y-95952223D01*
X131178813Y-95957150D01*
X131174694Y-95961694D01*
X131170150Y-95965813D01*
X131165223Y-95969467D01*
X131159962Y-95972620D01*
X131154418Y-95975242D01*
X131148643Y-95977309D01*
X131142693Y-95978799D01*
X131136626Y-95979699D01*
X131130500Y-95980000D01*
X131005500Y-95980000D01*
X130999374Y-95979699D01*
X130993307Y-95978799D01*
X130987357Y-95977309D01*
X130981582Y-95975242D01*
X130976038Y-95972620D01*
X130970777Y-95969467D01*
X130965850Y-95965813D01*
X130961306Y-95961694D01*
X130957187Y-95957150D01*
X130953533Y-95952223D01*
X130950380Y-95946962D01*
X130947758Y-95941418D01*
X130945691Y-95935643D01*
X130944201Y-95929693D01*
X130943301Y-95923626D01*
X130943000Y-95917500D01*
X130943000Y-95167500D01*
X130943301Y-95161374D01*
X130944201Y-95155307D01*
X130945691Y-95149357D01*
X130947758Y-95143582D01*
X130950380Y-95138038D01*
X130953533Y-95132777D01*
X130957187Y-95127850D01*
X130961306Y-95123306D01*
X130965850Y-95119187D01*
X130970777Y-95115533D01*
X130976038Y-95112380D01*
X130981582Y-95109758D01*
X130987357Y-95107691D01*
X130993307Y-95106201D01*
X130999374Y-95105301D01*
X131005500Y-95105000D01*
X131130500Y-95105000D01*
X131136626Y-95105301D01*
X131136626Y-95105301D01*
G37*
D25*
X131068000Y-95542500D03*
D11*
G36*
X131636626Y-95105301D02*
X131642693Y-95106201D01*
X131648643Y-95107691D01*
X131654418Y-95109758D01*
X131659962Y-95112380D01*
X131665223Y-95115533D01*
X131670150Y-95119187D01*
X131674694Y-95123306D01*
X131678813Y-95127850D01*
X131682467Y-95132777D01*
X131685620Y-95138038D01*
X131688242Y-95143582D01*
X131690309Y-95149357D01*
X131691799Y-95155307D01*
X131692699Y-95161374D01*
X131693000Y-95167500D01*
X131693000Y-95917500D01*
X131692699Y-95923626D01*
X131691799Y-95929693D01*
X131690309Y-95935643D01*
X131688242Y-95941418D01*
X131685620Y-95946962D01*
X131682467Y-95952223D01*
X131678813Y-95957150D01*
X131674694Y-95961694D01*
X131670150Y-95965813D01*
X131665223Y-95969467D01*
X131659962Y-95972620D01*
X131654418Y-95975242D01*
X131648643Y-95977309D01*
X131642693Y-95978799D01*
X131636626Y-95979699D01*
X131630500Y-95980000D01*
X131505500Y-95980000D01*
X131499374Y-95979699D01*
X131493307Y-95978799D01*
X131487357Y-95977309D01*
X131481582Y-95975242D01*
X131476038Y-95972620D01*
X131470777Y-95969467D01*
X131465850Y-95965813D01*
X131461306Y-95961694D01*
X131457187Y-95957150D01*
X131453533Y-95952223D01*
X131450380Y-95946962D01*
X131447758Y-95941418D01*
X131445691Y-95935643D01*
X131444201Y-95929693D01*
X131443301Y-95923626D01*
X131443000Y-95917500D01*
X131443000Y-95167500D01*
X131443301Y-95161374D01*
X131444201Y-95155307D01*
X131445691Y-95149357D01*
X131447758Y-95143582D01*
X131450380Y-95138038D01*
X131453533Y-95132777D01*
X131457187Y-95127850D01*
X131461306Y-95123306D01*
X131465850Y-95119187D01*
X131470777Y-95115533D01*
X131476038Y-95112380D01*
X131481582Y-95109758D01*
X131487357Y-95107691D01*
X131493307Y-95106201D01*
X131499374Y-95105301D01*
X131505500Y-95105000D01*
X131630500Y-95105000D01*
X131636626Y-95105301D01*
X131636626Y-95105301D01*
G37*
D25*
X131568000Y-95542500D03*
D11*
G36*
X132136626Y-95105301D02*
X132142693Y-95106201D01*
X132148643Y-95107691D01*
X132154418Y-95109758D01*
X132159962Y-95112380D01*
X132165223Y-95115533D01*
X132170150Y-95119187D01*
X132174694Y-95123306D01*
X132178813Y-95127850D01*
X132182467Y-95132777D01*
X132185620Y-95138038D01*
X132188242Y-95143582D01*
X132190309Y-95149357D01*
X132191799Y-95155307D01*
X132192699Y-95161374D01*
X132193000Y-95167500D01*
X132193000Y-95917500D01*
X132192699Y-95923626D01*
X132191799Y-95929693D01*
X132190309Y-95935643D01*
X132188242Y-95941418D01*
X132185620Y-95946962D01*
X132182467Y-95952223D01*
X132178813Y-95957150D01*
X132174694Y-95961694D01*
X132170150Y-95965813D01*
X132165223Y-95969467D01*
X132159962Y-95972620D01*
X132154418Y-95975242D01*
X132148643Y-95977309D01*
X132142693Y-95978799D01*
X132136626Y-95979699D01*
X132130500Y-95980000D01*
X132005500Y-95980000D01*
X131999374Y-95979699D01*
X131993307Y-95978799D01*
X131987357Y-95977309D01*
X131981582Y-95975242D01*
X131976038Y-95972620D01*
X131970777Y-95969467D01*
X131965850Y-95965813D01*
X131961306Y-95961694D01*
X131957187Y-95957150D01*
X131953533Y-95952223D01*
X131950380Y-95946962D01*
X131947758Y-95941418D01*
X131945691Y-95935643D01*
X131944201Y-95929693D01*
X131943301Y-95923626D01*
X131943000Y-95917500D01*
X131943000Y-95167500D01*
X131943301Y-95161374D01*
X131944201Y-95155307D01*
X131945691Y-95149357D01*
X131947758Y-95143582D01*
X131950380Y-95138038D01*
X131953533Y-95132777D01*
X131957187Y-95127850D01*
X131961306Y-95123306D01*
X131965850Y-95119187D01*
X131970777Y-95115533D01*
X131976038Y-95112380D01*
X131981582Y-95109758D01*
X131987357Y-95107691D01*
X131993307Y-95106201D01*
X131999374Y-95105301D01*
X132005500Y-95105000D01*
X132130500Y-95105000D01*
X132136626Y-95105301D01*
X132136626Y-95105301D01*
G37*
D25*
X132068000Y-95542500D03*
D11*
G36*
X132636626Y-95105301D02*
X132642693Y-95106201D01*
X132648643Y-95107691D01*
X132654418Y-95109758D01*
X132659962Y-95112380D01*
X132665223Y-95115533D01*
X132670150Y-95119187D01*
X132674694Y-95123306D01*
X132678813Y-95127850D01*
X132682467Y-95132777D01*
X132685620Y-95138038D01*
X132688242Y-95143582D01*
X132690309Y-95149357D01*
X132691799Y-95155307D01*
X132692699Y-95161374D01*
X132693000Y-95167500D01*
X132693000Y-95917500D01*
X132692699Y-95923626D01*
X132691799Y-95929693D01*
X132690309Y-95935643D01*
X132688242Y-95941418D01*
X132685620Y-95946962D01*
X132682467Y-95952223D01*
X132678813Y-95957150D01*
X132674694Y-95961694D01*
X132670150Y-95965813D01*
X132665223Y-95969467D01*
X132659962Y-95972620D01*
X132654418Y-95975242D01*
X132648643Y-95977309D01*
X132642693Y-95978799D01*
X132636626Y-95979699D01*
X132630500Y-95980000D01*
X132505500Y-95980000D01*
X132499374Y-95979699D01*
X132493307Y-95978799D01*
X132487357Y-95977309D01*
X132481582Y-95975242D01*
X132476038Y-95972620D01*
X132470777Y-95969467D01*
X132465850Y-95965813D01*
X132461306Y-95961694D01*
X132457187Y-95957150D01*
X132453533Y-95952223D01*
X132450380Y-95946962D01*
X132447758Y-95941418D01*
X132445691Y-95935643D01*
X132444201Y-95929693D01*
X132443301Y-95923626D01*
X132443000Y-95917500D01*
X132443000Y-95167500D01*
X132443301Y-95161374D01*
X132444201Y-95155307D01*
X132445691Y-95149357D01*
X132447758Y-95143582D01*
X132450380Y-95138038D01*
X132453533Y-95132777D01*
X132457187Y-95127850D01*
X132461306Y-95123306D01*
X132465850Y-95119187D01*
X132470777Y-95115533D01*
X132476038Y-95112380D01*
X132481582Y-95109758D01*
X132487357Y-95107691D01*
X132493307Y-95106201D01*
X132499374Y-95105301D01*
X132505500Y-95105000D01*
X132630500Y-95105000D01*
X132636626Y-95105301D01*
X132636626Y-95105301D01*
G37*
D25*
X132568000Y-95542500D03*
D11*
G36*
X133136626Y-95105301D02*
X133142693Y-95106201D01*
X133148643Y-95107691D01*
X133154418Y-95109758D01*
X133159962Y-95112380D01*
X133165223Y-95115533D01*
X133170150Y-95119187D01*
X133174694Y-95123306D01*
X133178813Y-95127850D01*
X133182467Y-95132777D01*
X133185620Y-95138038D01*
X133188242Y-95143582D01*
X133190309Y-95149357D01*
X133191799Y-95155307D01*
X133192699Y-95161374D01*
X133193000Y-95167500D01*
X133193000Y-95917500D01*
X133192699Y-95923626D01*
X133191799Y-95929693D01*
X133190309Y-95935643D01*
X133188242Y-95941418D01*
X133185620Y-95946962D01*
X133182467Y-95952223D01*
X133178813Y-95957150D01*
X133174694Y-95961694D01*
X133170150Y-95965813D01*
X133165223Y-95969467D01*
X133159962Y-95972620D01*
X133154418Y-95975242D01*
X133148643Y-95977309D01*
X133142693Y-95978799D01*
X133136626Y-95979699D01*
X133130500Y-95980000D01*
X133005500Y-95980000D01*
X132999374Y-95979699D01*
X132993307Y-95978799D01*
X132987357Y-95977309D01*
X132981582Y-95975242D01*
X132976038Y-95972620D01*
X132970777Y-95969467D01*
X132965850Y-95965813D01*
X132961306Y-95961694D01*
X132957187Y-95957150D01*
X132953533Y-95952223D01*
X132950380Y-95946962D01*
X132947758Y-95941418D01*
X132945691Y-95935643D01*
X132944201Y-95929693D01*
X132943301Y-95923626D01*
X132943000Y-95917500D01*
X132943000Y-95167500D01*
X132943301Y-95161374D01*
X132944201Y-95155307D01*
X132945691Y-95149357D01*
X132947758Y-95143582D01*
X132950380Y-95138038D01*
X132953533Y-95132777D01*
X132957187Y-95127850D01*
X132961306Y-95123306D01*
X132965850Y-95119187D01*
X132970777Y-95115533D01*
X132976038Y-95112380D01*
X132981582Y-95109758D01*
X132987357Y-95107691D01*
X132993307Y-95106201D01*
X132999374Y-95105301D01*
X133005500Y-95105000D01*
X133130500Y-95105000D01*
X133136626Y-95105301D01*
X133136626Y-95105301D01*
G37*
D25*
X133068000Y-95542500D03*
D11*
G36*
X134136626Y-94730301D02*
X134142693Y-94731201D01*
X134148643Y-94732691D01*
X134154418Y-94734758D01*
X134159962Y-94737380D01*
X134165223Y-94740533D01*
X134170150Y-94744187D01*
X134174694Y-94748306D01*
X134178813Y-94752850D01*
X134182467Y-94757777D01*
X134185620Y-94763038D01*
X134188242Y-94768582D01*
X134190309Y-94774357D01*
X134191799Y-94780307D01*
X134192699Y-94786374D01*
X134193000Y-94792500D01*
X134193000Y-94917500D01*
X134192699Y-94923626D01*
X134191799Y-94929693D01*
X134190309Y-94935643D01*
X134188242Y-94941418D01*
X134185620Y-94946962D01*
X134182467Y-94952223D01*
X134178813Y-94957150D01*
X134174694Y-94961694D01*
X134170150Y-94965813D01*
X134165223Y-94969467D01*
X134159962Y-94972620D01*
X134154418Y-94975242D01*
X134148643Y-94977309D01*
X134142693Y-94978799D01*
X134136626Y-94979699D01*
X134130500Y-94980000D01*
X133380500Y-94980000D01*
X133374374Y-94979699D01*
X133368307Y-94978799D01*
X133362357Y-94977309D01*
X133356582Y-94975242D01*
X133351038Y-94972620D01*
X133345777Y-94969467D01*
X133340850Y-94965813D01*
X133336306Y-94961694D01*
X133332187Y-94957150D01*
X133328533Y-94952223D01*
X133325380Y-94946962D01*
X133322758Y-94941418D01*
X133320691Y-94935643D01*
X133319201Y-94929693D01*
X133318301Y-94923626D01*
X133318000Y-94917500D01*
X133318000Y-94792500D01*
X133318301Y-94786374D01*
X133319201Y-94780307D01*
X133320691Y-94774357D01*
X133322758Y-94768582D01*
X133325380Y-94763038D01*
X133328533Y-94757777D01*
X133332187Y-94752850D01*
X133336306Y-94748306D01*
X133340850Y-94744187D01*
X133345777Y-94740533D01*
X133351038Y-94737380D01*
X133356582Y-94734758D01*
X133362357Y-94732691D01*
X133368307Y-94731201D01*
X133374374Y-94730301D01*
X133380500Y-94730000D01*
X134130500Y-94730000D01*
X134136626Y-94730301D01*
X134136626Y-94730301D01*
G37*
D25*
X133755500Y-94855000D03*
D11*
G36*
X134136626Y-94230301D02*
X134142693Y-94231201D01*
X134148643Y-94232691D01*
X134154418Y-94234758D01*
X134159962Y-94237380D01*
X134165223Y-94240533D01*
X134170150Y-94244187D01*
X134174694Y-94248306D01*
X134178813Y-94252850D01*
X134182467Y-94257777D01*
X134185620Y-94263038D01*
X134188242Y-94268582D01*
X134190309Y-94274357D01*
X134191799Y-94280307D01*
X134192699Y-94286374D01*
X134193000Y-94292500D01*
X134193000Y-94417500D01*
X134192699Y-94423626D01*
X134191799Y-94429693D01*
X134190309Y-94435643D01*
X134188242Y-94441418D01*
X134185620Y-94446962D01*
X134182467Y-94452223D01*
X134178813Y-94457150D01*
X134174694Y-94461694D01*
X134170150Y-94465813D01*
X134165223Y-94469467D01*
X134159962Y-94472620D01*
X134154418Y-94475242D01*
X134148643Y-94477309D01*
X134142693Y-94478799D01*
X134136626Y-94479699D01*
X134130500Y-94480000D01*
X133380500Y-94480000D01*
X133374374Y-94479699D01*
X133368307Y-94478799D01*
X133362357Y-94477309D01*
X133356582Y-94475242D01*
X133351038Y-94472620D01*
X133345777Y-94469467D01*
X133340850Y-94465813D01*
X133336306Y-94461694D01*
X133332187Y-94457150D01*
X133328533Y-94452223D01*
X133325380Y-94446962D01*
X133322758Y-94441418D01*
X133320691Y-94435643D01*
X133319201Y-94429693D01*
X133318301Y-94423626D01*
X133318000Y-94417500D01*
X133318000Y-94292500D01*
X133318301Y-94286374D01*
X133319201Y-94280307D01*
X133320691Y-94274357D01*
X133322758Y-94268582D01*
X133325380Y-94263038D01*
X133328533Y-94257777D01*
X133332187Y-94252850D01*
X133336306Y-94248306D01*
X133340850Y-94244187D01*
X133345777Y-94240533D01*
X133351038Y-94237380D01*
X133356582Y-94234758D01*
X133362357Y-94232691D01*
X133368307Y-94231201D01*
X133374374Y-94230301D01*
X133380500Y-94230000D01*
X134130500Y-94230000D01*
X134136626Y-94230301D01*
X134136626Y-94230301D01*
G37*
D25*
X133755500Y-94355000D03*
D11*
G36*
X134136626Y-93730301D02*
X134142693Y-93731201D01*
X134148643Y-93732691D01*
X134154418Y-93734758D01*
X134159962Y-93737380D01*
X134165223Y-93740533D01*
X134170150Y-93744187D01*
X134174694Y-93748306D01*
X134178813Y-93752850D01*
X134182467Y-93757777D01*
X134185620Y-93763038D01*
X134188242Y-93768582D01*
X134190309Y-93774357D01*
X134191799Y-93780307D01*
X134192699Y-93786374D01*
X134193000Y-93792500D01*
X134193000Y-93917500D01*
X134192699Y-93923626D01*
X134191799Y-93929693D01*
X134190309Y-93935643D01*
X134188242Y-93941418D01*
X134185620Y-93946962D01*
X134182467Y-93952223D01*
X134178813Y-93957150D01*
X134174694Y-93961694D01*
X134170150Y-93965813D01*
X134165223Y-93969467D01*
X134159962Y-93972620D01*
X134154418Y-93975242D01*
X134148643Y-93977309D01*
X134142693Y-93978799D01*
X134136626Y-93979699D01*
X134130500Y-93980000D01*
X133380500Y-93980000D01*
X133374374Y-93979699D01*
X133368307Y-93978799D01*
X133362357Y-93977309D01*
X133356582Y-93975242D01*
X133351038Y-93972620D01*
X133345777Y-93969467D01*
X133340850Y-93965813D01*
X133336306Y-93961694D01*
X133332187Y-93957150D01*
X133328533Y-93952223D01*
X133325380Y-93946962D01*
X133322758Y-93941418D01*
X133320691Y-93935643D01*
X133319201Y-93929693D01*
X133318301Y-93923626D01*
X133318000Y-93917500D01*
X133318000Y-93792500D01*
X133318301Y-93786374D01*
X133319201Y-93780307D01*
X133320691Y-93774357D01*
X133322758Y-93768582D01*
X133325380Y-93763038D01*
X133328533Y-93757777D01*
X133332187Y-93752850D01*
X133336306Y-93748306D01*
X133340850Y-93744187D01*
X133345777Y-93740533D01*
X133351038Y-93737380D01*
X133356582Y-93734758D01*
X133362357Y-93732691D01*
X133368307Y-93731201D01*
X133374374Y-93730301D01*
X133380500Y-93730000D01*
X134130500Y-93730000D01*
X134136626Y-93730301D01*
X134136626Y-93730301D01*
G37*
D25*
X133755500Y-93855000D03*
D11*
G36*
X134136626Y-93230301D02*
X134142693Y-93231201D01*
X134148643Y-93232691D01*
X134154418Y-93234758D01*
X134159962Y-93237380D01*
X134165223Y-93240533D01*
X134170150Y-93244187D01*
X134174694Y-93248306D01*
X134178813Y-93252850D01*
X134182467Y-93257777D01*
X134185620Y-93263038D01*
X134188242Y-93268582D01*
X134190309Y-93274357D01*
X134191799Y-93280307D01*
X134192699Y-93286374D01*
X134193000Y-93292500D01*
X134193000Y-93417500D01*
X134192699Y-93423626D01*
X134191799Y-93429693D01*
X134190309Y-93435643D01*
X134188242Y-93441418D01*
X134185620Y-93446962D01*
X134182467Y-93452223D01*
X134178813Y-93457150D01*
X134174694Y-93461694D01*
X134170150Y-93465813D01*
X134165223Y-93469467D01*
X134159962Y-93472620D01*
X134154418Y-93475242D01*
X134148643Y-93477309D01*
X134142693Y-93478799D01*
X134136626Y-93479699D01*
X134130500Y-93480000D01*
X133380500Y-93480000D01*
X133374374Y-93479699D01*
X133368307Y-93478799D01*
X133362357Y-93477309D01*
X133356582Y-93475242D01*
X133351038Y-93472620D01*
X133345777Y-93469467D01*
X133340850Y-93465813D01*
X133336306Y-93461694D01*
X133332187Y-93457150D01*
X133328533Y-93452223D01*
X133325380Y-93446962D01*
X133322758Y-93441418D01*
X133320691Y-93435643D01*
X133319201Y-93429693D01*
X133318301Y-93423626D01*
X133318000Y-93417500D01*
X133318000Y-93292500D01*
X133318301Y-93286374D01*
X133319201Y-93280307D01*
X133320691Y-93274357D01*
X133322758Y-93268582D01*
X133325380Y-93263038D01*
X133328533Y-93257777D01*
X133332187Y-93252850D01*
X133336306Y-93248306D01*
X133340850Y-93244187D01*
X133345777Y-93240533D01*
X133351038Y-93237380D01*
X133356582Y-93234758D01*
X133362357Y-93232691D01*
X133368307Y-93231201D01*
X133374374Y-93230301D01*
X133380500Y-93230000D01*
X134130500Y-93230000D01*
X134136626Y-93230301D01*
X134136626Y-93230301D01*
G37*
D25*
X133755500Y-93355000D03*
D11*
G36*
X134136626Y-92730301D02*
X134142693Y-92731201D01*
X134148643Y-92732691D01*
X134154418Y-92734758D01*
X134159962Y-92737380D01*
X134165223Y-92740533D01*
X134170150Y-92744187D01*
X134174694Y-92748306D01*
X134178813Y-92752850D01*
X134182467Y-92757777D01*
X134185620Y-92763038D01*
X134188242Y-92768582D01*
X134190309Y-92774357D01*
X134191799Y-92780307D01*
X134192699Y-92786374D01*
X134193000Y-92792500D01*
X134193000Y-92917500D01*
X134192699Y-92923626D01*
X134191799Y-92929693D01*
X134190309Y-92935643D01*
X134188242Y-92941418D01*
X134185620Y-92946962D01*
X134182467Y-92952223D01*
X134178813Y-92957150D01*
X134174694Y-92961694D01*
X134170150Y-92965813D01*
X134165223Y-92969467D01*
X134159962Y-92972620D01*
X134154418Y-92975242D01*
X134148643Y-92977309D01*
X134142693Y-92978799D01*
X134136626Y-92979699D01*
X134130500Y-92980000D01*
X133380500Y-92980000D01*
X133374374Y-92979699D01*
X133368307Y-92978799D01*
X133362357Y-92977309D01*
X133356582Y-92975242D01*
X133351038Y-92972620D01*
X133345777Y-92969467D01*
X133340850Y-92965813D01*
X133336306Y-92961694D01*
X133332187Y-92957150D01*
X133328533Y-92952223D01*
X133325380Y-92946962D01*
X133322758Y-92941418D01*
X133320691Y-92935643D01*
X133319201Y-92929693D01*
X133318301Y-92923626D01*
X133318000Y-92917500D01*
X133318000Y-92792500D01*
X133318301Y-92786374D01*
X133319201Y-92780307D01*
X133320691Y-92774357D01*
X133322758Y-92768582D01*
X133325380Y-92763038D01*
X133328533Y-92757777D01*
X133332187Y-92752850D01*
X133336306Y-92748306D01*
X133340850Y-92744187D01*
X133345777Y-92740533D01*
X133351038Y-92737380D01*
X133356582Y-92734758D01*
X133362357Y-92732691D01*
X133368307Y-92731201D01*
X133374374Y-92730301D01*
X133380500Y-92730000D01*
X134130500Y-92730000D01*
X134136626Y-92730301D01*
X134136626Y-92730301D01*
G37*
D25*
X133755500Y-92855000D03*
D11*
G36*
X134136626Y-92230301D02*
X134142693Y-92231201D01*
X134148643Y-92232691D01*
X134154418Y-92234758D01*
X134159962Y-92237380D01*
X134165223Y-92240533D01*
X134170150Y-92244187D01*
X134174694Y-92248306D01*
X134178813Y-92252850D01*
X134182467Y-92257777D01*
X134185620Y-92263038D01*
X134188242Y-92268582D01*
X134190309Y-92274357D01*
X134191799Y-92280307D01*
X134192699Y-92286374D01*
X134193000Y-92292500D01*
X134193000Y-92417500D01*
X134192699Y-92423626D01*
X134191799Y-92429693D01*
X134190309Y-92435643D01*
X134188242Y-92441418D01*
X134185620Y-92446962D01*
X134182467Y-92452223D01*
X134178813Y-92457150D01*
X134174694Y-92461694D01*
X134170150Y-92465813D01*
X134165223Y-92469467D01*
X134159962Y-92472620D01*
X134154418Y-92475242D01*
X134148643Y-92477309D01*
X134142693Y-92478799D01*
X134136626Y-92479699D01*
X134130500Y-92480000D01*
X133380500Y-92480000D01*
X133374374Y-92479699D01*
X133368307Y-92478799D01*
X133362357Y-92477309D01*
X133356582Y-92475242D01*
X133351038Y-92472620D01*
X133345777Y-92469467D01*
X133340850Y-92465813D01*
X133336306Y-92461694D01*
X133332187Y-92457150D01*
X133328533Y-92452223D01*
X133325380Y-92446962D01*
X133322758Y-92441418D01*
X133320691Y-92435643D01*
X133319201Y-92429693D01*
X133318301Y-92423626D01*
X133318000Y-92417500D01*
X133318000Y-92292500D01*
X133318301Y-92286374D01*
X133319201Y-92280307D01*
X133320691Y-92274357D01*
X133322758Y-92268582D01*
X133325380Y-92263038D01*
X133328533Y-92257777D01*
X133332187Y-92252850D01*
X133336306Y-92248306D01*
X133340850Y-92244187D01*
X133345777Y-92240533D01*
X133351038Y-92237380D01*
X133356582Y-92234758D01*
X133362357Y-92232691D01*
X133368307Y-92231201D01*
X133374374Y-92230301D01*
X133380500Y-92230000D01*
X134130500Y-92230000D01*
X134136626Y-92230301D01*
X134136626Y-92230301D01*
G37*
D25*
X133755500Y-92355000D03*
D11*
G36*
X134136626Y-91730301D02*
X134142693Y-91731201D01*
X134148643Y-91732691D01*
X134154418Y-91734758D01*
X134159962Y-91737380D01*
X134165223Y-91740533D01*
X134170150Y-91744187D01*
X134174694Y-91748306D01*
X134178813Y-91752850D01*
X134182467Y-91757777D01*
X134185620Y-91763038D01*
X134188242Y-91768582D01*
X134190309Y-91774357D01*
X134191799Y-91780307D01*
X134192699Y-91786374D01*
X134193000Y-91792500D01*
X134193000Y-91917500D01*
X134192699Y-91923626D01*
X134191799Y-91929693D01*
X134190309Y-91935643D01*
X134188242Y-91941418D01*
X134185620Y-91946962D01*
X134182467Y-91952223D01*
X134178813Y-91957150D01*
X134174694Y-91961694D01*
X134170150Y-91965813D01*
X134165223Y-91969467D01*
X134159962Y-91972620D01*
X134154418Y-91975242D01*
X134148643Y-91977309D01*
X134142693Y-91978799D01*
X134136626Y-91979699D01*
X134130500Y-91980000D01*
X133380500Y-91980000D01*
X133374374Y-91979699D01*
X133368307Y-91978799D01*
X133362357Y-91977309D01*
X133356582Y-91975242D01*
X133351038Y-91972620D01*
X133345777Y-91969467D01*
X133340850Y-91965813D01*
X133336306Y-91961694D01*
X133332187Y-91957150D01*
X133328533Y-91952223D01*
X133325380Y-91946962D01*
X133322758Y-91941418D01*
X133320691Y-91935643D01*
X133319201Y-91929693D01*
X133318301Y-91923626D01*
X133318000Y-91917500D01*
X133318000Y-91792500D01*
X133318301Y-91786374D01*
X133319201Y-91780307D01*
X133320691Y-91774357D01*
X133322758Y-91768582D01*
X133325380Y-91763038D01*
X133328533Y-91757777D01*
X133332187Y-91752850D01*
X133336306Y-91748306D01*
X133340850Y-91744187D01*
X133345777Y-91740533D01*
X133351038Y-91737380D01*
X133356582Y-91734758D01*
X133362357Y-91732691D01*
X133368307Y-91731201D01*
X133374374Y-91730301D01*
X133380500Y-91730000D01*
X134130500Y-91730000D01*
X134136626Y-91730301D01*
X134136626Y-91730301D01*
G37*
D25*
X133755500Y-91855000D03*
D11*
G36*
X134136626Y-91230301D02*
X134142693Y-91231201D01*
X134148643Y-91232691D01*
X134154418Y-91234758D01*
X134159962Y-91237380D01*
X134165223Y-91240533D01*
X134170150Y-91244187D01*
X134174694Y-91248306D01*
X134178813Y-91252850D01*
X134182467Y-91257777D01*
X134185620Y-91263038D01*
X134188242Y-91268582D01*
X134190309Y-91274357D01*
X134191799Y-91280307D01*
X134192699Y-91286374D01*
X134193000Y-91292500D01*
X134193000Y-91417500D01*
X134192699Y-91423626D01*
X134191799Y-91429693D01*
X134190309Y-91435643D01*
X134188242Y-91441418D01*
X134185620Y-91446962D01*
X134182467Y-91452223D01*
X134178813Y-91457150D01*
X134174694Y-91461694D01*
X134170150Y-91465813D01*
X134165223Y-91469467D01*
X134159962Y-91472620D01*
X134154418Y-91475242D01*
X134148643Y-91477309D01*
X134142693Y-91478799D01*
X134136626Y-91479699D01*
X134130500Y-91480000D01*
X133380500Y-91480000D01*
X133374374Y-91479699D01*
X133368307Y-91478799D01*
X133362357Y-91477309D01*
X133356582Y-91475242D01*
X133351038Y-91472620D01*
X133345777Y-91469467D01*
X133340850Y-91465813D01*
X133336306Y-91461694D01*
X133332187Y-91457150D01*
X133328533Y-91452223D01*
X133325380Y-91446962D01*
X133322758Y-91441418D01*
X133320691Y-91435643D01*
X133319201Y-91429693D01*
X133318301Y-91423626D01*
X133318000Y-91417500D01*
X133318000Y-91292500D01*
X133318301Y-91286374D01*
X133319201Y-91280307D01*
X133320691Y-91274357D01*
X133322758Y-91268582D01*
X133325380Y-91263038D01*
X133328533Y-91257777D01*
X133332187Y-91252850D01*
X133336306Y-91248306D01*
X133340850Y-91244187D01*
X133345777Y-91240533D01*
X133351038Y-91237380D01*
X133356582Y-91234758D01*
X133362357Y-91232691D01*
X133368307Y-91231201D01*
X133374374Y-91230301D01*
X133380500Y-91230000D01*
X134130500Y-91230000D01*
X134136626Y-91230301D01*
X134136626Y-91230301D01*
G37*
D25*
X133755500Y-91355000D03*
D11*
G36*
X133136626Y-90230301D02*
X133142693Y-90231201D01*
X133148643Y-90232691D01*
X133154418Y-90234758D01*
X133159962Y-90237380D01*
X133165223Y-90240533D01*
X133170150Y-90244187D01*
X133174694Y-90248306D01*
X133178813Y-90252850D01*
X133182467Y-90257777D01*
X133185620Y-90263038D01*
X133188242Y-90268582D01*
X133190309Y-90274357D01*
X133191799Y-90280307D01*
X133192699Y-90286374D01*
X133193000Y-90292500D01*
X133193000Y-91042500D01*
X133192699Y-91048626D01*
X133191799Y-91054693D01*
X133190309Y-91060643D01*
X133188242Y-91066418D01*
X133185620Y-91071962D01*
X133182467Y-91077223D01*
X133178813Y-91082150D01*
X133174694Y-91086694D01*
X133170150Y-91090813D01*
X133165223Y-91094467D01*
X133159962Y-91097620D01*
X133154418Y-91100242D01*
X133148643Y-91102309D01*
X133142693Y-91103799D01*
X133136626Y-91104699D01*
X133130500Y-91105000D01*
X133005500Y-91105000D01*
X132999374Y-91104699D01*
X132993307Y-91103799D01*
X132987357Y-91102309D01*
X132981582Y-91100242D01*
X132976038Y-91097620D01*
X132970777Y-91094467D01*
X132965850Y-91090813D01*
X132961306Y-91086694D01*
X132957187Y-91082150D01*
X132953533Y-91077223D01*
X132950380Y-91071962D01*
X132947758Y-91066418D01*
X132945691Y-91060643D01*
X132944201Y-91054693D01*
X132943301Y-91048626D01*
X132943000Y-91042500D01*
X132943000Y-90292500D01*
X132943301Y-90286374D01*
X132944201Y-90280307D01*
X132945691Y-90274357D01*
X132947758Y-90268582D01*
X132950380Y-90263038D01*
X132953533Y-90257777D01*
X132957187Y-90252850D01*
X132961306Y-90248306D01*
X132965850Y-90244187D01*
X132970777Y-90240533D01*
X132976038Y-90237380D01*
X132981582Y-90234758D01*
X132987357Y-90232691D01*
X132993307Y-90231201D01*
X132999374Y-90230301D01*
X133005500Y-90230000D01*
X133130500Y-90230000D01*
X133136626Y-90230301D01*
X133136626Y-90230301D01*
G37*
D25*
X133068000Y-90667500D03*
D11*
G36*
X132636626Y-90230301D02*
X132642693Y-90231201D01*
X132648643Y-90232691D01*
X132654418Y-90234758D01*
X132659962Y-90237380D01*
X132665223Y-90240533D01*
X132670150Y-90244187D01*
X132674694Y-90248306D01*
X132678813Y-90252850D01*
X132682467Y-90257777D01*
X132685620Y-90263038D01*
X132688242Y-90268582D01*
X132690309Y-90274357D01*
X132691799Y-90280307D01*
X132692699Y-90286374D01*
X132693000Y-90292500D01*
X132693000Y-91042500D01*
X132692699Y-91048626D01*
X132691799Y-91054693D01*
X132690309Y-91060643D01*
X132688242Y-91066418D01*
X132685620Y-91071962D01*
X132682467Y-91077223D01*
X132678813Y-91082150D01*
X132674694Y-91086694D01*
X132670150Y-91090813D01*
X132665223Y-91094467D01*
X132659962Y-91097620D01*
X132654418Y-91100242D01*
X132648643Y-91102309D01*
X132642693Y-91103799D01*
X132636626Y-91104699D01*
X132630500Y-91105000D01*
X132505500Y-91105000D01*
X132499374Y-91104699D01*
X132493307Y-91103799D01*
X132487357Y-91102309D01*
X132481582Y-91100242D01*
X132476038Y-91097620D01*
X132470777Y-91094467D01*
X132465850Y-91090813D01*
X132461306Y-91086694D01*
X132457187Y-91082150D01*
X132453533Y-91077223D01*
X132450380Y-91071962D01*
X132447758Y-91066418D01*
X132445691Y-91060643D01*
X132444201Y-91054693D01*
X132443301Y-91048626D01*
X132443000Y-91042500D01*
X132443000Y-90292500D01*
X132443301Y-90286374D01*
X132444201Y-90280307D01*
X132445691Y-90274357D01*
X132447758Y-90268582D01*
X132450380Y-90263038D01*
X132453533Y-90257777D01*
X132457187Y-90252850D01*
X132461306Y-90248306D01*
X132465850Y-90244187D01*
X132470777Y-90240533D01*
X132476038Y-90237380D01*
X132481582Y-90234758D01*
X132487357Y-90232691D01*
X132493307Y-90231201D01*
X132499374Y-90230301D01*
X132505500Y-90230000D01*
X132630500Y-90230000D01*
X132636626Y-90230301D01*
X132636626Y-90230301D01*
G37*
D25*
X132568000Y-90667500D03*
D11*
G36*
X132136626Y-90230301D02*
X132142693Y-90231201D01*
X132148643Y-90232691D01*
X132154418Y-90234758D01*
X132159962Y-90237380D01*
X132165223Y-90240533D01*
X132170150Y-90244187D01*
X132174694Y-90248306D01*
X132178813Y-90252850D01*
X132182467Y-90257777D01*
X132185620Y-90263038D01*
X132188242Y-90268582D01*
X132190309Y-90274357D01*
X132191799Y-90280307D01*
X132192699Y-90286374D01*
X132193000Y-90292500D01*
X132193000Y-91042500D01*
X132192699Y-91048626D01*
X132191799Y-91054693D01*
X132190309Y-91060643D01*
X132188242Y-91066418D01*
X132185620Y-91071962D01*
X132182467Y-91077223D01*
X132178813Y-91082150D01*
X132174694Y-91086694D01*
X132170150Y-91090813D01*
X132165223Y-91094467D01*
X132159962Y-91097620D01*
X132154418Y-91100242D01*
X132148643Y-91102309D01*
X132142693Y-91103799D01*
X132136626Y-91104699D01*
X132130500Y-91105000D01*
X132005500Y-91105000D01*
X131999374Y-91104699D01*
X131993307Y-91103799D01*
X131987357Y-91102309D01*
X131981582Y-91100242D01*
X131976038Y-91097620D01*
X131970777Y-91094467D01*
X131965850Y-91090813D01*
X131961306Y-91086694D01*
X131957187Y-91082150D01*
X131953533Y-91077223D01*
X131950380Y-91071962D01*
X131947758Y-91066418D01*
X131945691Y-91060643D01*
X131944201Y-91054693D01*
X131943301Y-91048626D01*
X131943000Y-91042500D01*
X131943000Y-90292500D01*
X131943301Y-90286374D01*
X131944201Y-90280307D01*
X131945691Y-90274357D01*
X131947758Y-90268582D01*
X131950380Y-90263038D01*
X131953533Y-90257777D01*
X131957187Y-90252850D01*
X131961306Y-90248306D01*
X131965850Y-90244187D01*
X131970777Y-90240533D01*
X131976038Y-90237380D01*
X131981582Y-90234758D01*
X131987357Y-90232691D01*
X131993307Y-90231201D01*
X131999374Y-90230301D01*
X132005500Y-90230000D01*
X132130500Y-90230000D01*
X132136626Y-90230301D01*
X132136626Y-90230301D01*
G37*
D25*
X132068000Y-90667500D03*
D11*
G36*
X131636626Y-90230301D02*
X131642693Y-90231201D01*
X131648643Y-90232691D01*
X131654418Y-90234758D01*
X131659962Y-90237380D01*
X131665223Y-90240533D01*
X131670150Y-90244187D01*
X131674694Y-90248306D01*
X131678813Y-90252850D01*
X131682467Y-90257777D01*
X131685620Y-90263038D01*
X131688242Y-90268582D01*
X131690309Y-90274357D01*
X131691799Y-90280307D01*
X131692699Y-90286374D01*
X131693000Y-90292500D01*
X131693000Y-91042500D01*
X131692699Y-91048626D01*
X131691799Y-91054693D01*
X131690309Y-91060643D01*
X131688242Y-91066418D01*
X131685620Y-91071962D01*
X131682467Y-91077223D01*
X131678813Y-91082150D01*
X131674694Y-91086694D01*
X131670150Y-91090813D01*
X131665223Y-91094467D01*
X131659962Y-91097620D01*
X131654418Y-91100242D01*
X131648643Y-91102309D01*
X131642693Y-91103799D01*
X131636626Y-91104699D01*
X131630500Y-91105000D01*
X131505500Y-91105000D01*
X131499374Y-91104699D01*
X131493307Y-91103799D01*
X131487357Y-91102309D01*
X131481582Y-91100242D01*
X131476038Y-91097620D01*
X131470777Y-91094467D01*
X131465850Y-91090813D01*
X131461306Y-91086694D01*
X131457187Y-91082150D01*
X131453533Y-91077223D01*
X131450380Y-91071962D01*
X131447758Y-91066418D01*
X131445691Y-91060643D01*
X131444201Y-91054693D01*
X131443301Y-91048626D01*
X131443000Y-91042500D01*
X131443000Y-90292500D01*
X131443301Y-90286374D01*
X131444201Y-90280307D01*
X131445691Y-90274357D01*
X131447758Y-90268582D01*
X131450380Y-90263038D01*
X131453533Y-90257777D01*
X131457187Y-90252850D01*
X131461306Y-90248306D01*
X131465850Y-90244187D01*
X131470777Y-90240533D01*
X131476038Y-90237380D01*
X131481582Y-90234758D01*
X131487357Y-90232691D01*
X131493307Y-90231201D01*
X131499374Y-90230301D01*
X131505500Y-90230000D01*
X131630500Y-90230000D01*
X131636626Y-90230301D01*
X131636626Y-90230301D01*
G37*
D25*
X131568000Y-90667500D03*
D11*
G36*
X131136626Y-90230301D02*
X131142693Y-90231201D01*
X131148643Y-90232691D01*
X131154418Y-90234758D01*
X131159962Y-90237380D01*
X131165223Y-90240533D01*
X131170150Y-90244187D01*
X131174694Y-90248306D01*
X131178813Y-90252850D01*
X131182467Y-90257777D01*
X131185620Y-90263038D01*
X131188242Y-90268582D01*
X131190309Y-90274357D01*
X131191799Y-90280307D01*
X131192699Y-90286374D01*
X131193000Y-90292500D01*
X131193000Y-91042500D01*
X131192699Y-91048626D01*
X131191799Y-91054693D01*
X131190309Y-91060643D01*
X131188242Y-91066418D01*
X131185620Y-91071962D01*
X131182467Y-91077223D01*
X131178813Y-91082150D01*
X131174694Y-91086694D01*
X131170150Y-91090813D01*
X131165223Y-91094467D01*
X131159962Y-91097620D01*
X131154418Y-91100242D01*
X131148643Y-91102309D01*
X131142693Y-91103799D01*
X131136626Y-91104699D01*
X131130500Y-91105000D01*
X131005500Y-91105000D01*
X130999374Y-91104699D01*
X130993307Y-91103799D01*
X130987357Y-91102309D01*
X130981582Y-91100242D01*
X130976038Y-91097620D01*
X130970777Y-91094467D01*
X130965850Y-91090813D01*
X130961306Y-91086694D01*
X130957187Y-91082150D01*
X130953533Y-91077223D01*
X130950380Y-91071962D01*
X130947758Y-91066418D01*
X130945691Y-91060643D01*
X130944201Y-91054693D01*
X130943301Y-91048626D01*
X130943000Y-91042500D01*
X130943000Y-90292500D01*
X130943301Y-90286374D01*
X130944201Y-90280307D01*
X130945691Y-90274357D01*
X130947758Y-90268582D01*
X130950380Y-90263038D01*
X130953533Y-90257777D01*
X130957187Y-90252850D01*
X130961306Y-90248306D01*
X130965850Y-90244187D01*
X130970777Y-90240533D01*
X130976038Y-90237380D01*
X130981582Y-90234758D01*
X130987357Y-90232691D01*
X130993307Y-90231201D01*
X130999374Y-90230301D01*
X131005500Y-90230000D01*
X131130500Y-90230000D01*
X131136626Y-90230301D01*
X131136626Y-90230301D01*
G37*
D25*
X131068000Y-90667500D03*
D11*
G36*
X130636626Y-90230301D02*
X130642693Y-90231201D01*
X130648643Y-90232691D01*
X130654418Y-90234758D01*
X130659962Y-90237380D01*
X130665223Y-90240533D01*
X130670150Y-90244187D01*
X130674694Y-90248306D01*
X130678813Y-90252850D01*
X130682467Y-90257777D01*
X130685620Y-90263038D01*
X130688242Y-90268582D01*
X130690309Y-90274357D01*
X130691799Y-90280307D01*
X130692699Y-90286374D01*
X130693000Y-90292500D01*
X130693000Y-91042500D01*
X130692699Y-91048626D01*
X130691799Y-91054693D01*
X130690309Y-91060643D01*
X130688242Y-91066418D01*
X130685620Y-91071962D01*
X130682467Y-91077223D01*
X130678813Y-91082150D01*
X130674694Y-91086694D01*
X130670150Y-91090813D01*
X130665223Y-91094467D01*
X130659962Y-91097620D01*
X130654418Y-91100242D01*
X130648643Y-91102309D01*
X130642693Y-91103799D01*
X130636626Y-91104699D01*
X130630500Y-91105000D01*
X130505500Y-91105000D01*
X130499374Y-91104699D01*
X130493307Y-91103799D01*
X130487357Y-91102309D01*
X130481582Y-91100242D01*
X130476038Y-91097620D01*
X130470777Y-91094467D01*
X130465850Y-91090813D01*
X130461306Y-91086694D01*
X130457187Y-91082150D01*
X130453533Y-91077223D01*
X130450380Y-91071962D01*
X130447758Y-91066418D01*
X130445691Y-91060643D01*
X130444201Y-91054693D01*
X130443301Y-91048626D01*
X130443000Y-91042500D01*
X130443000Y-90292500D01*
X130443301Y-90286374D01*
X130444201Y-90280307D01*
X130445691Y-90274357D01*
X130447758Y-90268582D01*
X130450380Y-90263038D01*
X130453533Y-90257777D01*
X130457187Y-90252850D01*
X130461306Y-90248306D01*
X130465850Y-90244187D01*
X130470777Y-90240533D01*
X130476038Y-90237380D01*
X130481582Y-90234758D01*
X130487357Y-90232691D01*
X130493307Y-90231201D01*
X130499374Y-90230301D01*
X130505500Y-90230000D01*
X130630500Y-90230000D01*
X130636626Y-90230301D01*
X130636626Y-90230301D01*
G37*
D25*
X130568000Y-90667500D03*
D11*
G36*
X130136626Y-90230301D02*
X130142693Y-90231201D01*
X130148643Y-90232691D01*
X130154418Y-90234758D01*
X130159962Y-90237380D01*
X130165223Y-90240533D01*
X130170150Y-90244187D01*
X130174694Y-90248306D01*
X130178813Y-90252850D01*
X130182467Y-90257777D01*
X130185620Y-90263038D01*
X130188242Y-90268582D01*
X130190309Y-90274357D01*
X130191799Y-90280307D01*
X130192699Y-90286374D01*
X130193000Y-90292500D01*
X130193000Y-91042500D01*
X130192699Y-91048626D01*
X130191799Y-91054693D01*
X130190309Y-91060643D01*
X130188242Y-91066418D01*
X130185620Y-91071962D01*
X130182467Y-91077223D01*
X130178813Y-91082150D01*
X130174694Y-91086694D01*
X130170150Y-91090813D01*
X130165223Y-91094467D01*
X130159962Y-91097620D01*
X130154418Y-91100242D01*
X130148643Y-91102309D01*
X130142693Y-91103799D01*
X130136626Y-91104699D01*
X130130500Y-91105000D01*
X130005500Y-91105000D01*
X129999374Y-91104699D01*
X129993307Y-91103799D01*
X129987357Y-91102309D01*
X129981582Y-91100242D01*
X129976038Y-91097620D01*
X129970777Y-91094467D01*
X129965850Y-91090813D01*
X129961306Y-91086694D01*
X129957187Y-91082150D01*
X129953533Y-91077223D01*
X129950380Y-91071962D01*
X129947758Y-91066418D01*
X129945691Y-91060643D01*
X129944201Y-91054693D01*
X129943301Y-91048626D01*
X129943000Y-91042500D01*
X129943000Y-90292500D01*
X129943301Y-90286374D01*
X129944201Y-90280307D01*
X129945691Y-90274357D01*
X129947758Y-90268582D01*
X129950380Y-90263038D01*
X129953533Y-90257777D01*
X129957187Y-90252850D01*
X129961306Y-90248306D01*
X129965850Y-90244187D01*
X129970777Y-90240533D01*
X129976038Y-90237380D01*
X129981582Y-90234758D01*
X129987357Y-90232691D01*
X129993307Y-90231201D01*
X129999374Y-90230301D01*
X130005500Y-90230000D01*
X130130500Y-90230000D01*
X130136626Y-90230301D01*
X130136626Y-90230301D01*
G37*
D25*
X130068000Y-90667500D03*
D11*
G36*
X129636626Y-90230301D02*
X129642693Y-90231201D01*
X129648643Y-90232691D01*
X129654418Y-90234758D01*
X129659962Y-90237380D01*
X129665223Y-90240533D01*
X129670150Y-90244187D01*
X129674694Y-90248306D01*
X129678813Y-90252850D01*
X129682467Y-90257777D01*
X129685620Y-90263038D01*
X129688242Y-90268582D01*
X129690309Y-90274357D01*
X129691799Y-90280307D01*
X129692699Y-90286374D01*
X129693000Y-90292500D01*
X129693000Y-91042500D01*
X129692699Y-91048626D01*
X129691799Y-91054693D01*
X129690309Y-91060643D01*
X129688242Y-91066418D01*
X129685620Y-91071962D01*
X129682467Y-91077223D01*
X129678813Y-91082150D01*
X129674694Y-91086694D01*
X129670150Y-91090813D01*
X129665223Y-91094467D01*
X129659962Y-91097620D01*
X129654418Y-91100242D01*
X129648643Y-91102309D01*
X129642693Y-91103799D01*
X129636626Y-91104699D01*
X129630500Y-91105000D01*
X129505500Y-91105000D01*
X129499374Y-91104699D01*
X129493307Y-91103799D01*
X129487357Y-91102309D01*
X129481582Y-91100242D01*
X129476038Y-91097620D01*
X129470777Y-91094467D01*
X129465850Y-91090813D01*
X129461306Y-91086694D01*
X129457187Y-91082150D01*
X129453533Y-91077223D01*
X129450380Y-91071962D01*
X129447758Y-91066418D01*
X129445691Y-91060643D01*
X129444201Y-91054693D01*
X129443301Y-91048626D01*
X129443000Y-91042500D01*
X129443000Y-90292500D01*
X129443301Y-90286374D01*
X129444201Y-90280307D01*
X129445691Y-90274357D01*
X129447758Y-90268582D01*
X129450380Y-90263038D01*
X129453533Y-90257777D01*
X129457187Y-90252850D01*
X129461306Y-90248306D01*
X129465850Y-90244187D01*
X129470777Y-90240533D01*
X129476038Y-90237380D01*
X129481582Y-90234758D01*
X129487357Y-90232691D01*
X129493307Y-90231201D01*
X129499374Y-90230301D01*
X129505500Y-90230000D01*
X129630500Y-90230000D01*
X129636626Y-90230301D01*
X129636626Y-90230301D01*
G37*
D25*
X129568000Y-90667500D03*
D11*
G36*
X129261626Y-91230301D02*
X129267693Y-91231201D01*
X129273643Y-91232691D01*
X129279418Y-91234758D01*
X129284962Y-91237380D01*
X129290223Y-91240533D01*
X129295150Y-91244187D01*
X129299694Y-91248306D01*
X129303813Y-91252850D01*
X129307467Y-91257777D01*
X129310620Y-91263038D01*
X129313242Y-91268582D01*
X129315309Y-91274357D01*
X129316799Y-91280307D01*
X129317699Y-91286374D01*
X129318000Y-91292500D01*
X129318000Y-91417500D01*
X129317699Y-91423626D01*
X129316799Y-91429693D01*
X129315309Y-91435643D01*
X129313242Y-91441418D01*
X129310620Y-91446962D01*
X129307467Y-91452223D01*
X129303813Y-91457150D01*
X129299694Y-91461694D01*
X129295150Y-91465813D01*
X129290223Y-91469467D01*
X129284962Y-91472620D01*
X129279418Y-91475242D01*
X129273643Y-91477309D01*
X129267693Y-91478799D01*
X129261626Y-91479699D01*
X129255500Y-91480000D01*
X128505500Y-91480000D01*
X128499374Y-91479699D01*
X128493307Y-91478799D01*
X128487357Y-91477309D01*
X128481582Y-91475242D01*
X128476038Y-91472620D01*
X128470777Y-91469467D01*
X128465850Y-91465813D01*
X128461306Y-91461694D01*
X128457187Y-91457150D01*
X128453533Y-91452223D01*
X128450380Y-91446962D01*
X128447758Y-91441418D01*
X128445691Y-91435643D01*
X128444201Y-91429693D01*
X128443301Y-91423626D01*
X128443000Y-91417500D01*
X128443000Y-91292500D01*
X128443301Y-91286374D01*
X128444201Y-91280307D01*
X128445691Y-91274357D01*
X128447758Y-91268582D01*
X128450380Y-91263038D01*
X128453533Y-91257777D01*
X128457187Y-91252850D01*
X128461306Y-91248306D01*
X128465850Y-91244187D01*
X128470777Y-91240533D01*
X128476038Y-91237380D01*
X128481582Y-91234758D01*
X128487357Y-91232691D01*
X128493307Y-91231201D01*
X128499374Y-91230301D01*
X128505500Y-91230000D01*
X129255500Y-91230000D01*
X129261626Y-91230301D01*
X129261626Y-91230301D01*
G37*
D25*
X128880500Y-91355000D03*
D11*
G36*
X129261626Y-91730301D02*
X129267693Y-91731201D01*
X129273643Y-91732691D01*
X129279418Y-91734758D01*
X129284962Y-91737380D01*
X129290223Y-91740533D01*
X129295150Y-91744187D01*
X129299694Y-91748306D01*
X129303813Y-91752850D01*
X129307467Y-91757777D01*
X129310620Y-91763038D01*
X129313242Y-91768582D01*
X129315309Y-91774357D01*
X129316799Y-91780307D01*
X129317699Y-91786374D01*
X129318000Y-91792500D01*
X129318000Y-91917500D01*
X129317699Y-91923626D01*
X129316799Y-91929693D01*
X129315309Y-91935643D01*
X129313242Y-91941418D01*
X129310620Y-91946962D01*
X129307467Y-91952223D01*
X129303813Y-91957150D01*
X129299694Y-91961694D01*
X129295150Y-91965813D01*
X129290223Y-91969467D01*
X129284962Y-91972620D01*
X129279418Y-91975242D01*
X129273643Y-91977309D01*
X129267693Y-91978799D01*
X129261626Y-91979699D01*
X129255500Y-91980000D01*
X128505500Y-91980000D01*
X128499374Y-91979699D01*
X128493307Y-91978799D01*
X128487357Y-91977309D01*
X128481582Y-91975242D01*
X128476038Y-91972620D01*
X128470777Y-91969467D01*
X128465850Y-91965813D01*
X128461306Y-91961694D01*
X128457187Y-91957150D01*
X128453533Y-91952223D01*
X128450380Y-91946962D01*
X128447758Y-91941418D01*
X128445691Y-91935643D01*
X128444201Y-91929693D01*
X128443301Y-91923626D01*
X128443000Y-91917500D01*
X128443000Y-91792500D01*
X128443301Y-91786374D01*
X128444201Y-91780307D01*
X128445691Y-91774357D01*
X128447758Y-91768582D01*
X128450380Y-91763038D01*
X128453533Y-91757777D01*
X128457187Y-91752850D01*
X128461306Y-91748306D01*
X128465850Y-91744187D01*
X128470777Y-91740533D01*
X128476038Y-91737380D01*
X128481582Y-91734758D01*
X128487357Y-91732691D01*
X128493307Y-91731201D01*
X128499374Y-91730301D01*
X128505500Y-91730000D01*
X129255500Y-91730000D01*
X129261626Y-91730301D01*
X129261626Y-91730301D01*
G37*
D25*
X128880500Y-91855000D03*
D11*
G36*
X129261626Y-92230301D02*
X129267693Y-92231201D01*
X129273643Y-92232691D01*
X129279418Y-92234758D01*
X129284962Y-92237380D01*
X129290223Y-92240533D01*
X129295150Y-92244187D01*
X129299694Y-92248306D01*
X129303813Y-92252850D01*
X129307467Y-92257777D01*
X129310620Y-92263038D01*
X129313242Y-92268582D01*
X129315309Y-92274357D01*
X129316799Y-92280307D01*
X129317699Y-92286374D01*
X129318000Y-92292500D01*
X129318000Y-92417500D01*
X129317699Y-92423626D01*
X129316799Y-92429693D01*
X129315309Y-92435643D01*
X129313242Y-92441418D01*
X129310620Y-92446962D01*
X129307467Y-92452223D01*
X129303813Y-92457150D01*
X129299694Y-92461694D01*
X129295150Y-92465813D01*
X129290223Y-92469467D01*
X129284962Y-92472620D01*
X129279418Y-92475242D01*
X129273643Y-92477309D01*
X129267693Y-92478799D01*
X129261626Y-92479699D01*
X129255500Y-92480000D01*
X128505500Y-92480000D01*
X128499374Y-92479699D01*
X128493307Y-92478799D01*
X128487357Y-92477309D01*
X128481582Y-92475242D01*
X128476038Y-92472620D01*
X128470777Y-92469467D01*
X128465850Y-92465813D01*
X128461306Y-92461694D01*
X128457187Y-92457150D01*
X128453533Y-92452223D01*
X128450380Y-92446962D01*
X128447758Y-92441418D01*
X128445691Y-92435643D01*
X128444201Y-92429693D01*
X128443301Y-92423626D01*
X128443000Y-92417500D01*
X128443000Y-92292500D01*
X128443301Y-92286374D01*
X128444201Y-92280307D01*
X128445691Y-92274357D01*
X128447758Y-92268582D01*
X128450380Y-92263038D01*
X128453533Y-92257777D01*
X128457187Y-92252850D01*
X128461306Y-92248306D01*
X128465850Y-92244187D01*
X128470777Y-92240533D01*
X128476038Y-92237380D01*
X128481582Y-92234758D01*
X128487357Y-92232691D01*
X128493307Y-92231201D01*
X128499374Y-92230301D01*
X128505500Y-92230000D01*
X129255500Y-92230000D01*
X129261626Y-92230301D01*
X129261626Y-92230301D01*
G37*
D25*
X128880500Y-92355000D03*
D11*
G36*
X129261626Y-92730301D02*
X129267693Y-92731201D01*
X129273643Y-92732691D01*
X129279418Y-92734758D01*
X129284962Y-92737380D01*
X129290223Y-92740533D01*
X129295150Y-92744187D01*
X129299694Y-92748306D01*
X129303813Y-92752850D01*
X129307467Y-92757777D01*
X129310620Y-92763038D01*
X129313242Y-92768582D01*
X129315309Y-92774357D01*
X129316799Y-92780307D01*
X129317699Y-92786374D01*
X129318000Y-92792500D01*
X129318000Y-92917500D01*
X129317699Y-92923626D01*
X129316799Y-92929693D01*
X129315309Y-92935643D01*
X129313242Y-92941418D01*
X129310620Y-92946962D01*
X129307467Y-92952223D01*
X129303813Y-92957150D01*
X129299694Y-92961694D01*
X129295150Y-92965813D01*
X129290223Y-92969467D01*
X129284962Y-92972620D01*
X129279418Y-92975242D01*
X129273643Y-92977309D01*
X129267693Y-92978799D01*
X129261626Y-92979699D01*
X129255500Y-92980000D01*
X128505500Y-92980000D01*
X128499374Y-92979699D01*
X128493307Y-92978799D01*
X128487357Y-92977309D01*
X128481582Y-92975242D01*
X128476038Y-92972620D01*
X128470777Y-92969467D01*
X128465850Y-92965813D01*
X128461306Y-92961694D01*
X128457187Y-92957150D01*
X128453533Y-92952223D01*
X128450380Y-92946962D01*
X128447758Y-92941418D01*
X128445691Y-92935643D01*
X128444201Y-92929693D01*
X128443301Y-92923626D01*
X128443000Y-92917500D01*
X128443000Y-92792500D01*
X128443301Y-92786374D01*
X128444201Y-92780307D01*
X128445691Y-92774357D01*
X128447758Y-92768582D01*
X128450380Y-92763038D01*
X128453533Y-92757777D01*
X128457187Y-92752850D01*
X128461306Y-92748306D01*
X128465850Y-92744187D01*
X128470777Y-92740533D01*
X128476038Y-92737380D01*
X128481582Y-92734758D01*
X128487357Y-92732691D01*
X128493307Y-92731201D01*
X128499374Y-92730301D01*
X128505500Y-92730000D01*
X129255500Y-92730000D01*
X129261626Y-92730301D01*
X129261626Y-92730301D01*
G37*
D25*
X128880500Y-92855000D03*
D11*
G36*
X129261626Y-93230301D02*
X129267693Y-93231201D01*
X129273643Y-93232691D01*
X129279418Y-93234758D01*
X129284962Y-93237380D01*
X129290223Y-93240533D01*
X129295150Y-93244187D01*
X129299694Y-93248306D01*
X129303813Y-93252850D01*
X129307467Y-93257777D01*
X129310620Y-93263038D01*
X129313242Y-93268582D01*
X129315309Y-93274357D01*
X129316799Y-93280307D01*
X129317699Y-93286374D01*
X129318000Y-93292500D01*
X129318000Y-93417500D01*
X129317699Y-93423626D01*
X129316799Y-93429693D01*
X129315309Y-93435643D01*
X129313242Y-93441418D01*
X129310620Y-93446962D01*
X129307467Y-93452223D01*
X129303813Y-93457150D01*
X129299694Y-93461694D01*
X129295150Y-93465813D01*
X129290223Y-93469467D01*
X129284962Y-93472620D01*
X129279418Y-93475242D01*
X129273643Y-93477309D01*
X129267693Y-93478799D01*
X129261626Y-93479699D01*
X129255500Y-93480000D01*
X128505500Y-93480000D01*
X128499374Y-93479699D01*
X128493307Y-93478799D01*
X128487357Y-93477309D01*
X128481582Y-93475242D01*
X128476038Y-93472620D01*
X128470777Y-93469467D01*
X128465850Y-93465813D01*
X128461306Y-93461694D01*
X128457187Y-93457150D01*
X128453533Y-93452223D01*
X128450380Y-93446962D01*
X128447758Y-93441418D01*
X128445691Y-93435643D01*
X128444201Y-93429693D01*
X128443301Y-93423626D01*
X128443000Y-93417500D01*
X128443000Y-93292500D01*
X128443301Y-93286374D01*
X128444201Y-93280307D01*
X128445691Y-93274357D01*
X128447758Y-93268582D01*
X128450380Y-93263038D01*
X128453533Y-93257777D01*
X128457187Y-93252850D01*
X128461306Y-93248306D01*
X128465850Y-93244187D01*
X128470777Y-93240533D01*
X128476038Y-93237380D01*
X128481582Y-93234758D01*
X128487357Y-93232691D01*
X128493307Y-93231201D01*
X128499374Y-93230301D01*
X128505500Y-93230000D01*
X129255500Y-93230000D01*
X129261626Y-93230301D01*
X129261626Y-93230301D01*
G37*
D25*
X128880500Y-93355000D03*
D11*
G36*
X129261626Y-93730301D02*
X129267693Y-93731201D01*
X129273643Y-93732691D01*
X129279418Y-93734758D01*
X129284962Y-93737380D01*
X129290223Y-93740533D01*
X129295150Y-93744187D01*
X129299694Y-93748306D01*
X129303813Y-93752850D01*
X129307467Y-93757777D01*
X129310620Y-93763038D01*
X129313242Y-93768582D01*
X129315309Y-93774357D01*
X129316799Y-93780307D01*
X129317699Y-93786374D01*
X129318000Y-93792500D01*
X129318000Y-93917500D01*
X129317699Y-93923626D01*
X129316799Y-93929693D01*
X129315309Y-93935643D01*
X129313242Y-93941418D01*
X129310620Y-93946962D01*
X129307467Y-93952223D01*
X129303813Y-93957150D01*
X129299694Y-93961694D01*
X129295150Y-93965813D01*
X129290223Y-93969467D01*
X129284962Y-93972620D01*
X129279418Y-93975242D01*
X129273643Y-93977309D01*
X129267693Y-93978799D01*
X129261626Y-93979699D01*
X129255500Y-93980000D01*
X128505500Y-93980000D01*
X128499374Y-93979699D01*
X128493307Y-93978799D01*
X128487357Y-93977309D01*
X128481582Y-93975242D01*
X128476038Y-93972620D01*
X128470777Y-93969467D01*
X128465850Y-93965813D01*
X128461306Y-93961694D01*
X128457187Y-93957150D01*
X128453533Y-93952223D01*
X128450380Y-93946962D01*
X128447758Y-93941418D01*
X128445691Y-93935643D01*
X128444201Y-93929693D01*
X128443301Y-93923626D01*
X128443000Y-93917500D01*
X128443000Y-93792500D01*
X128443301Y-93786374D01*
X128444201Y-93780307D01*
X128445691Y-93774357D01*
X128447758Y-93768582D01*
X128450380Y-93763038D01*
X128453533Y-93757777D01*
X128457187Y-93752850D01*
X128461306Y-93748306D01*
X128465850Y-93744187D01*
X128470777Y-93740533D01*
X128476038Y-93737380D01*
X128481582Y-93734758D01*
X128487357Y-93732691D01*
X128493307Y-93731201D01*
X128499374Y-93730301D01*
X128505500Y-93730000D01*
X129255500Y-93730000D01*
X129261626Y-93730301D01*
X129261626Y-93730301D01*
G37*
D25*
X128880500Y-93855000D03*
D11*
G36*
X129261626Y-94230301D02*
X129267693Y-94231201D01*
X129273643Y-94232691D01*
X129279418Y-94234758D01*
X129284962Y-94237380D01*
X129290223Y-94240533D01*
X129295150Y-94244187D01*
X129299694Y-94248306D01*
X129303813Y-94252850D01*
X129307467Y-94257777D01*
X129310620Y-94263038D01*
X129313242Y-94268582D01*
X129315309Y-94274357D01*
X129316799Y-94280307D01*
X129317699Y-94286374D01*
X129318000Y-94292500D01*
X129318000Y-94417500D01*
X129317699Y-94423626D01*
X129316799Y-94429693D01*
X129315309Y-94435643D01*
X129313242Y-94441418D01*
X129310620Y-94446962D01*
X129307467Y-94452223D01*
X129303813Y-94457150D01*
X129299694Y-94461694D01*
X129295150Y-94465813D01*
X129290223Y-94469467D01*
X129284962Y-94472620D01*
X129279418Y-94475242D01*
X129273643Y-94477309D01*
X129267693Y-94478799D01*
X129261626Y-94479699D01*
X129255500Y-94480000D01*
X128505500Y-94480000D01*
X128499374Y-94479699D01*
X128493307Y-94478799D01*
X128487357Y-94477309D01*
X128481582Y-94475242D01*
X128476038Y-94472620D01*
X128470777Y-94469467D01*
X128465850Y-94465813D01*
X128461306Y-94461694D01*
X128457187Y-94457150D01*
X128453533Y-94452223D01*
X128450380Y-94446962D01*
X128447758Y-94441418D01*
X128445691Y-94435643D01*
X128444201Y-94429693D01*
X128443301Y-94423626D01*
X128443000Y-94417500D01*
X128443000Y-94292500D01*
X128443301Y-94286374D01*
X128444201Y-94280307D01*
X128445691Y-94274357D01*
X128447758Y-94268582D01*
X128450380Y-94263038D01*
X128453533Y-94257777D01*
X128457187Y-94252850D01*
X128461306Y-94248306D01*
X128465850Y-94244187D01*
X128470777Y-94240533D01*
X128476038Y-94237380D01*
X128481582Y-94234758D01*
X128487357Y-94232691D01*
X128493307Y-94231201D01*
X128499374Y-94230301D01*
X128505500Y-94230000D01*
X129255500Y-94230000D01*
X129261626Y-94230301D01*
X129261626Y-94230301D01*
G37*
D25*
X128880500Y-94355000D03*
D11*
G36*
X129261626Y-94730301D02*
X129267693Y-94731201D01*
X129273643Y-94732691D01*
X129279418Y-94734758D01*
X129284962Y-94737380D01*
X129290223Y-94740533D01*
X129295150Y-94744187D01*
X129299694Y-94748306D01*
X129303813Y-94752850D01*
X129307467Y-94757777D01*
X129310620Y-94763038D01*
X129313242Y-94768582D01*
X129315309Y-94774357D01*
X129316799Y-94780307D01*
X129317699Y-94786374D01*
X129318000Y-94792500D01*
X129318000Y-94917500D01*
X129317699Y-94923626D01*
X129316799Y-94929693D01*
X129315309Y-94935643D01*
X129313242Y-94941418D01*
X129310620Y-94946962D01*
X129307467Y-94952223D01*
X129303813Y-94957150D01*
X129299694Y-94961694D01*
X129295150Y-94965813D01*
X129290223Y-94969467D01*
X129284962Y-94972620D01*
X129279418Y-94975242D01*
X129273643Y-94977309D01*
X129267693Y-94978799D01*
X129261626Y-94979699D01*
X129255500Y-94980000D01*
X128505500Y-94980000D01*
X128499374Y-94979699D01*
X128493307Y-94978799D01*
X128487357Y-94977309D01*
X128481582Y-94975242D01*
X128476038Y-94972620D01*
X128470777Y-94969467D01*
X128465850Y-94965813D01*
X128461306Y-94961694D01*
X128457187Y-94957150D01*
X128453533Y-94952223D01*
X128450380Y-94946962D01*
X128447758Y-94941418D01*
X128445691Y-94935643D01*
X128444201Y-94929693D01*
X128443301Y-94923626D01*
X128443000Y-94917500D01*
X128443000Y-94792500D01*
X128443301Y-94786374D01*
X128444201Y-94780307D01*
X128445691Y-94774357D01*
X128447758Y-94768582D01*
X128450380Y-94763038D01*
X128453533Y-94757777D01*
X128457187Y-94752850D01*
X128461306Y-94748306D01*
X128465850Y-94744187D01*
X128470777Y-94740533D01*
X128476038Y-94737380D01*
X128481582Y-94734758D01*
X128487357Y-94732691D01*
X128493307Y-94731201D01*
X128499374Y-94730301D01*
X128505500Y-94730000D01*
X129255500Y-94730000D01*
X129261626Y-94730301D01*
X129261626Y-94730301D01*
G37*
D25*
X128880500Y-94855000D03*
G04 #@! TD*
D26*
G04 #@! TO.C,Y1*
X125518000Y-100965000D03*
X134018000Y-100965000D03*
G04 #@! TD*
D27*
G04 #@! TO.C,Y2*
X151708000Y-99695000D03*
X152908000Y-99695000D03*
X154108000Y-99695000D03*
G04 #@! TD*
D11*
G04 #@! TO.C,C1*
G36*
X128590504Y-118062204D02*
X128614773Y-118065804D01*
X128638571Y-118071765D01*
X128661671Y-118080030D01*
X128683849Y-118090520D01*
X128704893Y-118103133D01*
X128724598Y-118117747D01*
X128742777Y-118134223D01*
X128759253Y-118152402D01*
X128773867Y-118172107D01*
X128786480Y-118193151D01*
X128796970Y-118215329D01*
X128805235Y-118238429D01*
X128811196Y-118262227D01*
X128814796Y-118286496D01*
X128816000Y-118311000D01*
X128816000Y-121311000D01*
X128814796Y-121335504D01*
X128811196Y-121359773D01*
X128805235Y-121383571D01*
X128796970Y-121406671D01*
X128786480Y-121428849D01*
X128773867Y-121449893D01*
X128759253Y-121469598D01*
X128742777Y-121487777D01*
X128724598Y-121504253D01*
X128704893Y-121518867D01*
X128683849Y-121531480D01*
X128661671Y-121541970D01*
X128638571Y-121550235D01*
X128614773Y-121556196D01*
X128590504Y-121559796D01*
X128566000Y-121561000D01*
X127466000Y-121561000D01*
X127441496Y-121559796D01*
X127417227Y-121556196D01*
X127393429Y-121550235D01*
X127370329Y-121541970D01*
X127348151Y-121531480D01*
X127327107Y-121518867D01*
X127307402Y-121504253D01*
X127289223Y-121487777D01*
X127272747Y-121469598D01*
X127258133Y-121449893D01*
X127245520Y-121428849D01*
X127235030Y-121406671D01*
X127226765Y-121383571D01*
X127220804Y-121359773D01*
X127217204Y-121335504D01*
X127216000Y-121311000D01*
X127216000Y-118311000D01*
X127217204Y-118286496D01*
X127220804Y-118262227D01*
X127226765Y-118238429D01*
X127235030Y-118215329D01*
X127245520Y-118193151D01*
X127258133Y-118172107D01*
X127272747Y-118152402D01*
X127289223Y-118134223D01*
X127307402Y-118117747D01*
X127327107Y-118103133D01*
X127348151Y-118090520D01*
X127370329Y-118080030D01*
X127393429Y-118071765D01*
X127417227Y-118065804D01*
X127441496Y-118062204D01*
X127466000Y-118061000D01*
X128566000Y-118061000D01*
X128590504Y-118062204D01*
X128590504Y-118062204D01*
G37*
D28*
X128016000Y-119811000D03*
D11*
G36*
X128590504Y-112462204D02*
X128614773Y-112465804D01*
X128638571Y-112471765D01*
X128661671Y-112480030D01*
X128683849Y-112490520D01*
X128704893Y-112503133D01*
X128724598Y-112517747D01*
X128742777Y-112534223D01*
X128759253Y-112552402D01*
X128773867Y-112572107D01*
X128786480Y-112593151D01*
X128796970Y-112615329D01*
X128805235Y-112638429D01*
X128811196Y-112662227D01*
X128814796Y-112686496D01*
X128816000Y-112711000D01*
X128816000Y-115711000D01*
X128814796Y-115735504D01*
X128811196Y-115759773D01*
X128805235Y-115783571D01*
X128796970Y-115806671D01*
X128786480Y-115828849D01*
X128773867Y-115849893D01*
X128759253Y-115869598D01*
X128742777Y-115887777D01*
X128724598Y-115904253D01*
X128704893Y-115918867D01*
X128683849Y-115931480D01*
X128661671Y-115941970D01*
X128638571Y-115950235D01*
X128614773Y-115956196D01*
X128590504Y-115959796D01*
X128566000Y-115961000D01*
X127466000Y-115961000D01*
X127441496Y-115959796D01*
X127417227Y-115956196D01*
X127393429Y-115950235D01*
X127370329Y-115941970D01*
X127348151Y-115931480D01*
X127327107Y-115918867D01*
X127307402Y-115904253D01*
X127289223Y-115887777D01*
X127272747Y-115869598D01*
X127258133Y-115849893D01*
X127245520Y-115828849D01*
X127235030Y-115806671D01*
X127226765Y-115783571D01*
X127220804Y-115759773D01*
X127217204Y-115735504D01*
X127216000Y-115711000D01*
X127216000Y-112711000D01*
X127217204Y-112686496D01*
X127220804Y-112662227D01*
X127226765Y-112638429D01*
X127235030Y-112615329D01*
X127245520Y-112593151D01*
X127258133Y-112572107D01*
X127272747Y-112552402D01*
X127289223Y-112534223D01*
X127307402Y-112517747D01*
X127327107Y-112503133D01*
X127348151Y-112490520D01*
X127370329Y-112480030D01*
X127393429Y-112471765D01*
X127417227Y-112465804D01*
X127441496Y-112462204D01*
X127466000Y-112461000D01*
X128566000Y-112461000D01*
X128590504Y-112462204D01*
X128590504Y-112462204D01*
G37*
D28*
X128016000Y-114211000D03*
G04 #@! TD*
D11*
G04 #@! TO.C,C2*
G36*
X136972504Y-118062204D02*
X136996773Y-118065804D01*
X137020571Y-118071765D01*
X137043671Y-118080030D01*
X137065849Y-118090520D01*
X137086893Y-118103133D01*
X137106598Y-118117747D01*
X137124777Y-118134223D01*
X137141253Y-118152402D01*
X137155867Y-118172107D01*
X137168480Y-118193151D01*
X137178970Y-118215329D01*
X137187235Y-118238429D01*
X137193196Y-118262227D01*
X137196796Y-118286496D01*
X137198000Y-118311000D01*
X137198000Y-121311000D01*
X137196796Y-121335504D01*
X137193196Y-121359773D01*
X137187235Y-121383571D01*
X137178970Y-121406671D01*
X137168480Y-121428849D01*
X137155867Y-121449893D01*
X137141253Y-121469598D01*
X137124777Y-121487777D01*
X137106598Y-121504253D01*
X137086893Y-121518867D01*
X137065849Y-121531480D01*
X137043671Y-121541970D01*
X137020571Y-121550235D01*
X136996773Y-121556196D01*
X136972504Y-121559796D01*
X136948000Y-121561000D01*
X135848000Y-121561000D01*
X135823496Y-121559796D01*
X135799227Y-121556196D01*
X135775429Y-121550235D01*
X135752329Y-121541970D01*
X135730151Y-121531480D01*
X135709107Y-121518867D01*
X135689402Y-121504253D01*
X135671223Y-121487777D01*
X135654747Y-121469598D01*
X135640133Y-121449893D01*
X135627520Y-121428849D01*
X135617030Y-121406671D01*
X135608765Y-121383571D01*
X135602804Y-121359773D01*
X135599204Y-121335504D01*
X135598000Y-121311000D01*
X135598000Y-118311000D01*
X135599204Y-118286496D01*
X135602804Y-118262227D01*
X135608765Y-118238429D01*
X135617030Y-118215329D01*
X135627520Y-118193151D01*
X135640133Y-118172107D01*
X135654747Y-118152402D01*
X135671223Y-118134223D01*
X135689402Y-118117747D01*
X135709107Y-118103133D01*
X135730151Y-118090520D01*
X135752329Y-118080030D01*
X135775429Y-118071765D01*
X135799227Y-118065804D01*
X135823496Y-118062204D01*
X135848000Y-118061000D01*
X136948000Y-118061000D01*
X136972504Y-118062204D01*
X136972504Y-118062204D01*
G37*
D28*
X136398000Y-119811000D03*
D11*
G36*
X136972504Y-112462204D02*
X136996773Y-112465804D01*
X137020571Y-112471765D01*
X137043671Y-112480030D01*
X137065849Y-112490520D01*
X137086893Y-112503133D01*
X137106598Y-112517747D01*
X137124777Y-112534223D01*
X137141253Y-112552402D01*
X137155867Y-112572107D01*
X137168480Y-112593151D01*
X137178970Y-112615329D01*
X137187235Y-112638429D01*
X137193196Y-112662227D01*
X137196796Y-112686496D01*
X137198000Y-112711000D01*
X137198000Y-115711000D01*
X137196796Y-115735504D01*
X137193196Y-115759773D01*
X137187235Y-115783571D01*
X137178970Y-115806671D01*
X137168480Y-115828849D01*
X137155867Y-115849893D01*
X137141253Y-115869598D01*
X137124777Y-115887777D01*
X137106598Y-115904253D01*
X137086893Y-115918867D01*
X137065849Y-115931480D01*
X137043671Y-115941970D01*
X137020571Y-115950235D01*
X136996773Y-115956196D01*
X136972504Y-115959796D01*
X136948000Y-115961000D01*
X135848000Y-115961000D01*
X135823496Y-115959796D01*
X135799227Y-115956196D01*
X135775429Y-115950235D01*
X135752329Y-115941970D01*
X135730151Y-115931480D01*
X135709107Y-115918867D01*
X135689402Y-115904253D01*
X135671223Y-115887777D01*
X135654747Y-115869598D01*
X135640133Y-115849893D01*
X135627520Y-115828849D01*
X135617030Y-115806671D01*
X135608765Y-115783571D01*
X135602804Y-115759773D01*
X135599204Y-115735504D01*
X135598000Y-115711000D01*
X135598000Y-112711000D01*
X135599204Y-112686496D01*
X135602804Y-112662227D01*
X135608765Y-112638429D01*
X135617030Y-112615329D01*
X135627520Y-112593151D01*
X135640133Y-112572107D01*
X135654747Y-112552402D01*
X135671223Y-112534223D01*
X135689402Y-112517747D01*
X135709107Y-112503133D01*
X135730151Y-112490520D01*
X135752329Y-112480030D01*
X135775429Y-112471765D01*
X135799227Y-112465804D01*
X135823496Y-112462204D01*
X135848000Y-112461000D01*
X136948000Y-112461000D01*
X136972504Y-112462204D01*
X136972504Y-112462204D01*
G37*
D28*
X136398000Y-114211000D03*
G04 #@! TD*
M02*
