G04 #@! TF.GenerationSoftware,KiCad,Pcbnew,5.0.2-bee76a0~70~ubuntu18.04.1*
G04 #@! TF.CreationDate,2018-12-20T19:54:29+08:00*
G04 #@! TF.ProjectId,arduino-uno,61726475-696e-46f2-9d75-6e6f2e6b6963,rev?*
G04 #@! TF.SameCoordinates,Original*
G04 #@! TF.FileFunction,Soldermask,Top*
G04 #@! TF.FilePolarity,Negative*
%FSLAX46Y46*%
G04 Gerber Fmt 4.6, Leading zero omitted, Abs format (unit mm)*
G04 Created by KiCad (PCBNEW 5.0.2-bee76a0~70~ubuntu18.04.1) date 2018年12月20日 星期四 19时54分29秒*
%MOMM*%
%LPD*%
G01*
G04 APERTURE LIST*
%ADD10C,0.100000*%
G04 APERTURE END LIST*
D10*
G36*
X125560712Y-121871088D02*
X125930510Y-122024263D01*
X125930513Y-122024265D01*
X126263325Y-122246643D01*
X126546357Y-122529675D01*
X126730204Y-122804822D01*
X126768737Y-122862490D01*
X126921912Y-123232288D01*
X127000000Y-123624864D01*
X127000000Y-124025136D01*
X126921912Y-124417712D01*
X126768737Y-124787510D01*
X126768735Y-124787513D01*
X126546357Y-125120325D01*
X126263325Y-125403357D01*
X125930513Y-125625735D01*
X125930510Y-125625737D01*
X125560712Y-125778912D01*
X125168136Y-125857000D01*
X124767864Y-125857000D01*
X124375288Y-125778912D01*
X124005490Y-125625737D01*
X124005487Y-125625735D01*
X123672675Y-125403357D01*
X123389643Y-125120325D01*
X123167265Y-124787513D01*
X123167263Y-124787510D01*
X123014088Y-124417712D01*
X122936000Y-124025136D01*
X122936000Y-123624864D01*
X123014088Y-123232288D01*
X123167263Y-122862490D01*
X123205796Y-122804822D01*
X123389643Y-122529675D01*
X123672675Y-122246643D01*
X124005487Y-122024265D01*
X124005490Y-122024263D01*
X124375288Y-121871088D01*
X124767864Y-121793000D01*
X125168136Y-121793000D01*
X125560712Y-121871088D01*
X125560712Y-121871088D01*
G37*
G36*
X120173891Y-121711205D02*
X120326200Y-121757407D01*
X120466567Y-121832435D01*
X120589597Y-121933403D01*
X120690565Y-122056433D01*
X120765593Y-122196800D01*
X120811795Y-122349109D01*
X120828000Y-122513640D01*
X120828000Y-124376360D01*
X120811795Y-124540891D01*
X120765593Y-124693200D01*
X120690565Y-124833567D01*
X120589597Y-124956597D01*
X120466567Y-125057565D01*
X120326200Y-125132593D01*
X120173891Y-125178795D01*
X120009360Y-125195000D01*
X118146640Y-125195000D01*
X117982109Y-125178795D01*
X117829800Y-125132593D01*
X117689433Y-125057565D01*
X117566403Y-124956597D01*
X117465435Y-124833567D01*
X117390407Y-124693200D01*
X117344205Y-124540891D01*
X117328000Y-124376360D01*
X117328000Y-122513640D01*
X117344205Y-122349109D01*
X117390407Y-122196800D01*
X117465435Y-122056433D01*
X117566403Y-121933403D01*
X117689433Y-121832435D01*
X117829800Y-121757407D01*
X117982109Y-121711205D01*
X118146640Y-121695000D01*
X120009360Y-121695000D01*
X120173891Y-121711205D01*
X120173891Y-121711205D01*
G37*
G36*
X131108000Y-124979000D02*
X128608000Y-124979000D01*
X128608000Y-123179000D01*
X131108000Y-123179000D01*
X131108000Y-124979000D01*
X131108000Y-124979000D01*
G37*
G36*
X135108000Y-124979000D02*
X132608000Y-124979000D01*
X132608000Y-123179000D01*
X135108000Y-123179000D01*
X135108000Y-124979000D01*
X135108000Y-124979000D01*
G37*
G36*
X167047294Y-122821496D02*
X167167726Y-122858029D01*
X167210087Y-122870879D01*
X167360112Y-122951068D01*
X167491612Y-123058988D01*
X167599532Y-123190488D01*
X167679721Y-123340512D01*
X167692571Y-123382873D01*
X167729104Y-123503305D01*
X167729104Y-123503307D01*
X167741600Y-123630179D01*
X167741600Y-124019820D01*
X167741076Y-124025136D01*
X167729104Y-124146694D01*
X167692571Y-124267128D01*
X167679721Y-124309488D01*
X167599532Y-124459512D01*
X167491612Y-124591012D01*
X167360112Y-124698932D01*
X167210088Y-124779121D01*
X167182433Y-124787510D01*
X167047295Y-124828504D01*
X166934432Y-124839620D01*
X166878001Y-124845178D01*
X166878000Y-124845178D01*
X166708706Y-124828504D01*
X166573568Y-124787510D01*
X166545913Y-124779121D01*
X166395889Y-124698932D01*
X166305946Y-124625117D01*
X166264388Y-124591012D01*
X166156469Y-124459512D01*
X166134127Y-124417713D01*
X166076279Y-124309488D01*
X166063429Y-124267127D01*
X166026896Y-124146695D01*
X166018565Y-124062112D01*
X166014400Y-124019821D01*
X166014400Y-123630180D01*
X166026896Y-123503308D01*
X166026896Y-123503306D01*
X166076278Y-123340517D01*
X166076279Y-123340513D01*
X166156468Y-123190488D01*
X166264388Y-123058988D01*
X166395888Y-122951068D01*
X166545912Y-122870879D01*
X166588273Y-122858029D01*
X166708705Y-122821496D01*
X166821568Y-122810380D01*
X166877999Y-122804822D01*
X166878000Y-122804822D01*
X167047294Y-122821496D01*
X167047294Y-122821496D01*
G37*
G36*
X139107294Y-122821496D02*
X139227726Y-122858029D01*
X139270087Y-122870879D01*
X139420112Y-122951068D01*
X139551612Y-123058988D01*
X139659532Y-123190488D01*
X139739721Y-123340512D01*
X139752571Y-123382873D01*
X139789104Y-123503305D01*
X139789104Y-123503307D01*
X139801600Y-123630179D01*
X139801600Y-124019820D01*
X139801076Y-124025136D01*
X139789104Y-124146694D01*
X139752571Y-124267128D01*
X139739721Y-124309488D01*
X139659532Y-124459512D01*
X139551612Y-124591012D01*
X139420112Y-124698932D01*
X139270088Y-124779121D01*
X139242433Y-124787510D01*
X139107295Y-124828504D01*
X138994432Y-124839620D01*
X138938001Y-124845178D01*
X138938000Y-124845178D01*
X138768706Y-124828504D01*
X138633568Y-124787510D01*
X138605913Y-124779121D01*
X138455889Y-124698932D01*
X138365946Y-124625117D01*
X138324388Y-124591012D01*
X138216469Y-124459512D01*
X138194127Y-124417713D01*
X138136279Y-124309488D01*
X138123429Y-124267127D01*
X138086896Y-124146695D01*
X138078565Y-124062112D01*
X138074400Y-124019821D01*
X138074400Y-123630180D01*
X138086896Y-123503308D01*
X138086896Y-123503306D01*
X138136278Y-123340517D01*
X138136279Y-123340513D01*
X138216468Y-123190488D01*
X138324388Y-123058988D01*
X138455888Y-122951068D01*
X138605912Y-122870879D01*
X138648273Y-122858029D01*
X138768705Y-122821496D01*
X138881568Y-122810380D01*
X138937999Y-122804822D01*
X138938000Y-122804822D01*
X139107294Y-122821496D01*
X139107294Y-122821496D01*
G37*
G36*
X174667294Y-122821496D02*
X174787726Y-122858029D01*
X174830087Y-122870879D01*
X174980112Y-122951068D01*
X175111612Y-123058988D01*
X175219532Y-123190488D01*
X175299721Y-123340512D01*
X175312571Y-123382873D01*
X175349104Y-123503305D01*
X175349104Y-123503307D01*
X175361600Y-123630179D01*
X175361600Y-124019820D01*
X175361076Y-124025136D01*
X175349104Y-124146694D01*
X175312571Y-124267128D01*
X175299721Y-124309488D01*
X175219532Y-124459512D01*
X175111612Y-124591012D01*
X174980112Y-124698932D01*
X174830088Y-124779121D01*
X174802433Y-124787510D01*
X174667295Y-124828504D01*
X174554432Y-124839620D01*
X174498001Y-124845178D01*
X174498000Y-124845178D01*
X174328706Y-124828504D01*
X174193568Y-124787510D01*
X174165913Y-124779121D01*
X174015889Y-124698932D01*
X173925946Y-124625117D01*
X173884388Y-124591012D01*
X173776469Y-124459512D01*
X173754127Y-124417713D01*
X173696279Y-124309488D01*
X173683429Y-124267127D01*
X173646896Y-124146695D01*
X173638565Y-124062112D01*
X173634400Y-124019821D01*
X173634400Y-123630180D01*
X173646896Y-123503308D01*
X173646896Y-123503306D01*
X173696278Y-123340517D01*
X173696279Y-123340513D01*
X173776468Y-123190488D01*
X173884388Y-123058988D01*
X174015888Y-122951068D01*
X174165912Y-122870879D01*
X174208273Y-122858029D01*
X174328705Y-122821496D01*
X174441568Y-122810380D01*
X174497999Y-122804822D01*
X174498000Y-122804822D01*
X174667294Y-122821496D01*
X174667294Y-122821496D01*
G37*
G36*
X172127294Y-122821496D02*
X172247726Y-122858029D01*
X172290087Y-122870879D01*
X172440112Y-122951068D01*
X172571612Y-123058988D01*
X172679532Y-123190488D01*
X172759721Y-123340512D01*
X172772571Y-123382873D01*
X172809104Y-123503305D01*
X172809104Y-123503307D01*
X172821600Y-123630179D01*
X172821600Y-124019820D01*
X172821076Y-124025136D01*
X172809104Y-124146694D01*
X172772571Y-124267128D01*
X172759721Y-124309488D01*
X172679532Y-124459512D01*
X172571612Y-124591012D01*
X172440112Y-124698932D01*
X172290088Y-124779121D01*
X172262433Y-124787510D01*
X172127295Y-124828504D01*
X172014432Y-124839620D01*
X171958001Y-124845178D01*
X171958000Y-124845178D01*
X171788706Y-124828504D01*
X171653568Y-124787510D01*
X171625913Y-124779121D01*
X171475889Y-124698932D01*
X171385946Y-124625117D01*
X171344388Y-124591012D01*
X171236469Y-124459512D01*
X171214127Y-124417713D01*
X171156279Y-124309488D01*
X171143429Y-124267127D01*
X171106896Y-124146695D01*
X171098565Y-124062112D01*
X171094400Y-124019821D01*
X171094400Y-123630180D01*
X171106896Y-123503308D01*
X171106896Y-123503306D01*
X171156278Y-123340517D01*
X171156279Y-123340513D01*
X171236468Y-123190488D01*
X171344388Y-123058988D01*
X171475888Y-122951068D01*
X171625912Y-122870879D01*
X171668273Y-122858029D01*
X171788705Y-122821496D01*
X171901568Y-122810380D01*
X171957999Y-122804822D01*
X171958000Y-122804822D01*
X172127294Y-122821496D01*
X172127294Y-122821496D01*
G37*
G36*
X169587294Y-122821496D02*
X169707726Y-122858029D01*
X169750087Y-122870879D01*
X169900112Y-122951068D01*
X170031612Y-123058988D01*
X170139532Y-123190488D01*
X170219721Y-123340512D01*
X170232571Y-123382873D01*
X170269104Y-123503305D01*
X170269104Y-123503307D01*
X170281600Y-123630179D01*
X170281600Y-124019820D01*
X170281076Y-124025136D01*
X170269104Y-124146694D01*
X170232571Y-124267128D01*
X170219721Y-124309488D01*
X170139532Y-124459512D01*
X170031612Y-124591012D01*
X169900112Y-124698932D01*
X169750088Y-124779121D01*
X169722433Y-124787510D01*
X169587295Y-124828504D01*
X169474432Y-124839620D01*
X169418001Y-124845178D01*
X169418000Y-124845178D01*
X169248706Y-124828504D01*
X169113568Y-124787510D01*
X169085913Y-124779121D01*
X168935889Y-124698932D01*
X168845946Y-124625117D01*
X168804388Y-124591012D01*
X168696469Y-124459512D01*
X168674127Y-124417713D01*
X168616279Y-124309488D01*
X168603429Y-124267127D01*
X168566896Y-124146695D01*
X168558565Y-124062112D01*
X168554400Y-124019821D01*
X168554400Y-123630180D01*
X168566896Y-123503308D01*
X168566896Y-123503306D01*
X168616278Y-123340517D01*
X168616279Y-123340513D01*
X168696468Y-123190488D01*
X168804388Y-123058988D01*
X168935888Y-122951068D01*
X169085912Y-122870879D01*
X169128273Y-122858029D01*
X169248705Y-122821496D01*
X169361568Y-122810380D01*
X169417999Y-122804822D01*
X169418000Y-122804822D01*
X169587294Y-122821496D01*
X169587294Y-122821496D01*
G37*
G36*
X141647294Y-122821496D02*
X141767726Y-122858029D01*
X141810087Y-122870879D01*
X141960112Y-122951068D01*
X142091612Y-123058988D01*
X142199532Y-123190488D01*
X142279721Y-123340512D01*
X142292571Y-123382873D01*
X142329104Y-123503305D01*
X142329104Y-123503307D01*
X142341600Y-123630179D01*
X142341600Y-124019820D01*
X142341076Y-124025136D01*
X142329104Y-124146694D01*
X142292571Y-124267128D01*
X142279721Y-124309488D01*
X142199532Y-124459512D01*
X142091612Y-124591012D01*
X141960112Y-124698932D01*
X141810088Y-124779121D01*
X141782433Y-124787510D01*
X141647295Y-124828504D01*
X141534432Y-124839620D01*
X141478001Y-124845178D01*
X141478000Y-124845178D01*
X141308706Y-124828504D01*
X141173568Y-124787510D01*
X141145913Y-124779121D01*
X140995889Y-124698932D01*
X140905946Y-124625117D01*
X140864388Y-124591012D01*
X140756469Y-124459512D01*
X140734127Y-124417713D01*
X140676279Y-124309488D01*
X140663429Y-124267127D01*
X140626896Y-124146695D01*
X140618565Y-124062112D01*
X140614400Y-124019821D01*
X140614400Y-123630180D01*
X140626896Y-123503308D01*
X140626896Y-123503306D01*
X140676278Y-123340517D01*
X140676279Y-123340513D01*
X140756468Y-123190488D01*
X140864388Y-123058988D01*
X140995888Y-122951068D01*
X141145912Y-122870879D01*
X141188273Y-122858029D01*
X141308705Y-122821496D01*
X141421568Y-122810380D01*
X141477999Y-122804822D01*
X141478000Y-122804822D01*
X141647294Y-122821496D01*
X141647294Y-122821496D01*
G37*
G36*
X164507294Y-122821496D02*
X164627726Y-122858029D01*
X164670087Y-122870879D01*
X164820112Y-122951068D01*
X164951612Y-123058988D01*
X165059532Y-123190488D01*
X165139721Y-123340512D01*
X165152571Y-123382873D01*
X165189104Y-123503305D01*
X165189104Y-123503307D01*
X165201600Y-123630179D01*
X165201600Y-124019820D01*
X165201076Y-124025136D01*
X165189104Y-124146694D01*
X165152571Y-124267128D01*
X165139721Y-124309488D01*
X165059532Y-124459512D01*
X164951612Y-124591012D01*
X164820112Y-124698932D01*
X164670088Y-124779121D01*
X164642433Y-124787510D01*
X164507295Y-124828504D01*
X164394432Y-124839620D01*
X164338001Y-124845178D01*
X164338000Y-124845178D01*
X164168706Y-124828504D01*
X164033568Y-124787510D01*
X164005913Y-124779121D01*
X163855889Y-124698932D01*
X163765946Y-124625117D01*
X163724388Y-124591012D01*
X163616469Y-124459512D01*
X163594127Y-124417713D01*
X163536279Y-124309488D01*
X163523429Y-124267127D01*
X163486896Y-124146695D01*
X163478565Y-124062112D01*
X163474400Y-124019821D01*
X163474400Y-123630180D01*
X163486896Y-123503308D01*
X163486896Y-123503306D01*
X163536278Y-123340517D01*
X163536279Y-123340513D01*
X163616468Y-123190488D01*
X163724388Y-123058988D01*
X163855888Y-122951068D01*
X164005912Y-122870879D01*
X164048273Y-122858029D01*
X164168705Y-122821496D01*
X164281568Y-122810380D01*
X164337999Y-122804822D01*
X164338000Y-122804822D01*
X164507294Y-122821496D01*
X164507294Y-122821496D01*
G37*
G36*
X161967294Y-122821496D02*
X162087726Y-122858029D01*
X162130087Y-122870879D01*
X162280112Y-122951068D01*
X162411612Y-123058988D01*
X162519532Y-123190488D01*
X162599721Y-123340512D01*
X162612571Y-123382873D01*
X162649104Y-123503305D01*
X162649104Y-123503307D01*
X162661600Y-123630179D01*
X162661600Y-124019820D01*
X162661076Y-124025136D01*
X162649104Y-124146694D01*
X162612571Y-124267128D01*
X162599721Y-124309488D01*
X162519532Y-124459512D01*
X162411612Y-124591012D01*
X162280112Y-124698932D01*
X162130088Y-124779121D01*
X162102433Y-124787510D01*
X161967295Y-124828504D01*
X161854432Y-124839620D01*
X161798001Y-124845178D01*
X161798000Y-124845178D01*
X161628706Y-124828504D01*
X161493568Y-124787510D01*
X161465913Y-124779121D01*
X161315889Y-124698932D01*
X161225946Y-124625117D01*
X161184388Y-124591012D01*
X161076469Y-124459512D01*
X161054127Y-124417713D01*
X160996279Y-124309488D01*
X160983429Y-124267127D01*
X160946896Y-124146695D01*
X160938565Y-124062112D01*
X160934400Y-124019821D01*
X160934400Y-123630180D01*
X160946896Y-123503308D01*
X160946896Y-123503306D01*
X160996278Y-123340517D01*
X160996279Y-123340513D01*
X161076468Y-123190488D01*
X161184388Y-123058988D01*
X161315888Y-122951068D01*
X161465912Y-122870879D01*
X161508273Y-122858029D01*
X161628705Y-122821496D01*
X161741568Y-122810380D01*
X161797999Y-122804822D01*
X161798000Y-122804822D01*
X161967294Y-122821496D01*
X161967294Y-122821496D01*
G37*
G36*
X156887294Y-122821496D02*
X157007726Y-122858029D01*
X157050087Y-122870879D01*
X157200112Y-122951068D01*
X157331612Y-123058988D01*
X157439532Y-123190488D01*
X157519721Y-123340512D01*
X157532571Y-123382873D01*
X157569104Y-123503305D01*
X157569104Y-123503307D01*
X157581600Y-123630179D01*
X157581600Y-124019820D01*
X157581076Y-124025136D01*
X157569104Y-124146694D01*
X157532571Y-124267128D01*
X157519721Y-124309488D01*
X157439532Y-124459512D01*
X157331612Y-124591012D01*
X157200112Y-124698932D01*
X157050088Y-124779121D01*
X157022433Y-124787510D01*
X156887295Y-124828504D01*
X156774432Y-124839620D01*
X156718001Y-124845178D01*
X156718000Y-124845178D01*
X156548706Y-124828504D01*
X156413568Y-124787510D01*
X156385913Y-124779121D01*
X156235889Y-124698932D01*
X156145946Y-124625117D01*
X156104388Y-124591012D01*
X155996469Y-124459512D01*
X155974127Y-124417713D01*
X155916279Y-124309488D01*
X155903429Y-124267127D01*
X155866896Y-124146695D01*
X155858565Y-124062112D01*
X155854400Y-124019821D01*
X155854400Y-123630180D01*
X155866896Y-123503308D01*
X155866896Y-123503306D01*
X155916278Y-123340517D01*
X155916279Y-123340513D01*
X155996468Y-123190488D01*
X156104388Y-123058988D01*
X156235888Y-122951068D01*
X156385912Y-122870879D01*
X156428273Y-122858029D01*
X156548705Y-122821496D01*
X156661568Y-122810380D01*
X156717999Y-122804822D01*
X156718000Y-122804822D01*
X156887294Y-122821496D01*
X156887294Y-122821496D01*
G37*
G36*
X154347294Y-122821496D02*
X154467726Y-122858029D01*
X154510087Y-122870879D01*
X154660112Y-122951068D01*
X154791612Y-123058988D01*
X154899532Y-123190488D01*
X154979721Y-123340512D01*
X154992571Y-123382873D01*
X155029104Y-123503305D01*
X155029104Y-123503307D01*
X155041600Y-123630179D01*
X155041600Y-124019820D01*
X155041076Y-124025136D01*
X155029104Y-124146694D01*
X154992571Y-124267128D01*
X154979721Y-124309488D01*
X154899532Y-124459512D01*
X154791612Y-124591012D01*
X154660112Y-124698932D01*
X154510088Y-124779121D01*
X154482433Y-124787510D01*
X154347295Y-124828504D01*
X154234432Y-124839620D01*
X154178001Y-124845178D01*
X154178000Y-124845178D01*
X154008706Y-124828504D01*
X153873568Y-124787510D01*
X153845913Y-124779121D01*
X153695889Y-124698932D01*
X153605946Y-124625117D01*
X153564388Y-124591012D01*
X153456469Y-124459512D01*
X153434127Y-124417713D01*
X153376279Y-124309488D01*
X153363429Y-124267127D01*
X153326896Y-124146695D01*
X153318565Y-124062112D01*
X153314400Y-124019821D01*
X153314400Y-123630180D01*
X153326896Y-123503308D01*
X153326896Y-123503306D01*
X153376278Y-123340517D01*
X153376279Y-123340513D01*
X153456468Y-123190488D01*
X153564388Y-123058988D01*
X153695888Y-122951068D01*
X153845912Y-122870879D01*
X153888273Y-122858029D01*
X154008705Y-122821496D01*
X154121568Y-122810380D01*
X154177999Y-122804822D01*
X154178000Y-122804822D01*
X154347294Y-122821496D01*
X154347294Y-122821496D01*
G37*
G36*
X151807294Y-122821496D02*
X151927726Y-122858029D01*
X151970087Y-122870879D01*
X152120112Y-122951068D01*
X152251612Y-123058988D01*
X152359532Y-123190488D01*
X152439721Y-123340512D01*
X152452571Y-123382873D01*
X152489104Y-123503305D01*
X152489104Y-123503307D01*
X152501600Y-123630179D01*
X152501600Y-124019820D01*
X152501076Y-124025136D01*
X152489104Y-124146694D01*
X152452571Y-124267128D01*
X152439721Y-124309488D01*
X152359532Y-124459512D01*
X152251612Y-124591012D01*
X152120112Y-124698932D01*
X151970088Y-124779121D01*
X151942433Y-124787510D01*
X151807295Y-124828504D01*
X151694432Y-124839620D01*
X151638001Y-124845178D01*
X151638000Y-124845178D01*
X151468706Y-124828504D01*
X151333568Y-124787510D01*
X151305913Y-124779121D01*
X151155889Y-124698932D01*
X151065946Y-124625117D01*
X151024388Y-124591012D01*
X150916469Y-124459512D01*
X150894127Y-124417713D01*
X150836279Y-124309488D01*
X150823429Y-124267127D01*
X150786896Y-124146695D01*
X150778565Y-124062112D01*
X150774400Y-124019821D01*
X150774400Y-123630180D01*
X150786896Y-123503308D01*
X150786896Y-123503306D01*
X150836278Y-123340517D01*
X150836279Y-123340513D01*
X150916468Y-123190488D01*
X151024388Y-123058988D01*
X151155888Y-122951068D01*
X151305912Y-122870879D01*
X151348273Y-122858029D01*
X151468705Y-122821496D01*
X151581568Y-122810380D01*
X151637999Y-122804822D01*
X151638000Y-122804822D01*
X151807294Y-122821496D01*
X151807294Y-122821496D01*
G37*
G36*
X149267294Y-122821496D02*
X149387726Y-122858029D01*
X149430087Y-122870879D01*
X149580112Y-122951068D01*
X149711612Y-123058988D01*
X149819532Y-123190488D01*
X149899721Y-123340512D01*
X149912571Y-123382873D01*
X149949104Y-123503305D01*
X149949104Y-123503307D01*
X149961600Y-123630179D01*
X149961600Y-124019820D01*
X149961076Y-124025136D01*
X149949104Y-124146694D01*
X149912571Y-124267128D01*
X149899721Y-124309488D01*
X149819532Y-124459512D01*
X149711612Y-124591012D01*
X149580112Y-124698932D01*
X149430088Y-124779121D01*
X149402433Y-124787510D01*
X149267295Y-124828504D01*
X149154432Y-124839620D01*
X149098001Y-124845178D01*
X149098000Y-124845178D01*
X148928706Y-124828504D01*
X148793568Y-124787510D01*
X148765913Y-124779121D01*
X148615889Y-124698932D01*
X148525946Y-124625117D01*
X148484388Y-124591012D01*
X148376469Y-124459512D01*
X148354127Y-124417713D01*
X148296279Y-124309488D01*
X148283429Y-124267127D01*
X148246896Y-124146695D01*
X148238565Y-124062112D01*
X148234400Y-124019821D01*
X148234400Y-123630180D01*
X148246896Y-123503308D01*
X148246896Y-123503306D01*
X148296278Y-123340517D01*
X148296279Y-123340513D01*
X148376468Y-123190488D01*
X148484388Y-123058988D01*
X148615888Y-122951068D01*
X148765912Y-122870879D01*
X148808273Y-122858029D01*
X148928705Y-122821496D01*
X149041568Y-122810380D01*
X149097999Y-122804822D01*
X149098000Y-122804822D01*
X149267294Y-122821496D01*
X149267294Y-122821496D01*
G37*
G36*
X146727294Y-122821496D02*
X146847726Y-122858029D01*
X146890087Y-122870879D01*
X147040112Y-122951068D01*
X147171612Y-123058988D01*
X147279532Y-123190488D01*
X147359721Y-123340512D01*
X147372571Y-123382873D01*
X147409104Y-123503305D01*
X147409104Y-123503307D01*
X147421600Y-123630179D01*
X147421600Y-124019820D01*
X147421076Y-124025136D01*
X147409104Y-124146694D01*
X147372571Y-124267128D01*
X147359721Y-124309488D01*
X147279532Y-124459512D01*
X147171612Y-124591012D01*
X147040112Y-124698932D01*
X146890088Y-124779121D01*
X146862433Y-124787510D01*
X146727295Y-124828504D01*
X146614432Y-124839620D01*
X146558001Y-124845178D01*
X146558000Y-124845178D01*
X146388706Y-124828504D01*
X146253568Y-124787510D01*
X146225913Y-124779121D01*
X146075889Y-124698932D01*
X145985946Y-124625117D01*
X145944388Y-124591012D01*
X145836469Y-124459512D01*
X145814127Y-124417713D01*
X145756279Y-124309488D01*
X145743429Y-124267127D01*
X145706896Y-124146695D01*
X145698565Y-124062112D01*
X145694400Y-124019821D01*
X145694400Y-123630180D01*
X145706896Y-123503308D01*
X145706896Y-123503306D01*
X145756278Y-123340517D01*
X145756279Y-123340513D01*
X145836468Y-123190488D01*
X145944388Y-123058988D01*
X146075888Y-122951068D01*
X146225912Y-122870879D01*
X146268273Y-122858029D01*
X146388705Y-122821496D01*
X146501568Y-122810380D01*
X146557999Y-122804822D01*
X146558000Y-122804822D01*
X146727294Y-122821496D01*
X146727294Y-122821496D01*
G37*
G36*
X144187294Y-122821496D02*
X144307726Y-122858029D01*
X144350087Y-122870879D01*
X144500112Y-122951068D01*
X144631612Y-123058988D01*
X144739532Y-123190488D01*
X144819721Y-123340512D01*
X144832571Y-123382873D01*
X144869104Y-123503305D01*
X144869104Y-123503307D01*
X144881600Y-123630179D01*
X144881600Y-124019820D01*
X144881076Y-124025136D01*
X144869104Y-124146694D01*
X144832571Y-124267128D01*
X144819721Y-124309488D01*
X144739532Y-124459512D01*
X144631612Y-124591012D01*
X144500112Y-124698932D01*
X144350088Y-124779121D01*
X144322433Y-124787510D01*
X144187295Y-124828504D01*
X144074432Y-124839620D01*
X144018001Y-124845178D01*
X144018000Y-124845178D01*
X143848706Y-124828504D01*
X143713568Y-124787510D01*
X143685913Y-124779121D01*
X143535889Y-124698932D01*
X143445946Y-124625117D01*
X143404388Y-124591012D01*
X143296469Y-124459512D01*
X143274127Y-124417713D01*
X143216279Y-124309488D01*
X143203429Y-124267127D01*
X143166896Y-124146695D01*
X143158565Y-124062112D01*
X143154400Y-124019821D01*
X143154400Y-123630180D01*
X143166896Y-123503308D01*
X143166896Y-123503306D01*
X143216278Y-123340517D01*
X143216279Y-123340513D01*
X143296468Y-123190488D01*
X143404388Y-123058988D01*
X143535888Y-122951068D01*
X143685912Y-122870879D01*
X143728273Y-122858029D01*
X143848705Y-122821496D01*
X143961568Y-122810380D01*
X144017999Y-122804822D01*
X144018000Y-122804822D01*
X144187294Y-122821496D01*
X144187294Y-122821496D01*
G37*
G36*
X177630712Y-117973088D02*
X178000510Y-118126263D01*
X178000513Y-118126265D01*
X178333325Y-118348643D01*
X178616357Y-118631675D01*
X178838735Y-118964487D01*
X178838737Y-118964490D01*
X178991912Y-119334288D01*
X179070000Y-119726864D01*
X179070000Y-120127136D01*
X178991912Y-120519712D01*
X178838737Y-120889510D01*
X178838735Y-120889513D01*
X178616357Y-121222325D01*
X178333325Y-121505357D01*
X178049504Y-121695000D01*
X178000510Y-121727737D01*
X177630712Y-121880912D01*
X177238136Y-121959000D01*
X176837864Y-121959000D01*
X176445288Y-121880912D01*
X176075490Y-121727737D01*
X176026496Y-121695000D01*
X175742675Y-121505357D01*
X175459643Y-121222325D01*
X175237265Y-120889513D01*
X175237263Y-120889510D01*
X175084088Y-120519712D01*
X175006000Y-120127136D01*
X175006000Y-119726864D01*
X175084088Y-119334288D01*
X175237263Y-118964490D01*
X175237265Y-118964487D01*
X175459643Y-118631675D01*
X175742675Y-118348643D01*
X176075487Y-118126265D01*
X176075490Y-118126263D01*
X176445288Y-117973088D01*
X176837864Y-117895000D01*
X177238136Y-117895000D01*
X177630712Y-117973088D01*
X177630712Y-117973088D01*
G37*
G36*
X137065826Y-118064745D02*
X137096491Y-118074048D01*
X137124750Y-118089152D01*
X137149520Y-118109480D01*
X137169848Y-118134250D01*
X137184952Y-118162509D01*
X137194255Y-118193174D01*
X137198000Y-118231202D01*
X137198000Y-121390798D01*
X137194255Y-121428826D01*
X137184952Y-121459491D01*
X137169848Y-121487750D01*
X137149520Y-121512520D01*
X137124750Y-121532848D01*
X137096491Y-121547952D01*
X137065826Y-121557255D01*
X137027798Y-121561000D01*
X135768202Y-121561000D01*
X135730174Y-121557255D01*
X135699509Y-121547952D01*
X135671250Y-121532848D01*
X135646480Y-121512520D01*
X135626152Y-121487750D01*
X135611048Y-121459491D01*
X135601745Y-121428826D01*
X135598000Y-121390798D01*
X135598000Y-118231202D01*
X135601745Y-118193174D01*
X135611048Y-118162509D01*
X135626152Y-118134250D01*
X135646480Y-118109480D01*
X135671250Y-118089152D01*
X135699509Y-118074048D01*
X135730174Y-118064745D01*
X135768202Y-118061000D01*
X137027798Y-118061000D01*
X137065826Y-118064745D01*
X137065826Y-118064745D01*
G37*
G36*
X128683826Y-118064745D02*
X128714491Y-118074048D01*
X128742750Y-118089152D01*
X128767520Y-118109480D01*
X128787848Y-118134250D01*
X128802952Y-118162509D01*
X128812255Y-118193174D01*
X128816000Y-118231202D01*
X128816000Y-121390798D01*
X128812255Y-121428826D01*
X128802952Y-121459491D01*
X128787848Y-121487750D01*
X128767520Y-121512520D01*
X128742750Y-121532848D01*
X128714491Y-121547952D01*
X128683826Y-121557255D01*
X128645798Y-121561000D01*
X127386202Y-121561000D01*
X127348174Y-121557255D01*
X127317509Y-121547952D01*
X127289250Y-121532848D01*
X127264480Y-121512520D01*
X127244152Y-121487750D01*
X127229048Y-121459491D01*
X127219745Y-121428826D01*
X127216000Y-121390798D01*
X127216000Y-118231202D01*
X127219745Y-118193174D01*
X127229048Y-118162509D01*
X127244152Y-118134250D01*
X127264480Y-118109480D01*
X127289250Y-118089152D01*
X127317509Y-118074048D01*
X127348174Y-118064745D01*
X127386202Y-118061000D01*
X128645798Y-118061000D01*
X128683826Y-118064745D01*
X128683826Y-118064745D01*
G37*
G36*
X117024508Y-117008803D02*
X117153363Y-117047891D01*
X117272119Y-117111367D01*
X117376208Y-117196792D01*
X117461633Y-117300881D01*
X117525109Y-117419637D01*
X117564197Y-117548492D01*
X117578000Y-117688640D01*
X117578000Y-119801360D01*
X117564197Y-119941508D01*
X117525109Y-120070363D01*
X117461633Y-120189119D01*
X117376208Y-120293208D01*
X117272119Y-120378633D01*
X117153363Y-120442109D01*
X117024508Y-120481197D01*
X116884360Y-120495000D01*
X115271640Y-120495000D01*
X115131492Y-120481197D01*
X115002637Y-120442109D01*
X114883881Y-120378633D01*
X114779792Y-120293208D01*
X114694367Y-120189119D01*
X114630891Y-120070363D01*
X114591803Y-119941508D01*
X114578000Y-119801360D01*
X114578000Y-117688640D01*
X114591803Y-117548492D01*
X114630891Y-117419637D01*
X114694367Y-117300881D01*
X114779792Y-117196792D01*
X114883881Y-117111367D01*
X115002637Y-117047891D01*
X115131492Y-117008803D01*
X115271640Y-116995000D01*
X116884360Y-116995000D01*
X117024508Y-117008803D01*
X117024508Y-117008803D01*
G37*
G36*
X123828000Y-120495000D02*
X120328000Y-120495000D01*
X120328000Y-116995000D01*
X123828000Y-116995000D01*
X123828000Y-120495000D01*
X123828000Y-120495000D01*
G37*
G36*
X137065826Y-112464745D02*
X137096491Y-112474048D01*
X137124750Y-112489152D01*
X137149520Y-112509480D01*
X137169848Y-112534250D01*
X137184952Y-112562509D01*
X137194255Y-112593174D01*
X137198000Y-112631202D01*
X137198000Y-115790798D01*
X137194255Y-115828826D01*
X137184952Y-115859491D01*
X137169848Y-115887750D01*
X137149520Y-115912520D01*
X137124750Y-115932848D01*
X137096491Y-115947952D01*
X137065826Y-115957255D01*
X137027798Y-115961000D01*
X135768202Y-115961000D01*
X135730174Y-115957255D01*
X135699509Y-115947952D01*
X135671250Y-115932848D01*
X135646480Y-115912520D01*
X135626152Y-115887750D01*
X135611048Y-115859491D01*
X135601745Y-115828826D01*
X135598000Y-115790798D01*
X135598000Y-112631202D01*
X135601745Y-112593174D01*
X135611048Y-112562509D01*
X135626152Y-112534250D01*
X135646480Y-112509480D01*
X135671250Y-112489152D01*
X135699509Y-112474048D01*
X135730174Y-112464745D01*
X135768202Y-112461000D01*
X137027798Y-112461000D01*
X137065826Y-112464745D01*
X137065826Y-112464745D01*
G37*
G36*
X128683826Y-112464745D02*
X128714491Y-112474048D01*
X128742750Y-112489152D01*
X128767520Y-112509480D01*
X128787848Y-112534250D01*
X128802952Y-112562509D01*
X128812255Y-112593174D01*
X128816000Y-112631202D01*
X128816000Y-115790798D01*
X128812255Y-115828826D01*
X128802952Y-115859491D01*
X128787848Y-115887750D01*
X128767520Y-115912520D01*
X128742750Y-115932848D01*
X128714491Y-115947952D01*
X128683826Y-115957255D01*
X128645798Y-115961000D01*
X127386202Y-115961000D01*
X127348174Y-115957255D01*
X127317509Y-115947952D01*
X127289250Y-115932848D01*
X127264480Y-115912520D01*
X127244152Y-115887750D01*
X127229048Y-115859491D01*
X127219745Y-115828826D01*
X127216000Y-115790798D01*
X127216000Y-112631202D01*
X127219745Y-112593174D01*
X127229048Y-112562509D01*
X127244152Y-112534250D01*
X127264480Y-112509480D01*
X127289250Y-112489152D01*
X127317509Y-112474048D01*
X127348174Y-112464745D01*
X127386202Y-112461000D01*
X128645798Y-112461000D01*
X128683826Y-112464745D01*
X128683826Y-112464745D01*
G37*
G36*
X155251116Y-114717595D02*
X155280313Y-114726452D01*
X155307218Y-114740833D01*
X155330808Y-114760192D01*
X155350167Y-114783782D01*
X155364548Y-114810687D01*
X155373405Y-114839884D01*
X155377000Y-114876390D01*
X155377000Y-115501610D01*
X155373405Y-115538116D01*
X155364548Y-115567313D01*
X155350167Y-115594218D01*
X155330808Y-115617808D01*
X155307218Y-115637167D01*
X155280313Y-115651548D01*
X155251116Y-115660405D01*
X155214610Y-115664000D01*
X154664390Y-115664000D01*
X154627884Y-115660405D01*
X154598687Y-115651548D01*
X154571782Y-115637167D01*
X154548192Y-115617808D01*
X154528833Y-115594218D01*
X154514452Y-115567313D01*
X154505595Y-115538116D01*
X154502000Y-115501610D01*
X154502000Y-114876390D01*
X154505595Y-114839884D01*
X154514452Y-114810687D01*
X154528833Y-114783782D01*
X154548192Y-114760192D01*
X154571782Y-114740833D01*
X154598687Y-114726452D01*
X154627884Y-114717595D01*
X154664390Y-114714000D01*
X155214610Y-114714000D01*
X155251116Y-114717595D01*
X155251116Y-114717595D01*
G37*
G36*
X153676116Y-114717595D02*
X153705313Y-114726452D01*
X153732218Y-114740833D01*
X153755808Y-114760192D01*
X153775167Y-114783782D01*
X153789548Y-114810687D01*
X153798405Y-114839884D01*
X153802000Y-114876390D01*
X153802000Y-115501610D01*
X153798405Y-115538116D01*
X153789548Y-115567313D01*
X153775167Y-115594218D01*
X153755808Y-115617808D01*
X153732218Y-115637167D01*
X153705313Y-115651548D01*
X153676116Y-115660405D01*
X153639610Y-115664000D01*
X153089390Y-115664000D01*
X153052884Y-115660405D01*
X153023687Y-115651548D01*
X152996782Y-115637167D01*
X152973192Y-115617808D01*
X152953833Y-115594218D01*
X152939452Y-115567313D01*
X152930595Y-115538116D01*
X152927000Y-115501610D01*
X152927000Y-114876390D01*
X152930595Y-114839884D01*
X152939452Y-114810687D01*
X152953833Y-114783782D01*
X152973192Y-114760192D01*
X152996782Y-114740833D01*
X153023687Y-114726452D01*
X153052884Y-114717595D01*
X153089390Y-114714000D01*
X153639610Y-114714000D01*
X153676116Y-114717595D01*
X153676116Y-114717595D01*
G37*
G36*
X161915649Y-112364717D02*
X161954827Y-112368576D01*
X162030227Y-112391448D01*
X162105629Y-112414321D01*
X162244608Y-112488608D01*
X162366422Y-112588578D01*
X162466392Y-112710392D01*
X162540679Y-112849371D01*
X162586424Y-113000174D01*
X162601870Y-113157000D01*
X162586424Y-113313826D01*
X162540679Y-113464629D01*
X162466392Y-113603608D01*
X162366422Y-113725422D01*
X162244608Y-113825392D01*
X162105629Y-113899679D01*
X162030228Y-113922551D01*
X161954827Y-113945424D01*
X161915649Y-113949283D01*
X161837295Y-113957000D01*
X161758705Y-113957000D01*
X161680351Y-113949283D01*
X161641173Y-113945424D01*
X161565772Y-113922551D01*
X161490371Y-113899679D01*
X161351392Y-113825392D01*
X161229578Y-113725422D01*
X161129608Y-113603608D01*
X161055321Y-113464629D01*
X161009576Y-113313826D01*
X160994130Y-113157000D01*
X161009576Y-113000174D01*
X161055321Y-112849371D01*
X161129608Y-112710392D01*
X161229578Y-112588578D01*
X161351392Y-112488608D01*
X161490371Y-112414321D01*
X161565773Y-112391448D01*
X161641173Y-112368576D01*
X161680351Y-112364717D01*
X161758705Y-112357000D01*
X161837295Y-112357000D01*
X161915649Y-112364717D01*
X161915649Y-112364717D01*
G37*
G36*
X141595649Y-112364717D02*
X141634827Y-112368576D01*
X141710227Y-112391448D01*
X141785629Y-112414321D01*
X141924608Y-112488608D01*
X142046422Y-112588578D01*
X142146392Y-112710392D01*
X142220679Y-112849371D01*
X142266424Y-113000174D01*
X142281870Y-113157000D01*
X142266424Y-113313826D01*
X142220679Y-113464629D01*
X142146392Y-113603608D01*
X142046422Y-113725422D01*
X141924608Y-113825392D01*
X141785629Y-113899679D01*
X141710228Y-113922551D01*
X141634827Y-113945424D01*
X141595649Y-113949283D01*
X141517295Y-113957000D01*
X141438705Y-113957000D01*
X141360351Y-113949283D01*
X141321173Y-113945424D01*
X141245772Y-113922551D01*
X141170371Y-113899679D01*
X141031392Y-113825392D01*
X140909578Y-113725422D01*
X140809608Y-113603608D01*
X140735321Y-113464629D01*
X140689576Y-113313826D01*
X140674130Y-113157000D01*
X140689576Y-113000174D01*
X140735321Y-112849371D01*
X140809608Y-112710392D01*
X140909578Y-112588578D01*
X141031392Y-112488608D01*
X141170371Y-112414321D01*
X141245773Y-112391448D01*
X141321173Y-112368576D01*
X141360351Y-112364717D01*
X141438705Y-112357000D01*
X141517295Y-112357000D01*
X141595649Y-112364717D01*
X141595649Y-112364717D01*
G37*
G36*
X144135649Y-112364717D02*
X144174827Y-112368576D01*
X144250227Y-112391448D01*
X144325629Y-112414321D01*
X144464608Y-112488608D01*
X144586422Y-112588578D01*
X144686392Y-112710392D01*
X144760679Y-112849371D01*
X144806424Y-113000174D01*
X144821870Y-113157000D01*
X144806424Y-113313826D01*
X144760679Y-113464629D01*
X144686392Y-113603608D01*
X144586422Y-113725422D01*
X144464608Y-113825392D01*
X144325629Y-113899679D01*
X144250228Y-113922551D01*
X144174827Y-113945424D01*
X144135649Y-113949283D01*
X144057295Y-113957000D01*
X143978705Y-113957000D01*
X143900351Y-113949283D01*
X143861173Y-113945424D01*
X143785772Y-113922551D01*
X143710371Y-113899679D01*
X143571392Y-113825392D01*
X143449578Y-113725422D01*
X143349608Y-113603608D01*
X143275321Y-113464629D01*
X143229576Y-113313826D01*
X143214130Y-113157000D01*
X143229576Y-113000174D01*
X143275321Y-112849371D01*
X143349608Y-112710392D01*
X143449578Y-112588578D01*
X143571392Y-112488608D01*
X143710371Y-112414321D01*
X143785773Y-112391448D01*
X143861173Y-112368576D01*
X143900351Y-112364717D01*
X143978705Y-112357000D01*
X144057295Y-112357000D01*
X144135649Y-112364717D01*
X144135649Y-112364717D01*
G37*
G36*
X146675649Y-112364717D02*
X146714827Y-112368576D01*
X146790227Y-112391448D01*
X146865629Y-112414321D01*
X147004608Y-112488608D01*
X147126422Y-112588578D01*
X147226392Y-112710392D01*
X147300679Y-112849371D01*
X147346424Y-113000174D01*
X147361870Y-113157000D01*
X147346424Y-113313826D01*
X147300679Y-113464629D01*
X147226392Y-113603608D01*
X147126422Y-113725422D01*
X147004608Y-113825392D01*
X146865629Y-113899679D01*
X146790228Y-113922551D01*
X146714827Y-113945424D01*
X146675649Y-113949283D01*
X146597295Y-113957000D01*
X146518705Y-113957000D01*
X146440351Y-113949283D01*
X146401173Y-113945424D01*
X146325772Y-113922551D01*
X146250371Y-113899679D01*
X146111392Y-113825392D01*
X145989578Y-113725422D01*
X145889608Y-113603608D01*
X145815321Y-113464629D01*
X145769576Y-113313826D01*
X145754130Y-113157000D01*
X145769576Y-113000174D01*
X145815321Y-112849371D01*
X145889608Y-112710392D01*
X145989578Y-112588578D01*
X146111392Y-112488608D01*
X146250371Y-112414321D01*
X146325773Y-112391448D01*
X146401173Y-112368576D01*
X146440351Y-112364717D01*
X146518705Y-112357000D01*
X146597295Y-112357000D01*
X146675649Y-112364717D01*
X146675649Y-112364717D01*
G37*
G36*
X149215649Y-112364717D02*
X149254827Y-112368576D01*
X149330227Y-112391448D01*
X149405629Y-112414321D01*
X149544608Y-112488608D01*
X149666422Y-112588578D01*
X149766392Y-112710392D01*
X149840679Y-112849371D01*
X149886424Y-113000174D01*
X149901870Y-113157000D01*
X149886424Y-113313826D01*
X149840679Y-113464629D01*
X149766392Y-113603608D01*
X149666422Y-113725422D01*
X149544608Y-113825392D01*
X149405629Y-113899679D01*
X149330228Y-113922551D01*
X149254827Y-113945424D01*
X149215649Y-113949283D01*
X149137295Y-113957000D01*
X149058705Y-113957000D01*
X148980351Y-113949283D01*
X148941173Y-113945424D01*
X148865772Y-113922551D01*
X148790371Y-113899679D01*
X148651392Y-113825392D01*
X148529578Y-113725422D01*
X148429608Y-113603608D01*
X148355321Y-113464629D01*
X148309576Y-113313826D01*
X148294130Y-113157000D01*
X148309576Y-113000174D01*
X148355321Y-112849371D01*
X148429608Y-112710392D01*
X148529578Y-112588578D01*
X148651392Y-112488608D01*
X148790371Y-112414321D01*
X148865773Y-112391448D01*
X148941173Y-112368576D01*
X148980351Y-112364717D01*
X149058705Y-112357000D01*
X149137295Y-112357000D01*
X149215649Y-112364717D01*
X149215649Y-112364717D01*
G37*
G36*
X151755649Y-112364717D02*
X151794827Y-112368576D01*
X151870227Y-112391448D01*
X151945629Y-112414321D01*
X152084608Y-112488608D01*
X152206422Y-112588578D01*
X152306392Y-112710392D01*
X152380679Y-112849371D01*
X152426424Y-113000174D01*
X152441870Y-113157000D01*
X152426424Y-113313826D01*
X152380679Y-113464629D01*
X152306392Y-113603608D01*
X152206422Y-113725422D01*
X152084608Y-113825392D01*
X151945629Y-113899679D01*
X151870228Y-113922551D01*
X151794827Y-113945424D01*
X151755649Y-113949283D01*
X151677295Y-113957000D01*
X151598705Y-113957000D01*
X151520351Y-113949283D01*
X151481173Y-113945424D01*
X151405772Y-113922551D01*
X151330371Y-113899679D01*
X151191392Y-113825392D01*
X151069578Y-113725422D01*
X150969608Y-113603608D01*
X150895321Y-113464629D01*
X150849576Y-113313826D01*
X150834130Y-113157000D01*
X150849576Y-113000174D01*
X150895321Y-112849371D01*
X150969608Y-112710392D01*
X151069578Y-112588578D01*
X151191392Y-112488608D01*
X151330371Y-112414321D01*
X151405773Y-112391448D01*
X151481173Y-112368576D01*
X151520351Y-112364717D01*
X151598705Y-112357000D01*
X151677295Y-112357000D01*
X151755649Y-112364717D01*
X151755649Y-112364717D01*
G37*
G36*
X154295649Y-112364717D02*
X154334827Y-112368576D01*
X154410227Y-112391448D01*
X154485629Y-112414321D01*
X154624608Y-112488608D01*
X154746422Y-112588578D01*
X154846392Y-112710392D01*
X154920679Y-112849371D01*
X154966424Y-113000174D01*
X154981870Y-113157000D01*
X154966424Y-113313826D01*
X154920679Y-113464629D01*
X154846392Y-113603608D01*
X154746422Y-113725422D01*
X154624608Y-113825392D01*
X154485629Y-113899679D01*
X154410228Y-113922551D01*
X154334827Y-113945424D01*
X154295649Y-113949283D01*
X154217295Y-113957000D01*
X154138705Y-113957000D01*
X154060351Y-113949283D01*
X154021173Y-113945424D01*
X153945772Y-113922551D01*
X153870371Y-113899679D01*
X153731392Y-113825392D01*
X153609578Y-113725422D01*
X153509608Y-113603608D01*
X153435321Y-113464629D01*
X153389576Y-113313826D01*
X153374130Y-113157000D01*
X153389576Y-113000174D01*
X153435321Y-112849371D01*
X153509608Y-112710392D01*
X153609578Y-112588578D01*
X153731392Y-112488608D01*
X153870371Y-112414321D01*
X153945773Y-112391448D01*
X154021173Y-112368576D01*
X154060351Y-112364717D01*
X154138705Y-112357000D01*
X154217295Y-112357000D01*
X154295649Y-112364717D01*
X154295649Y-112364717D01*
G37*
G36*
X159375649Y-112364717D02*
X159414827Y-112368576D01*
X159490227Y-112391448D01*
X159565629Y-112414321D01*
X159704608Y-112488608D01*
X159826422Y-112588578D01*
X159926392Y-112710392D01*
X160000679Y-112849371D01*
X160046424Y-113000174D01*
X160061870Y-113157000D01*
X160046424Y-113313826D01*
X160000679Y-113464629D01*
X159926392Y-113603608D01*
X159826422Y-113725422D01*
X159704608Y-113825392D01*
X159565629Y-113899679D01*
X159490228Y-113922551D01*
X159414827Y-113945424D01*
X159375649Y-113949283D01*
X159297295Y-113957000D01*
X159218705Y-113957000D01*
X159140351Y-113949283D01*
X159101173Y-113945424D01*
X159025772Y-113922551D01*
X158950371Y-113899679D01*
X158811392Y-113825392D01*
X158689578Y-113725422D01*
X158589608Y-113603608D01*
X158515321Y-113464629D01*
X158469576Y-113313826D01*
X158454130Y-113157000D01*
X158469576Y-113000174D01*
X158515321Y-112849371D01*
X158589608Y-112710392D01*
X158689578Y-112588578D01*
X158811392Y-112488608D01*
X158950371Y-112414321D01*
X159025773Y-112391448D01*
X159101173Y-112368576D01*
X159140351Y-112364717D01*
X159218705Y-112357000D01*
X159297295Y-112357000D01*
X159375649Y-112364717D01*
X159375649Y-112364717D01*
G37*
G36*
X169535649Y-112364717D02*
X169574827Y-112368576D01*
X169650227Y-112391448D01*
X169725629Y-112414321D01*
X169864608Y-112488608D01*
X169986422Y-112588578D01*
X170086392Y-112710392D01*
X170160679Y-112849371D01*
X170206424Y-113000174D01*
X170221870Y-113157000D01*
X170206424Y-113313826D01*
X170160679Y-113464629D01*
X170086392Y-113603608D01*
X169986422Y-113725422D01*
X169864608Y-113825392D01*
X169725629Y-113899679D01*
X169650228Y-113922551D01*
X169574827Y-113945424D01*
X169535649Y-113949283D01*
X169457295Y-113957000D01*
X169378705Y-113957000D01*
X169300351Y-113949283D01*
X169261173Y-113945424D01*
X169185772Y-113922551D01*
X169110371Y-113899679D01*
X168971392Y-113825392D01*
X168849578Y-113725422D01*
X168749608Y-113603608D01*
X168675321Y-113464629D01*
X168629576Y-113313826D01*
X168614130Y-113157000D01*
X168629576Y-113000174D01*
X168675321Y-112849371D01*
X168749608Y-112710392D01*
X168849578Y-112588578D01*
X168971392Y-112488608D01*
X169110371Y-112414321D01*
X169185772Y-112391449D01*
X169261173Y-112368576D01*
X169300351Y-112364717D01*
X169378705Y-112357000D01*
X169457295Y-112357000D01*
X169535649Y-112364717D01*
X169535649Y-112364717D01*
G37*
G36*
X164455649Y-112364717D02*
X164494827Y-112368576D01*
X164570227Y-112391448D01*
X164645629Y-112414321D01*
X164784608Y-112488608D01*
X164906422Y-112588578D01*
X165006392Y-112710392D01*
X165080679Y-112849371D01*
X165126424Y-113000174D01*
X165141870Y-113157000D01*
X165126424Y-113313826D01*
X165080679Y-113464629D01*
X165006392Y-113603608D01*
X164906422Y-113725422D01*
X164784608Y-113825392D01*
X164645629Y-113899679D01*
X164570228Y-113922551D01*
X164494827Y-113945424D01*
X164455649Y-113949283D01*
X164377295Y-113957000D01*
X164298705Y-113957000D01*
X164220351Y-113949283D01*
X164181173Y-113945424D01*
X164105772Y-113922551D01*
X164030371Y-113899679D01*
X163891392Y-113825392D01*
X163769578Y-113725422D01*
X163669608Y-113603608D01*
X163595321Y-113464629D01*
X163549576Y-113313826D01*
X163534130Y-113157000D01*
X163549576Y-113000174D01*
X163595321Y-112849371D01*
X163669608Y-112710392D01*
X163769578Y-112588578D01*
X163891392Y-112488608D01*
X164030371Y-112414321D01*
X164105773Y-112391448D01*
X164181173Y-112368576D01*
X164220351Y-112364717D01*
X164298705Y-112357000D01*
X164377295Y-112357000D01*
X164455649Y-112364717D01*
X164455649Y-112364717D01*
G37*
G36*
X166995649Y-112364717D02*
X167034827Y-112368576D01*
X167110227Y-112391448D01*
X167185629Y-112414321D01*
X167324608Y-112488608D01*
X167446422Y-112588578D01*
X167546392Y-112710392D01*
X167620679Y-112849371D01*
X167666424Y-113000174D01*
X167681870Y-113157000D01*
X167666424Y-113313826D01*
X167620679Y-113464629D01*
X167546392Y-113603608D01*
X167446422Y-113725422D01*
X167324608Y-113825392D01*
X167185629Y-113899679D01*
X167110228Y-113922551D01*
X167034827Y-113945424D01*
X166995649Y-113949283D01*
X166917295Y-113957000D01*
X166838705Y-113957000D01*
X166760351Y-113949283D01*
X166721173Y-113945424D01*
X166645772Y-113922551D01*
X166570371Y-113899679D01*
X166431392Y-113825392D01*
X166309578Y-113725422D01*
X166209608Y-113603608D01*
X166135321Y-113464629D01*
X166089576Y-113313826D01*
X166074130Y-113157000D01*
X166089576Y-113000174D01*
X166135321Y-112849371D01*
X166209608Y-112710392D01*
X166309578Y-112588578D01*
X166431392Y-112488608D01*
X166570371Y-112414321D01*
X166645772Y-112391449D01*
X166721173Y-112368576D01*
X166760351Y-112364717D01*
X166838705Y-112357000D01*
X166917295Y-112357000D01*
X166995649Y-112364717D01*
X166995649Y-112364717D01*
G37*
G36*
X172075649Y-112364717D02*
X172114827Y-112368576D01*
X172190227Y-112391448D01*
X172265629Y-112414321D01*
X172404608Y-112488608D01*
X172526422Y-112588578D01*
X172626392Y-112710392D01*
X172700679Y-112849371D01*
X172746424Y-113000174D01*
X172761870Y-113157000D01*
X172746424Y-113313826D01*
X172700679Y-113464629D01*
X172626392Y-113603608D01*
X172526422Y-113725422D01*
X172404608Y-113825392D01*
X172265629Y-113899679D01*
X172190228Y-113922551D01*
X172114827Y-113945424D01*
X172075649Y-113949283D01*
X171997295Y-113957000D01*
X171918705Y-113957000D01*
X171840351Y-113949283D01*
X171801173Y-113945424D01*
X171725772Y-113922551D01*
X171650371Y-113899679D01*
X171511392Y-113825392D01*
X171389578Y-113725422D01*
X171289608Y-113603608D01*
X171215321Y-113464629D01*
X171169576Y-113313826D01*
X171154130Y-113157000D01*
X171169576Y-113000174D01*
X171215321Y-112849371D01*
X171289608Y-112710392D01*
X171389578Y-112588578D01*
X171511392Y-112488608D01*
X171650371Y-112414321D01*
X171725772Y-112391449D01*
X171801173Y-112368576D01*
X171840351Y-112364717D01*
X171918705Y-112357000D01*
X171997295Y-112357000D01*
X172075649Y-112364717D01*
X172075649Y-112364717D01*
G37*
G36*
X174615649Y-112364717D02*
X174654827Y-112368576D01*
X174730227Y-112391448D01*
X174805629Y-112414321D01*
X174944608Y-112488608D01*
X175066422Y-112588578D01*
X175166392Y-112710392D01*
X175240679Y-112849371D01*
X175286424Y-113000174D01*
X175301870Y-113157000D01*
X175286424Y-113313826D01*
X175240679Y-113464629D01*
X175166392Y-113603608D01*
X175066422Y-113725422D01*
X174944608Y-113825392D01*
X174805629Y-113899679D01*
X174730228Y-113922551D01*
X174654827Y-113945424D01*
X174615649Y-113949283D01*
X174537295Y-113957000D01*
X174458705Y-113957000D01*
X174380351Y-113949283D01*
X174341173Y-113945424D01*
X174265772Y-113922551D01*
X174190371Y-113899679D01*
X174051392Y-113825392D01*
X173929578Y-113725422D01*
X173829608Y-113603608D01*
X173755321Y-113464629D01*
X173709576Y-113313826D01*
X173694130Y-113157000D01*
X173709576Y-113000174D01*
X173755321Y-112849371D01*
X173829608Y-112710392D01*
X173929578Y-112588578D01*
X174051392Y-112488608D01*
X174190371Y-112414321D01*
X174265772Y-112391449D01*
X174341173Y-112368576D01*
X174380351Y-112364717D01*
X174458705Y-112357000D01*
X174537295Y-112357000D01*
X174615649Y-112364717D01*
X174615649Y-112364717D01*
G37*
G36*
X156835649Y-112364717D02*
X156874827Y-112368576D01*
X156950227Y-112391448D01*
X157025629Y-112414321D01*
X157164608Y-112488608D01*
X157286422Y-112588578D01*
X157386392Y-112710392D01*
X157460679Y-112849371D01*
X157506424Y-113000174D01*
X157521870Y-113157000D01*
X157506424Y-113313826D01*
X157460679Y-113464629D01*
X157386392Y-113603608D01*
X157286422Y-113725422D01*
X157164608Y-113825392D01*
X157025629Y-113899679D01*
X156950228Y-113922551D01*
X156874827Y-113945424D01*
X156835649Y-113949283D01*
X156757295Y-113957000D01*
X156678705Y-113957000D01*
X156600351Y-113949283D01*
X156561173Y-113945424D01*
X156485772Y-113922551D01*
X156410371Y-113899679D01*
X156271392Y-113825392D01*
X156149578Y-113725422D01*
X156049608Y-113603608D01*
X155975321Y-113464629D01*
X155929576Y-113313826D01*
X155914130Y-113157000D01*
X155929576Y-113000174D01*
X155975321Y-112849371D01*
X156049608Y-112710392D01*
X156149578Y-112588578D01*
X156271392Y-112488608D01*
X156410371Y-112414321D01*
X156485773Y-112391448D01*
X156561173Y-112368576D01*
X156600351Y-112364717D01*
X156678705Y-112357000D01*
X156757295Y-112357000D01*
X156835649Y-112364717D01*
X156835649Y-112364717D01*
G37*
G36*
X122768000Y-112905000D02*
X120768000Y-112905000D01*
X120768000Y-111405000D01*
X122768000Y-111405000D01*
X122768000Y-112905000D01*
X122768000Y-112905000D01*
G37*
G36*
X116468000Y-111755000D02*
X114468000Y-111755000D01*
X114468000Y-107955000D01*
X116468000Y-107955000D01*
X116468000Y-111755000D01*
X116468000Y-111755000D01*
G37*
G36*
X136747116Y-110843595D02*
X136776313Y-110852452D01*
X136803218Y-110866833D01*
X136826808Y-110886192D01*
X136846167Y-110909782D01*
X136860548Y-110936687D01*
X136869405Y-110965884D01*
X136873000Y-111002390D01*
X136873000Y-111552610D01*
X136869405Y-111589116D01*
X136860548Y-111618313D01*
X136846167Y-111645218D01*
X136826808Y-111668808D01*
X136803218Y-111688167D01*
X136776313Y-111702548D01*
X136747116Y-111711405D01*
X136710610Y-111715000D01*
X136085390Y-111715000D01*
X136048884Y-111711405D01*
X136019687Y-111702548D01*
X135992782Y-111688167D01*
X135969192Y-111668808D01*
X135949833Y-111645218D01*
X135935452Y-111618313D01*
X135926595Y-111589116D01*
X135923000Y-111552610D01*
X135923000Y-111002390D01*
X135926595Y-110965884D01*
X135935452Y-110936687D01*
X135949833Y-110909782D01*
X135969192Y-110886192D01*
X135992782Y-110866833D01*
X136019687Y-110852452D01*
X136048884Y-110843595D01*
X136085390Y-110840000D01*
X136710610Y-110840000D01*
X136747116Y-110843595D01*
X136747116Y-110843595D01*
G37*
G36*
X131637000Y-111704000D02*
X130577000Y-111704000D01*
X130577000Y-111054000D01*
X131637000Y-111054000D01*
X131637000Y-111704000D01*
X131637000Y-111704000D01*
G37*
G36*
X133837000Y-111704000D02*
X132777000Y-111704000D01*
X132777000Y-111054000D01*
X133837000Y-111054000D01*
X133837000Y-111704000D01*
X133837000Y-111704000D01*
G37*
G36*
X128365116Y-110716595D02*
X128394313Y-110725452D01*
X128421218Y-110739833D01*
X128444808Y-110759192D01*
X128464167Y-110782782D01*
X128478548Y-110809687D01*
X128487405Y-110838884D01*
X128491000Y-110875390D01*
X128491000Y-111425610D01*
X128487405Y-111462116D01*
X128478548Y-111491313D01*
X128464167Y-111518218D01*
X128444808Y-111541808D01*
X128421218Y-111561167D01*
X128394313Y-111575548D01*
X128365116Y-111584405D01*
X128328610Y-111588000D01*
X127703390Y-111588000D01*
X127666884Y-111584405D01*
X127637687Y-111575548D01*
X127610782Y-111561167D01*
X127587192Y-111541808D01*
X127567833Y-111518218D01*
X127553452Y-111491313D01*
X127544595Y-111462116D01*
X127541000Y-111425610D01*
X127541000Y-110875390D01*
X127544595Y-110838884D01*
X127553452Y-110809687D01*
X127567833Y-110782782D01*
X127587192Y-110759192D01*
X127610782Y-110739833D01*
X127637687Y-110725452D01*
X127666884Y-110716595D01*
X127703390Y-110713000D01*
X128328610Y-110713000D01*
X128365116Y-110716595D01*
X128365116Y-110716595D01*
G37*
G36*
X131637000Y-110754000D02*
X130577000Y-110754000D01*
X130577000Y-110104000D01*
X131637000Y-110104000D01*
X131637000Y-110754000D01*
X131637000Y-110754000D01*
G37*
G36*
X122768000Y-110605000D02*
X120768000Y-110605000D01*
X120768000Y-109105000D01*
X122768000Y-109105000D01*
X122768000Y-110605000D01*
X122768000Y-110605000D01*
G37*
G36*
X136747116Y-109268595D02*
X136776313Y-109277452D01*
X136803218Y-109291833D01*
X136826808Y-109311192D01*
X136846167Y-109334782D01*
X136860548Y-109361687D01*
X136869405Y-109390884D01*
X136873000Y-109427390D01*
X136873000Y-109977610D01*
X136869405Y-110014116D01*
X136860548Y-110043313D01*
X136846167Y-110070218D01*
X136826808Y-110093808D01*
X136803218Y-110113167D01*
X136776313Y-110127548D01*
X136747116Y-110136405D01*
X136710610Y-110140000D01*
X136085390Y-110140000D01*
X136048884Y-110136405D01*
X136019687Y-110127548D01*
X135992782Y-110113167D01*
X135969192Y-110093808D01*
X135949833Y-110070218D01*
X135935452Y-110043313D01*
X135926595Y-110014116D01*
X135923000Y-109977610D01*
X135923000Y-109427390D01*
X135926595Y-109390884D01*
X135935452Y-109361687D01*
X135949833Y-109334782D01*
X135969192Y-109311192D01*
X135992782Y-109291833D01*
X136019687Y-109277452D01*
X136048884Y-109268595D01*
X136085390Y-109265000D01*
X136710610Y-109265000D01*
X136747116Y-109268595D01*
X136747116Y-109268595D01*
G37*
G36*
X128365116Y-109141595D02*
X128394313Y-109150452D01*
X128421218Y-109164833D01*
X128444808Y-109184192D01*
X128464167Y-109207782D01*
X128478548Y-109234687D01*
X128487405Y-109263884D01*
X128491000Y-109300390D01*
X128491000Y-109850610D01*
X128487405Y-109887116D01*
X128478548Y-109916313D01*
X128464167Y-109943218D01*
X128444808Y-109966808D01*
X128421218Y-109986167D01*
X128394313Y-110000548D01*
X128365116Y-110009405D01*
X128328610Y-110013000D01*
X127703390Y-110013000D01*
X127666884Y-110009405D01*
X127637687Y-110000548D01*
X127610782Y-109986167D01*
X127587192Y-109966808D01*
X127567833Y-109943218D01*
X127553452Y-109916313D01*
X127544595Y-109887116D01*
X127541000Y-109850610D01*
X127541000Y-109300390D01*
X127544595Y-109263884D01*
X127553452Y-109234687D01*
X127567833Y-109207782D01*
X127587192Y-109184192D01*
X127610782Y-109164833D01*
X127637687Y-109150452D01*
X127666884Y-109141595D01*
X127703390Y-109138000D01*
X128328610Y-109138000D01*
X128365116Y-109141595D01*
X128365116Y-109141595D01*
G37*
G36*
X131637000Y-109804000D02*
X130577000Y-109804000D01*
X130577000Y-109154000D01*
X131637000Y-109154000D01*
X131637000Y-109804000D01*
X131637000Y-109804000D01*
G37*
G36*
X133837000Y-109804000D02*
X132777000Y-109804000D01*
X132777000Y-109154000D01*
X133837000Y-109154000D01*
X133837000Y-109804000D01*
X133837000Y-109804000D01*
G37*
G36*
X122768000Y-108305000D02*
X120768000Y-108305000D01*
X120768000Y-106805000D01*
X122768000Y-106805000D01*
X122768000Y-108305000D01*
X122768000Y-108305000D01*
G37*
G36*
X127938000Y-108007000D02*
X126488000Y-108007000D01*
X126488000Y-105607000D01*
X127938000Y-105607000D01*
X127938000Y-108007000D01*
X127938000Y-108007000D01*
G37*
G36*
X132338000Y-108007000D02*
X130888000Y-108007000D01*
X130888000Y-105607000D01*
X132338000Y-105607000D01*
X132338000Y-108007000D01*
X132338000Y-108007000D01*
G37*
G36*
X144135649Y-104744717D02*
X144174827Y-104748576D01*
X144250228Y-104771449D01*
X144325629Y-104794321D01*
X144464608Y-104868608D01*
X144586422Y-104968578D01*
X144686392Y-105090392D01*
X144760679Y-105229371D01*
X144806424Y-105380174D01*
X144821870Y-105537000D01*
X144806424Y-105693826D01*
X144760679Y-105844629D01*
X144686392Y-105983608D01*
X144586422Y-106105422D01*
X144464608Y-106205392D01*
X144325629Y-106279679D01*
X144250228Y-106302551D01*
X144174827Y-106325424D01*
X144135649Y-106329283D01*
X144057295Y-106337000D01*
X143978705Y-106337000D01*
X143900351Y-106329283D01*
X143861173Y-106325424D01*
X143785772Y-106302551D01*
X143710371Y-106279679D01*
X143571392Y-106205392D01*
X143449578Y-106105422D01*
X143349608Y-105983608D01*
X143275321Y-105844629D01*
X143229576Y-105693826D01*
X143214130Y-105537000D01*
X143229576Y-105380174D01*
X143275321Y-105229371D01*
X143349608Y-105090392D01*
X143449578Y-104968578D01*
X143571392Y-104868608D01*
X143710371Y-104794321D01*
X143785772Y-104771449D01*
X143861173Y-104748576D01*
X143900351Y-104744717D01*
X143978705Y-104737000D01*
X144057295Y-104737000D01*
X144135649Y-104744717D01*
X144135649Y-104744717D01*
G37*
G36*
X172075649Y-104744717D02*
X172114827Y-104748576D01*
X172190228Y-104771449D01*
X172265629Y-104794321D01*
X172404608Y-104868608D01*
X172526422Y-104968578D01*
X172626392Y-105090392D01*
X172700679Y-105229371D01*
X172746424Y-105380174D01*
X172761870Y-105537000D01*
X172746424Y-105693826D01*
X172700679Y-105844629D01*
X172626392Y-105983608D01*
X172526422Y-106105422D01*
X172404608Y-106205392D01*
X172265629Y-106279679D01*
X172190228Y-106302551D01*
X172114827Y-106325424D01*
X172075649Y-106329283D01*
X171997295Y-106337000D01*
X171918705Y-106337000D01*
X171840351Y-106329283D01*
X171801173Y-106325424D01*
X171725772Y-106302551D01*
X171650371Y-106279679D01*
X171511392Y-106205392D01*
X171389578Y-106105422D01*
X171289608Y-105983608D01*
X171215321Y-105844629D01*
X171169576Y-105693826D01*
X171154130Y-105537000D01*
X171169576Y-105380174D01*
X171215321Y-105229371D01*
X171289608Y-105090392D01*
X171389578Y-104968578D01*
X171511392Y-104868608D01*
X171650371Y-104794321D01*
X171725772Y-104771449D01*
X171801173Y-104748576D01*
X171840351Y-104744717D01*
X171918705Y-104737000D01*
X171997295Y-104737000D01*
X172075649Y-104744717D01*
X172075649Y-104744717D01*
G37*
G36*
X156835649Y-104744717D02*
X156874827Y-104748576D01*
X156950228Y-104771449D01*
X157025629Y-104794321D01*
X157164608Y-104868608D01*
X157286422Y-104968578D01*
X157386392Y-105090392D01*
X157460679Y-105229371D01*
X157506424Y-105380174D01*
X157521870Y-105537000D01*
X157506424Y-105693826D01*
X157460679Y-105844629D01*
X157386392Y-105983608D01*
X157286422Y-106105422D01*
X157164608Y-106205392D01*
X157025629Y-106279679D01*
X156950228Y-106302551D01*
X156874827Y-106325424D01*
X156835649Y-106329283D01*
X156757295Y-106337000D01*
X156678705Y-106337000D01*
X156600351Y-106329283D01*
X156561173Y-106325424D01*
X156485772Y-106302551D01*
X156410371Y-106279679D01*
X156271392Y-106205392D01*
X156149578Y-106105422D01*
X156049608Y-105983608D01*
X155975321Y-105844629D01*
X155929576Y-105693826D01*
X155914130Y-105537000D01*
X155929576Y-105380174D01*
X155975321Y-105229371D01*
X156049608Y-105090392D01*
X156149578Y-104968578D01*
X156271392Y-104868608D01*
X156410371Y-104794321D01*
X156485772Y-104771449D01*
X156561173Y-104748576D01*
X156600351Y-104744717D01*
X156678705Y-104737000D01*
X156757295Y-104737000D01*
X156835649Y-104744717D01*
X156835649Y-104744717D01*
G37*
G36*
X154295649Y-104744717D02*
X154334827Y-104748576D01*
X154410228Y-104771449D01*
X154485629Y-104794321D01*
X154624608Y-104868608D01*
X154746422Y-104968578D01*
X154846392Y-105090392D01*
X154920679Y-105229371D01*
X154966424Y-105380174D01*
X154981870Y-105537000D01*
X154966424Y-105693826D01*
X154920679Y-105844629D01*
X154846392Y-105983608D01*
X154746422Y-106105422D01*
X154624608Y-106205392D01*
X154485629Y-106279679D01*
X154410228Y-106302551D01*
X154334827Y-106325424D01*
X154295649Y-106329283D01*
X154217295Y-106337000D01*
X154138705Y-106337000D01*
X154060351Y-106329283D01*
X154021173Y-106325424D01*
X153945772Y-106302551D01*
X153870371Y-106279679D01*
X153731392Y-106205392D01*
X153609578Y-106105422D01*
X153509608Y-105983608D01*
X153435321Y-105844629D01*
X153389576Y-105693826D01*
X153374130Y-105537000D01*
X153389576Y-105380174D01*
X153435321Y-105229371D01*
X153509608Y-105090392D01*
X153609578Y-104968578D01*
X153731392Y-104868608D01*
X153870371Y-104794321D01*
X153945772Y-104771449D01*
X154021173Y-104748576D01*
X154060351Y-104744717D01*
X154138705Y-104737000D01*
X154217295Y-104737000D01*
X154295649Y-104744717D01*
X154295649Y-104744717D01*
G37*
G36*
X151755649Y-104744717D02*
X151794827Y-104748576D01*
X151870228Y-104771449D01*
X151945629Y-104794321D01*
X152084608Y-104868608D01*
X152206422Y-104968578D01*
X152306392Y-105090392D01*
X152380679Y-105229371D01*
X152426424Y-105380174D01*
X152441870Y-105537000D01*
X152426424Y-105693826D01*
X152380679Y-105844629D01*
X152306392Y-105983608D01*
X152206422Y-106105422D01*
X152084608Y-106205392D01*
X151945629Y-106279679D01*
X151870228Y-106302551D01*
X151794827Y-106325424D01*
X151755649Y-106329283D01*
X151677295Y-106337000D01*
X151598705Y-106337000D01*
X151520351Y-106329283D01*
X151481173Y-106325424D01*
X151405772Y-106302551D01*
X151330371Y-106279679D01*
X151191392Y-106205392D01*
X151069578Y-106105422D01*
X150969608Y-105983608D01*
X150895321Y-105844629D01*
X150849576Y-105693826D01*
X150834130Y-105537000D01*
X150849576Y-105380174D01*
X150895321Y-105229371D01*
X150969608Y-105090392D01*
X151069578Y-104968578D01*
X151191392Y-104868608D01*
X151330371Y-104794321D01*
X151405772Y-104771449D01*
X151481173Y-104748576D01*
X151520351Y-104744717D01*
X151598705Y-104737000D01*
X151677295Y-104737000D01*
X151755649Y-104744717D01*
X151755649Y-104744717D01*
G37*
G36*
X146675649Y-104744717D02*
X146714827Y-104748576D01*
X146790228Y-104771449D01*
X146865629Y-104794321D01*
X147004608Y-104868608D01*
X147126422Y-104968578D01*
X147226392Y-105090392D01*
X147300679Y-105229371D01*
X147346424Y-105380174D01*
X147361870Y-105537000D01*
X147346424Y-105693826D01*
X147300679Y-105844629D01*
X147226392Y-105983608D01*
X147126422Y-106105422D01*
X147004608Y-106205392D01*
X146865629Y-106279679D01*
X146790228Y-106302551D01*
X146714827Y-106325424D01*
X146675649Y-106329283D01*
X146597295Y-106337000D01*
X146518705Y-106337000D01*
X146440351Y-106329283D01*
X146401173Y-106325424D01*
X146325772Y-106302551D01*
X146250371Y-106279679D01*
X146111392Y-106205392D01*
X145989578Y-106105422D01*
X145889608Y-105983608D01*
X145815321Y-105844629D01*
X145769576Y-105693826D01*
X145754130Y-105537000D01*
X145769576Y-105380174D01*
X145815321Y-105229371D01*
X145889608Y-105090392D01*
X145989578Y-104968578D01*
X146111392Y-104868608D01*
X146250371Y-104794321D01*
X146325772Y-104771449D01*
X146401173Y-104748576D01*
X146440351Y-104744717D01*
X146518705Y-104737000D01*
X146597295Y-104737000D01*
X146675649Y-104744717D01*
X146675649Y-104744717D01*
G37*
G36*
X161915649Y-104744717D02*
X161954827Y-104748576D01*
X162030228Y-104771449D01*
X162105629Y-104794321D01*
X162244608Y-104868608D01*
X162366422Y-104968578D01*
X162466392Y-105090392D01*
X162540679Y-105229371D01*
X162586424Y-105380174D01*
X162601870Y-105537000D01*
X162586424Y-105693826D01*
X162540679Y-105844629D01*
X162466392Y-105983608D01*
X162366422Y-106105422D01*
X162244608Y-106205392D01*
X162105629Y-106279679D01*
X162030228Y-106302551D01*
X161954827Y-106325424D01*
X161915649Y-106329283D01*
X161837295Y-106337000D01*
X161758705Y-106337000D01*
X161680351Y-106329283D01*
X161641173Y-106325424D01*
X161565772Y-106302551D01*
X161490371Y-106279679D01*
X161351392Y-106205392D01*
X161229578Y-106105422D01*
X161129608Y-105983608D01*
X161055321Y-105844629D01*
X161009576Y-105693826D01*
X160994130Y-105537000D01*
X161009576Y-105380174D01*
X161055321Y-105229371D01*
X161129608Y-105090392D01*
X161229578Y-104968578D01*
X161351392Y-104868608D01*
X161490371Y-104794321D01*
X161565772Y-104771449D01*
X161641173Y-104748576D01*
X161680351Y-104744717D01*
X161758705Y-104737000D01*
X161837295Y-104737000D01*
X161915649Y-104744717D01*
X161915649Y-104744717D01*
G37*
G36*
X159375649Y-104744717D02*
X159414827Y-104748576D01*
X159490228Y-104771449D01*
X159565629Y-104794321D01*
X159704608Y-104868608D01*
X159826422Y-104968578D01*
X159926392Y-105090392D01*
X160000679Y-105229371D01*
X160046424Y-105380174D01*
X160061870Y-105537000D01*
X160046424Y-105693826D01*
X160000679Y-105844629D01*
X159926392Y-105983608D01*
X159826422Y-106105422D01*
X159704608Y-106205392D01*
X159565629Y-106279679D01*
X159490228Y-106302551D01*
X159414827Y-106325424D01*
X159375649Y-106329283D01*
X159297295Y-106337000D01*
X159218705Y-106337000D01*
X159140351Y-106329283D01*
X159101173Y-106325424D01*
X159025772Y-106302551D01*
X158950371Y-106279679D01*
X158811392Y-106205392D01*
X158689578Y-106105422D01*
X158589608Y-105983608D01*
X158515321Y-105844629D01*
X158469576Y-105693826D01*
X158454130Y-105537000D01*
X158469576Y-105380174D01*
X158515321Y-105229371D01*
X158589608Y-105090392D01*
X158689578Y-104968578D01*
X158811392Y-104868608D01*
X158950371Y-104794321D01*
X159025772Y-104771449D01*
X159101173Y-104748576D01*
X159140351Y-104744717D01*
X159218705Y-104737000D01*
X159297295Y-104737000D01*
X159375649Y-104744717D01*
X159375649Y-104744717D01*
G37*
G36*
X141595649Y-104744717D02*
X141634827Y-104748576D01*
X141710228Y-104771449D01*
X141785629Y-104794321D01*
X141924608Y-104868608D01*
X142046422Y-104968578D01*
X142146392Y-105090392D01*
X142220679Y-105229371D01*
X142266424Y-105380174D01*
X142281870Y-105537000D01*
X142266424Y-105693826D01*
X142220679Y-105844629D01*
X142146392Y-105983608D01*
X142046422Y-106105422D01*
X141924608Y-106205392D01*
X141785629Y-106279679D01*
X141710228Y-106302551D01*
X141634827Y-106325424D01*
X141595649Y-106329283D01*
X141517295Y-106337000D01*
X141438705Y-106337000D01*
X141360351Y-106329283D01*
X141321173Y-106325424D01*
X141245772Y-106302551D01*
X141170371Y-106279679D01*
X141031392Y-106205392D01*
X140909578Y-106105422D01*
X140809608Y-105983608D01*
X140735321Y-105844629D01*
X140689576Y-105693826D01*
X140674130Y-105537000D01*
X140689576Y-105380174D01*
X140735321Y-105229371D01*
X140809608Y-105090392D01*
X140909578Y-104968578D01*
X141031392Y-104868608D01*
X141170371Y-104794321D01*
X141245772Y-104771449D01*
X141321173Y-104748576D01*
X141360351Y-104744717D01*
X141438705Y-104737000D01*
X141517295Y-104737000D01*
X141595649Y-104744717D01*
X141595649Y-104744717D01*
G37*
G36*
X164455649Y-104744717D02*
X164494827Y-104748576D01*
X164570228Y-104771449D01*
X164645629Y-104794321D01*
X164784608Y-104868608D01*
X164906422Y-104968578D01*
X165006392Y-105090392D01*
X165080679Y-105229371D01*
X165126424Y-105380174D01*
X165141870Y-105537000D01*
X165126424Y-105693826D01*
X165080679Y-105844629D01*
X165006392Y-105983608D01*
X164906422Y-106105422D01*
X164784608Y-106205392D01*
X164645629Y-106279679D01*
X164570228Y-106302551D01*
X164494827Y-106325424D01*
X164455649Y-106329283D01*
X164377295Y-106337000D01*
X164298705Y-106337000D01*
X164220351Y-106329283D01*
X164181173Y-106325424D01*
X164105772Y-106302551D01*
X164030371Y-106279679D01*
X163891392Y-106205392D01*
X163769578Y-106105422D01*
X163669608Y-105983608D01*
X163595321Y-105844629D01*
X163549576Y-105693826D01*
X163534130Y-105537000D01*
X163549576Y-105380174D01*
X163595321Y-105229371D01*
X163669608Y-105090392D01*
X163769578Y-104968578D01*
X163891392Y-104868608D01*
X164030371Y-104794321D01*
X164105772Y-104771449D01*
X164181173Y-104748576D01*
X164220351Y-104744717D01*
X164298705Y-104737000D01*
X164377295Y-104737000D01*
X164455649Y-104744717D01*
X164455649Y-104744717D01*
G37*
G36*
X166995649Y-104744717D02*
X167034827Y-104748576D01*
X167110228Y-104771449D01*
X167185629Y-104794321D01*
X167324608Y-104868608D01*
X167446422Y-104968578D01*
X167546392Y-105090392D01*
X167620679Y-105229371D01*
X167666424Y-105380174D01*
X167681870Y-105537000D01*
X167666424Y-105693826D01*
X167620679Y-105844629D01*
X167546392Y-105983608D01*
X167446422Y-106105422D01*
X167324608Y-106205392D01*
X167185629Y-106279679D01*
X167110228Y-106302551D01*
X167034827Y-106325424D01*
X166995649Y-106329283D01*
X166917295Y-106337000D01*
X166838705Y-106337000D01*
X166760351Y-106329283D01*
X166721173Y-106325424D01*
X166645772Y-106302551D01*
X166570371Y-106279679D01*
X166431392Y-106205392D01*
X166309578Y-106105422D01*
X166209608Y-105983608D01*
X166135321Y-105844629D01*
X166089576Y-105693826D01*
X166074130Y-105537000D01*
X166089576Y-105380174D01*
X166135321Y-105229371D01*
X166209608Y-105090392D01*
X166309578Y-104968578D01*
X166431392Y-104868608D01*
X166570371Y-104794321D01*
X166645772Y-104771449D01*
X166721173Y-104748576D01*
X166760351Y-104744717D01*
X166838705Y-104737000D01*
X166917295Y-104737000D01*
X166995649Y-104744717D01*
X166995649Y-104744717D01*
G37*
G36*
X169535649Y-104744717D02*
X169574827Y-104748576D01*
X169650228Y-104771449D01*
X169725629Y-104794321D01*
X169864608Y-104868608D01*
X169986422Y-104968578D01*
X170086392Y-105090392D01*
X170160679Y-105229371D01*
X170206424Y-105380174D01*
X170221870Y-105537000D01*
X170206424Y-105693826D01*
X170160679Y-105844629D01*
X170086392Y-105983608D01*
X169986422Y-106105422D01*
X169864608Y-106205392D01*
X169725629Y-106279679D01*
X169650228Y-106302551D01*
X169574827Y-106325424D01*
X169535649Y-106329283D01*
X169457295Y-106337000D01*
X169378705Y-106337000D01*
X169300351Y-106329283D01*
X169261173Y-106325424D01*
X169185772Y-106302551D01*
X169110371Y-106279679D01*
X168971392Y-106205392D01*
X168849578Y-106105422D01*
X168749608Y-105983608D01*
X168675321Y-105844629D01*
X168629576Y-105693826D01*
X168614130Y-105537000D01*
X168629576Y-105380174D01*
X168675321Y-105229371D01*
X168749608Y-105090392D01*
X168849578Y-104968578D01*
X168971392Y-104868608D01*
X169110371Y-104794321D01*
X169185772Y-104771449D01*
X169261173Y-104748576D01*
X169300351Y-104744717D01*
X169378705Y-104737000D01*
X169457295Y-104737000D01*
X169535649Y-104744717D01*
X169535649Y-104744717D01*
G37*
G36*
X175298000Y-106337000D02*
X173698000Y-106337000D01*
X173698000Y-104737000D01*
X175298000Y-104737000D01*
X175298000Y-106337000D01*
X175298000Y-106337000D01*
G37*
G36*
X149215649Y-104744717D02*
X149254827Y-104748576D01*
X149330228Y-104771449D01*
X149405629Y-104794321D01*
X149544608Y-104868608D01*
X149666422Y-104968578D01*
X149766392Y-105090392D01*
X149840679Y-105229371D01*
X149886424Y-105380174D01*
X149901870Y-105537000D01*
X149886424Y-105693826D01*
X149840679Y-105844629D01*
X149766392Y-105983608D01*
X149666422Y-106105422D01*
X149544608Y-106205392D01*
X149405629Y-106279679D01*
X149330228Y-106302551D01*
X149254827Y-106325424D01*
X149215649Y-106329283D01*
X149137295Y-106337000D01*
X149058705Y-106337000D01*
X148980351Y-106329283D01*
X148941173Y-106325424D01*
X148865772Y-106302551D01*
X148790371Y-106279679D01*
X148651392Y-106205392D01*
X148529578Y-106105422D01*
X148429608Y-105983608D01*
X148355321Y-105844629D01*
X148309576Y-105693826D01*
X148294130Y-105537000D01*
X148309576Y-105380174D01*
X148355321Y-105229371D01*
X148429608Y-105090392D01*
X148529578Y-104968578D01*
X148651392Y-104868608D01*
X148790371Y-104794321D01*
X148865772Y-104771449D01*
X148941173Y-104748576D01*
X148980351Y-104744717D01*
X149058705Y-104737000D01*
X149137295Y-104737000D01*
X149215649Y-104744717D01*
X149215649Y-104744717D01*
G37*
G36*
X139846000Y-103863000D02*
X139046000Y-103863000D01*
X139046000Y-103363000D01*
X139846000Y-103363000D01*
X139846000Y-103863000D01*
X139846000Y-103863000D01*
G37*
G36*
X138046000Y-103863000D02*
X137246000Y-103863000D01*
X137246000Y-103363000D01*
X138046000Y-103363000D01*
X138046000Y-103863000D01*
X138046000Y-103863000D01*
G37*
G36*
X115092553Y-102544062D02*
X115126309Y-102554302D01*
X115157420Y-102570931D01*
X115184689Y-102593311D01*
X115207069Y-102620580D01*
X115223698Y-102651691D01*
X115233938Y-102685447D01*
X115238000Y-102726695D01*
X115238000Y-103478305D01*
X115233938Y-103519553D01*
X115223698Y-103553309D01*
X115207069Y-103584420D01*
X115184689Y-103611689D01*
X115157420Y-103634069D01*
X115126309Y-103650698D01*
X115092553Y-103660938D01*
X115051305Y-103665000D01*
X112024695Y-103665000D01*
X111983447Y-103660938D01*
X111949691Y-103650698D01*
X111918580Y-103634069D01*
X111891311Y-103611689D01*
X111868931Y-103584420D01*
X111852302Y-103553309D01*
X111842062Y-103519553D01*
X111838000Y-103478305D01*
X111838000Y-102726695D01*
X111842062Y-102685447D01*
X111852302Y-102651691D01*
X111868931Y-102620580D01*
X111891311Y-102593311D01*
X111918580Y-102570931D01*
X111949691Y-102554302D01*
X111983447Y-102544062D01*
X112024695Y-102540000D01*
X115051305Y-102540000D01*
X115092553Y-102544062D01*
X115092553Y-102544062D01*
G37*
G36*
X139846000Y-103013000D02*
X139046000Y-103013000D01*
X139046000Y-102613000D01*
X139846000Y-102613000D01*
X139846000Y-103013000D01*
X139846000Y-103013000D01*
G37*
G36*
X138046000Y-103013000D02*
X137246000Y-103013000D01*
X137246000Y-102613000D01*
X138046000Y-102613000D01*
X138046000Y-103013000D01*
X138046000Y-103013000D01*
G37*
G36*
X153907116Y-101763595D02*
X153936313Y-101772452D01*
X153963218Y-101786833D01*
X153986808Y-101806192D01*
X154006167Y-101829782D01*
X154020548Y-101856687D01*
X154029405Y-101885884D01*
X154033000Y-101922390D01*
X154033000Y-102547610D01*
X154029405Y-102584116D01*
X154020548Y-102613313D01*
X154006167Y-102640218D01*
X153986808Y-102663808D01*
X153963218Y-102683167D01*
X153936313Y-102697548D01*
X153907116Y-102706405D01*
X153870610Y-102710000D01*
X153320390Y-102710000D01*
X153283884Y-102706405D01*
X153254687Y-102697548D01*
X153227782Y-102683167D01*
X153204192Y-102663808D01*
X153184833Y-102640218D01*
X153170452Y-102613313D01*
X153161595Y-102584116D01*
X153158000Y-102547610D01*
X153158000Y-101922390D01*
X153161595Y-101885884D01*
X153170452Y-101856687D01*
X153184833Y-101829782D01*
X153204192Y-101806192D01*
X153227782Y-101786833D01*
X153254687Y-101772452D01*
X153283884Y-101763595D01*
X153320390Y-101760000D01*
X153870610Y-101760000D01*
X153907116Y-101763595D01*
X153907116Y-101763595D01*
G37*
G36*
X152332116Y-101763595D02*
X152361313Y-101772452D01*
X152388218Y-101786833D01*
X152411808Y-101806192D01*
X152431167Y-101829782D01*
X152445548Y-101856687D01*
X152454405Y-101885884D01*
X152458000Y-101922390D01*
X152458000Y-102547610D01*
X152454405Y-102584116D01*
X152445548Y-102613313D01*
X152431167Y-102640218D01*
X152411808Y-102663808D01*
X152388218Y-102683167D01*
X152361313Y-102697548D01*
X152332116Y-102706405D01*
X152295610Y-102710000D01*
X151745390Y-102710000D01*
X151708884Y-102706405D01*
X151679687Y-102697548D01*
X151652782Y-102683167D01*
X151629192Y-102663808D01*
X151609833Y-102640218D01*
X151595452Y-102613313D01*
X151586595Y-102584116D01*
X151583000Y-102547610D01*
X151583000Y-101922390D01*
X151586595Y-101885884D01*
X151595452Y-101856687D01*
X151609833Y-101829782D01*
X151629192Y-101806192D01*
X151652782Y-101786833D01*
X151679687Y-101772452D01*
X151708884Y-101763595D01*
X151745390Y-101760000D01*
X152295610Y-101760000D01*
X152332116Y-101763595D01*
X152332116Y-101763595D01*
G37*
G36*
X120598000Y-102315000D02*
X119698000Y-102315000D01*
X119698000Y-101515000D01*
X120598000Y-101515000D01*
X120598000Y-102315000D01*
X120598000Y-102315000D01*
G37*
G36*
X139846000Y-102213000D02*
X139046000Y-102213000D01*
X139046000Y-101813000D01*
X139846000Y-101813000D01*
X139846000Y-102213000D01*
X139846000Y-102213000D01*
G37*
G36*
X138046000Y-102213000D02*
X137246000Y-102213000D01*
X137246000Y-101813000D01*
X138046000Y-101813000D01*
X138046000Y-102213000D01*
X138046000Y-102213000D01*
G37*
G36*
X136268000Y-101965000D02*
X131768000Y-101965000D01*
X131768000Y-99965000D01*
X136268000Y-99965000D01*
X136268000Y-101965000D01*
X136268000Y-101965000D01*
G37*
G36*
X127768000Y-101965000D02*
X123268000Y-101965000D01*
X123268000Y-99965000D01*
X127768000Y-99965000D01*
X127768000Y-101965000D01*
X127768000Y-101965000D01*
G37*
G36*
X177204630Y-100127299D02*
X177364855Y-100175903D01*
X177512520Y-100254831D01*
X177641949Y-100361051D01*
X177748169Y-100490480D01*
X177827097Y-100638145D01*
X177875701Y-100798370D01*
X177892112Y-100965000D01*
X177875701Y-101131630D01*
X177827097Y-101291855D01*
X177748169Y-101439520D01*
X177641949Y-101568949D01*
X177512520Y-101675169D01*
X177364855Y-101754097D01*
X177204630Y-101802701D01*
X177079752Y-101815000D01*
X176996248Y-101815000D01*
X176871370Y-101802701D01*
X176711145Y-101754097D01*
X176563480Y-101675169D01*
X176434051Y-101568949D01*
X176327831Y-101439520D01*
X176248903Y-101291855D01*
X176200299Y-101131630D01*
X176183888Y-100965000D01*
X176200299Y-100798370D01*
X176248903Y-100638145D01*
X176327831Y-100490480D01*
X176434051Y-100361051D01*
X176563480Y-100254831D01*
X176711145Y-100175903D01*
X176871370Y-100127299D01*
X176996248Y-100115000D01*
X177079752Y-100115000D01*
X177204630Y-100127299D01*
X177204630Y-100127299D01*
G37*
G36*
X174664630Y-100127299D02*
X174824855Y-100175903D01*
X174972520Y-100254831D01*
X175101949Y-100361051D01*
X175208169Y-100490480D01*
X175287097Y-100638145D01*
X175335701Y-100798370D01*
X175352112Y-100965000D01*
X175335701Y-101131630D01*
X175287097Y-101291855D01*
X175208169Y-101439520D01*
X175101949Y-101568949D01*
X174972520Y-101675169D01*
X174824855Y-101754097D01*
X174664630Y-101802701D01*
X174539752Y-101815000D01*
X174456248Y-101815000D01*
X174331370Y-101802701D01*
X174171145Y-101754097D01*
X174023480Y-101675169D01*
X173894051Y-101568949D01*
X173787831Y-101439520D01*
X173708903Y-101291855D01*
X173660299Y-101131630D01*
X173643888Y-100965000D01*
X173660299Y-100798370D01*
X173708903Y-100638145D01*
X173787831Y-100490480D01*
X173894051Y-100361051D01*
X174023480Y-100254831D01*
X174171145Y-100175903D01*
X174331370Y-100127299D01*
X174456248Y-100115000D01*
X174539752Y-100115000D01*
X174664630Y-100127299D01*
X174664630Y-100127299D01*
G37*
G36*
X139846000Y-101463000D02*
X139046000Y-101463000D01*
X139046000Y-100963000D01*
X139846000Y-100963000D01*
X139846000Y-101463000D01*
X139846000Y-101463000D01*
G37*
G36*
X138046000Y-101463000D02*
X137246000Y-101463000D01*
X137246000Y-100963000D01*
X138046000Y-100963000D01*
X138046000Y-101463000D01*
X138046000Y-101463000D01*
G37*
G36*
X118598000Y-101365000D02*
X117698000Y-101365000D01*
X117698000Y-100565000D01*
X118598000Y-100565000D01*
X118598000Y-101365000D01*
X118598000Y-101365000D01*
G37*
G36*
X171168024Y-99835955D02*
X171200736Y-99845879D01*
X171230890Y-99861997D01*
X171257316Y-99883684D01*
X171279003Y-99910110D01*
X171295121Y-99940264D01*
X171305045Y-99972976D01*
X171309000Y-100013138D01*
X171309000Y-100900862D01*
X171305045Y-100941024D01*
X171295121Y-100973736D01*
X171279003Y-101003890D01*
X171257316Y-101030316D01*
X171230890Y-101052003D01*
X171200736Y-101068121D01*
X171168024Y-101078045D01*
X171127862Y-101082000D01*
X169740138Y-101082000D01*
X169699976Y-101078045D01*
X169667264Y-101068121D01*
X169637110Y-101052003D01*
X169610684Y-101030316D01*
X169588997Y-101003890D01*
X169572879Y-100973736D01*
X169562955Y-100941024D01*
X169559000Y-100900862D01*
X169559000Y-100013138D01*
X169562955Y-99972976D01*
X169572879Y-99940264D01*
X169588997Y-99910110D01*
X169610684Y-99883684D01*
X169637110Y-99861997D01*
X169667264Y-99845879D01*
X169699976Y-99835955D01*
X169740138Y-99832000D01*
X171127862Y-99832000D01*
X171168024Y-99835955D01*
X171168024Y-99835955D01*
G37*
G36*
X154308000Y-100645000D02*
X153908000Y-100645000D01*
X153908000Y-98745000D01*
X154308000Y-98745000D01*
X154308000Y-100645000D01*
X154308000Y-100645000D01*
G37*
G36*
X151908000Y-100645000D02*
X151508000Y-100645000D01*
X151508000Y-98745000D01*
X151908000Y-98745000D01*
X151908000Y-100645000D01*
X151908000Y-100645000D01*
G37*
G36*
X153108000Y-100645000D02*
X152708000Y-100645000D01*
X152708000Y-98745000D01*
X153108000Y-98745000D01*
X153108000Y-100645000D01*
X153108000Y-100645000D01*
G37*
G36*
X120598000Y-100415000D02*
X119698000Y-100415000D01*
X119698000Y-99615000D01*
X120598000Y-99615000D01*
X120598000Y-100415000D01*
X120598000Y-100415000D01*
G37*
G36*
X139696000Y-99922500D02*
X138696000Y-99922500D01*
X138696000Y-98422500D01*
X139696000Y-98422500D01*
X139696000Y-99922500D01*
X139696000Y-99922500D01*
G37*
G36*
X138396000Y-99922500D02*
X137396000Y-99922500D01*
X137396000Y-98422500D01*
X138396000Y-98422500D01*
X138396000Y-99922500D01*
X138396000Y-99922500D01*
G37*
G36*
X115092553Y-98269062D02*
X115126309Y-98279302D01*
X115157420Y-98295931D01*
X115184689Y-98318311D01*
X115207069Y-98345580D01*
X115223698Y-98376691D01*
X115233938Y-98410447D01*
X115238000Y-98451695D01*
X115238000Y-99203305D01*
X115233938Y-99244553D01*
X115223698Y-99278309D01*
X115207069Y-99309420D01*
X115184689Y-99336689D01*
X115157420Y-99359069D01*
X115126309Y-99375698D01*
X115092553Y-99385938D01*
X115051305Y-99390000D01*
X112024695Y-99390000D01*
X111983447Y-99385938D01*
X111949691Y-99375698D01*
X111918580Y-99359069D01*
X111891311Y-99336689D01*
X111868931Y-99309420D01*
X111852302Y-99278309D01*
X111842062Y-99244553D01*
X111838000Y-99203305D01*
X111838000Y-98451695D01*
X111842062Y-98410447D01*
X111852302Y-98376691D01*
X111868931Y-98345580D01*
X111891311Y-98318311D01*
X111918580Y-98295931D01*
X111949691Y-98279302D01*
X111983447Y-98269062D01*
X112024695Y-98265000D01*
X115051305Y-98265000D01*
X115092553Y-98269062D01*
X115092553Y-98269062D01*
G37*
G36*
X177204630Y-97587299D02*
X177364855Y-97635903D01*
X177512520Y-97714831D01*
X177641949Y-97821051D01*
X177748169Y-97950480D01*
X177827097Y-98098145D01*
X177875701Y-98258370D01*
X177892112Y-98425000D01*
X177875701Y-98591630D01*
X177827097Y-98751855D01*
X177748169Y-98899520D01*
X177641949Y-99028949D01*
X177512520Y-99135169D01*
X177364855Y-99214097D01*
X177204630Y-99262701D01*
X177079752Y-99275000D01*
X176996248Y-99275000D01*
X176871370Y-99262701D01*
X176711145Y-99214097D01*
X176563480Y-99135169D01*
X176434051Y-99028949D01*
X176327831Y-98899520D01*
X176248903Y-98751855D01*
X176200299Y-98591630D01*
X176183888Y-98425000D01*
X176200299Y-98258370D01*
X176248903Y-98098145D01*
X176327831Y-97950480D01*
X176434051Y-97821051D01*
X176563480Y-97714831D01*
X176711145Y-97635903D01*
X176871370Y-97587299D01*
X176996248Y-97575000D01*
X177079752Y-97575000D01*
X177204630Y-97587299D01*
X177204630Y-97587299D01*
G37*
G36*
X174664630Y-97587299D02*
X174824855Y-97635903D01*
X174972520Y-97714831D01*
X175101949Y-97821051D01*
X175208169Y-97950480D01*
X175287097Y-98098145D01*
X175335701Y-98258370D01*
X175352112Y-98425000D01*
X175335701Y-98591630D01*
X175287097Y-98751855D01*
X175208169Y-98899520D01*
X175101949Y-99028949D01*
X174972520Y-99135169D01*
X174824855Y-99214097D01*
X174664630Y-99262701D01*
X174539752Y-99275000D01*
X174456248Y-99275000D01*
X174331370Y-99262701D01*
X174171145Y-99214097D01*
X174023480Y-99135169D01*
X173894051Y-99028949D01*
X173787831Y-98899520D01*
X173708903Y-98751855D01*
X173660299Y-98591630D01*
X173643888Y-98425000D01*
X173660299Y-98258370D01*
X173708903Y-98098145D01*
X173787831Y-97950480D01*
X173894051Y-97821051D01*
X174023480Y-97714831D01*
X174171145Y-97635903D01*
X174331370Y-97587299D01*
X174456248Y-97575000D01*
X174539752Y-97575000D01*
X174664630Y-97587299D01*
X174664630Y-97587299D01*
G37*
G36*
X119642992Y-96967076D02*
X119676883Y-96977357D01*
X119708111Y-96994048D01*
X119735485Y-97016515D01*
X119757952Y-97043889D01*
X119774643Y-97075117D01*
X119784924Y-97109008D01*
X119789000Y-97150391D01*
X119789000Y-98175609D01*
X119784924Y-98216992D01*
X119774643Y-98250883D01*
X119757952Y-98282111D01*
X119735485Y-98309485D01*
X119708111Y-98331952D01*
X119676883Y-98348643D01*
X119642992Y-98358924D01*
X119601609Y-98363000D01*
X119001391Y-98363000D01*
X118960008Y-98358924D01*
X118926117Y-98348643D01*
X118894889Y-98331952D01*
X118867515Y-98309485D01*
X118845048Y-98282111D01*
X118828357Y-98250883D01*
X118818076Y-98216992D01*
X118814000Y-98175609D01*
X118814000Y-97150391D01*
X118818076Y-97109008D01*
X118828357Y-97075117D01*
X118845048Y-97043889D01*
X118867515Y-97016515D01*
X118894889Y-96994048D01*
X118926117Y-96977357D01*
X118960008Y-96967076D01*
X119001391Y-96963000D01*
X119601609Y-96963000D01*
X119642992Y-96967076D01*
X119642992Y-96967076D01*
G37*
G36*
X117767992Y-96967076D02*
X117801883Y-96977357D01*
X117833111Y-96994048D01*
X117860485Y-97016515D01*
X117882952Y-97043889D01*
X117899643Y-97075117D01*
X117909924Y-97109008D01*
X117914000Y-97150391D01*
X117914000Y-98175609D01*
X117909924Y-98216992D01*
X117899643Y-98250883D01*
X117882952Y-98282111D01*
X117860485Y-98309485D01*
X117833111Y-98331952D01*
X117801883Y-98348643D01*
X117767992Y-98358924D01*
X117726609Y-98363000D01*
X117126391Y-98363000D01*
X117085008Y-98358924D01*
X117051117Y-98348643D01*
X117019889Y-98331952D01*
X116992515Y-98309485D01*
X116970048Y-98282111D01*
X116953357Y-98250883D01*
X116943076Y-98216992D01*
X116939000Y-98175609D01*
X116939000Y-97150391D01*
X116943076Y-97109008D01*
X116953357Y-97075117D01*
X116970048Y-97043889D01*
X116992515Y-97016515D01*
X117019889Y-96994048D01*
X117051117Y-96977357D01*
X117085008Y-96967076D01*
X117126391Y-96963000D01*
X117726609Y-96963000D01*
X117767992Y-96967076D01*
X117767992Y-96967076D01*
G37*
G36*
X171168024Y-97035955D02*
X171200736Y-97045879D01*
X171230890Y-97061997D01*
X171257316Y-97083684D01*
X171279003Y-97110110D01*
X171295121Y-97140264D01*
X171305045Y-97172976D01*
X171309000Y-97213138D01*
X171309000Y-98100862D01*
X171305045Y-98141024D01*
X171295121Y-98173736D01*
X171279003Y-98203890D01*
X171257316Y-98230316D01*
X171230890Y-98252003D01*
X171200736Y-98268121D01*
X171168024Y-98278045D01*
X171127862Y-98282000D01*
X169740138Y-98282000D01*
X169699976Y-98278045D01*
X169667264Y-98268121D01*
X169637110Y-98252003D01*
X169610684Y-98230316D01*
X169588997Y-98203890D01*
X169572879Y-98173736D01*
X169562955Y-98141024D01*
X169559000Y-98100862D01*
X169559000Y-97213138D01*
X169562955Y-97172976D01*
X169572879Y-97140264D01*
X169588997Y-97110110D01*
X169610684Y-97083684D01*
X169637110Y-97061997D01*
X169667264Y-97045879D01*
X169699976Y-97035955D01*
X169740138Y-97032000D01*
X171127862Y-97032000D01*
X171168024Y-97035955D01*
X171168024Y-97035955D01*
G37*
G36*
X122942116Y-96937595D02*
X122971313Y-96946452D01*
X122998218Y-96960833D01*
X123021808Y-96980192D01*
X123041167Y-97003782D01*
X123055548Y-97030687D01*
X123064405Y-97059884D01*
X123068000Y-97096390D01*
X123068000Y-97721610D01*
X123064405Y-97758116D01*
X123055548Y-97787313D01*
X123041167Y-97814218D01*
X123021808Y-97837808D01*
X122998218Y-97857167D01*
X122971313Y-97871548D01*
X122942116Y-97880405D01*
X122905610Y-97884000D01*
X122355390Y-97884000D01*
X122318884Y-97880405D01*
X122289687Y-97871548D01*
X122262782Y-97857167D01*
X122239192Y-97837808D01*
X122219833Y-97814218D01*
X122205452Y-97787313D01*
X122196595Y-97758116D01*
X122193000Y-97721610D01*
X122193000Y-97096390D01*
X122196595Y-97059884D01*
X122205452Y-97030687D01*
X122219833Y-97003782D01*
X122239192Y-96980192D01*
X122262782Y-96960833D01*
X122289687Y-96946452D01*
X122318884Y-96937595D01*
X122355390Y-96934000D01*
X122905610Y-96934000D01*
X122942116Y-96937595D01*
X122942116Y-96937595D01*
G37*
G36*
X130867116Y-96937595D02*
X130896313Y-96946452D01*
X130923218Y-96960833D01*
X130946808Y-96980192D01*
X130966167Y-97003782D01*
X130980548Y-97030687D01*
X130989405Y-97059884D01*
X130993000Y-97096390D01*
X130993000Y-97721610D01*
X130989405Y-97758116D01*
X130980548Y-97787313D01*
X130966167Y-97814218D01*
X130946808Y-97837808D01*
X130923218Y-97857167D01*
X130896313Y-97871548D01*
X130867116Y-97880405D01*
X130830610Y-97884000D01*
X130280390Y-97884000D01*
X130243884Y-97880405D01*
X130214687Y-97871548D01*
X130187782Y-97857167D01*
X130164192Y-97837808D01*
X130144833Y-97814218D01*
X130130452Y-97787313D01*
X130121595Y-97758116D01*
X130118000Y-97721610D01*
X130118000Y-97096390D01*
X130121595Y-97059884D01*
X130130452Y-97030687D01*
X130144833Y-97003782D01*
X130164192Y-96980192D01*
X130187782Y-96960833D01*
X130214687Y-96946452D01*
X130243884Y-96937595D01*
X130280390Y-96934000D01*
X130830610Y-96934000D01*
X130867116Y-96937595D01*
X130867116Y-96937595D01*
G37*
G36*
X129292116Y-96937595D02*
X129321313Y-96946452D01*
X129348218Y-96960833D01*
X129371808Y-96980192D01*
X129391167Y-97003782D01*
X129405548Y-97030687D01*
X129414405Y-97059884D01*
X129418000Y-97096390D01*
X129418000Y-97721610D01*
X129414405Y-97758116D01*
X129405548Y-97787313D01*
X129391167Y-97814218D01*
X129371808Y-97837808D01*
X129348218Y-97857167D01*
X129321313Y-97871548D01*
X129292116Y-97880405D01*
X129255610Y-97884000D01*
X128705390Y-97884000D01*
X128668884Y-97880405D01*
X128639687Y-97871548D01*
X128612782Y-97857167D01*
X128589192Y-97837808D01*
X128569833Y-97814218D01*
X128555452Y-97787313D01*
X128546595Y-97758116D01*
X128543000Y-97721610D01*
X128543000Y-97096390D01*
X128546595Y-97059884D01*
X128555452Y-97030687D01*
X128569833Y-97003782D01*
X128589192Y-96980192D01*
X128612782Y-96960833D01*
X128639687Y-96946452D01*
X128668884Y-96937595D01*
X128705390Y-96934000D01*
X129255610Y-96934000D01*
X129292116Y-96937595D01*
X129292116Y-96937595D01*
G37*
G36*
X124517116Y-96937595D02*
X124546313Y-96946452D01*
X124573218Y-96960833D01*
X124596808Y-96980192D01*
X124616167Y-97003782D01*
X124630548Y-97030687D01*
X124639405Y-97059884D01*
X124643000Y-97096390D01*
X124643000Y-97721610D01*
X124639405Y-97758116D01*
X124630548Y-97787313D01*
X124616167Y-97814218D01*
X124596808Y-97837808D01*
X124573218Y-97857167D01*
X124546313Y-97871548D01*
X124517116Y-97880405D01*
X124480610Y-97884000D01*
X123930390Y-97884000D01*
X123893884Y-97880405D01*
X123864687Y-97871548D01*
X123837782Y-97857167D01*
X123814192Y-97837808D01*
X123794833Y-97814218D01*
X123780452Y-97787313D01*
X123771595Y-97758116D01*
X123768000Y-97721610D01*
X123768000Y-97096390D01*
X123771595Y-97059884D01*
X123780452Y-97030687D01*
X123794833Y-97003782D01*
X123814192Y-96980192D01*
X123837782Y-96960833D01*
X123864687Y-96946452D01*
X123893884Y-96937595D01*
X123930390Y-96934000D01*
X124480610Y-96934000D01*
X124517116Y-96937595D01*
X124517116Y-96937595D01*
G37*
G36*
X138070116Y-96180595D02*
X138099313Y-96189452D01*
X138126218Y-96203833D01*
X138149808Y-96223192D01*
X138169167Y-96246782D01*
X138183548Y-96273687D01*
X138192405Y-96302884D01*
X138196000Y-96339390D01*
X138196000Y-96964610D01*
X138192405Y-97001116D01*
X138183548Y-97030313D01*
X138169167Y-97057218D01*
X138149808Y-97080808D01*
X138126218Y-97100167D01*
X138099313Y-97114548D01*
X138070116Y-97123405D01*
X138033610Y-97127000D01*
X137483390Y-97127000D01*
X137446884Y-97123405D01*
X137417687Y-97114548D01*
X137390782Y-97100167D01*
X137367192Y-97080808D01*
X137347833Y-97057218D01*
X137333452Y-97030313D01*
X137324595Y-97001116D01*
X137321000Y-96964610D01*
X137321000Y-96339390D01*
X137324595Y-96302884D01*
X137333452Y-96273687D01*
X137347833Y-96246782D01*
X137367192Y-96223192D01*
X137390782Y-96203833D01*
X137417687Y-96189452D01*
X137446884Y-96180595D01*
X137483390Y-96177000D01*
X138033610Y-96177000D01*
X138070116Y-96180595D01*
X138070116Y-96180595D01*
G37*
G36*
X139645116Y-96180595D02*
X139674313Y-96189452D01*
X139701218Y-96203833D01*
X139724808Y-96223192D01*
X139744167Y-96246782D01*
X139758548Y-96273687D01*
X139767405Y-96302884D01*
X139771000Y-96339390D01*
X139771000Y-96964610D01*
X139767405Y-97001116D01*
X139758548Y-97030313D01*
X139744167Y-97057218D01*
X139724808Y-97080808D01*
X139701218Y-97100167D01*
X139674313Y-97114548D01*
X139645116Y-97123405D01*
X139608610Y-97127000D01*
X139058390Y-97127000D01*
X139021884Y-97123405D01*
X138992687Y-97114548D01*
X138965782Y-97100167D01*
X138942192Y-97080808D01*
X138922833Y-97057218D01*
X138908452Y-97030313D01*
X138899595Y-97001116D01*
X138896000Y-96964610D01*
X138896000Y-96339390D01*
X138899595Y-96302884D01*
X138908452Y-96273687D01*
X138922833Y-96246782D01*
X138942192Y-96223192D01*
X138965782Y-96203833D01*
X138992687Y-96189452D01*
X139021884Y-96180595D01*
X139058390Y-96177000D01*
X139608610Y-96177000D01*
X139645116Y-96180595D01*
X139645116Y-96180595D01*
G37*
G36*
X175348000Y-96735000D02*
X173648000Y-96735000D01*
X173648000Y-95035000D01*
X175348000Y-95035000D01*
X175348000Y-96735000D01*
X175348000Y-96735000D01*
G37*
G36*
X177204630Y-95047299D02*
X177364855Y-95095903D01*
X177512520Y-95174831D01*
X177641949Y-95281051D01*
X177748169Y-95410480D01*
X177827097Y-95558145D01*
X177875701Y-95718370D01*
X177892112Y-95885000D01*
X177875701Y-96051630D01*
X177827097Y-96211855D01*
X177748169Y-96359520D01*
X177641949Y-96488949D01*
X177512520Y-96595169D01*
X177364855Y-96674097D01*
X177204630Y-96722701D01*
X177079752Y-96735000D01*
X176996248Y-96735000D01*
X176871370Y-96722701D01*
X176711145Y-96674097D01*
X176563480Y-96595169D01*
X176434051Y-96488949D01*
X176327831Y-96359520D01*
X176248903Y-96211855D01*
X176200299Y-96051630D01*
X176183888Y-95885000D01*
X176200299Y-95718370D01*
X176248903Y-95558145D01*
X176327831Y-95410480D01*
X176434051Y-95281051D01*
X176563480Y-95174831D01*
X176711145Y-95095903D01*
X176871370Y-95047299D01*
X176996248Y-95035000D01*
X177079752Y-95035000D01*
X177204630Y-95047299D01*
X177204630Y-95047299D01*
G37*
G36*
X114048456Y-92722251D02*
X114366936Y-92854170D01*
X114653560Y-93045686D01*
X114897314Y-93289440D01*
X115088830Y-93576064D01*
X115220749Y-93894544D01*
X115288000Y-94232640D01*
X115288000Y-94577360D01*
X115220749Y-94915456D01*
X115088830Y-95233936D01*
X114897314Y-95520560D01*
X114653560Y-95764314D01*
X114366936Y-95955830D01*
X114048456Y-96087749D01*
X113710360Y-96155000D01*
X113365640Y-96155000D01*
X113027544Y-96087749D01*
X112709064Y-95955830D01*
X112422440Y-95764314D01*
X112178686Y-95520560D01*
X111987170Y-95233936D01*
X111855251Y-94915456D01*
X111788000Y-94577360D01*
X111788000Y-94232640D01*
X111855251Y-93894544D01*
X111987170Y-93576064D01*
X112178686Y-93289440D01*
X112422440Y-93045686D01*
X112709064Y-92854170D01*
X113027544Y-92722251D01*
X113365640Y-92655000D01*
X113710360Y-92655000D01*
X114048456Y-92722251D01*
X114048456Y-92722251D01*
G37*
G36*
X129692449Y-95105551D02*
X129693602Y-95117253D01*
X129698383Y-95141287D01*
X129707760Y-95163925D01*
X129721374Y-95184300D01*
X129738702Y-95201627D01*
X129759076Y-95215241D01*
X129781715Y-95224618D01*
X129805749Y-95229398D01*
X129830253Y-95229398D01*
X129854287Y-95224617D01*
X129876925Y-95215240D01*
X129897300Y-95201626D01*
X129914627Y-95184298D01*
X129928241Y-95163924D01*
X129937618Y-95141285D01*
X129942398Y-95117253D01*
X129943551Y-95105551D01*
X129949141Y-95105000D01*
X130186859Y-95105000D01*
X130192449Y-95105551D01*
X130193602Y-95117253D01*
X130198383Y-95141287D01*
X130207760Y-95163925D01*
X130221374Y-95184300D01*
X130238702Y-95201627D01*
X130259076Y-95215241D01*
X130281715Y-95224618D01*
X130305749Y-95229398D01*
X130330253Y-95229398D01*
X130354287Y-95224617D01*
X130376925Y-95215240D01*
X130397300Y-95201626D01*
X130414627Y-95184298D01*
X130428241Y-95163924D01*
X130437618Y-95141285D01*
X130442398Y-95117253D01*
X130443551Y-95105551D01*
X130449141Y-95105000D01*
X130686859Y-95105000D01*
X130692449Y-95105551D01*
X130693602Y-95117253D01*
X130698383Y-95141287D01*
X130707760Y-95163925D01*
X130721374Y-95184300D01*
X130738702Y-95201627D01*
X130759076Y-95215241D01*
X130781715Y-95224618D01*
X130805749Y-95229398D01*
X130830253Y-95229398D01*
X130854287Y-95224617D01*
X130876925Y-95215240D01*
X130897300Y-95201626D01*
X130914627Y-95184298D01*
X130928241Y-95163924D01*
X130937618Y-95141285D01*
X130942398Y-95117253D01*
X130943551Y-95105551D01*
X130949141Y-95105000D01*
X131186859Y-95105000D01*
X131192449Y-95105551D01*
X131193602Y-95117253D01*
X131198383Y-95141287D01*
X131207760Y-95163925D01*
X131221374Y-95184300D01*
X131238702Y-95201627D01*
X131259076Y-95215241D01*
X131281715Y-95224618D01*
X131305749Y-95229398D01*
X131330253Y-95229398D01*
X131354287Y-95224617D01*
X131376925Y-95215240D01*
X131397300Y-95201626D01*
X131414627Y-95184298D01*
X131428241Y-95163924D01*
X131437618Y-95141285D01*
X131442398Y-95117253D01*
X131443551Y-95105551D01*
X131449141Y-95105000D01*
X131686859Y-95105000D01*
X131692449Y-95105551D01*
X131693602Y-95117253D01*
X131698383Y-95141287D01*
X131707760Y-95163925D01*
X131721374Y-95184300D01*
X131738702Y-95201627D01*
X131759076Y-95215241D01*
X131781715Y-95224618D01*
X131805749Y-95229398D01*
X131830253Y-95229398D01*
X131854287Y-95224617D01*
X131876925Y-95215240D01*
X131897300Y-95201626D01*
X131914627Y-95184298D01*
X131928241Y-95163924D01*
X131937618Y-95141285D01*
X131942398Y-95117253D01*
X131943551Y-95105551D01*
X131949141Y-95105000D01*
X132186859Y-95105000D01*
X132192449Y-95105551D01*
X132193602Y-95117253D01*
X132198383Y-95141287D01*
X132207760Y-95163925D01*
X132221374Y-95184300D01*
X132238702Y-95201627D01*
X132259076Y-95215241D01*
X132281715Y-95224618D01*
X132305749Y-95229398D01*
X132330253Y-95229398D01*
X132354287Y-95224617D01*
X132376925Y-95215240D01*
X132397300Y-95201626D01*
X132414627Y-95184298D01*
X132428241Y-95163924D01*
X132437618Y-95141285D01*
X132442398Y-95117253D01*
X132443551Y-95105551D01*
X132449141Y-95105000D01*
X132686859Y-95105000D01*
X132692449Y-95105551D01*
X132693602Y-95117253D01*
X132698383Y-95141287D01*
X132707760Y-95163925D01*
X132721374Y-95184300D01*
X132738702Y-95201627D01*
X132759076Y-95215241D01*
X132781715Y-95224618D01*
X132805749Y-95229398D01*
X132830253Y-95229398D01*
X132854287Y-95224617D01*
X132876925Y-95215240D01*
X132897300Y-95201626D01*
X132914627Y-95184298D01*
X132928241Y-95163924D01*
X132937618Y-95141285D01*
X132942398Y-95117253D01*
X132943551Y-95105551D01*
X132949141Y-95105000D01*
X133193000Y-95105000D01*
X133193000Y-95973859D01*
X133192449Y-95979449D01*
X133186859Y-95980000D01*
X132949141Y-95980000D01*
X132943551Y-95979449D01*
X132942398Y-95967747D01*
X132937617Y-95943713D01*
X132928240Y-95921075D01*
X132914626Y-95900700D01*
X132897298Y-95883373D01*
X132876924Y-95869759D01*
X132854285Y-95860382D01*
X132830251Y-95855602D01*
X132805747Y-95855602D01*
X132781713Y-95860383D01*
X132759075Y-95869760D01*
X132738700Y-95883374D01*
X132721373Y-95900702D01*
X132707759Y-95921076D01*
X132698382Y-95943715D01*
X132693602Y-95967747D01*
X132692449Y-95979449D01*
X132686859Y-95980000D01*
X132449141Y-95980000D01*
X132443551Y-95979449D01*
X132442398Y-95967747D01*
X132437617Y-95943713D01*
X132428240Y-95921075D01*
X132414626Y-95900700D01*
X132397298Y-95883373D01*
X132376924Y-95869759D01*
X132354285Y-95860382D01*
X132330251Y-95855602D01*
X132305747Y-95855602D01*
X132281713Y-95860383D01*
X132259075Y-95869760D01*
X132238700Y-95883374D01*
X132221373Y-95900702D01*
X132207759Y-95921076D01*
X132198382Y-95943715D01*
X132193602Y-95967747D01*
X132192449Y-95979449D01*
X132186859Y-95980000D01*
X131949141Y-95980000D01*
X131943551Y-95979449D01*
X131942398Y-95967747D01*
X131937617Y-95943713D01*
X131928240Y-95921075D01*
X131914626Y-95900700D01*
X131897298Y-95883373D01*
X131876924Y-95869759D01*
X131854285Y-95860382D01*
X131830251Y-95855602D01*
X131805747Y-95855602D01*
X131781713Y-95860383D01*
X131759075Y-95869760D01*
X131738700Y-95883374D01*
X131721373Y-95900702D01*
X131707759Y-95921076D01*
X131698382Y-95943715D01*
X131693602Y-95967747D01*
X131692449Y-95979449D01*
X131686859Y-95980000D01*
X131449141Y-95980000D01*
X131443551Y-95979449D01*
X131442398Y-95967747D01*
X131437617Y-95943713D01*
X131428240Y-95921075D01*
X131414626Y-95900700D01*
X131397298Y-95883373D01*
X131376924Y-95869759D01*
X131354285Y-95860382D01*
X131330251Y-95855602D01*
X131305747Y-95855602D01*
X131281713Y-95860383D01*
X131259075Y-95869760D01*
X131238700Y-95883374D01*
X131221373Y-95900702D01*
X131207759Y-95921076D01*
X131198382Y-95943715D01*
X131193602Y-95967747D01*
X131192449Y-95979449D01*
X131186859Y-95980000D01*
X130949141Y-95980000D01*
X130943551Y-95979449D01*
X130942398Y-95967747D01*
X130937617Y-95943713D01*
X130928240Y-95921075D01*
X130914626Y-95900700D01*
X130897298Y-95883373D01*
X130876924Y-95869759D01*
X130854285Y-95860382D01*
X130830251Y-95855602D01*
X130805747Y-95855602D01*
X130781713Y-95860383D01*
X130759075Y-95869760D01*
X130738700Y-95883374D01*
X130721373Y-95900702D01*
X130707759Y-95921076D01*
X130698382Y-95943715D01*
X130693602Y-95967747D01*
X130692449Y-95979449D01*
X130686859Y-95980000D01*
X130449141Y-95980000D01*
X130443551Y-95979449D01*
X130442398Y-95967747D01*
X130437617Y-95943713D01*
X130428240Y-95921075D01*
X130414626Y-95900700D01*
X130397298Y-95883373D01*
X130376924Y-95869759D01*
X130354285Y-95860382D01*
X130330251Y-95855602D01*
X130305747Y-95855602D01*
X130281713Y-95860383D01*
X130259075Y-95869760D01*
X130238700Y-95883374D01*
X130221373Y-95900702D01*
X130207759Y-95921076D01*
X130198382Y-95943715D01*
X130193602Y-95967747D01*
X130192449Y-95979449D01*
X130186859Y-95980000D01*
X129949141Y-95980000D01*
X129943551Y-95979449D01*
X129942398Y-95967747D01*
X129937617Y-95943713D01*
X129928240Y-95921075D01*
X129914626Y-95900700D01*
X129897298Y-95883373D01*
X129876924Y-95869759D01*
X129854285Y-95860382D01*
X129830251Y-95855602D01*
X129805747Y-95855602D01*
X129781713Y-95860383D01*
X129759075Y-95869760D01*
X129738700Y-95883374D01*
X129721373Y-95900702D01*
X129707759Y-95921076D01*
X129698382Y-95943715D01*
X129693602Y-95967747D01*
X129692449Y-95979449D01*
X129686859Y-95980000D01*
X129449141Y-95980000D01*
X129443551Y-95979449D01*
X129443000Y-95973859D01*
X129443000Y-95105000D01*
X129686859Y-95105000D01*
X129692449Y-95105551D01*
X129692449Y-95105551D01*
G37*
G36*
X122942116Y-94905595D02*
X122971313Y-94914452D01*
X122998218Y-94928833D01*
X123021808Y-94948192D01*
X123041167Y-94971782D01*
X123055548Y-94998687D01*
X123064405Y-95027884D01*
X123068000Y-95064390D01*
X123068000Y-95689610D01*
X123064405Y-95726116D01*
X123055548Y-95755313D01*
X123041167Y-95782218D01*
X123021808Y-95805808D01*
X122998218Y-95825167D01*
X122971313Y-95839548D01*
X122942116Y-95848405D01*
X122905610Y-95852000D01*
X122355390Y-95852000D01*
X122318884Y-95848405D01*
X122289687Y-95839548D01*
X122262782Y-95825167D01*
X122239192Y-95805808D01*
X122219833Y-95782218D01*
X122205452Y-95755313D01*
X122196595Y-95726116D01*
X122193000Y-95689610D01*
X122193000Y-95064390D01*
X122196595Y-95027884D01*
X122205452Y-94998687D01*
X122219833Y-94971782D01*
X122239192Y-94948192D01*
X122262782Y-94928833D01*
X122289687Y-94914452D01*
X122318884Y-94905595D01*
X122355390Y-94902000D01*
X122905610Y-94902000D01*
X122942116Y-94905595D01*
X122942116Y-94905595D01*
G37*
G36*
X124517116Y-94905595D02*
X124546313Y-94914452D01*
X124573218Y-94928833D01*
X124596808Y-94948192D01*
X124616167Y-94971782D01*
X124630548Y-94998687D01*
X124639405Y-95027884D01*
X124643000Y-95064390D01*
X124643000Y-95689610D01*
X124639405Y-95726116D01*
X124630548Y-95755313D01*
X124616167Y-95782218D01*
X124596808Y-95805808D01*
X124573218Y-95825167D01*
X124546313Y-95839548D01*
X124517116Y-95848405D01*
X124480610Y-95852000D01*
X123930390Y-95852000D01*
X123893884Y-95848405D01*
X123864687Y-95839548D01*
X123837782Y-95825167D01*
X123814192Y-95805808D01*
X123794833Y-95782218D01*
X123780452Y-95755313D01*
X123771595Y-95726116D01*
X123768000Y-95689610D01*
X123768000Y-95064390D01*
X123771595Y-95027884D01*
X123780452Y-94998687D01*
X123794833Y-94971782D01*
X123814192Y-94948192D01*
X123837782Y-94928833D01*
X123864687Y-94914452D01*
X123893884Y-94905595D01*
X123930390Y-94902000D01*
X124480610Y-94902000D01*
X124517116Y-94905595D01*
X124517116Y-94905595D01*
G37*
G36*
X138070116Y-94180095D02*
X138099313Y-94188952D01*
X138126218Y-94203333D01*
X138149808Y-94222692D01*
X138169167Y-94246282D01*
X138183548Y-94273187D01*
X138192405Y-94302384D01*
X138196000Y-94338890D01*
X138196000Y-94964110D01*
X138192405Y-95000616D01*
X138183548Y-95029813D01*
X138169167Y-95056718D01*
X138149808Y-95080308D01*
X138126218Y-95099667D01*
X138099313Y-95114048D01*
X138070116Y-95122905D01*
X138033610Y-95126500D01*
X137483390Y-95126500D01*
X137446884Y-95122905D01*
X137417687Y-95114048D01*
X137390782Y-95099667D01*
X137367192Y-95080308D01*
X137347833Y-95056718D01*
X137333452Y-95029813D01*
X137324595Y-95000616D01*
X137321000Y-94964110D01*
X137321000Y-94338890D01*
X137324595Y-94302384D01*
X137333452Y-94273187D01*
X137347833Y-94246282D01*
X137367192Y-94222692D01*
X137390782Y-94203333D01*
X137417687Y-94188952D01*
X137446884Y-94180095D01*
X137483390Y-94176500D01*
X138033610Y-94176500D01*
X138070116Y-94180095D01*
X138070116Y-94180095D01*
G37*
G36*
X139645116Y-94180095D02*
X139674313Y-94188952D01*
X139701218Y-94203333D01*
X139724808Y-94222692D01*
X139744167Y-94246282D01*
X139758548Y-94273187D01*
X139767405Y-94302384D01*
X139771000Y-94338890D01*
X139771000Y-94964110D01*
X139767405Y-95000616D01*
X139758548Y-95029813D01*
X139744167Y-95056718D01*
X139724808Y-95080308D01*
X139701218Y-95099667D01*
X139674313Y-95114048D01*
X139645116Y-95122905D01*
X139608610Y-95126500D01*
X139058390Y-95126500D01*
X139021884Y-95122905D01*
X138992687Y-95114048D01*
X138965782Y-95099667D01*
X138942192Y-95080308D01*
X138922833Y-95056718D01*
X138908452Y-95029813D01*
X138899595Y-95000616D01*
X138896000Y-94964110D01*
X138896000Y-94338890D01*
X138899595Y-94302384D01*
X138908452Y-94273187D01*
X138922833Y-94246282D01*
X138942192Y-94222692D01*
X138965782Y-94203333D01*
X138992687Y-94188952D01*
X139021884Y-94180095D01*
X139058390Y-94176500D01*
X139608610Y-94176500D01*
X139645116Y-94180095D01*
X139645116Y-94180095D01*
G37*
G36*
X134192449Y-91230551D02*
X134193000Y-91236141D01*
X134193000Y-91473859D01*
X134192449Y-91479449D01*
X134180747Y-91480602D01*
X134156713Y-91485383D01*
X134134075Y-91494760D01*
X134113700Y-91508374D01*
X134096373Y-91525702D01*
X134082759Y-91546076D01*
X134073382Y-91568715D01*
X134068602Y-91592749D01*
X134068602Y-91617253D01*
X134073383Y-91641287D01*
X134082760Y-91663925D01*
X134096374Y-91684300D01*
X134113702Y-91701627D01*
X134134076Y-91715241D01*
X134156715Y-91724618D01*
X134180747Y-91729398D01*
X134192449Y-91730551D01*
X134193000Y-91736141D01*
X134193000Y-91973859D01*
X134192449Y-91979449D01*
X134180747Y-91980602D01*
X134156713Y-91985383D01*
X134134075Y-91994760D01*
X134113700Y-92008374D01*
X134096373Y-92025702D01*
X134082759Y-92046076D01*
X134073382Y-92068715D01*
X134068602Y-92092749D01*
X134068602Y-92117253D01*
X134073383Y-92141287D01*
X134082760Y-92163925D01*
X134096374Y-92184300D01*
X134113702Y-92201627D01*
X134134076Y-92215241D01*
X134156715Y-92224618D01*
X134180747Y-92229398D01*
X134192449Y-92230551D01*
X134193000Y-92236141D01*
X134193000Y-92473859D01*
X134192449Y-92479449D01*
X134180747Y-92480602D01*
X134156713Y-92485383D01*
X134134075Y-92494760D01*
X134113700Y-92508374D01*
X134096373Y-92525702D01*
X134082759Y-92546076D01*
X134073382Y-92568715D01*
X134068602Y-92592749D01*
X134068602Y-92617253D01*
X134073383Y-92641287D01*
X134082760Y-92663925D01*
X134096374Y-92684300D01*
X134113702Y-92701627D01*
X134134076Y-92715241D01*
X134156715Y-92724618D01*
X134180747Y-92729398D01*
X134192449Y-92730551D01*
X134193000Y-92736141D01*
X134193000Y-92973859D01*
X134192449Y-92979449D01*
X134180747Y-92980602D01*
X134156713Y-92985383D01*
X134134075Y-92994760D01*
X134113700Y-93008374D01*
X134096373Y-93025702D01*
X134082759Y-93046076D01*
X134073382Y-93068715D01*
X134068602Y-93092749D01*
X134068602Y-93117253D01*
X134073383Y-93141287D01*
X134082760Y-93163925D01*
X134096374Y-93184300D01*
X134113702Y-93201627D01*
X134134076Y-93215241D01*
X134156715Y-93224618D01*
X134180747Y-93229398D01*
X134192449Y-93230551D01*
X134193000Y-93236141D01*
X134193000Y-93473859D01*
X134192449Y-93479449D01*
X134180747Y-93480602D01*
X134156713Y-93485383D01*
X134134075Y-93494760D01*
X134113700Y-93508374D01*
X134096373Y-93525702D01*
X134082759Y-93546076D01*
X134073382Y-93568715D01*
X134068602Y-93592749D01*
X134068602Y-93617253D01*
X134073383Y-93641287D01*
X134082760Y-93663925D01*
X134096374Y-93684300D01*
X134113702Y-93701627D01*
X134134076Y-93715241D01*
X134156715Y-93724618D01*
X134180747Y-93729398D01*
X134192449Y-93730551D01*
X134193000Y-93736141D01*
X134193000Y-93973859D01*
X134192449Y-93979449D01*
X134180747Y-93980602D01*
X134156713Y-93985383D01*
X134134075Y-93994760D01*
X134113700Y-94008374D01*
X134096373Y-94025702D01*
X134082759Y-94046076D01*
X134073382Y-94068715D01*
X134068602Y-94092749D01*
X134068602Y-94117253D01*
X134073383Y-94141287D01*
X134082760Y-94163925D01*
X134096374Y-94184300D01*
X134113702Y-94201627D01*
X134134076Y-94215241D01*
X134156715Y-94224618D01*
X134180747Y-94229398D01*
X134192449Y-94230551D01*
X134193000Y-94236141D01*
X134193000Y-94473859D01*
X134192449Y-94479449D01*
X134180747Y-94480602D01*
X134156713Y-94485383D01*
X134134075Y-94494760D01*
X134113700Y-94508374D01*
X134096373Y-94525702D01*
X134082759Y-94546076D01*
X134073382Y-94568715D01*
X134068602Y-94592749D01*
X134068602Y-94617253D01*
X134073383Y-94641287D01*
X134082760Y-94663925D01*
X134096374Y-94684300D01*
X134113702Y-94701627D01*
X134134076Y-94715241D01*
X134156715Y-94724618D01*
X134180747Y-94729398D01*
X134192449Y-94730551D01*
X134193000Y-94736141D01*
X134193000Y-94973859D01*
X134192449Y-94979449D01*
X134186859Y-94980000D01*
X133318000Y-94980000D01*
X133318000Y-94736141D01*
X133318551Y-94730551D01*
X133330253Y-94729398D01*
X133354287Y-94724617D01*
X133376925Y-94715240D01*
X133397300Y-94701626D01*
X133414627Y-94684298D01*
X133428241Y-94663924D01*
X133437618Y-94641285D01*
X133442398Y-94617251D01*
X133442398Y-94592747D01*
X133437617Y-94568713D01*
X133428240Y-94546075D01*
X133414626Y-94525700D01*
X133397298Y-94508373D01*
X133376924Y-94494759D01*
X133354285Y-94485382D01*
X133330253Y-94480602D01*
X133318551Y-94479449D01*
X133318000Y-94473859D01*
X133318000Y-94236141D01*
X133318551Y-94230551D01*
X133330253Y-94229398D01*
X133354287Y-94224617D01*
X133376925Y-94215240D01*
X133397300Y-94201626D01*
X133414627Y-94184298D01*
X133428241Y-94163924D01*
X133437618Y-94141285D01*
X133442398Y-94117251D01*
X133442398Y-94092747D01*
X133437617Y-94068713D01*
X133428240Y-94046075D01*
X133414626Y-94025700D01*
X133397298Y-94008373D01*
X133376924Y-93994759D01*
X133354285Y-93985382D01*
X133330253Y-93980602D01*
X133318551Y-93979449D01*
X133318000Y-93973859D01*
X133318000Y-93736141D01*
X133318551Y-93730551D01*
X133330253Y-93729398D01*
X133354287Y-93724617D01*
X133376925Y-93715240D01*
X133397300Y-93701626D01*
X133414627Y-93684298D01*
X133428241Y-93663924D01*
X133437618Y-93641285D01*
X133442398Y-93617251D01*
X133442398Y-93592747D01*
X133437617Y-93568713D01*
X133428240Y-93546075D01*
X133414626Y-93525700D01*
X133397298Y-93508373D01*
X133376924Y-93494759D01*
X133354285Y-93485382D01*
X133330253Y-93480602D01*
X133318551Y-93479449D01*
X133318000Y-93473859D01*
X133318000Y-93236141D01*
X133318551Y-93230551D01*
X133330253Y-93229398D01*
X133354287Y-93224617D01*
X133376925Y-93215240D01*
X133397300Y-93201626D01*
X133414627Y-93184298D01*
X133428241Y-93163924D01*
X133437618Y-93141285D01*
X133442398Y-93117251D01*
X133442398Y-93092747D01*
X133437617Y-93068713D01*
X133428240Y-93046075D01*
X133414626Y-93025700D01*
X133397298Y-93008373D01*
X133376924Y-92994759D01*
X133354285Y-92985382D01*
X133330253Y-92980602D01*
X133318551Y-92979449D01*
X133318000Y-92973859D01*
X133318000Y-92736141D01*
X133318551Y-92730551D01*
X133330253Y-92729398D01*
X133354287Y-92724617D01*
X133376925Y-92715240D01*
X133397300Y-92701626D01*
X133414627Y-92684298D01*
X133428241Y-92663924D01*
X133437618Y-92641285D01*
X133442398Y-92617251D01*
X133442398Y-92592747D01*
X133437617Y-92568713D01*
X133428240Y-92546075D01*
X133414626Y-92525700D01*
X133397298Y-92508373D01*
X133376924Y-92494759D01*
X133354285Y-92485382D01*
X133330253Y-92480602D01*
X133318551Y-92479449D01*
X133318000Y-92473859D01*
X133318000Y-92236141D01*
X133318551Y-92230551D01*
X133330253Y-92229398D01*
X133354287Y-92224617D01*
X133376925Y-92215240D01*
X133397300Y-92201626D01*
X133414627Y-92184298D01*
X133428241Y-92163924D01*
X133437618Y-92141285D01*
X133442398Y-92117251D01*
X133442398Y-92092747D01*
X133437617Y-92068713D01*
X133428240Y-92046075D01*
X133414626Y-92025700D01*
X133397298Y-92008373D01*
X133376924Y-91994759D01*
X133354285Y-91985382D01*
X133330253Y-91980602D01*
X133318551Y-91979449D01*
X133318000Y-91973859D01*
X133318000Y-91736141D01*
X133318551Y-91730551D01*
X133330253Y-91729398D01*
X133354287Y-91724617D01*
X133376925Y-91715240D01*
X133397300Y-91701626D01*
X133414627Y-91684298D01*
X133428241Y-91663924D01*
X133437618Y-91641285D01*
X133442398Y-91617251D01*
X133442398Y-91592747D01*
X133437617Y-91568713D01*
X133428240Y-91546075D01*
X133414626Y-91525700D01*
X133397298Y-91508373D01*
X133376924Y-91494759D01*
X133354285Y-91485382D01*
X133330253Y-91480602D01*
X133318551Y-91479449D01*
X133318000Y-91473859D01*
X133318000Y-91230000D01*
X134186859Y-91230000D01*
X134192449Y-91230551D01*
X134192449Y-91230551D01*
G37*
G36*
X129318000Y-91473859D02*
X129317449Y-91479449D01*
X129305747Y-91480602D01*
X129281713Y-91485383D01*
X129259075Y-91494760D01*
X129238700Y-91508374D01*
X129221373Y-91525702D01*
X129207759Y-91546076D01*
X129198382Y-91568715D01*
X129193602Y-91592749D01*
X129193602Y-91617253D01*
X129198383Y-91641287D01*
X129207760Y-91663925D01*
X129221374Y-91684300D01*
X129238702Y-91701627D01*
X129259076Y-91715241D01*
X129281715Y-91724618D01*
X129305747Y-91729398D01*
X129317449Y-91730551D01*
X129318000Y-91736141D01*
X129318000Y-91973859D01*
X129317449Y-91979449D01*
X129305747Y-91980602D01*
X129281713Y-91985383D01*
X129259075Y-91994760D01*
X129238700Y-92008374D01*
X129221373Y-92025702D01*
X129207759Y-92046076D01*
X129198382Y-92068715D01*
X129193602Y-92092749D01*
X129193602Y-92117253D01*
X129198383Y-92141287D01*
X129207760Y-92163925D01*
X129221374Y-92184300D01*
X129238702Y-92201627D01*
X129259076Y-92215241D01*
X129281715Y-92224618D01*
X129305747Y-92229398D01*
X129317449Y-92230551D01*
X129318000Y-92236141D01*
X129318000Y-92473859D01*
X129317449Y-92479449D01*
X129305747Y-92480602D01*
X129281713Y-92485383D01*
X129259075Y-92494760D01*
X129238700Y-92508374D01*
X129221373Y-92525702D01*
X129207759Y-92546076D01*
X129198382Y-92568715D01*
X129193602Y-92592749D01*
X129193602Y-92617253D01*
X129198383Y-92641287D01*
X129207760Y-92663925D01*
X129221374Y-92684300D01*
X129238702Y-92701627D01*
X129259076Y-92715241D01*
X129281715Y-92724618D01*
X129305747Y-92729398D01*
X129317449Y-92730551D01*
X129318000Y-92736141D01*
X129318000Y-92973859D01*
X129317449Y-92979449D01*
X129305747Y-92980602D01*
X129281713Y-92985383D01*
X129259075Y-92994760D01*
X129238700Y-93008374D01*
X129221373Y-93025702D01*
X129207759Y-93046076D01*
X129198382Y-93068715D01*
X129193602Y-93092749D01*
X129193602Y-93117253D01*
X129198383Y-93141287D01*
X129207760Y-93163925D01*
X129221374Y-93184300D01*
X129238702Y-93201627D01*
X129259076Y-93215241D01*
X129281715Y-93224618D01*
X129305747Y-93229398D01*
X129317449Y-93230551D01*
X129318000Y-93236141D01*
X129318000Y-93473859D01*
X129317449Y-93479449D01*
X129305747Y-93480602D01*
X129281713Y-93485383D01*
X129259075Y-93494760D01*
X129238700Y-93508374D01*
X129221373Y-93525702D01*
X129207759Y-93546076D01*
X129198382Y-93568715D01*
X129193602Y-93592749D01*
X129193602Y-93617253D01*
X129198383Y-93641287D01*
X129207760Y-93663925D01*
X129221374Y-93684300D01*
X129238702Y-93701627D01*
X129259076Y-93715241D01*
X129281715Y-93724618D01*
X129305747Y-93729398D01*
X129317449Y-93730551D01*
X129318000Y-93736141D01*
X129318000Y-93973859D01*
X129317449Y-93979449D01*
X129305747Y-93980602D01*
X129281713Y-93985383D01*
X129259075Y-93994760D01*
X129238700Y-94008374D01*
X129221373Y-94025702D01*
X129207759Y-94046076D01*
X129198382Y-94068715D01*
X129193602Y-94092749D01*
X129193602Y-94117253D01*
X129198383Y-94141287D01*
X129207760Y-94163925D01*
X129221374Y-94184300D01*
X129238702Y-94201627D01*
X129259076Y-94215241D01*
X129281715Y-94224618D01*
X129305747Y-94229398D01*
X129317449Y-94230551D01*
X129318000Y-94236141D01*
X129318000Y-94473859D01*
X129317449Y-94479449D01*
X129305747Y-94480602D01*
X129281713Y-94485383D01*
X129259075Y-94494760D01*
X129238700Y-94508374D01*
X129221373Y-94525702D01*
X129207759Y-94546076D01*
X129198382Y-94568715D01*
X129193602Y-94592749D01*
X129193602Y-94617253D01*
X129198383Y-94641287D01*
X129207760Y-94663925D01*
X129221374Y-94684300D01*
X129238702Y-94701627D01*
X129259076Y-94715241D01*
X129281715Y-94724618D01*
X129305747Y-94729398D01*
X129317449Y-94730551D01*
X129318000Y-94736141D01*
X129318000Y-94980000D01*
X128449141Y-94980000D01*
X128443551Y-94979449D01*
X128443000Y-94973859D01*
X128443000Y-94736141D01*
X128443551Y-94730551D01*
X128455253Y-94729398D01*
X128479287Y-94724617D01*
X128501925Y-94715240D01*
X128522300Y-94701626D01*
X128539627Y-94684298D01*
X128553241Y-94663924D01*
X128562618Y-94641285D01*
X128567398Y-94617251D01*
X128567398Y-94592747D01*
X128562617Y-94568713D01*
X128553240Y-94546075D01*
X128539626Y-94525700D01*
X128522298Y-94508373D01*
X128501924Y-94494759D01*
X128479285Y-94485382D01*
X128455253Y-94480602D01*
X128443551Y-94479449D01*
X128443000Y-94473859D01*
X128443000Y-94236141D01*
X128443551Y-94230551D01*
X128455253Y-94229398D01*
X128479287Y-94224617D01*
X128501925Y-94215240D01*
X128522300Y-94201626D01*
X128539627Y-94184298D01*
X128553241Y-94163924D01*
X128562618Y-94141285D01*
X128567398Y-94117251D01*
X128567398Y-94092747D01*
X128562617Y-94068713D01*
X128553240Y-94046075D01*
X128539626Y-94025700D01*
X128522298Y-94008373D01*
X128501924Y-93994759D01*
X128479285Y-93985382D01*
X128455253Y-93980602D01*
X128443551Y-93979449D01*
X128443000Y-93973859D01*
X128443000Y-93736141D01*
X128443551Y-93730551D01*
X128455253Y-93729398D01*
X128479287Y-93724617D01*
X128501925Y-93715240D01*
X128522300Y-93701626D01*
X128539627Y-93684298D01*
X128553241Y-93663924D01*
X128562618Y-93641285D01*
X128567398Y-93617251D01*
X128567398Y-93592747D01*
X128562617Y-93568713D01*
X128553240Y-93546075D01*
X128539626Y-93525700D01*
X128522298Y-93508373D01*
X128501924Y-93494759D01*
X128479285Y-93485382D01*
X128455253Y-93480602D01*
X128443551Y-93479449D01*
X128443000Y-93473859D01*
X128443000Y-93236141D01*
X128443551Y-93230551D01*
X128455253Y-93229398D01*
X128479287Y-93224617D01*
X128501925Y-93215240D01*
X128522300Y-93201626D01*
X128539627Y-93184298D01*
X128553241Y-93163924D01*
X128562618Y-93141285D01*
X128567398Y-93117251D01*
X128567398Y-93092747D01*
X128562617Y-93068713D01*
X128553240Y-93046075D01*
X128539626Y-93025700D01*
X128522298Y-93008373D01*
X128501924Y-92994759D01*
X128479285Y-92985382D01*
X128455253Y-92980602D01*
X128443551Y-92979449D01*
X128443000Y-92973859D01*
X128443000Y-92736141D01*
X128443551Y-92730551D01*
X128455253Y-92729398D01*
X128479287Y-92724617D01*
X128501925Y-92715240D01*
X128522300Y-92701626D01*
X128539627Y-92684298D01*
X128553241Y-92663924D01*
X128562618Y-92641285D01*
X128567398Y-92617251D01*
X128567398Y-92592747D01*
X128562617Y-92568713D01*
X128553240Y-92546075D01*
X128539626Y-92525700D01*
X128522298Y-92508373D01*
X128501924Y-92494759D01*
X128479285Y-92485382D01*
X128455253Y-92480602D01*
X128443551Y-92479449D01*
X128443000Y-92473859D01*
X128443000Y-92236141D01*
X128443551Y-92230551D01*
X128455253Y-92229398D01*
X128479287Y-92224617D01*
X128501925Y-92215240D01*
X128522300Y-92201626D01*
X128539627Y-92184298D01*
X128553241Y-92163924D01*
X128562618Y-92141285D01*
X128567398Y-92117251D01*
X128567398Y-92092747D01*
X128562617Y-92068713D01*
X128553240Y-92046075D01*
X128539626Y-92025700D01*
X128522298Y-92008373D01*
X128501924Y-91994759D01*
X128479285Y-91985382D01*
X128455253Y-91980602D01*
X128443551Y-91979449D01*
X128443000Y-91973859D01*
X128443000Y-91736141D01*
X128443551Y-91730551D01*
X128455253Y-91729398D01*
X128479287Y-91724617D01*
X128501925Y-91715240D01*
X128522300Y-91701626D01*
X128539627Y-91684298D01*
X128553241Y-91663924D01*
X128562618Y-91641285D01*
X128567398Y-91617251D01*
X128567398Y-91592747D01*
X128562617Y-91568713D01*
X128553240Y-91546075D01*
X128539626Y-91525700D01*
X128522298Y-91508373D01*
X128501924Y-91494759D01*
X128479285Y-91485382D01*
X128455253Y-91480602D01*
X128443551Y-91479449D01*
X128443000Y-91473859D01*
X128443000Y-91236141D01*
X128443551Y-91230551D01*
X128449141Y-91230000D01*
X129318000Y-91230000D01*
X129318000Y-91473859D01*
X129318000Y-91473859D01*
G37*
G36*
X132751043Y-91558382D02*
X132778155Y-91566607D01*
X132803154Y-91579969D01*
X132825056Y-91597944D01*
X132843031Y-91619846D01*
X132856393Y-91644845D01*
X132864618Y-91671957D01*
X132868000Y-91706300D01*
X132868000Y-94503700D01*
X132864618Y-94538043D01*
X132856393Y-94565155D01*
X132843031Y-94590154D01*
X132825056Y-94612056D01*
X132803154Y-94630031D01*
X132778155Y-94643393D01*
X132751043Y-94651618D01*
X132716700Y-94655000D01*
X129919300Y-94655000D01*
X129884957Y-94651618D01*
X129857845Y-94643393D01*
X129832846Y-94630031D01*
X129810944Y-94612056D01*
X129792969Y-94590154D01*
X129779607Y-94565155D01*
X129771382Y-94538043D01*
X129768000Y-94503700D01*
X129768000Y-91706300D01*
X129771382Y-91671957D01*
X129779607Y-91644845D01*
X129792969Y-91619846D01*
X129810944Y-91597944D01*
X129832846Y-91579969D01*
X129857845Y-91566607D01*
X129884957Y-91558382D01*
X129919300Y-91555000D01*
X132716700Y-91555000D01*
X132751043Y-91558382D01*
X132751043Y-91558382D01*
G37*
G36*
X170190000Y-93963000D02*
X169390000Y-93963000D01*
X169390000Y-93463000D01*
X170190000Y-93463000D01*
X170190000Y-93963000D01*
X170190000Y-93963000D01*
G37*
G36*
X168390000Y-93963000D02*
X167590000Y-93963000D01*
X167590000Y-93463000D01*
X168390000Y-93463000D01*
X168390000Y-93963000D01*
X168390000Y-93963000D01*
G37*
G36*
X122942116Y-92824695D02*
X122971313Y-92833552D01*
X122998218Y-92847933D01*
X123021808Y-92867292D01*
X123041167Y-92890882D01*
X123055548Y-92917787D01*
X123064405Y-92946984D01*
X123068000Y-92983490D01*
X123068000Y-93608710D01*
X123064405Y-93645216D01*
X123055548Y-93674413D01*
X123041167Y-93701318D01*
X123021808Y-93724908D01*
X122998218Y-93744267D01*
X122971313Y-93758648D01*
X122942116Y-93767505D01*
X122905610Y-93771100D01*
X122355390Y-93771100D01*
X122318884Y-93767505D01*
X122289687Y-93758648D01*
X122262782Y-93744267D01*
X122239192Y-93724908D01*
X122219833Y-93701318D01*
X122205452Y-93674413D01*
X122196595Y-93645216D01*
X122193000Y-93608710D01*
X122193000Y-92983490D01*
X122196595Y-92946984D01*
X122205452Y-92917787D01*
X122219833Y-92890882D01*
X122239192Y-92867292D01*
X122262782Y-92847933D01*
X122289687Y-92833552D01*
X122318884Y-92824695D01*
X122355390Y-92821100D01*
X122905610Y-92821100D01*
X122942116Y-92824695D01*
X122942116Y-92824695D01*
G37*
G36*
X124517116Y-92824695D02*
X124546313Y-92833552D01*
X124573218Y-92847933D01*
X124596808Y-92867292D01*
X124616167Y-92890882D01*
X124630548Y-92917787D01*
X124639405Y-92946984D01*
X124643000Y-92983490D01*
X124643000Y-93608710D01*
X124639405Y-93645216D01*
X124630548Y-93674413D01*
X124616167Y-93701318D01*
X124596808Y-93724908D01*
X124573218Y-93744267D01*
X124546313Y-93758648D01*
X124517116Y-93767505D01*
X124480610Y-93771100D01*
X123930390Y-93771100D01*
X123893884Y-93767505D01*
X123864687Y-93758648D01*
X123837782Y-93744267D01*
X123814192Y-93724908D01*
X123794833Y-93701318D01*
X123780452Y-93674413D01*
X123771595Y-93645216D01*
X123768000Y-93608710D01*
X123768000Y-92983490D01*
X123771595Y-92946984D01*
X123780452Y-92917787D01*
X123794833Y-92890882D01*
X123814192Y-92867292D01*
X123837782Y-92847933D01*
X123864687Y-92833552D01*
X123893884Y-92824695D01*
X123930390Y-92821100D01*
X124480610Y-92821100D01*
X124517116Y-92824695D01*
X124517116Y-92824695D01*
G37*
G36*
X170190000Y-93113000D02*
X169390000Y-93113000D01*
X169390000Y-92713000D01*
X170190000Y-92713000D01*
X170190000Y-93113000D01*
X170190000Y-93113000D01*
G37*
G36*
X168390000Y-93113000D02*
X167590000Y-93113000D01*
X167590000Y-92713000D01*
X168390000Y-92713000D01*
X168390000Y-93113000D01*
X168390000Y-93113000D01*
G37*
G36*
X139625116Y-92139595D02*
X139654313Y-92148452D01*
X139681218Y-92162833D01*
X139704808Y-92182192D01*
X139724167Y-92205782D01*
X139738548Y-92232687D01*
X139747405Y-92261884D01*
X139751000Y-92298390D01*
X139751000Y-92923610D01*
X139747405Y-92960116D01*
X139738548Y-92989313D01*
X139724167Y-93016218D01*
X139704808Y-93039808D01*
X139681218Y-93059167D01*
X139654313Y-93073548D01*
X139625116Y-93082405D01*
X139588610Y-93086000D01*
X139038390Y-93086000D01*
X139001884Y-93082405D01*
X138972687Y-93073548D01*
X138945782Y-93059167D01*
X138922192Y-93039808D01*
X138902833Y-93016218D01*
X138888452Y-92989313D01*
X138879595Y-92960116D01*
X138876000Y-92923610D01*
X138876000Y-92298390D01*
X138879595Y-92261884D01*
X138888452Y-92232687D01*
X138902833Y-92205782D01*
X138922192Y-92182192D01*
X138945782Y-92162833D01*
X138972687Y-92148452D01*
X139001884Y-92139595D01*
X139038390Y-92136000D01*
X139588610Y-92136000D01*
X139625116Y-92139595D01*
X139625116Y-92139595D01*
G37*
G36*
X138050116Y-92139595D02*
X138079313Y-92148452D01*
X138106218Y-92162833D01*
X138129808Y-92182192D01*
X138149167Y-92205782D01*
X138163548Y-92232687D01*
X138172405Y-92261884D01*
X138176000Y-92298390D01*
X138176000Y-92923610D01*
X138172405Y-92960116D01*
X138163548Y-92989313D01*
X138149167Y-93016218D01*
X138129808Y-93039808D01*
X138106218Y-93059167D01*
X138079313Y-93073548D01*
X138050116Y-93082405D01*
X138013610Y-93086000D01*
X137463390Y-93086000D01*
X137426884Y-93082405D01*
X137397687Y-93073548D01*
X137370782Y-93059167D01*
X137347192Y-93039808D01*
X137327833Y-93016218D01*
X137313452Y-92989313D01*
X137304595Y-92960116D01*
X137301000Y-92923610D01*
X137301000Y-92298390D01*
X137304595Y-92261884D01*
X137313452Y-92232687D01*
X137327833Y-92205782D01*
X137347192Y-92182192D01*
X137370782Y-92162833D01*
X137397687Y-92148452D01*
X137426884Y-92139595D01*
X137463390Y-92136000D01*
X138013610Y-92136000D01*
X138050116Y-92139595D01*
X138050116Y-92139595D01*
G37*
G36*
X177630712Y-88851088D02*
X178000510Y-89004263D01*
X178000513Y-89004265D01*
X178333325Y-89226643D01*
X178616357Y-89509675D01*
X178833015Y-89833926D01*
X178838737Y-89842490D01*
X178991912Y-90212288D01*
X179070000Y-90604864D01*
X179070000Y-91005136D01*
X178991912Y-91397712D01*
X178838737Y-91767510D01*
X178838735Y-91767513D01*
X178616357Y-92100325D01*
X178333325Y-92383357D01*
X178089800Y-92546075D01*
X178000510Y-92605737D01*
X177630712Y-92758912D01*
X177238136Y-92837000D01*
X176837864Y-92837000D01*
X176445288Y-92758912D01*
X176075490Y-92605737D01*
X175986200Y-92546075D01*
X175742675Y-92383357D01*
X175459643Y-92100325D01*
X175237265Y-91767513D01*
X175237263Y-91767510D01*
X175084088Y-91397712D01*
X175006000Y-91005136D01*
X175006000Y-90604864D01*
X175084088Y-90212288D01*
X175237263Y-89842490D01*
X175242985Y-89833926D01*
X175459643Y-89509675D01*
X175742675Y-89226643D01*
X176075487Y-89004265D01*
X176075490Y-89004263D01*
X176445288Y-88851088D01*
X176837864Y-88773000D01*
X177238136Y-88773000D01*
X177630712Y-88851088D01*
X177630712Y-88851088D01*
G37*
G36*
X170190000Y-92313000D02*
X169390000Y-92313000D01*
X169390000Y-91913000D01*
X170190000Y-91913000D01*
X170190000Y-92313000D01*
X170190000Y-92313000D01*
G37*
G36*
X168390000Y-92313000D02*
X167590000Y-92313000D01*
X167590000Y-91913000D01*
X168390000Y-91913000D01*
X168390000Y-92313000D01*
X168390000Y-92313000D01*
G37*
G36*
X124718000Y-91595100D02*
X123918000Y-91595100D01*
X123918000Y-91095100D01*
X124718000Y-91095100D01*
X124718000Y-91595100D01*
X124718000Y-91595100D01*
G37*
G36*
X122918000Y-91595100D02*
X122118000Y-91595100D01*
X122118000Y-91095100D01*
X122918000Y-91095100D01*
X122918000Y-91595100D01*
X122918000Y-91595100D01*
G37*
G36*
X170190000Y-91563000D02*
X169390000Y-91563000D01*
X169390000Y-91063000D01*
X170190000Y-91063000D01*
X170190000Y-91563000D01*
X170190000Y-91563000D01*
G37*
G36*
X168390000Y-91563000D02*
X167590000Y-91563000D01*
X167590000Y-91063000D01*
X168390000Y-91063000D01*
X168390000Y-91563000D01*
X168390000Y-91563000D01*
G37*
G36*
X129692449Y-90230551D02*
X129693602Y-90242253D01*
X129698383Y-90266287D01*
X129707760Y-90288925D01*
X129721374Y-90309300D01*
X129738702Y-90326627D01*
X129759076Y-90340241D01*
X129781715Y-90349618D01*
X129805749Y-90354398D01*
X129830253Y-90354398D01*
X129854287Y-90349617D01*
X129876925Y-90340240D01*
X129897300Y-90326626D01*
X129914627Y-90309298D01*
X129928241Y-90288924D01*
X129937618Y-90266285D01*
X129942398Y-90242253D01*
X129943551Y-90230551D01*
X129949141Y-90230000D01*
X130186859Y-90230000D01*
X130192449Y-90230551D01*
X130193602Y-90242253D01*
X130198383Y-90266287D01*
X130207760Y-90288925D01*
X130221374Y-90309300D01*
X130238702Y-90326627D01*
X130259076Y-90340241D01*
X130281715Y-90349618D01*
X130305749Y-90354398D01*
X130330253Y-90354398D01*
X130354287Y-90349617D01*
X130376925Y-90340240D01*
X130397300Y-90326626D01*
X130414627Y-90309298D01*
X130428241Y-90288924D01*
X130437618Y-90266285D01*
X130442398Y-90242253D01*
X130443551Y-90230551D01*
X130449141Y-90230000D01*
X130686859Y-90230000D01*
X130692449Y-90230551D01*
X130693602Y-90242253D01*
X130698383Y-90266287D01*
X130707760Y-90288925D01*
X130721374Y-90309300D01*
X130738702Y-90326627D01*
X130759076Y-90340241D01*
X130781715Y-90349618D01*
X130805749Y-90354398D01*
X130830253Y-90354398D01*
X130854287Y-90349617D01*
X130876925Y-90340240D01*
X130897300Y-90326626D01*
X130914627Y-90309298D01*
X130928241Y-90288924D01*
X130937618Y-90266285D01*
X130942398Y-90242253D01*
X130943551Y-90230551D01*
X130949141Y-90230000D01*
X131186859Y-90230000D01*
X131192449Y-90230551D01*
X131193602Y-90242253D01*
X131198383Y-90266287D01*
X131207760Y-90288925D01*
X131221374Y-90309300D01*
X131238702Y-90326627D01*
X131259076Y-90340241D01*
X131281715Y-90349618D01*
X131305749Y-90354398D01*
X131330253Y-90354398D01*
X131354287Y-90349617D01*
X131376925Y-90340240D01*
X131397300Y-90326626D01*
X131414627Y-90309298D01*
X131428241Y-90288924D01*
X131437618Y-90266285D01*
X131442398Y-90242253D01*
X131443551Y-90230551D01*
X131449141Y-90230000D01*
X131686859Y-90230000D01*
X131692449Y-90230551D01*
X131693602Y-90242253D01*
X131698383Y-90266287D01*
X131707760Y-90288925D01*
X131721374Y-90309300D01*
X131738702Y-90326627D01*
X131759076Y-90340241D01*
X131781715Y-90349618D01*
X131805749Y-90354398D01*
X131830253Y-90354398D01*
X131854287Y-90349617D01*
X131876925Y-90340240D01*
X131897300Y-90326626D01*
X131914627Y-90309298D01*
X131928241Y-90288924D01*
X131937618Y-90266285D01*
X131942398Y-90242253D01*
X131943551Y-90230551D01*
X131949141Y-90230000D01*
X132186859Y-90230000D01*
X132192449Y-90230551D01*
X132193602Y-90242253D01*
X132198383Y-90266287D01*
X132207760Y-90288925D01*
X132221374Y-90309300D01*
X132238702Y-90326627D01*
X132259076Y-90340241D01*
X132281715Y-90349618D01*
X132305749Y-90354398D01*
X132330253Y-90354398D01*
X132354287Y-90349617D01*
X132376925Y-90340240D01*
X132397300Y-90326626D01*
X132414627Y-90309298D01*
X132428241Y-90288924D01*
X132437618Y-90266285D01*
X132442398Y-90242253D01*
X132443551Y-90230551D01*
X132449141Y-90230000D01*
X132686859Y-90230000D01*
X132692449Y-90230551D01*
X132693602Y-90242253D01*
X132698383Y-90266287D01*
X132707760Y-90288925D01*
X132721374Y-90309300D01*
X132738702Y-90326627D01*
X132759076Y-90340241D01*
X132781715Y-90349618D01*
X132805749Y-90354398D01*
X132830253Y-90354398D01*
X132854287Y-90349617D01*
X132876925Y-90340240D01*
X132897300Y-90326626D01*
X132914627Y-90309298D01*
X132928241Y-90288924D01*
X132937618Y-90266285D01*
X132942398Y-90242253D01*
X132943551Y-90230551D01*
X132949141Y-90230000D01*
X133186859Y-90230000D01*
X133192449Y-90230551D01*
X133193000Y-90236141D01*
X133193000Y-91105000D01*
X132949141Y-91105000D01*
X132943551Y-91104449D01*
X132942398Y-91092747D01*
X132937617Y-91068713D01*
X132928240Y-91046075D01*
X132914626Y-91025700D01*
X132897298Y-91008373D01*
X132876924Y-90994759D01*
X132854285Y-90985382D01*
X132830251Y-90980602D01*
X132805747Y-90980602D01*
X132781713Y-90985383D01*
X132759075Y-90994760D01*
X132738700Y-91008374D01*
X132721373Y-91025702D01*
X132707759Y-91046076D01*
X132698382Y-91068715D01*
X132693602Y-91092747D01*
X132692449Y-91104449D01*
X132686859Y-91105000D01*
X132449141Y-91105000D01*
X132443551Y-91104449D01*
X132442398Y-91092747D01*
X132437617Y-91068713D01*
X132428240Y-91046075D01*
X132414626Y-91025700D01*
X132397298Y-91008373D01*
X132376924Y-90994759D01*
X132354285Y-90985382D01*
X132330251Y-90980602D01*
X132305747Y-90980602D01*
X132281713Y-90985383D01*
X132259075Y-90994760D01*
X132238700Y-91008374D01*
X132221373Y-91025702D01*
X132207759Y-91046076D01*
X132198382Y-91068715D01*
X132193602Y-91092747D01*
X132192449Y-91104449D01*
X132186859Y-91105000D01*
X131949141Y-91105000D01*
X131943551Y-91104449D01*
X131942398Y-91092747D01*
X131937617Y-91068713D01*
X131928240Y-91046075D01*
X131914626Y-91025700D01*
X131897298Y-91008373D01*
X131876924Y-90994759D01*
X131854285Y-90985382D01*
X131830251Y-90980602D01*
X131805747Y-90980602D01*
X131781713Y-90985383D01*
X131759075Y-90994760D01*
X131738700Y-91008374D01*
X131721373Y-91025702D01*
X131707759Y-91046076D01*
X131698382Y-91068715D01*
X131693602Y-91092747D01*
X131692449Y-91104449D01*
X131686859Y-91105000D01*
X131449141Y-91105000D01*
X131443551Y-91104449D01*
X131442398Y-91092747D01*
X131437617Y-91068713D01*
X131428240Y-91046075D01*
X131414626Y-91025700D01*
X131397298Y-91008373D01*
X131376924Y-90994759D01*
X131354285Y-90985382D01*
X131330251Y-90980602D01*
X131305747Y-90980602D01*
X131281713Y-90985383D01*
X131259075Y-90994760D01*
X131238700Y-91008374D01*
X131221373Y-91025702D01*
X131207759Y-91046076D01*
X131198382Y-91068715D01*
X131193602Y-91092747D01*
X131192449Y-91104449D01*
X131186859Y-91105000D01*
X130949141Y-91105000D01*
X130943551Y-91104449D01*
X130942398Y-91092747D01*
X130937617Y-91068713D01*
X130928240Y-91046075D01*
X130914626Y-91025700D01*
X130897298Y-91008373D01*
X130876924Y-90994759D01*
X130854285Y-90985382D01*
X130830251Y-90980602D01*
X130805747Y-90980602D01*
X130781713Y-90985383D01*
X130759075Y-90994760D01*
X130738700Y-91008374D01*
X130721373Y-91025702D01*
X130707759Y-91046076D01*
X130698382Y-91068715D01*
X130693602Y-91092747D01*
X130692449Y-91104449D01*
X130686859Y-91105000D01*
X130449141Y-91105000D01*
X130443551Y-91104449D01*
X130442398Y-91092747D01*
X130437617Y-91068713D01*
X130428240Y-91046075D01*
X130414626Y-91025700D01*
X130397298Y-91008373D01*
X130376924Y-90994759D01*
X130354285Y-90985382D01*
X130330251Y-90980602D01*
X130305747Y-90980602D01*
X130281713Y-90985383D01*
X130259075Y-90994760D01*
X130238700Y-91008374D01*
X130221373Y-91025702D01*
X130207759Y-91046076D01*
X130198382Y-91068715D01*
X130193602Y-91092747D01*
X130192449Y-91104449D01*
X130186859Y-91105000D01*
X129949141Y-91105000D01*
X129943551Y-91104449D01*
X129942398Y-91092747D01*
X129937617Y-91068713D01*
X129928240Y-91046075D01*
X129914626Y-91025700D01*
X129897298Y-91008373D01*
X129876924Y-90994759D01*
X129854285Y-90985382D01*
X129830251Y-90980602D01*
X129805747Y-90980602D01*
X129781713Y-90985383D01*
X129759075Y-90994760D01*
X129738700Y-91008374D01*
X129721373Y-91025702D01*
X129707759Y-91046076D01*
X129698382Y-91068715D01*
X129693602Y-91092747D01*
X129692449Y-91104449D01*
X129686859Y-91105000D01*
X129443000Y-91105000D01*
X129443000Y-90236141D01*
X129443551Y-90230551D01*
X129449141Y-90230000D01*
X129686859Y-90230000D01*
X129692449Y-90230551D01*
X129692449Y-90230551D01*
G37*
G36*
X139625116Y-90059095D02*
X139654313Y-90067952D01*
X139681218Y-90082333D01*
X139704808Y-90101692D01*
X139724167Y-90125282D01*
X139738548Y-90152187D01*
X139747405Y-90181384D01*
X139751000Y-90217890D01*
X139751000Y-90843110D01*
X139747405Y-90879616D01*
X139738548Y-90908813D01*
X139724167Y-90935718D01*
X139704808Y-90959308D01*
X139681218Y-90978667D01*
X139654313Y-90993048D01*
X139625116Y-91001905D01*
X139588610Y-91005500D01*
X139038390Y-91005500D01*
X139001884Y-91001905D01*
X138972687Y-90993048D01*
X138945782Y-90978667D01*
X138922192Y-90959308D01*
X138902833Y-90935718D01*
X138888452Y-90908813D01*
X138879595Y-90879616D01*
X138876000Y-90843110D01*
X138876000Y-90217890D01*
X138879595Y-90181384D01*
X138888452Y-90152187D01*
X138902833Y-90125282D01*
X138922192Y-90101692D01*
X138945782Y-90082333D01*
X138972687Y-90067952D01*
X139001884Y-90059095D01*
X139038390Y-90055500D01*
X139588610Y-90055500D01*
X139625116Y-90059095D01*
X139625116Y-90059095D01*
G37*
G36*
X138050116Y-90059095D02*
X138079313Y-90067952D01*
X138106218Y-90082333D01*
X138129808Y-90101692D01*
X138149167Y-90125282D01*
X138163548Y-90152187D01*
X138172405Y-90181384D01*
X138176000Y-90217890D01*
X138176000Y-90843110D01*
X138172405Y-90879616D01*
X138163548Y-90908813D01*
X138149167Y-90935718D01*
X138129808Y-90959308D01*
X138106218Y-90978667D01*
X138079313Y-90993048D01*
X138050116Y-91001905D01*
X138013610Y-91005500D01*
X137463390Y-91005500D01*
X137426884Y-91001905D01*
X137397687Y-90993048D01*
X137370782Y-90978667D01*
X137347192Y-90959308D01*
X137327833Y-90935718D01*
X137313452Y-90908813D01*
X137304595Y-90879616D01*
X137301000Y-90843110D01*
X137301000Y-90217890D01*
X137304595Y-90181384D01*
X137313452Y-90152187D01*
X137327833Y-90125282D01*
X137347192Y-90101692D01*
X137370782Y-90082333D01*
X137397687Y-90067952D01*
X137426884Y-90059095D01*
X137463390Y-90055500D01*
X138013610Y-90055500D01*
X138050116Y-90059095D01*
X138050116Y-90059095D01*
G37*
G36*
X124718000Y-90745100D02*
X123918000Y-90745100D01*
X123918000Y-90345100D01*
X124718000Y-90345100D01*
X124718000Y-90745100D01*
X124718000Y-90745100D01*
G37*
G36*
X122918000Y-90745100D02*
X122118000Y-90745100D01*
X122118000Y-90345100D01*
X122918000Y-90345100D01*
X122918000Y-90745100D01*
X122918000Y-90745100D01*
G37*
G36*
X119098000Y-90485000D02*
X117398000Y-90485000D01*
X117398000Y-88785000D01*
X119098000Y-88785000D01*
X119098000Y-90485000D01*
X119098000Y-90485000D01*
G37*
G36*
X116495934Y-88817664D02*
X116650627Y-88881740D01*
X116789847Y-88974764D01*
X116908236Y-89093153D01*
X117001260Y-89232373D01*
X117065336Y-89387066D01*
X117098000Y-89551281D01*
X117098000Y-89718719D01*
X117065336Y-89882934D01*
X117001260Y-90037627D01*
X116908236Y-90176847D01*
X116789847Y-90295236D01*
X116650627Y-90388260D01*
X116495934Y-90452336D01*
X116331719Y-90485000D01*
X116164281Y-90485000D01*
X116000066Y-90452336D01*
X115845373Y-90388260D01*
X115706153Y-90295236D01*
X115587764Y-90176847D01*
X115494740Y-90037627D01*
X115430664Y-89882934D01*
X115398000Y-89718719D01*
X115398000Y-89551281D01*
X115430664Y-89387066D01*
X115494740Y-89232373D01*
X115587764Y-89093153D01*
X115706153Y-88974764D01*
X115845373Y-88881740D01*
X116000066Y-88817664D01*
X116164281Y-88785000D01*
X116331719Y-88785000D01*
X116495934Y-88817664D01*
X116495934Y-88817664D01*
G37*
G36*
X170009116Y-89063595D02*
X170038313Y-89072452D01*
X170065218Y-89086833D01*
X170088808Y-89106192D01*
X170108167Y-89129782D01*
X170122548Y-89156687D01*
X170131405Y-89185884D01*
X170135000Y-89222390D01*
X170135000Y-89847610D01*
X170131405Y-89884116D01*
X170122548Y-89913313D01*
X170108167Y-89940218D01*
X170088808Y-89963808D01*
X170065218Y-89983167D01*
X170038313Y-89997548D01*
X170009116Y-90006405D01*
X169972610Y-90010000D01*
X169422390Y-90010000D01*
X169385884Y-90006405D01*
X169356687Y-89997548D01*
X169329782Y-89983167D01*
X169306192Y-89963808D01*
X169286833Y-89940218D01*
X169272452Y-89913313D01*
X169263595Y-89884116D01*
X169260000Y-89847610D01*
X169260000Y-89222390D01*
X169263595Y-89185884D01*
X169272452Y-89156687D01*
X169286833Y-89129782D01*
X169306192Y-89106192D01*
X169329782Y-89086833D01*
X169356687Y-89072452D01*
X169385884Y-89063595D01*
X169422390Y-89060000D01*
X169972610Y-89060000D01*
X170009116Y-89063595D01*
X170009116Y-89063595D01*
G37*
G36*
X168434116Y-89063595D02*
X168463313Y-89072452D01*
X168490218Y-89086833D01*
X168513808Y-89106192D01*
X168533167Y-89129782D01*
X168547548Y-89156687D01*
X168556405Y-89185884D01*
X168560000Y-89222390D01*
X168560000Y-89847610D01*
X168556405Y-89884116D01*
X168547548Y-89913313D01*
X168533167Y-89940218D01*
X168513808Y-89963808D01*
X168490218Y-89983167D01*
X168463313Y-89997548D01*
X168434116Y-90006405D01*
X168397610Y-90010000D01*
X167847390Y-90010000D01*
X167810884Y-90006405D01*
X167781687Y-89997548D01*
X167754782Y-89983167D01*
X167731192Y-89963808D01*
X167711833Y-89940218D01*
X167697452Y-89913313D01*
X167688595Y-89884116D01*
X167685000Y-89847610D01*
X167685000Y-89222390D01*
X167688595Y-89185884D01*
X167697452Y-89156687D01*
X167711833Y-89129782D01*
X167731192Y-89106192D01*
X167754782Y-89086833D01*
X167781687Y-89072452D01*
X167810884Y-89063595D01*
X167847390Y-89060000D01*
X168397610Y-89060000D01*
X168434116Y-89063595D01*
X168434116Y-89063595D01*
G37*
G36*
X124718000Y-89945100D02*
X123918000Y-89945100D01*
X123918000Y-89545100D01*
X124718000Y-89545100D01*
X124718000Y-89945100D01*
X124718000Y-89945100D01*
G37*
G36*
X122918000Y-89945100D02*
X122118000Y-89945100D01*
X122118000Y-89545100D01*
X122918000Y-89545100D01*
X122918000Y-89945100D01*
X122918000Y-89945100D01*
G37*
G36*
X122918000Y-89195100D02*
X122118000Y-89195100D01*
X122118000Y-88695100D01*
X122918000Y-88695100D01*
X122918000Y-89195100D01*
X122918000Y-89195100D01*
G37*
G36*
X124718000Y-89195100D02*
X123918000Y-89195100D01*
X123918000Y-88695100D01*
X124718000Y-88695100D01*
X124718000Y-89195100D01*
X124718000Y-89195100D01*
G37*
G36*
X138046000Y-88820000D02*
X137246000Y-88820000D01*
X137246000Y-88320000D01*
X138046000Y-88320000D01*
X138046000Y-88820000D01*
X138046000Y-88820000D01*
G37*
G36*
X139846000Y-88820000D02*
X139046000Y-88820000D01*
X139046000Y-88320000D01*
X139846000Y-88320000D01*
X139846000Y-88820000D01*
X139846000Y-88820000D01*
G37*
G36*
X118495934Y-86317664D02*
X118650627Y-86381740D01*
X118789847Y-86474764D01*
X118908236Y-86593153D01*
X119001260Y-86732373D01*
X119065336Y-86887066D01*
X119098000Y-87051281D01*
X119098000Y-87218719D01*
X119065336Y-87382934D01*
X119001260Y-87537627D01*
X118908236Y-87676847D01*
X118789847Y-87795236D01*
X118650627Y-87888260D01*
X118495934Y-87952336D01*
X118331719Y-87985000D01*
X118164281Y-87985000D01*
X118000066Y-87952336D01*
X117845373Y-87888260D01*
X117706153Y-87795236D01*
X117587764Y-87676847D01*
X117494740Y-87537627D01*
X117430664Y-87382934D01*
X117398000Y-87218719D01*
X117398000Y-87051281D01*
X117430664Y-86887066D01*
X117494740Y-86732373D01*
X117587764Y-86593153D01*
X117706153Y-86474764D01*
X117845373Y-86381740D01*
X118000066Y-86317664D01*
X118164281Y-86285000D01*
X118331719Y-86285000D01*
X118495934Y-86317664D01*
X118495934Y-86317664D01*
G37*
G36*
X116495934Y-86317664D02*
X116650627Y-86381740D01*
X116789847Y-86474764D01*
X116908236Y-86593153D01*
X117001260Y-86732373D01*
X117065336Y-86887066D01*
X117098000Y-87051281D01*
X117098000Y-87218719D01*
X117065336Y-87382934D01*
X117001260Y-87537627D01*
X116908236Y-87676847D01*
X116789847Y-87795236D01*
X116650627Y-87888260D01*
X116495934Y-87952336D01*
X116331719Y-87985000D01*
X116164281Y-87985000D01*
X116000066Y-87952336D01*
X115845373Y-87888260D01*
X115706153Y-87795236D01*
X115587764Y-87676847D01*
X115494740Y-87537627D01*
X115430664Y-87382934D01*
X115398000Y-87218719D01*
X115398000Y-87051281D01*
X115430664Y-86887066D01*
X115494740Y-86732373D01*
X115587764Y-86593153D01*
X115706153Y-86474764D01*
X115845373Y-86381740D01*
X116000066Y-86317664D01*
X116164281Y-86285000D01*
X116331719Y-86285000D01*
X116495934Y-86317664D01*
X116495934Y-86317664D01*
G37*
G36*
X138046000Y-87970000D02*
X137246000Y-87970000D01*
X137246000Y-87570000D01*
X138046000Y-87570000D01*
X138046000Y-87970000D01*
X138046000Y-87970000D01*
G37*
G36*
X139846000Y-87970000D02*
X139046000Y-87970000D01*
X139046000Y-87570000D01*
X139846000Y-87570000D01*
X139846000Y-87970000D01*
X139846000Y-87970000D01*
G37*
G36*
X129960630Y-86157299D02*
X130120855Y-86205903D01*
X130268520Y-86284831D01*
X130397949Y-86391051D01*
X130504169Y-86520480D01*
X130583097Y-86668145D01*
X130631701Y-86828370D01*
X130648112Y-86995000D01*
X130631701Y-87161630D01*
X130583097Y-87321855D01*
X130504169Y-87469520D01*
X130397949Y-87598949D01*
X130268520Y-87705169D01*
X130120855Y-87784097D01*
X129960630Y-87832701D01*
X129835752Y-87845000D01*
X129752248Y-87845000D01*
X129627370Y-87832701D01*
X129467145Y-87784097D01*
X129319480Y-87705169D01*
X129190051Y-87598949D01*
X129083831Y-87469520D01*
X129004903Y-87321855D01*
X128956299Y-87161630D01*
X128939888Y-86995000D01*
X128956299Y-86828370D01*
X129004903Y-86668145D01*
X129083831Y-86520480D01*
X129190051Y-86391051D01*
X129319480Y-86284831D01*
X129467145Y-86205903D01*
X129627370Y-86157299D01*
X129752248Y-86145000D01*
X129835752Y-86145000D01*
X129960630Y-86157299D01*
X129960630Y-86157299D01*
G37*
G36*
X132500630Y-86157299D02*
X132660855Y-86205903D01*
X132808520Y-86284831D01*
X132937949Y-86391051D01*
X133044169Y-86520480D01*
X133123097Y-86668145D01*
X133171701Y-86828370D01*
X133188112Y-86995000D01*
X133171701Y-87161630D01*
X133123097Y-87321855D01*
X133044169Y-87469520D01*
X132937949Y-87598949D01*
X132808520Y-87705169D01*
X132660855Y-87784097D01*
X132500630Y-87832701D01*
X132375752Y-87845000D01*
X132292248Y-87845000D01*
X132167370Y-87832701D01*
X132007145Y-87784097D01*
X131859480Y-87705169D01*
X131730051Y-87598949D01*
X131623831Y-87469520D01*
X131544903Y-87321855D01*
X131496299Y-87161630D01*
X131479888Y-86995000D01*
X131496299Y-86828370D01*
X131544903Y-86668145D01*
X131623831Y-86520480D01*
X131730051Y-86391051D01*
X131859480Y-86284831D01*
X132007145Y-86205903D01*
X132167370Y-86157299D01*
X132292248Y-86145000D01*
X132375752Y-86145000D01*
X132500630Y-86157299D01*
X132500630Y-86157299D01*
G37*
G36*
X124517116Y-86522595D02*
X124546313Y-86531452D01*
X124573218Y-86545833D01*
X124596808Y-86565192D01*
X124616167Y-86588782D01*
X124630548Y-86615687D01*
X124639405Y-86644884D01*
X124643000Y-86681390D01*
X124643000Y-87306610D01*
X124639405Y-87343116D01*
X124630548Y-87372313D01*
X124616167Y-87399218D01*
X124596808Y-87422808D01*
X124573218Y-87442167D01*
X124546313Y-87456548D01*
X124517116Y-87465405D01*
X124480610Y-87469000D01*
X123930390Y-87469000D01*
X123893884Y-87465405D01*
X123864687Y-87456548D01*
X123837782Y-87442167D01*
X123814192Y-87422808D01*
X123794833Y-87399218D01*
X123780452Y-87372313D01*
X123771595Y-87343116D01*
X123768000Y-87306610D01*
X123768000Y-86681390D01*
X123771595Y-86644884D01*
X123780452Y-86615687D01*
X123794833Y-86588782D01*
X123814192Y-86565192D01*
X123837782Y-86545833D01*
X123864687Y-86531452D01*
X123893884Y-86522595D01*
X123930390Y-86519000D01*
X124480610Y-86519000D01*
X124517116Y-86522595D01*
X124517116Y-86522595D01*
G37*
G36*
X122942116Y-86522595D02*
X122971313Y-86531452D01*
X122998218Y-86545833D01*
X123021808Y-86565192D01*
X123041167Y-86588782D01*
X123055548Y-86615687D01*
X123064405Y-86644884D01*
X123068000Y-86681390D01*
X123068000Y-87306610D01*
X123064405Y-87343116D01*
X123055548Y-87372313D01*
X123041167Y-87399218D01*
X123021808Y-87422808D01*
X122998218Y-87442167D01*
X122971313Y-87456548D01*
X122942116Y-87465405D01*
X122905610Y-87469000D01*
X122355390Y-87469000D01*
X122318884Y-87465405D01*
X122289687Y-87456548D01*
X122262782Y-87442167D01*
X122239192Y-87422808D01*
X122219833Y-87399218D01*
X122205452Y-87372313D01*
X122196595Y-87343116D01*
X122193000Y-87306610D01*
X122193000Y-86681390D01*
X122196595Y-86644884D01*
X122205452Y-86615687D01*
X122219833Y-86588782D01*
X122239192Y-86565192D01*
X122262782Y-86545833D01*
X122289687Y-86531452D01*
X122318884Y-86522595D01*
X122355390Y-86519000D01*
X122905610Y-86519000D01*
X122942116Y-86522595D01*
X122942116Y-86522595D01*
G37*
G36*
X139846000Y-87170000D02*
X139046000Y-87170000D01*
X139046000Y-86770000D01*
X139846000Y-86770000D01*
X139846000Y-87170000D01*
X139846000Y-87170000D01*
G37*
G36*
X138046000Y-87170000D02*
X137246000Y-87170000D01*
X137246000Y-86770000D01*
X138046000Y-86770000D01*
X138046000Y-87170000D01*
X138046000Y-87170000D01*
G37*
G36*
X139846000Y-86420000D02*
X139046000Y-86420000D01*
X139046000Y-85920000D01*
X139846000Y-85920000D01*
X139846000Y-86420000D01*
X139846000Y-86420000D01*
G37*
G36*
X138046000Y-86420000D02*
X137246000Y-86420000D01*
X137246000Y-85920000D01*
X138046000Y-85920000D01*
X138046000Y-86420000D01*
X138046000Y-86420000D01*
G37*
G36*
X122942116Y-84491595D02*
X122971313Y-84500452D01*
X122998218Y-84514833D01*
X123021808Y-84534192D01*
X123041167Y-84557782D01*
X123055548Y-84584687D01*
X123064405Y-84613884D01*
X123068000Y-84650390D01*
X123068000Y-85275610D01*
X123064405Y-85312116D01*
X123055548Y-85341313D01*
X123041167Y-85368218D01*
X123021808Y-85391808D01*
X122998218Y-85411167D01*
X122971313Y-85425548D01*
X122942116Y-85434405D01*
X122905610Y-85438000D01*
X122355390Y-85438000D01*
X122318884Y-85434405D01*
X122289687Y-85425548D01*
X122262782Y-85411167D01*
X122239192Y-85391808D01*
X122219833Y-85368218D01*
X122205452Y-85341313D01*
X122196595Y-85312116D01*
X122193000Y-85275610D01*
X122193000Y-84650390D01*
X122196595Y-84613884D01*
X122205452Y-84584687D01*
X122219833Y-84557782D01*
X122239192Y-84534192D01*
X122262782Y-84514833D01*
X122289687Y-84500452D01*
X122318884Y-84491595D01*
X122355390Y-84488000D01*
X122905610Y-84488000D01*
X122942116Y-84491595D01*
X122942116Y-84491595D01*
G37*
G36*
X124517116Y-84491595D02*
X124546313Y-84500452D01*
X124573218Y-84514833D01*
X124596808Y-84534192D01*
X124616167Y-84557782D01*
X124630548Y-84584687D01*
X124639405Y-84613884D01*
X124643000Y-84650390D01*
X124643000Y-85275610D01*
X124639405Y-85312116D01*
X124630548Y-85341313D01*
X124616167Y-85368218D01*
X124596808Y-85391808D01*
X124573218Y-85411167D01*
X124546313Y-85425548D01*
X124517116Y-85434405D01*
X124480610Y-85438000D01*
X123930390Y-85438000D01*
X123893884Y-85434405D01*
X123864687Y-85425548D01*
X123837782Y-85411167D01*
X123814192Y-85391808D01*
X123794833Y-85368218D01*
X123780452Y-85341313D01*
X123771595Y-85312116D01*
X123768000Y-85275610D01*
X123768000Y-84650390D01*
X123771595Y-84613884D01*
X123780452Y-84584687D01*
X123794833Y-84557782D01*
X123814192Y-84534192D01*
X123837782Y-84514833D01*
X123864687Y-84500452D01*
X123893884Y-84491595D01*
X123930390Y-84488000D01*
X124480610Y-84488000D01*
X124517116Y-84491595D01*
X124517116Y-84491595D01*
G37*
G36*
X129960630Y-83617299D02*
X130120855Y-83665903D01*
X130268520Y-83744831D01*
X130397949Y-83851051D01*
X130504169Y-83980480D01*
X130583097Y-84128145D01*
X130631701Y-84288370D01*
X130648112Y-84455000D01*
X130631701Y-84621630D01*
X130583097Y-84781855D01*
X130504169Y-84929520D01*
X130397949Y-85058949D01*
X130268520Y-85165169D01*
X130120855Y-85244097D01*
X129960630Y-85292701D01*
X129835752Y-85305000D01*
X129752248Y-85305000D01*
X129627370Y-85292701D01*
X129467145Y-85244097D01*
X129319480Y-85165169D01*
X129190051Y-85058949D01*
X129083831Y-84929520D01*
X129004903Y-84781855D01*
X128956299Y-84621630D01*
X128939888Y-84455000D01*
X128956299Y-84288370D01*
X129004903Y-84128145D01*
X129083831Y-83980480D01*
X129190051Y-83851051D01*
X129319480Y-83744831D01*
X129467145Y-83665903D01*
X129627370Y-83617299D01*
X129752248Y-83605000D01*
X129835752Y-83605000D01*
X129960630Y-83617299D01*
X129960630Y-83617299D01*
G37*
G36*
X133184000Y-85305000D02*
X131484000Y-85305000D01*
X131484000Y-83605000D01*
X133184000Y-83605000D01*
X133184000Y-85305000D01*
X133184000Y-85305000D01*
G37*
G36*
X138050116Y-83738095D02*
X138079313Y-83746952D01*
X138106218Y-83761333D01*
X138129808Y-83780692D01*
X138149167Y-83804282D01*
X138163548Y-83831187D01*
X138172405Y-83860384D01*
X138176000Y-83896890D01*
X138176000Y-84522110D01*
X138172405Y-84558616D01*
X138163548Y-84587813D01*
X138149167Y-84614718D01*
X138129808Y-84638308D01*
X138106218Y-84657667D01*
X138079313Y-84672048D01*
X138050116Y-84680905D01*
X138013610Y-84684500D01*
X137463390Y-84684500D01*
X137426884Y-84680905D01*
X137397687Y-84672048D01*
X137370782Y-84657667D01*
X137347192Y-84638308D01*
X137327833Y-84614718D01*
X137313452Y-84587813D01*
X137304595Y-84558616D01*
X137301000Y-84522110D01*
X137301000Y-83896890D01*
X137304595Y-83860384D01*
X137313452Y-83831187D01*
X137327833Y-83804282D01*
X137347192Y-83780692D01*
X137370782Y-83761333D01*
X137397687Y-83746952D01*
X137426884Y-83738095D01*
X137463390Y-83734500D01*
X138013610Y-83734500D01*
X138050116Y-83738095D01*
X138050116Y-83738095D01*
G37*
G36*
X139625116Y-83738095D02*
X139654313Y-83746952D01*
X139681218Y-83761333D01*
X139704808Y-83780692D01*
X139724167Y-83804282D01*
X139738548Y-83831187D01*
X139747405Y-83860384D01*
X139751000Y-83896890D01*
X139751000Y-84522110D01*
X139747405Y-84558616D01*
X139738548Y-84587813D01*
X139724167Y-84614718D01*
X139704808Y-84638308D01*
X139681218Y-84657667D01*
X139654313Y-84672048D01*
X139625116Y-84680905D01*
X139588610Y-84684500D01*
X139038390Y-84684500D01*
X139001884Y-84680905D01*
X138972687Y-84672048D01*
X138945782Y-84657667D01*
X138922192Y-84638308D01*
X138902833Y-84614718D01*
X138888452Y-84587813D01*
X138879595Y-84558616D01*
X138876000Y-84522110D01*
X138876000Y-83896890D01*
X138879595Y-83860384D01*
X138888452Y-83831187D01*
X138902833Y-83804282D01*
X138922192Y-83780692D01*
X138945782Y-83761333D01*
X138972687Y-83746952D01*
X139001884Y-83738095D01*
X139038390Y-83734500D01*
X139588610Y-83734500D01*
X139625116Y-83738095D01*
X139625116Y-83738095D01*
G37*
G36*
X114048456Y-80682251D02*
X114366936Y-80814170D01*
X114653560Y-81005686D01*
X114897314Y-81249440D01*
X115088830Y-81536064D01*
X115220749Y-81854544D01*
X115288000Y-82192640D01*
X115288000Y-82537360D01*
X115220749Y-82875456D01*
X115088830Y-83193936D01*
X114897314Y-83480560D01*
X114653560Y-83724314D01*
X114366936Y-83915830D01*
X114048456Y-84047749D01*
X113710360Y-84115000D01*
X113365640Y-84115000D01*
X113027544Y-84047749D01*
X112709064Y-83915830D01*
X112422440Y-83724314D01*
X112178686Y-83480560D01*
X111987170Y-83193936D01*
X111855251Y-82875456D01*
X111788000Y-82537360D01*
X111788000Y-82192640D01*
X111855251Y-81854544D01*
X111987170Y-81536064D01*
X112178686Y-81249440D01*
X112422440Y-81005686D01*
X112709064Y-80814170D01*
X113027544Y-80682251D01*
X113365640Y-80615000D01*
X113710360Y-80615000D01*
X114048456Y-80682251D01*
X114048456Y-80682251D01*
G37*
G36*
X132500630Y-81077299D02*
X132660855Y-81125903D01*
X132808520Y-81204831D01*
X132937949Y-81311051D01*
X133044169Y-81440480D01*
X133123097Y-81588145D01*
X133171701Y-81748370D01*
X133188112Y-81915000D01*
X133171701Y-82081630D01*
X133123097Y-82241855D01*
X133044169Y-82389520D01*
X132937949Y-82518949D01*
X132808520Y-82625169D01*
X132660855Y-82704097D01*
X132500630Y-82752701D01*
X132375752Y-82765000D01*
X132292248Y-82765000D01*
X132167370Y-82752701D01*
X132007145Y-82704097D01*
X131859480Y-82625169D01*
X131730051Y-82518949D01*
X131623831Y-82389520D01*
X131544903Y-82241855D01*
X131496299Y-82081630D01*
X131479888Y-81915000D01*
X131496299Y-81748370D01*
X131544903Y-81588145D01*
X131623831Y-81440480D01*
X131730051Y-81311051D01*
X131859480Y-81204831D01*
X132007145Y-81125903D01*
X132167370Y-81077299D01*
X132292248Y-81065000D01*
X132375752Y-81065000D01*
X132500630Y-81077299D01*
X132500630Y-81077299D01*
G37*
G36*
X129960630Y-81077299D02*
X130120855Y-81125903D01*
X130268520Y-81204831D01*
X130397949Y-81311051D01*
X130504169Y-81440480D01*
X130583097Y-81588145D01*
X130631701Y-81748370D01*
X130648112Y-81915000D01*
X130631701Y-82081630D01*
X130583097Y-82241855D01*
X130504169Y-82389520D01*
X130397949Y-82518949D01*
X130268520Y-82625169D01*
X130120855Y-82704097D01*
X129960630Y-82752701D01*
X129835752Y-82765000D01*
X129752248Y-82765000D01*
X129627370Y-82752701D01*
X129467145Y-82704097D01*
X129319480Y-82625169D01*
X129190051Y-82518949D01*
X129083831Y-82389520D01*
X129004903Y-82241855D01*
X128956299Y-82081630D01*
X128939888Y-81915000D01*
X128956299Y-81748370D01*
X129004903Y-81588145D01*
X129083831Y-81440480D01*
X129190051Y-81311051D01*
X129319480Y-81204831D01*
X129467145Y-81125903D01*
X129627370Y-81077299D01*
X129752248Y-81065000D01*
X129835752Y-81065000D01*
X129960630Y-81077299D01*
X129960630Y-81077299D01*
G37*
G36*
X127420630Y-81077299D02*
X127580855Y-81125903D01*
X127728520Y-81204831D01*
X127857949Y-81311051D01*
X127964169Y-81440480D01*
X128043097Y-81588145D01*
X128091701Y-81748370D01*
X128108112Y-81915000D01*
X128091701Y-82081630D01*
X128043097Y-82241855D01*
X127964169Y-82389520D01*
X127857949Y-82518949D01*
X127728520Y-82625169D01*
X127580855Y-82704097D01*
X127420630Y-82752701D01*
X127295752Y-82765000D01*
X127212248Y-82765000D01*
X127087370Y-82752701D01*
X126927145Y-82704097D01*
X126779480Y-82625169D01*
X126650051Y-82518949D01*
X126543831Y-82389520D01*
X126464903Y-82241855D01*
X126416299Y-82081630D01*
X126399888Y-81915000D01*
X126416299Y-81748370D01*
X126464903Y-81588145D01*
X126543831Y-81440480D01*
X126650051Y-81311051D01*
X126779480Y-81204831D01*
X126927145Y-81125903D01*
X127087370Y-81077299D01*
X127212248Y-81065000D01*
X127295752Y-81065000D01*
X127420630Y-81077299D01*
X127420630Y-81077299D01*
G37*
G36*
X124940024Y-81423955D02*
X124972736Y-81433879D01*
X125002890Y-81449997D01*
X125029316Y-81471684D01*
X125051003Y-81498110D01*
X125067121Y-81528264D01*
X125077045Y-81560976D01*
X125081000Y-81601138D01*
X125081000Y-82488862D01*
X125077045Y-82529024D01*
X125067121Y-82561736D01*
X125051003Y-82591890D01*
X125029316Y-82618316D01*
X125002890Y-82640003D01*
X124972736Y-82656121D01*
X124940024Y-82666045D01*
X124899862Y-82670000D01*
X123512138Y-82670000D01*
X123471976Y-82666045D01*
X123439264Y-82656121D01*
X123409110Y-82640003D01*
X123382684Y-82618316D01*
X123360997Y-82591890D01*
X123344879Y-82561736D01*
X123334955Y-82529024D01*
X123331000Y-82488862D01*
X123331000Y-81601138D01*
X123334955Y-81560976D01*
X123344879Y-81528264D01*
X123360997Y-81498110D01*
X123382684Y-81471684D01*
X123409110Y-81449997D01*
X123439264Y-81433879D01*
X123471976Y-81423955D01*
X123512138Y-81420000D01*
X124899862Y-81420000D01*
X124940024Y-81423955D01*
X124940024Y-81423955D01*
G37*
G36*
X138070116Y-81697595D02*
X138099313Y-81706452D01*
X138126218Y-81720833D01*
X138149808Y-81740192D01*
X138169167Y-81763782D01*
X138183548Y-81790687D01*
X138192405Y-81819884D01*
X138196000Y-81856390D01*
X138196000Y-82481610D01*
X138192405Y-82518116D01*
X138183548Y-82547313D01*
X138169167Y-82574218D01*
X138149808Y-82597808D01*
X138126218Y-82617167D01*
X138099313Y-82631548D01*
X138070116Y-82640405D01*
X138033610Y-82644000D01*
X137483390Y-82644000D01*
X137446884Y-82640405D01*
X137417687Y-82631548D01*
X137390782Y-82617167D01*
X137367192Y-82597808D01*
X137347833Y-82574218D01*
X137333452Y-82547313D01*
X137324595Y-82518116D01*
X137321000Y-82481610D01*
X137321000Y-81856390D01*
X137324595Y-81819884D01*
X137333452Y-81790687D01*
X137347833Y-81763782D01*
X137367192Y-81740192D01*
X137390782Y-81720833D01*
X137417687Y-81706452D01*
X137446884Y-81697595D01*
X137483390Y-81694000D01*
X138033610Y-81694000D01*
X138070116Y-81697595D01*
X138070116Y-81697595D01*
G37*
G36*
X139645116Y-81697595D02*
X139674313Y-81706452D01*
X139701218Y-81720833D01*
X139724808Y-81740192D01*
X139744167Y-81763782D01*
X139758548Y-81790687D01*
X139767405Y-81819884D01*
X139771000Y-81856390D01*
X139771000Y-82481610D01*
X139767405Y-82518116D01*
X139758548Y-82547313D01*
X139744167Y-82574218D01*
X139724808Y-82597808D01*
X139701218Y-82617167D01*
X139674313Y-82631548D01*
X139645116Y-82640405D01*
X139608610Y-82644000D01*
X139058390Y-82644000D01*
X139021884Y-82640405D01*
X138992687Y-82631548D01*
X138965782Y-82617167D01*
X138942192Y-82597808D01*
X138922833Y-82574218D01*
X138908452Y-82547313D01*
X138899595Y-82518116D01*
X138896000Y-82481610D01*
X138896000Y-81856390D01*
X138899595Y-81819884D01*
X138908452Y-81790687D01*
X138922833Y-81763782D01*
X138942192Y-81740192D01*
X138965782Y-81720833D01*
X138992687Y-81706452D01*
X139021884Y-81697595D01*
X139058390Y-81694000D01*
X139608610Y-81694000D01*
X139645116Y-81697595D01*
X139645116Y-81697595D01*
G37*
G36*
X133184000Y-80225000D02*
X131484000Y-80225000D01*
X131484000Y-78525000D01*
X133184000Y-78525000D01*
X133184000Y-80225000D01*
X133184000Y-80225000D01*
G37*
G36*
X129960630Y-78537299D02*
X130120855Y-78585903D01*
X130268520Y-78664831D01*
X130397949Y-78771051D01*
X130504169Y-78900480D01*
X130583097Y-79048145D01*
X130631701Y-79208370D01*
X130648112Y-79375000D01*
X130631701Y-79541630D01*
X130583097Y-79701855D01*
X130504169Y-79849520D01*
X130397949Y-79978949D01*
X130268520Y-80085169D01*
X130120855Y-80164097D01*
X129960630Y-80212701D01*
X129835752Y-80225000D01*
X129752248Y-80225000D01*
X129627370Y-80212701D01*
X129467145Y-80164097D01*
X129319480Y-80085169D01*
X129190051Y-79978949D01*
X129083831Y-79849520D01*
X129004903Y-79701855D01*
X128956299Y-79541630D01*
X128939888Y-79375000D01*
X128956299Y-79208370D01*
X129004903Y-79048145D01*
X129083831Y-78900480D01*
X129190051Y-78771051D01*
X129319480Y-78664831D01*
X129467145Y-78585903D01*
X129627370Y-78537299D01*
X129752248Y-78525000D01*
X129835752Y-78525000D01*
X129960630Y-78537299D01*
X129960630Y-78537299D01*
G37*
G36*
X127420630Y-78537299D02*
X127580855Y-78585903D01*
X127728520Y-78664831D01*
X127857949Y-78771051D01*
X127964169Y-78900480D01*
X128043097Y-79048145D01*
X128091701Y-79208370D01*
X128108112Y-79375000D01*
X128091701Y-79541630D01*
X128043097Y-79701855D01*
X127964169Y-79849520D01*
X127857949Y-79978949D01*
X127728520Y-80085169D01*
X127580855Y-80164097D01*
X127420630Y-80212701D01*
X127295752Y-80225000D01*
X127212248Y-80225000D01*
X127087370Y-80212701D01*
X126927145Y-80164097D01*
X126779480Y-80085169D01*
X126650051Y-79978949D01*
X126543831Y-79849520D01*
X126464903Y-79701855D01*
X126416299Y-79541630D01*
X126399888Y-79375000D01*
X126416299Y-79208370D01*
X126464903Y-79048145D01*
X126543831Y-78900480D01*
X126650051Y-78771051D01*
X126779480Y-78664831D01*
X126927145Y-78585903D01*
X127087370Y-78537299D01*
X127212248Y-78525000D01*
X127295752Y-78525000D01*
X127420630Y-78537299D01*
X127420630Y-78537299D01*
G37*
G36*
X124940024Y-78623955D02*
X124972736Y-78633879D01*
X125002890Y-78649997D01*
X125029316Y-78671684D01*
X125051003Y-78698110D01*
X125067121Y-78728264D01*
X125077045Y-78760976D01*
X125081000Y-78801138D01*
X125081000Y-79688862D01*
X125077045Y-79729024D01*
X125067121Y-79761736D01*
X125051003Y-79791890D01*
X125029316Y-79818316D01*
X125002890Y-79840003D01*
X124972736Y-79856121D01*
X124940024Y-79866045D01*
X124899862Y-79870000D01*
X123512138Y-79870000D01*
X123471976Y-79866045D01*
X123439264Y-79856121D01*
X123409110Y-79840003D01*
X123382684Y-79818316D01*
X123360997Y-79791890D01*
X123344879Y-79761736D01*
X123334955Y-79729024D01*
X123331000Y-79688862D01*
X123331000Y-78801138D01*
X123334955Y-78760976D01*
X123344879Y-78728264D01*
X123360997Y-78698110D01*
X123382684Y-78671684D01*
X123409110Y-78649997D01*
X123439264Y-78633879D01*
X123471976Y-78623955D01*
X123512138Y-78620000D01*
X124899862Y-78620000D01*
X124940024Y-78623955D01*
X124940024Y-78623955D01*
G37*
G36*
X122103000Y-79481000D02*
X120553000Y-79481000D01*
X120553000Y-78181000D01*
X122103000Y-78181000D01*
X122103000Y-79481000D01*
X122103000Y-79481000D01*
G37*
G36*
X114143000Y-79481000D02*
X112593000Y-79481000D01*
X112593000Y-78181000D01*
X114143000Y-78181000D01*
X114143000Y-79481000D01*
X114143000Y-79481000D01*
G37*
G36*
X126830712Y-73611088D02*
X127200510Y-73764263D01*
X127200513Y-73764265D01*
X127533325Y-73986643D01*
X127816357Y-74269675D01*
X128000204Y-74544822D01*
X128038737Y-74602490D01*
X128191912Y-74972288D01*
X128270000Y-75364864D01*
X128270000Y-75765136D01*
X128191912Y-76157712D01*
X128038737Y-76527510D01*
X128038735Y-76527513D01*
X127816357Y-76860325D01*
X127533325Y-77143357D01*
X127200513Y-77365735D01*
X127200510Y-77365737D01*
X126830712Y-77518912D01*
X126438136Y-77597000D01*
X126037864Y-77597000D01*
X125645288Y-77518912D01*
X125275490Y-77365737D01*
X125275487Y-77365735D01*
X124942675Y-77143357D01*
X124659643Y-76860325D01*
X124437265Y-76527513D01*
X124437263Y-76527510D01*
X124284088Y-76157712D01*
X124206000Y-75765136D01*
X124206000Y-75364864D01*
X124284088Y-74972288D01*
X124437263Y-74602490D01*
X124475796Y-74544822D01*
X124659643Y-74269675D01*
X124942675Y-73986643D01*
X125275487Y-73764265D01*
X125275490Y-73764263D01*
X125645288Y-73611088D01*
X126037864Y-73533000D01*
X126438136Y-73533000D01*
X126830712Y-73611088D01*
X126830712Y-73611088D01*
G37*
G36*
X161967294Y-74561496D02*
X162087726Y-74598029D01*
X162130087Y-74610879D01*
X162280112Y-74691068D01*
X162411612Y-74798988D01*
X162519532Y-74930488D01*
X162599721Y-75080512D01*
X162612571Y-75122873D01*
X162649104Y-75243305D01*
X162649104Y-75243307D01*
X162661600Y-75370179D01*
X162661600Y-75759820D01*
X162661076Y-75765136D01*
X162649104Y-75886694D01*
X162612571Y-76007128D01*
X162599721Y-76049488D01*
X162519532Y-76199512D01*
X162411612Y-76331012D01*
X162280112Y-76438932D01*
X162130088Y-76519121D01*
X162102433Y-76527510D01*
X161967295Y-76568504D01*
X161854432Y-76579620D01*
X161798001Y-76585178D01*
X161798000Y-76585178D01*
X161628706Y-76568504D01*
X161493568Y-76527510D01*
X161465913Y-76519121D01*
X161315889Y-76438932D01*
X161225946Y-76365117D01*
X161184388Y-76331012D01*
X161076469Y-76199512D01*
X161054127Y-76157713D01*
X160996279Y-76049488D01*
X160983429Y-76007127D01*
X160946896Y-75886695D01*
X160938565Y-75802112D01*
X160934400Y-75759821D01*
X160934400Y-75370180D01*
X160946896Y-75243308D01*
X160946896Y-75243306D01*
X160996278Y-75080517D01*
X160996279Y-75080513D01*
X161076468Y-74930488D01*
X161184388Y-74798988D01*
X161315888Y-74691068D01*
X161465912Y-74610879D01*
X161508273Y-74598029D01*
X161628705Y-74561496D01*
X161741568Y-74550380D01*
X161797999Y-74544822D01*
X161798000Y-74544822D01*
X161967294Y-74561496D01*
X161967294Y-74561496D01*
G37*
G36*
X174667294Y-74561496D02*
X174787726Y-74598029D01*
X174830087Y-74610879D01*
X174980112Y-74691068D01*
X175111612Y-74798988D01*
X175219532Y-74930488D01*
X175299721Y-75080512D01*
X175312571Y-75122873D01*
X175349104Y-75243305D01*
X175349104Y-75243307D01*
X175361600Y-75370179D01*
X175361600Y-75759820D01*
X175361076Y-75765136D01*
X175349104Y-75886694D01*
X175312571Y-76007128D01*
X175299721Y-76049488D01*
X175219532Y-76199512D01*
X175111612Y-76331012D01*
X174980112Y-76438932D01*
X174830088Y-76519121D01*
X174802433Y-76527510D01*
X174667295Y-76568504D01*
X174554432Y-76579620D01*
X174498001Y-76585178D01*
X174498000Y-76585178D01*
X174328706Y-76568504D01*
X174193568Y-76527510D01*
X174165913Y-76519121D01*
X174015889Y-76438932D01*
X173925946Y-76365117D01*
X173884388Y-76331012D01*
X173776469Y-76199512D01*
X173754127Y-76157713D01*
X173696279Y-76049488D01*
X173683429Y-76007127D01*
X173646896Y-75886695D01*
X173638565Y-75802112D01*
X173634400Y-75759821D01*
X173634400Y-75370180D01*
X173646896Y-75243308D01*
X173646896Y-75243306D01*
X173696278Y-75080517D01*
X173696279Y-75080513D01*
X173776468Y-74930488D01*
X173884388Y-74798988D01*
X174015888Y-74691068D01*
X174165912Y-74610879D01*
X174208273Y-74598029D01*
X174328705Y-74561496D01*
X174441568Y-74550380D01*
X174497999Y-74544822D01*
X174498000Y-74544822D01*
X174667294Y-74561496D01*
X174667294Y-74561496D01*
G37*
G36*
X159427294Y-74561496D02*
X159547726Y-74598029D01*
X159590087Y-74610879D01*
X159740112Y-74691068D01*
X159871612Y-74798988D01*
X159979532Y-74930488D01*
X160059721Y-75080512D01*
X160072571Y-75122873D01*
X160109104Y-75243305D01*
X160109104Y-75243307D01*
X160121600Y-75370179D01*
X160121600Y-75759820D01*
X160121076Y-75765136D01*
X160109104Y-75886694D01*
X160072571Y-76007128D01*
X160059721Y-76049488D01*
X159979532Y-76199512D01*
X159871612Y-76331012D01*
X159740112Y-76438932D01*
X159590088Y-76519121D01*
X159562433Y-76527510D01*
X159427295Y-76568504D01*
X159314432Y-76579620D01*
X159258001Y-76585178D01*
X159258000Y-76585178D01*
X159088706Y-76568504D01*
X158953568Y-76527510D01*
X158925913Y-76519121D01*
X158775889Y-76438932D01*
X158685946Y-76365117D01*
X158644388Y-76331012D01*
X158536469Y-76199512D01*
X158514127Y-76157713D01*
X158456279Y-76049488D01*
X158443429Y-76007127D01*
X158406896Y-75886695D01*
X158398565Y-75802112D01*
X158394400Y-75759821D01*
X158394400Y-75370180D01*
X158406896Y-75243308D01*
X158406896Y-75243306D01*
X158456278Y-75080517D01*
X158456279Y-75080513D01*
X158536468Y-74930488D01*
X158644388Y-74798988D01*
X158775888Y-74691068D01*
X158925912Y-74610879D01*
X158968273Y-74598029D01*
X159088705Y-74561496D01*
X159201568Y-74550380D01*
X159257999Y-74544822D01*
X159258000Y-74544822D01*
X159427294Y-74561496D01*
X159427294Y-74561496D01*
G37*
G36*
X156887294Y-74561496D02*
X157007726Y-74598029D01*
X157050087Y-74610879D01*
X157200112Y-74691068D01*
X157331612Y-74798988D01*
X157439532Y-74930488D01*
X157519721Y-75080512D01*
X157532571Y-75122873D01*
X157569104Y-75243305D01*
X157569104Y-75243307D01*
X157581600Y-75370179D01*
X157581600Y-75759820D01*
X157581076Y-75765136D01*
X157569104Y-75886694D01*
X157532571Y-76007128D01*
X157519721Y-76049488D01*
X157439532Y-76199512D01*
X157331612Y-76331012D01*
X157200112Y-76438932D01*
X157050088Y-76519121D01*
X157022433Y-76527510D01*
X156887295Y-76568504D01*
X156774432Y-76579620D01*
X156718001Y-76585178D01*
X156718000Y-76585178D01*
X156548706Y-76568504D01*
X156413568Y-76527510D01*
X156385913Y-76519121D01*
X156235889Y-76438932D01*
X156145946Y-76365117D01*
X156104388Y-76331012D01*
X155996469Y-76199512D01*
X155974127Y-76157713D01*
X155916279Y-76049488D01*
X155903429Y-76007127D01*
X155866896Y-75886695D01*
X155858565Y-75802112D01*
X155854400Y-75759821D01*
X155854400Y-75370180D01*
X155866896Y-75243308D01*
X155866896Y-75243306D01*
X155916278Y-75080517D01*
X155916279Y-75080513D01*
X155996468Y-74930488D01*
X156104388Y-74798988D01*
X156235888Y-74691068D01*
X156385912Y-74610879D01*
X156428273Y-74598029D01*
X156548705Y-74561496D01*
X156661568Y-74550380D01*
X156717999Y-74544822D01*
X156718000Y-74544822D01*
X156887294Y-74561496D01*
X156887294Y-74561496D01*
G37*
G36*
X150283294Y-74561496D02*
X150403726Y-74598029D01*
X150446087Y-74610879D01*
X150596112Y-74691068D01*
X150727612Y-74798988D01*
X150835532Y-74930488D01*
X150915721Y-75080512D01*
X150928571Y-75122873D01*
X150965104Y-75243305D01*
X150965104Y-75243307D01*
X150977600Y-75370179D01*
X150977600Y-75759820D01*
X150977076Y-75765136D01*
X150965104Y-75886694D01*
X150928571Y-76007128D01*
X150915721Y-76049488D01*
X150835532Y-76199512D01*
X150727612Y-76331012D01*
X150596112Y-76438932D01*
X150446088Y-76519121D01*
X150418433Y-76527510D01*
X150283295Y-76568504D01*
X150170432Y-76579620D01*
X150114001Y-76585178D01*
X150114000Y-76585178D01*
X149944706Y-76568504D01*
X149809568Y-76527510D01*
X149781913Y-76519121D01*
X149631889Y-76438932D01*
X149541946Y-76365117D01*
X149500388Y-76331012D01*
X149392469Y-76199512D01*
X149370127Y-76157713D01*
X149312279Y-76049488D01*
X149299429Y-76007127D01*
X149262896Y-75886695D01*
X149254565Y-75802112D01*
X149250400Y-75759821D01*
X149250400Y-75370180D01*
X149262896Y-75243308D01*
X149262896Y-75243306D01*
X149312278Y-75080517D01*
X149312279Y-75080513D01*
X149392468Y-74930488D01*
X149500388Y-74798988D01*
X149631888Y-74691068D01*
X149781912Y-74610879D01*
X149824273Y-74598029D01*
X149944705Y-74561496D01*
X150057568Y-74550380D01*
X150113999Y-74544822D01*
X150114000Y-74544822D01*
X150283294Y-74561496D01*
X150283294Y-74561496D01*
G37*
G36*
X147743294Y-74561496D02*
X147863726Y-74598029D01*
X147906087Y-74610879D01*
X148056112Y-74691068D01*
X148187612Y-74798988D01*
X148295532Y-74930488D01*
X148375721Y-75080512D01*
X148388571Y-75122873D01*
X148425104Y-75243305D01*
X148425104Y-75243307D01*
X148437600Y-75370179D01*
X148437600Y-75759820D01*
X148437076Y-75765136D01*
X148425104Y-75886694D01*
X148388571Y-76007128D01*
X148375721Y-76049488D01*
X148295532Y-76199512D01*
X148187612Y-76331012D01*
X148056112Y-76438932D01*
X147906088Y-76519121D01*
X147878433Y-76527510D01*
X147743295Y-76568504D01*
X147630432Y-76579620D01*
X147574001Y-76585178D01*
X147574000Y-76585178D01*
X147404706Y-76568504D01*
X147269568Y-76527510D01*
X147241913Y-76519121D01*
X147091889Y-76438932D01*
X147001946Y-76365117D01*
X146960388Y-76331012D01*
X146852469Y-76199512D01*
X146830127Y-76157713D01*
X146772279Y-76049488D01*
X146759429Y-76007127D01*
X146722896Y-75886695D01*
X146714565Y-75802112D01*
X146710400Y-75759821D01*
X146710400Y-75370180D01*
X146722896Y-75243308D01*
X146722896Y-75243306D01*
X146772278Y-75080517D01*
X146772279Y-75080513D01*
X146852468Y-74930488D01*
X146960388Y-74798988D01*
X147091888Y-74691068D01*
X147241912Y-74610879D01*
X147284273Y-74598029D01*
X147404705Y-74561496D01*
X147517568Y-74550380D01*
X147573999Y-74544822D01*
X147574000Y-74544822D01*
X147743294Y-74561496D01*
X147743294Y-74561496D01*
G37*
G36*
X145203294Y-74561496D02*
X145323726Y-74598029D01*
X145366087Y-74610879D01*
X145516112Y-74691068D01*
X145647612Y-74798988D01*
X145755532Y-74930488D01*
X145835721Y-75080512D01*
X145848571Y-75122873D01*
X145885104Y-75243305D01*
X145885104Y-75243307D01*
X145897600Y-75370179D01*
X145897600Y-75759820D01*
X145897076Y-75765136D01*
X145885104Y-75886694D01*
X145848571Y-76007128D01*
X145835721Y-76049488D01*
X145755532Y-76199512D01*
X145647612Y-76331012D01*
X145516112Y-76438932D01*
X145366088Y-76519121D01*
X145338433Y-76527510D01*
X145203295Y-76568504D01*
X145090432Y-76579620D01*
X145034001Y-76585178D01*
X145034000Y-76585178D01*
X144864706Y-76568504D01*
X144729568Y-76527510D01*
X144701913Y-76519121D01*
X144551889Y-76438932D01*
X144461946Y-76365117D01*
X144420388Y-76331012D01*
X144312469Y-76199512D01*
X144290127Y-76157713D01*
X144232279Y-76049488D01*
X144219429Y-76007127D01*
X144182896Y-75886695D01*
X144174565Y-75802112D01*
X144170400Y-75759821D01*
X144170400Y-75370180D01*
X144182896Y-75243308D01*
X144182896Y-75243306D01*
X144232278Y-75080517D01*
X144232279Y-75080513D01*
X144312468Y-74930488D01*
X144420388Y-74798988D01*
X144551888Y-74691068D01*
X144701912Y-74610879D01*
X144744273Y-74598029D01*
X144864705Y-74561496D01*
X144977568Y-74550380D01*
X145033999Y-74544822D01*
X145034000Y-74544822D01*
X145203294Y-74561496D01*
X145203294Y-74561496D01*
G37*
G36*
X142663294Y-74561496D02*
X142783726Y-74598029D01*
X142826087Y-74610879D01*
X142976112Y-74691068D01*
X143107612Y-74798988D01*
X143215532Y-74930488D01*
X143295721Y-75080512D01*
X143308571Y-75122873D01*
X143345104Y-75243305D01*
X143345104Y-75243307D01*
X143357600Y-75370179D01*
X143357600Y-75759820D01*
X143357076Y-75765136D01*
X143345104Y-75886694D01*
X143308571Y-76007128D01*
X143295721Y-76049488D01*
X143215532Y-76199512D01*
X143107612Y-76331012D01*
X142976112Y-76438932D01*
X142826088Y-76519121D01*
X142798433Y-76527510D01*
X142663295Y-76568504D01*
X142550432Y-76579620D01*
X142494001Y-76585178D01*
X142494000Y-76585178D01*
X142324706Y-76568504D01*
X142189568Y-76527510D01*
X142161913Y-76519121D01*
X142011889Y-76438932D01*
X141921946Y-76365117D01*
X141880388Y-76331012D01*
X141772469Y-76199512D01*
X141750127Y-76157713D01*
X141692279Y-76049488D01*
X141679429Y-76007127D01*
X141642896Y-75886695D01*
X141634565Y-75802112D01*
X141630400Y-75759821D01*
X141630400Y-75370180D01*
X141642896Y-75243308D01*
X141642896Y-75243306D01*
X141692278Y-75080517D01*
X141692279Y-75080513D01*
X141772468Y-74930488D01*
X141880388Y-74798988D01*
X142011888Y-74691068D01*
X142161912Y-74610879D01*
X142204273Y-74598029D01*
X142324705Y-74561496D01*
X142437568Y-74550380D01*
X142493999Y-74544822D01*
X142494000Y-74544822D01*
X142663294Y-74561496D01*
X142663294Y-74561496D01*
G37*
G36*
X172127294Y-74561496D02*
X172247726Y-74598029D01*
X172290087Y-74610879D01*
X172440112Y-74691068D01*
X172571612Y-74798988D01*
X172679532Y-74930488D01*
X172759721Y-75080512D01*
X172772571Y-75122873D01*
X172809104Y-75243305D01*
X172809104Y-75243307D01*
X172821600Y-75370179D01*
X172821600Y-75759820D01*
X172821076Y-75765136D01*
X172809104Y-75886694D01*
X172772571Y-76007128D01*
X172759721Y-76049488D01*
X172679532Y-76199512D01*
X172571612Y-76331012D01*
X172440112Y-76438932D01*
X172290088Y-76519121D01*
X172262433Y-76527510D01*
X172127295Y-76568504D01*
X172014432Y-76579620D01*
X171958001Y-76585178D01*
X171958000Y-76585178D01*
X171788706Y-76568504D01*
X171653568Y-76527510D01*
X171625913Y-76519121D01*
X171475889Y-76438932D01*
X171385946Y-76365117D01*
X171344388Y-76331012D01*
X171236469Y-76199512D01*
X171214127Y-76157713D01*
X171156279Y-76049488D01*
X171143429Y-76007127D01*
X171106896Y-75886695D01*
X171098565Y-75802112D01*
X171094400Y-75759821D01*
X171094400Y-75370180D01*
X171106896Y-75243308D01*
X171106896Y-75243306D01*
X171156278Y-75080517D01*
X171156279Y-75080513D01*
X171236468Y-74930488D01*
X171344388Y-74798988D01*
X171475888Y-74691068D01*
X171625912Y-74610879D01*
X171668273Y-74598029D01*
X171788705Y-74561496D01*
X171901568Y-74550380D01*
X171957999Y-74544822D01*
X171958000Y-74544822D01*
X172127294Y-74561496D01*
X172127294Y-74561496D01*
G37*
G36*
X164507294Y-74561496D02*
X164627726Y-74598029D01*
X164670087Y-74610879D01*
X164820112Y-74691068D01*
X164951612Y-74798988D01*
X165059532Y-74930488D01*
X165139721Y-75080512D01*
X165152571Y-75122873D01*
X165189104Y-75243305D01*
X165189104Y-75243307D01*
X165201600Y-75370179D01*
X165201600Y-75759820D01*
X165201076Y-75765136D01*
X165189104Y-75886694D01*
X165152571Y-76007128D01*
X165139721Y-76049488D01*
X165059532Y-76199512D01*
X164951612Y-76331012D01*
X164820112Y-76438932D01*
X164670088Y-76519121D01*
X164642433Y-76527510D01*
X164507295Y-76568504D01*
X164394432Y-76579620D01*
X164338001Y-76585178D01*
X164338000Y-76585178D01*
X164168706Y-76568504D01*
X164033568Y-76527510D01*
X164005913Y-76519121D01*
X163855889Y-76438932D01*
X163765946Y-76365117D01*
X163724388Y-76331012D01*
X163616469Y-76199512D01*
X163594127Y-76157713D01*
X163536279Y-76049488D01*
X163523429Y-76007127D01*
X163486896Y-75886695D01*
X163478565Y-75802112D01*
X163474400Y-75759821D01*
X163474400Y-75370180D01*
X163486896Y-75243308D01*
X163486896Y-75243306D01*
X163536278Y-75080517D01*
X163536279Y-75080513D01*
X163616468Y-74930488D01*
X163724388Y-74798988D01*
X163855888Y-74691068D01*
X164005912Y-74610879D01*
X164048273Y-74598029D01*
X164168705Y-74561496D01*
X164281568Y-74550380D01*
X164337999Y-74544822D01*
X164338000Y-74544822D01*
X164507294Y-74561496D01*
X164507294Y-74561496D01*
G37*
G36*
X167047294Y-74561496D02*
X167167726Y-74598029D01*
X167210087Y-74610879D01*
X167360112Y-74691068D01*
X167491612Y-74798988D01*
X167599532Y-74930488D01*
X167679721Y-75080512D01*
X167692571Y-75122873D01*
X167729104Y-75243305D01*
X167729104Y-75243307D01*
X167741600Y-75370179D01*
X167741600Y-75759820D01*
X167741076Y-75765136D01*
X167729104Y-75886694D01*
X167692571Y-76007128D01*
X167679721Y-76049488D01*
X167599532Y-76199512D01*
X167491612Y-76331012D01*
X167360112Y-76438932D01*
X167210088Y-76519121D01*
X167182433Y-76527510D01*
X167047295Y-76568504D01*
X166934432Y-76579620D01*
X166878001Y-76585178D01*
X166878000Y-76585178D01*
X166708706Y-76568504D01*
X166573568Y-76527510D01*
X166545913Y-76519121D01*
X166395889Y-76438932D01*
X166305946Y-76365117D01*
X166264388Y-76331012D01*
X166156469Y-76199512D01*
X166134127Y-76157713D01*
X166076279Y-76049488D01*
X166063429Y-76007127D01*
X166026896Y-75886695D01*
X166018565Y-75802112D01*
X166014400Y-75759821D01*
X166014400Y-75370180D01*
X166026896Y-75243308D01*
X166026896Y-75243306D01*
X166076278Y-75080517D01*
X166076279Y-75080513D01*
X166156468Y-74930488D01*
X166264388Y-74798988D01*
X166395888Y-74691068D01*
X166545912Y-74610879D01*
X166588273Y-74598029D01*
X166708705Y-74561496D01*
X166821568Y-74550380D01*
X166877999Y-74544822D01*
X166878000Y-74544822D01*
X167047294Y-74561496D01*
X167047294Y-74561496D01*
G37*
G36*
X169587294Y-74561496D02*
X169707726Y-74598029D01*
X169750087Y-74610879D01*
X169900112Y-74691068D01*
X170031612Y-74798988D01*
X170139532Y-74930488D01*
X170219721Y-75080512D01*
X170232571Y-75122873D01*
X170269104Y-75243305D01*
X170269104Y-75243307D01*
X170281600Y-75370179D01*
X170281600Y-75759820D01*
X170281076Y-75765136D01*
X170269104Y-75886694D01*
X170232571Y-76007128D01*
X170219721Y-76049488D01*
X170139532Y-76199512D01*
X170031612Y-76331012D01*
X169900112Y-76438932D01*
X169750088Y-76519121D01*
X169722433Y-76527510D01*
X169587295Y-76568504D01*
X169474432Y-76579620D01*
X169418001Y-76585178D01*
X169418000Y-76585178D01*
X169248706Y-76568504D01*
X169113568Y-76527510D01*
X169085913Y-76519121D01*
X168935889Y-76438932D01*
X168845946Y-76365117D01*
X168804388Y-76331012D01*
X168696469Y-76199512D01*
X168674127Y-76157713D01*
X168616279Y-76049488D01*
X168603429Y-76007127D01*
X168566896Y-75886695D01*
X168558565Y-75802112D01*
X168554400Y-75759821D01*
X168554400Y-75370180D01*
X168566896Y-75243308D01*
X168566896Y-75243306D01*
X168616278Y-75080517D01*
X168616279Y-75080513D01*
X168696468Y-74930488D01*
X168804388Y-74798988D01*
X168935888Y-74691068D01*
X169085912Y-74610879D01*
X169128273Y-74598029D01*
X169248705Y-74561496D01*
X169361568Y-74550380D01*
X169417999Y-74544822D01*
X169418000Y-74544822D01*
X169587294Y-74561496D01*
X169587294Y-74561496D01*
G37*
G36*
X140123294Y-74561496D02*
X140243726Y-74598029D01*
X140286087Y-74610879D01*
X140436112Y-74691068D01*
X140567612Y-74798988D01*
X140675532Y-74930488D01*
X140755721Y-75080512D01*
X140768571Y-75122873D01*
X140805104Y-75243305D01*
X140805104Y-75243307D01*
X140817600Y-75370179D01*
X140817600Y-75759820D01*
X140817076Y-75765136D01*
X140805104Y-75886694D01*
X140768571Y-76007128D01*
X140755721Y-76049488D01*
X140675532Y-76199512D01*
X140567612Y-76331012D01*
X140436112Y-76438932D01*
X140286088Y-76519121D01*
X140258433Y-76527510D01*
X140123295Y-76568504D01*
X140010432Y-76579620D01*
X139954001Y-76585178D01*
X139954000Y-76585178D01*
X139784706Y-76568504D01*
X139649568Y-76527510D01*
X139621913Y-76519121D01*
X139471889Y-76438932D01*
X139381946Y-76365117D01*
X139340388Y-76331012D01*
X139232469Y-76199512D01*
X139210127Y-76157713D01*
X139152279Y-76049488D01*
X139139429Y-76007127D01*
X139102896Y-75886695D01*
X139094565Y-75802112D01*
X139090400Y-75759821D01*
X139090400Y-75370180D01*
X139102896Y-75243308D01*
X139102896Y-75243306D01*
X139152278Y-75080517D01*
X139152279Y-75080513D01*
X139232468Y-74930488D01*
X139340388Y-74798988D01*
X139471888Y-74691068D01*
X139621912Y-74610879D01*
X139664273Y-74598029D01*
X139784705Y-74561496D01*
X139897568Y-74550380D01*
X139953999Y-74544822D01*
X139954000Y-74544822D01*
X140123294Y-74561496D01*
X140123294Y-74561496D01*
G37*
G36*
X152823294Y-74561496D02*
X152943726Y-74598029D01*
X152986087Y-74610879D01*
X153136112Y-74691068D01*
X153267612Y-74798988D01*
X153375532Y-74930488D01*
X153455721Y-75080512D01*
X153468571Y-75122873D01*
X153505104Y-75243305D01*
X153505104Y-75243307D01*
X153517600Y-75370179D01*
X153517600Y-75759820D01*
X153517076Y-75765136D01*
X153505104Y-75886694D01*
X153468571Y-76007128D01*
X153455721Y-76049488D01*
X153375532Y-76199512D01*
X153267612Y-76331012D01*
X153136112Y-76438932D01*
X152986088Y-76519121D01*
X152958433Y-76527510D01*
X152823295Y-76568504D01*
X152710432Y-76579620D01*
X152654001Y-76585178D01*
X152654000Y-76585178D01*
X152484706Y-76568504D01*
X152349568Y-76527510D01*
X152321913Y-76519121D01*
X152171889Y-76438932D01*
X152081946Y-76365117D01*
X152040388Y-76331012D01*
X151932469Y-76199512D01*
X151910127Y-76157713D01*
X151852279Y-76049488D01*
X151839429Y-76007127D01*
X151802896Y-75886695D01*
X151794565Y-75802112D01*
X151790400Y-75759821D01*
X151790400Y-75370180D01*
X151802896Y-75243308D01*
X151802896Y-75243306D01*
X151852278Y-75080517D01*
X151852279Y-75080513D01*
X151932468Y-74930488D01*
X152040388Y-74798988D01*
X152171888Y-74691068D01*
X152321912Y-74610879D01*
X152364273Y-74598029D01*
X152484705Y-74561496D01*
X152597568Y-74550380D01*
X152653999Y-74544822D01*
X152654000Y-74544822D01*
X152823294Y-74561496D01*
X152823294Y-74561496D01*
G37*
G36*
X129963294Y-74561496D02*
X130083726Y-74598029D01*
X130126087Y-74610879D01*
X130276112Y-74691068D01*
X130407612Y-74798988D01*
X130515532Y-74930488D01*
X130595721Y-75080512D01*
X130608571Y-75122873D01*
X130645104Y-75243305D01*
X130645104Y-75243307D01*
X130657600Y-75370179D01*
X130657600Y-75759820D01*
X130657076Y-75765136D01*
X130645104Y-75886694D01*
X130608571Y-76007128D01*
X130595721Y-76049488D01*
X130515532Y-76199512D01*
X130407612Y-76331012D01*
X130276112Y-76438932D01*
X130126088Y-76519121D01*
X130098433Y-76527510D01*
X129963295Y-76568504D01*
X129850432Y-76579620D01*
X129794001Y-76585178D01*
X129794000Y-76585178D01*
X129624706Y-76568504D01*
X129489568Y-76527510D01*
X129461913Y-76519121D01*
X129311889Y-76438932D01*
X129221946Y-76365117D01*
X129180388Y-76331012D01*
X129072469Y-76199512D01*
X129050127Y-76157713D01*
X128992279Y-76049488D01*
X128979429Y-76007127D01*
X128942896Y-75886695D01*
X128934565Y-75802112D01*
X128930400Y-75759821D01*
X128930400Y-75370180D01*
X128942896Y-75243308D01*
X128942896Y-75243306D01*
X128992278Y-75080517D01*
X128992279Y-75080513D01*
X129072468Y-74930488D01*
X129180388Y-74798988D01*
X129311888Y-74691068D01*
X129461912Y-74610879D01*
X129504273Y-74598029D01*
X129624705Y-74561496D01*
X129737568Y-74550380D01*
X129793999Y-74544822D01*
X129794000Y-74544822D01*
X129963294Y-74561496D01*
X129963294Y-74561496D01*
G37*
G36*
X132503294Y-74561496D02*
X132623726Y-74598029D01*
X132666087Y-74610879D01*
X132816112Y-74691068D01*
X132947612Y-74798988D01*
X133055532Y-74930488D01*
X133135721Y-75080512D01*
X133148571Y-75122873D01*
X133185104Y-75243305D01*
X133185104Y-75243307D01*
X133197600Y-75370179D01*
X133197600Y-75759820D01*
X133197076Y-75765136D01*
X133185104Y-75886694D01*
X133148571Y-76007128D01*
X133135721Y-76049488D01*
X133055532Y-76199512D01*
X132947612Y-76331012D01*
X132816112Y-76438932D01*
X132666088Y-76519121D01*
X132638433Y-76527510D01*
X132503295Y-76568504D01*
X132390432Y-76579620D01*
X132334001Y-76585178D01*
X132334000Y-76585178D01*
X132164706Y-76568504D01*
X132029568Y-76527510D01*
X132001913Y-76519121D01*
X131851889Y-76438932D01*
X131761946Y-76365117D01*
X131720388Y-76331012D01*
X131612469Y-76199512D01*
X131590127Y-76157713D01*
X131532279Y-76049488D01*
X131519429Y-76007127D01*
X131482896Y-75886695D01*
X131474565Y-75802112D01*
X131470400Y-75759821D01*
X131470400Y-75370180D01*
X131482896Y-75243308D01*
X131482896Y-75243306D01*
X131532278Y-75080517D01*
X131532279Y-75080513D01*
X131612468Y-74930488D01*
X131720388Y-74798988D01*
X131851888Y-74691068D01*
X132001912Y-74610879D01*
X132044273Y-74598029D01*
X132164705Y-74561496D01*
X132277568Y-74550380D01*
X132333999Y-74544822D01*
X132334000Y-74544822D01*
X132503294Y-74561496D01*
X132503294Y-74561496D01*
G37*
G36*
X135043294Y-74561496D02*
X135163726Y-74598029D01*
X135206087Y-74610879D01*
X135356112Y-74691068D01*
X135487612Y-74798988D01*
X135595532Y-74930488D01*
X135675721Y-75080512D01*
X135688571Y-75122873D01*
X135725104Y-75243305D01*
X135725104Y-75243307D01*
X135737600Y-75370179D01*
X135737600Y-75759820D01*
X135737076Y-75765136D01*
X135725104Y-75886694D01*
X135688571Y-76007128D01*
X135675721Y-76049488D01*
X135595532Y-76199512D01*
X135487612Y-76331012D01*
X135356112Y-76438932D01*
X135206088Y-76519121D01*
X135178433Y-76527510D01*
X135043295Y-76568504D01*
X134930432Y-76579620D01*
X134874001Y-76585178D01*
X134874000Y-76585178D01*
X134704706Y-76568504D01*
X134569568Y-76527510D01*
X134541913Y-76519121D01*
X134391889Y-76438932D01*
X134301946Y-76365117D01*
X134260388Y-76331012D01*
X134152469Y-76199512D01*
X134130127Y-76157713D01*
X134072279Y-76049488D01*
X134059429Y-76007127D01*
X134022896Y-75886695D01*
X134014565Y-75802112D01*
X134010400Y-75759821D01*
X134010400Y-75370180D01*
X134022896Y-75243308D01*
X134022896Y-75243306D01*
X134072278Y-75080517D01*
X134072279Y-75080513D01*
X134152468Y-74930488D01*
X134260388Y-74798988D01*
X134391888Y-74691068D01*
X134541912Y-74610879D01*
X134584273Y-74598029D01*
X134704705Y-74561496D01*
X134817568Y-74550380D01*
X134873999Y-74544822D01*
X134874000Y-74544822D01*
X135043294Y-74561496D01*
X135043294Y-74561496D01*
G37*
G36*
X137583294Y-74561496D02*
X137703726Y-74598029D01*
X137746087Y-74610879D01*
X137896112Y-74691068D01*
X138027612Y-74798988D01*
X138135532Y-74930488D01*
X138215721Y-75080512D01*
X138228571Y-75122873D01*
X138265104Y-75243305D01*
X138265104Y-75243307D01*
X138277600Y-75370179D01*
X138277600Y-75759820D01*
X138277076Y-75765136D01*
X138265104Y-75886694D01*
X138228571Y-76007128D01*
X138215721Y-76049488D01*
X138135532Y-76199512D01*
X138027612Y-76331012D01*
X137896112Y-76438932D01*
X137746088Y-76519121D01*
X137718433Y-76527510D01*
X137583295Y-76568504D01*
X137470432Y-76579620D01*
X137414001Y-76585178D01*
X137414000Y-76585178D01*
X137244706Y-76568504D01*
X137109568Y-76527510D01*
X137081913Y-76519121D01*
X136931889Y-76438932D01*
X136841946Y-76365117D01*
X136800388Y-76331012D01*
X136692469Y-76199512D01*
X136670127Y-76157713D01*
X136612279Y-76049488D01*
X136599429Y-76007127D01*
X136562896Y-75886695D01*
X136554565Y-75802112D01*
X136550400Y-75759821D01*
X136550400Y-75370180D01*
X136562896Y-75243308D01*
X136562896Y-75243306D01*
X136612278Y-75080517D01*
X136612279Y-75080513D01*
X136692468Y-74930488D01*
X136800388Y-74798988D01*
X136931888Y-74691068D01*
X137081912Y-74610879D01*
X137124273Y-74598029D01*
X137244705Y-74561496D01*
X137357568Y-74550380D01*
X137413999Y-74544822D01*
X137414000Y-74544822D01*
X137583294Y-74561496D01*
X137583294Y-74561496D01*
G37*
G36*
X122103000Y-74981000D02*
X120553000Y-74981000D01*
X120553000Y-73681000D01*
X122103000Y-73681000D01*
X122103000Y-74981000D01*
X122103000Y-74981000D01*
G37*
G36*
X114143000Y-74981000D02*
X112593000Y-74981000D01*
X112593000Y-73681000D01*
X114143000Y-73681000D01*
X114143000Y-74981000D01*
X114143000Y-74981000D01*
G37*
M02*
