M48
;DRILL file {KiCad 5.0.2-bee76a0~70~ubuntu18.04.1} date 2018年12月20日 星期四 19时46分57秒
;FORMAT={-:-/ absolute / inch / decimal}
FMAT,2
INCH,TZ
T1C0.0157
T2C0.0315
T3C0.0362
T4C0.0394
T5C0.0400
T6C0.0917
T7C0.1200
%
G90
G05
T1
X4.8228Y-3.2529
X4.9618Y-3.3913
X5.0164Y-3.6486
X5.0809Y-3.5261
X5.1189Y-4.284
X5.1323Y-4.1695
X5.1786Y-3.8245
X5.2262Y-3.9106
X5.26Y-3.7999
X5.2673Y-3.7615
X5.2695Y-4.0344
X5.3107Y-3.7406
X5.3283Y-4.1442
X5.3364Y-3.6557
X5.3452Y-4.0835
X5.3471Y-3.7402
X5.3621Y-3.5097
X5.3721Y-3.5413
X5.3724Y-4.0534
X5.381Y-3.424
X5.3877Y-3.9606
X5.3885Y-3.3399
X5.3905Y-3.592
X5.4038Y-4.1252
X5.4074Y-3.2748
X5.4233Y-3.9544
X6.17Y-4.365
X6.4096Y-3.7426
X6.8304Y-3.6408
T2
X5.57Y-4.155
X5.57Y-4.455
X5.67Y-4.155
X5.67Y-4.455
X5.77Y-4.155
X5.77Y-4.455
X5.87Y-4.155
X5.87Y-4.455
X5.97Y-4.155
X5.97Y-4.455
X6.07Y-4.155
X6.07Y-4.455
X6.17Y-4.155
X6.17Y-4.455
X6.27Y-4.155
X6.27Y-4.455
X6.37Y-4.155
X6.37Y-4.455
X6.47Y-4.155
X6.47Y-4.455
X6.57Y-4.155
X6.57Y-4.455
X6.67Y-4.155
X6.67Y-4.455
X6.77Y-4.155
X6.77Y-4.455
X6.87Y-4.155
X6.87Y-4.455
T3
X4.5767Y-3.4305
X4.5767Y-3.5289
X4.6554Y-3.4305
X4.6554Y-3.5289
T4
X5.11Y-3.325
X5.11Y-3.425
X5.21Y-3.325
X5.21Y-3.425
X5.01Y-3.125
X5.01Y-3.225
X5.11Y-3.125
X5.11Y-3.225
X5.21Y-3.125
X5.21Y-3.225
X6.87Y-3.775
X6.87Y-3.875
X6.87Y-3.975
X6.97Y-3.775
X6.97Y-3.875
X6.97Y-3.975
T5
X6.37Y-4.875
X6.47Y-4.875
X6.57Y-4.875
X6.67Y-4.875
X6.77Y-4.875
X6.87Y-4.875
X5.11Y-2.975
X5.21Y-2.975
X5.31Y-2.975
X5.41Y-2.975
X5.51Y-2.975
X5.61Y-2.975
X5.71Y-2.975
X5.81Y-2.975
X5.91Y-2.975
X6.01Y-2.975
X6.17Y-2.975
X6.27Y-2.975
X6.37Y-2.975
X6.47Y-2.975
X6.57Y-2.975
X6.67Y-2.975
X6.77Y-2.975
X6.87Y-2.975
X5.47Y-4.875
X5.57Y-4.875
X5.67Y-4.875
X5.77Y-4.875
X5.87Y-4.875
X5.97Y-4.875
X6.07Y-4.875
X6.17Y-4.875
T6
X4.47Y-3.2427
X4.47Y-3.7167
T7
X4.92Y-4.875
X4.97Y-2.975
X6.97Y-3.575
X6.97Y-4.7215
T4
X4.57Y-4.6356G85X4.57Y-4.7144
G05
X4.6487Y-4.86G85X4.7275Y-4.86
G05
X4.8062Y-4.6356G85X4.8062Y-4.7144
G05
T0
M30
