G04 #@! TF.GenerationSoftware,KiCad,Pcbnew,5.0.2-bee76a0~70~ubuntu18.04.1*
G04 #@! TF.CreationDate,2018-12-20T19:54:29+08:00*
G04 #@! TF.ProjectId,arduino-uno,61726475-696e-46f2-9d75-6e6f2e6b6963,rev?*
G04 #@! TF.SameCoordinates,Original*
G04 #@! TF.FileFunction,Soldermask,Bot*
G04 #@! TF.FilePolarity,Negative*
%FSLAX46Y46*%
G04 Gerber Fmt 4.6, Leading zero omitted, Abs format (unit mm)*
G04 Created by KiCad (PCBNEW 5.0.2-bee76a0~70~ubuntu18.04.1) date 2018年12月20日 星期四 19时54分29秒*
%MOMM*%
%LPD*%
G01*
G04 APERTURE LIST*
%ADD10C,0.010000*%
%ADD11C,0.100000*%
G04 APERTURE END LIST*
D10*
G04 #@! TO.C,REF5*
G36*
X125179253Y-107022900D02*
X124633941Y-107022900D01*
X124832721Y-107224287D01*
X125162429Y-107587191D01*
X125376849Y-107861315D01*
X125455297Y-107964900D01*
X125549856Y-108085029D01*
X125649950Y-108208702D01*
X125745002Y-108322919D01*
X125824434Y-108414681D01*
X125849532Y-108442260D01*
X125930964Y-108529712D01*
X125861006Y-108620856D01*
X125725564Y-108810104D01*
X125638022Y-108949550D01*
X125583152Y-109031786D01*
X125521876Y-109111112D01*
X125516727Y-109117107D01*
X125447778Y-109200081D01*
X125367253Y-109302637D01*
X125284058Y-109412788D01*
X125207098Y-109518547D01*
X125145281Y-109607925D01*
X125109624Y-109665047D01*
X125074543Y-109718096D01*
X125016014Y-109796562D01*
X124944180Y-109887752D01*
X124869185Y-109978972D01*
X124801172Y-110057532D01*
X124764800Y-110096520D01*
X124740911Y-110122581D01*
X124698637Y-110169906D01*
X124690523Y-110179070D01*
X124628945Y-110248700D01*
X125755400Y-110248700D01*
X125755400Y-110170423D01*
X125772163Y-110093895D01*
X125819393Y-109988649D01*
X125892507Y-109862739D01*
X125986919Y-109724216D01*
X126074458Y-109610033D01*
X126145732Y-109517813D01*
X126211053Y-109426769D01*
X126258223Y-109354035D01*
X126264329Y-109343333D01*
X126304371Y-109276934D01*
X126339658Y-109228784D01*
X126348301Y-109220000D01*
X126382862Y-109181316D01*
X126423085Y-109124750D01*
X126460774Y-109076593D01*
X126491285Y-109054987D01*
X126492586Y-109054900D01*
X126501462Y-109079591D01*
X126508582Y-109150881D01*
X126513736Y-109264592D01*
X126516717Y-109416544D01*
X126517400Y-109551461D01*
X126516716Y-109730763D01*
X126514305Y-109866770D01*
X126509625Y-109966975D01*
X126502137Y-110038869D01*
X126491302Y-110089943D01*
X126476579Y-110127688D01*
X126475756Y-110129311D01*
X126440283Y-110188991D01*
X126408777Y-110227118D01*
X126405906Y-110229261D01*
X126421403Y-110234823D01*
X126480753Y-110239762D01*
X126577014Y-110243812D01*
X126703241Y-110246707D01*
X126852489Y-110248182D01*
X126904206Y-110248311D01*
X127430711Y-110248700D01*
X127401032Y-110178850D01*
X127372859Y-110120258D01*
X127350776Y-110084870D01*
X127346943Y-110055642D01*
X127343343Y-109980281D01*
X127340041Y-109863451D01*
X127337104Y-109709817D01*
X127334601Y-109524046D01*
X127332596Y-109310802D01*
X127331158Y-109074751D01*
X127330353Y-108820559D01*
X127330201Y-108648790D01*
X127330259Y-108344811D01*
X127330530Y-108087412D01*
X127331154Y-107872374D01*
X127332274Y-107695478D01*
X127334031Y-107552504D01*
X127336567Y-107439233D01*
X127340024Y-107351445D01*
X127344543Y-107284921D01*
X127350267Y-107235441D01*
X127357338Y-107198786D01*
X127365896Y-107170737D01*
X127376084Y-107147074D01*
X127381001Y-107137199D01*
X127411756Y-107075369D01*
X127429810Y-107036160D01*
X127431801Y-107030229D01*
X127407665Y-107028007D01*
X127340312Y-107026056D01*
X127237328Y-107024484D01*
X127106294Y-107023401D01*
X126954795Y-107022915D01*
X126921083Y-107022900D01*
X126747940Y-107023164D01*
X126619371Y-107024331D01*
X126529154Y-107026964D01*
X126471063Y-107031623D01*
X126438876Y-107038872D01*
X126426368Y-107049272D01*
X126427314Y-107063385D01*
X126428836Y-107067350D01*
X126462195Y-107156173D01*
X126486261Y-107244681D01*
X126502420Y-107343641D01*
X126512058Y-107463821D01*
X126516560Y-107615988D01*
X126517400Y-107755588D01*
X126517401Y-108175404D01*
X126441201Y-108102400D01*
X126393587Y-108052057D01*
X126367006Y-108014778D01*
X126365000Y-108007983D01*
X126349863Y-107982050D01*
X126310372Y-107928628D01*
X126255412Y-107858645D01*
X126193868Y-107783029D01*
X126134623Y-107712709D01*
X126086561Y-107658614D01*
X126059761Y-107632500D01*
X126037439Y-107605234D01*
X125999064Y-107549130D01*
X125971198Y-107505500D01*
X125912995Y-107417798D01*
X125850049Y-107331198D01*
X125827701Y-107302862D01*
X125782987Y-107236236D01*
X125757592Y-107175143D01*
X125755400Y-107158890D01*
X125754878Y-107115177D01*
X125749209Y-107082002D01*
X125732238Y-107057912D01*
X125697811Y-107041455D01*
X125639774Y-107031177D01*
X125551972Y-107025627D01*
X125428250Y-107023351D01*
X125262455Y-107022896D01*
X125179253Y-107022900D01*
X125179253Y-107022900D01*
G37*
X125179253Y-107022900D02*
X124633941Y-107022900D01*
X124832721Y-107224287D01*
X125162429Y-107587191D01*
X125376849Y-107861315D01*
X125455297Y-107964900D01*
X125549856Y-108085029D01*
X125649950Y-108208702D01*
X125745002Y-108322919D01*
X125824434Y-108414681D01*
X125849532Y-108442260D01*
X125930964Y-108529712D01*
X125861006Y-108620856D01*
X125725564Y-108810104D01*
X125638022Y-108949550D01*
X125583152Y-109031786D01*
X125521876Y-109111112D01*
X125516727Y-109117107D01*
X125447778Y-109200081D01*
X125367253Y-109302637D01*
X125284058Y-109412788D01*
X125207098Y-109518547D01*
X125145281Y-109607925D01*
X125109624Y-109665047D01*
X125074543Y-109718096D01*
X125016014Y-109796562D01*
X124944180Y-109887752D01*
X124869185Y-109978972D01*
X124801172Y-110057532D01*
X124764800Y-110096520D01*
X124740911Y-110122581D01*
X124698637Y-110169906D01*
X124690523Y-110179070D01*
X124628945Y-110248700D01*
X125755400Y-110248700D01*
X125755400Y-110170423D01*
X125772163Y-110093895D01*
X125819393Y-109988649D01*
X125892507Y-109862739D01*
X125986919Y-109724216D01*
X126074458Y-109610033D01*
X126145732Y-109517813D01*
X126211053Y-109426769D01*
X126258223Y-109354035D01*
X126264329Y-109343333D01*
X126304371Y-109276934D01*
X126339658Y-109228784D01*
X126348301Y-109220000D01*
X126382862Y-109181316D01*
X126423085Y-109124750D01*
X126460774Y-109076593D01*
X126491285Y-109054987D01*
X126492586Y-109054900D01*
X126501462Y-109079591D01*
X126508582Y-109150881D01*
X126513736Y-109264592D01*
X126516717Y-109416544D01*
X126517400Y-109551461D01*
X126516716Y-109730763D01*
X126514305Y-109866770D01*
X126509625Y-109966975D01*
X126502137Y-110038869D01*
X126491302Y-110089943D01*
X126476579Y-110127688D01*
X126475756Y-110129311D01*
X126440283Y-110188991D01*
X126408777Y-110227118D01*
X126405906Y-110229261D01*
X126421403Y-110234823D01*
X126480753Y-110239762D01*
X126577014Y-110243812D01*
X126703241Y-110246707D01*
X126852489Y-110248182D01*
X126904206Y-110248311D01*
X127430711Y-110248700D01*
X127401032Y-110178850D01*
X127372859Y-110120258D01*
X127350776Y-110084870D01*
X127346943Y-110055642D01*
X127343343Y-109980281D01*
X127340041Y-109863451D01*
X127337104Y-109709817D01*
X127334601Y-109524046D01*
X127332596Y-109310802D01*
X127331158Y-109074751D01*
X127330353Y-108820559D01*
X127330201Y-108648790D01*
X127330259Y-108344811D01*
X127330530Y-108087412D01*
X127331154Y-107872374D01*
X127332274Y-107695478D01*
X127334031Y-107552504D01*
X127336567Y-107439233D01*
X127340024Y-107351445D01*
X127344543Y-107284921D01*
X127350267Y-107235441D01*
X127357338Y-107198786D01*
X127365896Y-107170737D01*
X127376084Y-107147074D01*
X127381001Y-107137199D01*
X127411756Y-107075369D01*
X127429810Y-107036160D01*
X127431801Y-107030229D01*
X127407665Y-107028007D01*
X127340312Y-107026056D01*
X127237328Y-107024484D01*
X127106294Y-107023401D01*
X126954795Y-107022915D01*
X126921083Y-107022900D01*
X126747940Y-107023164D01*
X126619371Y-107024331D01*
X126529154Y-107026964D01*
X126471063Y-107031623D01*
X126438876Y-107038872D01*
X126426368Y-107049272D01*
X126427314Y-107063385D01*
X126428836Y-107067350D01*
X126462195Y-107156173D01*
X126486261Y-107244681D01*
X126502420Y-107343641D01*
X126512058Y-107463821D01*
X126516560Y-107615988D01*
X126517400Y-107755588D01*
X126517401Y-108175404D01*
X126441201Y-108102400D01*
X126393587Y-108052057D01*
X126367006Y-108014778D01*
X126365000Y-108007983D01*
X126349863Y-107982050D01*
X126310372Y-107928628D01*
X126255412Y-107858645D01*
X126193868Y-107783029D01*
X126134623Y-107712709D01*
X126086561Y-107658614D01*
X126059761Y-107632500D01*
X126037439Y-107605234D01*
X125999064Y-107549130D01*
X125971198Y-107505500D01*
X125912995Y-107417798D01*
X125850049Y-107331198D01*
X125827701Y-107302862D01*
X125782987Y-107236236D01*
X125757592Y-107175143D01*
X125755400Y-107158890D01*
X125754878Y-107115177D01*
X125749209Y-107082002D01*
X125732238Y-107057912D01*
X125697811Y-107041455D01*
X125639774Y-107031177D01*
X125551972Y-107025627D01*
X125428250Y-107023351D01*
X125262455Y-107022896D01*
X125179253Y-107022900D01*
G36*
X123596400Y-108986545D02*
X123596179Y-109258028D01*
X123595417Y-109483118D01*
X123593974Y-109666221D01*
X123591706Y-109811740D01*
X123588469Y-109924083D01*
X123584122Y-110007655D01*
X123578520Y-110066859D01*
X123571522Y-110106103D01*
X123562984Y-110129792D01*
X123559108Y-110135895D01*
X123532822Y-110173443D01*
X123522109Y-110201585D01*
X123532290Y-110221674D01*
X123568688Y-110235063D01*
X123636624Y-110243105D01*
X123741422Y-110247153D01*
X123888402Y-110248560D01*
X124002800Y-110248700D01*
X124153082Y-110248015D01*
X124284273Y-110246108D01*
X124388573Y-110243202D01*
X124458181Y-110239517D01*
X124485295Y-110235276D01*
X124485400Y-110234988D01*
X124474845Y-110205954D01*
X124448274Y-110149009D01*
X124434600Y-110121700D01*
X124421734Y-110094260D01*
X124411241Y-110063894D01*
X124402880Y-110025420D01*
X124396409Y-109973655D01*
X124391589Y-109903418D01*
X124388178Y-109809527D01*
X124385935Y-109686801D01*
X124384619Y-109530059D01*
X124383990Y-109334117D01*
X124383805Y-109093796D01*
X124383800Y-109029250D01*
X124384053Y-108771769D01*
X124384929Y-108560249D01*
X124386604Y-108389851D01*
X124389252Y-108255738D01*
X124393050Y-108153071D01*
X124398173Y-108077013D01*
X124404797Y-108022726D01*
X124413097Y-107985372D01*
X124422553Y-107961438D01*
X124461305Y-107886500D01*
X123596400Y-107886500D01*
X123596400Y-108986545D01*
X123596400Y-108986545D01*
G37*
X123596400Y-108986545D02*
X123596179Y-109258028D01*
X123595417Y-109483118D01*
X123593974Y-109666221D01*
X123591706Y-109811740D01*
X123588469Y-109924083D01*
X123584122Y-110007655D01*
X123578520Y-110066859D01*
X123571522Y-110106103D01*
X123562984Y-110129792D01*
X123559108Y-110135895D01*
X123532822Y-110173443D01*
X123522109Y-110201585D01*
X123532290Y-110221674D01*
X123568688Y-110235063D01*
X123636624Y-110243105D01*
X123741422Y-110247153D01*
X123888402Y-110248560D01*
X124002800Y-110248700D01*
X124153082Y-110248015D01*
X124284273Y-110246108D01*
X124388573Y-110243202D01*
X124458181Y-110239517D01*
X124485295Y-110235276D01*
X124485400Y-110234988D01*
X124474845Y-110205954D01*
X124448274Y-110149009D01*
X124434600Y-110121700D01*
X124421734Y-110094260D01*
X124411241Y-110063894D01*
X124402880Y-110025420D01*
X124396409Y-109973655D01*
X124391589Y-109903418D01*
X124388178Y-109809527D01*
X124385935Y-109686801D01*
X124384619Y-109530059D01*
X124383990Y-109334117D01*
X124383805Y-109093796D01*
X124383800Y-109029250D01*
X124384053Y-108771769D01*
X124384929Y-108560249D01*
X124386604Y-108389851D01*
X124389252Y-108255738D01*
X124393050Y-108153071D01*
X124398173Y-108077013D01*
X124404797Y-108022726D01*
X124413097Y-107985372D01*
X124422553Y-107961438D01*
X124461305Y-107886500D01*
X123596400Y-107886500D01*
X123596400Y-108986545D01*
G36*
X123837059Y-106120460D02*
X123719455Y-106186895D01*
X123625977Y-106289545D01*
X123582188Y-106375624D01*
X123551578Y-106514114D01*
X123560679Y-106652091D01*
X123608027Y-106773584D01*
X123620412Y-106792350D01*
X123710851Y-106879908D01*
X123829729Y-106940053D01*
X123962667Y-106969918D01*
X124095287Y-106966634D01*
X124213210Y-106927332D01*
X124233994Y-106914744D01*
X124316263Y-106835894D01*
X124384086Y-106727270D01*
X124426253Y-106609795D01*
X124434600Y-106540299D01*
X124415326Y-106431075D01*
X124364810Y-106316610D01*
X124294018Y-106217658D01*
X124238358Y-106168795D01*
X124106139Y-106108376D01*
X123969163Y-106093276D01*
X123837059Y-106120460D01*
X123837059Y-106120460D01*
G37*
X123837059Y-106120460D02*
X123719455Y-106186895D01*
X123625977Y-106289545D01*
X123582188Y-106375624D01*
X123551578Y-106514114D01*
X123560679Y-106652091D01*
X123608027Y-106773584D01*
X123620412Y-106792350D01*
X123710851Y-106879908D01*
X123829729Y-106940053D01*
X123962667Y-106969918D01*
X124095287Y-106966634D01*
X124213210Y-106927332D01*
X124233994Y-106914744D01*
X124316263Y-106835894D01*
X124384086Y-106727270D01*
X124426253Y-106609795D01*
X124434600Y-106540299D01*
X124415326Y-106431075D01*
X124364810Y-106316610D01*
X124294018Y-106217658D01*
X124238358Y-106168795D01*
X124106139Y-106108376D01*
X123969163Y-106093276D01*
X123837059Y-106120460D01*
D11*
G36*
X125560712Y-121871088D02*
X125930510Y-122024263D01*
X125930513Y-122024265D01*
X126263325Y-122246643D01*
X126546357Y-122529675D01*
X126730204Y-122804822D01*
X126768737Y-122862490D01*
X126921912Y-123232288D01*
X127000000Y-123624864D01*
X127000000Y-124025136D01*
X126921912Y-124417712D01*
X126768737Y-124787510D01*
X126768735Y-124787513D01*
X126546357Y-125120325D01*
X126263325Y-125403357D01*
X125930513Y-125625735D01*
X125930510Y-125625737D01*
X125560712Y-125778912D01*
X125168136Y-125857000D01*
X124767864Y-125857000D01*
X124375288Y-125778912D01*
X124005490Y-125625737D01*
X124005487Y-125625735D01*
X123672675Y-125403357D01*
X123389643Y-125120325D01*
X123167265Y-124787513D01*
X123167263Y-124787510D01*
X123014088Y-124417712D01*
X122936000Y-124025136D01*
X122936000Y-123624864D01*
X123014088Y-123232288D01*
X123167263Y-122862490D01*
X123205796Y-122804822D01*
X123389643Y-122529675D01*
X123672675Y-122246643D01*
X124005487Y-122024265D01*
X124005490Y-122024263D01*
X124375288Y-121871088D01*
X124767864Y-121793000D01*
X125168136Y-121793000D01*
X125560712Y-121871088D01*
X125560712Y-121871088D01*
G37*
G36*
X120173891Y-121711205D02*
X120326200Y-121757407D01*
X120466567Y-121832435D01*
X120589597Y-121933403D01*
X120690565Y-122056433D01*
X120765593Y-122196800D01*
X120811795Y-122349109D01*
X120828000Y-122513640D01*
X120828000Y-124376360D01*
X120811795Y-124540891D01*
X120765593Y-124693200D01*
X120690565Y-124833567D01*
X120589597Y-124956597D01*
X120466567Y-125057565D01*
X120326200Y-125132593D01*
X120173891Y-125178795D01*
X120009360Y-125195000D01*
X118146640Y-125195000D01*
X117982109Y-125178795D01*
X117829800Y-125132593D01*
X117689433Y-125057565D01*
X117566403Y-124956597D01*
X117465435Y-124833567D01*
X117390407Y-124693200D01*
X117344205Y-124540891D01*
X117328000Y-124376360D01*
X117328000Y-122513640D01*
X117344205Y-122349109D01*
X117390407Y-122196800D01*
X117465435Y-122056433D01*
X117566403Y-121933403D01*
X117689433Y-121832435D01*
X117829800Y-121757407D01*
X117982109Y-121711205D01*
X118146640Y-121695000D01*
X120009360Y-121695000D01*
X120173891Y-121711205D01*
X120173891Y-121711205D01*
G37*
G36*
X144187294Y-122821496D02*
X144307726Y-122858029D01*
X144350087Y-122870879D01*
X144500112Y-122951068D01*
X144631612Y-123058988D01*
X144739532Y-123190488D01*
X144819721Y-123340512D01*
X144832571Y-123382873D01*
X144869104Y-123503305D01*
X144869104Y-123503307D01*
X144881600Y-123630179D01*
X144881600Y-124019820D01*
X144881076Y-124025136D01*
X144869104Y-124146694D01*
X144832571Y-124267128D01*
X144819721Y-124309488D01*
X144739532Y-124459512D01*
X144631612Y-124591012D01*
X144500112Y-124698932D01*
X144350088Y-124779121D01*
X144322433Y-124787510D01*
X144187295Y-124828504D01*
X144074432Y-124839620D01*
X144018001Y-124845178D01*
X144018000Y-124845178D01*
X143848706Y-124828504D01*
X143713568Y-124787510D01*
X143685913Y-124779121D01*
X143535889Y-124698932D01*
X143445946Y-124625117D01*
X143404388Y-124591012D01*
X143296469Y-124459512D01*
X143274127Y-124417713D01*
X143216279Y-124309488D01*
X143203429Y-124267127D01*
X143166896Y-124146695D01*
X143158565Y-124062112D01*
X143154400Y-124019821D01*
X143154400Y-123630180D01*
X143166896Y-123503308D01*
X143166896Y-123503306D01*
X143216278Y-123340517D01*
X143216279Y-123340513D01*
X143296468Y-123190488D01*
X143404388Y-123058988D01*
X143535888Y-122951068D01*
X143685912Y-122870879D01*
X143728273Y-122858029D01*
X143848705Y-122821496D01*
X143961568Y-122810380D01*
X144017999Y-122804822D01*
X144018000Y-122804822D01*
X144187294Y-122821496D01*
X144187294Y-122821496D01*
G37*
G36*
X139107294Y-122821496D02*
X139227726Y-122858029D01*
X139270087Y-122870879D01*
X139420112Y-122951068D01*
X139551612Y-123058988D01*
X139659532Y-123190488D01*
X139739721Y-123340512D01*
X139752571Y-123382873D01*
X139789104Y-123503305D01*
X139789104Y-123503307D01*
X139801600Y-123630179D01*
X139801600Y-124019820D01*
X139801076Y-124025136D01*
X139789104Y-124146694D01*
X139752571Y-124267128D01*
X139739721Y-124309488D01*
X139659532Y-124459512D01*
X139551612Y-124591012D01*
X139420112Y-124698932D01*
X139270088Y-124779121D01*
X139242433Y-124787510D01*
X139107295Y-124828504D01*
X138994432Y-124839620D01*
X138938001Y-124845178D01*
X138938000Y-124845178D01*
X138768706Y-124828504D01*
X138633568Y-124787510D01*
X138605913Y-124779121D01*
X138455889Y-124698932D01*
X138365946Y-124625117D01*
X138324388Y-124591012D01*
X138216469Y-124459512D01*
X138194127Y-124417713D01*
X138136279Y-124309488D01*
X138123429Y-124267127D01*
X138086896Y-124146695D01*
X138078565Y-124062112D01*
X138074400Y-124019821D01*
X138074400Y-123630180D01*
X138086896Y-123503308D01*
X138086896Y-123503306D01*
X138136278Y-123340517D01*
X138136279Y-123340513D01*
X138216468Y-123190488D01*
X138324388Y-123058988D01*
X138455888Y-122951068D01*
X138605912Y-122870879D01*
X138648273Y-122858029D01*
X138768705Y-122821496D01*
X138881568Y-122810380D01*
X138937999Y-122804822D01*
X138938000Y-122804822D01*
X139107294Y-122821496D01*
X139107294Y-122821496D01*
G37*
G36*
X141647294Y-122821496D02*
X141767726Y-122858029D01*
X141810087Y-122870879D01*
X141960112Y-122951068D01*
X142091612Y-123058988D01*
X142199532Y-123190488D01*
X142279721Y-123340512D01*
X142292571Y-123382873D01*
X142329104Y-123503305D01*
X142329104Y-123503307D01*
X142341600Y-123630179D01*
X142341600Y-124019820D01*
X142341076Y-124025136D01*
X142329104Y-124146694D01*
X142292571Y-124267128D01*
X142279721Y-124309488D01*
X142199532Y-124459512D01*
X142091612Y-124591012D01*
X141960112Y-124698932D01*
X141810088Y-124779121D01*
X141782433Y-124787510D01*
X141647295Y-124828504D01*
X141534432Y-124839620D01*
X141478001Y-124845178D01*
X141478000Y-124845178D01*
X141308706Y-124828504D01*
X141173568Y-124787510D01*
X141145913Y-124779121D01*
X140995889Y-124698932D01*
X140905946Y-124625117D01*
X140864388Y-124591012D01*
X140756469Y-124459512D01*
X140734127Y-124417713D01*
X140676279Y-124309488D01*
X140663429Y-124267127D01*
X140626896Y-124146695D01*
X140618565Y-124062112D01*
X140614400Y-124019821D01*
X140614400Y-123630180D01*
X140626896Y-123503308D01*
X140626896Y-123503306D01*
X140676278Y-123340517D01*
X140676279Y-123340513D01*
X140756468Y-123190488D01*
X140864388Y-123058988D01*
X140995888Y-122951068D01*
X141145912Y-122870879D01*
X141188273Y-122858029D01*
X141308705Y-122821496D01*
X141421568Y-122810380D01*
X141477999Y-122804822D01*
X141478000Y-122804822D01*
X141647294Y-122821496D01*
X141647294Y-122821496D01*
G37*
G36*
X146727294Y-122821496D02*
X146847726Y-122858029D01*
X146890087Y-122870879D01*
X147040112Y-122951068D01*
X147171612Y-123058988D01*
X147279532Y-123190488D01*
X147359721Y-123340512D01*
X147372571Y-123382873D01*
X147409104Y-123503305D01*
X147409104Y-123503307D01*
X147421600Y-123630179D01*
X147421600Y-124019820D01*
X147421076Y-124025136D01*
X147409104Y-124146694D01*
X147372571Y-124267128D01*
X147359721Y-124309488D01*
X147279532Y-124459512D01*
X147171612Y-124591012D01*
X147040112Y-124698932D01*
X146890088Y-124779121D01*
X146862433Y-124787510D01*
X146727295Y-124828504D01*
X146614432Y-124839620D01*
X146558001Y-124845178D01*
X146558000Y-124845178D01*
X146388706Y-124828504D01*
X146253568Y-124787510D01*
X146225913Y-124779121D01*
X146075889Y-124698932D01*
X145985946Y-124625117D01*
X145944388Y-124591012D01*
X145836469Y-124459512D01*
X145814127Y-124417713D01*
X145756279Y-124309488D01*
X145743429Y-124267127D01*
X145706896Y-124146695D01*
X145698565Y-124062112D01*
X145694400Y-124019821D01*
X145694400Y-123630180D01*
X145706896Y-123503308D01*
X145706896Y-123503306D01*
X145756278Y-123340517D01*
X145756279Y-123340513D01*
X145836468Y-123190488D01*
X145944388Y-123058988D01*
X146075888Y-122951068D01*
X146225912Y-122870879D01*
X146268273Y-122858029D01*
X146388705Y-122821496D01*
X146501568Y-122810380D01*
X146557999Y-122804822D01*
X146558000Y-122804822D01*
X146727294Y-122821496D01*
X146727294Y-122821496D01*
G37*
G36*
X149267294Y-122821496D02*
X149387726Y-122858029D01*
X149430087Y-122870879D01*
X149580112Y-122951068D01*
X149711612Y-123058988D01*
X149819532Y-123190488D01*
X149899721Y-123340512D01*
X149912571Y-123382873D01*
X149949104Y-123503305D01*
X149949104Y-123503307D01*
X149961600Y-123630179D01*
X149961600Y-124019820D01*
X149961076Y-124025136D01*
X149949104Y-124146694D01*
X149912571Y-124267128D01*
X149899721Y-124309488D01*
X149819532Y-124459512D01*
X149711612Y-124591012D01*
X149580112Y-124698932D01*
X149430088Y-124779121D01*
X149402433Y-124787510D01*
X149267295Y-124828504D01*
X149154432Y-124839620D01*
X149098001Y-124845178D01*
X149098000Y-124845178D01*
X148928706Y-124828504D01*
X148793568Y-124787510D01*
X148765913Y-124779121D01*
X148615889Y-124698932D01*
X148525946Y-124625117D01*
X148484388Y-124591012D01*
X148376469Y-124459512D01*
X148354127Y-124417713D01*
X148296279Y-124309488D01*
X148283429Y-124267127D01*
X148246896Y-124146695D01*
X148238565Y-124062112D01*
X148234400Y-124019821D01*
X148234400Y-123630180D01*
X148246896Y-123503308D01*
X148246896Y-123503306D01*
X148296278Y-123340517D01*
X148296279Y-123340513D01*
X148376468Y-123190488D01*
X148484388Y-123058988D01*
X148615888Y-122951068D01*
X148765912Y-122870879D01*
X148808273Y-122858029D01*
X148928705Y-122821496D01*
X149041568Y-122810380D01*
X149097999Y-122804822D01*
X149098000Y-122804822D01*
X149267294Y-122821496D01*
X149267294Y-122821496D01*
G37*
G36*
X151807294Y-122821496D02*
X151927726Y-122858029D01*
X151970087Y-122870879D01*
X152120112Y-122951068D01*
X152251612Y-123058988D01*
X152359532Y-123190488D01*
X152439721Y-123340512D01*
X152452571Y-123382873D01*
X152489104Y-123503305D01*
X152489104Y-123503307D01*
X152501600Y-123630179D01*
X152501600Y-124019820D01*
X152501076Y-124025136D01*
X152489104Y-124146694D01*
X152452571Y-124267128D01*
X152439721Y-124309488D01*
X152359532Y-124459512D01*
X152251612Y-124591012D01*
X152120112Y-124698932D01*
X151970088Y-124779121D01*
X151942433Y-124787510D01*
X151807295Y-124828504D01*
X151694432Y-124839620D01*
X151638001Y-124845178D01*
X151638000Y-124845178D01*
X151468706Y-124828504D01*
X151333568Y-124787510D01*
X151305913Y-124779121D01*
X151155889Y-124698932D01*
X151065946Y-124625117D01*
X151024388Y-124591012D01*
X150916469Y-124459512D01*
X150894127Y-124417713D01*
X150836279Y-124309488D01*
X150823429Y-124267127D01*
X150786896Y-124146695D01*
X150778565Y-124062112D01*
X150774400Y-124019821D01*
X150774400Y-123630180D01*
X150786896Y-123503308D01*
X150786896Y-123503306D01*
X150836278Y-123340517D01*
X150836279Y-123340513D01*
X150916468Y-123190488D01*
X151024388Y-123058988D01*
X151155888Y-122951068D01*
X151305912Y-122870879D01*
X151348273Y-122858029D01*
X151468705Y-122821496D01*
X151581568Y-122810380D01*
X151637999Y-122804822D01*
X151638000Y-122804822D01*
X151807294Y-122821496D01*
X151807294Y-122821496D01*
G37*
G36*
X154347294Y-122821496D02*
X154467726Y-122858029D01*
X154510087Y-122870879D01*
X154660112Y-122951068D01*
X154791612Y-123058988D01*
X154899532Y-123190488D01*
X154979721Y-123340512D01*
X154992571Y-123382873D01*
X155029104Y-123503305D01*
X155029104Y-123503307D01*
X155041600Y-123630179D01*
X155041600Y-124019820D01*
X155041076Y-124025136D01*
X155029104Y-124146694D01*
X154992571Y-124267128D01*
X154979721Y-124309488D01*
X154899532Y-124459512D01*
X154791612Y-124591012D01*
X154660112Y-124698932D01*
X154510088Y-124779121D01*
X154482433Y-124787510D01*
X154347295Y-124828504D01*
X154234432Y-124839620D01*
X154178001Y-124845178D01*
X154178000Y-124845178D01*
X154008706Y-124828504D01*
X153873568Y-124787510D01*
X153845913Y-124779121D01*
X153695889Y-124698932D01*
X153605946Y-124625117D01*
X153564388Y-124591012D01*
X153456469Y-124459512D01*
X153434127Y-124417713D01*
X153376279Y-124309488D01*
X153363429Y-124267127D01*
X153326896Y-124146695D01*
X153318565Y-124062112D01*
X153314400Y-124019821D01*
X153314400Y-123630180D01*
X153326896Y-123503308D01*
X153326896Y-123503306D01*
X153376278Y-123340517D01*
X153376279Y-123340513D01*
X153456468Y-123190488D01*
X153564388Y-123058988D01*
X153695888Y-122951068D01*
X153845912Y-122870879D01*
X153888273Y-122858029D01*
X154008705Y-122821496D01*
X154121568Y-122810380D01*
X154177999Y-122804822D01*
X154178000Y-122804822D01*
X154347294Y-122821496D01*
X154347294Y-122821496D01*
G37*
G36*
X161967294Y-122821496D02*
X162087726Y-122858029D01*
X162130087Y-122870879D01*
X162280112Y-122951068D01*
X162411612Y-123058988D01*
X162519532Y-123190488D01*
X162599721Y-123340512D01*
X162612571Y-123382873D01*
X162649104Y-123503305D01*
X162649104Y-123503307D01*
X162661600Y-123630179D01*
X162661600Y-124019820D01*
X162661076Y-124025136D01*
X162649104Y-124146694D01*
X162612571Y-124267128D01*
X162599721Y-124309488D01*
X162519532Y-124459512D01*
X162411612Y-124591012D01*
X162280112Y-124698932D01*
X162130088Y-124779121D01*
X162102433Y-124787510D01*
X161967295Y-124828504D01*
X161854432Y-124839620D01*
X161798001Y-124845178D01*
X161798000Y-124845178D01*
X161628706Y-124828504D01*
X161493568Y-124787510D01*
X161465913Y-124779121D01*
X161315889Y-124698932D01*
X161225946Y-124625117D01*
X161184388Y-124591012D01*
X161076469Y-124459512D01*
X161054127Y-124417713D01*
X160996279Y-124309488D01*
X160983429Y-124267127D01*
X160946896Y-124146695D01*
X160938565Y-124062112D01*
X160934400Y-124019821D01*
X160934400Y-123630180D01*
X160946896Y-123503308D01*
X160946896Y-123503306D01*
X160996278Y-123340517D01*
X160996279Y-123340513D01*
X161076468Y-123190488D01*
X161184388Y-123058988D01*
X161315888Y-122951068D01*
X161465912Y-122870879D01*
X161508273Y-122858029D01*
X161628705Y-122821496D01*
X161741568Y-122810380D01*
X161797999Y-122804822D01*
X161798000Y-122804822D01*
X161967294Y-122821496D01*
X161967294Y-122821496D01*
G37*
G36*
X164507294Y-122821496D02*
X164627726Y-122858029D01*
X164670087Y-122870879D01*
X164820112Y-122951068D01*
X164951612Y-123058988D01*
X165059532Y-123190488D01*
X165139721Y-123340512D01*
X165152571Y-123382873D01*
X165189104Y-123503305D01*
X165189104Y-123503307D01*
X165201600Y-123630179D01*
X165201600Y-124019820D01*
X165201076Y-124025136D01*
X165189104Y-124146694D01*
X165152571Y-124267128D01*
X165139721Y-124309488D01*
X165059532Y-124459512D01*
X164951612Y-124591012D01*
X164820112Y-124698932D01*
X164670088Y-124779121D01*
X164642433Y-124787510D01*
X164507295Y-124828504D01*
X164394432Y-124839620D01*
X164338001Y-124845178D01*
X164338000Y-124845178D01*
X164168706Y-124828504D01*
X164033568Y-124787510D01*
X164005913Y-124779121D01*
X163855889Y-124698932D01*
X163765946Y-124625117D01*
X163724388Y-124591012D01*
X163616469Y-124459512D01*
X163594127Y-124417713D01*
X163536279Y-124309488D01*
X163523429Y-124267127D01*
X163486896Y-124146695D01*
X163478565Y-124062112D01*
X163474400Y-124019821D01*
X163474400Y-123630180D01*
X163486896Y-123503308D01*
X163486896Y-123503306D01*
X163536278Y-123340517D01*
X163536279Y-123340513D01*
X163616468Y-123190488D01*
X163724388Y-123058988D01*
X163855888Y-122951068D01*
X164005912Y-122870879D01*
X164048273Y-122858029D01*
X164168705Y-122821496D01*
X164281568Y-122810380D01*
X164337999Y-122804822D01*
X164338000Y-122804822D01*
X164507294Y-122821496D01*
X164507294Y-122821496D01*
G37*
G36*
X167047294Y-122821496D02*
X167167726Y-122858029D01*
X167210087Y-122870879D01*
X167360112Y-122951068D01*
X167491612Y-123058988D01*
X167599532Y-123190488D01*
X167679721Y-123340512D01*
X167692571Y-123382873D01*
X167729104Y-123503305D01*
X167729104Y-123503307D01*
X167741600Y-123630179D01*
X167741600Y-124019820D01*
X167741076Y-124025136D01*
X167729104Y-124146694D01*
X167692571Y-124267128D01*
X167679721Y-124309488D01*
X167599532Y-124459512D01*
X167491612Y-124591012D01*
X167360112Y-124698932D01*
X167210088Y-124779121D01*
X167182433Y-124787510D01*
X167047295Y-124828504D01*
X166934432Y-124839620D01*
X166878001Y-124845178D01*
X166878000Y-124845178D01*
X166708706Y-124828504D01*
X166573568Y-124787510D01*
X166545913Y-124779121D01*
X166395889Y-124698932D01*
X166305946Y-124625117D01*
X166264388Y-124591012D01*
X166156469Y-124459512D01*
X166134127Y-124417713D01*
X166076279Y-124309488D01*
X166063429Y-124267127D01*
X166026896Y-124146695D01*
X166018565Y-124062112D01*
X166014400Y-124019821D01*
X166014400Y-123630180D01*
X166026896Y-123503308D01*
X166026896Y-123503306D01*
X166076278Y-123340517D01*
X166076279Y-123340513D01*
X166156468Y-123190488D01*
X166264388Y-123058988D01*
X166395888Y-122951068D01*
X166545912Y-122870879D01*
X166588273Y-122858029D01*
X166708705Y-122821496D01*
X166821568Y-122810380D01*
X166877999Y-122804822D01*
X166878000Y-122804822D01*
X167047294Y-122821496D01*
X167047294Y-122821496D01*
G37*
G36*
X174667294Y-122821496D02*
X174787726Y-122858029D01*
X174830087Y-122870879D01*
X174980112Y-122951068D01*
X175111612Y-123058988D01*
X175219532Y-123190488D01*
X175299721Y-123340512D01*
X175312571Y-123382873D01*
X175349104Y-123503305D01*
X175349104Y-123503307D01*
X175361600Y-123630179D01*
X175361600Y-124019820D01*
X175361076Y-124025136D01*
X175349104Y-124146694D01*
X175312571Y-124267128D01*
X175299721Y-124309488D01*
X175219532Y-124459512D01*
X175111612Y-124591012D01*
X174980112Y-124698932D01*
X174830088Y-124779121D01*
X174802433Y-124787510D01*
X174667295Y-124828504D01*
X174554432Y-124839620D01*
X174498001Y-124845178D01*
X174498000Y-124845178D01*
X174328706Y-124828504D01*
X174193568Y-124787510D01*
X174165913Y-124779121D01*
X174015889Y-124698932D01*
X173925946Y-124625117D01*
X173884388Y-124591012D01*
X173776469Y-124459512D01*
X173754127Y-124417713D01*
X173696279Y-124309488D01*
X173683429Y-124267127D01*
X173646896Y-124146695D01*
X173638565Y-124062112D01*
X173634400Y-124019821D01*
X173634400Y-123630180D01*
X173646896Y-123503308D01*
X173646896Y-123503306D01*
X173696278Y-123340517D01*
X173696279Y-123340513D01*
X173776468Y-123190488D01*
X173884388Y-123058988D01*
X174015888Y-122951068D01*
X174165912Y-122870879D01*
X174208273Y-122858029D01*
X174328705Y-122821496D01*
X174441568Y-122810380D01*
X174497999Y-122804822D01*
X174498000Y-122804822D01*
X174667294Y-122821496D01*
X174667294Y-122821496D01*
G37*
G36*
X169587294Y-122821496D02*
X169707726Y-122858029D01*
X169750087Y-122870879D01*
X169900112Y-122951068D01*
X170031612Y-123058988D01*
X170139532Y-123190488D01*
X170219721Y-123340512D01*
X170232571Y-123382873D01*
X170269104Y-123503305D01*
X170269104Y-123503307D01*
X170281600Y-123630179D01*
X170281600Y-124019820D01*
X170281076Y-124025136D01*
X170269104Y-124146694D01*
X170232571Y-124267128D01*
X170219721Y-124309488D01*
X170139532Y-124459512D01*
X170031612Y-124591012D01*
X169900112Y-124698932D01*
X169750088Y-124779121D01*
X169722433Y-124787510D01*
X169587295Y-124828504D01*
X169474432Y-124839620D01*
X169418001Y-124845178D01*
X169418000Y-124845178D01*
X169248706Y-124828504D01*
X169113568Y-124787510D01*
X169085913Y-124779121D01*
X168935889Y-124698932D01*
X168845946Y-124625117D01*
X168804388Y-124591012D01*
X168696469Y-124459512D01*
X168674127Y-124417713D01*
X168616279Y-124309488D01*
X168603429Y-124267127D01*
X168566896Y-124146695D01*
X168558565Y-124062112D01*
X168554400Y-124019821D01*
X168554400Y-123630180D01*
X168566896Y-123503308D01*
X168566896Y-123503306D01*
X168616278Y-123340517D01*
X168616279Y-123340513D01*
X168696468Y-123190488D01*
X168804388Y-123058988D01*
X168935888Y-122951068D01*
X169085912Y-122870879D01*
X169128273Y-122858029D01*
X169248705Y-122821496D01*
X169361568Y-122810380D01*
X169417999Y-122804822D01*
X169418000Y-122804822D01*
X169587294Y-122821496D01*
X169587294Y-122821496D01*
G37*
G36*
X172127294Y-122821496D02*
X172247726Y-122858029D01*
X172290087Y-122870879D01*
X172440112Y-122951068D01*
X172571612Y-123058988D01*
X172679532Y-123190488D01*
X172759721Y-123340512D01*
X172772571Y-123382873D01*
X172809104Y-123503305D01*
X172809104Y-123503307D01*
X172821600Y-123630179D01*
X172821600Y-124019820D01*
X172821076Y-124025136D01*
X172809104Y-124146694D01*
X172772571Y-124267128D01*
X172759721Y-124309488D01*
X172679532Y-124459512D01*
X172571612Y-124591012D01*
X172440112Y-124698932D01*
X172290088Y-124779121D01*
X172262433Y-124787510D01*
X172127295Y-124828504D01*
X172014432Y-124839620D01*
X171958001Y-124845178D01*
X171958000Y-124845178D01*
X171788706Y-124828504D01*
X171653568Y-124787510D01*
X171625913Y-124779121D01*
X171475889Y-124698932D01*
X171385946Y-124625117D01*
X171344388Y-124591012D01*
X171236469Y-124459512D01*
X171214127Y-124417713D01*
X171156279Y-124309488D01*
X171143429Y-124267127D01*
X171106896Y-124146695D01*
X171098565Y-124062112D01*
X171094400Y-124019821D01*
X171094400Y-123630180D01*
X171106896Y-123503308D01*
X171106896Y-123503306D01*
X171156278Y-123340517D01*
X171156279Y-123340513D01*
X171236468Y-123190488D01*
X171344388Y-123058988D01*
X171475888Y-122951068D01*
X171625912Y-122870879D01*
X171668273Y-122858029D01*
X171788705Y-122821496D01*
X171901568Y-122810380D01*
X171957999Y-122804822D01*
X171958000Y-122804822D01*
X172127294Y-122821496D01*
X172127294Y-122821496D01*
G37*
G36*
X156887294Y-122821496D02*
X157007726Y-122858029D01*
X157050087Y-122870879D01*
X157200112Y-122951068D01*
X157331612Y-123058988D01*
X157439532Y-123190488D01*
X157519721Y-123340512D01*
X157532571Y-123382873D01*
X157569104Y-123503305D01*
X157569104Y-123503307D01*
X157581600Y-123630179D01*
X157581600Y-124019820D01*
X157581076Y-124025136D01*
X157569104Y-124146694D01*
X157532571Y-124267128D01*
X157519721Y-124309488D01*
X157439532Y-124459512D01*
X157331612Y-124591012D01*
X157200112Y-124698932D01*
X157050088Y-124779121D01*
X157022433Y-124787510D01*
X156887295Y-124828504D01*
X156774432Y-124839620D01*
X156718001Y-124845178D01*
X156718000Y-124845178D01*
X156548706Y-124828504D01*
X156413568Y-124787510D01*
X156385913Y-124779121D01*
X156235889Y-124698932D01*
X156145946Y-124625117D01*
X156104388Y-124591012D01*
X155996469Y-124459512D01*
X155974127Y-124417713D01*
X155916279Y-124309488D01*
X155903429Y-124267127D01*
X155866896Y-124146695D01*
X155858565Y-124062112D01*
X155854400Y-124019821D01*
X155854400Y-123630180D01*
X155866896Y-123503308D01*
X155866896Y-123503306D01*
X155916278Y-123340517D01*
X155916279Y-123340513D01*
X155996468Y-123190488D01*
X156104388Y-123058988D01*
X156235888Y-122951068D01*
X156385912Y-122870879D01*
X156428273Y-122858029D01*
X156548705Y-122821496D01*
X156661568Y-122810380D01*
X156717999Y-122804822D01*
X156718000Y-122804822D01*
X156887294Y-122821496D01*
X156887294Y-122821496D01*
G37*
G36*
X177630712Y-117973088D02*
X178000510Y-118126263D01*
X178000513Y-118126265D01*
X178333325Y-118348643D01*
X178616357Y-118631675D01*
X178838735Y-118964487D01*
X178838737Y-118964490D01*
X178991912Y-119334288D01*
X179070000Y-119726864D01*
X179070000Y-120127136D01*
X178991912Y-120519712D01*
X178838737Y-120889510D01*
X178838735Y-120889513D01*
X178616357Y-121222325D01*
X178333325Y-121505357D01*
X178049504Y-121695000D01*
X178000510Y-121727737D01*
X177630712Y-121880912D01*
X177238136Y-121959000D01*
X176837864Y-121959000D01*
X176445288Y-121880912D01*
X176075490Y-121727737D01*
X176026496Y-121695000D01*
X175742675Y-121505357D01*
X175459643Y-121222325D01*
X175237265Y-120889513D01*
X175237263Y-120889510D01*
X175084088Y-120519712D01*
X175006000Y-120127136D01*
X175006000Y-119726864D01*
X175084088Y-119334288D01*
X175237263Y-118964490D01*
X175237265Y-118964487D01*
X175459643Y-118631675D01*
X175742675Y-118348643D01*
X176075487Y-118126265D01*
X176075490Y-118126263D01*
X176445288Y-117973088D01*
X176837864Y-117895000D01*
X177238136Y-117895000D01*
X177630712Y-117973088D01*
X177630712Y-117973088D01*
G37*
G36*
X123828000Y-120495000D02*
X120328000Y-120495000D01*
X120328000Y-116995000D01*
X123828000Y-116995000D01*
X123828000Y-120495000D01*
X123828000Y-120495000D01*
G37*
G36*
X117024508Y-117008803D02*
X117153363Y-117047891D01*
X117272119Y-117111367D01*
X117376208Y-117196792D01*
X117461633Y-117300881D01*
X117525109Y-117419637D01*
X117564197Y-117548492D01*
X117578000Y-117688640D01*
X117578000Y-119801360D01*
X117564197Y-119941508D01*
X117525109Y-120070363D01*
X117461633Y-120189119D01*
X117376208Y-120293208D01*
X117272119Y-120378633D01*
X117153363Y-120442109D01*
X117024508Y-120481197D01*
X116884360Y-120495000D01*
X115271640Y-120495000D01*
X115131492Y-120481197D01*
X115002637Y-120442109D01*
X114883881Y-120378633D01*
X114779792Y-120293208D01*
X114694367Y-120189119D01*
X114630891Y-120070363D01*
X114591803Y-119941508D01*
X114578000Y-119801360D01*
X114578000Y-117688640D01*
X114591803Y-117548492D01*
X114630891Y-117419637D01*
X114694367Y-117300881D01*
X114779792Y-117196792D01*
X114883881Y-117111367D01*
X115002637Y-117047891D01*
X115131492Y-117008803D01*
X115271640Y-116995000D01*
X116884360Y-116995000D01*
X117024508Y-117008803D01*
X117024508Y-117008803D01*
G37*
G36*
X141595649Y-112364717D02*
X141634827Y-112368576D01*
X141710227Y-112391448D01*
X141785629Y-112414321D01*
X141924608Y-112488608D01*
X142046422Y-112588578D01*
X142146392Y-112710392D01*
X142220679Y-112849371D01*
X142266424Y-113000174D01*
X142281870Y-113157000D01*
X142266424Y-113313826D01*
X142220679Y-113464629D01*
X142146392Y-113603608D01*
X142046422Y-113725422D01*
X141924608Y-113825392D01*
X141785629Y-113899679D01*
X141710228Y-113922551D01*
X141634827Y-113945424D01*
X141595649Y-113949283D01*
X141517295Y-113957000D01*
X141438705Y-113957000D01*
X141360351Y-113949283D01*
X141321173Y-113945424D01*
X141245772Y-113922551D01*
X141170371Y-113899679D01*
X141031392Y-113825392D01*
X140909578Y-113725422D01*
X140809608Y-113603608D01*
X140735321Y-113464629D01*
X140689576Y-113313826D01*
X140674130Y-113157000D01*
X140689576Y-113000174D01*
X140735321Y-112849371D01*
X140809608Y-112710392D01*
X140909578Y-112588578D01*
X141031392Y-112488608D01*
X141170371Y-112414321D01*
X141245773Y-112391448D01*
X141321173Y-112368576D01*
X141360351Y-112364717D01*
X141438705Y-112357000D01*
X141517295Y-112357000D01*
X141595649Y-112364717D01*
X141595649Y-112364717D01*
G37*
G36*
X172075649Y-112364717D02*
X172114827Y-112368576D01*
X172190227Y-112391448D01*
X172265629Y-112414321D01*
X172404608Y-112488608D01*
X172526422Y-112588578D01*
X172626392Y-112710392D01*
X172700679Y-112849371D01*
X172746424Y-113000174D01*
X172761870Y-113157000D01*
X172746424Y-113313826D01*
X172700679Y-113464629D01*
X172626392Y-113603608D01*
X172526422Y-113725422D01*
X172404608Y-113825392D01*
X172265629Y-113899679D01*
X172190228Y-113922551D01*
X172114827Y-113945424D01*
X172075649Y-113949283D01*
X171997295Y-113957000D01*
X171918705Y-113957000D01*
X171840351Y-113949283D01*
X171801173Y-113945424D01*
X171725772Y-113922551D01*
X171650371Y-113899679D01*
X171511392Y-113825392D01*
X171389578Y-113725422D01*
X171289608Y-113603608D01*
X171215321Y-113464629D01*
X171169576Y-113313826D01*
X171154130Y-113157000D01*
X171169576Y-113000174D01*
X171215321Y-112849371D01*
X171289608Y-112710392D01*
X171389578Y-112588578D01*
X171511392Y-112488608D01*
X171650371Y-112414321D01*
X171725772Y-112391449D01*
X171801173Y-112368576D01*
X171840351Y-112364717D01*
X171918705Y-112357000D01*
X171997295Y-112357000D01*
X172075649Y-112364717D01*
X172075649Y-112364717D01*
G37*
G36*
X169535649Y-112364717D02*
X169574827Y-112368576D01*
X169650227Y-112391448D01*
X169725629Y-112414321D01*
X169864608Y-112488608D01*
X169986422Y-112588578D01*
X170086392Y-112710392D01*
X170160679Y-112849371D01*
X170206424Y-113000174D01*
X170221870Y-113157000D01*
X170206424Y-113313826D01*
X170160679Y-113464629D01*
X170086392Y-113603608D01*
X169986422Y-113725422D01*
X169864608Y-113825392D01*
X169725629Y-113899679D01*
X169650228Y-113922551D01*
X169574827Y-113945424D01*
X169535649Y-113949283D01*
X169457295Y-113957000D01*
X169378705Y-113957000D01*
X169300351Y-113949283D01*
X169261173Y-113945424D01*
X169185772Y-113922551D01*
X169110371Y-113899679D01*
X168971392Y-113825392D01*
X168849578Y-113725422D01*
X168749608Y-113603608D01*
X168675321Y-113464629D01*
X168629576Y-113313826D01*
X168614130Y-113157000D01*
X168629576Y-113000174D01*
X168675321Y-112849371D01*
X168749608Y-112710392D01*
X168849578Y-112588578D01*
X168971392Y-112488608D01*
X169110371Y-112414321D01*
X169185772Y-112391449D01*
X169261173Y-112368576D01*
X169300351Y-112364717D01*
X169378705Y-112357000D01*
X169457295Y-112357000D01*
X169535649Y-112364717D01*
X169535649Y-112364717D01*
G37*
G36*
X166995649Y-112364717D02*
X167034827Y-112368576D01*
X167110227Y-112391448D01*
X167185629Y-112414321D01*
X167324608Y-112488608D01*
X167446422Y-112588578D01*
X167546392Y-112710392D01*
X167620679Y-112849371D01*
X167666424Y-113000174D01*
X167681870Y-113157000D01*
X167666424Y-113313826D01*
X167620679Y-113464629D01*
X167546392Y-113603608D01*
X167446422Y-113725422D01*
X167324608Y-113825392D01*
X167185629Y-113899679D01*
X167110228Y-113922551D01*
X167034827Y-113945424D01*
X166995649Y-113949283D01*
X166917295Y-113957000D01*
X166838705Y-113957000D01*
X166760351Y-113949283D01*
X166721173Y-113945424D01*
X166645772Y-113922551D01*
X166570371Y-113899679D01*
X166431392Y-113825392D01*
X166309578Y-113725422D01*
X166209608Y-113603608D01*
X166135321Y-113464629D01*
X166089576Y-113313826D01*
X166074130Y-113157000D01*
X166089576Y-113000174D01*
X166135321Y-112849371D01*
X166209608Y-112710392D01*
X166309578Y-112588578D01*
X166431392Y-112488608D01*
X166570371Y-112414321D01*
X166645772Y-112391449D01*
X166721173Y-112368576D01*
X166760351Y-112364717D01*
X166838705Y-112357000D01*
X166917295Y-112357000D01*
X166995649Y-112364717D01*
X166995649Y-112364717D01*
G37*
G36*
X164455649Y-112364717D02*
X164494827Y-112368576D01*
X164570227Y-112391448D01*
X164645629Y-112414321D01*
X164784608Y-112488608D01*
X164906422Y-112588578D01*
X165006392Y-112710392D01*
X165080679Y-112849371D01*
X165126424Y-113000174D01*
X165141870Y-113157000D01*
X165126424Y-113313826D01*
X165080679Y-113464629D01*
X165006392Y-113603608D01*
X164906422Y-113725422D01*
X164784608Y-113825392D01*
X164645629Y-113899679D01*
X164570228Y-113922551D01*
X164494827Y-113945424D01*
X164455649Y-113949283D01*
X164377295Y-113957000D01*
X164298705Y-113957000D01*
X164220351Y-113949283D01*
X164181173Y-113945424D01*
X164105772Y-113922551D01*
X164030371Y-113899679D01*
X163891392Y-113825392D01*
X163769578Y-113725422D01*
X163669608Y-113603608D01*
X163595321Y-113464629D01*
X163549576Y-113313826D01*
X163534130Y-113157000D01*
X163549576Y-113000174D01*
X163595321Y-112849371D01*
X163669608Y-112710392D01*
X163769578Y-112588578D01*
X163891392Y-112488608D01*
X164030371Y-112414321D01*
X164105773Y-112391448D01*
X164181173Y-112368576D01*
X164220351Y-112364717D01*
X164298705Y-112357000D01*
X164377295Y-112357000D01*
X164455649Y-112364717D01*
X164455649Y-112364717D01*
G37*
G36*
X161915649Y-112364717D02*
X161954827Y-112368576D01*
X162030227Y-112391448D01*
X162105629Y-112414321D01*
X162244608Y-112488608D01*
X162366422Y-112588578D01*
X162466392Y-112710392D01*
X162540679Y-112849371D01*
X162586424Y-113000174D01*
X162601870Y-113157000D01*
X162586424Y-113313826D01*
X162540679Y-113464629D01*
X162466392Y-113603608D01*
X162366422Y-113725422D01*
X162244608Y-113825392D01*
X162105629Y-113899679D01*
X162030228Y-113922551D01*
X161954827Y-113945424D01*
X161915649Y-113949283D01*
X161837295Y-113957000D01*
X161758705Y-113957000D01*
X161680351Y-113949283D01*
X161641173Y-113945424D01*
X161565772Y-113922551D01*
X161490371Y-113899679D01*
X161351392Y-113825392D01*
X161229578Y-113725422D01*
X161129608Y-113603608D01*
X161055321Y-113464629D01*
X161009576Y-113313826D01*
X160994130Y-113157000D01*
X161009576Y-113000174D01*
X161055321Y-112849371D01*
X161129608Y-112710392D01*
X161229578Y-112588578D01*
X161351392Y-112488608D01*
X161490371Y-112414321D01*
X161565773Y-112391448D01*
X161641173Y-112368576D01*
X161680351Y-112364717D01*
X161758705Y-112357000D01*
X161837295Y-112357000D01*
X161915649Y-112364717D01*
X161915649Y-112364717D01*
G37*
G36*
X159375649Y-112364717D02*
X159414827Y-112368576D01*
X159490227Y-112391448D01*
X159565629Y-112414321D01*
X159704608Y-112488608D01*
X159826422Y-112588578D01*
X159926392Y-112710392D01*
X160000679Y-112849371D01*
X160046424Y-113000174D01*
X160061870Y-113157000D01*
X160046424Y-113313826D01*
X160000679Y-113464629D01*
X159926392Y-113603608D01*
X159826422Y-113725422D01*
X159704608Y-113825392D01*
X159565629Y-113899679D01*
X159490228Y-113922551D01*
X159414827Y-113945424D01*
X159375649Y-113949283D01*
X159297295Y-113957000D01*
X159218705Y-113957000D01*
X159140351Y-113949283D01*
X159101173Y-113945424D01*
X159025772Y-113922551D01*
X158950371Y-113899679D01*
X158811392Y-113825392D01*
X158689578Y-113725422D01*
X158589608Y-113603608D01*
X158515321Y-113464629D01*
X158469576Y-113313826D01*
X158454130Y-113157000D01*
X158469576Y-113000174D01*
X158515321Y-112849371D01*
X158589608Y-112710392D01*
X158689578Y-112588578D01*
X158811392Y-112488608D01*
X158950371Y-112414321D01*
X159025773Y-112391448D01*
X159101173Y-112368576D01*
X159140351Y-112364717D01*
X159218705Y-112357000D01*
X159297295Y-112357000D01*
X159375649Y-112364717D01*
X159375649Y-112364717D01*
G37*
G36*
X156835649Y-112364717D02*
X156874827Y-112368576D01*
X156950227Y-112391448D01*
X157025629Y-112414321D01*
X157164608Y-112488608D01*
X157286422Y-112588578D01*
X157386392Y-112710392D01*
X157460679Y-112849371D01*
X157506424Y-113000174D01*
X157521870Y-113157000D01*
X157506424Y-113313826D01*
X157460679Y-113464629D01*
X157386392Y-113603608D01*
X157286422Y-113725422D01*
X157164608Y-113825392D01*
X157025629Y-113899679D01*
X156950228Y-113922551D01*
X156874827Y-113945424D01*
X156835649Y-113949283D01*
X156757295Y-113957000D01*
X156678705Y-113957000D01*
X156600351Y-113949283D01*
X156561173Y-113945424D01*
X156485772Y-113922551D01*
X156410371Y-113899679D01*
X156271392Y-113825392D01*
X156149578Y-113725422D01*
X156049608Y-113603608D01*
X155975321Y-113464629D01*
X155929576Y-113313826D01*
X155914130Y-113157000D01*
X155929576Y-113000174D01*
X155975321Y-112849371D01*
X156049608Y-112710392D01*
X156149578Y-112588578D01*
X156271392Y-112488608D01*
X156410371Y-112414321D01*
X156485773Y-112391448D01*
X156561173Y-112368576D01*
X156600351Y-112364717D01*
X156678705Y-112357000D01*
X156757295Y-112357000D01*
X156835649Y-112364717D01*
X156835649Y-112364717D01*
G37*
G36*
X154295649Y-112364717D02*
X154334827Y-112368576D01*
X154410227Y-112391448D01*
X154485629Y-112414321D01*
X154624608Y-112488608D01*
X154746422Y-112588578D01*
X154846392Y-112710392D01*
X154920679Y-112849371D01*
X154966424Y-113000174D01*
X154981870Y-113157000D01*
X154966424Y-113313826D01*
X154920679Y-113464629D01*
X154846392Y-113603608D01*
X154746422Y-113725422D01*
X154624608Y-113825392D01*
X154485629Y-113899679D01*
X154410228Y-113922551D01*
X154334827Y-113945424D01*
X154295649Y-113949283D01*
X154217295Y-113957000D01*
X154138705Y-113957000D01*
X154060351Y-113949283D01*
X154021173Y-113945424D01*
X153945772Y-113922551D01*
X153870371Y-113899679D01*
X153731392Y-113825392D01*
X153609578Y-113725422D01*
X153509608Y-113603608D01*
X153435321Y-113464629D01*
X153389576Y-113313826D01*
X153374130Y-113157000D01*
X153389576Y-113000174D01*
X153435321Y-112849371D01*
X153509608Y-112710392D01*
X153609578Y-112588578D01*
X153731392Y-112488608D01*
X153870371Y-112414321D01*
X153945773Y-112391448D01*
X154021173Y-112368576D01*
X154060351Y-112364717D01*
X154138705Y-112357000D01*
X154217295Y-112357000D01*
X154295649Y-112364717D01*
X154295649Y-112364717D01*
G37*
G36*
X151755649Y-112364717D02*
X151794827Y-112368576D01*
X151870227Y-112391448D01*
X151945629Y-112414321D01*
X152084608Y-112488608D01*
X152206422Y-112588578D01*
X152306392Y-112710392D01*
X152380679Y-112849371D01*
X152426424Y-113000174D01*
X152441870Y-113157000D01*
X152426424Y-113313826D01*
X152380679Y-113464629D01*
X152306392Y-113603608D01*
X152206422Y-113725422D01*
X152084608Y-113825392D01*
X151945629Y-113899679D01*
X151870228Y-113922551D01*
X151794827Y-113945424D01*
X151755649Y-113949283D01*
X151677295Y-113957000D01*
X151598705Y-113957000D01*
X151520351Y-113949283D01*
X151481173Y-113945424D01*
X151405772Y-113922551D01*
X151330371Y-113899679D01*
X151191392Y-113825392D01*
X151069578Y-113725422D01*
X150969608Y-113603608D01*
X150895321Y-113464629D01*
X150849576Y-113313826D01*
X150834130Y-113157000D01*
X150849576Y-113000174D01*
X150895321Y-112849371D01*
X150969608Y-112710392D01*
X151069578Y-112588578D01*
X151191392Y-112488608D01*
X151330371Y-112414321D01*
X151405773Y-112391448D01*
X151481173Y-112368576D01*
X151520351Y-112364717D01*
X151598705Y-112357000D01*
X151677295Y-112357000D01*
X151755649Y-112364717D01*
X151755649Y-112364717D01*
G37*
G36*
X149215649Y-112364717D02*
X149254827Y-112368576D01*
X149330227Y-112391448D01*
X149405629Y-112414321D01*
X149544608Y-112488608D01*
X149666422Y-112588578D01*
X149766392Y-112710392D01*
X149840679Y-112849371D01*
X149886424Y-113000174D01*
X149901870Y-113157000D01*
X149886424Y-113313826D01*
X149840679Y-113464629D01*
X149766392Y-113603608D01*
X149666422Y-113725422D01*
X149544608Y-113825392D01*
X149405629Y-113899679D01*
X149330228Y-113922551D01*
X149254827Y-113945424D01*
X149215649Y-113949283D01*
X149137295Y-113957000D01*
X149058705Y-113957000D01*
X148980351Y-113949283D01*
X148941173Y-113945424D01*
X148865772Y-113922551D01*
X148790371Y-113899679D01*
X148651392Y-113825392D01*
X148529578Y-113725422D01*
X148429608Y-113603608D01*
X148355321Y-113464629D01*
X148309576Y-113313826D01*
X148294130Y-113157000D01*
X148309576Y-113000174D01*
X148355321Y-112849371D01*
X148429608Y-112710392D01*
X148529578Y-112588578D01*
X148651392Y-112488608D01*
X148790371Y-112414321D01*
X148865773Y-112391448D01*
X148941173Y-112368576D01*
X148980351Y-112364717D01*
X149058705Y-112357000D01*
X149137295Y-112357000D01*
X149215649Y-112364717D01*
X149215649Y-112364717D01*
G37*
G36*
X146675649Y-112364717D02*
X146714827Y-112368576D01*
X146790227Y-112391448D01*
X146865629Y-112414321D01*
X147004608Y-112488608D01*
X147126422Y-112588578D01*
X147226392Y-112710392D01*
X147300679Y-112849371D01*
X147346424Y-113000174D01*
X147361870Y-113157000D01*
X147346424Y-113313826D01*
X147300679Y-113464629D01*
X147226392Y-113603608D01*
X147126422Y-113725422D01*
X147004608Y-113825392D01*
X146865629Y-113899679D01*
X146790228Y-113922551D01*
X146714827Y-113945424D01*
X146675649Y-113949283D01*
X146597295Y-113957000D01*
X146518705Y-113957000D01*
X146440351Y-113949283D01*
X146401173Y-113945424D01*
X146325772Y-113922551D01*
X146250371Y-113899679D01*
X146111392Y-113825392D01*
X145989578Y-113725422D01*
X145889608Y-113603608D01*
X145815321Y-113464629D01*
X145769576Y-113313826D01*
X145754130Y-113157000D01*
X145769576Y-113000174D01*
X145815321Y-112849371D01*
X145889608Y-112710392D01*
X145989578Y-112588578D01*
X146111392Y-112488608D01*
X146250371Y-112414321D01*
X146325773Y-112391448D01*
X146401173Y-112368576D01*
X146440351Y-112364717D01*
X146518705Y-112357000D01*
X146597295Y-112357000D01*
X146675649Y-112364717D01*
X146675649Y-112364717D01*
G37*
G36*
X144135649Y-112364717D02*
X144174827Y-112368576D01*
X144250227Y-112391448D01*
X144325629Y-112414321D01*
X144464608Y-112488608D01*
X144586422Y-112588578D01*
X144686392Y-112710392D01*
X144760679Y-112849371D01*
X144806424Y-113000174D01*
X144821870Y-113157000D01*
X144806424Y-113313826D01*
X144760679Y-113464629D01*
X144686392Y-113603608D01*
X144586422Y-113725422D01*
X144464608Y-113825392D01*
X144325629Y-113899679D01*
X144250228Y-113922551D01*
X144174827Y-113945424D01*
X144135649Y-113949283D01*
X144057295Y-113957000D01*
X143978705Y-113957000D01*
X143900351Y-113949283D01*
X143861173Y-113945424D01*
X143785772Y-113922551D01*
X143710371Y-113899679D01*
X143571392Y-113825392D01*
X143449578Y-113725422D01*
X143349608Y-113603608D01*
X143275321Y-113464629D01*
X143229576Y-113313826D01*
X143214130Y-113157000D01*
X143229576Y-113000174D01*
X143275321Y-112849371D01*
X143349608Y-112710392D01*
X143449578Y-112588578D01*
X143571392Y-112488608D01*
X143710371Y-112414321D01*
X143785773Y-112391448D01*
X143861173Y-112368576D01*
X143900351Y-112364717D01*
X143978705Y-112357000D01*
X144057295Y-112357000D01*
X144135649Y-112364717D01*
X144135649Y-112364717D01*
G37*
G36*
X174615649Y-112364717D02*
X174654827Y-112368576D01*
X174730227Y-112391448D01*
X174805629Y-112414321D01*
X174944608Y-112488608D01*
X175066422Y-112588578D01*
X175166392Y-112710392D01*
X175240679Y-112849371D01*
X175286424Y-113000174D01*
X175301870Y-113157000D01*
X175286424Y-113313826D01*
X175240679Y-113464629D01*
X175166392Y-113603608D01*
X175066422Y-113725422D01*
X174944608Y-113825392D01*
X174805629Y-113899679D01*
X174730228Y-113922551D01*
X174654827Y-113945424D01*
X174615649Y-113949283D01*
X174537295Y-113957000D01*
X174458705Y-113957000D01*
X174380351Y-113949283D01*
X174341173Y-113945424D01*
X174265772Y-113922551D01*
X174190371Y-113899679D01*
X174051392Y-113825392D01*
X173929578Y-113725422D01*
X173829608Y-113603608D01*
X173755321Y-113464629D01*
X173709576Y-113313826D01*
X173694130Y-113157000D01*
X173709576Y-113000174D01*
X173755321Y-112849371D01*
X173829608Y-112710392D01*
X173929578Y-112588578D01*
X174051392Y-112488608D01*
X174190371Y-112414321D01*
X174265772Y-112391449D01*
X174341173Y-112368576D01*
X174380351Y-112364717D01*
X174458705Y-112357000D01*
X174537295Y-112357000D01*
X174615649Y-112364717D01*
X174615649Y-112364717D01*
G37*
G36*
X151755649Y-104744717D02*
X151794827Y-104748576D01*
X151870228Y-104771449D01*
X151945629Y-104794321D01*
X152084608Y-104868608D01*
X152206422Y-104968578D01*
X152306392Y-105090392D01*
X152380679Y-105229371D01*
X152426424Y-105380174D01*
X152441870Y-105537000D01*
X152426424Y-105693826D01*
X152380679Y-105844629D01*
X152306392Y-105983608D01*
X152206422Y-106105422D01*
X152084608Y-106205392D01*
X151945629Y-106279679D01*
X151870228Y-106302551D01*
X151794827Y-106325424D01*
X151755649Y-106329283D01*
X151677295Y-106337000D01*
X151598705Y-106337000D01*
X151520351Y-106329283D01*
X151481173Y-106325424D01*
X151405772Y-106302551D01*
X151330371Y-106279679D01*
X151191392Y-106205392D01*
X151069578Y-106105422D01*
X150969608Y-105983608D01*
X150895321Y-105844629D01*
X150849576Y-105693826D01*
X150834130Y-105537000D01*
X150849576Y-105380174D01*
X150895321Y-105229371D01*
X150969608Y-105090392D01*
X151069578Y-104968578D01*
X151191392Y-104868608D01*
X151330371Y-104794321D01*
X151405772Y-104771449D01*
X151481173Y-104748576D01*
X151520351Y-104744717D01*
X151598705Y-104737000D01*
X151677295Y-104737000D01*
X151755649Y-104744717D01*
X151755649Y-104744717D01*
G37*
G36*
X154295649Y-104744717D02*
X154334827Y-104748576D01*
X154410228Y-104771449D01*
X154485629Y-104794321D01*
X154624608Y-104868608D01*
X154746422Y-104968578D01*
X154846392Y-105090392D01*
X154920679Y-105229371D01*
X154966424Y-105380174D01*
X154981870Y-105537000D01*
X154966424Y-105693826D01*
X154920679Y-105844629D01*
X154846392Y-105983608D01*
X154746422Y-106105422D01*
X154624608Y-106205392D01*
X154485629Y-106279679D01*
X154410228Y-106302551D01*
X154334827Y-106325424D01*
X154295649Y-106329283D01*
X154217295Y-106337000D01*
X154138705Y-106337000D01*
X154060351Y-106329283D01*
X154021173Y-106325424D01*
X153945772Y-106302551D01*
X153870371Y-106279679D01*
X153731392Y-106205392D01*
X153609578Y-106105422D01*
X153509608Y-105983608D01*
X153435321Y-105844629D01*
X153389576Y-105693826D01*
X153374130Y-105537000D01*
X153389576Y-105380174D01*
X153435321Y-105229371D01*
X153509608Y-105090392D01*
X153609578Y-104968578D01*
X153731392Y-104868608D01*
X153870371Y-104794321D01*
X153945772Y-104771449D01*
X154021173Y-104748576D01*
X154060351Y-104744717D01*
X154138705Y-104737000D01*
X154217295Y-104737000D01*
X154295649Y-104744717D01*
X154295649Y-104744717D01*
G37*
G36*
X164455649Y-104744717D02*
X164494827Y-104748576D01*
X164570228Y-104771449D01*
X164645629Y-104794321D01*
X164784608Y-104868608D01*
X164906422Y-104968578D01*
X165006392Y-105090392D01*
X165080679Y-105229371D01*
X165126424Y-105380174D01*
X165141870Y-105537000D01*
X165126424Y-105693826D01*
X165080679Y-105844629D01*
X165006392Y-105983608D01*
X164906422Y-106105422D01*
X164784608Y-106205392D01*
X164645629Y-106279679D01*
X164570228Y-106302551D01*
X164494827Y-106325424D01*
X164455649Y-106329283D01*
X164377295Y-106337000D01*
X164298705Y-106337000D01*
X164220351Y-106329283D01*
X164181173Y-106325424D01*
X164105772Y-106302551D01*
X164030371Y-106279679D01*
X163891392Y-106205392D01*
X163769578Y-106105422D01*
X163669608Y-105983608D01*
X163595321Y-105844629D01*
X163549576Y-105693826D01*
X163534130Y-105537000D01*
X163549576Y-105380174D01*
X163595321Y-105229371D01*
X163669608Y-105090392D01*
X163769578Y-104968578D01*
X163891392Y-104868608D01*
X164030371Y-104794321D01*
X164105772Y-104771449D01*
X164181173Y-104748576D01*
X164220351Y-104744717D01*
X164298705Y-104737000D01*
X164377295Y-104737000D01*
X164455649Y-104744717D01*
X164455649Y-104744717D01*
G37*
G36*
X149215649Y-104744717D02*
X149254827Y-104748576D01*
X149330228Y-104771449D01*
X149405629Y-104794321D01*
X149544608Y-104868608D01*
X149666422Y-104968578D01*
X149766392Y-105090392D01*
X149840679Y-105229371D01*
X149886424Y-105380174D01*
X149901870Y-105537000D01*
X149886424Y-105693826D01*
X149840679Y-105844629D01*
X149766392Y-105983608D01*
X149666422Y-106105422D01*
X149544608Y-106205392D01*
X149405629Y-106279679D01*
X149330228Y-106302551D01*
X149254827Y-106325424D01*
X149215649Y-106329283D01*
X149137295Y-106337000D01*
X149058705Y-106337000D01*
X148980351Y-106329283D01*
X148941173Y-106325424D01*
X148865772Y-106302551D01*
X148790371Y-106279679D01*
X148651392Y-106205392D01*
X148529578Y-106105422D01*
X148429608Y-105983608D01*
X148355321Y-105844629D01*
X148309576Y-105693826D01*
X148294130Y-105537000D01*
X148309576Y-105380174D01*
X148355321Y-105229371D01*
X148429608Y-105090392D01*
X148529578Y-104968578D01*
X148651392Y-104868608D01*
X148790371Y-104794321D01*
X148865772Y-104771449D01*
X148941173Y-104748576D01*
X148980351Y-104744717D01*
X149058705Y-104737000D01*
X149137295Y-104737000D01*
X149215649Y-104744717D01*
X149215649Y-104744717D01*
G37*
G36*
X159375649Y-104744717D02*
X159414827Y-104748576D01*
X159490228Y-104771449D01*
X159565629Y-104794321D01*
X159704608Y-104868608D01*
X159826422Y-104968578D01*
X159926392Y-105090392D01*
X160000679Y-105229371D01*
X160046424Y-105380174D01*
X160061870Y-105537000D01*
X160046424Y-105693826D01*
X160000679Y-105844629D01*
X159926392Y-105983608D01*
X159826422Y-106105422D01*
X159704608Y-106205392D01*
X159565629Y-106279679D01*
X159490228Y-106302551D01*
X159414827Y-106325424D01*
X159375649Y-106329283D01*
X159297295Y-106337000D01*
X159218705Y-106337000D01*
X159140351Y-106329283D01*
X159101173Y-106325424D01*
X159025772Y-106302551D01*
X158950371Y-106279679D01*
X158811392Y-106205392D01*
X158689578Y-106105422D01*
X158589608Y-105983608D01*
X158515321Y-105844629D01*
X158469576Y-105693826D01*
X158454130Y-105537000D01*
X158469576Y-105380174D01*
X158515321Y-105229371D01*
X158589608Y-105090392D01*
X158689578Y-104968578D01*
X158811392Y-104868608D01*
X158950371Y-104794321D01*
X159025772Y-104771449D01*
X159101173Y-104748576D01*
X159140351Y-104744717D01*
X159218705Y-104737000D01*
X159297295Y-104737000D01*
X159375649Y-104744717D01*
X159375649Y-104744717D01*
G37*
G36*
X146675649Y-104744717D02*
X146714827Y-104748576D01*
X146790228Y-104771449D01*
X146865629Y-104794321D01*
X147004608Y-104868608D01*
X147126422Y-104968578D01*
X147226392Y-105090392D01*
X147300679Y-105229371D01*
X147346424Y-105380174D01*
X147361870Y-105537000D01*
X147346424Y-105693826D01*
X147300679Y-105844629D01*
X147226392Y-105983608D01*
X147126422Y-106105422D01*
X147004608Y-106205392D01*
X146865629Y-106279679D01*
X146790228Y-106302551D01*
X146714827Y-106325424D01*
X146675649Y-106329283D01*
X146597295Y-106337000D01*
X146518705Y-106337000D01*
X146440351Y-106329283D01*
X146401173Y-106325424D01*
X146325772Y-106302551D01*
X146250371Y-106279679D01*
X146111392Y-106205392D01*
X145989578Y-106105422D01*
X145889608Y-105983608D01*
X145815321Y-105844629D01*
X145769576Y-105693826D01*
X145754130Y-105537000D01*
X145769576Y-105380174D01*
X145815321Y-105229371D01*
X145889608Y-105090392D01*
X145989578Y-104968578D01*
X146111392Y-104868608D01*
X146250371Y-104794321D01*
X146325772Y-104771449D01*
X146401173Y-104748576D01*
X146440351Y-104744717D01*
X146518705Y-104737000D01*
X146597295Y-104737000D01*
X146675649Y-104744717D01*
X146675649Y-104744717D01*
G37*
G36*
X156835649Y-104744717D02*
X156874827Y-104748576D01*
X156950228Y-104771449D01*
X157025629Y-104794321D01*
X157164608Y-104868608D01*
X157286422Y-104968578D01*
X157386392Y-105090392D01*
X157460679Y-105229371D01*
X157506424Y-105380174D01*
X157521870Y-105537000D01*
X157506424Y-105693826D01*
X157460679Y-105844629D01*
X157386392Y-105983608D01*
X157286422Y-106105422D01*
X157164608Y-106205392D01*
X157025629Y-106279679D01*
X156950228Y-106302551D01*
X156874827Y-106325424D01*
X156835649Y-106329283D01*
X156757295Y-106337000D01*
X156678705Y-106337000D01*
X156600351Y-106329283D01*
X156561173Y-106325424D01*
X156485772Y-106302551D01*
X156410371Y-106279679D01*
X156271392Y-106205392D01*
X156149578Y-106105422D01*
X156049608Y-105983608D01*
X155975321Y-105844629D01*
X155929576Y-105693826D01*
X155914130Y-105537000D01*
X155929576Y-105380174D01*
X155975321Y-105229371D01*
X156049608Y-105090392D01*
X156149578Y-104968578D01*
X156271392Y-104868608D01*
X156410371Y-104794321D01*
X156485772Y-104771449D01*
X156561173Y-104748576D01*
X156600351Y-104744717D01*
X156678705Y-104737000D01*
X156757295Y-104737000D01*
X156835649Y-104744717D01*
X156835649Y-104744717D01*
G37*
G36*
X141595649Y-104744717D02*
X141634827Y-104748576D01*
X141710228Y-104771449D01*
X141785629Y-104794321D01*
X141924608Y-104868608D01*
X142046422Y-104968578D01*
X142146392Y-105090392D01*
X142220679Y-105229371D01*
X142266424Y-105380174D01*
X142281870Y-105537000D01*
X142266424Y-105693826D01*
X142220679Y-105844629D01*
X142146392Y-105983608D01*
X142046422Y-106105422D01*
X141924608Y-106205392D01*
X141785629Y-106279679D01*
X141710228Y-106302551D01*
X141634827Y-106325424D01*
X141595649Y-106329283D01*
X141517295Y-106337000D01*
X141438705Y-106337000D01*
X141360351Y-106329283D01*
X141321173Y-106325424D01*
X141245772Y-106302551D01*
X141170371Y-106279679D01*
X141031392Y-106205392D01*
X140909578Y-106105422D01*
X140809608Y-105983608D01*
X140735321Y-105844629D01*
X140689576Y-105693826D01*
X140674130Y-105537000D01*
X140689576Y-105380174D01*
X140735321Y-105229371D01*
X140809608Y-105090392D01*
X140909578Y-104968578D01*
X141031392Y-104868608D01*
X141170371Y-104794321D01*
X141245772Y-104771449D01*
X141321173Y-104748576D01*
X141360351Y-104744717D01*
X141438705Y-104737000D01*
X141517295Y-104737000D01*
X141595649Y-104744717D01*
X141595649Y-104744717D01*
G37*
G36*
X161915649Y-104744717D02*
X161954827Y-104748576D01*
X162030228Y-104771449D01*
X162105629Y-104794321D01*
X162244608Y-104868608D01*
X162366422Y-104968578D01*
X162466392Y-105090392D01*
X162540679Y-105229371D01*
X162586424Y-105380174D01*
X162601870Y-105537000D01*
X162586424Y-105693826D01*
X162540679Y-105844629D01*
X162466392Y-105983608D01*
X162366422Y-106105422D01*
X162244608Y-106205392D01*
X162105629Y-106279679D01*
X162030228Y-106302551D01*
X161954827Y-106325424D01*
X161915649Y-106329283D01*
X161837295Y-106337000D01*
X161758705Y-106337000D01*
X161680351Y-106329283D01*
X161641173Y-106325424D01*
X161565772Y-106302551D01*
X161490371Y-106279679D01*
X161351392Y-106205392D01*
X161229578Y-106105422D01*
X161129608Y-105983608D01*
X161055321Y-105844629D01*
X161009576Y-105693826D01*
X160994130Y-105537000D01*
X161009576Y-105380174D01*
X161055321Y-105229371D01*
X161129608Y-105090392D01*
X161229578Y-104968578D01*
X161351392Y-104868608D01*
X161490371Y-104794321D01*
X161565772Y-104771449D01*
X161641173Y-104748576D01*
X161680351Y-104744717D01*
X161758705Y-104737000D01*
X161837295Y-104737000D01*
X161915649Y-104744717D01*
X161915649Y-104744717D01*
G37*
G36*
X144135649Y-104744717D02*
X144174827Y-104748576D01*
X144250228Y-104771449D01*
X144325629Y-104794321D01*
X144464608Y-104868608D01*
X144586422Y-104968578D01*
X144686392Y-105090392D01*
X144760679Y-105229371D01*
X144806424Y-105380174D01*
X144821870Y-105537000D01*
X144806424Y-105693826D01*
X144760679Y-105844629D01*
X144686392Y-105983608D01*
X144586422Y-106105422D01*
X144464608Y-106205392D01*
X144325629Y-106279679D01*
X144250228Y-106302551D01*
X144174827Y-106325424D01*
X144135649Y-106329283D01*
X144057295Y-106337000D01*
X143978705Y-106337000D01*
X143900351Y-106329283D01*
X143861173Y-106325424D01*
X143785772Y-106302551D01*
X143710371Y-106279679D01*
X143571392Y-106205392D01*
X143449578Y-106105422D01*
X143349608Y-105983608D01*
X143275321Y-105844629D01*
X143229576Y-105693826D01*
X143214130Y-105537000D01*
X143229576Y-105380174D01*
X143275321Y-105229371D01*
X143349608Y-105090392D01*
X143449578Y-104968578D01*
X143571392Y-104868608D01*
X143710371Y-104794321D01*
X143785772Y-104771449D01*
X143861173Y-104748576D01*
X143900351Y-104744717D01*
X143978705Y-104737000D01*
X144057295Y-104737000D01*
X144135649Y-104744717D01*
X144135649Y-104744717D01*
G37*
G36*
X166995649Y-104744717D02*
X167034827Y-104748576D01*
X167110228Y-104771449D01*
X167185629Y-104794321D01*
X167324608Y-104868608D01*
X167446422Y-104968578D01*
X167546392Y-105090392D01*
X167620679Y-105229371D01*
X167666424Y-105380174D01*
X167681870Y-105537000D01*
X167666424Y-105693826D01*
X167620679Y-105844629D01*
X167546392Y-105983608D01*
X167446422Y-106105422D01*
X167324608Y-106205392D01*
X167185629Y-106279679D01*
X167110228Y-106302551D01*
X167034827Y-106325424D01*
X166995649Y-106329283D01*
X166917295Y-106337000D01*
X166838705Y-106337000D01*
X166760351Y-106329283D01*
X166721173Y-106325424D01*
X166645772Y-106302551D01*
X166570371Y-106279679D01*
X166431392Y-106205392D01*
X166309578Y-106105422D01*
X166209608Y-105983608D01*
X166135321Y-105844629D01*
X166089576Y-105693826D01*
X166074130Y-105537000D01*
X166089576Y-105380174D01*
X166135321Y-105229371D01*
X166209608Y-105090392D01*
X166309578Y-104968578D01*
X166431392Y-104868608D01*
X166570371Y-104794321D01*
X166645772Y-104771449D01*
X166721173Y-104748576D01*
X166760351Y-104744717D01*
X166838705Y-104737000D01*
X166917295Y-104737000D01*
X166995649Y-104744717D01*
X166995649Y-104744717D01*
G37*
G36*
X169535649Y-104744717D02*
X169574827Y-104748576D01*
X169650228Y-104771449D01*
X169725629Y-104794321D01*
X169864608Y-104868608D01*
X169986422Y-104968578D01*
X170086392Y-105090392D01*
X170160679Y-105229371D01*
X170206424Y-105380174D01*
X170221870Y-105537000D01*
X170206424Y-105693826D01*
X170160679Y-105844629D01*
X170086392Y-105983608D01*
X169986422Y-106105422D01*
X169864608Y-106205392D01*
X169725629Y-106279679D01*
X169650228Y-106302551D01*
X169574827Y-106325424D01*
X169535649Y-106329283D01*
X169457295Y-106337000D01*
X169378705Y-106337000D01*
X169300351Y-106329283D01*
X169261173Y-106325424D01*
X169185772Y-106302551D01*
X169110371Y-106279679D01*
X168971392Y-106205392D01*
X168849578Y-106105422D01*
X168749608Y-105983608D01*
X168675321Y-105844629D01*
X168629576Y-105693826D01*
X168614130Y-105537000D01*
X168629576Y-105380174D01*
X168675321Y-105229371D01*
X168749608Y-105090392D01*
X168849578Y-104968578D01*
X168971392Y-104868608D01*
X169110371Y-104794321D01*
X169185772Y-104771449D01*
X169261173Y-104748576D01*
X169300351Y-104744717D01*
X169378705Y-104737000D01*
X169457295Y-104737000D01*
X169535649Y-104744717D01*
X169535649Y-104744717D01*
G37*
G36*
X172075649Y-104744717D02*
X172114827Y-104748576D01*
X172190228Y-104771449D01*
X172265629Y-104794321D01*
X172404608Y-104868608D01*
X172526422Y-104968578D01*
X172626392Y-105090392D01*
X172700679Y-105229371D01*
X172746424Y-105380174D01*
X172761870Y-105537000D01*
X172746424Y-105693826D01*
X172700679Y-105844629D01*
X172626392Y-105983608D01*
X172526422Y-106105422D01*
X172404608Y-106205392D01*
X172265629Y-106279679D01*
X172190228Y-106302551D01*
X172114827Y-106325424D01*
X172075649Y-106329283D01*
X171997295Y-106337000D01*
X171918705Y-106337000D01*
X171840351Y-106329283D01*
X171801173Y-106325424D01*
X171725772Y-106302551D01*
X171650371Y-106279679D01*
X171511392Y-106205392D01*
X171389578Y-106105422D01*
X171289608Y-105983608D01*
X171215321Y-105844629D01*
X171169576Y-105693826D01*
X171154130Y-105537000D01*
X171169576Y-105380174D01*
X171215321Y-105229371D01*
X171289608Y-105090392D01*
X171389578Y-104968578D01*
X171511392Y-104868608D01*
X171650371Y-104794321D01*
X171725772Y-104771449D01*
X171801173Y-104748576D01*
X171840351Y-104744717D01*
X171918705Y-104737000D01*
X171997295Y-104737000D01*
X172075649Y-104744717D01*
X172075649Y-104744717D01*
G37*
G36*
X175298000Y-106337000D02*
X173698000Y-106337000D01*
X173698000Y-104737000D01*
X175298000Y-104737000D01*
X175298000Y-106337000D01*
X175298000Y-106337000D01*
G37*
G36*
X174664630Y-100127299D02*
X174824855Y-100175903D01*
X174972520Y-100254831D01*
X175101949Y-100361051D01*
X175208169Y-100490480D01*
X175287097Y-100638145D01*
X175335701Y-100798370D01*
X175352112Y-100965000D01*
X175335701Y-101131630D01*
X175287097Y-101291855D01*
X175208169Y-101439520D01*
X175101949Y-101568949D01*
X174972520Y-101675169D01*
X174824855Y-101754097D01*
X174664630Y-101802701D01*
X174539752Y-101815000D01*
X174456248Y-101815000D01*
X174331370Y-101802701D01*
X174171145Y-101754097D01*
X174023480Y-101675169D01*
X173894051Y-101568949D01*
X173787831Y-101439520D01*
X173708903Y-101291855D01*
X173660299Y-101131630D01*
X173643888Y-100965000D01*
X173660299Y-100798370D01*
X173708903Y-100638145D01*
X173787831Y-100490480D01*
X173894051Y-100361051D01*
X174023480Y-100254831D01*
X174171145Y-100175903D01*
X174331370Y-100127299D01*
X174456248Y-100115000D01*
X174539752Y-100115000D01*
X174664630Y-100127299D01*
X174664630Y-100127299D01*
G37*
G36*
X177204630Y-100127299D02*
X177364855Y-100175903D01*
X177512520Y-100254831D01*
X177641949Y-100361051D01*
X177748169Y-100490480D01*
X177827097Y-100638145D01*
X177875701Y-100798370D01*
X177892112Y-100965000D01*
X177875701Y-101131630D01*
X177827097Y-101291855D01*
X177748169Y-101439520D01*
X177641949Y-101568949D01*
X177512520Y-101675169D01*
X177364855Y-101754097D01*
X177204630Y-101802701D01*
X177079752Y-101815000D01*
X176996248Y-101815000D01*
X176871370Y-101802701D01*
X176711145Y-101754097D01*
X176563480Y-101675169D01*
X176434051Y-101568949D01*
X176327831Y-101439520D01*
X176248903Y-101291855D01*
X176200299Y-101131630D01*
X176183888Y-100965000D01*
X176200299Y-100798370D01*
X176248903Y-100638145D01*
X176327831Y-100490480D01*
X176434051Y-100361051D01*
X176563480Y-100254831D01*
X176711145Y-100175903D01*
X176871370Y-100127299D01*
X176996248Y-100115000D01*
X177079752Y-100115000D01*
X177204630Y-100127299D01*
X177204630Y-100127299D01*
G37*
G36*
X174664630Y-97587299D02*
X174824855Y-97635903D01*
X174972520Y-97714831D01*
X175101949Y-97821051D01*
X175208169Y-97950480D01*
X175287097Y-98098145D01*
X175335701Y-98258370D01*
X175352112Y-98425000D01*
X175335701Y-98591630D01*
X175287097Y-98751855D01*
X175208169Y-98899520D01*
X175101949Y-99028949D01*
X174972520Y-99135169D01*
X174824855Y-99214097D01*
X174664630Y-99262701D01*
X174539752Y-99275000D01*
X174456248Y-99275000D01*
X174331370Y-99262701D01*
X174171145Y-99214097D01*
X174023480Y-99135169D01*
X173894051Y-99028949D01*
X173787831Y-98899520D01*
X173708903Y-98751855D01*
X173660299Y-98591630D01*
X173643888Y-98425000D01*
X173660299Y-98258370D01*
X173708903Y-98098145D01*
X173787831Y-97950480D01*
X173894051Y-97821051D01*
X174023480Y-97714831D01*
X174171145Y-97635903D01*
X174331370Y-97587299D01*
X174456248Y-97575000D01*
X174539752Y-97575000D01*
X174664630Y-97587299D01*
X174664630Y-97587299D01*
G37*
G36*
X177204630Y-97587299D02*
X177364855Y-97635903D01*
X177512520Y-97714831D01*
X177641949Y-97821051D01*
X177748169Y-97950480D01*
X177827097Y-98098145D01*
X177875701Y-98258370D01*
X177892112Y-98425000D01*
X177875701Y-98591630D01*
X177827097Y-98751855D01*
X177748169Y-98899520D01*
X177641949Y-99028949D01*
X177512520Y-99135169D01*
X177364855Y-99214097D01*
X177204630Y-99262701D01*
X177079752Y-99275000D01*
X176996248Y-99275000D01*
X176871370Y-99262701D01*
X176711145Y-99214097D01*
X176563480Y-99135169D01*
X176434051Y-99028949D01*
X176327831Y-98899520D01*
X176248903Y-98751855D01*
X176200299Y-98591630D01*
X176183888Y-98425000D01*
X176200299Y-98258370D01*
X176248903Y-98098145D01*
X176327831Y-97950480D01*
X176434051Y-97821051D01*
X176563480Y-97714831D01*
X176711145Y-97635903D01*
X176871370Y-97587299D01*
X176996248Y-97575000D01*
X177079752Y-97575000D01*
X177204630Y-97587299D01*
X177204630Y-97587299D01*
G37*
G36*
X175348000Y-96735000D02*
X173648000Y-96735000D01*
X173648000Y-95035000D01*
X175348000Y-95035000D01*
X175348000Y-96735000D01*
X175348000Y-96735000D01*
G37*
G36*
X177204630Y-95047299D02*
X177364855Y-95095903D01*
X177512520Y-95174831D01*
X177641949Y-95281051D01*
X177748169Y-95410480D01*
X177827097Y-95558145D01*
X177875701Y-95718370D01*
X177892112Y-95885000D01*
X177875701Y-96051630D01*
X177827097Y-96211855D01*
X177748169Y-96359520D01*
X177641949Y-96488949D01*
X177512520Y-96595169D01*
X177364855Y-96674097D01*
X177204630Y-96722701D01*
X177079752Y-96735000D01*
X176996248Y-96735000D01*
X176871370Y-96722701D01*
X176711145Y-96674097D01*
X176563480Y-96595169D01*
X176434051Y-96488949D01*
X176327831Y-96359520D01*
X176248903Y-96211855D01*
X176200299Y-96051630D01*
X176183888Y-95885000D01*
X176200299Y-95718370D01*
X176248903Y-95558145D01*
X176327831Y-95410480D01*
X176434051Y-95281051D01*
X176563480Y-95174831D01*
X176711145Y-95095903D01*
X176871370Y-95047299D01*
X176996248Y-95035000D01*
X177079752Y-95035000D01*
X177204630Y-95047299D01*
X177204630Y-95047299D01*
G37*
G36*
X114048456Y-92722251D02*
X114366936Y-92854170D01*
X114653560Y-93045686D01*
X114897314Y-93289440D01*
X115088830Y-93576064D01*
X115220749Y-93894544D01*
X115288000Y-94232640D01*
X115288000Y-94577360D01*
X115220749Y-94915456D01*
X115088830Y-95233936D01*
X114897314Y-95520560D01*
X114653560Y-95764314D01*
X114366936Y-95955830D01*
X114048456Y-96087749D01*
X113710360Y-96155000D01*
X113365640Y-96155000D01*
X113027544Y-96087749D01*
X112709064Y-95955830D01*
X112422440Y-95764314D01*
X112178686Y-95520560D01*
X111987170Y-95233936D01*
X111855251Y-94915456D01*
X111788000Y-94577360D01*
X111788000Y-94232640D01*
X111855251Y-93894544D01*
X111987170Y-93576064D01*
X112178686Y-93289440D01*
X112422440Y-93045686D01*
X112709064Y-92854170D01*
X113027544Y-92722251D01*
X113365640Y-92655000D01*
X113710360Y-92655000D01*
X114048456Y-92722251D01*
X114048456Y-92722251D01*
G37*
G36*
X177630712Y-88851088D02*
X178000510Y-89004263D01*
X178000513Y-89004265D01*
X178333325Y-89226643D01*
X178616357Y-89509675D01*
X178838735Y-89842487D01*
X178838737Y-89842490D01*
X178991912Y-90212288D01*
X179070000Y-90604864D01*
X179070000Y-91005136D01*
X178991912Y-91397712D01*
X178838737Y-91767510D01*
X178838735Y-91767513D01*
X178616357Y-92100325D01*
X178333325Y-92383357D01*
X178000513Y-92605735D01*
X178000510Y-92605737D01*
X177630712Y-92758912D01*
X177238136Y-92837000D01*
X176837864Y-92837000D01*
X176445288Y-92758912D01*
X176075490Y-92605737D01*
X176075487Y-92605735D01*
X175742675Y-92383357D01*
X175459643Y-92100325D01*
X175237265Y-91767513D01*
X175237263Y-91767510D01*
X175084088Y-91397712D01*
X175006000Y-91005136D01*
X175006000Y-90604864D01*
X175084088Y-90212288D01*
X175237263Y-89842490D01*
X175237265Y-89842487D01*
X175459643Y-89509675D01*
X175742675Y-89226643D01*
X176075487Y-89004265D01*
X176075490Y-89004263D01*
X176445288Y-88851088D01*
X176837864Y-88773000D01*
X177238136Y-88773000D01*
X177630712Y-88851088D01*
X177630712Y-88851088D01*
G37*
G36*
X119098000Y-90485000D02*
X117398000Y-90485000D01*
X117398000Y-88785000D01*
X119098000Y-88785000D01*
X119098000Y-90485000D01*
X119098000Y-90485000D01*
G37*
G36*
X116495934Y-88817664D02*
X116650627Y-88881740D01*
X116789847Y-88974764D01*
X116908236Y-89093153D01*
X117001260Y-89232373D01*
X117065336Y-89387066D01*
X117098000Y-89551281D01*
X117098000Y-89718719D01*
X117065336Y-89882934D01*
X117001260Y-90037627D01*
X116908236Y-90176847D01*
X116789847Y-90295236D01*
X116650627Y-90388260D01*
X116495934Y-90452336D01*
X116331719Y-90485000D01*
X116164281Y-90485000D01*
X116000066Y-90452336D01*
X115845373Y-90388260D01*
X115706153Y-90295236D01*
X115587764Y-90176847D01*
X115494740Y-90037627D01*
X115430664Y-89882934D01*
X115398000Y-89718719D01*
X115398000Y-89551281D01*
X115430664Y-89387066D01*
X115494740Y-89232373D01*
X115587764Y-89093153D01*
X115706153Y-88974764D01*
X115845373Y-88881740D01*
X116000066Y-88817664D01*
X116164281Y-88785000D01*
X116331719Y-88785000D01*
X116495934Y-88817664D01*
X116495934Y-88817664D01*
G37*
G36*
X118495934Y-86317664D02*
X118650627Y-86381740D01*
X118789847Y-86474764D01*
X118908236Y-86593153D01*
X119001260Y-86732373D01*
X119065336Y-86887066D01*
X119098000Y-87051281D01*
X119098000Y-87218719D01*
X119065336Y-87382934D01*
X119001260Y-87537627D01*
X118908236Y-87676847D01*
X118789847Y-87795236D01*
X118650627Y-87888260D01*
X118495934Y-87952336D01*
X118331719Y-87985000D01*
X118164281Y-87985000D01*
X118000066Y-87952336D01*
X117845373Y-87888260D01*
X117706153Y-87795236D01*
X117587764Y-87676847D01*
X117494740Y-87537627D01*
X117430664Y-87382934D01*
X117398000Y-87218719D01*
X117398000Y-87051281D01*
X117430664Y-86887066D01*
X117494740Y-86732373D01*
X117587764Y-86593153D01*
X117706153Y-86474764D01*
X117845373Y-86381740D01*
X118000066Y-86317664D01*
X118164281Y-86285000D01*
X118331719Y-86285000D01*
X118495934Y-86317664D01*
X118495934Y-86317664D01*
G37*
G36*
X116495934Y-86317664D02*
X116650627Y-86381740D01*
X116789847Y-86474764D01*
X116908236Y-86593153D01*
X117001260Y-86732373D01*
X117065336Y-86887066D01*
X117098000Y-87051281D01*
X117098000Y-87218719D01*
X117065336Y-87382934D01*
X117001260Y-87537627D01*
X116908236Y-87676847D01*
X116789847Y-87795236D01*
X116650627Y-87888260D01*
X116495934Y-87952336D01*
X116331719Y-87985000D01*
X116164281Y-87985000D01*
X116000066Y-87952336D01*
X115845373Y-87888260D01*
X115706153Y-87795236D01*
X115587764Y-87676847D01*
X115494740Y-87537627D01*
X115430664Y-87382934D01*
X115398000Y-87218719D01*
X115398000Y-87051281D01*
X115430664Y-86887066D01*
X115494740Y-86732373D01*
X115587764Y-86593153D01*
X115706153Y-86474764D01*
X115845373Y-86381740D01*
X116000066Y-86317664D01*
X116164281Y-86285000D01*
X116331719Y-86285000D01*
X116495934Y-86317664D01*
X116495934Y-86317664D01*
G37*
G36*
X129960630Y-86157299D02*
X130120855Y-86205903D01*
X130268520Y-86284831D01*
X130397949Y-86391051D01*
X130504169Y-86520480D01*
X130583097Y-86668145D01*
X130631701Y-86828370D01*
X130648112Y-86995000D01*
X130631701Y-87161630D01*
X130583097Y-87321855D01*
X130504169Y-87469520D01*
X130397949Y-87598949D01*
X130268520Y-87705169D01*
X130120855Y-87784097D01*
X129960630Y-87832701D01*
X129835752Y-87845000D01*
X129752248Y-87845000D01*
X129627370Y-87832701D01*
X129467145Y-87784097D01*
X129319480Y-87705169D01*
X129190051Y-87598949D01*
X129083831Y-87469520D01*
X129004903Y-87321855D01*
X128956299Y-87161630D01*
X128939888Y-86995000D01*
X128956299Y-86828370D01*
X129004903Y-86668145D01*
X129083831Y-86520480D01*
X129190051Y-86391051D01*
X129319480Y-86284831D01*
X129467145Y-86205903D01*
X129627370Y-86157299D01*
X129752248Y-86145000D01*
X129835752Y-86145000D01*
X129960630Y-86157299D01*
X129960630Y-86157299D01*
G37*
G36*
X132500630Y-86157299D02*
X132660855Y-86205903D01*
X132808520Y-86284831D01*
X132937949Y-86391051D01*
X133044169Y-86520480D01*
X133123097Y-86668145D01*
X133171701Y-86828370D01*
X133188112Y-86995000D01*
X133171701Y-87161630D01*
X133123097Y-87321855D01*
X133044169Y-87469520D01*
X132937949Y-87598949D01*
X132808520Y-87705169D01*
X132660855Y-87784097D01*
X132500630Y-87832701D01*
X132375752Y-87845000D01*
X132292248Y-87845000D01*
X132167370Y-87832701D01*
X132007145Y-87784097D01*
X131859480Y-87705169D01*
X131730051Y-87598949D01*
X131623831Y-87469520D01*
X131544903Y-87321855D01*
X131496299Y-87161630D01*
X131479888Y-86995000D01*
X131496299Y-86828370D01*
X131544903Y-86668145D01*
X131623831Y-86520480D01*
X131730051Y-86391051D01*
X131859480Y-86284831D01*
X132007145Y-86205903D01*
X132167370Y-86157299D01*
X132292248Y-86145000D01*
X132375752Y-86145000D01*
X132500630Y-86157299D01*
X132500630Y-86157299D01*
G37*
G36*
X133184000Y-85305000D02*
X131484000Y-85305000D01*
X131484000Y-83605000D01*
X133184000Y-83605000D01*
X133184000Y-85305000D01*
X133184000Y-85305000D01*
G37*
G36*
X129960630Y-83617299D02*
X130120855Y-83665903D01*
X130268520Y-83744831D01*
X130397949Y-83851051D01*
X130504169Y-83980480D01*
X130583097Y-84128145D01*
X130631701Y-84288370D01*
X130648112Y-84455000D01*
X130631701Y-84621630D01*
X130583097Y-84781855D01*
X130504169Y-84929520D01*
X130397949Y-85058949D01*
X130268520Y-85165169D01*
X130120855Y-85244097D01*
X129960630Y-85292701D01*
X129835752Y-85305000D01*
X129752248Y-85305000D01*
X129627370Y-85292701D01*
X129467145Y-85244097D01*
X129319480Y-85165169D01*
X129190051Y-85058949D01*
X129083831Y-84929520D01*
X129004903Y-84781855D01*
X128956299Y-84621630D01*
X128939888Y-84455000D01*
X128956299Y-84288370D01*
X129004903Y-84128145D01*
X129083831Y-83980480D01*
X129190051Y-83851051D01*
X129319480Y-83744831D01*
X129467145Y-83665903D01*
X129627370Y-83617299D01*
X129752248Y-83605000D01*
X129835752Y-83605000D01*
X129960630Y-83617299D01*
X129960630Y-83617299D01*
G37*
G36*
X120104000Y-85205000D02*
X119104000Y-85205000D01*
X119104000Y-83705000D01*
X120104000Y-83705000D01*
X120104000Y-85205000D01*
X120104000Y-85205000D01*
G37*
G36*
X121404000Y-85205000D02*
X120404000Y-85205000D01*
X120404000Y-83705000D01*
X121404000Y-83705000D01*
X121404000Y-85205000D01*
X121404000Y-85205000D01*
G37*
G36*
X114048456Y-80682251D02*
X114366936Y-80814170D01*
X114653560Y-81005686D01*
X114897314Y-81249440D01*
X115088830Y-81536064D01*
X115220749Y-81854544D01*
X115288000Y-82192640D01*
X115288000Y-82537360D01*
X115220749Y-82875456D01*
X115088830Y-83193936D01*
X114897314Y-83480560D01*
X114653560Y-83724314D01*
X114366936Y-83915830D01*
X114048456Y-84047749D01*
X113710360Y-84115000D01*
X113365640Y-84115000D01*
X113027544Y-84047749D01*
X112709064Y-83915830D01*
X112422440Y-83724314D01*
X112178686Y-83480560D01*
X111987170Y-83193936D01*
X111855251Y-82875456D01*
X111788000Y-82537360D01*
X111788000Y-82192640D01*
X111855251Y-81854544D01*
X111987170Y-81536064D01*
X112178686Y-81249440D01*
X112422440Y-81005686D01*
X112709064Y-80814170D01*
X113027544Y-80682251D01*
X113365640Y-80615000D01*
X113710360Y-80615000D01*
X114048456Y-80682251D01*
X114048456Y-80682251D01*
G37*
G36*
X129960630Y-81077299D02*
X130120855Y-81125903D01*
X130268520Y-81204831D01*
X130397949Y-81311051D01*
X130504169Y-81440480D01*
X130583097Y-81588145D01*
X130631701Y-81748370D01*
X130648112Y-81915000D01*
X130631701Y-82081630D01*
X130583097Y-82241855D01*
X130504169Y-82389520D01*
X130397949Y-82518949D01*
X130268520Y-82625169D01*
X130120855Y-82704097D01*
X129960630Y-82752701D01*
X129835752Y-82765000D01*
X129752248Y-82765000D01*
X129627370Y-82752701D01*
X129467145Y-82704097D01*
X129319480Y-82625169D01*
X129190051Y-82518949D01*
X129083831Y-82389520D01*
X129004903Y-82241855D01*
X128956299Y-82081630D01*
X128939888Y-81915000D01*
X128956299Y-81748370D01*
X129004903Y-81588145D01*
X129083831Y-81440480D01*
X129190051Y-81311051D01*
X129319480Y-81204831D01*
X129467145Y-81125903D01*
X129627370Y-81077299D01*
X129752248Y-81065000D01*
X129835752Y-81065000D01*
X129960630Y-81077299D01*
X129960630Y-81077299D01*
G37*
G36*
X132500630Y-81077299D02*
X132660855Y-81125903D01*
X132808520Y-81204831D01*
X132937949Y-81311051D01*
X133044169Y-81440480D01*
X133123097Y-81588145D01*
X133171701Y-81748370D01*
X133188112Y-81915000D01*
X133171701Y-82081630D01*
X133123097Y-82241855D01*
X133044169Y-82389520D01*
X132937949Y-82518949D01*
X132808520Y-82625169D01*
X132660855Y-82704097D01*
X132500630Y-82752701D01*
X132375752Y-82765000D01*
X132292248Y-82765000D01*
X132167370Y-82752701D01*
X132007145Y-82704097D01*
X131859480Y-82625169D01*
X131730051Y-82518949D01*
X131623831Y-82389520D01*
X131544903Y-82241855D01*
X131496299Y-82081630D01*
X131479888Y-81915000D01*
X131496299Y-81748370D01*
X131544903Y-81588145D01*
X131623831Y-81440480D01*
X131730051Y-81311051D01*
X131859480Y-81204831D01*
X132007145Y-81125903D01*
X132167370Y-81077299D01*
X132292248Y-81065000D01*
X132375752Y-81065000D01*
X132500630Y-81077299D01*
X132500630Y-81077299D01*
G37*
G36*
X127420630Y-81077299D02*
X127580855Y-81125903D01*
X127728520Y-81204831D01*
X127857949Y-81311051D01*
X127964169Y-81440480D01*
X128043097Y-81588145D01*
X128091701Y-81748370D01*
X128108112Y-81915000D01*
X128091701Y-82081630D01*
X128043097Y-82241855D01*
X127964169Y-82389520D01*
X127857949Y-82518949D01*
X127728520Y-82625169D01*
X127580855Y-82704097D01*
X127420630Y-82752701D01*
X127295752Y-82765000D01*
X127212248Y-82765000D01*
X127087370Y-82752701D01*
X126927145Y-82704097D01*
X126779480Y-82625169D01*
X126650051Y-82518949D01*
X126543831Y-82389520D01*
X126464903Y-82241855D01*
X126416299Y-82081630D01*
X126399888Y-81915000D01*
X126416299Y-81748370D01*
X126464903Y-81588145D01*
X126543831Y-81440480D01*
X126650051Y-81311051D01*
X126779480Y-81204831D01*
X126927145Y-81125903D01*
X127087370Y-81077299D01*
X127212248Y-81065000D01*
X127295752Y-81065000D01*
X127420630Y-81077299D01*
X127420630Y-81077299D01*
G37*
G36*
X133184000Y-80225000D02*
X131484000Y-80225000D01*
X131484000Y-78525000D01*
X133184000Y-78525000D01*
X133184000Y-80225000D01*
X133184000Y-80225000D01*
G37*
G36*
X129960630Y-78537299D02*
X130120855Y-78585903D01*
X130268520Y-78664831D01*
X130397949Y-78771051D01*
X130504169Y-78900480D01*
X130583097Y-79048145D01*
X130631701Y-79208370D01*
X130648112Y-79375000D01*
X130631701Y-79541630D01*
X130583097Y-79701855D01*
X130504169Y-79849520D01*
X130397949Y-79978949D01*
X130268520Y-80085169D01*
X130120855Y-80164097D01*
X129960630Y-80212701D01*
X129835752Y-80225000D01*
X129752248Y-80225000D01*
X129627370Y-80212701D01*
X129467145Y-80164097D01*
X129319480Y-80085169D01*
X129190051Y-79978949D01*
X129083831Y-79849520D01*
X129004903Y-79701855D01*
X128956299Y-79541630D01*
X128939888Y-79375000D01*
X128956299Y-79208370D01*
X129004903Y-79048145D01*
X129083831Y-78900480D01*
X129190051Y-78771051D01*
X129319480Y-78664831D01*
X129467145Y-78585903D01*
X129627370Y-78537299D01*
X129752248Y-78525000D01*
X129835752Y-78525000D01*
X129960630Y-78537299D01*
X129960630Y-78537299D01*
G37*
G36*
X127420630Y-78537299D02*
X127580855Y-78585903D01*
X127728520Y-78664831D01*
X127857949Y-78771051D01*
X127964169Y-78900480D01*
X128043097Y-79048145D01*
X128091701Y-79208370D01*
X128108112Y-79375000D01*
X128091701Y-79541630D01*
X128043097Y-79701855D01*
X127964169Y-79849520D01*
X127857949Y-79978949D01*
X127728520Y-80085169D01*
X127580855Y-80164097D01*
X127420630Y-80212701D01*
X127295752Y-80225000D01*
X127212248Y-80225000D01*
X127087370Y-80212701D01*
X126927145Y-80164097D01*
X126779480Y-80085169D01*
X126650051Y-79978949D01*
X126543831Y-79849520D01*
X126464903Y-79701855D01*
X126416299Y-79541630D01*
X126399888Y-79375000D01*
X126416299Y-79208370D01*
X126464903Y-79048145D01*
X126543831Y-78900480D01*
X126650051Y-78771051D01*
X126779480Y-78664831D01*
X126927145Y-78585903D01*
X127087370Y-78537299D01*
X127212248Y-78525000D01*
X127295752Y-78525000D01*
X127420630Y-78537299D01*
X127420630Y-78537299D01*
G37*
G36*
X126830712Y-73611088D02*
X127200510Y-73764263D01*
X127200513Y-73764265D01*
X127533325Y-73986643D01*
X127816357Y-74269675D01*
X128000204Y-74544822D01*
X128038737Y-74602490D01*
X128191912Y-74972288D01*
X128270000Y-75364864D01*
X128270000Y-75765136D01*
X128191912Y-76157712D01*
X128038737Y-76527510D01*
X128038735Y-76527513D01*
X127816357Y-76860325D01*
X127533325Y-77143357D01*
X127200513Y-77365735D01*
X127200510Y-77365737D01*
X126830712Y-77518912D01*
X126438136Y-77597000D01*
X126037864Y-77597000D01*
X125645288Y-77518912D01*
X125275490Y-77365737D01*
X125275487Y-77365735D01*
X124942675Y-77143357D01*
X124659643Y-76860325D01*
X124437265Y-76527513D01*
X124437263Y-76527510D01*
X124284088Y-76157712D01*
X124206000Y-75765136D01*
X124206000Y-75364864D01*
X124284088Y-74972288D01*
X124437263Y-74602490D01*
X124475796Y-74544822D01*
X124659643Y-74269675D01*
X124942675Y-73986643D01*
X125275487Y-73764265D01*
X125275490Y-73764263D01*
X125645288Y-73611088D01*
X126037864Y-73533000D01*
X126438136Y-73533000D01*
X126830712Y-73611088D01*
X126830712Y-73611088D01*
G37*
G36*
X137583294Y-74561496D02*
X137703726Y-74598029D01*
X137746087Y-74610879D01*
X137896112Y-74691068D01*
X138027612Y-74798988D01*
X138135532Y-74930488D01*
X138215721Y-75080512D01*
X138228571Y-75122873D01*
X138265104Y-75243305D01*
X138265104Y-75243307D01*
X138277600Y-75370179D01*
X138277600Y-75759820D01*
X138277076Y-75765136D01*
X138265104Y-75886694D01*
X138228571Y-76007128D01*
X138215721Y-76049488D01*
X138135532Y-76199512D01*
X138027612Y-76331012D01*
X137896112Y-76438932D01*
X137746088Y-76519121D01*
X137718433Y-76527510D01*
X137583295Y-76568504D01*
X137470432Y-76579620D01*
X137414001Y-76585178D01*
X137414000Y-76585178D01*
X137244706Y-76568504D01*
X137109568Y-76527510D01*
X137081913Y-76519121D01*
X136931889Y-76438932D01*
X136841946Y-76365117D01*
X136800388Y-76331012D01*
X136692469Y-76199512D01*
X136670127Y-76157713D01*
X136612279Y-76049488D01*
X136599429Y-76007127D01*
X136562896Y-75886695D01*
X136554565Y-75802112D01*
X136550400Y-75759821D01*
X136550400Y-75370180D01*
X136562896Y-75243308D01*
X136562896Y-75243306D01*
X136612278Y-75080517D01*
X136612279Y-75080513D01*
X136692468Y-74930488D01*
X136800388Y-74798988D01*
X136931888Y-74691068D01*
X137081912Y-74610879D01*
X137124273Y-74598029D01*
X137244705Y-74561496D01*
X137357568Y-74550380D01*
X137413999Y-74544822D01*
X137414000Y-74544822D01*
X137583294Y-74561496D01*
X137583294Y-74561496D01*
G37*
G36*
X161967294Y-74561496D02*
X162087726Y-74598029D01*
X162130087Y-74610879D01*
X162280112Y-74691068D01*
X162411612Y-74798988D01*
X162519532Y-74930488D01*
X162599721Y-75080512D01*
X162612571Y-75122873D01*
X162649104Y-75243305D01*
X162649104Y-75243307D01*
X162661600Y-75370179D01*
X162661600Y-75759820D01*
X162661076Y-75765136D01*
X162649104Y-75886694D01*
X162612571Y-76007128D01*
X162599721Y-76049488D01*
X162519532Y-76199512D01*
X162411612Y-76331012D01*
X162280112Y-76438932D01*
X162130088Y-76519121D01*
X162102433Y-76527510D01*
X161967295Y-76568504D01*
X161854432Y-76579620D01*
X161798001Y-76585178D01*
X161798000Y-76585178D01*
X161628706Y-76568504D01*
X161493568Y-76527510D01*
X161465913Y-76519121D01*
X161315889Y-76438932D01*
X161225946Y-76365117D01*
X161184388Y-76331012D01*
X161076469Y-76199512D01*
X161054127Y-76157713D01*
X160996279Y-76049488D01*
X160983429Y-76007127D01*
X160946896Y-75886695D01*
X160938565Y-75802112D01*
X160934400Y-75759821D01*
X160934400Y-75370180D01*
X160946896Y-75243308D01*
X160946896Y-75243306D01*
X160996278Y-75080517D01*
X160996279Y-75080513D01*
X161076468Y-74930488D01*
X161184388Y-74798988D01*
X161315888Y-74691068D01*
X161465912Y-74610879D01*
X161508273Y-74598029D01*
X161628705Y-74561496D01*
X161741568Y-74550380D01*
X161797999Y-74544822D01*
X161798000Y-74544822D01*
X161967294Y-74561496D01*
X161967294Y-74561496D01*
G37*
G36*
X164507294Y-74561496D02*
X164627726Y-74598029D01*
X164670087Y-74610879D01*
X164820112Y-74691068D01*
X164951612Y-74798988D01*
X165059532Y-74930488D01*
X165139721Y-75080512D01*
X165152571Y-75122873D01*
X165189104Y-75243305D01*
X165189104Y-75243307D01*
X165201600Y-75370179D01*
X165201600Y-75759820D01*
X165201076Y-75765136D01*
X165189104Y-75886694D01*
X165152571Y-76007128D01*
X165139721Y-76049488D01*
X165059532Y-76199512D01*
X164951612Y-76331012D01*
X164820112Y-76438932D01*
X164670088Y-76519121D01*
X164642433Y-76527510D01*
X164507295Y-76568504D01*
X164394432Y-76579620D01*
X164338001Y-76585178D01*
X164338000Y-76585178D01*
X164168706Y-76568504D01*
X164033568Y-76527510D01*
X164005913Y-76519121D01*
X163855889Y-76438932D01*
X163765946Y-76365117D01*
X163724388Y-76331012D01*
X163616469Y-76199512D01*
X163594127Y-76157713D01*
X163536279Y-76049488D01*
X163523429Y-76007127D01*
X163486896Y-75886695D01*
X163478565Y-75802112D01*
X163474400Y-75759821D01*
X163474400Y-75370180D01*
X163486896Y-75243308D01*
X163486896Y-75243306D01*
X163536278Y-75080517D01*
X163536279Y-75080513D01*
X163616468Y-74930488D01*
X163724388Y-74798988D01*
X163855888Y-74691068D01*
X164005912Y-74610879D01*
X164048273Y-74598029D01*
X164168705Y-74561496D01*
X164281568Y-74550380D01*
X164337999Y-74544822D01*
X164338000Y-74544822D01*
X164507294Y-74561496D01*
X164507294Y-74561496D01*
G37*
G36*
X167047294Y-74561496D02*
X167167726Y-74598029D01*
X167210087Y-74610879D01*
X167360112Y-74691068D01*
X167491612Y-74798988D01*
X167599532Y-74930488D01*
X167679721Y-75080512D01*
X167692571Y-75122873D01*
X167729104Y-75243305D01*
X167729104Y-75243307D01*
X167741600Y-75370179D01*
X167741600Y-75759820D01*
X167741076Y-75765136D01*
X167729104Y-75886694D01*
X167692571Y-76007128D01*
X167679721Y-76049488D01*
X167599532Y-76199512D01*
X167491612Y-76331012D01*
X167360112Y-76438932D01*
X167210088Y-76519121D01*
X167182433Y-76527510D01*
X167047295Y-76568504D01*
X166934432Y-76579620D01*
X166878001Y-76585178D01*
X166878000Y-76585178D01*
X166708706Y-76568504D01*
X166573568Y-76527510D01*
X166545913Y-76519121D01*
X166395889Y-76438932D01*
X166305946Y-76365117D01*
X166264388Y-76331012D01*
X166156469Y-76199512D01*
X166134127Y-76157713D01*
X166076279Y-76049488D01*
X166063429Y-76007127D01*
X166026896Y-75886695D01*
X166018565Y-75802112D01*
X166014400Y-75759821D01*
X166014400Y-75370180D01*
X166026896Y-75243308D01*
X166026896Y-75243306D01*
X166076278Y-75080517D01*
X166076279Y-75080513D01*
X166156468Y-74930488D01*
X166264388Y-74798988D01*
X166395888Y-74691068D01*
X166545912Y-74610879D01*
X166588273Y-74598029D01*
X166708705Y-74561496D01*
X166821568Y-74550380D01*
X166877999Y-74544822D01*
X166878000Y-74544822D01*
X167047294Y-74561496D01*
X167047294Y-74561496D01*
G37*
G36*
X129963294Y-74561496D02*
X130083726Y-74598029D01*
X130126087Y-74610879D01*
X130276112Y-74691068D01*
X130407612Y-74798988D01*
X130515532Y-74930488D01*
X130595721Y-75080512D01*
X130608571Y-75122873D01*
X130645104Y-75243305D01*
X130645104Y-75243307D01*
X130657600Y-75370179D01*
X130657600Y-75759820D01*
X130657076Y-75765136D01*
X130645104Y-75886694D01*
X130608571Y-76007128D01*
X130595721Y-76049488D01*
X130515532Y-76199512D01*
X130407612Y-76331012D01*
X130276112Y-76438932D01*
X130126088Y-76519121D01*
X130098433Y-76527510D01*
X129963295Y-76568504D01*
X129850432Y-76579620D01*
X129794001Y-76585178D01*
X129794000Y-76585178D01*
X129624706Y-76568504D01*
X129489568Y-76527510D01*
X129461913Y-76519121D01*
X129311889Y-76438932D01*
X129221946Y-76365117D01*
X129180388Y-76331012D01*
X129072469Y-76199512D01*
X129050127Y-76157713D01*
X128992279Y-76049488D01*
X128979429Y-76007127D01*
X128942896Y-75886695D01*
X128934565Y-75802112D01*
X128930400Y-75759821D01*
X128930400Y-75370180D01*
X128942896Y-75243308D01*
X128942896Y-75243306D01*
X128992278Y-75080517D01*
X128992279Y-75080513D01*
X129072468Y-74930488D01*
X129180388Y-74798988D01*
X129311888Y-74691068D01*
X129461912Y-74610879D01*
X129504273Y-74598029D01*
X129624705Y-74561496D01*
X129737568Y-74550380D01*
X129793999Y-74544822D01*
X129794000Y-74544822D01*
X129963294Y-74561496D01*
X129963294Y-74561496D01*
G37*
G36*
X132503294Y-74561496D02*
X132623726Y-74598029D01*
X132666087Y-74610879D01*
X132816112Y-74691068D01*
X132947612Y-74798988D01*
X133055532Y-74930488D01*
X133135721Y-75080512D01*
X133148571Y-75122873D01*
X133185104Y-75243305D01*
X133185104Y-75243307D01*
X133197600Y-75370179D01*
X133197600Y-75759820D01*
X133197076Y-75765136D01*
X133185104Y-75886694D01*
X133148571Y-76007128D01*
X133135721Y-76049488D01*
X133055532Y-76199512D01*
X132947612Y-76331012D01*
X132816112Y-76438932D01*
X132666088Y-76519121D01*
X132638433Y-76527510D01*
X132503295Y-76568504D01*
X132390432Y-76579620D01*
X132334001Y-76585178D01*
X132334000Y-76585178D01*
X132164706Y-76568504D01*
X132029568Y-76527510D01*
X132001913Y-76519121D01*
X131851889Y-76438932D01*
X131761946Y-76365117D01*
X131720388Y-76331012D01*
X131612469Y-76199512D01*
X131590127Y-76157713D01*
X131532279Y-76049488D01*
X131519429Y-76007127D01*
X131482896Y-75886695D01*
X131474565Y-75802112D01*
X131470400Y-75759821D01*
X131470400Y-75370180D01*
X131482896Y-75243308D01*
X131482896Y-75243306D01*
X131532278Y-75080517D01*
X131532279Y-75080513D01*
X131612468Y-74930488D01*
X131720388Y-74798988D01*
X131851888Y-74691068D01*
X132001912Y-74610879D01*
X132044273Y-74598029D01*
X132164705Y-74561496D01*
X132277568Y-74550380D01*
X132333999Y-74544822D01*
X132334000Y-74544822D01*
X132503294Y-74561496D01*
X132503294Y-74561496D01*
G37*
G36*
X135043294Y-74561496D02*
X135163726Y-74598029D01*
X135206087Y-74610879D01*
X135356112Y-74691068D01*
X135487612Y-74798988D01*
X135595532Y-74930488D01*
X135675721Y-75080512D01*
X135688571Y-75122873D01*
X135725104Y-75243305D01*
X135725104Y-75243307D01*
X135737600Y-75370179D01*
X135737600Y-75759820D01*
X135737076Y-75765136D01*
X135725104Y-75886694D01*
X135688571Y-76007128D01*
X135675721Y-76049488D01*
X135595532Y-76199512D01*
X135487612Y-76331012D01*
X135356112Y-76438932D01*
X135206088Y-76519121D01*
X135178433Y-76527510D01*
X135043295Y-76568504D01*
X134930432Y-76579620D01*
X134874001Y-76585178D01*
X134874000Y-76585178D01*
X134704706Y-76568504D01*
X134569568Y-76527510D01*
X134541913Y-76519121D01*
X134391889Y-76438932D01*
X134301946Y-76365117D01*
X134260388Y-76331012D01*
X134152469Y-76199512D01*
X134130127Y-76157713D01*
X134072279Y-76049488D01*
X134059429Y-76007127D01*
X134022896Y-75886695D01*
X134014565Y-75802112D01*
X134010400Y-75759821D01*
X134010400Y-75370180D01*
X134022896Y-75243308D01*
X134022896Y-75243306D01*
X134072278Y-75080517D01*
X134072279Y-75080513D01*
X134152468Y-74930488D01*
X134260388Y-74798988D01*
X134391888Y-74691068D01*
X134541912Y-74610879D01*
X134584273Y-74598029D01*
X134704705Y-74561496D01*
X134817568Y-74550380D01*
X134873999Y-74544822D01*
X134874000Y-74544822D01*
X135043294Y-74561496D01*
X135043294Y-74561496D01*
G37*
G36*
X159427294Y-74561496D02*
X159547726Y-74598029D01*
X159590087Y-74610879D01*
X159740112Y-74691068D01*
X159871612Y-74798988D01*
X159979532Y-74930488D01*
X160059721Y-75080512D01*
X160072571Y-75122873D01*
X160109104Y-75243305D01*
X160109104Y-75243307D01*
X160121600Y-75370179D01*
X160121600Y-75759820D01*
X160121076Y-75765136D01*
X160109104Y-75886694D01*
X160072571Y-76007128D01*
X160059721Y-76049488D01*
X159979532Y-76199512D01*
X159871612Y-76331012D01*
X159740112Y-76438932D01*
X159590088Y-76519121D01*
X159562433Y-76527510D01*
X159427295Y-76568504D01*
X159314432Y-76579620D01*
X159258001Y-76585178D01*
X159258000Y-76585178D01*
X159088706Y-76568504D01*
X158953568Y-76527510D01*
X158925913Y-76519121D01*
X158775889Y-76438932D01*
X158685946Y-76365117D01*
X158644388Y-76331012D01*
X158536469Y-76199512D01*
X158514127Y-76157713D01*
X158456279Y-76049488D01*
X158443429Y-76007127D01*
X158406896Y-75886695D01*
X158398565Y-75802112D01*
X158394400Y-75759821D01*
X158394400Y-75370180D01*
X158406896Y-75243308D01*
X158406896Y-75243306D01*
X158456278Y-75080517D01*
X158456279Y-75080513D01*
X158536468Y-74930488D01*
X158644388Y-74798988D01*
X158775888Y-74691068D01*
X158925912Y-74610879D01*
X158968273Y-74598029D01*
X159088705Y-74561496D01*
X159201568Y-74550380D01*
X159257999Y-74544822D01*
X159258000Y-74544822D01*
X159427294Y-74561496D01*
X159427294Y-74561496D01*
G37*
G36*
X142663294Y-74561496D02*
X142783726Y-74598029D01*
X142826087Y-74610879D01*
X142976112Y-74691068D01*
X143107612Y-74798988D01*
X143215532Y-74930488D01*
X143295721Y-75080512D01*
X143308571Y-75122873D01*
X143345104Y-75243305D01*
X143345104Y-75243307D01*
X143357600Y-75370179D01*
X143357600Y-75759820D01*
X143357076Y-75765136D01*
X143345104Y-75886694D01*
X143308571Y-76007128D01*
X143295721Y-76049488D01*
X143215532Y-76199512D01*
X143107612Y-76331012D01*
X142976112Y-76438932D01*
X142826088Y-76519121D01*
X142798433Y-76527510D01*
X142663295Y-76568504D01*
X142550432Y-76579620D01*
X142494001Y-76585178D01*
X142494000Y-76585178D01*
X142324706Y-76568504D01*
X142189568Y-76527510D01*
X142161913Y-76519121D01*
X142011889Y-76438932D01*
X141921946Y-76365117D01*
X141880388Y-76331012D01*
X141772469Y-76199512D01*
X141750127Y-76157713D01*
X141692279Y-76049488D01*
X141679429Y-76007127D01*
X141642896Y-75886695D01*
X141634565Y-75802112D01*
X141630400Y-75759821D01*
X141630400Y-75370180D01*
X141642896Y-75243308D01*
X141642896Y-75243306D01*
X141692278Y-75080517D01*
X141692279Y-75080513D01*
X141772468Y-74930488D01*
X141880388Y-74798988D01*
X142011888Y-74691068D01*
X142161912Y-74610879D01*
X142204273Y-74598029D01*
X142324705Y-74561496D01*
X142437568Y-74550380D01*
X142493999Y-74544822D01*
X142494000Y-74544822D01*
X142663294Y-74561496D01*
X142663294Y-74561496D01*
G37*
G36*
X145203294Y-74561496D02*
X145323726Y-74598029D01*
X145366087Y-74610879D01*
X145516112Y-74691068D01*
X145647612Y-74798988D01*
X145755532Y-74930488D01*
X145835721Y-75080512D01*
X145848571Y-75122873D01*
X145885104Y-75243305D01*
X145885104Y-75243307D01*
X145897600Y-75370179D01*
X145897600Y-75759820D01*
X145897076Y-75765136D01*
X145885104Y-75886694D01*
X145848571Y-76007128D01*
X145835721Y-76049488D01*
X145755532Y-76199512D01*
X145647612Y-76331012D01*
X145516112Y-76438932D01*
X145366088Y-76519121D01*
X145338433Y-76527510D01*
X145203295Y-76568504D01*
X145090432Y-76579620D01*
X145034001Y-76585178D01*
X145034000Y-76585178D01*
X144864706Y-76568504D01*
X144729568Y-76527510D01*
X144701913Y-76519121D01*
X144551889Y-76438932D01*
X144461946Y-76365117D01*
X144420388Y-76331012D01*
X144312469Y-76199512D01*
X144290127Y-76157713D01*
X144232279Y-76049488D01*
X144219429Y-76007127D01*
X144182896Y-75886695D01*
X144174565Y-75802112D01*
X144170400Y-75759821D01*
X144170400Y-75370180D01*
X144182896Y-75243308D01*
X144182896Y-75243306D01*
X144232278Y-75080517D01*
X144232279Y-75080513D01*
X144312468Y-74930488D01*
X144420388Y-74798988D01*
X144551888Y-74691068D01*
X144701912Y-74610879D01*
X144744273Y-74598029D01*
X144864705Y-74561496D01*
X144977568Y-74550380D01*
X145033999Y-74544822D01*
X145034000Y-74544822D01*
X145203294Y-74561496D01*
X145203294Y-74561496D01*
G37*
G36*
X147743294Y-74561496D02*
X147863726Y-74598029D01*
X147906087Y-74610879D01*
X148056112Y-74691068D01*
X148187612Y-74798988D01*
X148295532Y-74930488D01*
X148375721Y-75080512D01*
X148388571Y-75122873D01*
X148425104Y-75243305D01*
X148425104Y-75243307D01*
X148437600Y-75370179D01*
X148437600Y-75759820D01*
X148437076Y-75765136D01*
X148425104Y-75886694D01*
X148388571Y-76007128D01*
X148375721Y-76049488D01*
X148295532Y-76199512D01*
X148187612Y-76331012D01*
X148056112Y-76438932D01*
X147906088Y-76519121D01*
X147878433Y-76527510D01*
X147743295Y-76568504D01*
X147630432Y-76579620D01*
X147574001Y-76585178D01*
X147574000Y-76585178D01*
X147404706Y-76568504D01*
X147269568Y-76527510D01*
X147241913Y-76519121D01*
X147091889Y-76438932D01*
X147001946Y-76365117D01*
X146960388Y-76331012D01*
X146852469Y-76199512D01*
X146830127Y-76157713D01*
X146772279Y-76049488D01*
X146759429Y-76007127D01*
X146722896Y-75886695D01*
X146714565Y-75802112D01*
X146710400Y-75759821D01*
X146710400Y-75370180D01*
X146722896Y-75243308D01*
X146722896Y-75243306D01*
X146772278Y-75080517D01*
X146772279Y-75080513D01*
X146852468Y-74930488D01*
X146960388Y-74798988D01*
X147091888Y-74691068D01*
X147241912Y-74610879D01*
X147284273Y-74598029D01*
X147404705Y-74561496D01*
X147517568Y-74550380D01*
X147573999Y-74544822D01*
X147574000Y-74544822D01*
X147743294Y-74561496D01*
X147743294Y-74561496D01*
G37*
G36*
X150283294Y-74561496D02*
X150403726Y-74598029D01*
X150446087Y-74610879D01*
X150596112Y-74691068D01*
X150727612Y-74798988D01*
X150835532Y-74930488D01*
X150915721Y-75080512D01*
X150928571Y-75122873D01*
X150965104Y-75243305D01*
X150965104Y-75243307D01*
X150977600Y-75370179D01*
X150977600Y-75759820D01*
X150977076Y-75765136D01*
X150965104Y-75886694D01*
X150928571Y-76007128D01*
X150915721Y-76049488D01*
X150835532Y-76199512D01*
X150727612Y-76331012D01*
X150596112Y-76438932D01*
X150446088Y-76519121D01*
X150418433Y-76527510D01*
X150283295Y-76568504D01*
X150170432Y-76579620D01*
X150114001Y-76585178D01*
X150114000Y-76585178D01*
X149944706Y-76568504D01*
X149809568Y-76527510D01*
X149781913Y-76519121D01*
X149631889Y-76438932D01*
X149541946Y-76365117D01*
X149500388Y-76331012D01*
X149392469Y-76199512D01*
X149370127Y-76157713D01*
X149312279Y-76049488D01*
X149299429Y-76007127D01*
X149262896Y-75886695D01*
X149254565Y-75802112D01*
X149250400Y-75759821D01*
X149250400Y-75370180D01*
X149262896Y-75243308D01*
X149262896Y-75243306D01*
X149312278Y-75080517D01*
X149312279Y-75080513D01*
X149392468Y-74930488D01*
X149500388Y-74798988D01*
X149631888Y-74691068D01*
X149781912Y-74610879D01*
X149824273Y-74598029D01*
X149944705Y-74561496D01*
X150057568Y-74550380D01*
X150113999Y-74544822D01*
X150114000Y-74544822D01*
X150283294Y-74561496D01*
X150283294Y-74561496D01*
G37*
G36*
X156887294Y-74561496D02*
X157007726Y-74598029D01*
X157050087Y-74610879D01*
X157200112Y-74691068D01*
X157331612Y-74798988D01*
X157439532Y-74930488D01*
X157519721Y-75080512D01*
X157532571Y-75122873D01*
X157569104Y-75243305D01*
X157569104Y-75243307D01*
X157581600Y-75370179D01*
X157581600Y-75759820D01*
X157581076Y-75765136D01*
X157569104Y-75886694D01*
X157532571Y-76007128D01*
X157519721Y-76049488D01*
X157439532Y-76199512D01*
X157331612Y-76331012D01*
X157200112Y-76438932D01*
X157050088Y-76519121D01*
X157022433Y-76527510D01*
X156887295Y-76568504D01*
X156774432Y-76579620D01*
X156718001Y-76585178D01*
X156718000Y-76585178D01*
X156548706Y-76568504D01*
X156413568Y-76527510D01*
X156385913Y-76519121D01*
X156235889Y-76438932D01*
X156145946Y-76365117D01*
X156104388Y-76331012D01*
X155996469Y-76199512D01*
X155974127Y-76157713D01*
X155916279Y-76049488D01*
X155903429Y-76007127D01*
X155866896Y-75886695D01*
X155858565Y-75802112D01*
X155854400Y-75759821D01*
X155854400Y-75370180D01*
X155866896Y-75243308D01*
X155866896Y-75243306D01*
X155916278Y-75080517D01*
X155916279Y-75080513D01*
X155996468Y-74930488D01*
X156104388Y-74798988D01*
X156235888Y-74691068D01*
X156385912Y-74610879D01*
X156428273Y-74598029D01*
X156548705Y-74561496D01*
X156661568Y-74550380D01*
X156717999Y-74544822D01*
X156718000Y-74544822D01*
X156887294Y-74561496D01*
X156887294Y-74561496D01*
G37*
G36*
X140123294Y-74561496D02*
X140243726Y-74598029D01*
X140286087Y-74610879D01*
X140436112Y-74691068D01*
X140567612Y-74798988D01*
X140675532Y-74930488D01*
X140755721Y-75080512D01*
X140768571Y-75122873D01*
X140805104Y-75243305D01*
X140805104Y-75243307D01*
X140817600Y-75370179D01*
X140817600Y-75759820D01*
X140817076Y-75765136D01*
X140805104Y-75886694D01*
X140768571Y-76007128D01*
X140755721Y-76049488D01*
X140675532Y-76199512D01*
X140567612Y-76331012D01*
X140436112Y-76438932D01*
X140286088Y-76519121D01*
X140258433Y-76527510D01*
X140123295Y-76568504D01*
X140010432Y-76579620D01*
X139954001Y-76585178D01*
X139954000Y-76585178D01*
X139784706Y-76568504D01*
X139649568Y-76527510D01*
X139621913Y-76519121D01*
X139471889Y-76438932D01*
X139381946Y-76365117D01*
X139340388Y-76331012D01*
X139232469Y-76199512D01*
X139210127Y-76157713D01*
X139152279Y-76049488D01*
X139139429Y-76007127D01*
X139102896Y-75886695D01*
X139094565Y-75802112D01*
X139090400Y-75759821D01*
X139090400Y-75370180D01*
X139102896Y-75243308D01*
X139102896Y-75243306D01*
X139152278Y-75080517D01*
X139152279Y-75080513D01*
X139232468Y-74930488D01*
X139340388Y-74798988D01*
X139471888Y-74691068D01*
X139621912Y-74610879D01*
X139664273Y-74598029D01*
X139784705Y-74561496D01*
X139897568Y-74550380D01*
X139953999Y-74544822D01*
X139954000Y-74544822D01*
X140123294Y-74561496D01*
X140123294Y-74561496D01*
G37*
G36*
X172127294Y-74561496D02*
X172247726Y-74598029D01*
X172290087Y-74610879D01*
X172440112Y-74691068D01*
X172571612Y-74798988D01*
X172679532Y-74930488D01*
X172759721Y-75080512D01*
X172772571Y-75122873D01*
X172809104Y-75243305D01*
X172809104Y-75243307D01*
X172821600Y-75370179D01*
X172821600Y-75759820D01*
X172821076Y-75765136D01*
X172809104Y-75886694D01*
X172772571Y-76007128D01*
X172759721Y-76049488D01*
X172679532Y-76199512D01*
X172571612Y-76331012D01*
X172440112Y-76438932D01*
X172290088Y-76519121D01*
X172262433Y-76527510D01*
X172127295Y-76568504D01*
X172014432Y-76579620D01*
X171958001Y-76585178D01*
X171958000Y-76585178D01*
X171788706Y-76568504D01*
X171653568Y-76527510D01*
X171625913Y-76519121D01*
X171475889Y-76438932D01*
X171385946Y-76365117D01*
X171344388Y-76331012D01*
X171236469Y-76199512D01*
X171214127Y-76157713D01*
X171156279Y-76049488D01*
X171143429Y-76007127D01*
X171106896Y-75886695D01*
X171098565Y-75802112D01*
X171094400Y-75759821D01*
X171094400Y-75370180D01*
X171106896Y-75243308D01*
X171106896Y-75243306D01*
X171156278Y-75080517D01*
X171156279Y-75080513D01*
X171236468Y-74930488D01*
X171344388Y-74798988D01*
X171475888Y-74691068D01*
X171625912Y-74610879D01*
X171668273Y-74598029D01*
X171788705Y-74561496D01*
X171901568Y-74550380D01*
X171957999Y-74544822D01*
X171958000Y-74544822D01*
X172127294Y-74561496D01*
X172127294Y-74561496D01*
G37*
G36*
X174667294Y-74561496D02*
X174787726Y-74598029D01*
X174830087Y-74610879D01*
X174980112Y-74691068D01*
X175111612Y-74798988D01*
X175219532Y-74930488D01*
X175299721Y-75080512D01*
X175312571Y-75122873D01*
X175349104Y-75243305D01*
X175349104Y-75243307D01*
X175361600Y-75370179D01*
X175361600Y-75759820D01*
X175361076Y-75765136D01*
X175349104Y-75886694D01*
X175312571Y-76007128D01*
X175299721Y-76049488D01*
X175219532Y-76199512D01*
X175111612Y-76331012D01*
X174980112Y-76438932D01*
X174830088Y-76519121D01*
X174802433Y-76527510D01*
X174667295Y-76568504D01*
X174554432Y-76579620D01*
X174498001Y-76585178D01*
X174498000Y-76585178D01*
X174328706Y-76568504D01*
X174193568Y-76527510D01*
X174165913Y-76519121D01*
X174015889Y-76438932D01*
X173925946Y-76365117D01*
X173884388Y-76331012D01*
X173776469Y-76199512D01*
X173754127Y-76157713D01*
X173696279Y-76049488D01*
X173683429Y-76007127D01*
X173646896Y-75886695D01*
X173638565Y-75802112D01*
X173634400Y-75759821D01*
X173634400Y-75370180D01*
X173646896Y-75243308D01*
X173646896Y-75243306D01*
X173696278Y-75080517D01*
X173696279Y-75080513D01*
X173776468Y-74930488D01*
X173884388Y-74798988D01*
X174015888Y-74691068D01*
X174165912Y-74610879D01*
X174208273Y-74598029D01*
X174328705Y-74561496D01*
X174441568Y-74550380D01*
X174497999Y-74544822D01*
X174498000Y-74544822D01*
X174667294Y-74561496D01*
X174667294Y-74561496D01*
G37*
G36*
X152823294Y-74561496D02*
X152943726Y-74598029D01*
X152986087Y-74610879D01*
X153136112Y-74691068D01*
X153267612Y-74798988D01*
X153375532Y-74930488D01*
X153455721Y-75080512D01*
X153468571Y-75122873D01*
X153505104Y-75243305D01*
X153505104Y-75243307D01*
X153517600Y-75370179D01*
X153517600Y-75759820D01*
X153517076Y-75765136D01*
X153505104Y-75886694D01*
X153468571Y-76007128D01*
X153455721Y-76049488D01*
X153375532Y-76199512D01*
X153267612Y-76331012D01*
X153136112Y-76438932D01*
X152986088Y-76519121D01*
X152958433Y-76527510D01*
X152823295Y-76568504D01*
X152710432Y-76579620D01*
X152654001Y-76585178D01*
X152654000Y-76585178D01*
X152484706Y-76568504D01*
X152349568Y-76527510D01*
X152321913Y-76519121D01*
X152171889Y-76438932D01*
X152081946Y-76365117D01*
X152040388Y-76331012D01*
X151932469Y-76199512D01*
X151910127Y-76157713D01*
X151852279Y-76049488D01*
X151839429Y-76007127D01*
X151802896Y-75886695D01*
X151794565Y-75802112D01*
X151790400Y-75759821D01*
X151790400Y-75370180D01*
X151802896Y-75243308D01*
X151802896Y-75243306D01*
X151852278Y-75080517D01*
X151852279Y-75080513D01*
X151932468Y-74930488D01*
X152040388Y-74798988D01*
X152171888Y-74691068D01*
X152321912Y-74610879D01*
X152364273Y-74598029D01*
X152484705Y-74561496D01*
X152597568Y-74550380D01*
X152653999Y-74544822D01*
X152654000Y-74544822D01*
X152823294Y-74561496D01*
X152823294Y-74561496D01*
G37*
G36*
X169587294Y-74561496D02*
X169707726Y-74598029D01*
X169750087Y-74610879D01*
X169900112Y-74691068D01*
X170031612Y-74798988D01*
X170139532Y-74930488D01*
X170219721Y-75080512D01*
X170232571Y-75122873D01*
X170269104Y-75243305D01*
X170269104Y-75243307D01*
X170281600Y-75370179D01*
X170281600Y-75759820D01*
X170281076Y-75765136D01*
X170269104Y-75886694D01*
X170232571Y-76007128D01*
X170219721Y-76049488D01*
X170139532Y-76199512D01*
X170031612Y-76331012D01*
X169900112Y-76438932D01*
X169750088Y-76519121D01*
X169722433Y-76527510D01*
X169587295Y-76568504D01*
X169474432Y-76579620D01*
X169418001Y-76585178D01*
X169418000Y-76585178D01*
X169248706Y-76568504D01*
X169113568Y-76527510D01*
X169085913Y-76519121D01*
X168935889Y-76438932D01*
X168845946Y-76365117D01*
X168804388Y-76331012D01*
X168696469Y-76199512D01*
X168674127Y-76157713D01*
X168616279Y-76049488D01*
X168603429Y-76007127D01*
X168566896Y-75886695D01*
X168558565Y-75802112D01*
X168554400Y-75759821D01*
X168554400Y-75370180D01*
X168566896Y-75243308D01*
X168566896Y-75243306D01*
X168616278Y-75080517D01*
X168616279Y-75080513D01*
X168696468Y-74930488D01*
X168804388Y-74798988D01*
X168935888Y-74691068D01*
X169085912Y-74610879D01*
X169128273Y-74598029D01*
X169248705Y-74561496D01*
X169361568Y-74550380D01*
X169417999Y-74544822D01*
X169418000Y-74544822D01*
X169587294Y-74561496D01*
X169587294Y-74561496D01*
G37*
M02*
