G04 #@! TF.GenerationSoftware,KiCad,Pcbnew,5.0.2-bee76a0~70~ubuntu18.04.1*
G04 #@! TF.CreationDate,2018-12-20T19:54:29+08:00*
G04 #@! TF.ProjectId,arduino-uno,61726475-696e-46f2-9d75-6e6f2e6b6963,rev?*
G04 #@! TF.SameCoordinates,Original*
G04 #@! TF.FileFunction,Other,Fab,Top*
%FSLAX46Y46*%
G04 Gerber Fmt 4.6, Leading zero omitted, Abs format (unit mm)*
G04 Created by KiCad (PCBNEW 5.0.2-bee76a0~70~ubuntu18.04.1) date 2018年12月20日 星期四 19时54分29秒*
%MOMM*%
%LPD*%
G01*
G04 APERTURE LIST*
%ADD10C,0.100000*%
%ADD11C,0.150000*%
%ADD12C,0.060000*%
%ADD13C,0.125000*%
%ADD14C,0.120000*%
%ADD15C,0.080000*%
%ADD16C,0.075000*%
%ADD17C,0.030000*%
G04 APERTURE END LIST*
D10*
G04 #@! TO.C,RESET*
X119098714Y-76581000D02*
G75*
G03X119098714Y-76581000I-1750714J0D01*
G01*
X114348000Y-79581000D02*
X120348000Y-79581000D01*
X114348000Y-73581000D02*
X114348000Y-79581000D01*
X120348000Y-73581000D02*
X114348000Y-73581000D01*
X120348000Y-79581000D02*
X120348000Y-73581000D01*
G04 #@! TO.C,C3*
X154952000Y-115589000D02*
X153352000Y-115589000D01*
X154952000Y-114789000D02*
X154952000Y-115589000D01*
X153352000Y-114789000D02*
X154952000Y-114789000D01*
X153352000Y-115589000D02*
X153352000Y-114789000D01*
G04 #@! TO.C,C4*
X128416000Y-109563000D02*
X128416000Y-111163000D01*
X127616000Y-109563000D02*
X128416000Y-109563000D01*
X127616000Y-111163000D02*
X127616000Y-109563000D01*
X128416000Y-111163000D02*
X127616000Y-111163000D01*
G04 #@! TO.C,C5*
X135998000Y-111290000D02*
X135998000Y-109690000D01*
X136798000Y-111290000D02*
X135998000Y-111290000D01*
X136798000Y-109690000D02*
X136798000Y-111290000D01*
X135998000Y-109690000D02*
X136798000Y-109690000D01*
G04 #@! TO.C,C6*
X122618000Y-97009000D02*
X124218000Y-97009000D01*
X122618000Y-97809000D02*
X122618000Y-97009000D01*
X124218000Y-97809000D02*
X122618000Y-97809000D01*
X124218000Y-97009000D02*
X124218000Y-97809000D01*
G04 #@! TO.C,C7*
X137746000Y-97052000D02*
X137746000Y-96252000D01*
X137746000Y-96252000D02*
X139346000Y-96252000D01*
X139346000Y-96252000D02*
X139346000Y-97052000D01*
X139346000Y-97052000D02*
X137746000Y-97052000D01*
G04 #@! TO.C,C8*
X124218000Y-94977000D02*
X124218000Y-95777000D01*
X124218000Y-95777000D02*
X122618000Y-95777000D01*
X122618000Y-95777000D02*
X122618000Y-94977000D01*
X122618000Y-94977000D02*
X124218000Y-94977000D01*
G04 #@! TO.C,C9*
X137746000Y-82569000D02*
X137746000Y-81769000D01*
X137746000Y-81769000D02*
X139346000Y-81769000D01*
X139346000Y-81769000D02*
X139346000Y-82569000D01*
X139346000Y-82569000D02*
X137746000Y-82569000D01*
G04 #@! TO.C,C10*
X139346000Y-94251500D02*
X139346000Y-95051500D01*
X139346000Y-95051500D02*
X137746000Y-95051500D01*
X137746000Y-95051500D02*
X137746000Y-94251500D01*
X137746000Y-94251500D02*
X139346000Y-94251500D01*
G04 #@! TO.C,C11*
X124218000Y-85363000D02*
X122618000Y-85363000D01*
X124218000Y-84563000D02*
X124218000Y-85363000D01*
X122618000Y-84563000D02*
X124218000Y-84563000D01*
X122618000Y-85363000D02*
X122618000Y-84563000D01*
G04 #@! TO.C,D1*
X129558000Y-122579000D02*
X134158000Y-122579000D01*
X134158000Y-122579000D02*
X134158000Y-125579000D01*
X129558000Y-125579000D02*
X129558000Y-122579000D01*
X129558000Y-125579000D02*
X134158000Y-125579000D01*
X132507440Y-124077980D02*
X133409140Y-124077980D01*
X131356820Y-124077980D02*
X130358600Y-124077980D01*
X132507440Y-124878080D02*
X132507440Y-123277880D01*
X131356820Y-123328680D02*
X131356820Y-124878080D01*
X132507440Y-124077980D02*
X131356820Y-123328680D01*
X132507440Y-124077980D02*
X131356820Y-124878080D01*
G04 #@! TO.C,ON*
X169710000Y-89935000D02*
X169710000Y-89135000D01*
X168110000Y-89935000D02*
X169710000Y-89935000D01*
X168110000Y-89435000D02*
X168110000Y-89935000D01*
X168410000Y-89135000D02*
X168110000Y-89435000D01*
X169710000Y-89135000D02*
X168410000Y-89135000D01*
G04 #@! TO.C,D3*
X125006000Y-79045000D02*
X123406000Y-79045000D01*
X125006000Y-82245000D02*
X125006000Y-79045000D01*
X123806000Y-82245000D02*
X125006000Y-82245000D01*
X123406000Y-81845000D02*
X123806000Y-82245000D01*
X123406000Y-79045000D02*
X123406000Y-81845000D01*
G04 #@! TO.C,TX*
X137726000Y-90930500D02*
X139026000Y-90930500D01*
X139026000Y-90930500D02*
X139326000Y-90630500D01*
X139326000Y-90630500D02*
X139326000Y-90130500D01*
X139326000Y-90130500D02*
X137726000Y-90130500D01*
X137726000Y-90130500D02*
X137726000Y-90930500D01*
G04 #@! TO.C,RX*
X137726000Y-92211000D02*
X137726000Y-93011000D01*
X139326000Y-92211000D02*
X137726000Y-92211000D01*
X139326000Y-92711000D02*
X139326000Y-92211000D01*
X139026000Y-93011000D02*
X139326000Y-92711000D01*
X137726000Y-93011000D02*
X139026000Y-93011000D01*
G04 #@! TO.C,D6*
X171234000Y-100657000D02*
X171234000Y-97857000D01*
X171234000Y-97857000D02*
X170834000Y-97457000D01*
X170834000Y-97457000D02*
X169634000Y-97457000D01*
X169634000Y-97457000D02*
X169634000Y-100657000D01*
X169634000Y-100657000D02*
X171234000Y-100657000D01*
G04 #@! TO.C,L*
X137726000Y-84609500D02*
X139026000Y-84609500D01*
X139026000Y-84609500D02*
X139326000Y-84309500D01*
X139326000Y-84309500D02*
X139326000Y-83809500D01*
X139326000Y-83809500D02*
X137726000Y-83809500D01*
X137726000Y-83809500D02*
X137726000Y-84609500D01*
G04 #@! TO.C,F1*
X115138000Y-103215000D02*
X111938000Y-103215000D01*
X111938000Y-103215000D02*
X111938000Y-98715000D01*
X111938000Y-98715000D02*
X115138000Y-98715000D01*
X115138000Y-98715000D02*
X115138000Y-103215000D01*
G04 #@! TO.C,FB1*
X117364000Y-98263000D02*
X117364000Y-97063000D01*
X117364000Y-97063000D02*
X119364000Y-97063000D01*
X119364000Y-97063000D02*
X119364000Y-98263000D01*
X119364000Y-98263000D02*
X117364000Y-98263000D01*
G04 #@! TO.C,J1*
X122074787Y-114239575D02*
X122878000Y-114995000D01*
X111878000Y-114245000D02*
X111878000Y-123245000D01*
X108378000Y-114245000D02*
X108378000Y-123245000D01*
X108378000Y-123245000D02*
X122878000Y-123245000D01*
X122878000Y-123245000D02*
X122878000Y-114995000D01*
X122078000Y-114245000D02*
X108378000Y-114245000D01*
G04 #@! TO.C,J2*
X118738000Y-94435000D02*
X103238000Y-94435000D01*
X103238000Y-94435000D02*
X103238000Y-82335000D01*
X103238000Y-82335000D02*
X119738000Y-82335000D01*
X119738000Y-82335000D02*
X119738000Y-93435000D01*
X119738000Y-93435000D02*
X118738000Y-94435000D01*
G04 #@! TO.C,J3*
X133604000Y-79375000D02*
X133604000Y-83185000D01*
X133604000Y-83185000D02*
X125984000Y-83185000D01*
X125984000Y-83185000D02*
X125984000Y-78105000D01*
X125984000Y-78105000D02*
X132334000Y-78105000D01*
X132334000Y-78105000D02*
X133604000Y-79375000D01*
G04 #@! TO.C,J4*
X133604000Y-84455000D02*
X133604000Y-88265000D01*
X133604000Y-88265000D02*
X128524000Y-88265000D01*
X128524000Y-88265000D02*
X128524000Y-83185000D01*
X128524000Y-83185000D02*
X132334000Y-83185000D01*
X132334000Y-83185000D02*
X133604000Y-84455000D01*
G04 #@! TO.C,ICSP*
X173228000Y-95885000D02*
X174498000Y-94615000D01*
X173228000Y-102235000D02*
X173228000Y-95885000D01*
X178308000Y-102235000D02*
X173228000Y-102235000D01*
X178308000Y-94615000D02*
X178308000Y-102235000D01*
X174498000Y-94615000D02*
X178308000Y-94615000D01*
G04 #@! TO.C,Q1*
X119848000Y-101915000D02*
X119848000Y-99465000D01*
X119298000Y-102485000D02*
X118448000Y-102485000D01*
X119848000Y-101915000D02*
X119298000Y-102485000D01*
X118448000Y-102485000D02*
X118448000Y-99445000D01*
X119848000Y-99445000D02*
X118448000Y-99445000D01*
G04 #@! TO.C,R1*
X128968000Y-97809000D02*
X128968000Y-97009000D01*
X128968000Y-97009000D02*
X130568000Y-97009000D01*
X130568000Y-97009000D02*
X130568000Y-97809000D01*
X130568000Y-97809000D02*
X128968000Y-97809000D01*
G04 #@! TO.C,R2*
X153608000Y-101835000D02*
X153608000Y-102635000D01*
X153608000Y-102635000D02*
X152008000Y-102635000D01*
X152008000Y-102635000D02*
X152008000Y-101835000D01*
X152008000Y-101835000D02*
X153608000Y-101835000D01*
G04 #@! TO.C,RN1*
X168090000Y-90913000D02*
X169690000Y-90913000D01*
X169690000Y-90913000D02*
X169690000Y-94113000D01*
X169690000Y-94113000D02*
X168090000Y-94113000D01*
X168090000Y-94113000D02*
X168090000Y-90913000D01*
G04 #@! TO.C,RN2*
X137746000Y-100813000D02*
X139346000Y-100813000D01*
X139346000Y-100813000D02*
X139346000Y-104013000D01*
X139346000Y-104013000D02*
X137746000Y-104013000D01*
X137746000Y-104013000D02*
X137746000Y-100813000D01*
G04 #@! TO.C,RN3*
X124218000Y-88545100D02*
X124218000Y-91745100D01*
X122618000Y-88545100D02*
X124218000Y-88545100D01*
X122618000Y-91745100D02*
X122618000Y-88545100D01*
X124218000Y-91745100D02*
X122618000Y-91745100D01*
G04 #@! TO.C,RN4*
X139346000Y-85770000D02*
X139346000Y-88970000D01*
X137746000Y-85770000D02*
X139346000Y-85770000D01*
X137746000Y-88970000D02*
X137746000Y-85770000D01*
X139346000Y-88970000D02*
X137746000Y-88970000D01*
G04 #@! TO.C,RV1*
X124218000Y-87394000D02*
X122618000Y-87394000D01*
X124218000Y-86594000D02*
X124218000Y-87394000D01*
X122618000Y-86594000D02*
X124218000Y-86594000D01*
X122618000Y-87394000D02*
X122618000Y-86594000D01*
G04 #@! TO.C,RV2*
X122618000Y-93696100D02*
X122618000Y-92896100D01*
X122618000Y-92896100D02*
X124218000Y-92896100D01*
X124218000Y-92896100D02*
X124218000Y-93696100D01*
X124218000Y-93696100D02*
X122618000Y-93696100D01*
G04 #@! TO.C,U1*
X120468000Y-112205000D02*
X119468000Y-113205000D01*
X120468000Y-112205000D02*
X120468000Y-106505000D01*
X119468000Y-113205000D02*
X116768000Y-113205000D01*
X120468000Y-106505000D02*
X116768000Y-106505000D01*
X116768000Y-113205000D02*
X116768000Y-106505000D01*
G04 #@! TO.C,U2*
X129913000Y-108307000D02*
X130913000Y-107307000D01*
X129913000Y-108307000D02*
X127913000Y-108307000D01*
X130913000Y-105307000D02*
X130913000Y-107307000D01*
X127913000Y-105307000D02*
X130913000Y-105307000D01*
X127913000Y-108307000D02*
X127913000Y-105307000D01*
G04 #@! TO.C,U3*
X131307000Y-109529000D02*
X131957000Y-108879000D01*
X133107000Y-108879000D02*
X131957000Y-108879000D01*
X131307000Y-109529000D02*
X131307000Y-111979000D01*
X133107000Y-111979000D02*
X131307000Y-111979000D01*
X133107000Y-108879000D02*
X133107000Y-111979000D01*
G04 #@! TO.C,U4*
X128818000Y-94605000D02*
X128818000Y-90605000D01*
X128818000Y-90605000D02*
X133818000Y-90605000D01*
X133818000Y-90605000D02*
X133818000Y-95605000D01*
X133818000Y-95605000D02*
X129818000Y-95605000D01*
X129818000Y-95605000D02*
X128818000Y-94605000D01*
G04 #@! TO.C,U5*
X175768000Y-107172000D02*
X175768000Y-112522000D01*
X175768000Y-112522000D02*
X140208000Y-112522000D01*
X140208000Y-112522000D02*
X140208000Y-106172000D01*
X140208000Y-106172000D02*
X174768000Y-106172000D01*
X174768000Y-106172000D02*
X175768000Y-107172000D01*
G04 #@! TO.C,Y1*
X124068000Y-98615000D02*
X124068000Y-103315000D01*
X124068000Y-103315000D02*
X135468000Y-103315000D01*
X135468000Y-103315000D02*
X135468000Y-98615000D01*
X135468000Y-98615000D02*
X124068000Y-98615000D01*
X126753000Y-98850000D02*
X132783000Y-98850000D01*
X126753000Y-103080000D02*
X132783000Y-103080000D01*
X126753000Y-103080000D02*
G75*
G02X126753000Y-98850000I0J2115000D01*
G01*
X132783000Y-103080000D02*
G75*
G03X132783000Y-98850000I0J2115000D01*
G01*
G04 #@! TO.C,Y2*
X154408000Y-100495000D02*
X154408000Y-98895000D01*
X154408000Y-98895000D02*
X151408000Y-98895000D01*
X151908000Y-100495000D02*
X151408000Y-99995000D01*
X151908000Y-100495000D02*
X154408000Y-100495000D01*
X151408000Y-99995000D02*
X151408000Y-98895000D01*
G04 #@! TO.C,C1*
X129661000Y-114621162D02*
X129031000Y-114621162D01*
X129346000Y-114306162D02*
X129346000Y-114936162D01*
X125716000Y-113711000D02*
X124716000Y-114711000D01*
X130316000Y-113711000D02*
X131316000Y-114711000D01*
X130316000Y-113711000D02*
X125716000Y-113711000D01*
X124716000Y-114711000D02*
X124716000Y-120311000D01*
X131316000Y-114711000D02*
X131316000Y-120311000D01*
X131316000Y-120311000D02*
X124716000Y-120311000D01*
X131166000Y-117011000D02*
G75*
G03X131166000Y-117011000I-3150000J0D01*
G01*
G04 #@! TO.C,C2*
X138043000Y-114621162D02*
X137413000Y-114621162D01*
X137728000Y-114306162D02*
X137728000Y-114936162D01*
X134098000Y-113711000D02*
X133098000Y-114711000D01*
X138698000Y-113711000D02*
X139698000Y-114711000D01*
X138698000Y-113711000D02*
X134098000Y-113711000D01*
X133098000Y-114711000D02*
X133098000Y-120311000D01*
X139698000Y-114711000D02*
X139698000Y-120311000D01*
X139698000Y-120311000D02*
X133098000Y-120311000D01*
X139548000Y-117011000D02*
G75*
G03X139548000Y-117011000I-3150000J0D01*
G01*
G04 #@! TD*
G04 #@! TO.C,RESET*
D11*
X115895619Y-81224380D02*
X115562285Y-80748190D01*
X115324190Y-81224380D02*
X115324190Y-80224380D01*
X115705142Y-80224380D01*
X115800380Y-80272000D01*
X115848000Y-80319619D01*
X115895619Y-80414857D01*
X115895619Y-80557714D01*
X115848000Y-80652952D01*
X115800380Y-80700571D01*
X115705142Y-80748190D01*
X115324190Y-80748190D01*
X116324190Y-80700571D02*
X116657523Y-80700571D01*
X116800380Y-81224380D02*
X116324190Y-81224380D01*
X116324190Y-80224380D01*
X116800380Y-80224380D01*
X117181333Y-81176761D02*
X117324190Y-81224380D01*
X117562285Y-81224380D01*
X117657523Y-81176761D01*
X117705142Y-81129142D01*
X117752761Y-81033904D01*
X117752761Y-80938666D01*
X117705142Y-80843428D01*
X117657523Y-80795809D01*
X117562285Y-80748190D01*
X117371809Y-80700571D01*
X117276571Y-80652952D01*
X117228952Y-80605333D01*
X117181333Y-80510095D01*
X117181333Y-80414857D01*
X117228952Y-80319619D01*
X117276571Y-80272000D01*
X117371809Y-80224380D01*
X117609904Y-80224380D01*
X117752761Y-80272000D01*
X118181333Y-80700571D02*
X118514666Y-80700571D01*
X118657523Y-81224380D02*
X118181333Y-81224380D01*
X118181333Y-80224380D01*
X118657523Y-80224380D01*
X118943238Y-80224380D02*
X119514666Y-80224380D01*
X119228952Y-81224380D02*
X119228952Y-80224380D01*
G04 #@! TO.C,C3*
X153032952Y-117071380D02*
X152461523Y-117071380D01*
X152747238Y-117071380D02*
X152747238Y-116071380D01*
X152652000Y-116214238D01*
X152556761Y-116309476D01*
X152461523Y-116357095D01*
X153652000Y-116071380D02*
X153747238Y-116071380D01*
X153842476Y-116119000D01*
X153890095Y-116166619D01*
X153937714Y-116261857D01*
X153985333Y-116452333D01*
X153985333Y-116690428D01*
X153937714Y-116880904D01*
X153890095Y-116976142D01*
X153842476Y-117023761D01*
X153747238Y-117071380D01*
X153652000Y-117071380D01*
X153556761Y-117023761D01*
X153509142Y-116976142D01*
X153461523Y-116880904D01*
X153413904Y-116690428D01*
X153413904Y-116452333D01*
X153461523Y-116261857D01*
X153509142Y-116166619D01*
X153556761Y-116119000D01*
X153652000Y-116071380D01*
X154604380Y-116071380D02*
X154699619Y-116071380D01*
X154794857Y-116119000D01*
X154842476Y-116166619D01*
X154890095Y-116261857D01*
X154937714Y-116452333D01*
X154937714Y-116690428D01*
X154890095Y-116880904D01*
X154842476Y-116976142D01*
X154794857Y-117023761D01*
X154699619Y-117071380D01*
X154604380Y-117071380D01*
X154509142Y-117023761D01*
X154461523Y-116976142D01*
X154413904Y-116880904D01*
X154366285Y-116690428D01*
X154366285Y-116452333D01*
X154413904Y-116261857D01*
X154461523Y-116166619D01*
X154509142Y-116119000D01*
X154604380Y-116071380D01*
X155366285Y-116404714D02*
X155366285Y-117071380D01*
X155366285Y-116499952D02*
X155413904Y-116452333D01*
X155509142Y-116404714D01*
X155652000Y-116404714D01*
X155747238Y-116452333D01*
X155794857Y-116547571D01*
X155794857Y-117071380D01*
D12*
X154085333Y-115331857D02*
X154066285Y-115350904D01*
X154009142Y-115369952D01*
X153971047Y-115369952D01*
X153913904Y-115350904D01*
X153875809Y-115312809D01*
X153856761Y-115274714D01*
X153837714Y-115198523D01*
X153837714Y-115141380D01*
X153856761Y-115065190D01*
X153875809Y-115027095D01*
X153913904Y-114989000D01*
X153971047Y-114969952D01*
X154009142Y-114969952D01*
X154066285Y-114989000D01*
X154085333Y-115008047D01*
X154218666Y-114969952D02*
X154466285Y-114969952D01*
X154332952Y-115122333D01*
X154390095Y-115122333D01*
X154428190Y-115141380D01*
X154447238Y-115160428D01*
X154466285Y-115198523D01*
X154466285Y-115293761D01*
X154447238Y-115331857D01*
X154428190Y-115350904D01*
X154390095Y-115369952D01*
X154275809Y-115369952D01*
X154237714Y-115350904D01*
X154218666Y-115331857D01*
G04 #@! TO.C,C4*
D11*
X124356952Y-110815380D02*
X123785523Y-110815380D01*
X124071238Y-110815380D02*
X124071238Y-109815380D01*
X123976000Y-109958238D01*
X123880761Y-110053476D01*
X123785523Y-110101095D01*
X124976000Y-109815380D02*
X125071238Y-109815380D01*
X125166476Y-109863000D01*
X125214095Y-109910619D01*
X125261714Y-110005857D01*
X125309333Y-110196333D01*
X125309333Y-110434428D01*
X125261714Y-110624904D01*
X125214095Y-110720142D01*
X125166476Y-110767761D01*
X125071238Y-110815380D01*
X124976000Y-110815380D01*
X124880761Y-110767761D01*
X124833142Y-110720142D01*
X124785523Y-110624904D01*
X124737904Y-110434428D01*
X124737904Y-110196333D01*
X124785523Y-110005857D01*
X124833142Y-109910619D01*
X124880761Y-109863000D01*
X124976000Y-109815380D01*
X125928380Y-109815380D02*
X126023619Y-109815380D01*
X126118857Y-109863000D01*
X126166476Y-109910619D01*
X126214095Y-110005857D01*
X126261714Y-110196333D01*
X126261714Y-110434428D01*
X126214095Y-110624904D01*
X126166476Y-110720142D01*
X126118857Y-110767761D01*
X126023619Y-110815380D01*
X125928380Y-110815380D01*
X125833142Y-110767761D01*
X125785523Y-110720142D01*
X125737904Y-110624904D01*
X125690285Y-110434428D01*
X125690285Y-110196333D01*
X125737904Y-110005857D01*
X125785523Y-109910619D01*
X125833142Y-109863000D01*
X125928380Y-109815380D01*
X126690285Y-110148714D02*
X126690285Y-110815380D01*
X126690285Y-110243952D02*
X126737904Y-110196333D01*
X126833142Y-110148714D01*
X126976000Y-110148714D01*
X127071238Y-110196333D01*
X127118857Y-110291571D01*
X127118857Y-110815380D01*
D12*
X128158857Y-110429666D02*
X128177904Y-110448714D01*
X128196952Y-110505857D01*
X128196952Y-110543952D01*
X128177904Y-110601095D01*
X128139809Y-110639190D01*
X128101714Y-110658238D01*
X128025523Y-110677285D01*
X127968380Y-110677285D01*
X127892190Y-110658238D01*
X127854095Y-110639190D01*
X127816000Y-110601095D01*
X127796952Y-110543952D01*
X127796952Y-110505857D01*
X127816000Y-110448714D01*
X127835047Y-110429666D01*
X127930285Y-110086809D02*
X128196952Y-110086809D01*
X127777904Y-110182047D02*
X128063619Y-110277285D01*
X128063619Y-110029666D01*
G04 #@! TO.C,C5*
D11*
X134801333Y-110942380D02*
X134229904Y-110942380D01*
X134515619Y-110942380D02*
X134515619Y-109942380D01*
X134420380Y-110085238D01*
X134325142Y-110180476D01*
X134229904Y-110228095D01*
X135658476Y-110275714D02*
X135658476Y-110942380D01*
X135229904Y-110275714D02*
X135229904Y-110799523D01*
X135277523Y-110894761D01*
X135372761Y-110942380D01*
X135515619Y-110942380D01*
X135610857Y-110894761D01*
X135658476Y-110847142D01*
D12*
X136540857Y-110556666D02*
X136559904Y-110575714D01*
X136578952Y-110632857D01*
X136578952Y-110670952D01*
X136559904Y-110728095D01*
X136521809Y-110766190D01*
X136483714Y-110785238D01*
X136407523Y-110804285D01*
X136350380Y-110804285D01*
X136274190Y-110785238D01*
X136236095Y-110766190D01*
X136198000Y-110728095D01*
X136178952Y-110670952D01*
X136178952Y-110632857D01*
X136198000Y-110575714D01*
X136217047Y-110556666D01*
X136178952Y-110194761D02*
X136178952Y-110385238D01*
X136369428Y-110404285D01*
X136350380Y-110385238D01*
X136331333Y-110347142D01*
X136331333Y-110251904D01*
X136350380Y-110213809D01*
X136369428Y-110194761D01*
X136407523Y-110175714D01*
X136502761Y-110175714D01*
X136540857Y-110194761D01*
X136559904Y-110213809D01*
X136578952Y-110251904D01*
X136578952Y-110347142D01*
X136559904Y-110385238D01*
X136540857Y-110404285D01*
G04 #@! TO.C,C6*
D11*
X124642714Y-96829619D02*
X124690333Y-96782000D01*
X124785571Y-96734380D01*
X125023666Y-96734380D01*
X125118904Y-96782000D01*
X125166523Y-96829619D01*
X125214142Y-96924857D01*
X125214142Y-97020095D01*
X125166523Y-97162952D01*
X124595095Y-97734380D01*
X125214142Y-97734380D01*
X125595095Y-96829619D02*
X125642714Y-96782000D01*
X125737952Y-96734380D01*
X125976047Y-96734380D01*
X126071285Y-96782000D01*
X126118904Y-96829619D01*
X126166523Y-96924857D01*
X126166523Y-97020095D01*
X126118904Y-97162952D01*
X125547476Y-97734380D01*
X126166523Y-97734380D01*
X126595095Y-97067714D02*
X126595095Y-98067714D01*
X126595095Y-97115333D02*
X126690333Y-97067714D01*
X126880809Y-97067714D01*
X126976047Y-97115333D01*
X127023666Y-97162952D01*
X127071285Y-97258190D01*
X127071285Y-97543904D01*
X127023666Y-97639142D01*
X126976047Y-97686761D01*
X126880809Y-97734380D01*
X126690333Y-97734380D01*
X126595095Y-97686761D01*
D12*
X123351333Y-97551857D02*
X123332285Y-97570904D01*
X123275142Y-97589952D01*
X123237047Y-97589952D01*
X123179904Y-97570904D01*
X123141809Y-97532809D01*
X123122761Y-97494714D01*
X123103714Y-97418523D01*
X123103714Y-97361380D01*
X123122761Y-97285190D01*
X123141809Y-97247095D01*
X123179904Y-97209000D01*
X123237047Y-97189952D01*
X123275142Y-97189952D01*
X123332285Y-97209000D01*
X123351333Y-97228047D01*
X123694190Y-97189952D02*
X123618000Y-97189952D01*
X123579904Y-97209000D01*
X123560857Y-97228047D01*
X123522761Y-97285190D01*
X123503714Y-97361380D01*
X123503714Y-97513761D01*
X123522761Y-97551857D01*
X123541809Y-97570904D01*
X123579904Y-97589952D01*
X123656095Y-97589952D01*
X123694190Y-97570904D01*
X123713238Y-97551857D01*
X123732285Y-97513761D01*
X123732285Y-97418523D01*
X123713238Y-97380428D01*
X123694190Y-97361380D01*
X123656095Y-97342333D01*
X123579904Y-97342333D01*
X123541809Y-97361380D01*
X123522761Y-97380428D01*
X123503714Y-97418523D01*
G04 #@! TO.C,C7*
D11*
X140009714Y-96067619D02*
X140057333Y-96020000D01*
X140152571Y-95972380D01*
X140390666Y-95972380D01*
X140485904Y-96020000D01*
X140533523Y-96067619D01*
X140581142Y-96162857D01*
X140581142Y-96258095D01*
X140533523Y-96400952D01*
X139962095Y-96972380D01*
X140581142Y-96972380D01*
X140962095Y-96067619D02*
X141009714Y-96020000D01*
X141104952Y-95972380D01*
X141343047Y-95972380D01*
X141438285Y-96020000D01*
X141485904Y-96067619D01*
X141533523Y-96162857D01*
X141533523Y-96258095D01*
X141485904Y-96400952D01*
X140914476Y-96972380D01*
X141533523Y-96972380D01*
X141962095Y-96305714D02*
X141962095Y-97305714D01*
X141962095Y-96353333D02*
X142057333Y-96305714D01*
X142247809Y-96305714D01*
X142343047Y-96353333D01*
X142390666Y-96400952D01*
X142438285Y-96496190D01*
X142438285Y-96781904D01*
X142390666Y-96877142D01*
X142343047Y-96924761D01*
X142247809Y-96972380D01*
X142057333Y-96972380D01*
X141962095Y-96924761D01*
D12*
X138479333Y-96794857D02*
X138460285Y-96813904D01*
X138403142Y-96832952D01*
X138365047Y-96832952D01*
X138307904Y-96813904D01*
X138269809Y-96775809D01*
X138250761Y-96737714D01*
X138231714Y-96661523D01*
X138231714Y-96604380D01*
X138250761Y-96528190D01*
X138269809Y-96490095D01*
X138307904Y-96452000D01*
X138365047Y-96432952D01*
X138403142Y-96432952D01*
X138460285Y-96452000D01*
X138479333Y-96471047D01*
X138612666Y-96432952D02*
X138879333Y-96432952D01*
X138707904Y-96832952D01*
G04 #@! TO.C,C8*
D11*
X125118952Y-95829380D02*
X124547523Y-95829380D01*
X124833238Y-95829380D02*
X124833238Y-94829380D01*
X124738000Y-94972238D01*
X124642761Y-95067476D01*
X124547523Y-95115095D01*
X125738000Y-94829380D02*
X125833238Y-94829380D01*
X125928476Y-94877000D01*
X125976095Y-94924619D01*
X126023714Y-95019857D01*
X126071333Y-95210333D01*
X126071333Y-95448428D01*
X126023714Y-95638904D01*
X125976095Y-95734142D01*
X125928476Y-95781761D01*
X125833238Y-95829380D01*
X125738000Y-95829380D01*
X125642761Y-95781761D01*
X125595142Y-95734142D01*
X125547523Y-95638904D01*
X125499904Y-95448428D01*
X125499904Y-95210333D01*
X125547523Y-95019857D01*
X125595142Y-94924619D01*
X125642761Y-94877000D01*
X125738000Y-94829380D01*
X126690380Y-94829380D02*
X126785619Y-94829380D01*
X126880857Y-94877000D01*
X126928476Y-94924619D01*
X126976095Y-95019857D01*
X127023714Y-95210333D01*
X127023714Y-95448428D01*
X126976095Y-95638904D01*
X126928476Y-95734142D01*
X126880857Y-95781761D01*
X126785619Y-95829380D01*
X126690380Y-95829380D01*
X126595142Y-95781761D01*
X126547523Y-95734142D01*
X126499904Y-95638904D01*
X126452285Y-95448428D01*
X126452285Y-95210333D01*
X126499904Y-95019857D01*
X126547523Y-94924619D01*
X126595142Y-94877000D01*
X126690380Y-94829380D01*
X127452285Y-95162714D02*
X127452285Y-95829380D01*
X127452285Y-95257952D02*
X127499904Y-95210333D01*
X127595142Y-95162714D01*
X127738000Y-95162714D01*
X127833238Y-95210333D01*
X127880857Y-95305571D01*
X127880857Y-95829380D01*
D12*
X123351333Y-95519857D02*
X123332285Y-95538904D01*
X123275142Y-95557952D01*
X123237047Y-95557952D01*
X123179904Y-95538904D01*
X123141809Y-95500809D01*
X123122761Y-95462714D01*
X123103714Y-95386523D01*
X123103714Y-95329380D01*
X123122761Y-95253190D01*
X123141809Y-95215095D01*
X123179904Y-95177000D01*
X123237047Y-95157952D01*
X123275142Y-95157952D01*
X123332285Y-95177000D01*
X123351333Y-95196047D01*
X123579904Y-95329380D02*
X123541809Y-95310333D01*
X123522761Y-95291285D01*
X123503714Y-95253190D01*
X123503714Y-95234142D01*
X123522761Y-95196047D01*
X123541809Y-95177000D01*
X123579904Y-95157952D01*
X123656095Y-95157952D01*
X123694190Y-95177000D01*
X123713238Y-95196047D01*
X123732285Y-95234142D01*
X123732285Y-95253190D01*
X123713238Y-95291285D01*
X123694190Y-95310333D01*
X123656095Y-95329380D01*
X123579904Y-95329380D01*
X123541809Y-95348428D01*
X123522761Y-95367476D01*
X123503714Y-95405571D01*
X123503714Y-95481761D01*
X123522761Y-95519857D01*
X123541809Y-95538904D01*
X123579904Y-95557952D01*
X123656095Y-95557952D01*
X123694190Y-95538904D01*
X123713238Y-95519857D01*
X123732285Y-95481761D01*
X123732285Y-95405571D01*
X123713238Y-95367476D01*
X123694190Y-95348428D01*
X123656095Y-95329380D01*
G04 #@! TO.C,C9*
D11*
X140676333Y-82367380D02*
X140104904Y-82367380D01*
X140390619Y-82367380D02*
X140390619Y-81367380D01*
X140295380Y-81510238D01*
X140200142Y-81605476D01*
X140104904Y-81653095D01*
X141533476Y-81700714D02*
X141533476Y-82367380D01*
X141104904Y-81700714D02*
X141104904Y-82224523D01*
X141152523Y-82319761D01*
X141247761Y-82367380D01*
X141390619Y-82367380D01*
X141485857Y-82319761D01*
X141533476Y-82272142D01*
D12*
X138479333Y-82311857D02*
X138460285Y-82330904D01*
X138403142Y-82349952D01*
X138365047Y-82349952D01*
X138307904Y-82330904D01*
X138269809Y-82292809D01*
X138250761Y-82254714D01*
X138231714Y-82178523D01*
X138231714Y-82121380D01*
X138250761Y-82045190D01*
X138269809Y-82007095D01*
X138307904Y-81969000D01*
X138365047Y-81949952D01*
X138403142Y-81949952D01*
X138460285Y-81969000D01*
X138479333Y-81988047D01*
X138669809Y-82349952D02*
X138746000Y-82349952D01*
X138784095Y-82330904D01*
X138803142Y-82311857D01*
X138841238Y-82254714D01*
X138860285Y-82178523D01*
X138860285Y-82026142D01*
X138841238Y-81988047D01*
X138822190Y-81969000D01*
X138784095Y-81949952D01*
X138707904Y-81949952D01*
X138669809Y-81969000D01*
X138650761Y-81988047D01*
X138631714Y-82026142D01*
X138631714Y-82121380D01*
X138650761Y-82159476D01*
X138669809Y-82178523D01*
X138707904Y-82197571D01*
X138784095Y-82197571D01*
X138822190Y-82178523D01*
X138841238Y-82159476D01*
X138860285Y-82121380D01*
G04 #@! TO.C,C10*
D11*
X140358952Y-95067380D02*
X139787523Y-95067380D01*
X140073238Y-95067380D02*
X140073238Y-94067380D01*
X139978000Y-94210238D01*
X139882761Y-94305476D01*
X139787523Y-94353095D01*
X140978000Y-94067380D02*
X141073238Y-94067380D01*
X141168476Y-94115000D01*
X141216095Y-94162619D01*
X141263714Y-94257857D01*
X141311333Y-94448333D01*
X141311333Y-94686428D01*
X141263714Y-94876904D01*
X141216095Y-94972142D01*
X141168476Y-95019761D01*
X141073238Y-95067380D01*
X140978000Y-95067380D01*
X140882761Y-95019761D01*
X140835142Y-94972142D01*
X140787523Y-94876904D01*
X140739904Y-94686428D01*
X140739904Y-94448333D01*
X140787523Y-94257857D01*
X140835142Y-94162619D01*
X140882761Y-94115000D01*
X140978000Y-94067380D01*
X141930380Y-94067380D02*
X142025619Y-94067380D01*
X142120857Y-94115000D01*
X142168476Y-94162619D01*
X142216095Y-94257857D01*
X142263714Y-94448333D01*
X142263714Y-94686428D01*
X142216095Y-94876904D01*
X142168476Y-94972142D01*
X142120857Y-95019761D01*
X142025619Y-95067380D01*
X141930380Y-95067380D01*
X141835142Y-95019761D01*
X141787523Y-94972142D01*
X141739904Y-94876904D01*
X141692285Y-94686428D01*
X141692285Y-94448333D01*
X141739904Y-94257857D01*
X141787523Y-94162619D01*
X141835142Y-94115000D01*
X141930380Y-94067380D01*
X142692285Y-94400714D02*
X142692285Y-95067380D01*
X142692285Y-94495952D02*
X142739904Y-94448333D01*
X142835142Y-94400714D01*
X142978000Y-94400714D01*
X143073238Y-94448333D01*
X143120857Y-94543571D01*
X143120857Y-95067380D01*
D12*
X138288857Y-94794357D02*
X138269809Y-94813404D01*
X138212666Y-94832452D01*
X138174571Y-94832452D01*
X138117428Y-94813404D01*
X138079333Y-94775309D01*
X138060285Y-94737214D01*
X138041238Y-94661023D01*
X138041238Y-94603880D01*
X138060285Y-94527690D01*
X138079333Y-94489595D01*
X138117428Y-94451500D01*
X138174571Y-94432452D01*
X138212666Y-94432452D01*
X138269809Y-94451500D01*
X138288857Y-94470547D01*
X138669809Y-94832452D02*
X138441238Y-94832452D01*
X138555523Y-94832452D02*
X138555523Y-94432452D01*
X138517428Y-94489595D01*
X138479333Y-94527690D01*
X138441238Y-94546738D01*
X138917428Y-94432452D02*
X138955523Y-94432452D01*
X138993619Y-94451500D01*
X139012666Y-94470547D01*
X139031714Y-94508642D01*
X139050761Y-94584833D01*
X139050761Y-94680071D01*
X139031714Y-94756261D01*
X139012666Y-94794357D01*
X138993619Y-94813404D01*
X138955523Y-94832452D01*
X138917428Y-94832452D01*
X138879333Y-94813404D01*
X138860285Y-94794357D01*
X138841238Y-94756261D01*
X138822190Y-94680071D01*
X138822190Y-94584833D01*
X138841238Y-94508642D01*
X138860285Y-94470547D01*
X138879333Y-94451500D01*
X138917428Y-94432452D01*
G04 #@! TO.C,C11*
D11*
X122298952Y-84145380D02*
X121727523Y-84145380D01*
X122013238Y-84145380D02*
X122013238Y-83145380D01*
X121918000Y-83288238D01*
X121822761Y-83383476D01*
X121727523Y-83431095D01*
X122918000Y-83145380D02*
X123013238Y-83145380D01*
X123108476Y-83193000D01*
X123156095Y-83240619D01*
X123203714Y-83335857D01*
X123251333Y-83526333D01*
X123251333Y-83764428D01*
X123203714Y-83954904D01*
X123156095Y-84050142D01*
X123108476Y-84097761D01*
X123013238Y-84145380D01*
X122918000Y-84145380D01*
X122822761Y-84097761D01*
X122775142Y-84050142D01*
X122727523Y-83954904D01*
X122679904Y-83764428D01*
X122679904Y-83526333D01*
X122727523Y-83335857D01*
X122775142Y-83240619D01*
X122822761Y-83193000D01*
X122918000Y-83145380D01*
X123870380Y-83145380D02*
X123965619Y-83145380D01*
X124060857Y-83193000D01*
X124108476Y-83240619D01*
X124156095Y-83335857D01*
X124203714Y-83526333D01*
X124203714Y-83764428D01*
X124156095Y-83954904D01*
X124108476Y-84050142D01*
X124060857Y-84097761D01*
X123965619Y-84145380D01*
X123870380Y-84145380D01*
X123775142Y-84097761D01*
X123727523Y-84050142D01*
X123679904Y-83954904D01*
X123632285Y-83764428D01*
X123632285Y-83526333D01*
X123679904Y-83335857D01*
X123727523Y-83240619D01*
X123775142Y-83193000D01*
X123870380Y-83145380D01*
X124632285Y-83478714D02*
X124632285Y-84145380D01*
X124632285Y-83573952D02*
X124679904Y-83526333D01*
X124775142Y-83478714D01*
X124918000Y-83478714D01*
X125013238Y-83526333D01*
X125060857Y-83621571D01*
X125060857Y-84145380D01*
D12*
X123160857Y-85105857D02*
X123141809Y-85124904D01*
X123084666Y-85143952D01*
X123046571Y-85143952D01*
X122989428Y-85124904D01*
X122951333Y-85086809D01*
X122932285Y-85048714D01*
X122913238Y-84972523D01*
X122913238Y-84915380D01*
X122932285Y-84839190D01*
X122951333Y-84801095D01*
X122989428Y-84763000D01*
X123046571Y-84743952D01*
X123084666Y-84743952D01*
X123141809Y-84763000D01*
X123160857Y-84782047D01*
X123541809Y-85143952D02*
X123313238Y-85143952D01*
X123427523Y-85143952D02*
X123427523Y-84743952D01*
X123389428Y-84801095D01*
X123351333Y-84839190D01*
X123313238Y-84858238D01*
X123922761Y-85143952D02*
X123694190Y-85143952D01*
X123808476Y-85143952D02*
X123808476Y-84743952D01*
X123770380Y-84801095D01*
X123732285Y-84839190D01*
X123694190Y-84858238D01*
G04 #@! TO.C,D1*
D11*
X134826476Y-124531380D02*
X134826476Y-123531380D01*
X135159809Y-124245666D01*
X135493142Y-123531380D01*
X135493142Y-124531380D01*
X135874095Y-123531380D02*
X136540761Y-123531380D01*
X136112190Y-124531380D01*
X127658904Y-124531380D02*
X127658904Y-123531380D01*
X127897000Y-123531380D01*
X128039857Y-123579000D01*
X128135095Y-123674238D01*
X128182714Y-123769476D01*
X128230333Y-123959952D01*
X128230333Y-124102809D01*
X128182714Y-124293285D01*
X128135095Y-124388523D01*
X128039857Y-124483761D01*
X127897000Y-124531380D01*
X127658904Y-124531380D01*
X129182714Y-124531380D02*
X128611285Y-124531380D01*
X128897000Y-124531380D02*
X128897000Y-123531380D01*
X128801761Y-123674238D01*
X128706523Y-123769476D01*
X128611285Y-123817095D01*
G04 #@! TO.C,ON*
X166004952Y-88987380D02*
X166195428Y-88987380D01*
X166290666Y-89035000D01*
X166385904Y-89130238D01*
X166433523Y-89320714D01*
X166433523Y-89654047D01*
X166385904Y-89844523D01*
X166290666Y-89939761D01*
X166195428Y-89987380D01*
X166004952Y-89987380D01*
X165909714Y-89939761D01*
X165814476Y-89844523D01*
X165766857Y-89654047D01*
X165766857Y-89320714D01*
X165814476Y-89130238D01*
X165909714Y-89035000D01*
X166004952Y-88987380D01*
X166862095Y-89987380D02*
X166862095Y-88987380D01*
X167433523Y-89987380D01*
X167433523Y-88987380D01*
D12*
X168662380Y-89315952D02*
X168738571Y-89315952D01*
X168776666Y-89335000D01*
X168814761Y-89373095D01*
X168833809Y-89449285D01*
X168833809Y-89582619D01*
X168814761Y-89658809D01*
X168776666Y-89696904D01*
X168738571Y-89715952D01*
X168662380Y-89715952D01*
X168624285Y-89696904D01*
X168586190Y-89658809D01*
X168567142Y-89582619D01*
X168567142Y-89449285D01*
X168586190Y-89373095D01*
X168624285Y-89335000D01*
X168662380Y-89315952D01*
X169005238Y-89715952D02*
X169005238Y-89315952D01*
X169233809Y-89715952D01*
X169233809Y-89315952D01*
G04 #@! TO.C,D3*
D13*
X122987571Y-82287714D02*
X123011380Y-82311523D01*
X123035190Y-82382952D01*
X123035190Y-82430571D01*
X123011380Y-82502000D01*
X122963761Y-82549619D01*
X122916142Y-82573428D01*
X122820904Y-82597238D01*
X122749476Y-82597238D01*
X122654238Y-82573428D01*
X122606619Y-82549619D01*
X122559000Y-82502000D01*
X122535190Y-82430571D01*
X122535190Y-82382952D01*
X122559000Y-82311523D01*
X122582809Y-82287714D01*
X123035190Y-82073428D02*
X122535190Y-82073428D01*
X122535190Y-81954380D01*
X122559000Y-81882952D01*
X122606619Y-81835333D01*
X122654238Y-81811523D01*
X122749476Y-81787714D01*
X122820904Y-81787714D01*
X122916142Y-81811523D01*
X122963761Y-81835333D01*
X123011380Y-81882952D01*
X123035190Y-81954380D01*
X123035190Y-82073428D01*
X123035190Y-81311523D02*
X123035190Y-81597238D01*
X123035190Y-81454380D02*
X122535190Y-81454380D01*
X122606619Y-81502000D01*
X122654238Y-81549619D01*
X122678047Y-81597238D01*
X122582809Y-81121047D02*
X122559000Y-81097238D01*
X122535190Y-81049619D01*
X122535190Y-80930571D01*
X122559000Y-80882952D01*
X122582809Y-80859142D01*
X122630428Y-80835333D01*
X122678047Y-80835333D01*
X122749476Y-80859142D01*
X123035190Y-81144857D01*
X123035190Y-80835333D01*
X122535190Y-80525809D02*
X122535190Y-80478190D01*
X122559000Y-80430571D01*
X122582809Y-80406761D01*
X122630428Y-80382952D01*
X122725666Y-80359142D01*
X122844714Y-80359142D01*
X122939952Y-80382952D01*
X122987571Y-80406761D01*
X123011380Y-80430571D01*
X123035190Y-80478190D01*
X123035190Y-80525809D01*
X123011380Y-80573428D01*
X122987571Y-80597238D01*
X122939952Y-80621047D01*
X122844714Y-80644857D01*
X122725666Y-80644857D01*
X122630428Y-80621047D01*
X122582809Y-80597238D01*
X122559000Y-80573428D01*
X122535190Y-80525809D01*
X122535190Y-79930571D02*
X122535190Y-80025809D01*
X122559000Y-80073428D01*
X122582809Y-80097238D01*
X122654238Y-80144857D01*
X122749476Y-80168666D01*
X122939952Y-80168666D01*
X122987571Y-80144857D01*
X123011380Y-80121047D01*
X123035190Y-80073428D01*
X123035190Y-79978190D01*
X123011380Y-79930571D01*
X122987571Y-79906761D01*
X122939952Y-79882952D01*
X122820904Y-79882952D01*
X122773285Y-79906761D01*
X122749476Y-79930571D01*
X122725666Y-79978190D01*
X122725666Y-80073428D01*
X122749476Y-80121047D01*
X122773285Y-80144857D01*
X122820904Y-80168666D01*
X122844714Y-79668666D02*
X122844714Y-79287714D01*
X123011380Y-79073428D02*
X123035190Y-79002000D01*
X123035190Y-78882952D01*
X123011380Y-78835333D01*
X122987571Y-78811523D01*
X122939952Y-78787714D01*
X122892333Y-78787714D01*
X122844714Y-78811523D01*
X122820904Y-78835333D01*
X122797095Y-78882952D01*
X122773285Y-78978190D01*
X122749476Y-79025809D01*
X122725666Y-79049619D01*
X122678047Y-79073428D01*
X122630428Y-79073428D01*
X122582809Y-79049619D01*
X122559000Y-79025809D01*
X122535190Y-78978190D01*
X122535190Y-78859142D01*
X122559000Y-78787714D01*
X122535190Y-78478190D02*
X122535190Y-78430571D01*
X122559000Y-78382952D01*
X122582809Y-78359142D01*
X122630428Y-78335333D01*
X122725666Y-78311523D01*
X122844714Y-78311523D01*
X122939952Y-78335333D01*
X122987571Y-78359142D01*
X123011380Y-78382952D01*
X123035190Y-78430571D01*
X123035190Y-78478190D01*
X123011380Y-78525809D01*
X122987571Y-78549619D01*
X122939952Y-78573428D01*
X122844714Y-78597238D01*
X122725666Y-78597238D01*
X122630428Y-78573428D01*
X122582809Y-78549619D01*
X122559000Y-78525809D01*
X122535190Y-78478190D01*
X123035190Y-77835333D02*
X123035190Y-78121047D01*
X123035190Y-77978190D02*
X122535190Y-77978190D01*
X122606619Y-78025809D01*
X122654238Y-78073428D01*
X122678047Y-78121047D01*
X122535190Y-77382952D02*
X122535190Y-77621047D01*
X122773285Y-77644857D01*
X122749476Y-77621047D01*
X122725666Y-77573428D01*
X122725666Y-77454380D01*
X122749476Y-77406761D01*
X122773285Y-77382952D01*
X122820904Y-77359142D01*
X122939952Y-77359142D01*
X122987571Y-77382952D01*
X123011380Y-77406761D01*
X123035190Y-77454380D01*
X123035190Y-77573428D01*
X123011380Y-77621047D01*
X122987571Y-77644857D01*
X122535190Y-77192476D02*
X122535190Y-76859142D01*
X123035190Y-77073428D01*
X122535190Y-76430571D02*
X122535190Y-76668666D01*
X122773285Y-76692476D01*
X122749476Y-76668666D01*
X122725666Y-76621047D01*
X122725666Y-76502000D01*
X122749476Y-76454380D01*
X122773285Y-76430571D01*
X122820904Y-76406761D01*
X122939952Y-76406761D01*
X122987571Y-76430571D01*
X123011380Y-76454380D01*
X123035190Y-76502000D01*
X123035190Y-76621047D01*
X123011380Y-76668666D01*
X122987571Y-76692476D01*
D14*
X124567904Y-81235476D02*
X123767904Y-81235476D01*
X123767904Y-81045000D01*
X123806000Y-80930714D01*
X123882190Y-80854523D01*
X123958380Y-80816428D01*
X124110761Y-80778333D01*
X124225047Y-80778333D01*
X124377428Y-80816428D01*
X124453619Y-80854523D01*
X124529809Y-80930714D01*
X124567904Y-81045000D01*
X124567904Y-81235476D01*
X123767904Y-80511666D02*
X123767904Y-80016428D01*
X124072666Y-80283095D01*
X124072666Y-80168809D01*
X124110761Y-80092619D01*
X124148857Y-80054523D01*
X124225047Y-80016428D01*
X124415523Y-80016428D01*
X124491714Y-80054523D01*
X124529809Y-80092619D01*
X124567904Y-80168809D01*
X124567904Y-80397380D01*
X124529809Y-80473571D01*
X124491714Y-80511666D01*
G04 #@! TO.C,TX*
D11*
X139954095Y-89876380D02*
X140525523Y-89876380D01*
X140239809Y-90876380D02*
X140239809Y-89876380D01*
X140763619Y-89876380D02*
X141430285Y-90876380D01*
X141430285Y-89876380D02*
X140763619Y-90876380D01*
D12*
X138221238Y-90311452D02*
X138449809Y-90311452D01*
X138335523Y-90711452D02*
X138335523Y-90311452D01*
X138545047Y-90311452D02*
X138811714Y-90711452D01*
X138811714Y-90311452D02*
X138545047Y-90711452D01*
G04 #@! TO.C,RX*
D11*
X140676333Y-93035380D02*
X140343000Y-92559190D01*
X140104904Y-93035380D02*
X140104904Y-92035380D01*
X140485857Y-92035380D01*
X140581095Y-92083000D01*
X140628714Y-92130619D01*
X140676333Y-92225857D01*
X140676333Y-92368714D01*
X140628714Y-92463952D01*
X140581095Y-92511571D01*
X140485857Y-92559190D01*
X140104904Y-92559190D01*
X141009666Y-92035380D02*
X141676333Y-93035380D01*
X141676333Y-92035380D02*
X141009666Y-93035380D01*
D12*
X138459333Y-92791952D02*
X138326000Y-92601476D01*
X138230761Y-92791952D02*
X138230761Y-92391952D01*
X138383142Y-92391952D01*
X138421238Y-92411000D01*
X138440285Y-92430047D01*
X138459333Y-92468142D01*
X138459333Y-92525285D01*
X138440285Y-92563380D01*
X138421238Y-92582428D01*
X138383142Y-92601476D01*
X138230761Y-92601476D01*
X138592666Y-92391952D02*
X138859333Y-92791952D01*
X138859333Y-92391952D02*
X138592666Y-92791952D01*
G04 #@! TO.C,D6*
D11*
X159909571Y-96750142D02*
X159861952Y-96797761D01*
X159719095Y-96845380D01*
X159623857Y-96845380D01*
X159481000Y-96797761D01*
X159385761Y-96702523D01*
X159338142Y-96607285D01*
X159290523Y-96416809D01*
X159290523Y-96273952D01*
X159338142Y-96083476D01*
X159385761Y-95988238D01*
X159481000Y-95893000D01*
X159623857Y-95845380D01*
X159719095Y-95845380D01*
X159861952Y-95893000D01*
X159909571Y-95940619D01*
X160338142Y-96845380D02*
X160338142Y-95845380D01*
X160576238Y-95845380D01*
X160719095Y-95893000D01*
X160814333Y-95988238D01*
X160861952Y-96083476D01*
X160909571Y-96273952D01*
X160909571Y-96416809D01*
X160861952Y-96607285D01*
X160814333Y-96702523D01*
X160719095Y-96797761D01*
X160576238Y-96845380D01*
X160338142Y-96845380D01*
X161861952Y-96845380D02*
X161290523Y-96845380D01*
X161576238Y-96845380D02*
X161576238Y-95845380D01*
X161481000Y-95988238D01*
X161385761Y-96083476D01*
X161290523Y-96131095D01*
X162242904Y-95940619D02*
X162290523Y-95893000D01*
X162385761Y-95845380D01*
X162623857Y-95845380D01*
X162719095Y-95893000D01*
X162766714Y-95940619D01*
X162814333Y-96035857D01*
X162814333Y-96131095D01*
X162766714Y-96273952D01*
X162195285Y-96845380D01*
X162814333Y-96845380D01*
X163433380Y-95845380D02*
X163528619Y-95845380D01*
X163623857Y-95893000D01*
X163671476Y-95940619D01*
X163719095Y-96035857D01*
X163766714Y-96226333D01*
X163766714Y-96464428D01*
X163719095Y-96654904D01*
X163671476Y-96750142D01*
X163623857Y-96797761D01*
X163528619Y-96845380D01*
X163433380Y-96845380D01*
X163338142Y-96797761D01*
X163290523Y-96750142D01*
X163242904Y-96654904D01*
X163195285Y-96464428D01*
X163195285Y-96226333D01*
X163242904Y-96035857D01*
X163290523Y-95940619D01*
X163338142Y-95893000D01*
X163433380Y-95845380D01*
X164623857Y-95845380D02*
X164433380Y-95845380D01*
X164338142Y-95893000D01*
X164290523Y-95940619D01*
X164195285Y-96083476D01*
X164147666Y-96273952D01*
X164147666Y-96654904D01*
X164195285Y-96750142D01*
X164242904Y-96797761D01*
X164338142Y-96845380D01*
X164528619Y-96845380D01*
X164623857Y-96797761D01*
X164671476Y-96750142D01*
X164719095Y-96654904D01*
X164719095Y-96416809D01*
X164671476Y-96321571D01*
X164623857Y-96273952D01*
X164528619Y-96226333D01*
X164338142Y-96226333D01*
X164242904Y-96273952D01*
X164195285Y-96321571D01*
X164147666Y-96416809D01*
X165147666Y-96464428D02*
X165909571Y-96464428D01*
X166338142Y-96797761D02*
X166481000Y-96845380D01*
X166719095Y-96845380D01*
X166814333Y-96797761D01*
X166861952Y-96750142D01*
X166909571Y-96654904D01*
X166909571Y-96559666D01*
X166861952Y-96464428D01*
X166814333Y-96416809D01*
X166719095Y-96369190D01*
X166528619Y-96321571D01*
X166433380Y-96273952D01*
X166385761Y-96226333D01*
X166338142Y-96131095D01*
X166338142Y-96035857D01*
X166385761Y-95940619D01*
X166433380Y-95893000D01*
X166528619Y-95845380D01*
X166766714Y-95845380D01*
X166909571Y-95893000D01*
X167528619Y-95845380D02*
X167623857Y-95845380D01*
X167719095Y-95893000D01*
X167766714Y-95940619D01*
X167814333Y-96035857D01*
X167861952Y-96226333D01*
X167861952Y-96464428D01*
X167814333Y-96654904D01*
X167766714Y-96750142D01*
X167719095Y-96797761D01*
X167623857Y-96845380D01*
X167528619Y-96845380D01*
X167433380Y-96797761D01*
X167385761Y-96750142D01*
X167338142Y-96654904D01*
X167290523Y-96464428D01*
X167290523Y-96226333D01*
X167338142Y-96035857D01*
X167385761Y-95940619D01*
X167433380Y-95893000D01*
X167528619Y-95845380D01*
X168814333Y-96845380D02*
X168242904Y-96845380D01*
X168528619Y-96845380D02*
X168528619Y-95845380D01*
X168433380Y-95988238D01*
X168338142Y-96083476D01*
X168242904Y-96131095D01*
X169719095Y-95845380D02*
X169242904Y-95845380D01*
X169195285Y-96321571D01*
X169242904Y-96273952D01*
X169338142Y-96226333D01*
X169576238Y-96226333D01*
X169671476Y-96273952D01*
X169719095Y-96321571D01*
X169766714Y-96416809D01*
X169766714Y-96654904D01*
X169719095Y-96750142D01*
X169671476Y-96797761D01*
X169576238Y-96845380D01*
X169338142Y-96845380D01*
X169242904Y-96797761D01*
X169195285Y-96750142D01*
X170100047Y-95845380D02*
X170766714Y-95845380D01*
X170338142Y-96845380D01*
X171623857Y-95845380D02*
X171147666Y-95845380D01*
X171100047Y-96321571D01*
X171147666Y-96273952D01*
X171242904Y-96226333D01*
X171481000Y-96226333D01*
X171576238Y-96273952D01*
X171623857Y-96321571D01*
X171671476Y-96416809D01*
X171671476Y-96654904D01*
X171623857Y-96750142D01*
X171576238Y-96797761D01*
X171481000Y-96845380D01*
X171242904Y-96845380D01*
X171147666Y-96797761D01*
X171100047Y-96750142D01*
D14*
X170795904Y-99647476D02*
X169995904Y-99647476D01*
X169995904Y-99457000D01*
X170034000Y-99342714D01*
X170110190Y-99266523D01*
X170186380Y-99228428D01*
X170338761Y-99190333D01*
X170453047Y-99190333D01*
X170605428Y-99228428D01*
X170681619Y-99266523D01*
X170757809Y-99342714D01*
X170795904Y-99457000D01*
X170795904Y-99647476D01*
X169995904Y-98504619D02*
X169995904Y-98657000D01*
X170034000Y-98733190D01*
X170072095Y-98771285D01*
X170186380Y-98847476D01*
X170338761Y-98885571D01*
X170643523Y-98885571D01*
X170719714Y-98847476D01*
X170757809Y-98809380D01*
X170795904Y-98733190D01*
X170795904Y-98580809D01*
X170757809Y-98504619D01*
X170719714Y-98466523D01*
X170643523Y-98428428D01*
X170453047Y-98428428D01*
X170376857Y-98466523D01*
X170338761Y-98504619D01*
X170300666Y-98580809D01*
X170300666Y-98733190D01*
X170338761Y-98809380D01*
X170376857Y-98847476D01*
X170453047Y-98885571D01*
G04 #@! TO.C,L*
D11*
X141025523Y-84653380D02*
X140549333Y-84653380D01*
X140549333Y-83653380D01*
D12*
X138649809Y-84390452D02*
X138459333Y-84390452D01*
X138459333Y-83990452D01*
G04 #@! TO.C,F1*
D11*
X116530380Y-107044380D02*
X115530380Y-107044380D01*
X116244666Y-106711047D01*
X115530380Y-106377714D01*
X116530380Y-106377714D01*
X116006571Y-105568190D02*
X116006571Y-105901523D01*
X116530380Y-105901523D02*
X115530380Y-105901523D01*
X115530380Y-105425333D01*
X116149428Y-105044380D02*
X116149428Y-104282476D01*
X116530380Y-103806285D02*
X115530380Y-103806285D01*
X116244666Y-103472952D01*
X115530380Y-103139619D01*
X116530380Y-103139619D01*
X116482761Y-102711047D02*
X116530380Y-102568190D01*
X116530380Y-102330095D01*
X116482761Y-102234857D01*
X116435142Y-102187238D01*
X116339904Y-102139619D01*
X116244666Y-102139619D01*
X116149428Y-102187238D01*
X116101809Y-102234857D01*
X116054190Y-102330095D01*
X116006571Y-102520571D01*
X115958952Y-102615809D01*
X115911333Y-102663428D01*
X115816095Y-102711047D01*
X115720857Y-102711047D01*
X115625619Y-102663428D01*
X115578000Y-102615809D01*
X115530380Y-102520571D01*
X115530380Y-102282476D01*
X115578000Y-102139619D01*
X116530380Y-101711047D02*
X115530380Y-101711047D01*
X116244666Y-101377714D01*
X115530380Y-101044380D01*
X116530380Y-101044380D01*
X116006571Y-100234857D02*
X116006571Y-100568190D01*
X116530380Y-100568190D02*
X115530380Y-100568190D01*
X115530380Y-100092000D01*
X115530380Y-99520571D02*
X115530380Y-99425333D01*
X115578000Y-99330095D01*
X115625619Y-99282476D01*
X115720857Y-99234857D01*
X115911333Y-99187238D01*
X116149428Y-99187238D01*
X116339904Y-99234857D01*
X116435142Y-99282476D01*
X116482761Y-99330095D01*
X116530380Y-99425333D01*
X116530380Y-99520571D01*
X116482761Y-99615809D01*
X116435142Y-99663428D01*
X116339904Y-99711047D01*
X116149428Y-99758666D01*
X115911333Y-99758666D01*
X115720857Y-99711047D01*
X115625619Y-99663428D01*
X115578000Y-99615809D01*
X115530380Y-99520571D01*
X115530380Y-98282476D02*
X115530380Y-98758666D01*
X116006571Y-98806285D01*
X115958952Y-98758666D01*
X115911333Y-98663428D01*
X115911333Y-98425333D01*
X115958952Y-98330095D01*
X116006571Y-98282476D01*
X116101809Y-98234857D01*
X116339904Y-98234857D01*
X116435142Y-98282476D01*
X116482761Y-98330095D01*
X116530380Y-98425333D01*
X116530380Y-98663428D01*
X116482761Y-98758666D01*
X116435142Y-98806285D01*
X115530380Y-97615809D02*
X115530380Y-97520571D01*
X115578000Y-97425333D01*
X115625619Y-97377714D01*
X115720857Y-97330095D01*
X115911333Y-97282476D01*
X116149428Y-97282476D01*
X116339904Y-97330095D01*
X116435142Y-97377714D01*
X116482761Y-97425333D01*
X116530380Y-97520571D01*
X116530380Y-97615809D01*
X116482761Y-97711047D01*
X116435142Y-97758666D01*
X116339904Y-97806285D01*
X116149428Y-97853904D01*
X115911333Y-97853904D01*
X115720857Y-97806285D01*
X115625619Y-97758666D01*
X115578000Y-97711047D01*
X115530380Y-97615809D01*
X116149428Y-96853904D02*
X116149428Y-96092000D01*
X115625619Y-95663428D02*
X115578000Y-95615809D01*
X115530380Y-95520571D01*
X115530380Y-95282476D01*
X115578000Y-95187238D01*
X115625619Y-95139619D01*
X115720857Y-95092000D01*
X115816095Y-95092000D01*
X115958952Y-95139619D01*
X116530380Y-95711047D01*
X116530380Y-95092000D01*
X113466571Y-101298333D02*
X113466571Y-101631666D01*
X113990380Y-101631666D02*
X112990380Y-101631666D01*
X112990380Y-101155476D01*
X113990380Y-100250714D02*
X113990380Y-100822142D01*
X113990380Y-100536428D02*
X112990380Y-100536428D01*
X113133238Y-100631666D01*
X113228476Y-100726904D01*
X113276095Y-100822142D01*
G04 #@! TO.C,FB1*
X117776857Y-96194571D02*
X117919714Y-96242190D01*
X117967333Y-96289809D01*
X118014952Y-96385047D01*
X118014952Y-96527904D01*
X117967333Y-96623142D01*
X117919714Y-96670761D01*
X117824476Y-96718380D01*
X117443523Y-96718380D01*
X117443523Y-95718380D01*
X117776857Y-95718380D01*
X117872095Y-95766000D01*
X117919714Y-95813619D01*
X117967333Y-95908857D01*
X117967333Y-96004095D01*
X117919714Y-96099333D01*
X117872095Y-96146952D01*
X117776857Y-96194571D01*
X117443523Y-96194571D01*
X118919714Y-96718380D02*
X118443523Y-96718380D01*
X118443523Y-95718380D01*
X119253047Y-96718380D02*
X119253047Y-95718380D01*
X119586380Y-96432666D01*
X119919714Y-95718380D01*
X119919714Y-96718380D01*
X120348285Y-95813619D02*
X120395904Y-95766000D01*
X120491142Y-95718380D01*
X120729238Y-95718380D01*
X120824476Y-95766000D01*
X120872095Y-95813619D01*
X120919714Y-95908857D01*
X120919714Y-96004095D01*
X120872095Y-96146952D01*
X120300666Y-96718380D01*
X120919714Y-96718380D01*
X121872095Y-96718380D02*
X121300666Y-96718380D01*
X121586380Y-96718380D02*
X121586380Y-95718380D01*
X121491142Y-95861238D01*
X121395904Y-95956476D01*
X121300666Y-96004095D01*
D15*
X117947333Y-97627285D02*
X117780666Y-97627285D01*
X117780666Y-97889190D02*
X117780666Y-97389190D01*
X118018761Y-97389190D01*
X118375904Y-97627285D02*
X118447333Y-97651095D01*
X118471142Y-97674904D01*
X118494952Y-97722523D01*
X118494952Y-97793952D01*
X118471142Y-97841571D01*
X118447333Y-97865380D01*
X118399714Y-97889190D01*
X118209238Y-97889190D01*
X118209238Y-97389190D01*
X118375904Y-97389190D01*
X118423523Y-97413000D01*
X118447333Y-97436809D01*
X118471142Y-97484428D01*
X118471142Y-97532047D01*
X118447333Y-97579666D01*
X118423523Y-97603476D01*
X118375904Y-97627285D01*
X118209238Y-97627285D01*
X118971142Y-97889190D02*
X118685428Y-97889190D01*
X118828285Y-97889190D02*
X118828285Y-97389190D01*
X118780666Y-97460619D01*
X118733047Y-97508238D01*
X118685428Y-97532047D01*
G04 #@! TO.C,J1*
D11*
X114586095Y-120737380D02*
X114586095Y-121451666D01*
X114538476Y-121594523D01*
X114443238Y-121689761D01*
X114300380Y-121737380D01*
X114205142Y-121737380D01*
X115490857Y-121737380D02*
X115490857Y-121213571D01*
X115443238Y-121118333D01*
X115348000Y-121070714D01*
X115157523Y-121070714D01*
X115062285Y-121118333D01*
X115490857Y-121689761D02*
X115395619Y-121737380D01*
X115157523Y-121737380D01*
X115062285Y-121689761D01*
X115014666Y-121594523D01*
X115014666Y-121499285D01*
X115062285Y-121404047D01*
X115157523Y-121356428D01*
X115395619Y-121356428D01*
X115490857Y-121308809D01*
X116395619Y-121689761D02*
X116300380Y-121737380D01*
X116109904Y-121737380D01*
X116014666Y-121689761D01*
X115967047Y-121642142D01*
X115919428Y-121546904D01*
X115919428Y-121261190D01*
X115967047Y-121165952D01*
X116014666Y-121118333D01*
X116109904Y-121070714D01*
X116300380Y-121070714D01*
X116395619Y-121118333D01*
X116824190Y-121737380D02*
X116824190Y-120737380D01*
X116919428Y-121356428D02*
X117205142Y-121737380D01*
X117205142Y-121070714D02*
X116824190Y-121451666D01*
X117633714Y-121356428D02*
X118395619Y-121356428D01*
X118871809Y-121737380D02*
X118871809Y-120737380D01*
X119109904Y-120737380D01*
X119252761Y-120785000D01*
X119348000Y-120880238D01*
X119395619Y-120975476D01*
X119443238Y-121165952D01*
X119443238Y-121308809D01*
X119395619Y-121499285D01*
X119348000Y-121594523D01*
X119252761Y-121689761D01*
X119109904Y-121737380D01*
X118871809Y-121737380D01*
X120443238Y-121642142D02*
X120395619Y-121689761D01*
X120252761Y-121737380D01*
X120157523Y-121737380D01*
X120014666Y-121689761D01*
X119919428Y-121594523D01*
X119871809Y-121499285D01*
X119824190Y-121308809D01*
X119824190Y-121165952D01*
X119871809Y-120975476D01*
X119919428Y-120880238D01*
X120014666Y-120785000D01*
X120157523Y-120737380D01*
X120252761Y-120737380D01*
X120395619Y-120785000D01*
X120443238Y-120832619D01*
X117268666Y-117943380D02*
X117268666Y-118657666D01*
X117221047Y-118800523D01*
X117125809Y-118895761D01*
X116982952Y-118943380D01*
X116887714Y-118943380D01*
X118268666Y-118943380D02*
X117697238Y-118943380D01*
X117982952Y-118943380D02*
X117982952Y-117943380D01*
X117887714Y-118086238D01*
X117792476Y-118181476D01*
X117697238Y-118229095D01*
G04 #@! TO.C,J2*
X111776142Y-90384380D02*
X111776142Y-91193904D01*
X111823761Y-91289142D01*
X111871380Y-91336761D01*
X111966619Y-91384380D01*
X112157095Y-91384380D01*
X112252333Y-91336761D01*
X112299952Y-91289142D01*
X112347571Y-91193904D01*
X112347571Y-90384380D01*
X112776142Y-91336761D02*
X112919000Y-91384380D01*
X113157095Y-91384380D01*
X113252333Y-91336761D01*
X113299952Y-91289142D01*
X113347571Y-91193904D01*
X113347571Y-91098666D01*
X113299952Y-91003428D01*
X113252333Y-90955809D01*
X113157095Y-90908190D01*
X112966619Y-90860571D01*
X112871380Y-90812952D01*
X112823761Y-90765333D01*
X112776142Y-90670095D01*
X112776142Y-90574857D01*
X112823761Y-90479619D01*
X112871380Y-90432000D01*
X112966619Y-90384380D01*
X113204714Y-90384380D01*
X113347571Y-90432000D01*
X114109476Y-90860571D02*
X114252333Y-90908190D01*
X114299952Y-90955809D01*
X114347571Y-91051047D01*
X114347571Y-91193904D01*
X114299952Y-91289142D01*
X114252333Y-91336761D01*
X114157095Y-91384380D01*
X113776142Y-91384380D01*
X113776142Y-90384380D01*
X114109476Y-90384380D01*
X114204714Y-90432000D01*
X114252333Y-90479619D01*
X114299952Y-90574857D01*
X114299952Y-90670095D01*
X114252333Y-90765333D01*
X114204714Y-90812952D01*
X114109476Y-90860571D01*
X113776142Y-90860571D01*
X114538047Y-91479619D02*
X115299952Y-91479619D01*
X115871380Y-90860571D02*
X116014238Y-90908190D01*
X116061857Y-90955809D01*
X116109476Y-91051047D01*
X116109476Y-91193904D01*
X116061857Y-91289142D01*
X116014238Y-91336761D01*
X115919000Y-91384380D01*
X115538047Y-91384380D01*
X115538047Y-90384380D01*
X115871380Y-90384380D01*
X115966619Y-90432000D01*
X116014238Y-90479619D01*
X116061857Y-90574857D01*
X116061857Y-90670095D01*
X116014238Y-90765333D01*
X115966619Y-90812952D01*
X115871380Y-90860571D01*
X115538047Y-90860571D01*
X113712666Y-87837380D02*
X113712666Y-88551666D01*
X113665047Y-88694523D01*
X113569809Y-88789761D01*
X113426952Y-88837380D01*
X113331714Y-88837380D01*
X114141238Y-87932619D02*
X114188857Y-87885000D01*
X114284095Y-87837380D01*
X114522190Y-87837380D01*
X114617428Y-87885000D01*
X114665047Y-87932619D01*
X114712666Y-88027857D01*
X114712666Y-88123095D01*
X114665047Y-88265952D01*
X114093619Y-88837380D01*
X114712666Y-88837380D01*
G04 #@! TO.C,J3*
X126182904Y-77573142D02*
X126135285Y-77620761D01*
X125992428Y-77668380D01*
X125897190Y-77668380D01*
X125754333Y-77620761D01*
X125659095Y-77525523D01*
X125611476Y-77430285D01*
X125563857Y-77239809D01*
X125563857Y-77096952D01*
X125611476Y-76906476D01*
X125659095Y-76811238D01*
X125754333Y-76716000D01*
X125897190Y-76668380D01*
X125992428Y-76668380D01*
X126135285Y-76716000D01*
X126182904Y-76763619D01*
X126754333Y-77668380D02*
X126659095Y-77620761D01*
X126611476Y-77573142D01*
X126563857Y-77477904D01*
X126563857Y-77192190D01*
X126611476Y-77096952D01*
X126659095Y-77049333D01*
X126754333Y-77001714D01*
X126897190Y-77001714D01*
X126992428Y-77049333D01*
X127040047Y-77096952D01*
X127087666Y-77192190D01*
X127087666Y-77477904D01*
X127040047Y-77573142D01*
X126992428Y-77620761D01*
X126897190Y-77668380D01*
X126754333Y-77668380D01*
X127516238Y-77001714D02*
X127516238Y-77668380D01*
X127516238Y-77096952D02*
X127563857Y-77049333D01*
X127659095Y-77001714D01*
X127801952Y-77001714D01*
X127897190Y-77049333D01*
X127944809Y-77144571D01*
X127944809Y-77668380D01*
X128421000Y-77001714D02*
X128421000Y-77668380D01*
X128421000Y-77096952D02*
X128468619Y-77049333D01*
X128563857Y-77001714D01*
X128706714Y-77001714D01*
X128801952Y-77049333D01*
X128849571Y-77144571D01*
X128849571Y-77668380D01*
X129087666Y-77763619D02*
X129849571Y-77763619D01*
X130278142Y-76668380D02*
X130373380Y-76668380D01*
X130468619Y-76716000D01*
X130516238Y-76763619D01*
X130563857Y-76858857D01*
X130611476Y-77049333D01*
X130611476Y-77287428D01*
X130563857Y-77477904D01*
X130516238Y-77573142D01*
X130468619Y-77620761D01*
X130373380Y-77668380D01*
X130278142Y-77668380D01*
X130182904Y-77620761D01*
X130135285Y-77573142D01*
X130087666Y-77477904D01*
X130040047Y-77287428D01*
X130040047Y-77049333D01*
X130087666Y-76858857D01*
X130135285Y-76763619D01*
X130182904Y-76716000D01*
X130278142Y-76668380D01*
X130992428Y-76763619D02*
X131040047Y-76716000D01*
X131135285Y-76668380D01*
X131373380Y-76668380D01*
X131468619Y-76716000D01*
X131516238Y-76763619D01*
X131563857Y-76858857D01*
X131563857Y-76954095D01*
X131516238Y-77096952D01*
X130944809Y-77668380D01*
X131563857Y-77668380D01*
X131897190Y-77668380D02*
X132421000Y-77001714D01*
X131897190Y-77001714D02*
X132421000Y-77668380D01*
X132992428Y-76668380D02*
X133087666Y-76668380D01*
X133182904Y-76716000D01*
X133230523Y-76763619D01*
X133278142Y-76858857D01*
X133325761Y-77049333D01*
X133325761Y-77287428D01*
X133278142Y-77477904D01*
X133230523Y-77573142D01*
X133182904Y-77620761D01*
X133087666Y-77668380D01*
X132992428Y-77668380D01*
X132897190Y-77620761D01*
X132849571Y-77573142D01*
X132801952Y-77477904D01*
X132754333Y-77287428D01*
X132754333Y-77049333D01*
X132801952Y-76858857D01*
X132849571Y-76763619D01*
X132897190Y-76716000D01*
X132992428Y-76668380D01*
X133659095Y-76668380D02*
X134278142Y-76668380D01*
X133944809Y-77049333D01*
X134087666Y-77049333D01*
X134182904Y-77096952D01*
X134230523Y-77144571D01*
X134278142Y-77239809D01*
X134278142Y-77477904D01*
X134230523Y-77573142D01*
X134182904Y-77620761D01*
X134087666Y-77668380D01*
X133801952Y-77668380D01*
X133706714Y-77620761D01*
X133659095Y-77573142D01*
X129460666Y-80097380D02*
X129460666Y-80811666D01*
X129413047Y-80954523D01*
X129317809Y-81049761D01*
X129174952Y-81097380D01*
X129079714Y-81097380D01*
X129841619Y-80097380D02*
X130460666Y-80097380D01*
X130127333Y-80478333D01*
X130270190Y-80478333D01*
X130365428Y-80525952D01*
X130413047Y-80573571D01*
X130460666Y-80668809D01*
X130460666Y-80906904D01*
X130413047Y-81002142D01*
X130365428Y-81049761D01*
X130270190Y-81097380D01*
X129984476Y-81097380D01*
X129889238Y-81049761D01*
X129841619Y-81002142D01*
G04 #@! TO.C,J4*
X135104142Y-87558095D02*
X135151761Y-87605714D01*
X135199380Y-87748571D01*
X135199380Y-87843809D01*
X135151761Y-87986666D01*
X135056523Y-88081904D01*
X134961285Y-88129523D01*
X134770809Y-88177142D01*
X134627952Y-88177142D01*
X134437476Y-88129523D01*
X134342238Y-88081904D01*
X134247000Y-87986666D01*
X134199380Y-87843809D01*
X134199380Y-87748571D01*
X134247000Y-87605714D01*
X134294619Y-87558095D01*
X135199380Y-86986666D02*
X135151761Y-87081904D01*
X135104142Y-87129523D01*
X135008904Y-87177142D01*
X134723190Y-87177142D01*
X134627952Y-87129523D01*
X134580333Y-87081904D01*
X134532714Y-86986666D01*
X134532714Y-86843809D01*
X134580333Y-86748571D01*
X134627952Y-86700952D01*
X134723190Y-86653333D01*
X135008904Y-86653333D01*
X135104142Y-86700952D01*
X135151761Y-86748571D01*
X135199380Y-86843809D01*
X135199380Y-86986666D01*
X134532714Y-86224761D02*
X135199380Y-86224761D01*
X134627952Y-86224761D02*
X134580333Y-86177142D01*
X134532714Y-86081904D01*
X134532714Y-85939047D01*
X134580333Y-85843809D01*
X134675571Y-85796190D01*
X135199380Y-85796190D01*
X134532714Y-85320000D02*
X135199380Y-85320000D01*
X134627952Y-85320000D02*
X134580333Y-85272380D01*
X134532714Y-85177142D01*
X134532714Y-85034285D01*
X134580333Y-84939047D01*
X134675571Y-84891428D01*
X135199380Y-84891428D01*
X135294619Y-84653333D02*
X135294619Y-83891428D01*
X134199380Y-83462857D02*
X134199380Y-83367619D01*
X134247000Y-83272380D01*
X134294619Y-83224761D01*
X134389857Y-83177142D01*
X134580333Y-83129523D01*
X134818428Y-83129523D01*
X135008904Y-83177142D01*
X135104142Y-83224761D01*
X135151761Y-83272380D01*
X135199380Y-83367619D01*
X135199380Y-83462857D01*
X135151761Y-83558095D01*
X135104142Y-83605714D01*
X135008904Y-83653333D01*
X134818428Y-83700952D01*
X134580333Y-83700952D01*
X134389857Y-83653333D01*
X134294619Y-83605714D01*
X134247000Y-83558095D01*
X134199380Y-83462857D01*
X134294619Y-82748571D02*
X134247000Y-82700952D01*
X134199380Y-82605714D01*
X134199380Y-82367619D01*
X134247000Y-82272380D01*
X134294619Y-82224761D01*
X134389857Y-82177142D01*
X134485095Y-82177142D01*
X134627952Y-82224761D01*
X135199380Y-82796190D01*
X135199380Y-82177142D01*
X135199380Y-81843809D02*
X134532714Y-81320000D01*
X134532714Y-81843809D02*
X135199380Y-81320000D01*
X134199380Y-80748571D02*
X134199380Y-80653333D01*
X134247000Y-80558095D01*
X134294619Y-80510476D01*
X134389857Y-80462857D01*
X134580333Y-80415238D01*
X134818428Y-80415238D01*
X135008904Y-80462857D01*
X135104142Y-80510476D01*
X135151761Y-80558095D01*
X135199380Y-80653333D01*
X135199380Y-80748571D01*
X135151761Y-80843809D01*
X135104142Y-80891428D01*
X135008904Y-80939047D01*
X134818428Y-80986666D01*
X134580333Y-80986666D01*
X134389857Y-80939047D01*
X134294619Y-80891428D01*
X134247000Y-80843809D01*
X134199380Y-80748571D01*
X134294619Y-80034285D02*
X134247000Y-79986666D01*
X134199380Y-79891428D01*
X134199380Y-79653333D01*
X134247000Y-79558095D01*
X134294619Y-79510476D01*
X134389857Y-79462857D01*
X134485095Y-79462857D01*
X134627952Y-79510476D01*
X135199380Y-80081904D01*
X135199380Y-79462857D01*
X130730666Y-85177380D02*
X130730666Y-85891666D01*
X130683047Y-86034523D01*
X130587809Y-86129761D01*
X130444952Y-86177380D01*
X130349714Y-86177380D01*
X131635428Y-85510714D02*
X131635428Y-86177380D01*
X131397333Y-85129761D02*
X131159238Y-85844047D01*
X131778285Y-85844047D01*
G04 #@! TO.C,ICSP*
X171013904Y-103735142D02*
X170966285Y-103782761D01*
X170823428Y-103830380D01*
X170728190Y-103830380D01*
X170585333Y-103782761D01*
X170490095Y-103687523D01*
X170442476Y-103592285D01*
X170394857Y-103401809D01*
X170394857Y-103258952D01*
X170442476Y-103068476D01*
X170490095Y-102973238D01*
X170585333Y-102878000D01*
X170728190Y-102830380D01*
X170823428Y-102830380D01*
X170966285Y-102878000D01*
X171013904Y-102925619D01*
X171585333Y-103830380D02*
X171490095Y-103782761D01*
X171442476Y-103735142D01*
X171394857Y-103639904D01*
X171394857Y-103354190D01*
X171442476Y-103258952D01*
X171490095Y-103211333D01*
X171585333Y-103163714D01*
X171728190Y-103163714D01*
X171823428Y-103211333D01*
X171871047Y-103258952D01*
X171918666Y-103354190D01*
X171918666Y-103639904D01*
X171871047Y-103735142D01*
X171823428Y-103782761D01*
X171728190Y-103830380D01*
X171585333Y-103830380D01*
X172347238Y-103163714D02*
X172347238Y-103830380D01*
X172347238Y-103258952D02*
X172394857Y-103211333D01*
X172490095Y-103163714D01*
X172632952Y-103163714D01*
X172728190Y-103211333D01*
X172775809Y-103306571D01*
X172775809Y-103830380D01*
X173252000Y-103163714D02*
X173252000Y-103830380D01*
X173252000Y-103258952D02*
X173299619Y-103211333D01*
X173394857Y-103163714D01*
X173537714Y-103163714D01*
X173632952Y-103211333D01*
X173680571Y-103306571D01*
X173680571Y-103830380D01*
X173918666Y-103925619D02*
X174680571Y-103925619D01*
X175109142Y-102830380D02*
X175204380Y-102830380D01*
X175299619Y-102878000D01*
X175347238Y-102925619D01*
X175394857Y-103020857D01*
X175442476Y-103211333D01*
X175442476Y-103449428D01*
X175394857Y-103639904D01*
X175347238Y-103735142D01*
X175299619Y-103782761D01*
X175204380Y-103830380D01*
X175109142Y-103830380D01*
X175013904Y-103782761D01*
X174966285Y-103735142D01*
X174918666Y-103639904D01*
X174871047Y-103449428D01*
X174871047Y-103211333D01*
X174918666Y-103020857D01*
X174966285Y-102925619D01*
X175013904Y-102878000D01*
X175109142Y-102830380D01*
X175823428Y-102925619D02*
X175871047Y-102878000D01*
X175966285Y-102830380D01*
X176204380Y-102830380D01*
X176299619Y-102878000D01*
X176347238Y-102925619D01*
X176394857Y-103020857D01*
X176394857Y-103116095D01*
X176347238Y-103258952D01*
X175775809Y-103830380D01*
X176394857Y-103830380D01*
X176728190Y-103830380D02*
X177252000Y-103163714D01*
X176728190Y-103163714D02*
X177252000Y-103830380D01*
X177823428Y-102830380D02*
X177918666Y-102830380D01*
X178013904Y-102878000D01*
X178061523Y-102925619D01*
X178109142Y-103020857D01*
X178156761Y-103211333D01*
X178156761Y-103449428D01*
X178109142Y-103639904D01*
X178061523Y-103735142D01*
X178013904Y-103782761D01*
X177918666Y-103830380D01*
X177823428Y-103830380D01*
X177728190Y-103782761D01*
X177680571Y-103735142D01*
X177632952Y-103639904D01*
X177585333Y-103449428D01*
X177585333Y-103211333D01*
X177632952Y-103020857D01*
X177680571Y-102925619D01*
X177728190Y-102878000D01*
X177823428Y-102830380D01*
X178490095Y-102830380D02*
X179109142Y-102830380D01*
X178775809Y-103211333D01*
X178918666Y-103211333D01*
X179013904Y-103258952D01*
X179061523Y-103306571D01*
X179109142Y-103401809D01*
X179109142Y-103639904D01*
X179061523Y-103735142D01*
X179013904Y-103782761D01*
X178918666Y-103830380D01*
X178632952Y-103830380D01*
X178537714Y-103782761D01*
X178490095Y-103735142D01*
X176220380Y-99901190D02*
X175220380Y-99901190D01*
X176125142Y-98853571D02*
X176172761Y-98901190D01*
X176220380Y-99044047D01*
X176220380Y-99139285D01*
X176172761Y-99282142D01*
X176077523Y-99377380D01*
X175982285Y-99425000D01*
X175791809Y-99472619D01*
X175648952Y-99472619D01*
X175458476Y-99425000D01*
X175363238Y-99377380D01*
X175268000Y-99282142D01*
X175220380Y-99139285D01*
X175220380Y-99044047D01*
X175268000Y-98901190D01*
X175315619Y-98853571D01*
X176172761Y-98472619D02*
X176220380Y-98329761D01*
X176220380Y-98091666D01*
X176172761Y-97996428D01*
X176125142Y-97948809D01*
X176029904Y-97901190D01*
X175934666Y-97901190D01*
X175839428Y-97948809D01*
X175791809Y-97996428D01*
X175744190Y-98091666D01*
X175696571Y-98282142D01*
X175648952Y-98377380D01*
X175601333Y-98425000D01*
X175506095Y-98472619D01*
X175410857Y-98472619D01*
X175315619Y-98425000D01*
X175268000Y-98377380D01*
X175220380Y-98282142D01*
X175220380Y-98044047D01*
X175268000Y-97901190D01*
X176220380Y-97472619D02*
X175220380Y-97472619D01*
X175220380Y-97091666D01*
X175268000Y-96996428D01*
X175315619Y-96948809D01*
X175410857Y-96901190D01*
X175553714Y-96901190D01*
X175648952Y-96948809D01*
X175696571Y-96996428D01*
X175744190Y-97091666D01*
X175744190Y-97472619D01*
G04 #@! TO.C,Q1*
X120832571Y-103520523D02*
X120832571Y-103853857D01*
X121356380Y-103853857D02*
X120356380Y-103853857D01*
X120356380Y-103377666D01*
X121356380Y-102996714D02*
X120356380Y-102996714D01*
X120356380Y-102758619D01*
X120404000Y-102615761D01*
X120499238Y-102520523D01*
X120594476Y-102472904D01*
X120784952Y-102425285D01*
X120927809Y-102425285D01*
X121118285Y-102472904D01*
X121213523Y-102520523D01*
X121308761Y-102615761D01*
X121356380Y-102758619D01*
X121356380Y-102996714D01*
X121356380Y-101996714D02*
X120356380Y-101996714D01*
X121356380Y-101425285D01*
X120356380Y-101425285D01*
X120356380Y-101044333D02*
X120356380Y-100425285D01*
X120737333Y-100758619D01*
X120737333Y-100615761D01*
X120784952Y-100520523D01*
X120832571Y-100472904D01*
X120927809Y-100425285D01*
X121165904Y-100425285D01*
X121261142Y-100472904D01*
X121308761Y-100520523D01*
X121356380Y-100615761D01*
X121356380Y-100901476D01*
X121308761Y-100996714D01*
X121261142Y-101044333D01*
X120689714Y-99568142D02*
X121356380Y-99568142D01*
X120308761Y-99806238D02*
X121023047Y-100044333D01*
X121023047Y-99425285D01*
X120356380Y-98853857D02*
X120356380Y-98758619D01*
X120404000Y-98663380D01*
X120451619Y-98615761D01*
X120546857Y-98568142D01*
X120737333Y-98520523D01*
X120975428Y-98520523D01*
X121165904Y-98568142D01*
X121261142Y-98615761D01*
X121308761Y-98663380D01*
X121356380Y-98758619D01*
X121356380Y-98853857D01*
X121308761Y-98949095D01*
X121261142Y-98996714D01*
X121165904Y-99044333D01*
X120975428Y-99091952D01*
X120737333Y-99091952D01*
X120546857Y-99044333D01*
X120451619Y-98996714D01*
X120404000Y-98949095D01*
X120356380Y-98853857D01*
X121356380Y-98091952D02*
X120356380Y-98091952D01*
X120356380Y-97711000D01*
X120404000Y-97615761D01*
X120451619Y-97568142D01*
X120546857Y-97520523D01*
X120689714Y-97520523D01*
X120784952Y-97568142D01*
X120832571Y-97615761D01*
X120880190Y-97711000D01*
X120880190Y-98091952D01*
D16*
X119421809Y-101012619D02*
X119398000Y-101060238D01*
X119350380Y-101107857D01*
X119278952Y-101179285D01*
X119255142Y-101226904D01*
X119255142Y-101274523D01*
X119374190Y-101250714D02*
X119350380Y-101298333D01*
X119302761Y-101345952D01*
X119207523Y-101369761D01*
X119040857Y-101369761D01*
X118945619Y-101345952D01*
X118898000Y-101298333D01*
X118874190Y-101250714D01*
X118874190Y-101155476D01*
X118898000Y-101107857D01*
X118945619Y-101060238D01*
X119040857Y-101036428D01*
X119207523Y-101036428D01*
X119302761Y-101060238D01*
X119350380Y-101107857D01*
X119374190Y-101155476D01*
X119374190Y-101250714D01*
X119374190Y-100560238D02*
X119374190Y-100845952D01*
X119374190Y-100703095D02*
X118874190Y-100703095D01*
X118945619Y-100750714D01*
X118993238Y-100798333D01*
X119017047Y-100845952D01*
G04 #@! TO.C,R1*
D11*
X131667285Y-97734380D02*
X131095857Y-97734380D01*
X131381571Y-97734380D02*
X131381571Y-96734380D01*
X131286333Y-96877238D01*
X131191095Y-96972476D01*
X131095857Y-97020095D01*
X132095857Y-97734380D02*
X132095857Y-96734380D01*
X132429190Y-97448666D01*
X132762523Y-96734380D01*
X132762523Y-97734380D01*
D12*
X129701333Y-97589952D02*
X129568000Y-97399476D01*
X129472761Y-97589952D02*
X129472761Y-97189952D01*
X129625142Y-97189952D01*
X129663238Y-97209000D01*
X129682285Y-97228047D01*
X129701333Y-97266142D01*
X129701333Y-97323285D01*
X129682285Y-97361380D01*
X129663238Y-97380428D01*
X129625142Y-97399476D01*
X129472761Y-97399476D01*
X130082285Y-97589952D02*
X129853714Y-97589952D01*
X129968000Y-97589952D02*
X129968000Y-97189952D01*
X129929904Y-97247095D01*
X129891809Y-97285190D01*
X129853714Y-97304238D01*
G04 #@! TO.C,R2*
D11*
X154654285Y-102687380D02*
X154082857Y-102687380D01*
X154368571Y-102687380D02*
X154368571Y-101687380D01*
X154273333Y-101830238D01*
X154178095Y-101925476D01*
X154082857Y-101973095D01*
X155082857Y-102687380D02*
X155082857Y-101687380D01*
X155416190Y-102401666D01*
X155749523Y-101687380D01*
X155749523Y-102687380D01*
D12*
X152741333Y-102415952D02*
X152608000Y-102225476D01*
X152512761Y-102415952D02*
X152512761Y-102015952D01*
X152665142Y-102015952D01*
X152703238Y-102035000D01*
X152722285Y-102054047D01*
X152741333Y-102092142D01*
X152741333Y-102149285D01*
X152722285Y-102187380D01*
X152703238Y-102206428D01*
X152665142Y-102225476D01*
X152512761Y-102225476D01*
X152893714Y-102054047D02*
X152912761Y-102035000D01*
X152950857Y-102015952D01*
X153046095Y-102015952D01*
X153084190Y-102035000D01*
X153103238Y-102054047D01*
X153122285Y-102092142D01*
X153122285Y-102130238D01*
X153103238Y-102187380D01*
X152874666Y-102415952D01*
X153122285Y-102415952D01*
G04 #@! TO.C,RN1*
D11*
X165298523Y-93162380D02*
X164727095Y-93162380D01*
X165012809Y-93162380D02*
X165012809Y-92162380D01*
X164917571Y-92305238D01*
X164822333Y-92400476D01*
X164727095Y-92448095D01*
X165917571Y-92162380D02*
X166012809Y-92162380D01*
X166108047Y-92210000D01*
X166155666Y-92257619D01*
X166203285Y-92352857D01*
X166250904Y-92543333D01*
X166250904Y-92781428D01*
X166203285Y-92971904D01*
X166155666Y-93067142D01*
X166108047Y-93114761D01*
X166012809Y-93162380D01*
X165917571Y-93162380D01*
X165822333Y-93114761D01*
X165774714Y-93067142D01*
X165727095Y-92971904D01*
X165679476Y-92781428D01*
X165679476Y-92543333D01*
X165727095Y-92352857D01*
X165774714Y-92257619D01*
X165822333Y-92210000D01*
X165917571Y-92162380D01*
X166679476Y-93162380D02*
X166679476Y-92162380D01*
X167250904Y-93162380D02*
X166822333Y-92590952D01*
X167250904Y-92162380D02*
X166679476Y-92733809D01*
D16*
X169116190Y-92858238D02*
X168878095Y-93024904D01*
X169116190Y-93143952D02*
X168616190Y-93143952D01*
X168616190Y-92953476D01*
X168640000Y-92905857D01*
X168663809Y-92882047D01*
X168711428Y-92858238D01*
X168782857Y-92858238D01*
X168830476Y-92882047D01*
X168854285Y-92905857D01*
X168878095Y-92953476D01*
X168878095Y-93143952D01*
X169116190Y-92643952D02*
X168616190Y-92643952D01*
X169116190Y-92358238D01*
X168616190Y-92358238D01*
X169116190Y-91858238D02*
X169116190Y-92143952D01*
X169116190Y-92001095D02*
X168616190Y-92001095D01*
X168687619Y-92048714D01*
X168735238Y-92096333D01*
X168759047Y-92143952D01*
G04 #@! TO.C,RN2*
D11*
X140882714Y-102941380D02*
X140311285Y-102941380D01*
X140597000Y-102941380D02*
X140597000Y-101941380D01*
X140501761Y-102084238D01*
X140406523Y-102179476D01*
X140311285Y-102227095D01*
X141311285Y-102941380D02*
X141311285Y-101941380D01*
X141882714Y-102941380D02*
X141454142Y-102369952D01*
X141882714Y-101941380D02*
X141311285Y-102512809D01*
D16*
X138772190Y-102758238D02*
X138534095Y-102924904D01*
X138772190Y-103043952D02*
X138272190Y-103043952D01*
X138272190Y-102853476D01*
X138296000Y-102805857D01*
X138319809Y-102782047D01*
X138367428Y-102758238D01*
X138438857Y-102758238D01*
X138486476Y-102782047D01*
X138510285Y-102805857D01*
X138534095Y-102853476D01*
X138534095Y-103043952D01*
X138772190Y-102543952D02*
X138272190Y-102543952D01*
X138772190Y-102258238D01*
X138272190Y-102258238D01*
X138319809Y-102043952D02*
X138296000Y-102020142D01*
X138272190Y-101972523D01*
X138272190Y-101853476D01*
X138296000Y-101805857D01*
X138319809Y-101782047D01*
X138367428Y-101758238D01*
X138415047Y-101758238D01*
X138486476Y-101782047D01*
X138772190Y-102067761D01*
X138772190Y-101758238D01*
G04 #@! TO.C,RN3*
D11*
X120777095Y-89717619D02*
X120824714Y-89670000D01*
X120919952Y-89622380D01*
X121158047Y-89622380D01*
X121253285Y-89670000D01*
X121300904Y-89717619D01*
X121348523Y-89812857D01*
X121348523Y-89908095D01*
X121300904Y-90050952D01*
X120729476Y-90622380D01*
X121348523Y-90622380D01*
X121729476Y-89717619D02*
X121777095Y-89670000D01*
X121872333Y-89622380D01*
X122110428Y-89622380D01*
X122205666Y-89670000D01*
X122253285Y-89717619D01*
X122300904Y-89812857D01*
X122300904Y-89908095D01*
X122253285Y-90050952D01*
X121681857Y-90622380D01*
X122300904Y-90622380D01*
D16*
X123644190Y-90490338D02*
X123406095Y-90657004D01*
X123644190Y-90776052D02*
X123144190Y-90776052D01*
X123144190Y-90585576D01*
X123168000Y-90537957D01*
X123191809Y-90514147D01*
X123239428Y-90490338D01*
X123310857Y-90490338D01*
X123358476Y-90514147D01*
X123382285Y-90537957D01*
X123406095Y-90585576D01*
X123406095Y-90776052D01*
X123644190Y-90276052D02*
X123144190Y-90276052D01*
X123644190Y-89990338D01*
X123144190Y-89990338D01*
X123144190Y-89799861D02*
X123144190Y-89490338D01*
X123334666Y-89657004D01*
X123334666Y-89585576D01*
X123358476Y-89537957D01*
X123382285Y-89514147D01*
X123429904Y-89490338D01*
X123548952Y-89490338D01*
X123596571Y-89514147D01*
X123620380Y-89537957D01*
X123644190Y-89585576D01*
X123644190Y-89728433D01*
X123620380Y-89776052D01*
X123596571Y-89799861D01*
G04 #@! TO.C,RN4*
D11*
X140628714Y-87955380D02*
X140057285Y-87955380D01*
X140343000Y-87955380D02*
X140343000Y-86955380D01*
X140247761Y-87098238D01*
X140152523Y-87193476D01*
X140057285Y-87241095D01*
X141057285Y-87955380D02*
X141057285Y-86955380D01*
X141628714Y-87955380D02*
X141200142Y-87383952D01*
X141628714Y-86955380D02*
X141057285Y-87526809D01*
D16*
X138772190Y-87715238D02*
X138534095Y-87881904D01*
X138772190Y-88000952D02*
X138272190Y-88000952D01*
X138272190Y-87810476D01*
X138296000Y-87762857D01*
X138319809Y-87739047D01*
X138367428Y-87715238D01*
X138438857Y-87715238D01*
X138486476Y-87739047D01*
X138510285Y-87762857D01*
X138534095Y-87810476D01*
X138534095Y-88000952D01*
X138772190Y-87500952D02*
X138272190Y-87500952D01*
X138772190Y-87215238D01*
X138272190Y-87215238D01*
X138438857Y-86762857D02*
X138772190Y-86762857D01*
X138248380Y-86881904D02*
X138605523Y-87000952D01*
X138605523Y-86691428D01*
G04 #@! TO.C,RV1*
D13*
X120646380Y-86157571D02*
X120622571Y-86181380D01*
X120551142Y-86205190D01*
X120503523Y-86205190D01*
X120432095Y-86181380D01*
X120384476Y-86133761D01*
X120360666Y-86086142D01*
X120336857Y-85990904D01*
X120336857Y-85919476D01*
X120360666Y-85824238D01*
X120384476Y-85776619D01*
X120432095Y-85729000D01*
X120503523Y-85705190D01*
X120551142Y-85705190D01*
X120622571Y-85729000D01*
X120646380Y-85752809D01*
X121122571Y-85729000D02*
X121074952Y-85705190D01*
X121003523Y-85705190D01*
X120932095Y-85729000D01*
X120884476Y-85776619D01*
X120860666Y-85824238D01*
X120836857Y-85919476D01*
X120836857Y-85990904D01*
X120860666Y-86086142D01*
X120884476Y-86133761D01*
X120932095Y-86181380D01*
X121003523Y-86205190D01*
X121051142Y-86205190D01*
X121122571Y-86181380D01*
X121146380Y-86157571D01*
X121146380Y-85990904D01*
X121051142Y-85990904D01*
X121455904Y-85705190D02*
X121503523Y-85705190D01*
X121551142Y-85729000D01*
X121574952Y-85752809D01*
X121598761Y-85800428D01*
X121622571Y-85895666D01*
X121622571Y-86014714D01*
X121598761Y-86109952D01*
X121574952Y-86157571D01*
X121551142Y-86181380D01*
X121503523Y-86205190D01*
X121455904Y-86205190D01*
X121408285Y-86181380D01*
X121384476Y-86157571D01*
X121360666Y-86109952D01*
X121336857Y-86014714D01*
X121336857Y-85895666D01*
X121360666Y-85800428D01*
X121384476Y-85752809D01*
X121408285Y-85729000D01*
X121455904Y-85705190D01*
X122051142Y-85705190D02*
X121955904Y-85705190D01*
X121908285Y-85729000D01*
X121884476Y-85752809D01*
X121836857Y-85824238D01*
X121813047Y-85919476D01*
X121813047Y-86109952D01*
X121836857Y-86157571D01*
X121860666Y-86181380D01*
X121908285Y-86205190D01*
X122003523Y-86205190D01*
X122051142Y-86181380D01*
X122074952Y-86157571D01*
X122098761Y-86109952D01*
X122098761Y-85990904D01*
X122074952Y-85943285D01*
X122051142Y-85919476D01*
X122003523Y-85895666D01*
X121908285Y-85895666D01*
X121860666Y-85919476D01*
X121836857Y-85943285D01*
X121813047Y-85990904D01*
X122408285Y-85705190D02*
X122455904Y-85705190D01*
X122503523Y-85729000D01*
X122527333Y-85752809D01*
X122551142Y-85800428D01*
X122574952Y-85895666D01*
X122574952Y-86014714D01*
X122551142Y-86109952D01*
X122527333Y-86157571D01*
X122503523Y-86181380D01*
X122455904Y-86205190D01*
X122408285Y-86205190D01*
X122360666Y-86181380D01*
X122336857Y-86157571D01*
X122313047Y-86109952D01*
X122289238Y-86014714D01*
X122289238Y-85895666D01*
X122313047Y-85800428D01*
X122336857Y-85752809D01*
X122360666Y-85729000D01*
X122408285Y-85705190D01*
X122741619Y-85705190D02*
X123051142Y-85705190D01*
X122884476Y-85895666D01*
X122955904Y-85895666D01*
X123003523Y-85919476D01*
X123027333Y-85943285D01*
X123051142Y-85990904D01*
X123051142Y-86109952D01*
X123027333Y-86157571D01*
X123003523Y-86181380D01*
X122955904Y-86205190D01*
X122813047Y-86205190D01*
X122765428Y-86181380D01*
X122741619Y-86157571D01*
X123265428Y-86205190D02*
X123265428Y-85705190D01*
X123432095Y-86062333D01*
X123598761Y-85705190D01*
X123598761Y-86205190D01*
X124074952Y-86205190D02*
X123836857Y-86205190D01*
X123836857Y-85705190D01*
X124527333Y-86157571D02*
X124503523Y-86181380D01*
X124432095Y-86205190D01*
X124384476Y-86205190D01*
X124313047Y-86181380D01*
X124265428Y-86133761D01*
X124241619Y-86086142D01*
X124217809Y-85990904D01*
X124217809Y-85919476D01*
X124241619Y-85824238D01*
X124265428Y-85776619D01*
X124313047Y-85729000D01*
X124384476Y-85705190D01*
X124432095Y-85705190D01*
X124503523Y-85729000D01*
X124527333Y-85752809D01*
X124741619Y-86014714D02*
X125122571Y-86014714D01*
X125455904Y-85705190D02*
X125503523Y-85705190D01*
X125551142Y-85729000D01*
X125574952Y-85752809D01*
X125598761Y-85800428D01*
X125622571Y-85895666D01*
X125622571Y-86014714D01*
X125598761Y-86109952D01*
X125574952Y-86157571D01*
X125551142Y-86181380D01*
X125503523Y-86205190D01*
X125455904Y-86205190D01*
X125408285Y-86181380D01*
X125384476Y-86157571D01*
X125360666Y-86109952D01*
X125336857Y-86014714D01*
X125336857Y-85895666D01*
X125360666Y-85800428D01*
X125384476Y-85752809D01*
X125408285Y-85729000D01*
X125455904Y-85705190D01*
X126074952Y-85705190D02*
X125836857Y-85705190D01*
X125813047Y-85943285D01*
X125836857Y-85919476D01*
X125884476Y-85895666D01*
X126003523Y-85895666D01*
X126051142Y-85919476D01*
X126074952Y-85943285D01*
X126098761Y-85990904D01*
X126098761Y-86109952D01*
X126074952Y-86157571D01*
X126051142Y-86181380D01*
X126003523Y-86205190D01*
X125884476Y-86205190D01*
X125836857Y-86181380D01*
X125813047Y-86157571D01*
X126313047Y-85943285D02*
X126479714Y-85943285D01*
X126551142Y-86205190D02*
X126313047Y-86205190D01*
X126313047Y-85705190D01*
X126551142Y-85705190D01*
D12*
X123179904Y-87174952D02*
X123046571Y-86984476D01*
X122951333Y-87174952D02*
X122951333Y-86774952D01*
X123103714Y-86774952D01*
X123141809Y-86794000D01*
X123160857Y-86813047D01*
X123179904Y-86851142D01*
X123179904Y-86908285D01*
X123160857Y-86946380D01*
X123141809Y-86965428D01*
X123103714Y-86984476D01*
X122951333Y-86984476D01*
X123294190Y-86774952D02*
X123427523Y-87174952D01*
X123560857Y-86774952D01*
X123903714Y-87174952D02*
X123675142Y-87174952D01*
X123789428Y-87174952D02*
X123789428Y-86774952D01*
X123751333Y-86832095D01*
X123713238Y-86870190D01*
X123675142Y-86889238D01*
G04 #@! TO.C,RV2*
D13*
X120646380Y-92634571D02*
X120622571Y-92658380D01*
X120551142Y-92682190D01*
X120503523Y-92682190D01*
X120432095Y-92658380D01*
X120384476Y-92610761D01*
X120360666Y-92563142D01*
X120336857Y-92467904D01*
X120336857Y-92396476D01*
X120360666Y-92301238D01*
X120384476Y-92253619D01*
X120432095Y-92206000D01*
X120503523Y-92182190D01*
X120551142Y-92182190D01*
X120622571Y-92206000D01*
X120646380Y-92229809D01*
X121122571Y-92206000D02*
X121074952Y-92182190D01*
X121003523Y-92182190D01*
X120932095Y-92206000D01*
X120884476Y-92253619D01*
X120860666Y-92301238D01*
X120836857Y-92396476D01*
X120836857Y-92467904D01*
X120860666Y-92563142D01*
X120884476Y-92610761D01*
X120932095Y-92658380D01*
X121003523Y-92682190D01*
X121051142Y-92682190D01*
X121122571Y-92658380D01*
X121146380Y-92634571D01*
X121146380Y-92467904D01*
X121051142Y-92467904D01*
X121455904Y-92182190D02*
X121503523Y-92182190D01*
X121551142Y-92206000D01*
X121574952Y-92229809D01*
X121598761Y-92277428D01*
X121622571Y-92372666D01*
X121622571Y-92491714D01*
X121598761Y-92586952D01*
X121574952Y-92634571D01*
X121551142Y-92658380D01*
X121503523Y-92682190D01*
X121455904Y-92682190D01*
X121408285Y-92658380D01*
X121384476Y-92634571D01*
X121360666Y-92586952D01*
X121336857Y-92491714D01*
X121336857Y-92372666D01*
X121360666Y-92277428D01*
X121384476Y-92229809D01*
X121408285Y-92206000D01*
X121455904Y-92182190D01*
X122051142Y-92182190D02*
X121955904Y-92182190D01*
X121908285Y-92206000D01*
X121884476Y-92229809D01*
X121836857Y-92301238D01*
X121813047Y-92396476D01*
X121813047Y-92586952D01*
X121836857Y-92634571D01*
X121860666Y-92658380D01*
X121908285Y-92682190D01*
X122003523Y-92682190D01*
X122051142Y-92658380D01*
X122074952Y-92634571D01*
X122098761Y-92586952D01*
X122098761Y-92467904D01*
X122074952Y-92420285D01*
X122051142Y-92396476D01*
X122003523Y-92372666D01*
X121908285Y-92372666D01*
X121860666Y-92396476D01*
X121836857Y-92420285D01*
X121813047Y-92467904D01*
X122408285Y-92182190D02*
X122455904Y-92182190D01*
X122503523Y-92206000D01*
X122527333Y-92229809D01*
X122551142Y-92277428D01*
X122574952Y-92372666D01*
X122574952Y-92491714D01*
X122551142Y-92586952D01*
X122527333Y-92634571D01*
X122503523Y-92658380D01*
X122455904Y-92682190D01*
X122408285Y-92682190D01*
X122360666Y-92658380D01*
X122336857Y-92634571D01*
X122313047Y-92586952D01*
X122289238Y-92491714D01*
X122289238Y-92372666D01*
X122313047Y-92277428D01*
X122336857Y-92229809D01*
X122360666Y-92206000D01*
X122408285Y-92182190D01*
X122741619Y-92182190D02*
X123051142Y-92182190D01*
X122884476Y-92372666D01*
X122955904Y-92372666D01*
X123003523Y-92396476D01*
X123027333Y-92420285D01*
X123051142Y-92467904D01*
X123051142Y-92586952D01*
X123027333Y-92634571D01*
X123003523Y-92658380D01*
X122955904Y-92682190D01*
X122813047Y-92682190D01*
X122765428Y-92658380D01*
X122741619Y-92634571D01*
X123265428Y-92682190D02*
X123265428Y-92182190D01*
X123432095Y-92539333D01*
X123598761Y-92182190D01*
X123598761Y-92682190D01*
X124074952Y-92682190D02*
X123836857Y-92682190D01*
X123836857Y-92182190D01*
X124527333Y-92634571D02*
X124503523Y-92658380D01*
X124432095Y-92682190D01*
X124384476Y-92682190D01*
X124313047Y-92658380D01*
X124265428Y-92610761D01*
X124241619Y-92563142D01*
X124217809Y-92467904D01*
X124217809Y-92396476D01*
X124241619Y-92301238D01*
X124265428Y-92253619D01*
X124313047Y-92206000D01*
X124384476Y-92182190D01*
X124432095Y-92182190D01*
X124503523Y-92206000D01*
X124527333Y-92229809D01*
X124741619Y-92491714D02*
X125122571Y-92491714D01*
X125455904Y-92182190D02*
X125503523Y-92182190D01*
X125551142Y-92206000D01*
X125574952Y-92229809D01*
X125598761Y-92277428D01*
X125622571Y-92372666D01*
X125622571Y-92491714D01*
X125598761Y-92586952D01*
X125574952Y-92634571D01*
X125551142Y-92658380D01*
X125503523Y-92682190D01*
X125455904Y-92682190D01*
X125408285Y-92658380D01*
X125384476Y-92634571D01*
X125360666Y-92586952D01*
X125336857Y-92491714D01*
X125336857Y-92372666D01*
X125360666Y-92277428D01*
X125384476Y-92229809D01*
X125408285Y-92206000D01*
X125455904Y-92182190D01*
X126074952Y-92182190D02*
X125836857Y-92182190D01*
X125813047Y-92420285D01*
X125836857Y-92396476D01*
X125884476Y-92372666D01*
X126003523Y-92372666D01*
X126051142Y-92396476D01*
X126074952Y-92420285D01*
X126098761Y-92467904D01*
X126098761Y-92586952D01*
X126074952Y-92634571D01*
X126051142Y-92658380D01*
X126003523Y-92682190D01*
X125884476Y-92682190D01*
X125836857Y-92658380D01*
X125813047Y-92634571D01*
X126313047Y-92420285D02*
X126479714Y-92420285D01*
X126551142Y-92682190D02*
X126313047Y-92682190D01*
X126313047Y-92182190D01*
X126551142Y-92182190D01*
D12*
X123179904Y-93477052D02*
X123046571Y-93286576D01*
X122951333Y-93477052D02*
X122951333Y-93077052D01*
X123103714Y-93077052D01*
X123141809Y-93096100D01*
X123160857Y-93115147D01*
X123179904Y-93153242D01*
X123179904Y-93210385D01*
X123160857Y-93248480D01*
X123141809Y-93267528D01*
X123103714Y-93286576D01*
X122951333Y-93286576D01*
X123294190Y-93077052D02*
X123427523Y-93477052D01*
X123560857Y-93077052D01*
X123675142Y-93115147D02*
X123694190Y-93096100D01*
X123732285Y-93077052D01*
X123827523Y-93077052D01*
X123865619Y-93096100D01*
X123884666Y-93115147D01*
X123903714Y-93153242D01*
X123903714Y-93191338D01*
X123884666Y-93248480D01*
X123656095Y-93477052D01*
X123903714Y-93477052D01*
G04 #@! TO.C,U1*
D11*
X122499380Y-113585000D02*
X121499380Y-113585000D01*
X122499380Y-113013571D01*
X121499380Y-113013571D01*
X122404142Y-111965952D02*
X122451761Y-112013571D01*
X122499380Y-112156428D01*
X122499380Y-112251666D01*
X122451761Y-112394523D01*
X122356523Y-112489761D01*
X122261285Y-112537380D01*
X122070809Y-112585000D01*
X121927952Y-112585000D01*
X121737476Y-112537380D01*
X121642238Y-112489761D01*
X121547000Y-112394523D01*
X121499380Y-112251666D01*
X121499380Y-112156428D01*
X121547000Y-112013571D01*
X121594619Y-111965952D01*
X122499380Y-111537380D02*
X121499380Y-111537380D01*
X121499380Y-111156428D01*
X121547000Y-111061190D01*
X121594619Y-111013571D01*
X121689857Y-110965952D01*
X121832714Y-110965952D01*
X121927952Y-111013571D01*
X121975571Y-111061190D01*
X122023190Y-111156428D01*
X122023190Y-111537380D01*
X122499380Y-110013571D02*
X122499380Y-110585000D01*
X122499380Y-110299285D02*
X121499380Y-110299285D01*
X121642238Y-110394523D01*
X121737476Y-110489761D01*
X121785095Y-110585000D01*
X122499380Y-109061190D02*
X122499380Y-109632619D01*
X122499380Y-109346904D02*
X121499380Y-109346904D01*
X121642238Y-109442142D01*
X121737476Y-109537380D01*
X121785095Y-109632619D01*
X122499380Y-108108809D02*
X122499380Y-108680238D01*
X122499380Y-108394523D02*
X121499380Y-108394523D01*
X121642238Y-108489761D01*
X121737476Y-108585000D01*
X121785095Y-108680238D01*
X121499380Y-107775476D02*
X121499380Y-107108809D01*
X122499380Y-107537380D01*
X122118428Y-106727857D02*
X122118428Y-105965952D01*
X121499380Y-105013571D02*
X121499380Y-105489761D01*
X121975571Y-105537380D01*
X121927952Y-105489761D01*
X121880333Y-105394523D01*
X121880333Y-105156428D01*
X121927952Y-105061190D01*
X121975571Y-105013571D01*
X122070809Y-104965952D01*
X122308904Y-104965952D01*
X122404142Y-105013571D01*
X122451761Y-105061190D01*
X122499380Y-105156428D01*
X122499380Y-105394523D01*
X122451761Y-105489761D01*
X122404142Y-105537380D01*
X122404142Y-104537380D02*
X122451761Y-104489761D01*
X122499380Y-104537380D01*
X122451761Y-104585000D01*
X122404142Y-104537380D01*
X122499380Y-104537380D01*
X121499380Y-103870714D02*
X121499380Y-103775476D01*
X121547000Y-103680238D01*
X121594619Y-103632619D01*
X121689857Y-103585000D01*
X121880333Y-103537380D01*
X122118428Y-103537380D01*
X122308904Y-103585000D01*
X122404142Y-103632619D01*
X122451761Y-103680238D01*
X122499380Y-103775476D01*
X122499380Y-103870714D01*
X122451761Y-103965952D01*
X122404142Y-104013571D01*
X122308904Y-104061190D01*
X122118428Y-104108809D01*
X121880333Y-104108809D01*
X121689857Y-104061190D01*
X121594619Y-104013571D01*
X121547000Y-103965952D01*
X121499380Y-103870714D01*
D14*
X118179904Y-110464523D02*
X118827523Y-110464523D01*
X118903714Y-110426428D01*
X118941809Y-110388333D01*
X118979904Y-110312142D01*
X118979904Y-110159761D01*
X118941809Y-110083571D01*
X118903714Y-110045476D01*
X118827523Y-110007380D01*
X118179904Y-110007380D01*
X118979904Y-109207380D02*
X118979904Y-109664523D01*
X118979904Y-109435952D02*
X118179904Y-109435952D01*
X118294190Y-109512142D01*
X118370380Y-109588333D01*
X118408476Y-109664523D01*
G04 #@! TO.C,U2*
D11*
X126198857Y-104846380D02*
X125722666Y-104846380D01*
X125722666Y-103846380D01*
X126532190Y-104846380D02*
X126532190Y-103846380D01*
X126865523Y-104560666D01*
X127198857Y-103846380D01*
X127198857Y-104846380D01*
X127532190Y-103846380D02*
X127865523Y-104846380D01*
X128198857Y-103846380D01*
X128436952Y-103846380D02*
X129056000Y-103846380D01*
X128722666Y-104227333D01*
X128865523Y-104227333D01*
X128960761Y-104274952D01*
X129008380Y-104322571D01*
X129056000Y-104417809D01*
X129056000Y-104655904D01*
X129008380Y-104751142D01*
X128960761Y-104798761D01*
X128865523Y-104846380D01*
X128579809Y-104846380D01*
X128484571Y-104798761D01*
X128436952Y-104751142D01*
X129960761Y-103846380D02*
X129484571Y-103846380D01*
X129436952Y-104322571D01*
X129484571Y-104274952D01*
X129579809Y-104227333D01*
X129817904Y-104227333D01*
X129913142Y-104274952D01*
X129960761Y-104322571D01*
X130008380Y-104417809D01*
X130008380Y-104655904D01*
X129960761Y-104751142D01*
X129913142Y-104798761D01*
X129817904Y-104846380D01*
X129579809Y-104846380D01*
X129484571Y-104798761D01*
X129436952Y-104751142D01*
X130579809Y-104274952D02*
X130484571Y-104227333D01*
X130436952Y-104179714D01*
X130389333Y-104084476D01*
X130389333Y-104036857D01*
X130436952Y-103941619D01*
X130484571Y-103894000D01*
X130579809Y-103846380D01*
X130770285Y-103846380D01*
X130865523Y-103894000D01*
X130913142Y-103941619D01*
X130960761Y-104036857D01*
X130960761Y-104084476D01*
X130913142Y-104179714D01*
X130865523Y-104227333D01*
X130770285Y-104274952D01*
X130579809Y-104274952D01*
X130484571Y-104322571D01*
X130436952Y-104370190D01*
X130389333Y-104465428D01*
X130389333Y-104655904D01*
X130436952Y-104751142D01*
X130484571Y-104798761D01*
X130579809Y-104846380D01*
X130770285Y-104846380D01*
X130865523Y-104798761D01*
X130913142Y-104751142D01*
X130960761Y-104655904D01*
X130960761Y-104465428D01*
X130913142Y-104370190D01*
X130865523Y-104322571D01*
X130770285Y-104274952D01*
X131389333Y-104846380D02*
X131389333Y-103846380D01*
X131865523Y-104846380D02*
X131865523Y-103846380D01*
X132103619Y-103846380D01*
X132246476Y-103894000D01*
X132341714Y-103989238D01*
X132389333Y-104084476D01*
X132436952Y-104274952D01*
X132436952Y-104417809D01*
X132389333Y-104608285D01*
X132341714Y-104703523D01*
X132246476Y-104798761D01*
X132103619Y-104846380D01*
X131865523Y-104846380D01*
X133389333Y-103894000D02*
X133294095Y-103846380D01*
X133151238Y-103846380D01*
X133008380Y-103894000D01*
X132913142Y-103989238D01*
X132865523Y-104084476D01*
X132817904Y-104274952D01*
X132817904Y-104417809D01*
X132865523Y-104608285D01*
X132913142Y-104703523D01*
X133008380Y-104798761D01*
X133151238Y-104846380D01*
X133246476Y-104846380D01*
X133389333Y-104798761D01*
X133436952Y-104751142D01*
X133436952Y-104417809D01*
X133246476Y-104417809D01*
X133865523Y-104846380D02*
X133865523Y-103846380D01*
X134436952Y-104846380D02*
X134008380Y-104274952D01*
X134436952Y-103846380D02*
X133865523Y-104417809D01*
X135436952Y-104846380D02*
X135103619Y-104370190D01*
X134865523Y-104846380D02*
X134865523Y-103846380D01*
X135246476Y-103846380D01*
X135341714Y-103894000D01*
X135389333Y-103941619D01*
X135436952Y-104036857D01*
X135436952Y-104179714D01*
X135389333Y-104274952D01*
X135341714Y-104322571D01*
X135246476Y-104370190D01*
X134865523Y-104370190D01*
D10*
X129032047Y-106533190D02*
X129032047Y-106937952D01*
X129055857Y-106985571D01*
X129079666Y-107009380D01*
X129127285Y-107033190D01*
X129222523Y-107033190D01*
X129270142Y-107009380D01*
X129293952Y-106985571D01*
X129317761Y-106937952D01*
X129317761Y-106533190D01*
X129532047Y-106580809D02*
X129555857Y-106557000D01*
X129603476Y-106533190D01*
X129722523Y-106533190D01*
X129770142Y-106557000D01*
X129793952Y-106580809D01*
X129817761Y-106628428D01*
X129817761Y-106676047D01*
X129793952Y-106747476D01*
X129508238Y-107033190D01*
X129817761Y-107033190D01*
G04 #@! TO.C,U3*
D11*
X128556238Y-113228380D02*
X128080047Y-113228380D01*
X128080047Y-112228380D01*
X128889571Y-113228380D02*
X128889571Y-112228380D01*
X129270523Y-112228380D01*
X129365761Y-112276000D01*
X129413380Y-112323619D01*
X129461000Y-112418857D01*
X129461000Y-112561714D01*
X129413380Y-112656952D01*
X129365761Y-112704571D01*
X129270523Y-112752190D01*
X128889571Y-112752190D01*
X129841952Y-112323619D02*
X129889571Y-112276000D01*
X129984809Y-112228380D01*
X130222904Y-112228380D01*
X130318142Y-112276000D01*
X130365761Y-112323619D01*
X130413380Y-112418857D01*
X130413380Y-112514095D01*
X130365761Y-112656952D01*
X129794333Y-113228380D01*
X130413380Y-113228380D01*
X130889571Y-113228380D02*
X131080047Y-113228380D01*
X131175285Y-113180761D01*
X131222904Y-113133142D01*
X131318142Y-112990285D01*
X131365761Y-112799809D01*
X131365761Y-112418857D01*
X131318142Y-112323619D01*
X131270523Y-112276000D01*
X131175285Y-112228380D01*
X130984809Y-112228380D01*
X130889571Y-112276000D01*
X130841952Y-112323619D01*
X130794333Y-112418857D01*
X130794333Y-112656952D01*
X130841952Y-112752190D01*
X130889571Y-112799809D01*
X130984809Y-112847428D01*
X131175285Y-112847428D01*
X131270523Y-112799809D01*
X131318142Y-112752190D01*
X131365761Y-112656952D01*
X131937190Y-112656952D02*
X131841952Y-112609333D01*
X131794333Y-112561714D01*
X131746714Y-112466476D01*
X131746714Y-112418857D01*
X131794333Y-112323619D01*
X131841952Y-112276000D01*
X131937190Y-112228380D01*
X132127666Y-112228380D01*
X132222904Y-112276000D01*
X132270523Y-112323619D01*
X132318142Y-112418857D01*
X132318142Y-112466476D01*
X132270523Y-112561714D01*
X132222904Y-112609333D01*
X132127666Y-112656952D01*
X131937190Y-112656952D01*
X131841952Y-112704571D01*
X131794333Y-112752190D01*
X131746714Y-112847428D01*
X131746714Y-113037904D01*
X131794333Y-113133142D01*
X131841952Y-113180761D01*
X131937190Y-113228380D01*
X132127666Y-113228380D01*
X132222904Y-113180761D01*
X132270523Y-113133142D01*
X132318142Y-113037904D01*
X132318142Y-112847428D01*
X132270523Y-112752190D01*
X132222904Y-112704571D01*
X132127666Y-112656952D01*
X133222904Y-112228380D02*
X132746714Y-112228380D01*
X132699095Y-112704571D01*
X132746714Y-112656952D01*
X132841952Y-112609333D01*
X133080047Y-112609333D01*
X133175285Y-112656952D01*
X133222904Y-112704571D01*
X133270523Y-112799809D01*
X133270523Y-113037904D01*
X133222904Y-113133142D01*
X133175285Y-113180761D01*
X133080047Y-113228380D01*
X132841952Y-113228380D01*
X132746714Y-113180761D01*
X132699095Y-113133142D01*
X133699095Y-112847428D02*
X134461000Y-112847428D01*
X134841952Y-112228380D02*
X135461000Y-112228380D01*
X135127666Y-112609333D01*
X135270523Y-112609333D01*
X135365761Y-112656952D01*
X135413380Y-112704571D01*
X135461000Y-112799809D01*
X135461000Y-113037904D01*
X135413380Y-113133142D01*
X135365761Y-113180761D01*
X135270523Y-113228380D01*
X134984809Y-113228380D01*
X134889571Y-113180761D01*
X134841952Y-113133142D01*
X135889571Y-113133142D02*
X135937190Y-113180761D01*
X135889571Y-113228380D01*
X135841952Y-113180761D01*
X135889571Y-113133142D01*
X135889571Y-113228380D01*
X136270523Y-112228380D02*
X136889571Y-112228380D01*
X136556238Y-112609333D01*
X136699095Y-112609333D01*
X136794333Y-112656952D01*
X136841952Y-112704571D01*
X136889571Y-112799809D01*
X136889571Y-113037904D01*
X136841952Y-113133142D01*
X136794333Y-113180761D01*
X136699095Y-113228380D01*
X136413380Y-113228380D01*
X136318142Y-113180761D01*
X136270523Y-113133142D01*
D16*
X131933190Y-110809952D02*
X132337952Y-110809952D01*
X132385571Y-110786142D01*
X132409380Y-110762333D01*
X132433190Y-110714714D01*
X132433190Y-110619476D01*
X132409380Y-110571857D01*
X132385571Y-110548047D01*
X132337952Y-110524238D01*
X131933190Y-110524238D01*
X131933190Y-110333761D02*
X131933190Y-110024238D01*
X132123666Y-110190904D01*
X132123666Y-110119476D01*
X132147476Y-110071857D01*
X132171285Y-110048047D01*
X132218904Y-110024238D01*
X132337952Y-110024238D01*
X132385571Y-110048047D01*
X132409380Y-110071857D01*
X132433190Y-110119476D01*
X132433190Y-110262333D01*
X132409380Y-110309952D01*
X132385571Y-110333761D01*
G04 #@! TO.C,U4*
D11*
X124778285Y-89955666D02*
X125254476Y-89955666D01*
X124683047Y-90241380D02*
X125016380Y-89241380D01*
X125349714Y-90241380D01*
X125540190Y-89241380D02*
X126111619Y-89241380D01*
X125825904Y-90241380D02*
X125825904Y-89241380D01*
X126444952Y-90241380D02*
X126444952Y-89574714D01*
X126444952Y-89669952D02*
X126492571Y-89622333D01*
X126587809Y-89574714D01*
X126730666Y-89574714D01*
X126825904Y-89622333D01*
X126873523Y-89717571D01*
X126873523Y-90241380D01*
X126873523Y-89717571D02*
X126921142Y-89622333D01*
X127016380Y-89574714D01*
X127159238Y-89574714D01*
X127254476Y-89622333D01*
X127302095Y-89717571D01*
X127302095Y-90241380D01*
X128159238Y-90193761D02*
X128064000Y-90241380D01*
X127873523Y-90241380D01*
X127778285Y-90193761D01*
X127730666Y-90098523D01*
X127730666Y-89717571D01*
X127778285Y-89622333D01*
X127873523Y-89574714D01*
X128064000Y-89574714D01*
X128159238Y-89622333D01*
X128206857Y-89717571D01*
X128206857Y-89812809D01*
X127730666Y-89908047D01*
X129064000Y-89574714D02*
X129064000Y-90384238D01*
X129016380Y-90479476D01*
X128968761Y-90527095D01*
X128873523Y-90574714D01*
X128730666Y-90574714D01*
X128635428Y-90527095D01*
X129064000Y-90193761D02*
X128968761Y-90241380D01*
X128778285Y-90241380D01*
X128683047Y-90193761D01*
X128635428Y-90146142D01*
X128587809Y-90050904D01*
X128587809Y-89765190D01*
X128635428Y-89669952D01*
X128683047Y-89622333D01*
X128778285Y-89574714D01*
X128968761Y-89574714D01*
X129064000Y-89622333D01*
X129968761Y-90241380D02*
X129968761Y-89717571D01*
X129921142Y-89622333D01*
X129825904Y-89574714D01*
X129635428Y-89574714D01*
X129540190Y-89622333D01*
X129968761Y-90193761D02*
X129873523Y-90241380D01*
X129635428Y-90241380D01*
X129540190Y-90193761D01*
X129492571Y-90098523D01*
X129492571Y-90003285D01*
X129540190Y-89908047D01*
X129635428Y-89860428D01*
X129873523Y-89860428D01*
X129968761Y-89812809D01*
X130968761Y-90241380D02*
X130397333Y-90241380D01*
X130683047Y-90241380D02*
X130683047Y-89241380D01*
X130587809Y-89384238D01*
X130492571Y-89479476D01*
X130397333Y-89527095D01*
X131825904Y-89241380D02*
X131635428Y-89241380D01*
X131540190Y-89289000D01*
X131492571Y-89336619D01*
X131397333Y-89479476D01*
X131349714Y-89669952D01*
X131349714Y-90050904D01*
X131397333Y-90146142D01*
X131444952Y-90193761D01*
X131540190Y-90241380D01*
X131730666Y-90241380D01*
X131825904Y-90193761D01*
X131873523Y-90146142D01*
X131921142Y-90050904D01*
X131921142Y-89812809D01*
X131873523Y-89717571D01*
X131825904Y-89669952D01*
X131730666Y-89622333D01*
X131540190Y-89622333D01*
X131444952Y-89669952D01*
X131397333Y-89717571D01*
X131349714Y-89812809D01*
X132349714Y-89241380D02*
X132349714Y-90050904D01*
X132397333Y-90146142D01*
X132444952Y-90193761D01*
X132540190Y-90241380D01*
X132730666Y-90241380D01*
X132825904Y-90193761D01*
X132873523Y-90146142D01*
X132921142Y-90050904D01*
X132921142Y-89241380D01*
X133349714Y-89336619D02*
X133397333Y-89289000D01*
X133492571Y-89241380D01*
X133730666Y-89241380D01*
X133825904Y-89289000D01*
X133873523Y-89336619D01*
X133921142Y-89431857D01*
X133921142Y-89527095D01*
X133873523Y-89669952D01*
X133302095Y-90241380D01*
X133921142Y-90241380D01*
X134349714Y-89860428D02*
X135111619Y-89860428D01*
X135587809Y-90241380D02*
X135587809Y-89241380D01*
X135921142Y-89955666D01*
X136254476Y-89241380D01*
X136254476Y-90241380D01*
X136730666Y-89241380D02*
X136730666Y-90050904D01*
X136778285Y-90146142D01*
X136825904Y-90193761D01*
X136921142Y-90241380D01*
X137111619Y-90241380D01*
X137206857Y-90193761D01*
X137254476Y-90146142D01*
X137302095Y-90050904D01*
X137302095Y-89241380D01*
X130770380Y-93866904D02*
X131579904Y-93866904D01*
X131675142Y-93819285D01*
X131722761Y-93771666D01*
X131770380Y-93676428D01*
X131770380Y-93485952D01*
X131722761Y-93390714D01*
X131675142Y-93343095D01*
X131579904Y-93295476D01*
X130770380Y-93295476D01*
X131103714Y-92390714D02*
X131770380Y-92390714D01*
X130722761Y-92628809D02*
X131437047Y-92866904D01*
X131437047Y-92247857D01*
G04 #@! TO.C,U5*
X162592523Y-109513666D02*
X163068714Y-109513666D01*
X162497285Y-109799380D02*
X162830619Y-108799380D01*
X163163952Y-109799380D01*
X163354428Y-108799380D02*
X163925857Y-108799380D01*
X163640142Y-109799380D02*
X163640142Y-108799380D01*
X164259190Y-109799380D02*
X164259190Y-109132714D01*
X164259190Y-109227952D02*
X164306809Y-109180333D01*
X164402047Y-109132714D01*
X164544904Y-109132714D01*
X164640142Y-109180333D01*
X164687761Y-109275571D01*
X164687761Y-109799380D01*
X164687761Y-109275571D02*
X164735380Y-109180333D01*
X164830619Y-109132714D01*
X164973476Y-109132714D01*
X165068714Y-109180333D01*
X165116333Y-109275571D01*
X165116333Y-109799380D01*
X165973476Y-109751761D02*
X165878238Y-109799380D01*
X165687761Y-109799380D01*
X165592523Y-109751761D01*
X165544904Y-109656523D01*
X165544904Y-109275571D01*
X165592523Y-109180333D01*
X165687761Y-109132714D01*
X165878238Y-109132714D01*
X165973476Y-109180333D01*
X166021095Y-109275571D01*
X166021095Y-109370809D01*
X165544904Y-109466047D01*
X166878238Y-109132714D02*
X166878238Y-109942238D01*
X166830619Y-110037476D01*
X166783000Y-110085095D01*
X166687761Y-110132714D01*
X166544904Y-110132714D01*
X166449666Y-110085095D01*
X166878238Y-109751761D02*
X166783000Y-109799380D01*
X166592523Y-109799380D01*
X166497285Y-109751761D01*
X166449666Y-109704142D01*
X166402047Y-109608904D01*
X166402047Y-109323190D01*
X166449666Y-109227952D01*
X166497285Y-109180333D01*
X166592523Y-109132714D01*
X166783000Y-109132714D01*
X166878238Y-109180333D01*
X167783000Y-109799380D02*
X167783000Y-109275571D01*
X167735380Y-109180333D01*
X167640142Y-109132714D01*
X167449666Y-109132714D01*
X167354428Y-109180333D01*
X167783000Y-109751761D02*
X167687761Y-109799380D01*
X167449666Y-109799380D01*
X167354428Y-109751761D01*
X167306809Y-109656523D01*
X167306809Y-109561285D01*
X167354428Y-109466047D01*
X167449666Y-109418428D01*
X167687761Y-109418428D01*
X167783000Y-109370809D01*
X168163952Y-108799380D02*
X168783000Y-108799380D01*
X168449666Y-109180333D01*
X168592523Y-109180333D01*
X168687761Y-109227952D01*
X168735380Y-109275571D01*
X168783000Y-109370809D01*
X168783000Y-109608904D01*
X168735380Y-109704142D01*
X168687761Y-109751761D01*
X168592523Y-109799380D01*
X168306809Y-109799380D01*
X168211571Y-109751761D01*
X168163952Y-109704142D01*
X169163952Y-108894619D02*
X169211571Y-108847000D01*
X169306809Y-108799380D01*
X169544904Y-108799380D01*
X169640142Y-108847000D01*
X169687761Y-108894619D01*
X169735380Y-108989857D01*
X169735380Y-109085095D01*
X169687761Y-109227952D01*
X169116333Y-109799380D01*
X169735380Y-109799380D01*
X170306809Y-109227952D02*
X170211571Y-109180333D01*
X170163952Y-109132714D01*
X170116333Y-109037476D01*
X170116333Y-108989857D01*
X170163952Y-108894619D01*
X170211571Y-108847000D01*
X170306809Y-108799380D01*
X170497285Y-108799380D01*
X170592523Y-108847000D01*
X170640142Y-108894619D01*
X170687761Y-108989857D01*
X170687761Y-109037476D01*
X170640142Y-109132714D01*
X170592523Y-109180333D01*
X170497285Y-109227952D01*
X170306809Y-109227952D01*
X170211571Y-109275571D01*
X170163952Y-109323190D01*
X170116333Y-109418428D01*
X170116333Y-109608904D01*
X170163952Y-109704142D01*
X170211571Y-109751761D01*
X170306809Y-109799380D01*
X170497285Y-109799380D01*
X170592523Y-109751761D01*
X170640142Y-109704142D01*
X170687761Y-109608904D01*
X170687761Y-109418428D01*
X170640142Y-109323190D01*
X170592523Y-109275571D01*
X170497285Y-109227952D01*
X171116333Y-109799380D02*
X171116333Y-108799380D01*
X171497285Y-108799380D01*
X171592523Y-108847000D01*
X171640142Y-108894619D01*
X171687761Y-108989857D01*
X171687761Y-109132714D01*
X171640142Y-109227952D01*
X171592523Y-109275571D01*
X171497285Y-109323190D01*
X171116333Y-109323190D01*
X172116333Y-109418428D02*
X172878238Y-109418428D01*
X173354428Y-109799380D02*
X173354428Y-108799380D01*
X173735380Y-108799380D01*
X173830619Y-108847000D01*
X173878238Y-108894619D01*
X173925857Y-108989857D01*
X173925857Y-109132714D01*
X173878238Y-109227952D01*
X173830619Y-109275571D01*
X173735380Y-109323190D01*
X173354428Y-109323190D01*
X174354428Y-108799380D02*
X174354428Y-109608904D01*
X174402047Y-109704142D01*
X174449666Y-109751761D01*
X174544904Y-109799380D01*
X174735380Y-109799380D01*
X174830619Y-109751761D01*
X174878238Y-109704142D01*
X174925857Y-109608904D01*
X174925857Y-108799380D01*
X157440380Y-110108904D02*
X158249904Y-110108904D01*
X158345142Y-110061285D01*
X158392761Y-110013666D01*
X158440380Y-109918428D01*
X158440380Y-109727952D01*
X158392761Y-109632714D01*
X158345142Y-109585095D01*
X158249904Y-109537476D01*
X157440380Y-109537476D01*
X157440380Y-108585095D02*
X157440380Y-109061285D01*
X157916571Y-109108904D01*
X157868952Y-109061285D01*
X157821333Y-108966047D01*
X157821333Y-108727952D01*
X157868952Y-108632714D01*
X157916571Y-108585095D01*
X158011809Y-108537476D01*
X158249904Y-108537476D01*
X158345142Y-108585095D01*
X158392761Y-108632714D01*
X158440380Y-108727952D01*
X158440380Y-108966047D01*
X158392761Y-109061285D01*
X158345142Y-109108904D01*
G04 #@! TO.C,Y1*
X136755142Y-102623714D02*
X136802761Y-102671333D01*
X136850380Y-102814190D01*
X136850380Y-102909428D01*
X136802761Y-103052285D01*
X136707523Y-103147523D01*
X136612285Y-103195142D01*
X136421809Y-103242761D01*
X136278952Y-103242761D01*
X136088476Y-103195142D01*
X135993238Y-103147523D01*
X135898000Y-103052285D01*
X135850380Y-102909428D01*
X135850380Y-102814190D01*
X135898000Y-102671333D01*
X135945619Y-102623714D01*
X136850380Y-102195142D02*
X136183714Y-102195142D01*
X136374190Y-102195142D02*
X136278952Y-102147523D01*
X136231333Y-102099904D01*
X136183714Y-102004666D01*
X136183714Y-101909428D01*
X136183714Y-101671333D02*
X136850380Y-101433238D01*
X136183714Y-101195142D02*
X136850380Y-101433238D01*
X137088476Y-101528476D01*
X137136095Y-101576095D01*
X137183714Y-101671333D01*
X136802761Y-100861809D02*
X136850380Y-100766571D01*
X136850380Y-100576095D01*
X136802761Y-100480857D01*
X136707523Y-100433238D01*
X136659904Y-100433238D01*
X136564666Y-100480857D01*
X136517047Y-100576095D01*
X136517047Y-100718952D01*
X136469428Y-100814190D01*
X136374190Y-100861809D01*
X136326571Y-100861809D01*
X136231333Y-100814190D01*
X136183714Y-100718952D01*
X136183714Y-100576095D01*
X136231333Y-100480857D01*
X136183714Y-100147523D02*
X136183714Y-99766571D01*
X135850380Y-100004666D02*
X136707523Y-100004666D01*
X136802761Y-99957047D01*
X136850380Y-99861809D01*
X136850380Y-99766571D01*
X136850380Y-99004666D02*
X136326571Y-99004666D01*
X136231333Y-99052285D01*
X136183714Y-99147523D01*
X136183714Y-99338000D01*
X136231333Y-99433238D01*
X136802761Y-99004666D02*
X136850380Y-99099904D01*
X136850380Y-99338000D01*
X136802761Y-99433238D01*
X136707523Y-99480857D01*
X136612285Y-99480857D01*
X136517047Y-99433238D01*
X136469428Y-99338000D01*
X136469428Y-99099904D01*
X136421809Y-99004666D01*
X136850380Y-98385619D02*
X136802761Y-98480857D01*
X136707523Y-98528476D01*
X135850380Y-98528476D01*
X129291809Y-100941190D02*
X129291809Y-101417380D01*
X128958476Y-100417380D02*
X129291809Y-100941190D01*
X129625142Y-100417380D01*
X130482285Y-101417380D02*
X129910857Y-101417380D01*
X130196571Y-101417380D02*
X130196571Y-100417380D01*
X130101333Y-100560238D01*
X130006095Y-100655476D01*
X129910857Y-100703095D01*
G04 #@! TO.C,Y2*
D17*
X149669904Y-98603571D02*
X149646095Y-98627380D01*
X149574666Y-98651190D01*
X149527047Y-98651190D01*
X149455619Y-98627380D01*
X149408000Y-98579761D01*
X149384190Y-98532142D01*
X149360380Y-98436904D01*
X149360380Y-98365476D01*
X149384190Y-98270238D01*
X149408000Y-98222619D01*
X149455619Y-98175000D01*
X149527047Y-98151190D01*
X149574666Y-98151190D01*
X149646095Y-98175000D01*
X149669904Y-98198809D01*
X149860380Y-98627380D02*
X149931809Y-98651190D01*
X150050857Y-98651190D01*
X150098476Y-98627380D01*
X150122285Y-98603571D01*
X150146095Y-98555952D01*
X150146095Y-98508333D01*
X150122285Y-98460714D01*
X150098476Y-98436904D01*
X150050857Y-98413095D01*
X149955619Y-98389285D01*
X149908000Y-98365476D01*
X149884190Y-98341666D01*
X149860380Y-98294047D01*
X149860380Y-98246428D01*
X149884190Y-98198809D01*
X149908000Y-98175000D01*
X149955619Y-98151190D01*
X150074666Y-98151190D01*
X150146095Y-98175000D01*
X150288952Y-98151190D02*
X150574666Y-98151190D01*
X150431809Y-98651190D02*
X150431809Y-98151190D01*
X151027047Y-98603571D02*
X151003238Y-98627380D01*
X150931809Y-98651190D01*
X150884190Y-98651190D01*
X150812761Y-98627380D01*
X150765142Y-98579761D01*
X150741333Y-98532142D01*
X150717523Y-98436904D01*
X150717523Y-98365476D01*
X150741333Y-98270238D01*
X150765142Y-98222619D01*
X150812761Y-98175000D01*
X150884190Y-98151190D01*
X150931809Y-98151190D01*
X151003238Y-98175000D01*
X151027047Y-98198809D01*
X151241333Y-98389285D02*
X151408000Y-98389285D01*
X151479428Y-98651190D02*
X151241333Y-98651190D01*
X151241333Y-98151190D01*
X151479428Y-98151190D01*
X151955619Y-98651190D02*
X151669904Y-98651190D01*
X151812761Y-98651190D02*
X151812761Y-98151190D01*
X151765142Y-98222619D01*
X151717523Y-98270238D01*
X151669904Y-98294047D01*
X152384190Y-98151190D02*
X152288952Y-98151190D01*
X152241333Y-98175000D01*
X152217523Y-98198809D01*
X152169904Y-98270238D01*
X152146095Y-98365476D01*
X152146095Y-98555952D01*
X152169904Y-98603571D01*
X152193714Y-98627380D01*
X152241333Y-98651190D01*
X152336571Y-98651190D01*
X152384190Y-98627380D01*
X152408000Y-98603571D01*
X152431809Y-98555952D01*
X152431809Y-98436904D01*
X152408000Y-98389285D01*
X152384190Y-98365476D01*
X152336571Y-98341666D01*
X152241333Y-98341666D01*
X152193714Y-98365476D01*
X152169904Y-98389285D01*
X152146095Y-98436904D01*
X152646095Y-98651190D02*
X152646095Y-98151190D01*
X152812761Y-98508333D01*
X152979428Y-98151190D01*
X152979428Y-98651190D01*
X153312761Y-98151190D02*
X153360380Y-98151190D01*
X153408000Y-98175000D01*
X153431809Y-98198809D01*
X153455619Y-98246428D01*
X153479428Y-98341666D01*
X153479428Y-98460714D01*
X153455619Y-98555952D01*
X153431809Y-98603571D01*
X153408000Y-98627380D01*
X153360380Y-98651190D01*
X153312761Y-98651190D01*
X153265142Y-98627380D01*
X153241333Y-98603571D01*
X153217523Y-98555952D01*
X153193714Y-98460714D01*
X153193714Y-98341666D01*
X153217523Y-98246428D01*
X153241333Y-98198809D01*
X153265142Y-98175000D01*
X153312761Y-98151190D01*
X153622285Y-98151190D02*
X153788952Y-98651190D01*
X153955619Y-98151190D01*
X154360380Y-98151190D02*
X154122285Y-98151190D01*
X154098476Y-98389285D01*
X154122285Y-98365476D01*
X154169904Y-98341666D01*
X154288952Y-98341666D01*
X154336571Y-98365476D01*
X154360380Y-98389285D01*
X154384190Y-98436904D01*
X154384190Y-98555952D01*
X154360380Y-98603571D01*
X154336571Y-98627380D01*
X154288952Y-98651190D01*
X154169904Y-98651190D01*
X154122285Y-98627380D01*
X154098476Y-98603571D01*
X154550857Y-98151190D02*
X154860380Y-98151190D01*
X154693714Y-98341666D01*
X154765142Y-98341666D01*
X154812761Y-98365476D01*
X154836571Y-98389285D01*
X154860380Y-98436904D01*
X154860380Y-98555952D01*
X154836571Y-98603571D01*
X154812761Y-98627380D01*
X154765142Y-98651190D01*
X154622285Y-98651190D01*
X154574666Y-98627380D01*
X154550857Y-98603571D01*
X155074666Y-98460714D02*
X155455619Y-98460714D01*
X155979428Y-98651190D02*
X155812761Y-98413095D01*
X155693714Y-98651190D02*
X155693714Y-98151190D01*
X155884190Y-98151190D01*
X155931809Y-98175000D01*
X155955619Y-98198809D01*
X155979428Y-98246428D01*
X155979428Y-98317857D01*
X155955619Y-98365476D01*
X155931809Y-98389285D01*
X155884190Y-98413095D01*
X155693714Y-98413095D01*
X156288952Y-98151190D02*
X156336571Y-98151190D01*
X156384190Y-98175000D01*
X156408000Y-98198809D01*
X156431809Y-98246428D01*
X156455619Y-98341666D01*
X156455619Y-98460714D01*
X156431809Y-98555952D01*
X156408000Y-98603571D01*
X156384190Y-98627380D01*
X156336571Y-98651190D01*
X156288952Y-98651190D01*
X156241333Y-98627380D01*
X156217523Y-98603571D01*
X156193714Y-98555952D01*
X156169904Y-98460714D01*
X156169904Y-98341666D01*
X156193714Y-98246428D01*
X156217523Y-98198809D01*
X156241333Y-98175000D01*
X156288952Y-98151190D01*
D15*
X152722285Y-99630714D02*
X152722285Y-99916428D01*
X152522285Y-99316428D02*
X152722285Y-99630714D01*
X152922285Y-99316428D01*
X153093714Y-99373571D02*
X153122285Y-99345000D01*
X153179428Y-99316428D01*
X153322285Y-99316428D01*
X153379428Y-99345000D01*
X153408000Y-99373571D01*
X153436571Y-99430714D01*
X153436571Y-99487857D01*
X153408000Y-99573571D01*
X153065142Y-99916428D01*
X153436571Y-99916428D01*
G04 #@! TO.C,C1*
D11*
X127277904Y-121197714D02*
X127277904Y-121864380D01*
X127039809Y-120816761D02*
X126801714Y-121531047D01*
X127420761Y-121531047D01*
X127706476Y-120864380D02*
X128373142Y-120864380D01*
X127944571Y-121864380D01*
X129182666Y-121197714D02*
X129182666Y-121864380D01*
X128754095Y-121197714D02*
X128754095Y-121721523D01*
X128801714Y-121816761D01*
X128896952Y-121864380D01*
X129039809Y-121864380D01*
X129135047Y-121816761D01*
X129182666Y-121769142D01*
X128373142Y-117133666D02*
X128420761Y-117181285D01*
X128468380Y-117324142D01*
X128468380Y-117419380D01*
X128420761Y-117562238D01*
X128325523Y-117657476D01*
X128230285Y-117705095D01*
X128039809Y-117752714D01*
X127896952Y-117752714D01*
X127706476Y-117705095D01*
X127611238Y-117657476D01*
X127516000Y-117562238D01*
X127468380Y-117419380D01*
X127468380Y-117324142D01*
X127516000Y-117181285D01*
X127563619Y-117133666D01*
X128468380Y-116181285D02*
X128468380Y-116752714D01*
X128468380Y-116467000D02*
X127468380Y-116467000D01*
X127611238Y-116562238D01*
X127706476Y-116657476D01*
X127754095Y-116752714D01*
G04 #@! TO.C,C2*
X135659904Y-121070714D02*
X135659904Y-121737380D01*
X135421809Y-120689761D02*
X135183714Y-121404047D01*
X135802761Y-121404047D01*
X136088476Y-120737380D02*
X136755142Y-120737380D01*
X136326571Y-121737380D01*
X137564666Y-121070714D02*
X137564666Y-121737380D01*
X137136095Y-121070714D02*
X137136095Y-121594523D01*
X137183714Y-121689761D01*
X137278952Y-121737380D01*
X137421809Y-121737380D01*
X137517047Y-121689761D01*
X137564666Y-121642142D01*
X136755142Y-117177666D02*
X136802761Y-117225285D01*
X136850380Y-117368142D01*
X136850380Y-117463380D01*
X136802761Y-117606238D01*
X136707523Y-117701476D01*
X136612285Y-117749095D01*
X136421809Y-117796714D01*
X136278952Y-117796714D01*
X136088476Y-117749095D01*
X135993238Y-117701476D01*
X135898000Y-117606238D01*
X135850380Y-117463380D01*
X135850380Y-117368142D01*
X135898000Y-117225285D01*
X135945619Y-117177666D01*
X135945619Y-116796714D02*
X135898000Y-116749095D01*
X135850380Y-116653857D01*
X135850380Y-116415761D01*
X135898000Y-116320523D01*
X135945619Y-116272904D01*
X136040857Y-116225285D01*
X136136095Y-116225285D01*
X136278952Y-116272904D01*
X136850380Y-116844333D01*
X136850380Y-116225285D01*
G04 #@! TD*
M02*
